<svg xmlns="http://www.w3.org/2000/svg" width="510" height="510" xmlns:v="https://vecta.io/nano"><path fill="#87c84b" d="M509.28 509.241H.002V-.036H509.28v509.278z"/><path d="M217.739 174.294c11.369-6.474 24.277-9.92 37.714-9.92 20.405 0 39.588 7.946 54.017 22.375 4.625 4.625 8.583 9.74 11.828 15.226l-25.344 15.051 66.472 23.922 8.429-68.402-23.291 13.831c-4.556-7.71-10.071-14.818-16.487-21.234a106.57 106.57 0 0 0-33.99-22.914c-13.195-5.581-27.203-8.411-41.634-8.411s-28.439 2.83-41.634 8.411l-1.594.691 5.514 31.375zm-.328 132.752a76.8 76.8 0 0 1-15.974-12.263c-14.429-14.429-22.375-33.612-22.375-54.017 0-13.588 3.525-26.635 10.141-38.096l25.735 14.526-12.216-69.513-63.545 26.749 23.424 13.222c-2.114 3.694-4.011 7.524-5.684 11.478-5.581 13.195-8.411 27.203-8.411 41.634s2.83 28.439 8.411 41.634a106.57 106.57 0 0 0 22.913 33.99 107.49 107.49 0 0 0 12.923 11.031l24.659-20.374zm114.434-66.27c-.003 20.401-7.949 39.581-22.375 54.006-14.252 14.252-33.145 22.179-53.271 22.37l.005-28.88-54.509 44.971 54.494 42.192.005-27.726c14.17-.095 27.924-2.921 40.893-8.406a106.57 106.57 0 0 0 56.904-56.904c4.177-9.876 6.812-20.207 7.873-30.831l-30.019-10.792z" fill="#fff"/></svg>