<?xml version="1.0" encoding="UTF-8" standalone="no"?>
<!-- Created with Inkscape (http://www.inkscape.org/) -->

<svg
   version="1.1"
   id="svg2"
   width="680.32001"
   height="680.32001"
   viewBox="0 0 680.32001 680.32001"
   sodipodi:docname="HAVEAFFALD_rgb.icon.svg"
   inkscape:version="1.3.2 (091e20e, 2023-11-25, custom)"
   xmlns:inkscape="http://www.inkscape.org/namespaces/inkscape"
   xmlns:sodipodi="http://sodipodi.sourceforge.net/DTD/sodipodi-0.dtd"
   xmlns="http://www.w3.org/2000/svg"
   xmlns:svg="http://www.w3.org/2000/svg">
  <defs
     id="defs6" />
  <sodipodi:namedview
     id="namedview4"
     pagecolor="#ffffff"
     bordercolor="#000000"
     borderopacity="0.25"
     inkscape:showpageshadow="2"
     inkscape:pageopacity="0.0"
     inkscape:pagecheckerboard="0"
     inkscape:deskcolor="#d1d1d1"
     inkscape:zoom="1.6859713"
     inkscape:cx="340.16"
     inkscape:cy="340.16"
     inkscape:window-width="2560"
     inkscape:window-height="1361"
     inkscape:window-x="2551"
     inkscape:window-y="-9"
     inkscape:window-maximized="1"
     inkscape:current-layer="g8" />
  <g
     id="g8"
     inkscape:groupmode="layer"
     inkscape:label="ink_ext_XXXXXX"
     transform="matrix(1.3333333,0,0,-1.3333333,0,680.32)">
    <g
       id="g10"
       transform="scale(0.1)">
      <path
         d="M 5102.36,0 H 0 V 5102.36 H 5102.36 V 0"
         style="fill:#1e6434;fill-opacity:1;fill-rule:nonzero;stroke:none"
         id="path12" />
      <path
         d="m 1862.59,2726.92 c 20.39,-142.93 80.49,-420.34 292.43,-656.52 147.56,-164.44 350.25,-274.8 370.64,-285.68 v 445.96 l -663.07,496.24"
         style="fill:#ffffff;fill-opacity:1;fill-rule:nonzero;stroke:none"
         id="path34" />
      <path
         d="m 3042.59,3662.42 c -67.36,98.17 -159.65,194.74 -228.2,279.62 -62.85,77.81 -146.83,156.93 -190.32,265.37 l -47.39,129.27 V 3313.73 l 465.91,348.69"
         style="fill:#ffffff;fill-opacity:1;fill-rule:nonzero;stroke:none"
         id="path36" />
      <path
         d="m 2525.66,2740.47 -648.01,484.97 c -0.08,-0.4 -0.18,-0.82 -0.26,-1.22 -25.58,-125.59 -33.82,-325.18 -23.37,-427.15 l 671.64,-502.66 v 446.06"
         style="fill:#ffffff;fill-opacity:1;fill-rule:nonzero;stroke:none"
         id="path38" />
      <path
         d="m 2525.66,3250 -493.54,369.37 c -0.07,-0.12 -0.14,-0.24 -0.21,-0.35 -65.77,-109.7 -114.89,-240.44 -141.36,-339.5 L 2525.66,2804.2 V 3250"
         style="fill:#ffffff;fill-opacity:1;fill-rule:nonzero;stroke:none"
         id="path40" />
      <path
         d="m 2525.66,4336.42 -47.37,-129.17 c -43.49,-108.44 -127.47,-187.57 -190.32,-265.37 -68.53,-84.85 -160.78,-181.39 -228.13,-279.53 l 465.82,-348.62 v 1022.69"
         style="fill:#ffffff;fill-opacity:1;fill-rule:nonzero;stroke:none"
         id="path42" />
      <path
         d="m 2576.68,2230.68 v -445.81 c 20.28,10.82 223.05,121.2 370.66,285.69 211.86,236.09 271.99,513.39 292.41,656.36 l -663.07,-496.24"
         style="fill:#ffffff;fill-opacity:1;fill-rule:nonzero;stroke:none"
         id="path44" />
      <path
         d="m 2576.68,2294.41 671.65,502.66 c 10.47,101.93 2.23,301.66 -23.36,427.31 -0.07,0.36 -0.16,0.74 -0.23,1.1 l -648.06,-485.01 v -446.06"
         style="fill:#ffffff;fill-opacity:1;fill-rule:nonzero;stroke:none"
         id="path46" />
      <path
         d="m 2576.68,2804.2 635.17,475.36 c -26.47,99.08 -75.61,229.87 -141.4,339.62 -0.05,0.09 -0.1,0.17 -0.15,0.25 L 2576.68,3250 v -445.8"
         style="fill:#ffffff;fill-opacity:1;fill-rule:nonzero;stroke:none"
         id="path48" />
      <path
         d="m 2576.69,1274.48 h -51.02 v 510.24 h 51.02 v -510.24"
         style="fill:#ffffff;fill-opacity:1;fill-rule:nonzero;stroke:none"
         id="path50" />
    </g>
  </g>
</svg>
