<svg xmlns="http://www.w3.org/2000/svg" width="256" height="256" xmlns:v="https://vecta.io/nano"><path d="M0 0h256v256H0V0z" fill="#4caf50"/><path d="M127 53c3.737 1.746 6.115 3.885 9.027 6.832l1.427 1.435 4.484 4.545 2.998 3.025 5.541 5.607 10.418 10.38 2.918 2.863 1.521 1.471c1.26 1.243 2.468 2.539 3.666 3.842v2l-22 1c4.368 4.992 8.029 9.031 12.952 13.214 3.585 3.126 6.895 6.528 10.236 9.911l2.076 2.09 3.96 4.001c1.524 1.531 3.079 3.032 4.639 4.526C183 132 183 132 185 136h-23v2l1.629.637c3.274 1.883 5.703 4.485 8.309 7.176l1.553 1.58 2.904 2.97 11.469 11.466 5.449 5.422 2.822 2.797 2.666 2.656 2.443 2.427C203 177 203 177 203 178h-58v25h-34v-25H53c6.754-7.879 6.754-7.879 9.679-10.824l1.981-2 2.075-2.078 2.18-2.19 4.528-4.535 6.945-6.984 4.41-4.416 2.099-2.121 1.943-1.934 1.708-1.713C92 138 92 138 94 138v-2H71c1.738-3.475 2.877-5.122 5.532-7.759l2.184-2.183 2.355-2.324 2.413-2.404 7.642-7.58 5.176-5.148L109 96l-22-1c1.771-3.542 2.996-5.241 5.715-7.942l2.305-2.305 2.488-2.456 2.547-2.539 8.07-8.008 5.465-5.437L127 53z" fill="#fcfdfc"/></svg>