<?xml version="1.0" encoding="utf-8"?>
<svg xmlns="http://www.w3.org/2000/svg" width="255" height="255" viewBox="0 0 500 500"><g transform="matrix(0.738194, 0, 0, 0.735371, 570.131226, 154.87822)" style=""><g id="svg2" transform="matrix(1, 0, 0, 1, -707.040588, 5.071437)" style=""><g id="g8" transform="matrix(1.333333, 0, 0, -1.333333, -65.368881, 464.509094)"><g id="g10" transform="scale(0.1)"><path d="M 5102.36,0 H 0 V 5102.36 H 5102.36 V 0" style="fill:#9a1844;fill-opacity:1;fill-rule:nonzero;stroke:none" id="path12"/><path d="M 2798.11 1969.58 C 2754.03 1878.19 2660.5 1815.13 2552.25 1815.13 C 2443.99 1815.13 2350.47 1878.19 2306.4 1969.58 L 1642.93 1969.58 L 1642.93 1500.37 L 2006.66 1500.37 L 2006.66 332.802 L 2691.71 332.802 L 2768.63 430.108 L 2695.95 513.712 L 2735.04 605.992 L 2698.45 651.302 L 2735.04 743.511 L 2692.04 878.462 L 2826 694.28 L 2792.37 623.793 L 2872.5 529.117 L 2835.27 473.279 L 2931.51 332.802 L 3097.85 332.802 L 3097.85 1500.37 L 3461.57 1500.37 L 3461.57 1969.58 L 2798.11 1969.58" style="fill: rgb(255, 255, 255); fill-opacity: 1; fill-rule: nonzero; stroke: none;" id="path40"/></g></g></g><path d="M -431.98 -211.04 L -92.588 -211.04 L -92.588 135.594 L -431.98 135.594 L -431.98 -211.04 Z" fill="#0082be" style="" id="object-0"/><path d="M -772.89 -211.19 L -433.5 -211.19 L -433.5 135.456 L -772.89 135.456 L -772.89 -211.19 Z" fill="#bea064" style="" id="object-1"/><path d="M -591.85 -111.76 L -584.92 -111.68 L -563.2 -111.16 L -548.39 -110.93 L -512.26 -110.08 L -512.26 -104.36 L -506.92 -104.36 L -500.08 -92.2 L -496.23 -85.365 C -493.56 -78.616 -493.56 -78.616 -493.83 -72.58 C -496.23 -67.175 -496.23 -67.175 -501.73 -63.8 C -507.36 -59.252 -507.36 -59.252 -507.56 -53.247 L -507.08 -32.511 C -507.18 -7.628 -507.18 -7.628 -515.79 4.442 C -523.3 10.648 -530.97 16.054 -538.99 21.488 C -543.58 26.464 -543.58 26.464 -547 31.499 C -552.34 38.649 -552.34 38.649 -560.36 41.508 C -563.95 41.737 -567.5 41.852 -571.09 41.824 L -577.58 41.824 L -584.52 41.795 L -591.69 41.765 L -614.32 41.681 L -629.66 41.652 L -667.27 41.508 L -667.27 -21.414 L -680.62 -21.414 C -679.1 -41.892 -671.64 -59.939 -657.82 -74.154 C -652.93 -78.386 -648 -82.562 -642.97 -86.623 C -635.57 -92.287 -635.57 -92.287 -631.21 -97.235 C -618.54 -110.59 -609.27 -112.48 -591.85 -111.76 Z" fill="#dccbab" style="" id="object-2"/><path d="M -274.42 -107.22 L -223.65 -107.22 L -223.65 50.089 L -325.2 50.089 L -326.38 1.467 L -326.88 -13.748 C -327.6 -50.214 -327.6 -50.214 -316.58 -63.829 C -313.28 -66.946 -309.95 -69.978 -306.49 -72.895 L -299.68 -80.474 L -293.8 -86.681 L -287.81 -92.973 L -282.44 -98.636 L -274.42 -107.22 Z" fill="#fefefe" style="" id="object-3"/><path d="M -565.7 -38.574 L -563.03 -38.574 L -563.03 38.649 L -664.59 38.649 L -664.59 -18.553 L -573.73 -21.414 L -565.7 -38.574 Z" fill="#fefdfc" style="" id="object-4"/><path d="M -434.86 -211.26 L -432.18 -211.26 L -432.18 134.455 L -92.795 134.455 L -92.795 137.176 L -432.18 137.176 L -434.86 137.176 L -774.24 137.176 L -774.24 134.455 L -434.86 134.455 L -434.86 -211.26 Z" fill="#46918b" style="" id="object-5"/><path d="M -669.94 -58.594 L -563.03 -58.594 C -568.39 -41.434 -568.39 -41.434 -576.4 -24.274 L -677.95 -24.274 C -675.28 -47.154 -675.28 -47.154 -669.94 -58.594 Z" fill="#fcfbfa" style="" id="object-6"/><path d="M -616.48 -107.22 L -514.93 -107.22 C -532.95 -84.736 -532.95 -84.736 -542.49 -76.126 L -547.97 -71.15 L -552.34 -67.175 L -555.02 -64.315 C -559.59 -64.086 -564.16 -64.029 -568.73 -64.057 L -577.09 -64.057 L -585.92 -64.143 L -594.76 -64.172 L -616.48 -64.315 L -616.48 -107.22 Z" fill="#fdfcfa" style="" id="object-7"/><path d="M -274.42 -107.22 L -223.65 -107.22 L -223.65 50.089 L -325.2 50.089 L -325.2 -50.014 L -322.53 -50.014 L -322.53 47.229 L -226.33 47.229 L -226.33 -104.36 L -269.08 -104.36 L -269.08 -50.014 L -322.53 -52.874 C -313.07 -64.687 -304.19 -75.698 -293.96 -86.481 L -287.93 -92.887 L -282.44 -98.636 L -274.42 -107.22 Z" fill="#deeff6" style="" id="object-8"/><path d="M -512.26 -101.5 C -503.44 -98.349 -502.62 -97.349 -498.23 -89.169 L -495.34 -84.02 C -492.96 -76.841 -493.24 -74.154 -496.23 -67.175 C -502.54 -60.826 -502.54 -60.826 -510.42 -54.305 C -517.87 -48.098 -524.98 -42.149 -531.58 -34.913 C -536.32 -29.994 -536.32 -29.994 -541.66 -29.994 L -548.66 -42.149 L -552.61 -48.985 C -555.02 -55.735 -555.02 -55.735 -553.66 -61.397 C -548.23 -69.263 -541.95 -75.355 -535.14 -81.847 L -527.31 -89.369 C -520.28 -95.777 -520.28 -95.777 -512.26 -101.5 Z" fill="#fcfaf8" style="" id="object-9"/><path d="M -514.93 -47.154 L -512.26 -47.154 C -506.71 -13.062 -506.71 -13.062 -515.85 1.41 C -525.92 13.451 -537.38 23.575 -549.68 32.928 L -555.02 32.928 L -555.02 -44.294 C -547 -35.714 -547 -35.714 -541.66 -27.133 C -529.77 -31.137 -523.41 -37.573 -514.93 -47.154 Z" fill="#fdfcfb" style="" id="object-10"/><path d="M -619.16 -101.5 L -619.16 -64.315 L -659.24 -64.315 C -653.92 -75.726 -649.43 -80.961 -640.69 -89.341 L -633.61 -96.291 C -627.17 -101.5 -627.17 -101.5 -619.16 -101.5 Z" fill="#fff" style="" id="object-11"/><path d="M -277.1 -95.777 L -277.1 -55.735 L -314.51 -55.735 C -283.19 -95.777 -283.19 -95.777 -277.1 -95.777 Z" fill="#fefefe" style="" id="object-12"/><path d="M -555.02 -55.735 C -548.15 -47.211 -543.74 -41.033 -541.66 -29.994 L -535.32 -35.628 L -527.12 -42.864 L -518.94 -50.101 C -512.26 -55.735 -512.26 -55.735 -509.58 -55.735 L -509.58 -4.253 L -512.26 -4.253 L -514.93 -44.294 L -536.32 -24.274 C -547 -29.994 -547 -29.994 -552.34 -41.434 L -552.34 35.788 L -557.69 35.788 L -557.82 -0.563 L -557.9 -12.919 L -557.97 -30.68 L -557.99 -41.491 C -557.69 -50.014 -557.69 -50.014 -555.02 -55.735 Z" fill="#decfb1" style="" id="object-13"/><path d="M -271.75 -107.22 L -271.75 -50.014 L -322.53 -52.874 C -313.07 -64.687 -304.19 -75.698 -293.96 -86.481 L -287.93 -92.887 L -282.44 -98.636 L -277.88 -103.7 C -274.42 -107.22 -274.42 -107.22 -271.75 -107.22 Z M -287.62 -87.74 L -292.36 -82.705 L -297.31 -77.357 L -302.3 -72.066 L -307 -67.003 L -311.35 -62.342 C -314.8 -59.081 -314.8 -59.081 -314.51 -55.735 L -277.1 -55.735 L -277.1 -95.777 C -281.83 -95.777 -284.43 -91.17 -287.62 -87.74 Z" fill="#cbe6f2" style="" id="object-14"/><path d="M -547 -75.755 L -541.66 -72.895 L -546.84 -67.889 C -556.47 -56.65 -555.45 -44.98 -555.85 -30.137 L -556.04 -24.417 L -556.51 -6.398 L -556.86 5.843 L -557.69 35.788 L -552.34 38.649 L -560.36 38.649 L -562.4 -3.338 L -563.09 -17.609 L -564.02 -38.173 L -564.46 -44.58 C -564.67 -53.017 -564.62 -59.481 -559.41 -66.088 C -554.96 -70.064 -554.96 -70.064 -547 -75.755 Z" fill="#d0bb90" style="" id="object-15"/><path d="M -619.16 -101.5 L -619.16 -64.315 L -621.83 -64.315 L -624.51 -95.777 L -630.76 -88.911 L -638.85 -80.046 L -642.97 -75.498 L -653.89 -64.315 L -659.24 -64.315 C -655.09 -75.212 -648.81 -81.561 -640.69 -89.341 L -633.61 -96.291 C -627.17 -101.5 -627.17 -101.5 -619.16 -101.5 Z" fill="#e8dec9" style="" id="object-16"/><path d="M -271.75 -107.22 L -271.75 -50.014 L -277.1 -52.874 L -279.77 -104.36 C -274.42 -107.22 -274.42 -107.22 -271.75 -107.22 Z" fill="#7bbedd" style="" id="object-17"/><path d="M -517.61 -104.36 L -512.26 -98.636 L -538.99 -72.895 L -544.33 -78.616 L -517.61 -104.36 Z" fill="#dbcaa9" style="" id="object-18"/><path d="M -565.7 -52.874 L -560.36 -44.294 L -571.06 -21.414 L -576.4 -27.133 L -565.7 -52.874 Z" fill="#ddcdae" style="" id="object-19"/><path d="M -640.53 -87.196 L -635.19 -84.335 L -644.2 -74.325 L -649.27 -68.691 C -653.89 -64.315 -653.89 -64.315 -659.24 -64.315 C -655.26 -75.183 -649.2 -80.36 -640.53 -87.196 Z" fill="#f3ede3" style="" id="object-20"/></g></svg>