<svg xmlns="http://www.w3.org/2000/svg" width="510.2" height="510.2" xmlns:v="https://vecta.io/nano"><path d="M0 0h510.2v510.2H0z" fill="#961e82"/><g fill="#fff"><path d="M297.5 165.3h0l-1 1.4zm-42.3 70.8v-.6-.5-.6c0-6.5 0-20 9.2-32.1l28.1-38.6v-16.8c-23.4-3-66.9-2.2-85.2-2.2-81.4 0-83.4-4.1-83.5-4.4l3.7 74.2c2.2 20.2 5.5 41.1 16.3 58.2 1 1.6 2.1 3.3 2.1 5.2 0 1.5-.8 2.9-1.5 4.2-6.5 12.4-8.2 26.4-9.7 40.4l-3.2 30.3c-.9 8.3-.9 13.8-1.8 22.1-.1 3.1-3 5.7-4.9 8.1s-2.4 7.8-2.6 12.2c3.8 1.5 28.7.9 49.7.1 13.4-.5 25.4-2.1 28.8-2.5 18.3-2.2 37.2-2.6 56.2-2.3-1.1-2.2-1.6-4.5-1.6-6.9V236.1zm-3.8-58c0 4.9-4 8.9-8.9 8.9h-58.7c-4.9 0-8.9-4-8.9-8.9h0c0-4.9 4-8.9 8.9-8.9h58.7c4.9 0 8.9 4 8.9 8.9h0zm8.9 57.8v-1.1c0-4.1-.1-11.3 2.4-19-2.6 7.3-2.5 14.2-2.5 18.5v.6.6.5 147.5c0 2.5 1 5 2.7 7-1.6-1.9-2.6-4.3-2.6-7V235.9z"/><path d="M376.1 201.9l-40.3-36.6v-51l-38.2-.1v51 .1h0l-1 1.4-28.1 38.5c-2.7 3.5-4.5 7.1-5.7 10.6-2.6 7.7-2.4 14.8-2.4 19v1.1 147.8c0 2.6 1 5.1 2.6 7 2.2 2.6 5.5 4.2 9.3 4.2H376c6.6 0 11.9-5 11.9-11.2V235.5v-1.4c0-7.6-.8-22-11.8-32.2zm-6.2 92.8c0 4.9-4 8.9-8.9 8.9h-.1c-4.9 0-8.9-4-8.9-8.9v-58.8c0-4.9 4-8.9 8.9-8.9h.1c4.9 0 8.9 4 8.9 8.9v58.8z"/></g></svg>