<?xml version="1.0" encoding="utf-8"?>
<!-- Generator: Adobe Illustrator 26.0.3, SVG Export Plug-In . SVG Version: 6.00 Build 0)  -->
<svg version="1.1" xmlns="http://www.w3.org/2000/svg" xmlns:xlink="http://www.w3.org/1999/xlink" x="0px" y="0px" width="510.2px"
	 height="510.2px" viewBox="0 0 510.2 510.2" style="enable-background:new 0 0 510.2 510.2;" xml:space="preserve">
<style type="text/css">
	.st0{fill:#A01E41;}
	.st1{display:none;}
	.st2{display:inline;fill:#FFFFFF;}
	.st3{fill:#FFFFFF;}
</style>
<g id="baggrund">
	<g>
		<rect x="0" y="0" class="st0" width="510.2" height="510.2"/>
	</g>
</g>
<g id="fraktion" class="st1">
	<path class="st2" d="M72.5,420.1v36.7h-6.5v-36.7h-9.8v-6.1h26.1v6.1H72.5z"/>
	<path class="st2" d="M113.1,420.1H96v10.3h16.6v6.1H96v14.3h17.1v6.1H89.5v-42.7h23.6V420.1z"/>
	<path class="st2" d="M127,431.1l16.6-17.1h8.6l-19.3,19.4l19.4,23.4h-8.6l-15.4-19l-1.3,1.3v17.7h-6.5v-42.7h6.5V431.1z"/>
	<path class="st2" d="M180.7,420.4l-5.2,3.1c-1-1.7-1.9-2.8-2.8-3.3c-0.9-0.6-2.1-0.9-3.6-0.9c-1.8,0-3.3,0.5-4.5,1.5
		c-1.2,1-1.8,2.3-1.8,3.8c0,2.1,1.6,3.8,4.7,5l4.3,1.7c3.5,1.4,6,3.1,7.6,5.1c1.6,2,2.4,4.5,2.4,7.4c0,3.9-1.3,7.2-3.9,9.8
		c-2.6,2.6-5.9,3.9-9.8,3.9c-3.7,0-6.8-1.1-9.2-3.3c-2.4-2.2-3.9-5.3-4.5-9.3l6.5-1.4c0.3,2.5,0.8,4.2,1.6,5.2
		c1.3,1.8,3.3,2.8,5.8,2.8c2,0,3.7-0.7,5-2c1.3-1.3,2-3.1,2-5.1c0-0.8-0.1-1.6-0.3-2.3c-0.2-0.7-0.6-1.3-1.1-1.9
		c-0.5-0.6-1.1-1.1-1.9-1.6c-0.8-0.5-1.7-1-2.8-1.5l-4.1-1.7c-5.9-2.5-8.8-6.1-8.8-10.8c0-3.2,1.2-5.9,3.7-8.1
		c2.5-2.2,5.5-3.3,9.2-3.3C174,413.2,177.9,415.6,180.7,420.4z"/>
	<path class="st2" d="M202.5,420.1v36.7h-6.5v-36.7h-9.8v-6.1h26.1v6.1H202.5z"/>
	<path class="st2" d="M226.7,414.1v42.7h-6.5v-42.7H226.7z"/>
	<path class="st2" d="M240.9,414.1v36.7h12.6v6.1h-19v-42.7H240.9z"/>
	<path class="st2" d="M288.3,446.4H270l-4.8,10.4h-6.9l21.2-45.4l20.4,45.4h-7.1L288.3,446.4z M285.7,440.4l-6.3-14.5l-6.6,14.5
		H285.7z"/>
	<path class="st2" d="M326.6,420.1h-14.9v10.3H326v6.1h-14.4v20.3h-6.5v-42.7h21.3V420.1z"/>
	<path class="st2" d="M355.4,420.1h-14.9v10.3h14.4v6.1h-14.4v20.3H334v-42.7h21.3V420.1z"/>
	<path class="st2" d="M384.2,446.4h-18.3l-4.8,10.4h-6.9l21.2-45.4l20.4,45.4h-7.1L384.2,446.4z M381.6,440.4l-6.3-14.5l-6.6,14.5
		H381.6z"/>
	<path class="st2" d="M408.5,414.1v36.7h12.6v6.1h-19v-42.7H408.5z"/>
	<path class="st2" d="M428.1,456.8v-42.7h9c4.3,0,7.7,0.4,10.2,1.3c2.7,0.8,5.1,2.2,7.3,4.2c4.4,4,6.6,9.3,6.6,15.9
		c0,6.6-2.3,11.9-6.9,15.9c-2.3,2-4.7,3.4-7.3,4.2c-2.4,0.8-5.7,1.2-10,1.2H428.1z M434.5,450.7h2.9c2.9,0,5.3-0.3,7.2-0.9
		c1.9-0.6,3.7-1.7,5.2-3.1c3.2-2.9,4.8-6.7,4.8-11.3c0-4.7-1.6-8.5-4.7-11.4c-2.8-2.6-7-3.9-12.5-3.9h-2.9V450.7z"/>
</g>
<g id="ikon">
	<g>
		<g>
			<g>
				<path class="st3" d="M289.6,140.3c-6.2,12.8-19.3,21.7-34.5,21.7s-28.3-8.8-34.5-21.7h-93.1v65.8h51v163.8h96.1l10.8-13.6
					l-10.2-11.7l5.5-12.9l-5.1-6.4l5.1-12.9l-6-18.9l18.8,25.8l-4.7,9.9l11.2,13.3l-5.2,7.8l13.5,19.7h23.3V206.1h51v-65.8H289.6z"
					/>
			</g>
		</g>
	</g>
	<g>
	</g>
	<g>
	</g>
	<g>
	</g>
	<g>
	</g>
	<g>
	</g>
	<g>
	</g>
</g>
</svg>
