<?xml version="1.0" encoding="utf-8"?>
<!-- Generator: Adobe Illustrator 26.0.3, SVG Export Plug-In . SVG Version: 6.00 Build 0)  -->
<svg version="1.1" xmlns="http://www.w3.org/2000/svg" xmlns:xlink="http://www.w3.org/1999/xlink" x="0px" y="0px" width="510.2px"
	 height="510.2px" viewBox="0 0 510.2 510.2" style="enable-background:new 0 0 510.2 510.2;" xml:space="preserve">
<style type="text/css">
	.st0{fill:#141414;}
	.st1{display:none;}
	.st2{display:inline;}
	.st3{fill:#FFFFFF;}
</style>
<g id="baggrund">
	<rect x="0" y="0" class="st0" width="510.2" height="510.2"/>
</g>
<g id="fraktion" class="st1">
	<g class="st2">
		<path class="st3" d="M108.4,438.8l13.2,18.2h-7.9l-12.2-17.5h-1.2V457h-6.5v-42.7h7.6c5.6,0,9.7,1.1,12.2,3.2
			c2.8,2.4,4.2,5.5,4.2,9.4c0,3-0.9,5.6-2.6,7.8C113.5,436.8,111.2,438.2,108.4,438.8z M100.3,433.9h2c6.1,0,9.2-2.3,9.2-7
			c0-4.4-3-6.6-8.9-6.6h-2.3V433.9z"/>
		<path class="st3" d="M151.1,420.4h-17.1v10.3h16.6v6.1h-16.6V451h17.1v6.1h-23.6v-42.7h23.6V420.4z"/>
		<path class="st3" d="M183.7,420.6l-5.2,3.1c-1-1.7-1.9-2.8-2.8-3.3c-0.9-0.6-2.1-0.9-3.6-0.9c-1.8,0-3.3,0.5-4.5,1.5
			c-1.2,1-1.8,2.3-1.8,3.8c0,2.1,1.6,3.8,4.7,5l4.3,1.7c3.5,1.4,6,3.1,7.6,5.1c1.6,2,2.4,4.5,2.4,7.4c0,3.9-1.3,7.2-3.9,9.8
			c-2.6,2.6-5.9,3.9-9.8,3.9c-3.7,0-6.8-1.1-9.2-3.3c-2.4-2.2-3.9-5.3-4.5-9.3l6.5-1.4c0.3,2.5,0.8,4.2,1.6,5.2
			c1.3,1.8,3.3,2.8,5.8,2.8c2,0,3.7-0.7,5-2c1.3-1.3,2-3.1,2-5.1c0-0.8-0.1-1.6-0.3-2.3c-0.2-0.7-0.6-1.3-1.1-1.9
			c-0.5-0.6-1.1-1.1-1.9-1.6c-0.8-0.5-1.7-1-2.8-1.5l-4.1-1.7c-5.9-2.5-8.8-6.1-8.8-10.8c0-3.2,1.2-5.9,3.7-8.1
			c2.5-2.2,5.5-3.3,9.2-3.3C177.1,413.5,181,415.9,183.7,420.6z"/>
		<path class="st3" d="M205.2,420.4V457h-6.5v-36.7h-9.8v-6.1H215v6.1H205.2z"/>
		<path class="st3" d="M242.6,446.7h-18.3l-4.8,10.4h-6.9l21.2-45.4l20.4,45.4h-7.1L242.6,446.7z M240,440.6l-6.3-14.5l-6.6,14.5
			H240z"/>
		<path class="st3" d="M281.8,420.4h-14.9v10.3h14.4v6.1h-14.4V457h-6.5v-42.7h21.3V420.4z"/>
		<path class="st3" d="M310.6,420.4h-14.9v10.3h14.4v6.1h-14.4V457h-6.5v-42.7h21.3V420.4z"/>
		<path class="st3" d="M339.5,446.7h-18.3l-4.8,10.4h-6.9l21.2-45.4L351,457H344L339.5,446.7z M336.8,440.6l-6.3-14.5l-6.6,14.5
			H336.8z"/>
		<path class="st3" d="M363.7,414.3V451h12.6v6.1h-19v-42.7H363.7z"/>
		<path class="st3" d="M383.3,457v-42.7h9c4.3,0,7.7,0.4,10.2,1.3c2.7,0.8,5.1,2.2,7.3,4.2c4.4,4,6.6,9.3,6.6,15.9
			c0,6.6-2.3,11.9-6.9,15.9c-2.3,2-4.7,3.4-7.3,4.2c-2.4,0.8-5.7,1.2-10,1.2H383.3z M389.7,451h2.9c2.9,0,5.3-0.3,7.2-0.9
			c1.9-0.6,3.7-1.7,5.2-3.1c3.2-2.9,4.8-6.7,4.8-11.3c0-4.7-1.6-8.5-4.7-11.4c-2.8-2.6-7-3.9-12.5-3.9h-2.9V451z"/>
	</g>
</g>
<g id="ikon">
	<g>
		<path class="st3" d="M278,190.1l40.3-33c0,0-14.4,5.8-21.7-5c-3.9-5.8-6.8-11-9-14.2c-7-10.6-14.2,0.2-14.2,0.2l-15.6,40.3
			l-5.2-57c-10.2,30.1-53.1,6-44.4,24.6l24.1,44.3h10.1H278z"/>
		<path class="st3" d="M347,380.6c-0.4-0.4-2.9-3.4-5.4-8.5c-2.7-5.6-5.3-13.8-5.4-24.7c0-0.5-0.1-2.8-0.1-3.5
			c0.1-2.3,0.2-4.6,0.2-6.8c1-28,0.6-78.1-14-105.2c-10.8-20.1-32.1-32.9-44.4-36.7l-2.4,0h-11.3h-31.8h-0.2
			c-12.3,3.9-33.8,16.7-44.5,36.7c-14.5,27.2-15,77.3-14,105.2l0.2,5c0,1.3,0,2.6,0,3.9c0,0.5,0,0.9,0,1.4
			c-0.6,20.9-10.2,34.1-11,35.3c0,0-0.2,0.4-0.2,0.4c-0.5,0.6-0.7,1.4-0.7,2.2c0,2.2,1.9,3.9,4.2,3.9c0.7,0,1.3-0.2,2-0.4
			c3.4-1,20.5-5.9,38.8-5.9c10.5,0,16.4,1.1,22.1,2.2c1.5,0.3,11.7,2.3,21.3,2.3c11.9,0,23.8-0.8,39.1-10c5.9,2.4,12.1,4.2,18.1,5.6
			c10.8,2.5,21.1,3.6,27.9,4c4.9,0.3,8.1,0.3,8.6,0.3c0,0,0,0,0,0l0,0c2.2,0,3.9-1.7,3.9-3.9C348.2,382.3,347.8,381.4,347,380.6z"/>
	</g>
	<g>
	</g>
	<g>
	</g>
	<g>
	</g>
	<g>
	</g>
	<g>
	</g>
	<g>
	</g>
</g>
</svg>
