<?xml version="1.0" encoding="utf-8"?>
<!-- Generator: Adobe Illustrator 26.0.3, SVG Export Plug-In . SVG Version: 6.00 Build 0)  -->
<svg version="1.1" xmlns="http://www.w3.org/2000/svg" xmlns:xlink="http://www.w3.org/1999/xlink" x="0px" y="0px" width="511px"
	 height="511px" viewBox="0 0 511 511" style="enable-background:new 0 0 511 511;" xml:space="preserve">
<style type="text/css">
	.st0{fill:#1EAF8C;}
	.st1{display:none;}
	.st2{display:inline;fill:#FFFFFF;}
	.st3{fill:#FFFFFF;}
</style>
<g id="Baggrund">
	<g>
		<g>
			<rect x="-0.6" y="-0.3" class="st0" width="511.1" height="511.7"/>
		</g>
	</g>
</g>
<g id="Fraktion" class="st1">
	<path class="st2" d="M205.5,434.6h17.6v1.4c0,3.2-0.4,6-1.1,8.5c-0.7,2.3-2,4.4-3.7,6.4c-4,4.5-9,6.7-15.1,6.7
		c-6,0-11.1-2.2-15.3-6.5c-4.3-4.3-6.4-9.5-6.4-15.6c0-6.2,2.2-11.4,6.5-15.8c4.3-4.3,9.6-6.5,15.8-6.5c3.3,0,6.5,0.7,9.3,2
		c2.8,1.4,5.5,3.6,8.2,6.6l-4.6,4.4c-3.5-4.7-7.8-7-12.8-7c-4.5,0-8.3,1.6-11.4,4.7c-3.1,3.1-4.6,6.9-4.6,11.5
		c0,4.8,1.7,8.7,5.1,11.8c3.2,2.9,6.6,4.3,10.4,4.3c3.2,0,6-1.1,8.5-3.2c2.5-2.2,3.9-4.7,4.2-7.7h-10.6V434.6"/>
	<polyline class="st2" points="237.7,414.2 237.7,450.8 250.3,450.8 250.3,456.9 231.3,456.9 231.3,414.2 237.7,414.2 	"/>
	<path class="st2" d="M286.5,446.5h-18.3l-4.8,10.4h-6.9l21.1-45.4l20.4,45.4H291L286.5,446.5 M283.9,440.4l-6.3-14.5l-6.6,14.5
		H283.9z"/>
	<path class="st2" d="M326.7,420.5l-5.2,3.1c-1-1.7-1.9-2.8-2.8-3.3c-0.9-0.6-2.1-0.9-3.6-0.9c-1.8,0-3.3,0.5-4.5,1.5
		c-1.2,1-1.8,2.3-1.8,3.8c0,2.1,1.5,3.8,4.6,5l4.3,1.7c3.5,1.4,6,3.1,7.6,5.1c1.6,2,2.4,4.5,2.4,7.4c0,3.9-1.3,7.2-3.9,9.7
		c-2.6,2.6-5.9,3.9-9.8,3.9c-3.7,0-6.8-1.1-9.2-3.3c-2.4-2.2-3.9-5.3-4.5-9.3l6.5-1.4c0.3,2.5,0.8,4.2,1.5,5.2
		c1.3,1.8,3.3,2.8,5.8,2.8c2,0,3.7-0.7,5-2c1.3-1.3,2-3,2-5.1c0-0.8-0.1-1.6-0.3-2.3c-0.2-0.7-0.6-1.3-1.1-1.9
		c-0.5-0.6-1.1-1.1-1.9-1.6c-0.8-0.5-1.7-1-2.8-1.5l-4.1-1.7c-5.8-2.5-8.8-6.1-8.8-10.8c0-3.2,1.2-5.9,3.7-8
		c2.5-2.2,5.5-3.3,9.2-3.3C320,413.3,323.9,415.7,326.7,420.5"/>
</g>
<g id="Ikon">
	<g>
		<path class="st3" d="M298.3,279.4c0-67.8-29.7-62.3-30.5-125.9l0-38.2h-25.5l0,38.2c-0.8,63.5-30.5,58.1-30.5,125.9l0,116.2h86.6
			L298.3,279.4 M283.6,390.5c-5.2-10.6-16.1-18-28.7-18s-23.5,7.3-28.7,18h-5.6c5.5-13.5,18.8-23.1,34.2-23.1
			c15.5,0,28.7,9.5,34.2,23.1H283.6z"/>
	</g>
</g>
</svg>
