<?xml version="1.0" encoding="utf-8"?>
<!-- Generator: Adobe Illustrator 26.0.3, SVG Export Plug-In . SVG Version: 6.00 Build 0)  -->
<svg version="1.1" xmlns="http://www.w3.org/2000/svg" xmlns:xlink="http://www.w3.org/1999/xlink" x="0px" y="0px" width="510.2px"
	 height="510.2px" viewBox="0 0 510.2 510.2" style="enable-background:new 0 0 510.2 510.2;" xml:space="preserve">
<style type="text/css">
	.st0{fill:#BEA064;}
	.st1{display:none;}
	.st2{display:inline;}
	.st3{fill:#FFFFFF;}
	.st4{display:inline;fill:#FFFFFF;}
</style>
<g id="baggrund">
	<rect x="0" y="0" class="st0" width="510.2" height="510.2"/>
</g>
<g id="fraktion" class="st1">
	<g class="st2">
		<g>
			<path class="st3" d="M45.5,402.9l9-46l14.7,33.2L84.4,357l8.1,46h-6.6l-4.1-25.8l-12.7,27.8l-12.3-27.8l-4.6,25.8H45.5z"/>
			<path class="st3" d="M127.9,392.6h-18.3l-4.8,10.4h-6.9l21.2-45.4l20.4,45.4h-7.1L127.9,392.6z M125.3,386.5L119,372l-6.6,14.5
				H125.3z"/>
			<path class="st3" d="M145.2,402.9v-42.7h9c4.3,0,7.7,0.4,10.2,1.3c2.7,0.8,5.1,2.2,7.3,4.2c4.4,4,6.6,9.3,6.6,15.9
				c0,6.6-2.3,11.9-6.9,15.9c-2.3,2-4.7,3.4-7.3,4.2c-2.4,0.8-5.7,1.2-10,1.2H145.2z M151.6,396.9h2.9c2.9,0,5.3-0.3,7.2-0.9
				c1.9-0.6,3.7-1.7,5.2-3.1c3.2-2.9,4.8-6.7,4.8-11.3c0-4.7-1.6-8.5-4.7-11.4c-2.8-2.6-7-3.9-12.5-3.9h-2.9V396.9z"/>
			<path class="st3" d="M230.6,379.2l7.7,9.3l0.2-0.3c0.8-0.9,1.6-1.8,2.4-2.7c0.7-0.9,1.4-1.7,2.1-2.6l4.2,4.3
				c-0.5,0.7-1.2,1.6-2,2.6c-0.8,1-1.8,2.1-3,3.4l7.9,9.8h-8l-4.3-5.2c-3.9,4-8,6.1-12.2,6.1c-3.8,0-7-1.2-9.6-3.6
				c-2.6-2.4-3.9-5.4-3.9-9c0-4.3,2-7.8,6.1-10.6l2.8-1.9c0,0,0.1-0.1,0.2-0.1c0.1-0.1,0.2-0.2,0.4-0.3c-2.8-3-4.2-6-4.2-8.9
				c0-2.9,0.9-5.2,2.8-7c1.9-1.8,4.4-2.7,7.4-2.7c2.9,0,5.4,0.9,7.3,2.6c1.9,1.8,2.9,4,2.9,6.6c0,1.8-0.5,3.5-1.6,5
				C235.2,375.3,233.3,377.1,230.6,379.2z M225.5,382.8l-0.4,0.2c-2.6,1.8-4.4,3.3-5.4,4.4c-0.9,1.1-1.4,2.3-1.4,3.5
				c0,1.8,0.7,3.4,2.1,4.9c1.5,1.4,3.1,2.1,4.9,2.1c2.5,0,5.4-1.6,8.6-4.9L225.5,382.8z M226.9,374.6l0.5-0.4
				c0.9-0.7,1.7-1.3,2.2-1.8c0.6-0.5,1-0.9,1.3-1.3c0.6-0.7,0.8-1.5,0.8-2.5c0-1.1-0.4-2-1.1-2.7c-0.8-0.7-1.8-1.1-3-1.1
				c-1.2,0-2.1,0.4-2.9,1.1c-0.8,0.7-1.2,1.6-1.2,2.6c0,1.3,0.5,2.5,1.5,3.7l1.6,1.9C226.6,374.3,226.7,374.4,226.9,374.6z"/>
			<path class="st3" d="M270.1,402.9v-42.7h9c4.3,0,7.7,0.4,10.2,1.3c2.7,0.8,5.1,2.2,7.3,4.2c4.4,4,6.6,9.3,6.6,15.9
				c0,6.6-2.3,11.9-6.9,15.9c-2.3,2-4.7,3.4-7.3,4.2c-2.4,0.8-5.7,1.2-10,1.2H270.1z M276.6,396.9h2.9c2.9,0,5.3-0.3,7.2-0.9
				c1.9-0.6,3.7-1.7,5.2-3.1c3.2-2.9,4.8-6.7,4.8-11.3c0-4.7-1.6-8.5-4.7-11.4c-2.8-2.6-7-3.9-12.5-3.9h-2.9V396.9z"/>
			<path class="st3" d="M325.8,384.7l13.2,18.2h-7.9l-12.2-17.5h-1.2v17.5h-6.5v-42.7h7.6c5.6,0,9.7,1.1,12.2,3.2
				c2.8,2.4,4.2,5.5,4.2,9.4c0,3-0.9,5.6-2.6,7.8C330.9,382.7,328.6,384.1,325.8,384.7z M317.8,379.8h2c6.1,0,9.2-2.3,9.2-7
				c0-4.4-3-6.6-8.9-6.6h-2.3V379.8z"/>
			<path class="st3" d="M351.9,360.2v42.7h-6.5v-42.7H351.9z"/>
			<path class="st3" d="M366.8,377.3l16.6-17.1h8.6l-19.3,19.4l19.4,23.4h-8.6l-15.4-19l-1.3,1.3v17.7h-6.5v-42.7h6.5V377.3z"/>
			<path class="st3" d="M404.7,377.3l16.6-17.1h8.6l-19.3,19.4l19.4,23.4h-8.6l-15.4-19l-1.3,1.3v17.7h-6.5v-42.7h6.5V377.3z"/>
			<path class="st3" d="M459.4,366.3h-17.1v10.3h16.6v6.1h-16.6v14.3h17.1v6.1h-23.6v-42.7h23.6V366.3z"/>
			<path class="st3" d="M465.9,376.6h12.3v6h-12.3V376.6z"/>
		</g>
		<g>
			<path class="st3" d="M110.7,431.1l16.6-17.1h8.6l-19.3,19.4l19.4,23.4h-8.6l-15.4-19l-1.3,1.3v17.7h-6.5V414h6.5V431.1z"/>
			<path class="st3" d="M170.9,446.4h-18.3l-4.8,10.4h-6.9l21.2-45.4l20.4,45.4h-7.1L170.9,446.4z M168.2,440.3l-6.3-14.5l-6.6,14.5
				H168.2z"/>
			<path class="st3" d="M203.3,438.5l13.2,18.2h-7.9l-12.2-17.5h-1.2v17.5h-6.5V414h7.6c5.6,0,9.7,1.1,12.2,3.2
				c2.8,2.4,4.2,5.5,4.2,9.4c0,3-0.9,5.6-2.6,7.8C208.5,436.5,206.2,437.9,203.3,438.5z M195.3,433.6h2c6.1,0,9.2-2.3,9.2-7
				c0-4.4-3-6.6-8.9-6.6h-2.3V433.6z"/>
			<path class="st3" d="M235,420.1v36.7h-6.5v-36.7h-9.8V414h26.1v6.1H235z"/>
			<path class="st3" d="M248,435.2c0-6,2.2-11.2,6.6-15.5c4.4-4.3,9.7-6.5,15.8-6.5c6.1,0,11.3,2.2,15.7,6.5
				c4.4,4.4,6.6,9.6,6.6,15.7c0,6.1-2.2,11.4-6.6,15.6c-4.4,4.3-9.7,6.5-16,6.5c-5.5,0-10.5-1.9-14.9-5.7
				C250.4,447.6,248,442,248,435.2z M254.5,435.3c0,4.7,1.6,8.6,4.8,11.6c3.2,3,6.8,4.6,10.9,4.6c4.5,0,8.3-1.5,11.4-4.6
				c3.1-3.1,4.6-7,4.6-11.5c0-4.6-1.5-8.4-4.6-11.5c-3-3.1-6.8-4.6-11.2-4.6c-4.4,0-8.2,1.5-11.3,4.6
				C256,427,254.5,430.8,254.5,435.3z"/>
			<path class="st3" d="M300.2,456.8v-45.7l31.2,32.6V414h6.5v45.3l-31.2-32.5v29.9H300.2z"/>
			<path class="st3" d="M370.1,420.1h-17.1v10.3h16.6v6.1h-16.6v14.3h17.1v6.1h-23.6V414h23.6V420.1z"/>
			<path class="st3" d="M392.6,438.5l13.2,18.2H398l-12.2-17.5h-1.2v17.5h-6.5V414h7.6c5.6,0,9.7,1.1,12.2,3.2
				c2.8,2.4,4.2,5.5,4.2,9.4c0,3-0.9,5.6-2.6,7.8C397.8,436.5,395.5,437.9,392.6,438.5z M384.6,433.6h2c6.1,0,9.2-2.3,9.2-7
				c0-4.4-3-6.6-8.9-6.6h-2.3V433.6z"/>
		</g>
	</g>
	<path class="st4" d="M186,376.6h12.3v6H186V376.6z"/>
</g>
<g id="ikon">
	<g>
		<rect x="193.4" y="209.2" class="st3" width="83" height="160.8"/>
		<rect x="211.1" y="140.2" class="st3" width="83.2" height="20.4"/>
		<polygon class="st3" points="276.4,203.8 276.6,203.8 292.5,165.7 210.9,165.7 193.7,204.1 276.4,204.1 		"/>
		<polygon class="st3" points="283.5,200.6 313.2,174.1 297.3,167.6 		"/>
		<polygon class="st3" points="282.6,367.6 316.8,336.9 316.8,177.7 282.6,208.2 		"/>
	</g>
	<g>
	</g>
	<g>
	</g>
	<g>
	</g>
	<g>
	</g>
	<g>
	</g>
	<g>
	</g>
</g>
</svg>
