<?xml version="1.0" encoding="utf-8"?>
<!-- Generator: Adobe Illustrator 26.0.3, SVG Export Plug-In . SVG Version: 6.00 Build 0)  -->
<svg version="1.1" xmlns="http://www.w3.org/2000/svg" xmlns:xlink="http://www.w3.org/1999/xlink" x="0px" y="0px" width="510.2px"
	 height="510.2px" viewBox="0 0 510.2 510.2" style="enable-background:new 0 0 510.2 510.2;" xml:space="preserve">
<style type="text/css">
	.st0{fill:#00A04B;}
	.st1{display:none;}
	.st2{display:inline;}
	.st3{fill:#FFFFFF;}
	.st4{opacity:0.5;fill:#FFFFFF;}
</style>
<g id="baggrund">
	<rect x="0" y="0" class="st0" width="510.2" height="510.2"/>
</g>
<g id="fraktion" class="st1">
	<g class="st2">
		<path class="st3" d="M87.2,457l9-46l14.7,33.2l15.2-33.2l8.1,46h-6.6l-4.1-25.8L110.7,459l-12.3-27.8L93.9,457H87.2z"/>
		<path class="st3" d="M169.2,446.7h-18.3l-4.8,10.4h-6.9l21.2-45.4l20.4,45.4h-7.1L169.2,446.7z M166.6,440.6l-6.3-14.5l-6.6,14.5
			H166.6z"/>
		<path class="st3" d="M186.1,457v-42.7h9c4.3,0,7.7,0.4,10.2,1.3c2.7,0.8,5.1,2.2,7.3,4.2c4.4,4,6.6,9.3,6.6,15.9
			c0,6.6-2.3,11.9-6.9,15.9c-2.3,2-4.7,3.4-7.3,4.2c-2.4,0.8-5.7,1.2-10,1.2H186.1z M192.5,451h2.9c2.9,0,5.3-0.3,7.2-0.9
			c1.9-0.6,3.7-1.7,5.2-3.1c3.2-2.9,4.8-6.7,4.8-11.3c0-4.7-1.6-8.5-4.7-11.4c-2.8-2.6-7-3.9-12.5-3.9h-2.9V451z"/>
		<path class="st3" d="M249.4,446.7h-18.3l-4.8,10.4h-6.9l21.2-45.4l20.4,45.4h-7.1L249.4,446.7z M246.7,440.6l-6.3-14.5l-6.6,14.5
			H246.7z"/>
		<path class="st3" d="M288.5,420.3h-14.9v10.3H288v6.1h-14.4V457h-6.5v-42.7h21.3V420.3z"/>
		<path class="st3" d="M317.3,420.3h-14.9v10.3h14.4v6.1h-14.4V457H296v-42.7h21.3V420.3z"/>
		<path class="st3" d="M346.2,446.7h-18.3l-4.8,10.4h-6.9l21.2-45.4l20.4,45.4h-7.1L346.2,446.7z M343.6,440.6l-6.3-14.5l-6.6,14.5
			H343.6z"/>
		<path class="st3" d="M370.4,414.3V451H383v6.1h-19v-42.7H370.4z"/>
		<path class="st3" d="M390,457v-42.7h9c4.3,0,7.7,0.4,10.2,1.3c2.7,0.8,5.1,2.2,7.3,4.2c4.4,4,6.6,9.3,6.6,15.9
			c0,6.6-2.3,11.9-6.9,15.9c-2.3,2-4.7,3.4-7.3,4.2c-2.4,0.8-5.7,1.2-10,1.2H390z M396.5,451h2.9c2.9,0,5.3-0.3,7.2-0.9
			c1.9-0.6,3.7-1.7,5.2-3.1c3.2-2.9,4.8-6.7,4.8-11.3c0-4.7-1.6-8.5-4.7-11.4c-2.8-2.6-7-3.9-12.5-3.9h-2.9V451z"/>
	</g>
</g>
<g id="ikon">
	<g>
		<g>
			<path class="st3" d="M257.5,190.1l2.5-42l-10.2,0l2.5,42c0.8,0,1.7,0.1,2.5,0.1C255.8,190.1,256.7,190.1,257.5,190.1z"/>
		</g>
		<g>
			<polyline class="st4" points="176,200.4 176,200.4 176,200.4 			"/>
			<path class="st3" d="M327.9,341.7c0,0-0.5,0-0.6,0c-0.5,0-2.3-0.1-2.8-0.1c-15.5-1.1-29-12.6-37.5-29.8
				c-5.8-11.8-9.2-26.1-9.2-41.7c0-16,3.6-30.8,9.7-42.7c6-11.8,14.4-20.9,24.2-25.5c4.4-2.1,9-3.3,13.8-3.5c0.3,0,2.1-0.1,2.1-0.1
				h4.6h0c-1.2-1.3-2.5-2.6-3.8-3.9c-7.1-6.6-16.6-10.7-27.1-10.7h0h0c-6.7,0-14.4,1.6-19.9,4.6l0,0l0,0l0,0c-8.3,4.4-16.3,7-26.3,7
				c-10-0.1-18-2.6-26.3-7l0,0l0,0l0,0c-5.5-2.9-13.3-4.6-19.9-4.6h0h0c-10.5,0-20,4.1-27.1,10.7c-1.3,1.2-2.6,2.6-3.8,3.9h0h4.6
				c0,0,1.9,0,2.1,0.1c4.8,0.2,9.4,1.4,13.8,3.5c9.8,4.6,18.2,13.7,24.2,25.5c6.1,11.9,9.7,26.7,9.7,42.7c0,15.6-3.4,30-9.2,41.7
				c-8.5,17.3-22,28.8-37.5,29.8c-0.5,0-2.3,0.1-2.8,0.1c-0.1,0-0.6,0-0.6,0h-9.4c2.2,2.6,4.4,5.3,6.8,7.7c0.1,0.1,0.1,0.1,0.1,0.2
				l0,0c7.2,7.7,17.6,12.7,29,12.7h0h0l0,0c1.8,0,8.4-0.2,10.2-0.4c0.6-0.1,1.2-0.1,1.8-0.3c1.3-0.2,2.6-0.6,3.8-0.9
				c1.1-0.3,2.1-0.7,3.1-1c1-0.4,1.9-0.8,2.7-1.2c7.1-3.9,14.4-6.2,24.6-6.2c10.2,0,17.7,2.3,24.8,6.2c0.9,0.4,1.8,0.8,2.8,1.2
				c1,0.4,2.1,0.7,3.1,1c1.3,0.4,2.5,0.7,3.8,0.9c0.6,0.1,1.2,0.2,1.8,0.3c1.8,0.2,8.2,0.4,10,0.4l0,0h0h0c11.4,0,21.7-5,29-12.7
				l0,0c0.1-0.1,0.1-0.1,0.1-0.2c2.4-2.4,4.6-5,6.8-7.7H327.9z"/>
		</g>
	</g>
	<g>
	</g>
	<g>
	</g>
	<g>
	</g>
	<g>
	</g>
	<g>
	</g>
	<g>
	</g>
</g>
</svg>
