<?xml version="1.0" encoding="utf-8"?>
<!-- Generator: Adobe Illustrator 26.0.3, SVG Export Plug-In . SVG Version: 6.00 Build 0)  -->
<svg version="1.1" xmlns="http://www.w3.org/2000/svg" xmlns:xlink="http://www.w3.org/1999/xlink" x="0px" y="0px" width="510.2px"
	 height="510.2px" viewBox="0 0 510.2 510.2" style="enable-background:new 0 0 510.2 510.2;" xml:space="preserve">
<style type="text/css">
	.st0{fill:#BEA064;}
	.st1{display:none;}
	.st2{display:inline;}
	.st3{fill:#FFFFFF;}
	.st4{fill:none;}
</style>
<g id="baggrund">
	<rect x="1" y="1.1" class="st0" width="510.2" height="510.2"/>
</g>
<g id="fraktion" class="st1">
	<g class="st2">
		<path class="st3" d="M215.3,439.7v17.4h-6.5v-42.7h7.3c3.6,0,6.3,0.2,8.1,0.7c1.8,0.5,3.5,1.4,4.9,2.8c2.5,2.4,3.7,5.4,3.7,9.1
			c0,3.9-1.3,7-3.9,9.3c-2.6,2.3-6.2,3.4-10.6,3.4H215.3z M215.3,433.8h2.4c5.9,0,8.9-2.3,8.9-6.8c0-4.4-3.1-6.6-9.2-6.6h-2.1V433.8
			z"/>
		<path class="st3" d="M260,446.7h-18.3l-4.8,10.4H230l21.2-45.4l20.4,45.4h-7.1L260,446.7z M257.4,440.7l-6.3-14.5l-6.6,14.5H257.4
			z"/>
		<path class="st3" d="M283.9,439.7v17.4h-6.5v-42.7h7.3c3.6,0,6.3,0.2,8.1,0.7c1.8,0.5,3.5,1.4,4.9,2.8c2.5,2.4,3.7,5.4,3.7,9.1
			c0,3.9-1.3,7-3.9,9.3c-2.6,2.3-6.2,3.4-10.6,3.4H283.9z M283.9,433.8h2.4c5.9,0,8.9-2.3,8.9-6.8c0-4.4-3.1-6.6-9.2-6.6h-2.1V433.8
			z"/>
	</g>
</g>
<g id="ikon">
	<g>
		<rect x="295.5" y="229.4" class="st4" width="0" height="129.1"/>
		<polygon class="st4" points="328,189.6 315.8,200.5 328,189.6 367.8,153.9 211.7,153.9 211.7,153.9 367.8,153.9 		"/>
		<polygon class="st4" points="272.6,272 285.5,240.6 272.6,272 		"/>
		<rect x="206.7" y="155.5" class="st4" width="0" height="60.1"/>
		<polygon class="st4" points="293.6,220.8 293.6,220.8 135.7,220.8 118.8,261.9 135.7,220.8 		"/>
		<polygon class="st4" points="281.6,263.1 275.9,276.9 137.3,276.9 137.3,276.9 275.9,276.9 		"/>
		<polygon class="st4" points="372,156.9 372,156.9 301.7,219.9 327.2,264.4 327.2,264.4 301.7,219.9 		"/>
		<polygon class="st4" points="370.1,294.7 322.3,337.6 370.1,294.7 370.1,232.7 370.1,232.7 		"/>
		<polygon class="st4" points="295.5,229.1 281.6,263.1 275.9,276.9 137.3,276.9 137.3,276.9 137.3,276.9 137.3,358.5 295.5,358.5 
			295.5,358.5 295.5,229.4 295.5,229.4 		"/>
		<polygon class="st4" points="206.7,215.6 206.7,215.6 206.7,155.5 206.7,155.5 206.7,155.5 139.6,215.6 139.6,215.6 		"/>
		<polygon class="st4" points="328,189.6 367.8,153.9 211.7,153.9 211.7,153.9 211.7,153.9 211.7,215.6 211.7,215.6 298.9,215.6 
			298.9,215.6 315.8,200.5 		"/>
		<polygon class="st4" points="272.6,272 272.6,272 285.5,240.6 293.6,220.8 293.6,220.8 293.6,220.8 135.7,220.8 118.8,261.9 
			114.6,272.1 272.6,272.1 		"/>
		<polygon class="st4" points="397.1,200.5 372,156.9 372,156.9 372,156.9 301.7,219.9 327.2,264.4 327.2,264.4 327.2,264.4 
			397.5,201.4 397.5,201.4 		"/>
		<polygon class="st4" points="370.1,232.7 326,272.3 306.1,237.7 301,228.8 301,228.8 301,356.6 301,356.6 322.3,337.6 
			370.1,294.7 370.1,232.7 370.1,232.7 		"/>
		<polygon class="st3" points="328,189.6 367.8,153.9 211.7,153.9 211.7,153.9 211.7,215.6 211.7,215.6 298.9,215.6 298.9,215.6 
			315.8,200.5 		"/>
		<polygon class="st3" points="206.7,215.6 206.7,155.5 206.7,155.5 139.6,215.6 139.6,215.6 		"/>
		<polygon class="st4" points="206.7,215.6 206.7,215.6 206.7,155.5 206.7,155.5 206.7,155.5 139.6,215.6 139.6,215.6 		"/>
		<polygon class="st4" points="328,189.6 367.8,153.9 211.7,153.9 211.7,153.9 211.7,153.9 211.7,215.6 211.7,215.6 298.9,215.6 
			298.9,215.6 315.8,200.5 		"/>
		<polygon class="st4" points="370.1,232.7 326,272.3 306.1,237.7 301,228.8 301,228.8 301,356.6 301,356.6 322.3,337.6 
			370.1,294.7 370.1,232.7 370.1,232.7 		"/>
		<polygon class="st4" points="397.1,200.5 372,156.9 372,156.9 372,156.9 301.7,219.9 327.2,264.4 327.2,264.4 327.2,264.4 
			397.5,201.4 397.5,201.4 		"/>
		<polygon class="st3" points="137.3,276.9 137.3,276.9 137.3,358.5 295.5,358.5 295.5,229.4 295.5,229.1 275.9,276.9 		"/>
		<polygon class="st3" points="285.5,240.6 293.6,220.8 135.7,220.8 118.8,261.9 114.6,272.1 272.6,272 		"/>
		<polygon class="st3" points="370.1,232.7 370.1,232.7 326,272.3 306.1,237.7 301,228.8 301,228.8 301,356.6 301,356.6 
			322.3,337.6 370.1,294.7 		"/>
		<polygon class="st3" points="397.1,200.5 372,156.9 372,156.9 301.7,219.9 327.2,264.4 327.2,264.4 397.5,201.4 397.5,201.4 		"/>
	</g>
	<g>
	</g>
	<g>
	</g>
	<g>
	</g>
	<g>
	</g>
	<g>
	</g>
	<g>
	</g>
</g>
</svg>
