<?xml version="1.0" encoding="utf-8"?>
<!-- Generator: Adobe Illustrator 26.0.3, SVG Export Plug-In . SVG Version: 6.00 Build 0)  -->
<svg version="1.1" xmlns="http://www.w3.org/2000/svg" xmlns:xlink="http://www.w3.org/1999/xlink" x="0px" y="0px" width="510.2px"
	 height="510.2px" viewBox="0 0 510.2 510.2" style="enable-background:new 0 0 510.2 510.2;" xml:space="preserve">
<style type="text/css">
	.st0{fill:#961E82;}
	.st1{display:none;}
	.st2{display:inline;}
	.st3{fill:#FFFFFF;}
	.st4{fill:none;stroke:#FFFFFF;stroke-width:0;stroke-linecap:round;stroke-linejoin:round;}
</style>
<g id="baggrund">
	<rect x="0" y="0" class="st0" width="510.2" height="510.2"/>
</g>
<g id="fraktion" class="st1">
	<g class="st2">
		<path class="st3" d="M183,439.7V457h-6.5v-42.7h7.3c3.6,0,6.3,0.2,8.1,0.7c1.8,0.5,3.5,1.4,4.9,2.8c2.5,2.4,3.7,5.4,3.7,9.1
			c0,3.9-1.3,7-3.9,9.3c-2.6,2.3-6.2,3.4-10.6,3.4H183z M183,433.7h2.4c5.9,0,8.9-2.3,8.9-6.8c0-4.4-3.1-6.6-9.2-6.6H183V433.7z"/>
		<path class="st3" d="M213.6,414.3V451h12.6v6.1h-19v-42.7H213.6z"/>
		<path class="st3" d="M261.9,446.6h-18.3l-4.8,10.4h-6.9l21.2-45.4l20.4,45.4h-7.1L261.9,446.6z M259.3,440.6l-6.3-14.5l-6.6,14.5
			H259.3z"/>
		<path class="st3" d="M302.3,420.6l-5.2,3.1c-1-1.7-1.9-2.8-2.8-3.3c-0.9-0.6-2.1-0.9-3.6-0.9c-1.8,0-3.3,0.5-4.5,1.5
			c-1.2,1-1.8,2.3-1.8,3.8c0,2.1,1.6,3.8,4.7,5l4.3,1.7c3.5,1.4,6,3.1,7.6,5.1c1.6,2,2.4,4.5,2.4,7.4c0,3.9-1.3,7.2-3.9,9.8
			c-2.6,2.6-5.9,3.9-9.8,3.9c-3.7,0-6.8-1.1-9.2-3.3c-2.4-2.2-3.9-5.3-4.5-9.3l6.5-1.4c0.3,2.5,0.8,4.2,1.6,5.2
			c1.3,1.8,3.3,2.8,5.8,2.8c2,0,3.7-0.7,5-2c1.3-1.3,2-3.1,2-5.1c0-0.8-0.1-1.6-0.3-2.3c-0.2-0.7-0.6-1.3-1.1-1.9
			c-0.5-0.6-1.1-1.1-1.9-1.6c-0.8-0.5-1.7-1-2.8-1.5l-4.1-1.7c-5.9-2.5-8.8-6.1-8.8-10.8c0-3.2,1.2-5.9,3.7-8.1
			c2.5-2.2,5.5-3.3,9.2-3.3C295.7,413.4,299.5,415.8,302.3,420.6z"/>
		<path class="st3" d="M323.8,420.3V457h-6.5v-36.7h-9.8v-6.1h26.1v6.1H323.8z"/>
	</g>
</g>
<g id="ikon">
	<g>
		<polygon class="st3" points="297.5,165.3 297.5,165.3 296.5,166.7 		"/>
		<path class="st3" d="M255.2,236.1c0-0.2,0-0.4,0-0.6c0-0.2,0-0.3,0-0.5l0-0.6c0-6.5,0-20,9.2-32.1l28.1-38.6v-16.8
			c-23.4-3-66.9-2.2-85.2-2.2c-81.4,0-83.4-4.1-83.5-4.4l3.7,74.2c2.2,20.2,5.5,41.1,16.3,58.2c1,1.6,2.1,3.3,2.1,5.2
			c0,1.5-0.8,2.9-1.5,4.2c-6.5,12.4-8.2,26.4-9.7,40.4c-1.1,10.1-2.2,20.2-3.2,30.3c-0.9,8.3-0.9,13.8-1.8,22.1
			c-0.1,3.1-3,5.7-4.9,8.1c-1.9,2.4-2.4,7.8-2.6,12.2c3.8,1.5,28.7,0.9,49.7,0.1c13.4-0.5,25.4-2.1,28.8-2.5
			c18.3-2.2,37.2-2.6,56.2-2.3c-1.1-2.2-1.6-4.5-1.6-6.9V236.1z M251.4,178.1c0,4.9-4,8.9-8.9,8.9h-58.7c-4.9,0-8.9-4-8.9-8.9l0,0
			c0-4.9,4-8.9,8.9-8.9h58.7C247.4,169.2,251.4,173.2,251.4,178.1L251.4,178.1z"/>
		<path class="st3" d="M260.3,235.9c0-0.4,0-0.7,0-1.1c0-4.1-0.1-11.3,2.4-19c-2.6,7.3-2.5,14.2-2.5,18.5l0,0.6c0,0.2,0,0.4,0,0.6
			c0,0.2,0,0.3,0,0.5v147.5c0,2.5,1,5,2.7,7c0,0,0,0,0,0c-1.6-1.9-2.6-4.3-2.6-7V235.9z"/>
		<line class="st4" x1="123.9" y1="140.1" x2="123.9" y2="140.1"/>
		<path class="st3" d="M376.1,201.9l-40.3-36.6v-51l-38.2-0.1v51l0,0.1v0l-1,1.4l-28.1,38.5c-2.7,3.5-4.5,7.1-5.7,10.6
			c-2.6,7.7-2.4,14.8-2.4,19c0,0.4,0,0.7,0,1.1v147.8c0,2.6,1,5.1,2.6,7c2.2,2.6,5.5,4.2,9.3,4.2H376c6.6,0,11.9-5,11.9-11.2V235.5
			c0-0.5,0-0.9,0-1.4C387.9,226.5,387.1,212.1,376.1,201.9z M369.9,294.7c0,4.9-4,8.9-8.9,8.9h-0.1c-4.9,0-8.9-4-8.9-8.9v-58.8
			c0-4.9,4-8.9,8.9-8.9h0.1c4.9,0,8.9,4,8.9,8.9V294.7z"/>
	</g>
	<g>
	</g>
	<g>
	</g>
	<g>
	</g>
	<g>
	</g>
	<g>
	</g>
	<g>
	</g>
</g>
</svg>
