<?xml version="1.0" encoding="UTF-8" standalone="no"?>
<!-- Created with Inkscape (http://www.inkscape.org/) -->

<svg
   version="1.1"
   id="svg2"
   width="680.32001"
   height="680.32001"
   viewBox="0 0 680.32001 680.32001"
   sodipodi:docname="ASBEST_rgb.icon.svg"
   inkscape:version="1.3.2 (091e20e, 2023-11-25, custom)"
   xmlns:inkscape="http://www.inkscape.org/namespaces/inkscape"
   xmlns:sodipodi="http://sodipodi.sourceforge.net/DTD/sodipodi-0.dtd"
   xmlns="http://www.w3.org/2000/svg"
   xmlns:svg="http://www.w3.org/2000/svg">
  <defs
     id="defs6" />
  <sodipodi:namedview
     id="namedview4"
     pagecolor="#ffffff"
     bordercolor="#000000"
     borderopacity="0.25"
     inkscape:showpageshadow="2"
     inkscape:pageopacity="0.0"
     inkscape:pagecheckerboard="0"
     inkscape:deskcolor="#d1d1d1"
     inkscape:zoom="1.6859713"
     inkscape:cx="340.16"
     inkscape:cy="340.16"
     inkscape:window-width="2560"
     inkscape:window-height="1361"
     inkscape:window-x="2551"
     inkscape:window-y="-9"
     inkscape:window-maximized="1"
     inkscape:current-layer="g8" />
  <g
     id="g8"
     inkscape:groupmode="layer"
     inkscape:label="ink_ext_XXXXXX"
     transform="matrix(1.3333333,0,0,-1.3333333,0,680.32)">
    <g
       id="g10"
       transform="scale(0.1)">
      <path
         d="M 5102.36,0 H 0.00390625 V 5102.36 H 5102.36 V 0"
         style="fill:#ea1d2c;fill-opacity:1;fill-rule:nonzero;stroke:none"
         id="path12" />
      <path
         d="m 4436.64,3275.42 c -61.31,0 -117.21,59.5 -155.07,97.37 -37.86,37.87 -104.58,100.97 -147.85,100.97 -43.27,0 -90.16,-43.27 -129.83,-82.94 -39.66,-39.67 -115.39,-115.4 -180.3,-115.4 -64.91,0 -95.3,41.21 -151.46,97.37 -59.5,59.5 -82.94,97.36 -147.86,97.36 -57.69,0 -109.98,-63.1 -140.63,-93.76 -30.65,-30.65 -100.98,-104.57 -151.46,-104.57 -50.48,0 -111.79,54.09 -158.67,100.97 -46.88,46.88 -88.23,108.18 -140.64,108.18 -52.1,0 -99.17,-63.1 -140.64,-104.58 -41.47,-41.47 -111.79,-104.57 -165.89,-104.57 -54.09,0 -108.18,43.27 -151.45,90.15 -43.28,46.88 -86.55,108.18 -140.64,108.18 -54.09,0 -79.34,-36.06 -162.28,-111.78 -82.94,-75.74 -147.85,-90.16 -147.85,-90.16 L 659.953,2026.8 c 0,0 90.434,14.42 173.375,90.16 82.945,75.73 108.184,111.78 162.274,111.78 54.088,0 97.368,-61.3 140.638,-108.18 43.28,-46.88 97.37,-90.16 151.46,-90.16 54.09,0 124.42,63.12 165.89,104.58 41.47,41.48 87.74,104.58 140.64,104.58 51.53,0 93.76,-61.3 140.64,-108.18 46.88,-46.89 108.18,-100.98 158.67,-100.98 50.48,0 120.8,73.93 151.45,104.58 30.66,30.66 82.95,93.76 140.64,93.76 64.91,0 88.36,-37.86 147.85,-97.36 56.16,-56.15 86.55,-97.36 151.46,-97.36 64.92,0 140.64,75.72 180.31,115.39 39.67,39.66 86.55,82.95 129.83,82.95 43.27,0 109.98,-63.12 147.85,-100.98 37.86,-37.86 93.76,-97.36 155.06,-97.36 l 1338.65,1241.4"
         style="fill:#ffffff;fill-opacity:1;fill-rule:nonzero;stroke:none"
         id="path26" />
    </g>
  </g>
</svg>
