<?xml version="1.0" encoding="UTF-8" standalone="no"?>
<!-- Created with Inkscape (http://www.inkscape.org/) -->

<svg
   version="1.1"
   id="svg2"
   width="680.32001"
   height="680.32001"
   viewBox="0 0 680.32001 680.32001"
   sodipodi:docname="ASBEST_rgb.eps"
   xmlns:inkscape="http://www.inkscape.org/namespaces/inkscape"
   xmlns:sodipodi="http://sodipodi.sourceforge.net/DTD/sodipodi-0.dtd"
   xmlns="http://www.w3.org/2000/svg"
   xmlns:svg="http://www.w3.org/2000/svg">
  <defs
     id="defs6" />
  <sodipodi:namedview
     id="namedview4"
     pagecolor="#ffffff"
     bordercolor="#000000"
     borderopacity="0.25"
     inkscape:showpageshadow="2"
     inkscape:pageopacity="0.0"
     inkscape:pagecheckerboard="0"
     inkscape:deskcolor="#d1d1d1" />
  <g
     id="g8"
     inkscape:groupmode="layer"
     inkscape:label="ink_ext_XXXXXX"
     transform="matrix(1.3333333,0,0,-1.3333333,0,680.32)">
    <g
       id="g10"
       transform="scale(0.1)">
      <path
         d="M 5102.36,0 H 0.00390625 V 5102.36 H 5102.36 V 0"
         style="fill:#ea1d2c;fill-opacity:1;fill-rule:nonzero;stroke:none"
         id="path12" />
      <path
         d="m 1817.94,701.828 -63.4,145.352 -66.45,-145.352 z m 26.3,-60.629 h -183 l -47.62,-103.808 h -69.49 l 211.51,454.308 204.04,-454.308 h -70.59 l -44.85,103.808"
         style="fill:#ffffff;fill-opacity:1;fill-rule:nonzero;stroke:none"
         id="path14" />
      <path
         d="m 2260.22,901.449 -52.33,-31.008 c -9.78,16.969 -19.1,28.047 -27.96,33.219 -9.23,5.899 -21.14,8.86 -35.71,8.86 -17.91,0 -32.77,-5.09 -44.58,-15.239 -11.81,-9.972 -17.72,-22.531 -17.72,-37.679 0,-20.872 15.51,-37.672 46.51,-50.422 l 42.64,-17.461 c 34.7,-14.028 60.08,-31.168 76.13,-51.399 16.06,-20.218 24.09,-45.019 24.09,-74.379 0,-39.351 -13.1,-71.863 -39.31,-97.531 -26.4,-25.859 -59.16,-38.781 -98.29,-38.781 -37.09,0 -67.74,11.031 -91.91,33.101 -23.81,22.04 -38.67,53 -44.58,92.872 l 65.34,14.386 c 2.96,-25.097 8.12,-42.449 15.51,-52.047 13.28,-18.461 32.66,-27.671 58.14,-27.671 20.11,0 36.82,6.718 50.11,20.179 13.29,13.473 19.93,30.531 19.93,51.18 0,8.301 -1.15,15.91 -3.46,22.84 -2.31,6.91 -5.91,13.269 -10.8,19.082 -4.89,5.808 -11.21,11.258 -18.96,16.328 -7.75,5.062 -16.98,9.91 -27.69,14.519 l -41.25,17.153 c -58.51,24.711 -87.76,60.859 -87.76,108.449 0,32.09 12.27,58.93 36.82,80.5 24.55,21.77 55.09,32.66 91.64,32.66 49.28,0 87.76,-23.91 115.45,-71.711"
         style="fill:#ffffff;fill-opacity:1;fill-rule:nonzero;stroke:none"
         id="path16" />
      <path
         d="m 2409.99,598.012 h 39.87 c 29.16,0 50.57,5.718 64.23,17.168 14.4,12.359 21.6,28.05 21.6,47.058 0,18.461 -6.92,33.961 -20.77,46.512 -13.47,12.371 -37.56,18.559 -72.26,18.559 h -32.67 z m 0,183.277 h 20.21 c 24,0 41.57,5.301 52.75,15.922 11.16,10.609 16.74,26.25 16.74,46.918 0,20.121 -5.72,35.391 -17.16,45.82 -11.45,10.43 -28.06,15.653 -49.83,15.653 h -22.71 z m -64.5,-243.898 v 427.461 h 64.23 c 28.6,0 51.4,-2.223 68.38,-6.641 17.17,-4.441 31.65,-11.91 43.47,-22.441 11.99,-10.879 21.49,-24.45 28.52,-40.688 7.19,-16.441 10.79,-33.051 10.79,-49.832 0,-30.648 -11.72,-56.578 -35.16,-77.809 22.7,-7.742 40.61,-21.312 53.71,-40.691 13.29,-19.199 19.93,-41.52 19.93,-67 0,-33.41 -11.81,-61.641 -35.44,-84.719 -14.21,-14.211 -30.17,-24.082 -47.89,-29.621 -19.38,-5.359 -43.65,-8.019 -72.81,-8.019 h -97.73"
         style="fill:#ffffff;fill-opacity:1;fill-rule:nonzero;stroke:none"
         id="path18" />
      <path
         d="M 2911.24,904.211 H 2739.86 V 801.5 h 166.4 v -60.629 h -166.4 V 598.012 h 171.38 v -60.621 h -235.88 v 427.461 h 235.88 v -60.641"
         style="fill:#ffffff;fill-opacity:1;fill-rule:nonzero;stroke:none"
         id="path20" />
      <path
         d="m 3241.25,901.449 -52.33,-31.008 c -9.78,16.969 -19.1,28.047 -27.96,33.219 -9.22,5.899 -21.13,8.86 -35.71,8.86 -17.91,0 -32.76,-5.09 -44.58,-15.239 -11.81,-9.972 -17.71,-22.531 -17.71,-37.679 0,-20.872 15.5,-37.672 46.51,-50.422 l 42.64,-17.461 c 34.69,-14.028 60.07,-31.168 76.13,-51.399 16.05,-20.218 24.08,-45.019 24.08,-74.379 0,-39.351 -13.1,-71.863 -39.31,-97.531 -26.39,-25.859 -59.16,-38.781 -98.28,-38.781 -37.11,0 -67.74,11.031 -91.92,33.101 -23.81,22.04 -38.67,53 -44.57,92.872 l 65.34,14.386 c 2.95,-25.097 8.12,-42.449 15.5,-52.047 13.29,-18.461 32.67,-27.671 58.14,-27.671 20.11,0 36.82,6.718 50.11,20.179 13.29,13.473 19.93,30.531 19.93,51.18 0,8.301 -1.15,15.91 -3.45,22.84 -2.32,6.91 -5.91,13.269 -10.8,19.082 -4.9,5.808 -11.22,11.258 -18.97,16.328 -7.75,5.062 -16.98,9.91 -27.69,14.519 l -41.25,17.153 c -58.51,24.711 -87.76,60.859 -87.76,108.449 0,32.09 12.28,58.93 36.83,80.5 24.54,21.77 55.09,32.66 91.64,32.66 49.28,0 87.75,-23.91 115.44,-71.711"
         style="fill:#ffffff;fill-opacity:1;fill-rule:nonzero;stroke:none"
         id="path22" />
      <path
         d="m 3461.49,904.211 v -366.82 h -64.5 v 366.82 h -98.28 v 60.641 h 260.79 v -60.641 h -98.01"
         style="fill:#ffffff;fill-opacity:1;fill-rule:nonzero;stroke:none"
         id="path24" />
      <path
         d="m 4436.64,3275.42 c -61.31,0 -117.21,59.5 -155.07,97.37 -37.86,37.87 -104.58,100.97 -147.85,100.97 -43.27,0 -90.16,-43.27 -129.83,-82.94 -39.66,-39.67 -115.39,-115.4 -180.3,-115.4 -64.91,0 -95.3,41.21 -151.46,97.37 -59.5,59.5 -82.94,97.36 -147.86,97.36 -57.69,0 -109.98,-63.1 -140.63,-93.76 -30.65,-30.65 -100.98,-104.57 -151.46,-104.57 -50.48,0 -111.79,54.09 -158.67,100.97 -46.88,46.88 -88.23,108.18 -140.64,108.18 -52.1,0 -99.17,-63.1 -140.64,-104.58 -41.47,-41.47 -111.79,-104.57 -165.89,-104.57 -54.09,0 -108.18,43.27 -151.45,90.15 -43.28,46.88 -86.55,108.18 -140.64,108.18 -54.09,0 -79.34,-36.06 -162.28,-111.78 -82.94,-75.74 -147.85,-90.16 -147.85,-90.16 L 659.953,2026.8 c 0,0 90.434,14.42 173.375,90.16 82.945,75.73 108.184,111.78 162.274,111.78 54.088,0 97.368,-61.3 140.638,-108.18 43.28,-46.88 97.37,-90.16 151.46,-90.16 54.09,0 124.42,63.12 165.89,104.58 41.47,41.48 87.74,104.58 140.64,104.58 51.53,0 93.76,-61.3 140.64,-108.18 46.88,-46.89 108.18,-100.98 158.67,-100.98 50.48,0 120.8,73.93 151.45,104.58 30.66,30.66 82.95,93.76 140.64,93.76 64.91,0 88.36,-37.86 147.85,-97.36 56.16,-56.15 86.55,-97.36 151.46,-97.36 64.92,0 140.64,75.72 180.31,115.39 39.67,39.66 86.55,82.95 129.83,82.95 43.27,0 109.98,-63.12 147.85,-100.98 37.86,-37.86 93.76,-97.36 155.06,-97.36 l 1338.65,1241.4"
         style="fill:#ffffff;fill-opacity:1;fill-rule:nonzero;stroke:none"
         id="path26" />
    </g>
  </g>
</svg>
