<?xml version="1.0" encoding="UTF-8" standalone="no"?>
<!-- Created with Inkscape (http://www.inkscape.org/) -->

<svg
   version="1.1"
   id="svg2"
   width="680.32001"
   height="680.32001"
   viewBox="0 0 680.32001 680.32001"
   sodipodi:docname="ASKE_rgb.icon.svg"
   inkscape:version="1.3.2 (091e20e, 2023-11-25, custom)"
   xmlns:inkscape="http://www.inkscape.org/namespaces/inkscape"
   xmlns:sodipodi="http://sodipodi.sourceforge.net/DTD/sodipodi-0.dtd"
   xmlns="http://www.w3.org/2000/svg"
   xmlns:svg="http://www.w3.org/2000/svg">
  <defs
     id="defs6" />
  <sodipodi:namedview
     id="namedview4"
     pagecolor="#ffffff"
     bordercolor="#000000"
     borderopacity="0.25"
     inkscape:showpageshadow="2"
     inkscape:pageopacity="0.0"
     inkscape:pagecheckerboard="0"
     inkscape:deskcolor="#d1d1d1"
     showgrid="false"
     inkscape:zoom="1.6859713"
     inkscape:cx="340.16"
     inkscape:cy="340.16"
     inkscape:window-width="2560"
     inkscape:window-height="1361"
     inkscape:window-x="2551"
     inkscape:window-y="-9"
     inkscape:window-maximized="1"
     inkscape:current-layer="g8" />
  <g
     id="g8"
     inkscape:groupmode="layer"
     inkscape:label="ink_ext_XXXXXX"
     transform="matrix(1.3333333,0,0,-1.3333333,0,680.32)">
    <g
       id="g10"
       transform="scale(0.1)">
      <path
         d="M 5102.36,0 H 0 V 5102.36 H 5102.36 V 0"
         style="fill:#111111;fill-opacity:1;fill-rule:nonzero;stroke:none"
         id="path12" />
      <path
         d="m 2780.03,3503.68 402.67,330.48 c 0,0 -143.95,-58.39 -217.45,50.5 -39.11,57.95 -68.12,109.53 -89.69,142.41 -69.74,106.39 -141.61,-2.15 -141.61,-2.15 l -156.21,-402.52 -51.85,570.07 c -101.93,-301.43 -530.83,-59.65 -443.79,-245.54 l 241.02,-443.25 h 100.59 356.32"
         style="fill:#ffffff;fill-opacity:1;fill-rule:nonzero;stroke:none"
         id="path22" />
      <path
         d="m 3339.57,1589.18 c -21.13,0 -38.26,17.13 -38.26,38.27 0,21.14 17.13,38.26 38.26,38.26 21.13,0 38.27,-17.12 38.27,-38.26 0,-21.14 -17.14,-38.27 -38.27,-38.27 z m -65.37,108.43 c -21.14,0 -38.27,17.14 -38.27,38.27 0,21.13 17.13,38.26 38.27,38.26 21.13,0 38.26,-17.13 38.26,-38.26 0,-21.13 -17.13,-38.27 -38.26,-38.27 z m -62.69,194.06 c 0,21.13 17.13,38.26 38.27,38.26 21.14,0 38.27,-17.13 38.27,-38.26 0,-21.13 -17.13,-38.27 -38.27,-38.27 -21.14,0 -38.27,17.14 -38.27,38.27 z m -1.06,184.84 c 5.47,20.41 26.45,32.52 46.87,27.04 20.41,-5.47 32.52,-26.46 27.04,-46.88 -5.47,-20.41 -26.45,-32.52 -46.87,-27.04 -20.41,5.47 -32.52,26.46 -27.04,46.88 z m -42.87,-458.61 c -21.14,0 -38.27,17.13 -38.27,38.26 0,21.14 17.13,38.28 38.27,38.28 21.13,0 38.26,-17.14 38.26,-38.28 0,-21.13 -17.13,-38.26 -38.26,-38.26 z m -38.46,171.26 c 5.48,20.42 26.46,32.53 46.87,27.05 20.42,-5.48 32.53,-26.46 27.06,-46.87 -5.48,-20.41 -26.47,-32.52 -46.88,-27.05 -20.41,5.48 -32.52,26.46 -27.05,46.87 z m -36.21,37.68 c -20.41,5.48 -32.52,26.46 -27.04,46.87 5.47,20.42 26.45,32.53 46.87,27.05 20.41,-5.48 32.52,-26.46 27.04,-46.87 -5.47,-20.41 -26.45,-32.52 -46.87,-27.05 z m -46.1,-178.02 c -21.13,0 -38.27,17.13 -38.27,38.26 0,21.14 17.14,38.27 38.27,38.27 21.14,0 38.27,-17.13 38.27,-38.27 0,-21.13 -17.13,-38.26 -38.27,-38.26 z m -88.51,172.16 c 0,21.13 17.14,38.26 38.27,38.26 21.13,0 38.26,-17.13 38.26,-38.26 0,-21.14 -17.13,-38.27 -38.26,-38.27 -21.13,0 -38.27,17.13 -38.27,38.27 z m -67.61,323.04 c -21.14,0 -38.27,17.13 -38.27,38.27 0,21.13 17.13,38.27 38.27,38.27 21.13,0 38.26,-17.14 38.26,-38.27 0,-21.14 -17.13,-38.27 -38.26,-38.27 z m 12.16,-450.13 c -21.13,0 -38.27,17.14 -38.27,38.27 0,21.13 17.14,38.26 38.27,38.26 21.13,0 38.26,-17.13 38.26,-38.26 0,-21.13 -17.13,-38.27 -38.26,-38.27 z m -43.66,228.05 c 0,21.14 17.14,38.27 38.27,38.27 21.13,0 38.26,-17.13 38.26,-38.27 0,-21.14 -17.13,-38.27 -38.26,-38.27 -21.13,0 -38.27,17.13 -38.27,38.27 z m -11.03,156.36 c 21.14,0 38.27,-17.13 38.27,-38.26 0,-21.14 -17.13,-38.27 -38.27,-38.27 -21.13,0 -38.27,17.13 -38.27,38.27 0,21.13 17.14,38.26 38.27,38.26 z m -31.83,172.64 c -21.15,0 -38.27,17.13 -38.27,38.26 0,21.13 17.12,38.27 38.27,38.27 21.13,0 38.26,-17.14 38.26,-38.27 0,-21.13 -17.13,-38.26 -38.26,-38.26 z m -18.95,-479.84 c -21.13,0 -38.26,17.12 -38.26,38.26 0,21.13 17.13,38.27 38.26,38.27 21.14,0 38.27,-17.14 38.27,-38.27 0,-21.14 -17.13,-38.26 -38.27,-38.26 z m -79.6,-133.37 c -21.13,0 -38.27,17.13 -38.27,38.27 0,21.13 17.14,38.26 38.27,38.26 21.13,0 38.27,-17.13 38.27,-38.26 0,-21.14 -17.14,-38.27 -38.27,-38.27 z m -82.27,86.58 c -21.14,0 -38.28,17.13 -38.28,38.26 0,21.14 17.14,38.27 38.28,38.27 21.13,0 38.26,-17.13 38.26,-38.27 0,-21.13 -17.13,-38.26 -38.26,-38.26 z m -46.02,-134.04 c -21.13,0 -38.26,17.13 -38.26,38.27 0,21.14 17.13,38.27 38.26,38.27 21.14,0 38.27,-17.13 38.27,-38.27 0,-21.14 -17.13,-38.27 -38.27,-38.27 z m -98.94,169.31 c -21.14,0 -38.27,17.14 -38.27,38.27 0,21.14 17.13,38.26 38.27,38.26 21.13,0 38.26,-17.12 38.26,-38.26 0,-21.13 -17.13,-38.27 -38.26,-38.27 z m -32.01,-125.86 c -21.13,0 -38.26,17.13 -38.26,38.26 0,21.15 17.13,38.28 38.26,38.28 21.14,0 38.27,-17.13 38.27,-38.28 0,-21.13 -17.13,-38.26 -38.27,-38.26 z m -94.23,420.47 c 0,21.13 17.13,38.26 38.27,38.26 21.13,0 38.27,-17.13 38.27,-38.26 0,-21.14 -17.14,-38.27 -38.27,-38.27 -21.14,0 -38.27,17.13 -38.27,38.27 z m -27.84,-195.33 c -21.13,0 -38.26,17.13 -38.26,38.26 0,21.13 17.13,38.27 38.26,38.27 21.14,0 38.27,-17.14 38.27,-38.27 0,-21.13 -17.13,-38.26 -38.27,-38.26 z m 10.58,-112.78 c -21.13,0 -38.26,17.12 -38.26,38.26 0,21.14 17.13,38.27 38.26,38.27 21.14,0 38.28,-17.13 38.28,-38.27 0,-21.14 -17.14,-38.26 -38.28,-38.26 z m -51.4,-138.7 c -21.13,0 -38.27,17.14 -38.27,38.28 0,21.13 17.14,38.27 38.27,38.27 21.14,0 38.26,-17.14 38.26,-38.27 0,-21.14 -17.12,-38.28 -38.26,-38.28 z m -80.89,179.65 c -21.13,0 -38.26,17.13 -38.26,38.26 0,21.15 17.13,38.28 38.26,38.28 21.14,0 38.27,-17.13 38.27,-38.28 0,-21.13 -17.13,-38.26 -38.27,-38.26 z m -23.19,-130.11 c -21.13,0 -38.27,17.12 -38.27,38.27 0,21.13 17.14,38.26 38.27,38.26 21.13,0 38.27,-17.13 38.27,-38.26 0,-21.15 -17.14,-38.27 -38.27,-38.27 z m -96.9,187.14 c -21.14,0 -38.27,17.13 -38.27,38.28 0,21.13 17.13,38.26 38.27,38.26 21.13,0 38.26,-17.13 38.26,-38.26 0,-21.15 -17.13,-38.28 -38.26,-38.28 z m -10.01,-122.61 c -21.13,0 -38.27,17.13 -38.27,38.26 0,21.13 17.14,38.27 38.27,38.27 21.14,0 38.27,-17.14 38.27,-38.27 0,-21.13 -17.13,-38.26 -38.27,-38.26 z m -98.37,204.8 c -21.14,0 -38.27,17.14 -38.27,38.27 0,21.14 17.13,38.27 38.27,38.27 21.13,0 38.26,-17.13 38.26,-38.27 0,-21.13 -17.13,-38.27 -38.26,-38.27 z m -2.08,-293.7 c -21.14,0 -38.27,17.14 -38.27,38.27 0,21.13 17.13,38.27 38.27,38.27 21.13,0 38.26,-17.14 38.26,-38.27 0,-21.13 -17.13,-38.27 -38.26,-38.27 z m -68.19,179.83 c 5.47,20.41 26.46,32.52 46.87,27.06 20.42,-5.48 32.53,-26.47 27.05,-46.88 -5.47,-20.42 -26.46,-32.53 -46.88,-27.05 -20.41,5.48 -32.51,26.46 -27.04,46.87 z m -46.44,-128.13 c -21.13,0 -38.26,17.14 -38.26,38.27 0,21.13 17.13,38.26 38.26,38.26 21.14,0 38.27,-17.13 38.27,-38.26 0,-21.13 -17.13,-38.27 -38.27,-38.27 z m -48.93,191.08 c 5.48,20.42 26.47,32.53 46.88,27.05 20.41,-5.46 32.52,-26.46 27.05,-46.87 -5.48,-20.41 -26.47,-32.52 -46.88,-27.05 -20.41,5.48 -32.52,26.46 -27.05,46.87 z m -37.9,-277.65 c -21.14,0 -38.27,17.13 -38.27,38.26 0,21.13 17.13,38.27 38.27,38.27 21.14,0 38.27,-17.14 38.27,-38.27 0,-21.13 -17.13,-38.26 -38.27,-38.26 z m 45.22,733.63 c 5.48,20.41 26.47,32.52 46.88,27.05 20.41,-5.48 32.52,-26.46 27.05,-46.87 -5.48,-20.42 -26.47,-32.53 -46.88,-27.05 -20.41,5.47 -32.52,26.46 -27.05,46.87 z m 42.38,-205.4 c -21.13,0 -38.26,17.13 -38.26,38.26 0,21.13 17.13,38.27 38.26,38.27 21.14,0 38.28,-17.14 38.28,-38.27 0,-21.13 -17.14,-38.26 -38.28,-38.26 z m 45.32,-112.87 c 0,-21.14 -17.13,-38.27 -38.26,-38.27 -21.14,0 -38.28,17.13 -38.28,38.27 0,21.13 17.14,38.26 38.28,38.26 21.13,0 38.26,-17.13 38.26,-38.26 z m -29.46,475.89 c 21.13,0 38.27,-17.13 38.27,-38.26 0,-21.14 -17.14,-38.28 -38.27,-38.28 -21.14,0 -38.27,17.14 -38.27,38.28 0,21.13 17.13,38.26 38.27,38.26 z m 139.55,-148.14 c 0,-21.14 -17.14,-38.27 -38.27,-38.27 -21.13,0 -38.27,17.13 -38.27,38.27 0,21.14 17.14,38.26 38.27,38.26 21.13,0 38.27,-17.12 38.27,-38.26 z m 56.73,278.83 c 21.13,0 38.27,-17.13 38.27,-38.27 0,-21.13 -17.14,-38.26 -38.27,-38.26 -21.14,0 -38.27,17.13 -38.27,38.26 0,21.14 17.13,38.27 38.27,38.27 z m -114.55,-439.5 c -21.13,0 -38.26,17.14 -38.26,38.27 0,21.13 17.13,38.26 38.26,38.26 21.14,0 38.27,-17.13 38.27,-38.26 0,-21.13 -17.13,-38.27 -38.27,-38.27 z m 54.06,-35.25 c 21.13,0 38.27,-17.12 38.27,-38.26 0,-21.13 -17.14,-38.27 -38.27,-38.27 -21.14,0 -38.27,17.14 -38.27,38.27 0,21.14 17.13,38.26 38.27,38.26 z m 121.16,279.4 c 0,-21.13 -17.13,-38.27 -38.26,-38.27 -21.14,0 -38.27,17.14 -38.27,38.27 0,21.13 17.13,38.27 38.27,38.27 21.13,0 38.26,-17.14 38.26,-38.27 z m 2.12,-146.05 c -5.48,-20.41 -26.46,-32.52 -46.88,-27.05 -20.41,5.48 -32.52,26.47 -27.04,46.88 5.47,20.42 26.46,32.53 46.87,27.05 20.41,-5.48 32.52,-26.47 27.05,-46.88 z m 23.58,-249.59 c 0,-21.13 -17.14,-38.26 -38.28,-38.26 -21.13,0 -38.26,17.13 -38.26,38.26 0,21.15 17.13,38.28 38.26,38.28 21.14,0 38.28,-17.13 38.28,-38.28 z m 5.1,179.23 c 21.13,0 38.27,-17.13 38.27,-38.27 0,-21.13 -17.14,-38.26 -38.27,-38.26 -21.13,0 -38.27,17.13 -38.27,38.26 0,21.14 17.14,38.27 38.27,38.27 z m 34.36,347.11 c 21.14,0 38.28,-17.14 38.28,-38.27 0,-21.13 -17.14,-38.27 -38.28,-38.27 -21.13,0 -38.26,17.14 -38.26,38.27 0,21.13 17.13,38.27 38.26,38.27 z m 11.87,133.54 c 21.14,0 38.27,-17.14 38.27,-38.27 0,-21.14 -17.13,-38.27 -38.27,-38.27 -21.13,0 -38.27,17.13 -38.27,38.27 0,21.13 17.14,38.27 38.27,38.27 z M 2235.21,2341 c -21.13,0 -38.26,17.13 -38.26,38.27 0,21.13 17.13,38.26 38.26,38.26 21.14,0 38.27,-17.13 38.27,-38.26 0,-21.14 -17.13,-38.27 -38.27,-38.27 z m 70.34,-87.21 c 0,-21.13 -17.14,-38.27 -38.28,-38.27 -21.13,0 -38.26,17.14 -38.26,38.27 0,21.13 17.13,38.27 38.26,38.27 21.14,0 38.28,-17.14 38.28,-38.27 z m -28.27,-279.36 c 0,-21.14 -17.13,-38.28 -38.26,-38.28 -21.14,0 -38.27,17.14 -38.27,38.28 0,21.13 17.13,38.26 38.27,38.26 21.13,0 38.26,-17.13 38.26,-38.26 z m -0.31,81 c -21.14,0 -38.27,17.13 -38.27,38.26 0,21.14 17.13,38.27 38.27,38.27 21.13,0 38.26,-17.13 38.26,-38.27 0,-21.13 -17.13,-38.26 -38.26,-38.26 z m 54.21,423.51 c 21.13,0 38.27,-17.14 38.27,-38.27 0,-21.14 -17.14,-38.27 -38.27,-38.27 -21.13,0 -38.27,17.13 -38.27,38.27 0,21.13 17.14,38.27 38.27,38.27 z m 3.66,146.39 c 21.13,0 38.26,-17.13 38.26,-38.26 0,-21.14 -17.13,-38.27 -38.26,-38.27 -21.14,0 -38.27,17.13 -38.27,38.27 0,21.13 17.13,38.26 38.27,38.26 z m 9.65,90.24 c 5.47,20.42 26.46,32.53 46.88,27.05 20.41,-5.47 32.52,-26.46 27.04,-46.88 -5.47,-20.41 -26.46,-32.52 -46.87,-27.04 -20.42,5.47 -32.53,26.46 -27.05,46.87 z m 110.92,-144.84 c 20.42,-5.47 32.53,-26.46 27.05,-46.87 -5.47,-20.42 -26.46,-32.53 -46.88,-27.05 -20.41,5.48 -32.52,26.46 -27.04,46.87 5.47,20.42 26.46,32.53 46.87,27.05 z m 87.43,76 c 0,-21.14 -17.13,-38.27 -38.27,-38.27 -21.13,0 -38.27,17.13 -38.27,38.27 0,21.13 17.14,38.27 38.27,38.27 21.14,0 38.27,-17.14 38.27,-38.27 z m 0.33,-226.45 c 0,-21.14 -17.14,-38.27 -38.27,-38.27 -21.14,0 -38.27,17.13 -38.27,38.27 0,21.14 17.13,38.27 38.27,38.27 21.13,0 38.27,-17.13 38.27,-38.27 z m 40.98,129.24 c 21.13,0 38.27,-17.13 38.27,-38.27 0,-21.13 -17.14,-38.26 -38.27,-38.26 -21.13,0 -38.27,17.13 -38.27,38.26 0,21.14 17.14,38.27 38.27,38.27 z m 57.96,110.72 c 21.13,0 38.27,-17.14 38.27,-38.27 0,-21.14 -17.14,-38.27 -38.27,-38.27 -21.13,0 -38.27,17.13 -38.27,38.27 0,21.13 17.14,38.27 38.27,38.27 z m -124.18,108.12 c 5.48,20.41 26.46,32.52 46.87,27.05 20.42,-5.48 32.53,-26.46 27.05,-46.88 -5.47,-20.41 -26.46,-32.52 -46.87,-27.04 -20.42,5.47 -32.53,26.46 -27.05,46.87 z M 2011.2,2526.08 c 20.41,-5.48 32.52,-26.47 27.05,-46.88 -5.48,-20.42 -26.46,-32.53 -46.88,-27.05 -20.41,5.48 -32.52,26.46 -27.05,46.88 5.48,20.41 26.46,32.51 46.88,27.05 z m 671.63,211.52 c 5.47,20.42 26.46,32.53 46.88,27.05 20.41,-5.47 32.52,-26.46 27.04,-46.88 -5.47,-20.41 -26.46,-32.51 -46.88,-27.04 -20.41,5.47 -32.52,26.46 -27.04,46.87 z m 81.75,-329.46 c 0,21.13 17.14,38.27 38.27,38.27 21.13,0 38.26,-17.14 38.26,-38.27 0,-21.14 -17.13,-38.27 -38.26,-38.27 -21.13,0 -38.27,17.13 -38.27,38.27 z m -3.08,-295.34 c -21.13,0 -38.26,17.14 -38.26,38.28 0,21.13 17.13,38.26 38.26,38.26 21.14,0 38.27,-17.13 38.27,-38.26 0,-21.14 -17.13,-38.28 -38.27,-38.28 z m -2.98,-148.3 c 21.14,0 38.28,-17.13 38.28,-38.26 0,-21.14 -17.14,-38.27 -38.28,-38.27 -21.13,0 -38.27,17.13 -38.27,38.27 0,21.13 17.14,38.26 38.27,38.26 z m -47.84,118.67 c 21.13,0 38.27,-17.13 38.27,-38.27 0,-21.13 -17.14,-38.27 -38.27,-38.27 -21.13,0 -38.27,17.14 -38.27,38.27 0,21.14 17.14,38.27 38.27,38.27 z m -7.8,438.65 c 0,21.13 17.14,38.26 38.27,38.26 21.13,0 38.27,-17.13 38.27,-38.26 0,-21.14 -17.14,-38.27 -38.27,-38.27 -21.13,0 -38.27,17.13 -38.27,38.27 z m -48.94,-278.15 c 0,21.14 17.14,38.27 38.28,38.27 21.13,0 38.27,-17.13 38.27,-38.27 0,-21.13 -17.14,-38.26 -38.27,-38.26 -21.14,0 -38.28,17.13 -38.28,38.26 z m -88.98,-334.37 c 5.48,20.41 26.46,32.53 46.87,27.05 20.42,-5.48 32.53,-26.47 27.06,-46.88 -5.47,-20.41 -26.47,-32.52 -46.88,-27.05 -20.41,5.48 -32.52,26.47 -27.05,46.88 z m 41.78,488.98 c 0,21.14 17.13,38.26 38.27,38.26 21.13,0 38.26,-17.12 38.26,-38.26 0,-21.14 -17.13,-38.27 -38.26,-38.27 -21.14,0 -38.27,17.13 -38.27,38.27 z m -22.39,-266.51 c 0,21.14 17.14,38.27 38.28,38.27 21.13,0 38.27,-17.13 38.27,-38.27 0,-21.13 -17.14,-38.26 -38.27,-38.26 -21.14,0 -38.28,17.13 -38.28,38.26 z m -31.21,-86.55 c 21.14,0 38.27,-17.13 38.27,-38.27 0,-21.14 -17.13,-38.27 -38.27,-38.27 -21.13,0 -38.26,17.13 -38.26,38.27 0,21.14 17.13,38.27 38.26,38.27 z m -33.73,239.92 c 0,21.13 17.13,38.26 38.26,38.26 21.14,0 38.27,-17.13 38.27,-38.26 0,-21.14 -17.13,-38.27 -38.27,-38.27 -21.13,0 -38.26,17.13 -38.26,38.27 z m -17.47,-360.55 c 0,-21.13 -17.13,-38.26 -38.27,-38.26 -21.13,0 -38.27,17.13 -38.27,38.26 0,21.13 17.14,38.27 38.27,38.27 21.14,0 38.27,-17.14 38.27,-38.27 z m -14.62,191.02 c -20.41,5.48 -32.52,26.46 -27.04,46.87 5.47,20.42 26.46,32.53 46.87,27.05 20.41,-5.48 32.52,-26.46 27.05,-46.87 -5.48,-20.41 -26.46,-32.52 -46.88,-27.05 z m -81.6,75.43 c 0,-21.14 -17.13,-38.26 -38.27,-38.26 -21.13,0 -38.26,17.12 -38.26,38.26 0,21.14 17.13,38.27 38.26,38.27 21.14,0 38.27,-17.13 38.27,-38.27 z m -30.21,128.6 c 0,21.13 17.13,38.26 38.27,38.26 21.13,0 38.26,-17.13 38.26,-38.26 0,-21.13 -17.13,-38.27 -38.26,-38.27 -21.14,0 -38.27,17.14 -38.27,38.27 z m 452.35,315.44 c 0,-21.13 -17.13,-38.26 -38.26,-38.26 -21.13,0 -38.27,17.13 -38.27,38.26 0,21.14 17.14,38.27 38.27,38.27 21.13,0 38.26,-17.13 38.26,-38.27 z m 53.76,-82.05 c 21.13,0 38.27,-17.13 38.27,-38.27 0,-21.14 -17.14,-38.26 -38.27,-38.26 -21.13,0 -38.27,17.12 -38.27,38.26 0,21.14 17.14,38.27 38.27,38.27 z m 82.2,-175.03 c 0,-21.13 -17.13,-38.27 -38.26,-38.27 -21.15,0 -38.28,17.14 -38.28,38.27 0,21.13 17.13,38.27 38.28,38.27 21.13,0 38.26,-17.14 38.26,-38.27 z m -78.52,277.9 c 5.47,20.41 26.46,32.52 46.88,27.05 20.41,-5.48 32.52,-26.46 27.04,-46.88 -5.47,-20.41 -26.46,-32.52 -46.88,-27.05 -20.41,5.48 -32.52,26.46 -27.04,46.88 z m 137.25,-620.63 c 21.13,0 38.27,-17.14 38.27,-38.28 0,-21.13 -17.14,-38.26 -38.27,-38.26 -21.14,0 -38.26,17.13 -38.26,38.26 0,21.14 17.12,38.28 38.26,38.28 z m -8.67,70.08 c -5.48,-20.41 -26.47,-32.52 -46.88,-27.05 -20.42,5.48 -32.53,26.47 -27.05,46.88 5.48,20.42 26.46,32.53 46.87,27.05 20.41,-5.48 32.52,-26.47 27.06,-46.88 z m -41.37,205.11 c 21.14,0 38.27,-17.13 38.27,-38.26 0,-21.13 -17.13,-38.27 -38.27,-38.27 -21.13,0 -38.26,17.14 -38.26,38.27 0,21.13 17.13,38.26 38.26,38.26 z m 45.41,182.8 c 21.13,0 38.27,-17.13 38.27,-38.27 0,-21.13 -17.14,-38.26 -38.27,-38.26 -21.13,0 -38.27,17.13 -38.27,38.26 0,21.14 17.14,38.27 38.27,38.27 z m -3.2,112.56 c 21.13,0 38.26,-17.14 38.26,-38.27 0,-21.14 -17.13,-38.27 -38.26,-38.27 -21.15,0 -38.28,17.13 -38.28,38.27 0,21.13 17.13,38.27 38.28,38.27 z m 65.99,-245 c 5.48,20.42 26.47,32.53 46.88,27.05 20.41,-5.48 32.52,-26.46 27.05,-46.87 -5.48,-20.41 -26.47,-32.52 -46.88,-27.05 -20.41,5.48 -32.53,26.46 -27.05,46.87 z m 40.63,133.38 c 5.47,20.41 26.45,32.52 46.87,27.05 20.41,-5.48 32.52,-26.46 27.04,-46.87 -5.47,-20.42 -26.45,-32.53 -46.87,-27.05 -20.41,5.47 -32.52,26.46 -27.04,46.87 z m 72.84,-260.48 c 5.48,20.41 26.46,32.52 46.87,27.05 20.42,-5.48 32.53,-26.46 27.05,-46.87 -5.47,-20.41 -26.46,-32.53 -46.87,-27.05 -20.41,5.48 -32.52,26.46 -27.05,46.87 z m -38.94,-204.76 c 21.14,0 38.26,-17.14 38.26,-38.27 0,-21.14 -17.12,-38.27 -38.26,-38.27 -21.13,0 -38.27,17.13 -38.27,38.27 0,21.13 17.14,38.27 38.27,38.27 z m -114.67,211.96 c 0,21.14 17.13,38.27 38.27,38.27 21.14,0 38.27,-17.13 38.27,-38.27 0,-21.13 -17.13,-38.26 -38.27,-38.26 -21.14,0 -38.27,17.13 -38.27,38.26 z m 80.44,-74.31 c 21.15,0 38.28,-17.14 38.28,-38.27 0,-21.13 -17.13,-38.27 -38.28,-38.27 -21.13,0 -38.26,17.14 -38.26,38.27 0,21.13 17.13,38.27 38.26,38.27 z m 121.42,251.01 c 21.13,0 38.27,-17.14 38.27,-38.27 0,-21.14 -17.14,-38.27 -38.27,-38.27 -21.13,0 -38.26,17.13 -38.26,38.27 0,21.13 17.13,38.27 38.26,38.27 z m 227.9,-819.06 c -3.89,4.39 -28.68,33.49 -53.66,85.22 -26.82,55.53 -52.56,138.4 -54.3,246.91 -0.18,5.04 -1.15,27.69 -0.91,34.54 0.82,23.02 1.52,45.73 2.09,68.1 10.31,279.55 5.7,780.62 -139.64,1052.15 -107.6,201.07 -321.14,328.81 -443.74,367.17 h -24.13 -112.94 -317.68 -2.45 c -122.89,-38.96 -338.21,-166.96 -445.37,-367.17 -145.33,-271.53 -149.95,-772.6 -139.64,-1052.15 l 1.78,-49.61 c 0.45,-13.15 0.37,-25.9 0.15,-38.5 -0.09,-4.7 -0.2,-9.33 -0.37,-13.95 -5.61,-209.33 -101.58,-341.49 -110.02,-352.7 -0.34,-0.46 -2.34,-3.74 -2.34,-3.74 -4.57,-6.27 -7.26,-13.85 -7.26,-22.02 0,-21.58 18.71,-39.08 41.77,-39.08 6.68,0 13.4,1.64 20.24,3.97 34.23,10.24 204.62,58.89 388.24,58.89 105.33,0 164.39,-11.38 221.47,-22.4 15.11,-2.92 116.82,-22.57 213.14,-22.57 118.86,0 238.3,7.75 391.28,100.21 59.07,-24.13 120.91,-42.38 180.9,-56.27 108.46,-25.14 210.75,-35.89 279.46,-40.41 49.25,-3.23 81.33,-3.31 85.83,-3.24 0,0 0.16,0.02 0.23,0.02 l 0.3,-0.01 c 21.82,0 39.5,17.39 39.5,38.84 0,10.9 -4.89,19.4 -11.93,27.8"
         style="fill:#ffffff;fill-opacity:1;fill-rule:nonzero;stroke:none"
         id="path24" />
    </g>
  </g>
</svg>
