<?xml version="1.0" encoding="UTF-8" standalone="no"?>
<!-- Created with Inkscape (http://www.inkscape.org/) -->

<svg
   version="1.1"
   id="svg2"
   width="680.32001"
   height="680.32001"
   viewBox="0 0 680.32001 680.32001"
   sodipodi:docname="BATTERIER_rgb.eps"
   xmlns:inkscape="http://www.inkscape.org/namespaces/inkscape"
   xmlns:sodipodi="http://sodipodi.sourceforge.net/DTD/sodipodi-0.dtd"
   xmlns="http://www.w3.org/2000/svg"
   xmlns:svg="http://www.w3.org/2000/svg">
  <defs
     id="defs6" />
  <sodipodi:namedview
     id="namedview4"
     pagecolor="#ffffff"
     bordercolor="#000000"
     borderopacity="0.25"
     inkscape:showpageshadow="2"
     inkscape:pageopacity="0.0"
     inkscape:pagecheckerboard="0"
     inkscape:deskcolor="#d1d1d1" />
  <g
     id="g8"
     inkscape:groupmode="layer"
     inkscape:label="ink_ext_XXXXXX"
     transform="matrix(1.3333333,0,0,-1.3333333,0,680.32)">
    <g
       id="g10"
       transform="scale(0.1)">
      <path
         d="M 5102.36,0 H 0 V 5102.36 H 5102.36 V 0"
         style="fill:#e91d2c;fill-opacity:1;fill-rule:nonzero;stroke:none"
         id="path12" />
      <path
         d="m 1271.05,592.77 h 39.87 c 29.16,0 50.56,5.718 64.23,17.171 14.39,12.36 21.59,28.047 21.59,47.059 0,18.461 -6.92,33.961 -20.76,46.512 -13.48,12.367 -37.57,18.547 -72.26,18.547 h -32.67 z m 0,183.281 h 20.21 c 23.99,0 41.57,5.301 52.74,15.918 11.16,10.613 16.75,26.25 16.75,46.929 0,20.114 -5.72,35.391 -17.17,45.821 -11.44,10.422 -28.05,15.64 -49.83,15.64 h -22.7 z m -64.51,-243.91 v 427.468 h 64.23 c 28.61,0 51.4,-2.218 68.38,-6.648 17.17,-4.43 31.66,-11.902 43.47,-22.422 12,-10.898 21.5,-24.457 28.52,-40.699 7.2,-16.43 10.79,-33.039 10.79,-49.84 0,-30.641 -11.72,-56.57 -35.16,-77.789 22.71,-7.75 40.61,-21.32 53.71,-40.699 13.29,-19.203 19.94,-41.532 19.94,-67 0,-33.41 -11.82,-61.653 -35.44,-84.723 -14.21,-14.211 -30.18,-24.078 -47.9,-29.617 -19.38,-5.352 -43.65,-8.031 -72.81,-8.031 h -97.73"
         style="fill:#ffffff;fill-opacity:1;fill-rule:nonzero;stroke:none"
         id="path14" />
      <path
         d="m 1765.11,696.59 -63.4,145.351 -66.44,-145.351 z m 26.3,-60.629 h -183 l -47.62,-103.82 h -69.49 l 211.52,454.32 204.04,-454.32 h -70.6 l -44.85,103.82"
         style="fill:#ffffff;fill-opacity:1;fill-rule:nonzero;stroke:none"
         id="path16" />
      <path
         d="M 2041.47,898.969 V 532.141 h -64.51 v 366.828 h -98.29 v 60.64 h 260.8 v -60.64 h -98"
         style="fill:#ffffff;fill-opacity:1;fill-rule:nonzero;stroke:none"
         id="path18" />
      <path
         d="M 2332.82,898.969 V 532.141 h -64.51 v 366.828 h -98.28 v 60.64 h 260.8 v -60.64 h -98.01"
         style="fill:#ffffff;fill-opacity:1;fill-rule:nonzero;stroke:none"
         id="path20" />
      <path
         d="M 2737.25,898.969 H 2565.88 V 796.262 h 166.39 V 735.629 H 2565.88 V 592.77 h 171.37 v -60.629 h -235.88 v 427.468 h 235.88 v -60.64"
         style="fill:#ffffff;fill-opacity:1;fill-rule:nonzero;stroke:none"
         id="path22" />
      <path
         d="m 2878.38,763.32 h 20.49 c 61.09,0 91.63,23.34 91.63,70.039 0,43.743 -29.71,65.61 -89.14,65.61 h -22.98 z M 2958.67,714.309 3091,532.141 h -78.9 l -122.09,174.968 h -11.63 V 532.141 h -64.51 v 427.468 h 75.58 c 56.48,0 97.27,-10.621 122.37,-31.839 27.69,-23.629 41.53,-54.821 41.53,-93.579 0,-30.269 -8.68,-56.3 -26.02,-78.07 -17.36,-21.781 -40.24,-35.723 -68.66,-41.812"
         style="fill:#ffffff;fill-opacity:1;fill-rule:nonzero;stroke:none"
         id="path24" />
      <path
         d="M 3218.12,959.609 V 532.141 h -64.51 v 427.468 h 64.51"
         style="fill:#ffffff;fill-opacity:1;fill-rule:nonzero;stroke:none"
         id="path26" />
      <path
         d="M 3538.89,898.969 H 3367.52 V 796.262 h 166.39 V 735.629 H 3367.52 V 592.77 h 171.37 v -60.629 h -235.88 v 427.468 h 235.88 v -60.64"
         style="fill:#ffffff;fill-opacity:1;fill-rule:nonzero;stroke:none"
         id="path28" />
      <path
         d="m 3683.26,763.32 h 20.49 c 61.09,0 91.63,23.34 91.63,70.039 0,43.743 -29.71,65.61 -89.14,65.61 h -22.98 z m 80.29,-49.011 132.33,-182.168 h -78.9 l -122.09,174.968 h -11.63 V 532.141 h -64.51 v 427.468 h 75.58 c 56.48,0 97.27,-10.621 122.37,-31.839 27.69,-23.629 41.53,-54.821 41.53,-93.579 0,-30.269 -8.68,-56.3 -26.02,-78.07 -17.35,-21.781 -40.24,-35.723 -68.66,-41.812"
         style="fill:#ffffff;fill-opacity:1;fill-rule:nonzero;stroke:none"
         id="path30" />
      <path
         d="m 2571.62,3571.96 h -40.82 v -0.23 h 40.82 v 0.23"
         style="fill:#ffffff;fill-opacity:1;fill-rule:nonzero;stroke:none"
         id="path32" />
      <path
         d="m 2423.65,2041.52 v 0.48 h 255.12 v -51.02 h -255.12 v 9.72 z m 0.01,1432.67 h 102.04 v 97.54 h 51.02 v -97.54 h 102.04 l 0.01,-55.53 h -102.05 v -102.05 h -51.02 v 102.05 H 2423.65 Z M 2168.54,1786.21 h 765.35 V 3776.66 H 2168.54 V 1786.21"
         style="fill:#ffffff;fill-opacity:1;fill-rule:nonzero;stroke:none"
         id="path34" />
      <path
         d="m 2372.63,3929.22 v -101.53 h 357.16 v 101.53 h -357.16"
         style="fill:#ffffff;fill-opacity:1;fill-rule:nonzero;stroke:none"
         id="path36" />
    </g>
  </g>
</svg>
