<?xml version="1.0" encoding="UTF-8" standalone="no"?>
<!-- Created with Inkscape (http://www.inkscape.org/) -->

<svg
   version="1.1"
   id="svg2"
   width="680.32001"
   height="680.32001"
   viewBox="0 0 680.32001 680.32001"
   sodipodi:docname="BETON_rgb.eps"
   xmlns:inkscape="http://www.inkscape.org/namespaces/inkscape"
   xmlns:sodipodi="http://sodipodi.sourceforge.net/DTD/sodipodi-0.dtd"
   xmlns="http://www.w3.org/2000/svg"
   xmlns:svg="http://www.w3.org/2000/svg">
  <defs
     id="defs6" />
  <sodipodi:namedview
     id="namedview4"
     pagecolor="#ffffff"
     bordercolor="#000000"
     borderopacity="0.25"
     inkscape:showpageshadow="2"
     inkscape:pageopacity="0.0"
     inkscape:pagecheckerboard="0"
     inkscape:deskcolor="#d1d1d1" />
  <g
     id="g8"
     inkscape:groupmode="layer"
     inkscape:label="ink_ext_XXXXXX"
     transform="matrix(1.3333333,0,0,-1.3333333,0,680.32)">
    <g
       id="g10"
       transform="scale(0.1)">
      <path
         d="M 5102.36,0 H 0 V 5102.36 H 5102.36 V 0"
         style="fill:#21508c;fill-opacity:1;fill-rule:nonzero;stroke:none"
         id="path12" />
      <path
         d="m 1712.25,595.539 h 39.86 c 29.16,0 50.57,5.723 64.23,17.172 14.4,12.359 21.6,28.051 21.6,47.059 0,18.449 -6.92,33.96 -20.77,46.511 -13.47,12.36 -37.56,18.559 -72.25,18.559 h -32.67 z m 0,183.281 h 20.21 c 23.99,0 41.57,5.301 52.73,15.918 11.17,10.614 16.76,26.25 16.76,46.922 0,20.121 -5.72,35.391 -17.17,45.82 -11.45,10.43 -28.06,15.649 -49.83,15.649 h -22.7 z m -64.51,-243.91 v 427.469 h 64.23 c 28.61,0 51.4,-2.219 68.38,-6.649 17.17,-4.429 31.66,-11.898 43.47,-22.429 11.99,-10.891 21.5,-24.449 28.51,-40.692 7.2,-16.437 10.8,-33.05 10.8,-49.828 0,-30.652 -11.72,-56.582 -35.16,-77.812 22.7,-7.739 40.6,-21.309 53.71,-40.688 13.29,-19.199 19.94,-41.519 19.94,-67 0,-33.41 -11.82,-61.64 -35.44,-84.722 -14.22,-14.207 -30.18,-24.079 -47.9,-29.618 -19.38,-5.359 -43.65,-8.031 -72.81,-8.031 h -97.73"
         style="fill:#ffffff;fill-opacity:1;fill-rule:nonzero;stroke:none"
         id="path14" />
      <path
         d="M 2200.89,901.738 H 2029.52 V 799.039 H 2195.9 V 738.398 H 2029.52 V 595.539 h 171.37 V 534.91 h -235.88 v 427.469 h 235.88 v -60.641"
         style="fill:#ffffff;fill-opacity:1;fill-rule:nonzero;stroke:none"
         id="path16" />
      <path
         d="M 2432.35,901.738 V 534.91 h -64.51 v 366.828 h -98.28 v 60.641 h 260.8 v -60.641 h -98.01"
         style="fill:#ffffff;fill-opacity:1;fill-rule:nonzero;stroke:none"
         id="path18" />
      <path
         d="m 2618.11,749.891 c 0,-47.211 15.88,-86.032 47.63,-116.461 31.56,-30.43 68.01,-45.641 109.36,-45.641 44.85,0 82.68,15.492 113.51,46.473 30.82,31.347 46.23,69.519 46.23,114.519 0,45.547 -15.22,83.719 -45.68,114.52 -30.27,30.98 -67.73,46.469 -112.4,46.469 -44.48,0 -82.04,-15.489 -112.68,-46.469 -30.64,-30.61 -45.97,-68.41 -45.97,-113.41 z m -65.05,0.687 c 0,60.16 22.06,111.852 66.17,155.043 43.92,43.188 96.71,64.777 158.36,64.777 60.91,0 113.14,-21.769 156.7,-65.328 43.74,-43.558 65.61,-95.89 65.61,-156.98 0,-61.469 -21.96,-113.61 -65.89,-156.43 -44.12,-43.012 -97.36,-64.5 -159.74,-64.5 -55.19,0 -104.75,19.102 -148.67,57.309 -48.36,42.261 -72.54,97.633 -72.54,166.109"
         style="fill:#ffffff;fill-opacity:1;fill-rule:nonzero;stroke:none"
         id="path20" />
      <path
         d="m 3072.02,534.91 v 456.539 l 311.74,-326.148 v 297.078 h 64.51 V 508.891 l -311.75,325.3 V 534.91 h -64.5"
         style="fill:#ffffff;fill-opacity:1;fill-rule:nonzero;stroke:none"
         id="path22" />
      <path
         d="m 3086.83,2428.64 c 0,-72.92 -59.66,-132.58 -132.58,-132.58 h -806.33 c -72.93,0 -132.59,59.66 -132.59,132.58 v 602.24 c 0,72.92 59.66,132.58 132.59,132.58 h 806.33 c 72.92,0 132.58,-59.66 132.58,-132.58 z m 391.25,-132.58 c -72.92,0 -132.58,59.66 -132.58,132.58 v 602.24 c 0,72.92 59.66,132.58 132.58,132.58 h 397.79 v 254.31 H 1222.64 v -254.31 h 401.44 c 72.92,0 132.58,-59.66 132.58,-132.58 v -602.24 c 0,-72.92 -59.66,-132.58 -132.58,-132.58 h -401.44 v -255.93 h 2653.23 v 255.93 h -397.79"
         style="fill:#ffffff;fill-opacity:1;fill-rule:nonzero;stroke:none"
         id="path24" />
    </g>
  </g>
</svg>
