<?xml version="1.0" encoding="UTF-8" standalone="no"?>
<!-- Created with Inkscape (http://www.inkscape.org/) -->

<svg
   version="1.1"
   id="svg2"
   width="680.32001"
   height="680.32001"
   viewBox="0 0 680.32001 680.32001"
   sodipodi:docname="BIG_BAGS_rgb.icon.svg"
   inkscape:version="1.3.2 (091e20e, 2023-11-25, custom)"
   xmlns:inkscape="http://www.inkscape.org/namespaces/inkscape"
   xmlns:sodipodi="http://sodipodi.sourceforge.net/DTD/sodipodi-0.dtd"
   xmlns="http://www.w3.org/2000/svg"
   xmlns:svg="http://www.w3.org/2000/svg">
  <defs
     id="defs6" />
  <sodipodi:namedview
     id="namedview4"
     pagecolor="#ffffff"
     bordercolor="#000000"
     borderopacity="0.25"
     inkscape:showpageshadow="2"
     inkscape:pageopacity="0.0"
     inkscape:pagecheckerboard="0"
     inkscape:deskcolor="#d1d1d1"
     inkscape:zoom="1.6859713"
     inkscape:cx="340.16"
     inkscape:cy="340.16"
     inkscape:window-width="2560"
     inkscape:window-height="1361"
     inkscape:window-x="2551"
     inkscape:window-y="-9"
     inkscape:window-maximized="1"
     inkscape:current-layer="g8" />
  <g
     id="g8"
     inkscape:groupmode="layer"
     inkscape:label="ink_ext_XXXXXX"
     transform="matrix(1.3333333,0,0,-1.3333333,0,680.32)">
    <g
       id="g10"
       transform="scale(0.1)">
      <path
         d="M 5102.36,0 H 0 V 5102.36 H 5102.36 V 0"
         style="fill:#8d1b90;fill-opacity:1;fill-rule:nonzero;stroke:none"
         id="path12" />
      <path
         d="m 1553.15,3362.59 c -16.92,29.72 -47.2,82.88 -52.14,130.57 l -0.57,13.92 c -0.08,2.13 -0.12,3.74 -0.12,5.22 0,62.72 45.82,113.75 102.14,113.75 56.32,0 102.14,-51.03 102.14,-113.75 0,-1.48 -0.04,-3.13 -0.12,-5.2 l -0.59,-14.15 c -5.01,-47.62 -35.21,-100.66 -52.1,-130.33 -1.18,-2.05 -2.28,-4 -3.32,-5.83 -20.7,-36.6 -35.48,-66.94 -46.01,-91.32 -10.53,24.37 -25.31,54.72 -46.01,91.32 -1.03,1.82 -2.13,3.76 -3.3,5.8 z m 24.7,-182.31 c 0,0 0,0 0.01,0.01 0,-0.01 0,-0.01 0,-0.01 14.27,-0.55 30.76,-0.86 48.9,-0.98 76.61,-0.49 183.01,2.53 279.04,5.91 83.25,2.94 159.73,11.57 199.37,16.41 5.2,23.78 10.5,47.53 12.5,71.78 4.42,53.78 -7.6,107.42 -19.98,159.87 -8.93,37.8 -18.09,77.52 -8.25,115.08 5.25,20.06 15.66,38.24 23.16,57.53 4.44,11.43 18.64,58.65 34.03,128.26 -151.1,-125.51 -301.89,-257.33 -428.16,-402.41 -9.19,-10.57 -31.32,-36.44 -61.49,-69.33 -19.74,-21.52 -19.73,-21.52 0,0 9.03,19.41 20.72,42.43 35.9,69.27 1.01,1.79 2.1,3.69 3.24,5.7 20.8,36.52 59.51,104.5 59.51,168.67 l -1.04,25.52 c -8.89,81.81 -73.73,145.51 -152.13,145.51 -78.4,0 -143.23,-63.7 -152.12,-145.51 l -1.04,-25.52 c 0,-64.19 38.71,-132.17 59.52,-168.7 1.13,-2 2.21,-3.89 3.22,-5.67 52.64,-93.06 63.62,-140.6 65.29,-149.18 0.15,-0.76 0.32,-1.5 0.52,-2.21"
         style="fill:#ffffff;fill-opacity:1;fill-rule:nonzero;stroke:none"
         id="path28" />
      <path
         d="m 2126.19,3906.77 c -1.03,1.82 -2.14,3.76 -3.3,5.8 -16.92,29.72 -47.2,82.88 -52.14,130.57 l -0.57,13.92 c -0.09,2.12 -0.13,3.73 -0.13,5.22 0,62.72 45.83,113.75 102.15,113.75 8.55,0 16.86,-1.19 24.8,-3.41 19.04,-5.31 35.95,-16.59 49.09,-31.93 17.48,-20.42 28.25,-48.03 28.25,-78.41 0,-1.48 -0.04,-3.13 -0.13,-5.2 l -0.58,-14.15 c -4.08,-38.76 -24.85,-81.12 -41.55,-111.54 -3.82,-6.95 -7.42,-13.27 -10.56,-18.79 -1.17,-2.06 -2.28,-4 -3.32,-5.83 -20.7,-36.6 -35.48,-66.95 -46.01,-91.32 -2.03,4.71 -4.23,9.66 -6.6,14.83 -9.87,21.53 -22.71,46.97 -39.4,76.49 z m 44.59,-152.62 c 9.01,-0.73 31.94,-1.68 31.94,-1.68 0.01,0.03 23.91,65.55 59.9,129.17 1.01,1.8 2.09,3.7 3.24,5.71 20.79,36.52 59.5,104.5 59.5,168.67 l -1.04,25.51 c -5.68,52.35 -34.29,97.23 -74.67,122.81 -15.71,9.96 -33.21,16.97 -51.84,20.36 -8.34,1.52 -16.88,2.35 -25.61,2.35 -78.41,0 -143.24,-63.7 -152.13,-145.52 l -1.04,-25.51 c 0,-64.19 38.72,-132.18 59.52,-168.7 1.14,-2 2.22,-3.89 3.23,-5.68 49.61,-87.7 64.86,-147.43 64.85,-147.5 0.02,0.02 0.05,0.04 0.08,0.06 8.02,6.67 16.04,13.32 24.07,19.95"
         style="fill:#ffffff;fill-opacity:1;fill-rule:nonzero;stroke:none"
         id="path30" />
      <path
         d="m 3509.5,2483.62 c -6.82,63.54 -6.63,105.99 -13.45,169.53 -8.31,77.44 -16.62,154.88 -24.92,232.32 -11.59,108 -24.08,214.92 -74.34,310.48 -5.35,10.17 -11.26,20.66 -11.61,32.22 -0.44,14.74 8.16,27.92 15.95,40.3 82,130.21 107.96,288.67 124.6,442.98 -1.72,-1.41 -3.42,-2.81 -5.14,-4.22 -186.03,-152.55 -378.4,-310.29 -532.78,-487.68 -1.29,-1.48 -2.83,-3.26 -4.63,-5.33 -10.16,-11.74 -28.17,-32.54 -51.55,-58.21 -18.01,-86.54 -35.99,-146.73 -41.94,-162.04 -3.22,-8.29 -6.66,-15.9 -9.99,-23.25 -4.69,-10.35 -9.11,-20.12 -11.37,-28.73 -6.73,-25.7 1.04,-58.61 8.55,-90.43 11.77,-49.86 26.43,-111.92 21.17,-175.77 -2.2,-26.84 -7.68,-51.9 -12.98,-76.14 -3.86,-17.67 -7.51,-34.36 -9.68,-50.72 -6.15,-46.44 -0.92,-96.73 4.15,-145.37 7.88,-75.7 19.44,-153.25 30.62,-228.24 11.35,-76.1 23.08,-154.78 31.19,-232.73 4.52,-43.37 16.34,-97.2 34.2,-155.78 4.73,5.45 8.5,9.82 11.17,12.89 168.82,193.96 381.47,364.24 580.08,527.41 v 0 c -1.21,33.86 -5.63,75.48 -19.91,93.98 -14.28,18.5 -36.83,38.91 -37.39,62.53"
         style="fill:#ffffff;fill-opacity:1;fill-rule:nonzero;stroke:none"
         id="path32" />
      <path
         d="m 2829.11,2398.13 c -5.44,52.3 -10.88,105.22 -3.98,157.35 5.54,41.79 18.94,82.31 22.4,124.34 4.42,53.78 -7.6,107.41 -19.98,159.86 -8.93,37.8 -18.09,77.53 -8.25,115.09 5.25,20.06 15.66,38.23 23.16,57.53 4.8,12.36 21.02,66.58 37.81,145.72 -9.01,0.41 -18.03,0.83 -27.07,1.25 -127.16,5.88 -258.64,11.96 -388.3,11.96 -126.23,0 -235.45,-5.85 -333.9,-17.88 -1.94,-0.24 -4.28,-0.53 -6.98,-0.87 -33.13,-4.13 -121.13,-15.11 -218.22,-18.53 -114.54,-4.04 -200.88,-6 -263.94,-6 -23.56,0 -42.83,0.27 -58.71,0.75 16.65,-153.33 42.8,-310.55 124.26,-439.9 7.79,-12.38 16.39,-25.56 15.95,-40.3 -0.35,-11.56 -6.26,-22.05 -11.61,-32.22 -50.25,-95.56 -62.75,-202.48 -74.34,-310.48 -8.3,-77.44 -16.61,-154.88 -24.92,-232.32 -6.82,-63.54 -6.63,-105.99 -13.45,-169.53 -0.56,-23.62 -23.11,-44.03 -37.39,-62.53 -14.28,-18.5 -18.69,-60.12 -19.92,-93.98 29.47,-11.23 220.03,-6.59 381.27,-0.91 102.77,3.63 195.25,15.94 220.81,19.06 255.23,31.19 527.2,15.43 783.98,3.79 -16.15,52.65 -31.14,112.87 -36.86,167.77 -15.99,153.66 -45.82,307.32 -61.82,460.98"
         style="fill:#ffffff;fill-opacity:1;fill-rule:nonzero;stroke:none"
         id="path34" />
      <path
         d="m 2951.75,3380.66 c 1.03,1.83 2.14,3.78 3.31,5.83 16.89,29.67 47.1,82.72 52.11,130.33 l 0.59,14.15 c 0.08,2.07 0.12,3.72 0.12,5.2 0,62.72 -45.82,113.75 -102.14,113.75 -56.32,0 -102.14,-51.03 -102.14,-113.75 0,-1.48 0.04,-3.09 0.12,-5.22 l 0.57,-13.91 c 4.94,-47.69 35.22,-100.86 52.14,-130.57 1.17,-2.05 2.27,-3.99 3.3,-5.81 20.7,-36.6 35.48,-66.95 46.01,-91.32 10.53,24.38 25.31,54.72 46.01,91.32"
         style="fill:#ffffff;fill-opacity:1;fill-rule:nonzero;stroke:none"
         id="path36" />
      <path
         d="m 3600.92,4085.05 -0.59,-14.15 c -5.01,-47.62 -35.22,-100.67 -52.11,-130.33 -1.17,-2.06 -2.28,-4.01 -3.31,-5.84 -20.7,-36.6 -35.48,-66.94 -46.01,-91.31 -10.53,24.37 -25.31,54.72 -46.01,91.31 -1.03,1.83 -2.13,3.77 -3.3,5.81 -16.92,29.72 -47.2,82.88 -52.14,130.57 l -0.57,13.92 c -0.08,2.12 -0.12,3.73 -0.12,5.22 0,62.72 45.82,113.75 102.14,113.75 56.32,0 102.14,-51.03 102.14,-113.75 0,-1.48 -0.04,-3.13 -0.12,-5.2 z m 50.11,24.45 c -8.89,81.82 -73.73,145.52 -152.13,145.52 -78.4,0 -143.24,-63.7 -152.12,-145.52 l -1.04,-25.51 c 0,-64.19 38.71,-132.18 59.51,-168.7 1.14,-2 2.22,-3.9 3.23,-5.68 34.57,-61.11 51.17,-102.59 58.97,-126.3 -238.26,11.01 -487.2,22.05 -721.99,-6.64 -25.56,-3.12 -118.04,-15.43 -220.8,-19.06 -115.66,-4.07 -246.39,-7.61 -321.94,-5.14 -18.21,-88.16 -36.54,-149.59 -42.56,-165.07 -3.22,-8.29 -6.67,-15.9 -10,-23.26 -4.68,-10.34 -9.11,-20.11 -11.36,-28.72 -6.74,-25.7 1.03,-58.61 8.55,-90.43 11.77,-49.86 26.42,-111.92 21.17,-175.77 -1.76,-21.41 -5.61,-41.68 -9.78,-61.3 40.86,4.35 82.11,7.57 123.62,9.85 197.91,10.92 401.75,0.72 597.59,-8.31 -3.21,14.01 -16.52,61.01 -64.63,146.08 -1.01,1.78 -2.09,3.67 -3.23,5.68 -20.8,36.52 -59.51,104.5 -59.51,168.69 l 1.04,25.52 c 8.88,81.82 73.72,145.51 152.12,145.51 78.4,0 143.24,-63.69 152.13,-145.51 l 1.04,-25.52 c 0,-64.17 -38.71,-132.15 -59.51,-168.66 -1.14,-2.02 -2.23,-3.92 -3.24,-5.71 -27.58,-48.76 -43.71,-84.98 -53.07,-109.68 2.76,3.16 4.99,5.72 6.27,7.19 156.18,179.46 349.88,338.63 535.28,490.66 14.99,12.29 29.93,24.54 44.78,36.74 0,0 23.88,65.48 59.9,129.16 1.01,1.79 2.1,3.7 3.24,5.71 20.8,36.52 59.5,104.5 59.5,168.67 l -1.03,25.51"
         style="fill:#ffffff;fill-opacity:1;fill-rule:nonzero;stroke:none"
         id="path38" />
    </g>
  </g>
</svg>
