<?xml version="1.0" encoding="UTF-8" standalone="no"?>
<!-- Created with Inkscape (http://www.inkscape.org/) -->

<svg
   version="1.1"
   id="svg2"
   width="680.32001"
   height="680.32001"
   viewBox="0 0 680.32001 680.32001"
   sodipodi:docname="BLOED_PLAST_2_rgb.eps"
   xmlns:inkscape="http://www.inkscape.org/namespaces/inkscape"
   xmlns:sodipodi="http://sodipodi.sourceforge.net/DTD/sodipodi-0.dtd"
   xmlns="http://www.w3.org/2000/svg"
   xmlns:svg="http://www.w3.org/2000/svg">
  <defs
     id="defs6" />
  <sodipodi:namedview
     id="namedview4"
     pagecolor="#ffffff"
     bordercolor="#000000"
     borderopacity="0.25"
     inkscape:showpageshadow="2"
     inkscape:pageopacity="0.0"
     inkscape:pagecheckerboard="0"
     inkscape:deskcolor="#d1d1d1" />
  <g
     id="g8"
     inkscape:groupmode="layer"
     inkscape:label="ink_ext_XXXXXX"
     transform="matrix(1.3333333,0,0,-1.3333333,0,680.32)">
    <g
       id="g10"
       transform="scale(0.1)">
      <path
         d="M 5102.36,0 H 0 V 5102.36 H 5102.36 V 0"
         style="fill:#8d1b8f;fill-opacity:1;fill-rule:nonzero;stroke:none"
         id="path12" />
      <path
         d="m 995.949,592.699 h 39.871 c 29.16,0 50.57,5.723 64.23,17.172 14.4,12.359 21.59,28.051 21.59,47.059 0,18.461 -6.92,33.961 -20.76,46.519 -13.48,12.36 -37.56,18.539 -72.26,18.539 h -32.671 z m 0,183.281 h 20.211 c 23.99,0 41.57,5.309 52.74,15.918 11.17,10.614 16.75,26.25 16.75,46.934 0,20.109 -5.72,35.387 -17.16,45.816 -11.45,10.422 -28.06,15.641 -49.84,15.641 H 995.949 Z M 931.445,532.07 v 427.469 h 64.231 c 28.604,0 51.394,-2.219 68.384,-6.648 17.16,-4.43 31.65,-11.903 43.46,-22.422 12,-10.899 21.5,-24.457 28.52,-40.699 7.2,-16.43 10.8,-33.04 10.8,-49.84 0,-30.641 -11.72,-56.571 -35.16,-77.789 22.7,-7.75 40.6,-21.321 53.71,-40.7 13.29,-19.203 19.93,-41.531 19.93,-67 0,-33.41 -11.81,-61.652 -35.44,-84.722 -14.21,-14.207 -30.17,-24.078 -47.89,-29.617 -19.38,-5.352 -43.66,-8.032 -72.82,-8.032 h -97.725"
         style="fill:#ffffff;fill-opacity:1;fill-rule:nonzero;stroke:none"
         id="path14" />
      <path
         d="m 1326.36,959.539 v -366.84 h 125.7 V 532.07 h -190.2 v 427.469 h 64.5"
         style="fill:#ffffff;fill-opacity:1;fill-rule:nonzero;stroke:none"
         id="path16" />
      <path
         d="M 1858.07,844.09 1635.75,617.34 c 31.19,-21.59 63.31,-32.391 96.35,-32.391 43.56,0 80.65,15.602 111.3,46.789 30.63,31.192 45.95,69.211 45.95,114.063 0,35.258 -10.43,68.019 -31.28,98.289 z m -37.1,35.992 c -26.76,17.898 -56.2,26.848 -88.32,26.848 -45.59,0 -83.61,-15.59 -114.06,-46.782 -30.27,-31.378 -45.41,-70.328 -45.41,-116.839 0,-30.45 8.95,-60.168 26.86,-89.149 z m 45.13,42.629 46.23,47.07 37.1,-36.82 -45.68,-46.789 c 33.78,-42.082 50.66,-89.242 50.66,-141.473 0,-60.539 -21.87,-112.41 -65.61,-155.597 -43.74,-43.192 -96.26,-64.782 -157.53,-64.782 -51.13,0 -98.28,16.328 -141.47,49 l -45.96,-45.679 -35.44,36.269 44.57,45.961 c -29.9,39.867 -44.85,84.617 -44.85,134.27 0,63.859 22.61,117.289 67.83,160.3 44.3,42.079 96.63,63.129 156.98,63.129 47.99,0 92.38,-14.949 133.17,-44.859"
         style="fill:#ffffff;fill-opacity:1;fill-rule:nonzero;stroke:none"
         id="path18" />
      <path
         d="m 2092.84,592.699 h 29.07 c 28.97,0 53.06,3.051 72.26,9.141 19.19,6.461 36.54,16.699 52.05,30.73 31.74,28.981 47.62,66.719 47.62,113.231 0,46.879 -15.69,84.898 -47.07,114.07 -28.24,26.02 -69.86,39.039 -124.86,39.039 h -29.07 z m -64.51,-60.629 v 427.469 h 89.7 c 43.01,0 76.97,-4.25 101.89,-12.738 26.76,-8.301 51.03,-22.422 72.81,-42.36 44.11,-40.242 66.17,-93.121 66.17,-158.64 0,-65.711 -22.98,-118.86 -68.94,-159.461 -23.07,-20.309 -47.25,-34.43 -72.53,-42.36 -23.63,-7.941 -57.13,-11.91 -100.5,-11.91 h -88.6"
         style="fill:#ffffff;fill-opacity:1;fill-rule:nonzero;stroke:none"
         id="path20" />
      <path
         d="m 2668.88,765.461 h 24.08 c 59.25,0 88.87,22.789 88.87,68.379 0,44.121 -30.55,66.172 -91.64,66.172 h -21.31 z m 0,-59.801 V 532.07 h -64.51 v 427.469 h 73.09 c 35.8,0 62.84,-2.5 81.12,-7.48 18.45,-4.981 34.69,-14.399 48.72,-28.239 24.55,-23.988 36.83,-54.261 36.83,-90.808 0,-39.133 -13.11,-70.141 -39.32,-93.024 -26.21,-22.886 -61.55,-34.328 -106.03,-34.328 h -29.9"
         style="fill:#ffffff;fill-opacity:1;fill-rule:nonzero;stroke:none"
         id="path22" />
      <path
         d="m 2975.08,959.539 v -366.84 h 125.69 V 532.07 h -190.2 v 427.469 h 64.51"
         style="fill:#ffffff;fill-opacity:1;fill-rule:nonzero;stroke:none"
         id="path24" />
      <path
         d="m 3429.29,696.52 -63.4,145.351 -66.44,-145.351 z m 26.3,-60.629 h -183 L 3224.97,532.07 h -69.49 L 3367,986.391 3571.04,532.07 h -70.6 l -44.85,103.821"
         style="fill:#ffffff;fill-opacity:1;fill-rule:nonzero;stroke:none"
         id="path26" />
      <path
         d="m 3858.07,896.141 -52.33,-31.012 c -9.78,16.98 -19.1,28.051 -27.96,33.223 -9.23,5.91 -21.13,8.859 -35.71,8.859 -17.91,0 -32.77,-5.082 -44.58,-15.242 -11.81,-9.969 -17.71,-22.528 -17.71,-37.68 0,-20.867 15.5,-37.68 46.51,-50.418 l 42.63,-17.449 c 34.7,-14.051 60.08,-31.184 76.14,-51.402 16.06,-20.231 24.08,-45.02 24.08,-74.391 0,-39.34 -13.1,-71.848 -39.31,-97.52 -26.4,-25.859 -59.16,-38.789 -98.28,-38.789 -37.1,0 -67.74,11.032 -91.92,33.102 -23.81,22.039 -38.67,53 -44.57,92.867 l 65.33,14.402 c 2.96,-25.113 8.12,-42.461 15.51,-52.05 13.29,-18.461 32.67,-27.692 58.14,-27.692 20.11,0 36.82,6.731 50.11,20.192 13.29,13.468 19.93,30.531 19.93,51.191 0,8.289 -1.15,15.898 -3.46,22.816 -2.31,6.922 -5.91,13.282 -10.8,19.09 -4.89,5.813 -11.21,11.25 -18.96,16.321 -7.75,5.07 -16.98,9.921 -27.68,14.531 l -41.26,17.148 c -58.51,24.711 -87.76,60.871 -87.76,108.453 0,32.09 12.27,58.93 36.82,80.5 24.55,21.77 55.1,32.649 91.64,32.649 49.28,0 87.76,-23.899 115.45,-71.699"
         style="fill:#ffffff;fill-opacity:1;fill-rule:nonzero;stroke:none"
         id="path28" />
      <path
         d="M 4072.91,898.91 V 532.07 h -64.51 v 366.84 h -98.28 v 60.629 h 260.8 V 898.91 h -98.01"
         style="fill:#ffffff;fill-opacity:1;fill-rule:nonzero;stroke:none"
         id="path30" />
      <path
         d="m 2938.83,3698.42 c 0,-49.11 -40.18,-89.29 -89.29,-89.29 h -586.77 c -49.11,0 -89.3,40.18 -89.3,89.29 v 0 c 0,49.11 40.19,89.29 89.3,89.29 h 586.77 c 49.11,0 89.29,-40.18 89.29,-89.29 z m 386,-1322.17 c -7.09,68.12 -14.18,137.05 -5.18,204.94 7.21,54.44 24.66,107.21 29.17,161.95 5.76,70.05 -9.9,139.91 -26.03,208.22 -11.62,49.23 -23.55,100.97 -10.74,149.89 6.84,26.14 20.4,49.81 30.17,74.94 14.12,36.33 103.99,350.38 107.19,688.68 0.42,44.44 8.92,84.43 2.49,128.38 -177.56,51.02 -737.96,41.29 -953.06,41.29 -813.91,0 -834.45,41.27 -834.9,44.1 l 37.1,-742.05 c 21.66,-202.48 55.15,-410.8 162.81,-581.75 10.15,-16.12 21.35,-33.29 20.78,-52.49 -0.46,-15.06 -8.16,-28.71 -15.13,-41.96 -65.45,-124.46 -81.73,-263.73 -96.82,-404.39 -10.82,-100.86 -21.64,-201.72 -32.46,-302.59 -8.88,-82.76 -8.64,-138.05 -17.52,-220.81 -0.73,-30.76 -30.1,-57.35 -48.7,-81.44 -18.59,-24.09 -24.35,-78.3 -25.94,-122.41 38.38,-14.63 286.58,-8.58 496.6,-1.18 133.84,4.72 254.3,20.75 287.58,24.82 332.44,40.62 686.67,20.1 1021.12,4.94 -21.05,68.58 -40.57,147.01 -48.01,218.51 -20.84,200.14 -59.69,400.27 -80.52,600.41"
         style="fill:#ffffff;fill-opacity:1;fill-rule:nonzero;stroke:none"
         id="path32" />
      <path
         d="m 1663.94,4078.64 -0.01,0.15 c 0,0 0,-0.05 0.01,-0.15"
         style="fill:#ffffff;fill-opacity:1;fill-rule:nonzero;stroke:none"
         id="path34" />
    </g>
  </g>
</svg>
