<?xml version="1.0" encoding="UTF-8" standalone="no"?>
<!-- Created with Inkscape (http://www.inkscape.org/) -->

<svg
   version="1.1"
   id="svg2"
   width="680.32001"
   height="680.32001"
   viewBox="0 0 680.32001 680.32001"
   sodipodi:docname="BLOED_PVC_rgb.icon.svg"
   inkscape:version="1.3.2 (091e20e, 2023-11-25, custom)"
   xmlns:inkscape="http://www.inkscape.org/namespaces/inkscape"
   xmlns:sodipodi="http://sodipodi.sourceforge.net/DTD/sodipodi-0.dtd"
   xmlns="http://www.w3.org/2000/svg"
   xmlns:svg="http://www.w3.org/2000/svg">
  <defs
     id="defs6" />
  <sodipodi:namedview
     id="namedview4"
     pagecolor="#ffffff"
     bordercolor="#000000"
     borderopacity="0.25"
     inkscape:showpageshadow="2"
     inkscape:pageopacity="0.0"
     inkscape:pagecheckerboard="0"
     inkscape:deskcolor="#d1d1d1"
     inkscape:zoom="1.6859713"
     inkscape:cx="340.16"
     inkscape:cy="340.16"
     inkscape:window-width="2560"
     inkscape:window-height="1361"
     inkscape:window-x="2551"
     inkscape:window-y="-9"
     inkscape:window-maximized="1"
     inkscape:current-layer="g8" />
  <g
     id="g8"
     inkscape:groupmode="layer"
     inkscape:label="ink_ext_XXXXXX"
     transform="matrix(1.3333333,0,0,-1.3333333,0,680.32)">
    <g
       id="g10"
       transform="scale(0.1)">
      <path
         d="M 5102.36,0 H 0 V 5102.36 H 5102.36 V 0"
         style="fill:#8d1c90;fill-opacity:1;fill-rule:nonzero;stroke:none"
         id="path12" />
      <path
         d="m 3446.02,2509.35 c -7.95,32.88 -18.13,65.45 -30.56,97.56 v 0 c -27.13,70.13 -64.83,138.41 -112.02,202.95 -48.1,65.77 -95.84,113.71 -127.43,142.33 l -22.75,20.63 c 3.35,8.04 6.33,16.34 8.88,24.88 19.17,64.31 12.89,134.55 -17.69,197.77 -0.49,1 -0.98,1.98 -1.47,2.96 l 19.6,8.85 c 70.48,31.83 142.98,63.99 196.43,87.44 21.16,-36.13 40.03,-73.7 56.49,-112.61 50.57,-119.58 76.22,-246.63 76.22,-377.6 0,-101.28 -15.35,-200.21 -45.7,-295.16 z m -551.77,-29.49 c -38.06,-176.52 -92.1,-327.74 -160.61,-449.47 -42.71,-75.9 -91.64,-140.88 -145.72,-193.74 -21.97,-1.46 -44.07,-2.23 -66.29,-2.23 -130.97,0 -258.01,25.65 -377.59,76.23 -115.51,48.86 -219.26,118.81 -308.36,207.91 -67.33,67.33 -123.72,143.03 -168.34,225.84 230.6,139.49 713.61,428.26 1034.18,616.14 l 19.36,11.35 c 31.12,-55.43 78.8,-98.04 135.84,-120.98 29.18,-11.74 59.17,-17.66 88.74,-17.82 l -1.78,-20.05 c -10.37,-117.05 -27,-229.14 -49.43,-333.18 z M 1835.68,3490.47 c 89.1,89.1 192.85,159.05 308.36,207.9 119.58,50.59 246.62,76.23 377.59,76.23 92.17,0 182.38,-12.72 269.43,-37.87 16.89,-23.68 32.56,-48.44 46.79,-74.09 h -0.01 c 34.9,-62.92 62.24,-132.34 81.26,-206.33 7.61,-29.59 13.93,-60.18 18.78,-90.9 l 2.7,-17.17 c -10.05,1.33 -20.15,2.01 -30.26,2.01 -33.71,0 -66.11,-7.36 -96.32,-21.88 -33.51,-16.1 -61.19,-39.79 -82.26,-68.41 l -24.9,12.37 c -82.65,39.92 -164.65,74.78 -243.72,103.61 -169.47,61.81 -326.08,96.64 -465.47,103.54 -63.62,3.15 -124,0.39 -180.63,-8.21 6.12,6.47 12.34,12.88 18.66,19.2 z m 1000.68,-208.31 c 23.17,11.13 48.05,16.78 73.96,16.78 23.66,0 47.44,-4.74 70.67,-14.08 50.5,-20.31 92.09,-59.97 117.09,-111.67 25,-51.7 30.23,-108.83 14.72,-160.87 -14.99,-50.29 -47.73,-89.75 -92.2,-111.12 -44.47,-21.38 -95.83,-22.34 -144.63,-2.71 -50.5,20.31 -92.09,59.97 -117.09,111.67 -50.81,105.03 -16.04,227.05 77.48,272 z m 624.96,-80.67 c -16.53,39.07 -35.36,76.85 -56.41,113.26 -44.36,76.75 -98.62,147.37 -162.14,210.9 -93.65,93.65 -202.71,167.18 -324.16,218.55 -57.91,24.49 -117.47,43.4 -178.32,56.7 -71.31,15.59 -144.38,23.45 -218.66,23.45 -137.66,0 -271.22,-26.97 -396.97,-80.15 -121.44,-51.37 -230.51,-124.9 -324.16,-218.55 -22.93,-22.93 -44.65,-46.8 -65.14,-71.53 -63.18,-76.29 -114.61,-160.93 -153.4,-252.63 -53.19,-125.75 -80.16,-259.31 -80.16,-396.98 0,-137.66 26.97,-271.23 80.16,-396.97 12.87,-30.44 27.15,-60.11 42.77,-88.95 46.72,-86.21 105.6,-165.03 175.77,-235.21 93.65,-93.65 202.72,-167.18 324.16,-218.55 125.75,-53.18 259.31,-80.15 396.97,-80.15 2.87,0 5.73,0.03 8.59,0.05 134.63,1.1 265.26,28.02 388.39,80.1 121.45,51.37 230.51,124.9 324.16,218.55 93.64,93.65 167.18,202.71 218.55,324.16 0.56,1.33 1.1,2.68 1.66,4 52.08,124.58 78.49,256.77 78.49,392.97 0,137.67 -26.97,271.23 -80.15,396.98"
         style="fill:#ffffff;fill-opacity:1;fill-rule:nonzero;stroke:none"
         id="path28" />
    </g>
  </g>
</svg>
