<?xml version="1.0" encoding="UTF-8" standalone="no"?>
<!-- Created with Inkscape (http://www.inkscape.org/) -->

<svg
   version="1.1"
   id="svg2"
   width="680.32001"
   height="680.32001"
   viewBox="0 0 680.32001 680.32001"
   sodipodi:docname="BLOED_PVC_rgb.eps"
   xmlns:inkscape="http://www.inkscape.org/namespaces/inkscape"
   xmlns:sodipodi="http://sodipodi.sourceforge.net/DTD/sodipodi-0.dtd"
   xmlns="http://www.w3.org/2000/svg"
   xmlns:svg="http://www.w3.org/2000/svg">
  <defs
     id="defs6" />
  <sodipodi:namedview
     id="namedview4"
     pagecolor="#ffffff"
     bordercolor="#000000"
     borderopacity="0.25"
     inkscape:showpageshadow="2"
     inkscape:pageopacity="0.0"
     inkscape:pagecheckerboard="0"
     inkscape:deskcolor="#d1d1d1" />
  <g
     id="g8"
     inkscape:groupmode="layer"
     inkscape:label="ink_ext_XXXXXX"
     transform="matrix(1.3333333,0,0,-1.3333333,0,680.32)">
    <g
       id="g10"
       transform="scale(0.1)">
      <path
         d="M 5102.36,0 H 0 V 5102.36 H 5102.36 V 0"
         style="fill:#8d1c90;fill-opacity:1;fill-rule:nonzero;stroke:none"
         id="path12" />
      <path
         d="m 1272.45,595.359 h 39.87 c 29.16,0 50.56,5.723 64.23,17.172 14.39,12.36 21.59,28.047 21.59,47.059 0,18.461 -6.92,33.961 -20.76,46.512 -13.48,12.367 -37.57,18.546 -72.26,18.546 h -32.67 z m 0,183.282 h 20.21 c 23.99,0 41.57,5.308 52.74,15.918 11.17,10.613 16.75,26.25 16.75,46.929 0,20.114 -5.73,35.391 -17.17,45.821 -11.44,10.429 -28.05,15.64 -49.83,15.64 h -22.7 z M 1207.94,534.73 v 427.469 h 64.23 c 28.61,0 51.4,-2.219 68.39,-6.648 17.16,-4.43 31.65,-11.91 43.46,-22.422 12,-10.891 21.5,-24.469 28.52,-40.707 7.2,-16.422 10.79,-33.031 10.79,-49.832 0,-30.641 -11.72,-56.57 -35.16,-77.789 22.71,-7.762 40.61,-21.321 53.71,-40.699 13.29,-19.204 19.94,-41.532 19.94,-67 0,-33.411 -11.82,-61.653 -35.44,-84.723 -14.21,-14.219 -30.18,-24.09 -47.89,-29.629 -19.38,-5.352 -43.66,-8.02 -72.82,-8.02 h -97.73"
         style="fill:#ffffff;fill-opacity:1;fill-rule:nonzero;stroke:none"
         id="path14" />
      <path
         d="m 1604.12,962.199 v -366.84 h 125.69 V 534.73 h -190.2 v 427.469 h 64.51"
         style="fill:#ffffff;fill-opacity:1;fill-rule:nonzero;stroke:none"
         id="path16" />
      <path
         d="M 2135.83,846.75 1913.51,620 c 31.19,-21.59 63.31,-32.391 96.35,-32.391 43.56,0 80.65,15.59 111.29,46.789 30.64,31.192 45.96,69.211 45.96,114.063 0,35.25 -10.43,68.019 -31.28,98.289 z m -37.1,35.988 c -26.77,17.903 -56.21,26.852 -88.32,26.852 -45.59,0 -83.61,-15.602 -114.06,-46.789 -30.28,-31.371 -45.41,-70.321 -45.41,-116.832 0,-30.449 8.95,-60.168 26.86,-89.141 z m 45.13,42.633 46.23,47.07 37.1,-36.82 -45.68,-46.789 c 33.77,-42.082 50.66,-89.254 50.66,-141.48 0,-60.532 -21.87,-112.403 -65.61,-155.59 -43.74,-43.192 -96.26,-64.793 -157.53,-64.793 -51.13,0 -98.29,16.34 -141.48,49.011 l -45.95,-45.679 -35.44,36.269 44.57,45.961 c -29.9,39.86 -44.85,84.617 -44.85,134.27 0,63.847 22.61,117.289 67.83,160.301 44.3,42.078 96.63,63.128 156.98,63.128 47.99,0 92.37,-14.96 133.17,-44.859"
         style="fill:#ffffff;fill-opacity:1;fill-rule:nonzero;stroke:none"
         id="path18" />
      <path
         d="m 2367,595.359 h 29.07 c 28.97,0 53.06,3.051 72.25,9.129 19.2,6.473 36.55,16.711 52.05,30.742 31.75,28.969 47.63,66.719 47.63,113.231 0,46.879 -15.7,84.898 -47.07,114.07 -28.24,26.028 -69.86,39.028 -124.86,39.028 H 2367 Z m -64.51,-60.629 v 427.469 h 89.7 c 43,0 76.96,-4.25 101.89,-12.738 26.75,-8.313 51.03,-22.43 72.8,-42.359 44.11,-40.231 66.18,-93.114 66.18,-158.641 0,-65.711 -22.98,-118.859 -68.94,-159.473 -23.08,-20.297 -47.26,-34.418 -72.54,-42.359 -23.63,-7.938 -57.12,-11.899 -100.5,-11.899 h -88.59"
         style="fill:#ffffff;fill-opacity:1;fill-rule:nonzero;stroke:none"
         id="path20" />
      <path
         d="m 2951.85,768.121 h 24.09 c 59.24,0 88.87,22.789 88.87,68.379 0,44.121 -30.55,66.172 -91.64,66.172 h -21.32 z m 0,-59.801 V 534.73 h -64.51 v 427.469 h 73.1 c 35.8,0 62.84,-2.488 81.11,-7.48 18.46,-4.981 34.7,-14.399 48.73,-28.231 24.54,-24.008 36.82,-54.269 36.82,-90.816 0,-39.133 -13.11,-70.141 -39.31,-93.024 -26.21,-22.886 -61.56,-34.328 -106.03,-34.328 h -29.91"
         style="fill:#ffffff;fill-opacity:1;fill-rule:nonzero;stroke:none"
         id="path22" />
      <path
         d="m 3233.14,962.199 118.22,-296.238 119.88,296.238 h 70.59 L 3349.98,502.621 3162.55,962.199 h 70.59"
         style="fill:#ffffff;fill-opacity:1;fill-rule:nonzero;stroke:none"
         id="path24" />
      <path
         d="m 3893.31,939.359 v -76.281 c -37.29,31.192 -75.86,46.793 -115.73,46.793 -43.93,0 -80.94,-15.781 -111.02,-47.34 -30.27,-31.39 -45.4,-69.781 -45.4,-115.179 0,-44.852 15.13,-82.68 45.4,-113.5 30.27,-30.832 67.36,-46.243 111.3,-46.243 22.7,0 41.98,3.692 57.86,11.071 8.86,3.691 18.04,8.672 27.55,14.949 9.5,6.269 19.51,13.851 30.04,22.711 v -77.93 c -36.92,-20.961 -75.68,-31.441 -116.28,-31.441 -61.1,0 -113.23,21.32 -156.43,63.961 -43,43.011 -64.51,94.871 -64.51,155.59 0,54.449 18,102.992 54,145.628 44.29,52.243 101.6,78.352 171.92,78.352 38.39,0 75.49,-10.379 111.3,-31.141"
         style="fill:#ffffff;fill-opacity:1;fill-rule:nonzero;stroke:none"
         id="path26" />
      <path
         d="m 3446.02,2509.35 c -7.95,32.88 -18.13,65.45 -30.56,97.56 v 0 c -27.13,70.13 -64.83,138.41 -112.02,202.95 -48.1,65.77 -95.84,113.71 -127.43,142.33 l -22.75,20.63 c 3.35,8.04 6.33,16.34 8.88,24.88 19.17,64.31 12.89,134.55 -17.69,197.77 -0.49,1 -0.98,1.98 -1.47,2.96 l 19.6,8.85 c 70.48,31.83 142.98,63.99 196.43,87.44 21.16,-36.13 40.03,-73.7 56.49,-112.61 50.57,-119.58 76.22,-246.63 76.22,-377.6 0,-101.28 -15.35,-200.21 -45.7,-295.16 z m -551.77,-29.49 c -38.06,-176.52 -92.1,-327.74 -160.61,-449.47 -42.71,-75.9 -91.64,-140.88 -145.72,-193.74 -21.97,-1.46 -44.07,-2.23 -66.29,-2.23 -130.97,0 -258.01,25.65 -377.59,76.23 -115.51,48.86 -219.26,118.81 -308.36,207.91 -67.33,67.33 -123.72,143.03 -168.34,225.84 230.6,139.49 713.61,428.26 1034.18,616.14 l 19.36,11.35 c 31.12,-55.43 78.8,-98.04 135.84,-120.98 29.18,-11.74 59.17,-17.66 88.74,-17.82 l -1.78,-20.05 c -10.37,-117.05 -27,-229.14 -49.43,-333.18 z M 1835.68,3490.47 c 89.1,89.1 192.85,159.05 308.36,207.9 119.58,50.59 246.62,76.23 377.59,76.23 92.17,0 182.38,-12.72 269.43,-37.87 16.89,-23.68 32.56,-48.44 46.79,-74.09 h -0.01 c 34.9,-62.92 62.24,-132.34 81.26,-206.33 7.61,-29.59 13.93,-60.18 18.78,-90.9 l 2.7,-17.17 c -10.05,1.33 -20.15,2.01 -30.26,2.01 -33.71,0 -66.11,-7.36 -96.32,-21.88 -33.51,-16.1 -61.19,-39.79 -82.26,-68.41 l -24.9,12.37 c -82.65,39.92 -164.65,74.78 -243.72,103.61 -169.47,61.81 -326.08,96.64 -465.47,103.54 -63.62,3.15 -124,0.39 -180.63,-8.21 6.12,6.47 12.34,12.88 18.66,19.2 z m 1000.68,-208.31 c 23.17,11.13 48.05,16.78 73.96,16.78 23.66,0 47.44,-4.74 70.67,-14.08 50.5,-20.31 92.09,-59.97 117.09,-111.67 25,-51.7 30.23,-108.83 14.72,-160.87 -14.99,-50.29 -47.73,-89.75 -92.2,-111.12 -44.47,-21.38 -95.83,-22.34 -144.63,-2.71 -50.5,20.31 -92.09,59.97 -117.09,111.67 -50.81,105.03 -16.04,227.05 77.48,272 z m 624.96,-80.67 c -16.53,39.07 -35.36,76.85 -56.41,113.26 -44.36,76.75 -98.62,147.37 -162.14,210.9 -93.65,93.65 -202.71,167.18 -324.16,218.55 -57.91,24.49 -117.47,43.4 -178.32,56.7 -71.31,15.59 -144.38,23.45 -218.66,23.45 -137.66,0 -271.22,-26.97 -396.97,-80.15 -121.44,-51.37 -230.51,-124.9 -324.16,-218.55 -22.93,-22.93 -44.65,-46.8 -65.14,-71.53 -63.18,-76.29 -114.61,-160.93 -153.4,-252.63 -53.19,-125.75 -80.16,-259.31 -80.16,-396.98 0,-137.66 26.97,-271.23 80.16,-396.97 12.87,-30.44 27.15,-60.11 42.77,-88.95 46.72,-86.21 105.6,-165.03 175.77,-235.21 93.65,-93.65 202.72,-167.18 324.16,-218.55 125.75,-53.18 259.31,-80.15 396.97,-80.15 2.87,0 5.73,0.03 8.59,0.05 134.63,1.1 265.26,28.02 388.39,80.1 121.45,51.37 230.51,124.9 324.16,218.55 93.64,93.65 167.18,202.71 218.55,324.16 0.56,1.33 1.1,2.68 1.66,4 52.08,124.58 78.49,256.77 78.49,392.97 0,137.67 -26.97,271.23 -80.15,396.98"
         style="fill:#ffffff;fill-opacity:1;fill-rule:nonzero;stroke:none"
         id="path28" />
    </g>
  </g>
</svg>
