<?xml version="1.0" encoding="UTF-8" standalone="no"?>
<!-- Created with Inkscape (http://www.inkscape.org/) -->

<svg
   version="1.1"
   id="svg2"
   width="680.32001"
   height="680.32001"
   viewBox="0 0 680.32001 680.32001"
   sodipodi:docname="BOEGER_rgb.icon.svg"
   inkscape:version="1.3.2 (091e20e, 2023-11-25, custom)"
   xmlns:inkscape="http://www.inkscape.org/namespaces/inkscape"
   xmlns:sodipodi="http://sodipodi.sourceforge.net/DTD/sodipodi-0.dtd"
   xmlns="http://www.w3.org/2000/svg"
   xmlns:svg="http://www.w3.org/2000/svg">
  <defs
     id="defs6" />
  <sodipodi:namedview
     id="namedview4"
     pagecolor="#ffffff"
     bordercolor="#000000"
     borderopacity="0.25"
     inkscape:showpageshadow="2"
     inkscape:pageopacity="0.0"
     inkscape:pagecheckerboard="0"
     inkscape:deskcolor="#d1d1d1"
     inkscape:zoom="1.6859713"
     inkscape:cx="340.16"
     inkscape:cy="340.16"
     inkscape:window-width="2560"
     inkscape:window-height="1361"
     inkscape:window-x="2551"
     inkscape:window-y="-9"
     inkscape:window-maximized="1"
     inkscape:current-layer="g8" />
  <g
     id="g8"
     inkscape:groupmode="layer"
     inkscape:label="ink_ext_XXXXXX"
     transform="matrix(1.3333333,0,0,-1.3333333,0,680.32)">
    <g
       id="g10"
       transform="scale(0.1)">
      <path
         d="M 5102.36,0 H 0 V 5102.36 H 5102.36 V 0"
         style="fill:#3880c5;fill-opacity:1;fill-rule:nonzero;stroke:none"
         id="path12" />
      <path
         d="m 3834.14,3558.59 v -1592.4 c -16.97,3.99 -33.97,7.82 -51.03,11.49 -191.57,41.19 -387.84,61.94 -587.28,61.94 -207.94,0 -412.44,-22.58 -611.77,-67.34 v 0 c -8.51,-1.92 -17.01,-3.88 -25.51,-5.87 -8.5,1.99 -17,3.95 -25.51,5.87 v 0 c -199.33,44.76 -403.83,67.34 -611.77,67.34 -199.44,0 -395.71,-20.75 -587.29,-61.94 -17.04,-3.67 -34.05,-7.5 -51.02,-11.49 v -0.01 0.01 1592.4 H 1155.4 V 1879.91 h 1241.67 c 28.62,-60.44 90.17,-102.24 161.48,-102.24 71.31,0 132.86,41.8 161.48,102.24 H 3961.7 v 1678.68 h -127.56"
         style="fill:#ffffff;fill-opacity:1;fill-rule:nonzero;stroke:none"
         id="path24" />
      <path
         d="m 1921.27,3673.15 c -199.44,0 -395.71,-20.75 -587.29,-61.94 V 2029.66 c 5.54,1.16 11.07,2.31 16.61,3.45 186.56,38.17 378.56,57.53 570.68,57.53 192.12,0 384.12,-19.36 570.68,-57.53 13.71,-2.81 27.41,-5.73 41.09,-8.74 v 0 1581.44 0 c -199.33,44.77 -403.83,67.34 -611.77,67.34"
         style="fill:#ffffff;fill-opacity:1;fill-rule:nonzero;stroke:none"
         id="path26" />
      <path
         d="M 2584.06,3605.81 V 2024.37 c 13.68,3.01 27.38,5.93 41.09,8.74 186.56,38.17 378.56,57.53 570.68,57.53 192.12,0 384.13,-19.36 570.68,-57.53 5.54,-1.14 11.08,-2.29 16.6,-3.45 v 1581.55 c -191.57,41.19 -387.84,61.94 -587.28,61.94 -207.94,0 -412.44,-22.57 -611.77,-67.34"
         style="fill:#ffffff;fill-opacity:1;fill-rule:nonzero;stroke:none"
         id="path28" />
      <path
         d="m 1282.96,1966.18 v 0.01"
         style="fill:none;stroke:#3983c7;stroke-width:7.5;stroke-linecap:round;stroke-linejoin:round;stroke-miterlimit:4;stroke-dasharray:none;stroke-opacity:1"
         id="path30" />
    </g>
  </g>
</svg>
