<?xml version="1.0" encoding="UTF-8" standalone="no"?>
<!-- Created with Inkscape (http://www.inkscape.org/) -->

<svg
   version="1.1"
   id="svg2"
   width="680.32001"
   height="680.32001"
   viewBox="0 0 680.32001 680.32001"
   sodipodi:docname="BOEGER_rgb.eps"
   xmlns:inkscape="http://www.inkscape.org/namespaces/inkscape"
   xmlns:sodipodi="http://sodipodi.sourceforge.net/DTD/sodipodi-0.dtd"
   xmlns="http://www.w3.org/2000/svg"
   xmlns:svg="http://www.w3.org/2000/svg">
  <defs
     id="defs6" />
  <sodipodi:namedview
     id="namedview4"
     pagecolor="#ffffff"
     bordercolor="#000000"
     borderopacity="0.25"
     inkscape:showpageshadow="2"
     inkscape:pageopacity="0.0"
     inkscape:pagecheckerboard="0"
     inkscape:deskcolor="#d1d1d1" />
  <g
     id="g8"
     inkscape:groupmode="layer"
     inkscape:label="ink_ext_XXXXXX"
     transform="matrix(1.3333333,0,0,-1.3333333,0,680.32)">
    <g
       id="g10"
       transform="scale(0.1)">
      <path
         d="M 5102.36,0 H 0 V 5102.36 H 5102.36 V 0"
         style="fill:#3880c5;fill-opacity:1;fill-rule:nonzero;stroke:none"
         id="path12" />
      <path
         d="m 1666.62,586.969 h 39.87 c 29.16,0 50.57,5.722 64.23,17.16 14.4,12.371 21.59,28.062 21.59,47.07 0,18.461 -6.92,33.961 -20.76,46.52 -13.47,12.363 -37.56,18.543 -72.26,18.543 h -32.67 z m 0,183.281 h 20.21 c 23.99,0 41.57,5.301 52.74,15.922 11.17,10.609 16.75,26.25 16.75,46.93 0,20.117 -5.72,35.386 -17.16,45.82 -11.45,10.418 -28.06,15.637 -49.83,15.637 h -22.71 z m -64.51,-243.91 v 427.461 h 64.23 c 28.61,0 51.4,-2.211 68.39,-6.641 17.16,-4.43 31.65,-11.898 43.46,-22.422 12,-10.898 21.5,-24.457 28.52,-40.699 7.2,-16.43 10.8,-33.039 10.8,-49.84 0,-30.629 -11.72,-56.57 -35.16,-77.789 22.7,-7.762 40.6,-21.32 53.71,-40.699 13.29,-19.191 19.93,-41.531 19.93,-67 0,-33.41 -11.82,-61.652 -35.44,-84.711 -14.21,-14.219 -30.17,-24.102 -47.89,-29.629 -19.38,-5.351 -43.66,-8.031 -72.82,-8.031 h -97.73"
         style="fill:#ffffff;fill-opacity:1;fill-rule:nonzero;stroke:none"
         id="path14" />
      <path
         d="m 2268.78,838.359 -222.31,-226.75 c 31.19,-21.589 63.3,-32.39 96.34,-32.39 43.56,0 80.66,15.601 111.3,46.793 30.64,31.187 45.96,69.218 45.96,114.058 0,35.25 -10.43,68.02 -31.29,98.289 z m -37.1,35.993 c -26.76,17.898 -56.2,26.847 -88.31,26.847 -45.59,0 -83.61,-15.59 -114.07,-46.777 -30.27,-31.383 -45.4,-70.332 -45.4,-116.84 0,-30.453 8.95,-60.184 26.85,-89.152 z m 45.13,42.628 46.24,47.071 37.1,-36.821 -45.69,-46.789 c 33.78,-42.082 50.67,-89.25 50.67,-141.472 0,-60.547 -21.87,-112.41 -65.62,-155.598 -43.74,-43.18 -96.25,-64.781 -157.53,-64.781 -51.13,0 -98.28,16.332 -141.47,49 l -45.96,-45.68 -35.43,36.27 44.57,45.949 c -29.9,39.883 -44.85,84.633 -44.85,134.281 0,63.86 22.6,117.301 67.82,160.301 44.3,42.078 96.63,63.129 156.98,63.129 47.99,0 92.38,-14.949 133.17,-44.86"
         style="fill:#ffffff;fill-opacity:1;fill-rule:nonzero;stroke:none"
         id="path16" />
      <path
         d="m 2673.27,748.93 h 176.63 v -14.11 c 0,-32.121 -3.78,-60.55 -11.35,-85.281 -7.38,-22.891 -19.84,-44.289 -37.37,-64.23 -39.69,-44.661 -90.16,-67 -151.44,-67 -59.8,0 -111.02,21.589 -153.66,64.793 -42.63,43.367 -63.95,95.418 -63.95,156.136 0,62.024 21.68,114.621 65.06,157.813 43.37,43.371 96.16,65.058 158.37,65.058 33.39,0 64.6,-6.8 93.57,-20.39 27.69,-13.598 54.91,-35.688 81.67,-66.27 l -45.96,-44.008 c -35.07,46.688 -77.79,70.039 -128.18,70.039 -45.23,0 -83.15,-15.601 -113.79,-46.789 -30.64,-30.64 -45.96,-69.031 -45.96,-115.171 0,-47.622 17.07,-86.84 51.22,-117.661 31.93,-28.621 66.54,-42.91 103.82,-42.91 31.74,0 60.27,10.672 85.55,32.031 25.28,21.532 39.4,47.309 42.36,77.321 h -106.59 v 60.629"
         style="fill:#ffffff;fill-opacity:1;fill-rule:nonzero;stroke:none"
         id="path18" />
      <path
         d="M 3163.3,893.18 H 2991.93 V 790.461 h 166.39 V 729.832 H 2991.93 V 586.969 H 3163.3 V 526.34 H 2927.42 V 953.801 H 3163.3 V 893.18"
         style="fill:#ffffff;fill-opacity:1;fill-rule:nonzero;stroke:none"
         id="path20" />
      <path
         d="m 3307.13,757.512 h 20.49 c 61.08,0 91.64,23.347 91.64,70.047 0,43.742 -29.72,65.621 -89.15,65.621 h -22.98 z m 80.29,-49 132.34,-182.172 h -78.91 l -122.09,174.969 h -11.63 V 526.34 h -64.5 v 427.461 h 75.57 c 56.48,0 97.27,-10.61 122.38,-31.832 27.68,-23.629 41.52,-54.821 41.52,-93.578 0,-30.27 -8.67,-56.301 -26.03,-78.082 -17.34,-21.77 -40.23,-35.707 -68.65,-41.797"
         style="fill:#ffffff;fill-opacity:1;fill-rule:nonzero;stroke:none"
         id="path22" />
      <path
         d="m 3834.14,3558.59 v -1592.4 c -16.97,3.99 -33.97,7.82 -51.03,11.49 -191.57,41.19 -387.84,61.94 -587.28,61.94 -207.94,0 -412.44,-22.58 -611.77,-67.34 v 0 c -8.51,-1.92 -17.01,-3.88 -25.51,-5.87 -8.5,1.99 -17,3.95 -25.51,5.87 v 0 c -199.33,44.76 -403.83,67.34 -611.77,67.34 -199.44,0 -395.71,-20.75 -587.29,-61.94 -17.04,-3.67 -34.05,-7.5 -51.02,-11.49 v -0.01 0.01 1592.4 H 1155.4 V 1879.91 h 1241.67 c 28.62,-60.44 90.17,-102.24 161.48,-102.24 71.31,0 132.86,41.8 161.48,102.24 H 3961.7 v 1678.68 h -127.56"
         style="fill:#ffffff;fill-opacity:1;fill-rule:nonzero;stroke:none"
         id="path24" />
      <path
         d="m 1921.27,3673.15 c -199.44,0 -395.71,-20.75 -587.29,-61.94 V 2029.66 c 5.54,1.16 11.07,2.31 16.61,3.45 186.56,38.17 378.56,57.53 570.68,57.53 192.12,0 384.12,-19.36 570.68,-57.53 13.71,-2.81 27.41,-5.73 41.09,-8.74 v 0 1581.44 0 c -199.33,44.77 -403.83,67.34 -611.77,67.34"
         style="fill:#ffffff;fill-opacity:1;fill-rule:nonzero;stroke:none"
         id="path26" />
      <path
         d="M 2584.06,3605.81 V 2024.37 c 13.68,3.01 27.38,5.93 41.09,8.74 186.56,38.17 378.56,57.53 570.68,57.53 192.12,0 384.13,-19.36 570.68,-57.53 5.54,-1.14 11.08,-2.29 16.6,-3.45 v 1581.55 c -191.57,41.19 -387.84,61.94 -587.28,61.94 -207.94,0 -412.44,-22.57 -611.77,-67.34"
         style="fill:#ffffff;fill-opacity:1;fill-rule:nonzero;stroke:none"
         id="path28" />
      <path
         d="m 1282.96,1966.18 v 0.01"
         style="fill:none;stroke:#3983c7;stroke-width:7.5;stroke-linecap:round;stroke-linejoin:round;stroke-miterlimit:4;stroke-dasharray:none;stroke-opacity:1"
         id="path30" />
    </g>
  </g>
</svg>
