<?xml version="1.0" encoding="UTF-8" standalone="no"?>
<!-- Created with Inkscape (http://www.inkscape.org/) -->

<svg
   version="1.1"
   id="svg2"
   width="680.32001"
   height="680.32001"
   viewBox="0 0 680.32001 680.32001"
   sodipodi:docname="BRANDSLUKKERE_rgb.eps"
   xmlns:inkscape="http://www.inkscape.org/namespaces/inkscape"
   xmlns:sodipodi="http://sodipodi.sourceforge.net/DTD/sodipodi-0.dtd"
   xmlns="http://www.w3.org/2000/svg"
   xmlns:svg="http://www.w3.org/2000/svg">
  <defs
     id="defs6" />
  <sodipodi:namedview
     id="namedview4"
     pagecolor="#ffffff"
     bordercolor="#000000"
     borderopacity="0.25"
     inkscape:showpageshadow="2"
     inkscape:pageopacity="0.0"
     inkscape:pagecheckerboard="0"
     inkscape:deskcolor="#d1d1d1" />
  <g
     id="g8"
     inkscape:groupmode="layer"
     inkscape:label="ink_ext_XXXXXX"
     transform="matrix(1.3333333,0,0,-1.3333333,0,680.32)">
    <g
       id="g10"
       transform="scale(0.1)">
      <path
         d="M 5102.36,0 H 0 V 5102.36 H 5102.36 V 0"
         style="fill:#ea1d2c;fill-opacity:1;fill-rule:nonzero;stroke:none"
         id="path12" />
      <path
         d="m 3589.45,1307.14 h 123.48 v -60.6 h -123.48 v 60.6"
         style="fill:#ffffff;fill-opacity:1;fill-rule:nonzero;stroke:none"
         id="path14" />
      <path
         d="m 1663.24,1133.51 h 39.87 c 29.16,0 50.57,5.71 64.22,17.16 14.4,12.36 21.6,28.06 21.6,47.07 0,18.46 -6.92,33.96 -20.77,46.51 -13.47,12.37 -37.55,18.55 -72.25,18.55 h -32.67 z m 0,183.27 h 20.21 c 23.99,0 41.57,5.31 52.74,15.93 11.16,10.61 16.75,26.25 16.75,46.93 0,20.11 -5.72,35.39 -17.16,45.82 -11.45,10.42 -28.07,15.63 -49.84,15.63 h -22.7 z m -64.51,-243.9 v 427.46 h 64.23 c 28.61,0 51.4,-2.21 68.38,-6.64 17.17,-4.44 31.66,-11.91 43.47,-22.42 12,-10.9 21.5,-24.47 28.52,-40.71 7.2,-16.42 10.8,-33.03 10.8,-49.83 0,-30.64 -11.73,-56.57 -35.17,-77.79 22.71,-7.76 40.61,-21.32 53.72,-40.71 13.28,-19.19 19.93,-41.52 19.93,-66.99 0,-33.41 -11.82,-61.65 -35.44,-84.72 -14.22,-14.22 -30.18,-24.09 -47.9,-29.63 -19.38,-5.35 -43.65,-8.02 -72.81,-8.02 h -97.73"
         style="fill:#ffffff;fill-opacity:1;fill-rule:nonzero;stroke:none"
         id="path16" />
      <path
         d="M 1998.51,1304.05 H 2019 c 61.09,0 91.63,23.35 91.63,70.05 0,43.74 -29.71,65.61 -89.14,65.61 h -22.98 z m 80.29,-49 132.33,-182.17 h -78.9 l -122.09,174.97 h -11.63 V 1072.88 H 1934 v 427.46 h 75.59 c 56.47,0 97.26,-10.62 122.36,-31.84 27.69,-23.62 41.53,-54.81 41.53,-93.57 0,-30.28 -8.68,-56.3 -26.02,-78.08 -17.35,-21.78 -40.24,-35.71 -68.66,-41.8"
         style="fill:#ffffff;fill-opacity:1;fill-rule:nonzero;stroke:none"
         id="path18" />
      <path
         d="m 2525.38,1237.33 -63.41,145.35 -66.44,-145.35 z m 26.29,-60.63 h -183 l -47.62,-103.82 h -69.49 l 211.52,454.31 204.05,-454.31 h -70.61 l -44.85,103.82"
         style="fill:#ffffff;fill-opacity:1;fill-rule:nonzero;stroke:none"
         id="path20" />
      <path
         d="m 2729.56,1072.88 v 456.53 l 311.74,-326.13 v 297.06 h 64.5 v -453.49 l -311.74,325.3 v -299.27 h -64.5"
         style="fill:#ffffff;fill-opacity:1;fill-rule:nonzero;stroke:none"
         id="path22" />
      <path
         d="m 3247.55,1133.51 h 29.06 c 28.99,0 53.07,3.04 72.27,9.13 19.19,6.47 36.54,16.7 52.05,30.74 31.74,28.97 47.61,66.71 47.61,113.23 0,46.88 -15.69,84.9 -47.07,114.06 -28.23,26.03 -69.85,39.04 -124.86,39.04 h -29.06 z m -64.51,-60.63 v 427.46 h 89.7 c 43,0 76.97,-4.25 101.89,-12.74 26.76,-8.3 51.02,-22.42 72.81,-42.35 44.1,-40.24 66.16,-93.12 66.16,-158.64 0,-65.71 -22.97,-118.87 -68.93,-159.47 -23.08,-20.31 -47.26,-34.43 -72.54,-42.36 -23.62,-7.94 -57.12,-11.9 -100.5,-11.9 h -88.59"
         style="fill:#ffffff;fill-opacity:1;fill-rule:nonzero;stroke:none"
         id="path24" />
      <path
         d="m 1496.91,898.762 -52.32,-31.012 c -9.79,16.969 -19.11,28.051 -27.96,33.219 -9.24,5.902 -21.14,8.863 -35.72,8.863 -17.9,0 -32.76,-5.082 -44.57,-15.242 -11.82,-9.969 -17.72,-22.531 -17.72,-37.68 0,-20.871 15.5,-37.68 46.51,-50.422 l 42.64,-17.449 c 34.7,-14.039 60.07,-31.168 76.13,-51.398 16.06,-20.231 24.09,-45.032 24.09,-74.391 0,-39.34 -13.11,-71.852 -39.31,-97.52 -26.4,-25.859 -59.16,-38.789 -98.29,-38.789 -37.1,0 -67.74,11.028 -91.91,33.098 -23.82,22.039 -38.68,53 -44.58,92.871 l 65.34,14.391 c 2.95,-25.102 8.12,-42.449 15.5,-52.039 13.29,-18.473 32.67,-27.692 58.14,-27.692 20.12,0 36.82,6.731 50.11,20.192 13.29,13.468 19.93,30.527 19.93,51.187 0,8.289 -1.15,15.903 -3.45,22.821 -2.31,6.921 -5.92,13.289 -10.8,19.101 -4.9,5.801 -11.21,11.25 -18.97,16.309 -7.75,5.07 -16.98,9.922 -27.68,14.531 l -41.25,17.148 c -58.51,24.711 -87.77,60.86 -87.77,108.45 0,32.089 12.28,58.929 36.82,80.511 24.55,21.758 55.1,32.649 91.64,32.649 49.29,0 87.77,-23.91 115.45,-71.707"
         style="fill:#ffffff;fill-opacity:1;fill-rule:nonzero;stroke:none"
         id="path26" />
      <path
         d="M 1643.09,962.148 V 595.32 h 125.69 v -60.629 h -190.2 v 427.457 h 64.51"
         style="fill:#ffffff;fill-opacity:1;fill-rule:nonzero;stroke:none"
         id="path28" />
      <path
         d="M 1897.67,962.148 V 704.871 c 0,-36.699 5.99,-63.539 17.99,-80.512 17.9,-24.527 43.1,-36.789 75.58,-36.789 32.67,0 57.95,12.262 75.86,36.789 12,16.422 18,43.25 18,80.512 v 257.277 h 64.5 V 686.961 c 0,-45.039 -14.02,-82.129 -42.08,-111.289 -31.56,-32.492 -70.32,-48.731 -116.28,-48.731 -45.96,0 -84.62,16.239 -116,48.731 -28.06,29.16 -42.08,66.25 -42.08,111.289 v 275.187 h 64.51"
         style="fill:#ffffff;fill-opacity:1;fill-rule:nonzero;stroke:none"
         id="path30" />
      <path
         d="m 2294.95,791.621 166.39,170.527 h 86.1 l -193.25,-193.507 194.36,-233.95 h -86.38 l -153.94,190.2 -13.28,-13.289 V 534.691 h -64.51 v 427.457 h 64.51 V 791.621"
         style="fill:#ffffff;fill-opacity:1;fill-rule:nonzero;stroke:none"
         id="path32" />
      <path
         d="m 2670.63,791.621 166.4,170.527 h 86.1 l -193.25,-193.507 194.36,-233.95 h -86.38 l -153.93,190.2 -13.3,-13.289 V 534.691 h -64.5 v 427.457 h 64.5 V 791.621"
         style="fill:#ffffff;fill-opacity:1;fill-rule:nonzero;stroke:none"
         id="path34" />
      <path
         d="M 3217.71,901.531 H 3046.33 V 798.809 h 166.39 V 738.18 H 3046.33 V 595.32 h 171.38 v -60.629 h -235.88 v 427.457 h 235.88 v -60.617"
         style="fill:#ffffff;fill-opacity:1;fill-rule:nonzero;stroke:none"
         id="path36" />
      <path
         d="m 3361.53,765.871 h 20.48 c 61.1,0 91.64,23.348 91.64,70.039 0,43.738 -29.71,65.621 -89.14,65.621 h -22.98 z m 80.29,-49.012 132.33,-182.168 h -78.9 l -122.1,174.969 h -11.62 V 534.691 h -64.51 v 427.457 h 75.59 c 56.47,0 97.26,-10.609 122.36,-31.828 27.69,-23.629 41.53,-54.82 41.53,-93.582 0,-30.269 -8.68,-56.289 -26.02,-78.066 -17.35,-21.781 -40.25,-35.711 -68.66,-41.813"
         style="fill:#ffffff;fill-opacity:1;fill-rule:nonzero;stroke:none"
         id="path38" />
      <path
         d="M 3870.66,901.531 H 3699.29 V 798.809 h 166.39 V 738.18 H 3699.29 V 595.32 h 171.37 v -60.629 h -235.87 v 427.457 h 235.87 v -60.617"
         style="fill:#ffffff;fill-opacity:1;fill-rule:nonzero;stroke:none"
         id="path40" />
      <path
         d="m 1654.55,1953.04 321.2,-36.29 -0.55,786.74 h -102.01 l -218.64,-750.45"
         style="fill:#ffffff;fill-opacity:1;fill-rule:nonzero;stroke:none"
         id="path42" />
      <path
         d="m 3255.55,4028.1 v 102.07 h -510.98 c -54.59,0 -69.8,12.15 -81.88,34.53 -14.46,26.77 -0.01,61.08 34.29,82.52 27.68,17.3 456.26,248.85 456.26,248.85 l -48.39,89.98 -472.39,-254.9 c -6.59,-3.87 -12.09,-8.2 -17.45,-11.66 -53.55,-34.28 -198.94,-158.08 -199.12,-158.26 l 0.02,-84.39 h -174.19 c -77.76,0 -147.72,-7.83 -207.91,-23.25 -66.28,-16.99 -123.19,-43.79 -169.15,-79.65 -99.94,-78 -150.61,-199.3 -150.61,-360.55 0,-133.3 32.9,-230.6 67.74,-333.61 42.97,-127.05 91.61,-270.96 92.23,-525.27 h 102.05 c -0.62,271.09 -52.12,423.46 -97.61,557.96 -33.46,98.95 -62.36,184.42 -62.36,300.92 0,130 36.42,221.63 111.34,280.1 69.13,53.95 174.87,81.3 314.28,81.3 h 174.2 l 0.02,-86 C 2222.88,3845.05 2081.73,3710.33 2079.53,3550.4 V 1785.22 h 943.93 V 3550.4 c -2.27,164.44 -151.43,302.25 -352.87,341.89 v 135.81 h 584.96"
         style="fill:#ffffff;fill-opacity:1;fill-rule:nonzero;stroke:none"
         id="path44" />
    </g>
  </g>
</svg>
