<?xml version="1.0" encoding="UTF-8" standalone="no"?>
<!-- Created with Inkscape (http://www.inkscape.org/) -->

<svg
   version="1.1"
   id="svg2"
   width="680.32001"
   height="680.32001"
   viewBox="0 0 680.32001 680.32001"
   sodipodi:docname="CD_&amp;_DVD_rgb.icon.svg"
   inkscape:version="1.3.2 (091e20e, 2023-11-25, custom)"
   xmlns:inkscape="http://www.inkscape.org/namespaces/inkscape"
   xmlns:sodipodi="http://sodipodi.sourceforge.net/DTD/sodipodi-0.dtd"
   xmlns="http://www.w3.org/2000/svg"
   xmlns:svg="http://www.w3.org/2000/svg">
  <defs
     id="defs6" />
  <sodipodi:namedview
     id="namedview4"
     pagecolor="#ffffff"
     bordercolor="#000000"
     borderopacity="0.25"
     inkscape:showpageshadow="2"
     inkscape:pageopacity="0.0"
     inkscape:pagecheckerboard="0"
     inkscape:deskcolor="#d1d1d1"
     inkscape:zoom="1.6859713"
     inkscape:cx="340.16"
     inkscape:cy="340.16"
     inkscape:window-width="2560"
     inkscape:window-height="1361"
     inkscape:window-x="2551"
     inkscape:window-y="-9"
     inkscape:window-maximized="1"
     inkscape:current-layer="g8" />
  <g
     id="g8"
     inkscape:groupmode="layer"
     inkscape:label="ink_ext_XXXXXX"
     transform="matrix(1.3333333,0,0,-1.3333333,0,680.32)">
    <g
       id="g10"
       transform="scale(0.1)">
      <path
         d="M 5102.36,0 H 0 V 5102.36 H 5102.36 V 0"
         style="fill:#8d1c90;fill-opacity:1;fill-rule:nonzero;stroke:none"
         id="path12" />
      <path
         d="m 2908.13,2807.32 c 0,-197.26 -159.9,-357.16 -357.16,-357.16 -27.29,0 -53.86,3.07 -79.39,8.86 L 2334.83,1861.2 c -54.94,12.52 -108.74,29.88 -161.11,52.03 -23.77,10.06 -47.19,21.13 -70.17,33.1 l 282.96,543.89 c -12.49,6.48 -24.55,13.68 -36.12,21.55 l -344.94,-506.68 c -49.99,34.1 -97.04,73.07 -139.89,115.93 -43.88,43.87 -83.72,92.16 -118.41,143.5 -23.57,34.89 -44.89,71.41 -63.72,109.06 l 548.24,273.57 c -24.21,48.18 -37.86,102.58 -37.86,160.17 0,197.26 159.9,357.17 357.16,357.17 27.48,0 54.22,-3.11 79.92,-8.99 l 136.4,596.34 c 54.95,-12.52 108.74,-29.89 161.11,-52.03 23.78,-10.06 47.2,-21.12 70.17,-33.11 l -282.33,-542.69 c 12.51,-6.54 24.59,-13.8 36.17,-21.73 l 344.27,505.67 c 49.99,-34.11 97.04,-73.08 139.88,-115.93 43.89,-43.88 83.73,-92.17 118.42,-143.51 23.56,-34.89 44.88,-71.4 63.72,-109.06 l -547.75,-273.32 c 23.79,-47.83 37.18,-101.75 37.18,-158.81 z m -357.07,1019.67 c -563.59,0 -1020.47,-456.88 -1020.47,-1020.47 0,-563.59 456.88,-1020.47 1020.47,-1020.47 563.6,0 1020.47,456.88 1020.47,1020.47 0,563.59 -456.87,1020.47 -1020.47,1020.47"
         style="fill:#ffffff;fill-opacity:1;fill-rule:nonzero;stroke:none"
         id="path26" />
      <path
         d="m 2551.16,2678.15 c -70.45,0 -127.56,57.11 -127.56,127.56 0,70.45 57.11,127.56 127.56,127.56 70.44,0 127.55,-57.11 127.55,-127.56 0,-70.45 -57.11,-127.56 -127.55,-127.56 z m -0.1,434.51 c -81.77,0 -158.65,-31.84 -216.47,-89.67 -57.82,-57.82 -89.67,-134.7 -89.67,-216.47 0,-81.77 31.85,-158.65 89.67,-216.48 57.82,-57.82 134.7,-89.66 216.47,-89.66 81.78,0 158.66,31.84 216.48,89.66 57.82,57.83 89.67,134.71 89.67,216.48 0,81.77 -31.85,158.65 -89.67,216.47 -57.82,57.83 -134.7,89.67 -216.48,89.67"
         style="fill:#ffffff;fill-opacity:1;fill-rule:nonzero;stroke:none"
         id="path28" />
    </g>
  </g>
</svg>
