<?xml version="1.0" encoding="UTF-8" standalone="no"?>
<!-- Created with Inkscape (http://www.inkscape.org/) -->

<svg
   version="1.1"
   id="svg2"
   width="680.32001"
   height="680.32001"
   viewBox="0 0 680.32001 680.32001"
   sodipodi:docname="CD_&amp;_DVD_rgb.eps"
   xmlns:inkscape="http://www.inkscape.org/namespaces/inkscape"
   xmlns:sodipodi="http://sodipodi.sourceforge.net/DTD/sodipodi-0.dtd"
   xmlns="http://www.w3.org/2000/svg"
   xmlns:svg="http://www.w3.org/2000/svg">
  <defs
     id="defs6" />
  <sodipodi:namedview
     id="namedview4"
     pagecolor="#ffffff"
     bordercolor="#000000"
     borderopacity="0.25"
     inkscape:showpageshadow="2"
     inkscape:pageopacity="0.0"
     inkscape:pagecheckerboard="0"
     inkscape:deskcolor="#d1d1d1" />
  <g
     id="g8"
     inkscape:groupmode="layer"
     inkscape:label="ink_ext_XXXXXX"
     transform="matrix(1.3333333,0,0,-1.3333333,0,680.32)">
    <g
       id="g10"
       transform="scale(0.1)">
      <path
         d="M 5102.36,0 H 0 V 5102.36 H 5102.36 V 0"
         style="fill:#8d1c90;fill-opacity:1;fill-rule:nonzero;stroke:none"
         id="path12" />
      <path
         d="m 1553.98,938.66 v -76.41 c -37.28,31.191 -75.86,46.781 -115.72,46.781 -43.93,0 -80.94,-15.781 -111.02,-47.34 -30.27,-31.382 -45.41,-69.769 -45.41,-115.171 0,-44.848 15.14,-82.688 45.41,-113.508 30.27,-30.821 67.37,-46.231 111.29,-46.231 22.71,0 41.99,3.688 57.87,11.071 8.86,3.687 18.04,8.668 27.54,14.949 9.51,6.269 19.53,13.84 30.04,22.699 v -77.789 c -36.92,-20.859 -75.68,-31.281 -116.28,-31.281 -61.09,0 -113.23,21.308 -156.42,63.941 -43,43.008 -64.5,94.867 -64.5,155.598 0,54.441 17.99,102.992 53.98,145.621 44.3,52.242 101.61,78.351 171.93,78.351 38.38,0 75.48,-10.429 111.29,-31.281"
         style="fill:#ffffff;fill-opacity:1;fill-rule:nonzero;stroke:none"
         id="path14" />
      <path
         d="m 1690.88,594.809 h 29.07 c 28.97,0 53.06,3.043 72.26,9.14 19.19,6.449 36.55,16.699 52.05,30.723 31.74,28.969 47.62,66.726 47.62,113.238 0,46.879 -15.69,84.891 -47.07,114.059 -28.23,26.031 -69.86,39.043 -124.86,39.043 h -29.07 z m -64.5,-60.637 v 427.469 h 89.7 c 43,0 76.96,-4.25 101.88,-12.731 26.76,-8.308 51.03,-22.43 72.81,-42.371 44.11,-40.23 66.17,-93.109 66.17,-158.629 0,-65.711 -22.98,-118.871 -68.94,-159.469 -23.07,-20.3 -47.25,-34.429 -72.53,-42.371 -23.63,-7.922 -57.13,-11.898 -100.5,-11.898 h -88.59"
         style="fill:#ffffff;fill-opacity:1;fill-rule:nonzero;stroke:none"
         id="path16" />
      <path
         d="m 2313.09,817.391 5.26,3.879 c 9.04,6.832 16.51,12.781 22.43,17.859 5.9,5.07 10.14,9.371 12.73,12.871 5.54,6.832 8.31,15.23 8.31,25.199 0,11.262 -3.79,20.391 -11.36,27.41 -7.57,7.012 -17.72,10.52 -30.45,10.52 -11.63,0 -21.42,-3.609 -29.35,-10.801 -7.94,-6.828 -11.9,-15.598 -11.9,-26.297 0,-12.562 4.98,-24.91 14.94,-37.101 l 16.06,-19.379 c 0.56,-0.922 1.66,-2.313 3.33,-4.16 z m -13.85,-81.672 -3.6,-2.489 c -26.39,-18.269 -44.39,-32.949 -53.98,-44.019 -9.42,-11.07 -14.12,-22.789 -14.12,-35.16 0,-17.711 7.1,-33.961 21.32,-48.731 14.76,-14.211 31.01,-21.32 48.72,-21.32 24.92,0 53.62,16.34 86.11,49.012 z m 51.22,36.269 76.97,-93.019 2.49,2.769 c 8.31,9.043 16.15,17.903 23.53,26.582 7.38,8.668 14.49,17.442 21.32,26.301 l 42.08,-43.191 c -5.17,-7.391 -11.95,-15.969 -20.35,-25.758 -8.4,-9.774 -18.41,-21.031 -30.04,-33.774 l 79.19,-97.726 h -80.29 l -42.64,52.328 c -39.13,-40.43 -79.83,-60.629 -122.09,-60.629 -37.84,0 -69.96,12.078 -96.35,36.27 -25.84,24.359 -38.76,54.437 -38.76,90.25 0,42.64 20.49,78.078 61.47,106.308 l 27.96,19.102 c 0.37,0.187 1.01,0.648 1.93,1.39 0.93,0.731 2.22,1.75 3.88,3.047 -28.24,30.082 -42.36,59.703 -42.36,88.864 0,28.796 9.42,52.238 28.24,70.328 19.2,18.082 43.93,27.14 74.2,27.14 29.34,0 53.61,-8.769 72.81,-26.308 19.2,-17.543 28.8,-39.692 28.8,-66.453 0,-18.457 -5.26,-35.161 -15.79,-50.11 -10.33,-14.949 -29.06,-32.847 -56.2,-53.711"
         style="fill:#ffffff;fill-opacity:1;fill-rule:nonzero;stroke:none"
         id="path18" />
      <path
         d="m 2832.74,594.809 h 29.08 c 28.97,0 53.05,3.043 72.25,9.14 19.2,6.449 36.54,16.699 52.05,30.723 31.74,28.969 47.62,66.726 47.62,113.238 0,46.879 -15.69,84.891 -47.06,114.059 -28.24,26.031 -69.86,39.043 -124.86,39.043 h -29.08 z m -64.51,-60.637 v 427.469 h 89.71 c 43,0 76.96,-4.25 101.88,-12.731 26.76,-8.308 51.03,-22.43 72.82,-42.371 44.11,-40.23 66.16,-93.109 66.16,-158.629 0,-65.711 -22.98,-118.871 -68.94,-159.469 -23.07,-20.3 -47.24,-34.429 -72.54,-42.371 -23.62,-7.922 -57.12,-11.898 -100.5,-11.898 h -88.59"
         style="fill:#ffffff;fill-opacity:1;fill-rule:nonzero;stroke:none"
         id="path20" />
      <path
         d="m 3180.33,961.641 118.21,-296.243 119.89,296.243 h 70.59 L 3297.16,502.059 3109.73,961.641 h 70.6"
         style="fill:#ffffff;fill-opacity:1;fill-rule:nonzero;stroke:none"
         id="path22" />
      <path
         d="m 3619.3,594.809 h 29.06 c 28.98,0 53.06,3.043 72.26,9.14 19.19,6.449 36.55,16.699 52.05,30.723 31.74,28.969 47.62,66.726 47.62,113.238 0,46.879 -15.69,84.891 -47.06,114.059 -28.24,26.031 -69.86,39.043 -124.87,39.043 h -29.06 z m -64.52,-60.637 v 427.469 h 89.71 c 43,0 76.96,-4.25 101.89,-12.731 26.75,-8.308 51.02,-22.43 72.8,-42.371 44.11,-40.23 66.17,-93.109 66.17,-158.629 0,-65.711 -22.98,-118.871 -68.94,-159.469 -23.07,-20.3 -47.25,-34.429 -72.53,-42.371 -23.63,-7.922 -57.12,-11.898 -100.5,-11.898 h -88.6"
         style="fill:#ffffff;fill-opacity:1;fill-rule:nonzero;stroke:none"
         id="path24" />
      <path
         d="m 2908.13,2807.32 c 0,-197.26 -159.9,-357.16 -357.16,-357.16 -27.29,0 -53.86,3.07 -79.39,8.86 L 2334.83,1861.2 c -54.94,12.52 -108.74,29.88 -161.11,52.03 -23.77,10.06 -47.19,21.13 -70.17,33.1 l 282.96,543.89 c -12.49,6.48 -24.55,13.68 -36.12,21.55 l -344.94,-506.68 c -49.99,34.1 -97.04,73.07 -139.89,115.93 -43.88,43.87 -83.72,92.16 -118.41,143.5 -23.57,34.89 -44.89,71.41 -63.72,109.06 l 548.24,273.57 c -24.21,48.18 -37.86,102.58 -37.86,160.17 0,197.26 159.9,357.17 357.16,357.17 27.48,0 54.22,-3.11 79.92,-8.99 l 136.4,596.34 c 54.95,-12.52 108.74,-29.89 161.11,-52.03 23.78,-10.06 47.2,-21.12 70.17,-33.11 l -282.33,-542.69 c 12.51,-6.54 24.59,-13.8 36.17,-21.73 l 344.27,505.67 c 49.99,-34.11 97.04,-73.08 139.88,-115.93 43.89,-43.88 83.73,-92.17 118.42,-143.51 23.56,-34.89 44.88,-71.4 63.72,-109.06 l -547.75,-273.32 c 23.79,-47.83 37.18,-101.75 37.18,-158.81 z m -357.07,1019.67 c -563.59,0 -1020.47,-456.88 -1020.47,-1020.47 0,-563.59 456.88,-1020.47 1020.47,-1020.47 563.6,0 1020.47,456.88 1020.47,1020.47 0,563.59 -456.87,1020.47 -1020.47,1020.47"
         style="fill:#ffffff;fill-opacity:1;fill-rule:nonzero;stroke:none"
         id="path26" />
      <path
         d="m 2551.16,2678.15 c -70.45,0 -127.56,57.11 -127.56,127.56 0,70.45 57.11,127.56 127.56,127.56 70.44,0 127.55,-57.11 127.55,-127.56 0,-70.45 -57.11,-127.56 -127.55,-127.56 z m -0.1,434.51 c -81.77,0 -158.65,-31.84 -216.47,-89.67 -57.82,-57.82 -89.67,-134.7 -89.67,-216.47 0,-81.77 31.85,-158.65 89.67,-216.48 57.82,-57.82 134.7,-89.66 216.47,-89.66 81.78,0 158.66,31.84 216.48,89.66 57.82,57.83 89.67,134.71 89.67,216.48 0,81.77 -31.85,158.65 -89.67,216.47 -57.82,57.83 -134.7,89.67 -216.48,89.67"
         style="fill:#ffffff;fill-opacity:1;fill-rule:nonzero;stroke:none"
         id="path28" />
    </g>
  </g>
</svg>
