<?xml version="1.0" encoding="UTF-8" standalone="no"?>
<!-- Created with Inkscape (http://www.inkscape.org/) -->

<svg
   version="1.1"
   id="svg2"
   width="680.32001"
   height="680.32001"
   viewBox="0 0 680.32001 680.32001"
   sodipodi:docname="CYKLER_rgb.icon.svg"
   inkscape:version="1.3.2 (091e20e, 2023-11-25, custom)"
   xmlns:inkscape="http://www.inkscape.org/namespaces/inkscape"
   xmlns:sodipodi="http://sodipodi.sourceforge.net/DTD/sodipodi-0.dtd"
   xmlns="http://www.w3.org/2000/svg"
   xmlns:svg="http://www.w3.org/2000/svg">
  <defs
     id="defs6" />
  <sodipodi:namedview
     id="namedview4"
     pagecolor="#ffffff"
     bordercolor="#000000"
     borderopacity="0.25"
     inkscape:showpageshadow="2"
     inkscape:pageopacity="0.0"
     inkscape:pagecheckerboard="0"
     inkscape:deskcolor="#d1d1d1"
     inkscape:zoom="1.6859713"
     inkscape:cx="340.16"
     inkscape:cy="340.16"
     inkscape:window-width="2560"
     inkscape:window-height="1361"
     inkscape:window-x="2551"
     inkscape:window-y="-9"
     inkscape:window-maximized="1"
     inkscape:current-layer="g8" />
  <g
     id="g8"
     inkscape:groupmode="layer"
     inkscape:label="ink_ext_XXXXXX"
     transform="matrix(1.3333333,0,0,-1.3333333,0,680.32)">
    <g
       id="g10"
       transform="scale(0.1)">
      <path
         d="M 5102.36,-0.0117188 H 0.00390625 V 5102.36 H 5102.36 V -0.0117188"
         style="fill:#76cb4d;fill-opacity:1;fill-rule:nonzero;stroke:none"
         id="path12" />
      <path
         d="m 2077.35,2283.08 c -12.03,168.25 -83.37,320.08 -193.24,434.7 l -395.81,-433.24 589.05,-1.46"
         style="fill:#ffffff;fill-opacity:1;fill-rule:nonzero;stroke:none"
         id="path26" />
      <path
         d="m 1808.35,2786.15 c -118.89,92.6 -268.38,147.78 -430.76,147.78 -387.465,0 -701.57,-314.11 -701.57,-701.57 0,-387.47 314.105,-701.58 701.57,-701.58 370.21,0 673.44,286.74 699.72,650.26 l -819.94,2.01 550.98,603.1"
         style="fill:#ffffff;fill-opacity:1;fill-rule:nonzero;stroke:none"
         id="path28" />
      <path
         d="m 3724.67,2933.93 c -80.72,0 -158.26,-13.65 -230.44,-38.74 l 305.99,-715.06 h -110.99 l -288.68,674.59 c -224.31,-117.06 -377.45,-351.83 -377.45,-622.36 0,-387.47 314.11,-701.58 701.57,-701.58 387.48,0 701.59,314.11 701.59,701.58 0,387.46 -314.11,701.57 -701.59,701.57"
         style="fill:#ffffff;fill-opacity:1;fill-rule:nonzero;stroke:none"
         id="path30" />
      <path
         d="m 2441.94,2326.02 -278.85,658.61 1083.32,230.29 1.94,-4.53 z m 752.39,1269.99 451.14,1.23 -0.28,102.04 -605.35,-1.64 165.66,-387.09 -1082.94,-230.21 -174.65,412.5 c 126.06,41.8 379.36,125.83 393.73,130.74 17.15,5.87 26.89,19.38 26.89,36.55 0,20.97 -16.88,37.98 -37.79,38.24 -0.16,0 -721.61,0.02 -721.61,0.02 0,-126.8 102.8,-229.6 229.6,-229.6 2.84,0 5.66,0.07 8.47,0.17 l 185.25,-437.52 -224.1,-245.29 c 26.89,-20.95 52.21,-43.8 75.76,-68.37 l 192.11,210.28 273.36,-645.64 -272.23,0.66 c 1.2,-16.75 1.82,-33.66 1.82,-50.72 0,-17.27 -0.64,-34.38 -1.86,-51.32 l 369.7,-0.91 845.45,927.18 108.09,-252.59 c 30.02,15.66 61.31,29.22 93.68,40.47 l -299.9,700.82"
         style="fill:#ffffff;fill-opacity:1;fill-rule:nonzero;stroke:none"
         id="path32" />
    </g>
  </g>
</svg>
