<?xml version="1.0" encoding="UTF-8" standalone="no"?>
<!-- Created with Inkscape (http://www.inkscape.org/) -->

<svg
   version="1.1"
   id="svg2"
   width="680.32001"
   height="680.32001"
   viewBox="0 0 680.32001 680.32001"
   sodipodi:docname="CYKLER_rgb.eps"
   xmlns:inkscape="http://www.inkscape.org/namespaces/inkscape"
   xmlns:sodipodi="http://sodipodi.sourceforge.net/DTD/sodipodi-0.dtd"
   xmlns="http://www.w3.org/2000/svg"
   xmlns:svg="http://www.w3.org/2000/svg">
  <defs
     id="defs6" />
  <sodipodi:namedview
     id="namedview4"
     pagecolor="#ffffff"
     bordercolor="#000000"
     borderopacity="0.25"
     inkscape:showpageshadow="2"
     inkscape:pageopacity="0.0"
     inkscape:pagecheckerboard="0"
     inkscape:deskcolor="#d1d1d1" />
  <g
     id="g8"
     inkscape:groupmode="layer"
     inkscape:label="ink_ext_XXXXXX"
     transform="matrix(1.3333333,0,0,-1.3333333,0,680.32)">
    <g
       id="g10"
       transform="scale(0.1)">
      <path
         d="M 5102.36,-0.0117188 H 0.00390625 V 5102.36 H 5102.36 V -0.0117188"
         style="fill:#76cb4d;fill-opacity:1;fill-rule:nonzero;stroke:none"
         id="path12" />
      <path
         d="m 1894.89,938.211 v -76.422 c -37.27,31.191 -75.83,46.793 -115.68,46.793 -43.91,0 -80.9,-15.781 -110.97,-47.352 -30.26,-31.371 -45.39,-69.761 -45.39,-115.16 0,-44.851 15.13,-82.699 45.39,-113.519 30.25,-30.821 67.34,-46.231 111.25,-46.231 22.69,0 41.97,3.692 57.84,11.078 8.85,3.692 18.03,8.672 27.53,14.954 9.5,6.269 19.51,13.839 30.03,22.687 V 557.25 c -36.9,-20.859 -75.65,-31.289 -116.23,-31.289 -61.07,0 -113.19,21.32 -156.36,63.961 -42.99,43 -64.48,94.867 -64.48,155.59 0,54.449 17.99,102.988 53.96,145.629 44.28,52.218 101.57,78.347 171.86,78.347 38.37,0 75.45,-10.429 111.25,-31.277"
         style="fill:#ffffff;fill-opacity:1;fill-rule:nonzero;stroke:none"
         id="path14" />
      <path
         d="m 2077.29,718.379 -139.48,242.812 h 74.16 l 97.7,-170.82 97.96,170.82 h 74.16 L 2141.76,718.379 v -184.66 h -64.47 v 184.66"
         style="fill:#ffffff;fill-opacity:1;fill-rule:nonzero;stroke:none"
         id="path16" />
      <path
         d="m 2395.45,790.641 166.31,170.55 h 86.07 L 2454.67,767.66 2648.94,533.719 h -86.35 l -153.86,190.203 -13.28,-13.293 v -176.91 h -64.48 v 427.472 h 64.48 v -170.55"
         style="fill:#ffffff;fill-opacity:1;fill-rule:nonzero;stroke:none"
         id="path18" />
      <path
         d="M 2776.38,961.191 V 594.352 h 125.65 V 533.719 H 2711.9 v 427.472 h 64.48"
         style="fill:#ffffff;fill-opacity:1;fill-rule:nonzero;stroke:none"
         id="path20" />
      <path
         d="m 3202.57,900.551 h -171.3 V 797.84 h 166.32 V 737.211 H 3031.27 V 594.352 h 171.3 v -60.633 h -235.79 v 427.472 h 235.79 v -60.64"
         style="fill:#ffffff;fill-opacity:1;fill-rule:nonzero;stroke:none"
         id="path22" />
      <path
         d="m 3331.92,764.898 h 20.48 c 61.06,0 91.6,23.34 91.6,70.043 0,43.739 -29.71,65.61 -89.11,65.61 h -22.97 z m 80.25,-49.007 132.28,-182.172 h -78.87 l -122.04,174.972 h -11.62 V 533.719 h -64.48 v 427.472 h 75.55 c 56.45,0 97.22,-10.621 122.32,-31.851 27.67,-23.621 41.5,-54.809 41.5,-93.57 0,-30.282 -8.67,-56.301 -26,-78.079 -17.35,-21.781 -40.23,-35.711 -68.64,-41.8"
         style="fill:#ffffff;fill-opacity:1;fill-rule:nonzero;stroke:none"
         id="path24" />
      <path
         d="m 2077.35,2283.08 c -12.03,168.25 -83.37,320.08 -193.24,434.7 l -395.81,-433.24 589.05,-1.46"
         style="fill:#ffffff;fill-opacity:1;fill-rule:nonzero;stroke:none"
         id="path26" />
      <path
         d="m 1808.35,2786.15 c -118.89,92.6 -268.38,147.78 -430.76,147.78 -387.465,0 -701.57,-314.11 -701.57,-701.57 0,-387.47 314.105,-701.58 701.57,-701.58 370.21,0 673.44,286.74 699.72,650.26 l -819.94,2.01 550.98,603.1"
         style="fill:#ffffff;fill-opacity:1;fill-rule:nonzero;stroke:none"
         id="path28" />
      <path
         d="m 3724.67,2933.93 c -80.72,0 -158.26,-13.65 -230.44,-38.74 l 305.99,-715.06 h -110.99 l -288.68,674.59 c -224.31,-117.06 -377.45,-351.83 -377.45,-622.36 0,-387.47 314.11,-701.58 701.57,-701.58 387.48,0 701.59,314.11 701.59,701.58 0,387.46 -314.11,701.57 -701.59,701.57"
         style="fill:#ffffff;fill-opacity:1;fill-rule:nonzero;stroke:none"
         id="path30" />
      <path
         d="m 2441.94,2326.02 -278.85,658.61 1083.32,230.29 1.94,-4.53 z m 752.39,1269.99 451.14,1.23 -0.28,102.04 -605.35,-1.64 165.66,-387.09 -1082.94,-230.21 -174.65,412.5 c 126.06,41.8 379.36,125.83 393.73,130.74 17.15,5.87 26.89,19.38 26.89,36.55 0,20.97 -16.88,37.98 -37.79,38.24 -0.16,0 -721.61,0.02 -721.61,0.02 0,-126.8 102.8,-229.6 229.6,-229.6 2.84,0 5.66,0.07 8.47,0.17 l 185.25,-437.52 -224.1,-245.29 c 26.89,-20.95 52.21,-43.8 75.76,-68.37 l 192.11,210.28 273.36,-645.64 -272.23,0.66 c 1.2,-16.75 1.82,-33.66 1.82,-50.72 0,-17.27 -0.64,-34.38 -1.86,-51.32 l 369.7,-0.91 845.45,927.18 108.09,-252.59 c 30.02,15.66 61.31,29.22 93.68,40.47 l -299.9,700.82"
         style="fill:#ffffff;fill-opacity:1;fill-rule:nonzero;stroke:none"
         id="path32" />
    </g>
  </g>
</svg>
