<?xml version="1.0" encoding="UTF-8" standalone="no"?>
<!-- Created with Inkscape (http://www.inkscape.org/) -->

<svg
   version="1.1"
   id="svg2"
   width="680.32001"
   height="680.32001"
   viewBox="0 0 680.32001 680.32001"
   sodipodi:docname="DAEK_rgb.icon.svg"
   inkscape:version="1.3.2 (091e20e, 2023-11-25, custom)"
   xmlns:inkscape="http://www.inkscape.org/namespaces/inkscape"
   xmlns:sodipodi="http://sodipodi.sourceforge.net/DTD/sodipodi-0.dtd"
   xmlns="http://www.w3.org/2000/svg"
   xmlns:svg="http://www.w3.org/2000/svg">
  <defs
     id="defs6" />
  <sodipodi:namedview
     id="namedview4"
     pagecolor="#ffffff"
     bordercolor="#000000"
     borderopacity="0.25"
     inkscape:showpageshadow="2"
     inkscape:pageopacity="0.0"
     inkscape:pagecheckerboard="0"
     inkscape:deskcolor="#d1d1d1"
     showgrid="false"
     inkscape:zoom="1.6859713"
     inkscape:cx="340.16"
     inkscape:cy="340.16"
     inkscape:window-width="2560"
     inkscape:window-height="1361"
     inkscape:window-x="2551"
     inkscape:window-y="-9"
     inkscape:window-maximized="1"
     inkscape:current-layer="g8" />
  <g
     id="g8"
     inkscape:groupmode="layer"
     inkscape:label="ink_ext_XXXXXX"
     transform="matrix(1.3333333,0,0,-1.3333333,0,680.32)">
    <g
       id="g10"
       transform="scale(0.1)">
      <path
         d="M 5102.36,0 H 0 V 5102.36 H 5102.36 V 0"
         style="fill:#8d1c90;fill-opacity:1;fill-rule:nonzero;stroke:none"
         id="path12" />
      <path
         d="m 1883.19,2350.96 c -65.48,136.51 -101.54,317.48 -101.54,509.57 0,192.08 36.06,373.05 101.54,509.56 68.18,142.15 160.93,220.43 261.15,220.43 100.22,0 192.97,-78.28 261.15,-220.43 65.48,-136.51 101.54,-317.48 101.54,-509.56 0,-192.09 -36.06,-373.06 -101.54,-509.57 -68.18,-142.15 -160.93,-220.43 -261.15,-220.43 -100.23,0 -192.97,78.28 -261.15,220.43 z m 776.63,927.95 c -28.53,126.89 -69.29,240.7 -121.16,338.27 -51.28,96.46 -110.69,171.96 -176.57,224.37 -66.44,52.86 -136.58,79.66 -208.48,79.66 -34.82,0 -69.23,-6.31 -103.01,-18.8 -135.89,-69.39 -252.81,-211.46 -334.6,-399.12 -7.75,-19.42 -15.13,-39.33 -22.15,-59.69 -17.44,-51.07 -32.57,-105.01 -45.25,-161.56 -29.6,-131.94 -44.6,-272.16 -44.6,-416.77 0,-144.6 15,-284.82 44.6,-416.76 17.28,-77.06 39.09,-149.28 65.12,-216 86.94,-202.01 214.41,-351.95 362.49,-416.5 25.91,-7.24 52.15,-10.89 78.63,-10.89 72.02,0 142.26,26.89 208.77,79.94 30.74,24.52 60.07,54.08 87.81,88.45 1.32,1.64 2.63,3.28 3.94,4.93 0.18,0.22 0.36,0.46 0.54,0.68 29.47,37.47 57.13,80.44 82.76,128.64 51.87,97.57 92.63,211.38 121.16,338.27 29.64,131.84 44.67,271.94 44.67,416.44 0,144.49 -15.03,284.61 -44.67,416.44"
         style="fill:#ffffff;fill-opacity:1;fill-rule:nonzero;stroke:none"
         id="path20" />
      <path
         d="m 2373,3325.27 c -3.55,8.15 -7.2,16.15 -10.96,23.98 -29.69,61.9 -63.96,110.23 -101.84,143.64 -37.21,32.81 -76.19,49.44 -115.86,49.44 -39.67,0 -78.65,-16.63 -115.86,-49.44 -37.89,-33.41 -72.15,-81.74 -101.84,-143.64 -62.43,-130.14 -96.8,-303.7 -96.8,-488.72 0,-185.02 34.37,-358.59 96.8,-488.73 29.69,-61.9 63.95,-110.23 101.84,-143.63 37.21,-32.82 76.19,-49.45 115.86,-49.45 39.67,0 78.65,16.63 115.86,49.45 37.88,33.4 72.15,81.73 101.84,143.63 9.86,20.56 19.02,42.22 27.47,64.83 -48.78,118.28 -79.08,283.45 -79.08,466.25 0,161.19 23.56,308.67 62.57,422.39"
         style="fill:#ffffff;fill-opacity:1;fill-rule:nonzero;stroke:none"
         id="path22" />
      <path
         d="m 2761.33,3909.46 143.28,-52.61 -15.08,-109.01 136.11,-115.19 -13.81,-126.42 108.2,-120.58 -30.71,-170.98 82.31,-119 -61.8,-195.22 64.53,-147.31 -78.24,-183.62 41.89,-144.66 -102.49,-141.59 20.95,-141.37 -113.51,-102.78 V 1927.9 l -131.69,-84.62 -3.57,-61.67 -3.38,-1.84 91.2,-0.23 60.99,33.29 3.42,59.33 130.12,83.6 v 106 l 110.06,99.65 -20,134.94 100.06,138.25 -40.01,138.19 76.73,180.07 -63.38,144.69 60.03,189.67 -80.05,115.74 30.01,167.17 -106.75,118.98 13.34,122.12 -136.84,115.8 13.3,96.1 -139.45,51.2 2.72,74.77 -27.33,0.02 -119.72,0.08 -1.44,-39.74"
         style="fill:#ffffff;fill-opacity:1;fill-rule:nonzero;stroke:none"
         id="path24" />
      <path
         d="m 2744.84,1927.9 -131.69,-84.62 -3.55,-61.67 -2.52,-1.37 91.2,-0.22 60.12,32.81 3.42,59.33 130.11,83.6 v 106 l 110.06,99.65 -20,134.94 100.08,138.25 -40.01,138.19 76.73,180.07 -63.39,144.69 60.04,189.67 -80.06,115.74 30.02,167.17 -106.76,118.98 13.33,122.12 -136.82,115.8 13.29,96.1 -139.46,51.2 2.74,74.9 -147.05,0.11 -1.46,-39.88 143.29,-52.61 -15.08,-109.01 136.11,-115.19 -13.81,-126.42 108.19,-120.58 -30.7,-170.98 82.3,-119 -61.78,-195.22 64.53,-147.31 -78.25,-183.62 41.88,-144.66 -102.49,-141.59 20.96,-141.37 -113.52,-102.78 V 1927.9"
         style="fill:#ffffff;fill-opacity:1;fill-rule:nonzero;stroke:none"
         id="path26" />
      <path
         d="m 2960.7,3944.16 -1.26,-34.7 143.28,-52.61 -15.07,-109.01 136.1,-115.19 -13.81,-126.42 108.19,-120.58 -30.7,-170.98 82.31,-119 -61.79,-195.22 64.53,-147.31 -78.25,-183.62 41.89,-144.66 -102.5,-141.59 20.96,-141.37 -113.52,-102.78 V 1927.9 l -131.69,-84.62 -2.62,-45.67 c 287.91,89.72 506.62,533.58 506.62,1067.66 0,562.22 -242.36,1024.48 -552.67,1078.89"
         style="fill:#ffffff;fill-opacity:1;fill-rule:nonzero;stroke:none"
         id="path28" />
      <path
         d="m 2530.88,1997.74 c -41.24,-61 -86.58,-111.36 -135.47,-150.35 -36.51,-29.13 -74.24,-51.27 -112.91,-66.36 l 218.54,-0.53 59.25,32.33 3.42,59.33 130.11,83.6 v 106 l 110.07,99.65 -20,134.94 100.06,138.25 -40.01,138.19 76.73,180.07 -63.39,144.69 60.04,189.67 -80.06,115.74 30.02,167.17 -106.75,118.98 13.34,122.12 -136.84,115.8 13.3,96.1 -139.46,51.2 2.74,75.04 -231.11,0.16 c 38.67,-15.1 76.4,-37.24 112.91,-66.38 48.89,-38.98 94.23,-89.35 135.47,-150.35 18.71,-27.68 36.58,-57.56 53.55,-89.56 110.4,-208.2 171.2,-484.48 171.2,-777.97 0,-293.47 -60.8,-569.76 -171.2,-777.96 -16.97,-32.01 -34.84,-61.88 -53.55,-89.57"
         style="fill:#ffffff;fill-opacity:1;fill-rule:nonzero;stroke:none"
         id="path30" />
    </g>
  </g>
</svg>
