<?xml version="1.0" encoding="UTF-8" standalone="no"?>
<!-- Created with Inkscape (http://www.inkscape.org/) -->

<svg
   version="1.1"
   id="svg2"
   width="680.32001"
   height="680.32001"
   viewBox="0 0 680.32001 680.32001"
   sodipodi:docname="DEPONI_rgb_sort.eps"
   xmlns:inkscape="http://www.inkscape.org/namespaces/inkscape"
   xmlns:sodipodi="http://sodipodi.sourceforge.net/DTD/sodipodi-0.dtd"
   xmlns="http://www.w3.org/2000/svg"
   xmlns:svg="http://www.w3.org/2000/svg">
  <defs
     id="defs6" />
  <sodipodi:namedview
     id="namedview4"
     pagecolor="#ffffff"
     bordercolor="#000000"
     borderopacity="0.25"
     inkscape:showpageshadow="2"
     inkscape:pageopacity="0.0"
     inkscape:pagecheckerboard="0"
     inkscape:deskcolor="#d1d1d1" />
  <g
     id="g8"
     inkscape:groupmode="layer"
     inkscape:label="ink_ext_XXXXXX"
     transform="matrix(1.3333333,0,0,-1.3333333,0,680.32)">
    <g
       id="g10"
       transform="scale(0.1)">
      <path
         d="M 5102.38,-0.0117188 H 0.0234375 V 5102.36 H 5102.38 V -0.0117188"
         style="fill:#111111;fill-opacity:1;fill-rule:nonzero;stroke:none"
         id="path12" />
      <path
         d="m 1585.47,594.25 h 29.07 c 28.97,0 53.06,3.039 72.26,9.129 19.19,6.473 36.54,16.703 52.05,30.742 31.74,28.969 47.61,66.707 47.61,113.231 0,46.878 -15.68,84.898 -47.06,114.058 -28.24,26.031 -69.86,39.039 -124.86,39.039 h -29.07 z m -57.31,-60.629 v 427.461 h 89.71 c 43,0 76.96,-4.254 101.88,-12.742 26.76,-8.301 51.03,-22.418 72.81,-42.352 44.11,-40.238 66.17,-93.117 66.17,-158.636 0,-65.711 -22.98,-118.872 -68.94,-159.461 -23.07,-20.321 -47.25,-34.442 -72.53,-42.371 -23.63,-7.938 -57.13,-11.899 -100.5,-11.899 h -88.6"
         style="fill:#ffffff;fill-opacity:1;fill-rule:nonzero;stroke:none"
         id="path14" />
      <path
         d="M 2164.92,900.449 H 1993.55 V 797.738 h 166.39 V 737.102 H 1993.55 V 594.25 h 171.37 v -60.629 h -235.88 v 427.461 h 235.88 v -60.633"
         style="fill:#ffffff;fill-opacity:1;fill-rule:nonzero;stroke:none"
         id="path16" />
      <path
         d="m 2306.94,767.012 h 24.09 c 59.25,0 88.87,22.789 88.87,68.379 0,44.109 -30.55,66.168 -91.64,66.168 h -21.32 z m 0,-59.813 V 533.621 h -64.5 v 427.461 h 73.09 c 35.8,0 62.84,-2.492 81.12,-7.473 18.45,-4.98 34.69,-14.398 48.72,-28.238 24.55,-24 36.82,-54.262 36.82,-90.812 0,-39.137 -13.1,-70.137 -39.31,-93.02 -26.21,-22.891 -61.56,-34.34 -106.03,-34.34 h -29.91"
         style="fill:#ffffff;fill-opacity:1;fill-rule:nonzero;stroke:none"
         id="path18" />
      <path
         d="m 2604.99,748.602 c 0,-47.223 15.87,-86.043 47.62,-116.461 31.56,-30.43 68.01,-45.641 109.35,-45.641 44.86,0 82.69,15.488 113.52,46.469 30.82,31.34 46.23,69.519 46.23,114.511 0,45.551 -15.23,83.731 -45.67,114.532 -30.28,30.976 -67.75,46.468 -112.42,46.468 -44.48,0 -82.04,-15.492 -112.67,-46.468 -30.65,-30.621 -45.96,-68.422 -45.96,-113.41 z m -65.06,0.687 c 0,60.172 22.05,111.852 66.16,155.039 43.93,43.184 96.72,64.793 158.36,64.793 60.91,0 113.15,-21.789 156.71,-65.351 43.74,-43.559 65.62,-95.879 65.62,-156.981 0,-61.449 -21.98,-113.598 -65.9,-156.41 -44.11,-43.008 -97.36,-64.52 -159.75,-64.52 -55.18,0 -104.74,19.11 -148.67,57.321 -48.36,42.25 -72.53,97.629 -72.53,166.109"
         style="fill:#ffffff;fill-opacity:1;fill-rule:nonzero;stroke:none"
         id="path20" />
      <path
         d="M 3062.49,533.621 V 990.148 L 3374.23,664.02 v 297.062 h 64.5 V 507.59 l -311.74,325.301 v -299.27 h -64.5"
         style="fill:#ffffff;fill-opacity:1;fill-rule:nonzero;stroke:none"
         id="path22" />
      <path
         d="M 3582.27,961.082 V 533.621 h -64.52 v 427.461 h 64.52"
         style="fill:#ffffff;fill-opacity:1;fill-rule:nonzero;stroke:none"
         id="path24" />
      <path
         d="M 2681.49,3056.71 V 4334.46 H 2426.38 V 3056.71 H 2043.7 l 508.83,-714.33 511.64,714.33 h -382.68"
         style="fill:#ffffff;fill-opacity:1;fill-rule:nonzero;stroke:none"
         id="path26" />
      <path
         d="m 4007.08,3314.14 c -7.06,-16.61 -217.48,-508.34 -242.5,-553.86 -49.68,-90.39 -114.87,-123.66 -183.9,-158.89 -45.32,-23.14 -92.18,-47.06 -136.08,-87.49 -50.66,-46.63 -69.31,-71.24 -199.98,-249.83 -63.25,-86.44 -88.72,-129.66 -120.97,-184.38 -19.76,-33.55 -42.17,-71.57 -77.75,-127.1 -60.27,-94.05 -119.56,-159.92 -175.13,-219.28 -87.09,-84.58 -176.39,-134.62 -265.44,-148.75 -69.87,-11.07 -140.03,-0.92 -214.48,31.03 -131.2,56.29 -241.83,175.56 -315.04,254.47 -17.49,18.86 -35.43,37.93 -52.77,56.37 -136.75,145.4 -278.15,295.74 -353.69,502.03 -25.3,69.11 -41.73,115.06 -53.73,148.61 -29.07,81.3 -29.6,82.55 -56.67,133.97 l -0.08,0.16 c -26.17,49.71 -92.26,99.81 -156.17,148.26 -35.91,27.22 -69.82,52.93 -93.19,75.96 -53.97,53.21 -131.23,191.75 -199.72,327.7 -8.62,17.11 -17.1,34.17 -25.38,51.02 H 0.0546875 L 0,3263.12 h 1052.62 c 74.22,-148.95 159.63,-303.46 221.07,-364.03 25.73,-25.37 60.92,-52.04 98.18,-80.29 56.7,-42.98 120.96,-91.7 141.85,-131.37 l 0.08,-0.16 c 25.65,-48.71 25.65,-48.71 53.78,-127.38 12.02,-33.63 28.49,-79.68 53.86,-148.97 79.13,-216.09 224.17,-370.31 364.43,-519.45 17.28,-18.37 35.16,-37.37 52.53,-56.1 76.14,-82.07 191.19,-206.12 332.33,-266.67 61.59,-26.43 120.89,-39.52 179.7,-39.52 21,0 41.93,1.67 62.89,4.99 99.8,15.82 198.54,70.66 293.45,162.98 l 0.84,0.85 c 57.3,61.2 118.5,129.14 181.25,227.05 36.1,56.34 58.77,94.81 78.76,128.73 31.52,53.51 56.42,95.77 118.17,180.16 128.07,175.02 146.24,199.04 193.37,242.42 38.76,35.7 80.52,57.01 124.72,79.58 72.85,37.18 148.18,75.63 205.41,179.76 26.85,48.84 141.42,315.35 231.57,527.42 h 1061.5 l 0.06,51.02 H 4007.08"
         style="fill:#ffffff;fill-opacity:1;fill-rule:nonzero;stroke:none"
         id="path28" />
    </g>
  </g>
</svg>
