<?xml version="1.0" encoding="UTF-8" standalone="no"?>
<!-- Created with Inkscape (http://www.inkscape.org/) -->

<svg
   version="1.1"
   id="svg2"
   width="680.32001"
   height="680.32001"
   viewBox="0 0 680.32001 680.32001"
   sodipodi:docname="DRIKKEDAASER_rgb.icon.svg"
   inkscape:version="1.3.2 (091e20e, 2023-11-25, custom)"
   xmlns:inkscape="http://www.inkscape.org/namespaces/inkscape"
   xmlns:sodipodi="http://sodipodi.sourceforge.net/DTD/sodipodi-0.dtd"
   xmlns="http://www.w3.org/2000/svg"
   xmlns:svg="http://www.w3.org/2000/svg">
  <defs
     id="defs6" />
  <sodipodi:namedview
     id="namedview4"
     pagecolor="#ffffff"
     bordercolor="#000000"
     borderopacity="0.25"
     inkscape:showpageshadow="2"
     inkscape:pageopacity="0.0"
     inkscape:pagecheckerboard="0"
     inkscape:deskcolor="#d1d1d1"
     inkscape:zoom="1.6859713"
     inkscape:cx="340.16"
     inkscape:cy="340.16"
     inkscape:window-width="2560"
     inkscape:window-height="1361"
     inkscape:window-x="2551"
     inkscape:window-y="-9"
     inkscape:window-maximized="1"
     inkscape:current-layer="g8" />
  <g
     id="g8"
     inkscape:groupmode="layer"
     inkscape:label="ink_ext_XXXXXX"
     transform="matrix(1.3333333,0,0,-1.3333333,0,680.32)">
    <g
       id="g10"
       transform="scale(0.1)">
      <path
         d="M 5102.36,-0.0117188 H 0.00390625 V 5102.36 H 5102.36 V -0.0117188"
         style="fill:#4f6570;fill-opacity:1;fill-rule:nonzero;stroke:none"
         id="path12" />
      <path
         d="m 2841.03,3824.38 c -20.11,-36.49 -66.4,-60.47 -103.41,-53.57 -37,6.89 -50.48,41.95 -30.59,78.54 21.82,40.13 66.4,60.47 103.41,53.57 37,-6.89 50.7,-42.06 30.59,-78.54 z m -2.13,131.18 c -69.05,11.45 -144.62,-13.29 -193.72,-96.42 L 2557.5,3716.5 h 285.13 l 55.06,89.97 c 7.67,14.08 12.14,27.95 14.69,41.41 9.88,47.58 -18.64,98.6 -73.48,107.68"
         style="fill:#ffffff;fill-opacity:1;fill-rule:nonzero;stroke:none"
         id="path36" />
      <path
         d="m 2137.02,1787.21 h 832.75 l 94.67,107.42 H 2042.36 l 94.66,-107.42"
         style="fill:#ffffff;fill-opacity:1;fill-rule:nonzero;stroke:none"
         id="path38" />
      <path
         d="m 3088.42,1972.57 c 1.63,30.38 0,1326.87 0,1366.8 0,86.6 -101.14,210.63 -117.7,249.57 v 78.1 h -834.64 v -78.1 c -16.57,-38.94 -117.71,-162.97 -117.71,-249.57 0,-39.93 -1.62,-1336.42 0,-1366.8 0,-9.56 1.4,-18.54 3.89,-27.03 h 1062.28 c 2.49,8.49 3.88,17.47 3.88,27.03"
         style="fill:#ffffff;fill-opacity:1;fill-rule:nonzero;stroke:none"
         id="path40" />
    </g>
  </g>
</svg>
