<?xml version="1.0" encoding="UTF-8" standalone="no"?>
<!-- Created with Inkscape (http://www.inkscape.org/) -->

<svg
   version="1.1"
   id="svg2"
   width="680.32001"
   height="680.32001"
   viewBox="0 0 680.32001 680.32001"
   sodipodi:docname="DRIKKEDAASER_rgb.eps"
   xmlns:inkscape="http://www.inkscape.org/namespaces/inkscape"
   xmlns:sodipodi="http://sodipodi.sourceforge.net/DTD/sodipodi-0.dtd"
   xmlns="http://www.w3.org/2000/svg"
   xmlns:svg="http://www.w3.org/2000/svg">
  <defs
     id="defs6" />
  <sodipodi:namedview
     id="namedview4"
     pagecolor="#ffffff"
     bordercolor="#000000"
     borderopacity="0.25"
     inkscape:showpageshadow="2"
     inkscape:pageopacity="0.0"
     inkscape:pagecheckerboard="0"
     inkscape:deskcolor="#d1d1d1" />
  <g
     id="g8"
     inkscape:groupmode="layer"
     inkscape:label="ink_ext_XXXXXX"
     transform="matrix(1.3333333,0,0,-1.3333333,0,680.32)">
    <g
       id="g10"
       transform="scale(0.1)">
      <path
         d="M 5102.36,-0.0117188 H 0.00390625 V 5102.36 H 5102.36 V -0.0117188"
         style="fill:#4f6570;fill-opacity:1;fill-rule:nonzero;stroke:none"
         id="path12" />
      <path
         d="m 3175.33,1060.49 c 0,-7.94 2.63,-14.53 7.89,-19.79 5.25,-5.26 11.76,-7.89 19.51,-7.89 7.76,0 14.26,2.63 19.52,7.89 5.27,5.26 7.89,11.77 7.89,19.52 0,7.75 -2.62,14.26 -7.89,19.52 -5.26,5.25 -11.76,7.89 -19.52,7.89 -3.88,0 -7.47,-0.74 -10.79,-2.22 -3.33,-1.48 -6.23,-3.46 -8.72,-5.95 -2.5,-2.49 -4.43,-5.4 -5.82,-8.72 -1.39,-3.32 -2.07,-6.74 -2.07,-10.25 z m -32.95,0.56 c 0,16.24 5.91,30.18 17.71,41.81 11.82,11.8 25.94,17.71 42.37,17.71 16.8,0 31,-5.91 42.63,-17.71 11.81,-11.82 17.72,-26.03 17.72,-42.64 0,-16.61 -5.91,-30.83 -17.72,-42.64 -11.63,-11.81 -25.75,-17.709 -42.36,-17.709 -16.8,0 -31.1,5.899 -42.91,17.709 -11.63,11.81 -17.44,26.3 -17.44,43.47 z m 122.09,-363.23 -63.4,145.352 -66.44,-145.352 z m 26.31,-60.64 h -183.01 l -47.62,-103.821 h -69.49 l 211.52,454.321 204.05,-454.321 h -70.61 l -44.84,103.821"
         style="fill:#ffffff;fill-opacity:1;fill-rule:nonzero;stroke:none"
         id="path14" />
      <path
         d="m 2730.05,594.039 h 29.07 c 28.97,0 53.05,3.039 72.25,9.141 19.2,6.449 36.55,16.699 52.05,30.73 31.75,28.981 47.62,66.719 47.62,113.231 0,46.89 -15.68,84.91 -47.06,114.07 -28.24,26.019 -69.86,39.039 -124.86,39.039 h -29.07 z m -64.51,-60.629 v 427.461 h 89.7 c 43,0 76.96,-4.242 101.89,-12.73 26.75,-8.301 51.02,-22.422 72.81,-42.352 44.11,-40.25 66.16,-93.129 66.16,-158.648 0,-65.711 -22.98,-118.86 -68.93,-159.469 -23.07,-20.301 -47.25,-34.422 -72.53,-42.352 -23.64,-7.941 -57.13,-11.91 -100.5,-11.91 h -88.6"
         style="fill:#ffffff;fill-opacity:1;fill-rule:nonzero;stroke:none"
         id="path16" />
      <path
         d="m 3694.11,897.48 -52.34,-31.011 c -9.77,16.98 -19.1,28.062 -27.95,33.222 -9.23,5.899 -21.14,8.86 -35.72,8.86 -17.91,0 -32.76,-5.082 -44.57,-15.242 -11.81,-9.981 -17.72,-22.528 -17.72,-37.68 0,-20.867 15.51,-37.68 46.51,-50.418 l 42.64,-17.449 c 34.7,-14.043 60.08,-31.172 76.13,-51.403 16.06,-20.23 24.09,-45.027 24.09,-74.39 0,-39.34 -13.11,-71.848 -39.31,-97.52 -26.4,-25.859 -59.16,-38.789 -98.28,-38.789 -37.1,0 -67.75,11.031 -91.92,33.09 -23.82,22.059 -38.67,53.012 -44.58,92.879 l 65.34,14.402 c 2.95,-25.109 8.12,-42.461 15.5,-52.051 13.29,-18.46 32.68,-27.691 58.15,-27.691 20.11,0 36.81,6.731 50.1,20.191 13.29,13.469 19.93,30.532 19.93,51.192 0,8.289 -1.15,15.898 -3.45,22.816 -2.32,6.922 -5.91,13.282 -10.8,19.09 -4.89,5.813 -11.21,11.25 -18.97,16.32 -7.74,5.071 -16.98,9.911 -27.68,14.524 l -41.25,17.16 c -58.51,24.707 -87.77,60.859 -87.77,108.449 0,32.09 12.28,58.93 36.83,80.508 24.54,21.762 55.09,32.641 91.64,32.641 49.28,0 87.76,-23.899 115.45,-71.7"
         style="fill:#ffffff;fill-opacity:1;fill-rule:nonzero;stroke:none"
         id="path18" />
      <path
         d="M 4015.61,900.25 H 3844.25 V 797.531 h 166.38 V 736.898 H 3844.25 V 594.039 h 171.36 V 533.41 h -235.88 v 427.461 h 235.88 V 900.25"
         style="fill:#ffffff;fill-opacity:1;fill-rule:nonzero;stroke:none"
         id="path20" />
      <path
         d="m 4155.12,764.578 h 20.49 c 61.09,0 91.63,23.352 91.63,70.051 0,43.742 -29.71,65.621 -89.14,65.621 h -22.98 z m 80.29,-49 132.34,-182.168 h -78.91 l -122.09,174.969 h -11.63 V 533.41 h -64.51 v 427.461 h 75.59 c 56.47,0 97.26,-10.609 122.36,-31.832 27.69,-23.629 41.53,-54.82 41.53,-93.578 0,-30.27 -8.68,-56.301 -26.02,-78.07 -17.35,-21.782 -40.24,-35.719 -68.66,-41.813"
         style="fill:#ffffff;fill-opacity:1;fill-rule:nonzero;stroke:none"
         id="path22" />
      <path
         d="m 798.586,593.488 h 29.066 c 28.981,0 53.063,3.051 72.262,9.141 19.195,6.461 36.547,16.699 52.051,30.723 31.742,28.98 47.617,66.73 47.617,113.25 0,46.867 -15.687,84.886 -47.066,114.058 -28.235,26.02 -69.864,39.031 -124.864,39.031 h -29.066 z m -64.508,-60.629 v 427.469 h 89.703 c 43.004,0 76.961,-4.246 101.879,-12.738 26.766,-8.309 51.035,-22.43 72.813,-42.36 44.117,-40.242 66.177,-93.121 66.177,-158.628 0,-65.723 -22.98,-118.872 -68.947,-159.481 -23.07,-20.301 -47.25,-34.422 -72.531,-42.359 -23.629,-7.934 -57.129,-11.903 -100.5,-11.903 h -88.594"
         style="fill:#ffffff;fill-opacity:1;fill-rule:nonzero;stroke:none"
         id="path24" />
      <path
         d="m 1195.69,764.039 h 20.48 c 61.1,0 91.64,23.34 91.64,70.039 0,43.75 -29.71,65.613 -89.14,65.613 h -22.98 z m 80.29,-49.008 132.33,-182.172 h -78.9 L 1207.32,707.84 h -11.63 V 532.859 h -64.51 v 427.469 h 75.58 c 56.48,0 97.27,-10.617 122.37,-31.84 27.69,-23.629 41.53,-54.816 41.53,-93.578 0,-30.281 -8.68,-56.289 -26.02,-78.07 -17.35,-21.789 -40.24,-35.719 -68.66,-41.809"
         style="fill:#ffffff;fill-opacity:1;fill-rule:nonzero;stroke:none"
         id="path26" />
      <path
         d="M 1524.09,960.328 V 532.859 h -64.51 v 427.469 h 64.51"
         style="fill:#ffffff;fill-opacity:1;fill-rule:nonzero;stroke:none"
         id="path28" />
      <path
         d="m 1667.01,789.781 166.39,170.547 h 86.1 L 1726.26,766.801 1920.61,532.859 h -86.38 l -153.93,190.2 -13.29,-13.289 V 532.859 h -64.51 v 427.469 h 64.51 V 789.781"
         style="fill:#ffffff;fill-opacity:1;fill-rule:nonzero;stroke:none"
         id="path30" />
      <path
         d="m 2039.46,789.781 166.39,170.547 h 86.11 L 2098.71,766.801 2293.06,532.859 h -86.38 l -153.93,190.2 -13.29,-13.289 V 532.859 h -64.51 v 427.469 h 64.51 V 789.781"
         style="fill:#ffffff;fill-opacity:1;fill-rule:nonzero;stroke:none"
         id="path32" />
      <path
         d="M 2586.53,899.691 H 2415.15 V 796.98 h 166.4 v -60.628 h -166.4 V 593.488 h 171.38 v -60.629 h -235.88 v 427.469 h 235.88 v -60.637"
         style="fill:#ffffff;fill-opacity:1;fill-rule:nonzero;stroke:none"
         id="path34" />
      <path
         d="m 2841.03,3824.38 c -20.11,-36.49 -66.4,-60.47 -103.41,-53.57 -37,6.89 -50.48,41.95 -30.59,78.54 21.82,40.13 66.4,60.47 103.41,53.57 37,-6.89 50.7,-42.06 30.59,-78.54 z m -2.13,131.18 c -69.05,11.45 -144.62,-13.29 -193.72,-96.42 L 2557.5,3716.5 h 285.13 l 55.06,89.97 c 7.67,14.08 12.14,27.95 14.69,41.41 9.88,47.58 -18.64,98.6 -73.48,107.68"
         style="fill:#ffffff;fill-opacity:1;fill-rule:nonzero;stroke:none"
         id="path36" />
      <path
         d="m 2137.02,1787.21 h 832.75 l 94.67,107.42 H 2042.36 l 94.66,-107.42"
         style="fill:#ffffff;fill-opacity:1;fill-rule:nonzero;stroke:none"
         id="path38" />
      <path
         d="m 3088.42,1972.57 c 1.63,30.38 0,1326.87 0,1366.8 0,86.6 -101.14,210.63 -117.7,249.57 v 78.1 h -834.64 v -78.1 c -16.57,-38.94 -117.71,-162.97 -117.71,-249.57 0,-39.93 -1.62,-1336.42 0,-1366.8 0,-9.56 1.4,-18.54 3.89,-27.03 h 1062.28 c 2.49,8.49 3.88,17.47 3.88,27.03"
         style="fill:#ffffff;fill-opacity:1;fill-rule:nonzero;stroke:none"
         id="path40" />
    </g>
  </g>
</svg>
