<?xml version="1.0" encoding="UTF-8" standalone="no"?>
<!-- Created with Inkscape (http://www.inkscape.org/) -->

<svg
   version="1.1"
   id="svg2"
   width="680.32001"
   height="680.32001"
   viewBox="0 0 680.32001 680.32001"
   sodipodi:docname="ELEKTRONIK_rgb.eps"
   xmlns:inkscape="http://www.inkscape.org/namespaces/inkscape"
   xmlns:sodipodi="http://sodipodi.sourceforge.net/DTD/sodipodi-0.dtd"
   xmlns="http://www.w3.org/2000/svg"
   xmlns:svg="http://www.w3.org/2000/svg">
  <defs
     id="defs6" />
  <sodipodi:namedview
     id="namedview4"
     pagecolor="#ffffff"
     bordercolor="#000000"
     borderopacity="0.25"
     inkscape:showpageshadow="2"
     inkscape:pageopacity="0.0"
     inkscape:pagecheckerboard="0"
     inkscape:deskcolor="#d1d1d1" />
  <g
     id="g8"
     inkscape:groupmode="layer"
     inkscape:label="ink_ext_XXXXXX"
     transform="matrix(1.3333333,0,0,-1.3333333,0,680.32)">
    <g
       id="g10"
       transform="scale(0.1)">
      <path
         d="M 5102.36,0 0.00390625,0.0117188 V 5102.36 L 5102.36,5102.35 V 0"
         style="fill:#ef8514;fill-opacity:1;fill-rule:nonzero;stroke:none"
         id="path12" />
      <path
         d="m 1118.11,891.172 -171.372,-0.473 0.285,-102.711 166.387,0.461 0.17,-60.629 -166.385,-0.461 0.395,-142.859 171.37,0.48 0.17,-60.628 -235.88,-0.661 -1.184,427.457 235.884,0.661 0.16,-60.637"
         style="fill:#ffffff;fill-opacity:1;fill-rule:nonzero;stroke:none"
         id="path14" />
      <path
         d="m 1254.21,952.191 1.02,-366.839 125.68,0.347 0.18,-60.629 -190.2,-0.531 -1.19,427.461 64.51,0.191"
         style="fill:#ffffff;fill-opacity:1;fill-rule:nonzero;stroke:none"
         id="path16" />
      <path
         d="m 1690.09,892.762 -171.37,-0.481 0.29,-102.711 166.39,0.461 0.16,-60.633 -166.38,-0.449 0.39,-142.867 171.37,0.477 0.17,-60.629 -235.88,-0.66 -1.18,427.46 235.88,0.661 0.16,-60.629"
         style="fill:#ffffff;fill-opacity:1;fill-rule:nonzero;stroke:none"
         id="path18" />
      <path
         d="m 1829.9,783.23 165.92,171.008 86.1,0.231 -192.7,-194.047 194.99,-233.41 -86.38,-0.231 -154.45,189.77 -13.26,-13.332 0.49,-176.899 -64.5,-0.191 -1.19,427.461 64.51,0.191 0.47,-170.551"
         style="fill:#ffffff;fill-opacity:1;fill-rule:nonzero;stroke:none"
         id="path20" />
      <path
         d="m 2291.7,894.422 1.02,-366.832 -64.51,-0.18 -1.02,366.84 -98.28,-0.281 -0.17,60.64 260.8,0.711 0.16,-60.621 -98,-0.277"
         style="fill:#ffffff;fill-opacity:1;fill-rule:nonzero;stroke:none"
         id="path22" />
      <path
         d="m 2526.75,759.41 20.49,0.059 c 61.1,0.172 91.58,23.609 91.45,70.301 -0.12,43.75 -29.9,65.531 -89.33,65.371 l -22.98,-0.071 z m 80.42,-48.781 132.85,-181.797 -78.9,-0.223 -122.58,174.629 -11.63,-0.027 0.48,-174.973 -64.5,-0.168 -1.18,427.461 75.58,0.199 c 56.48,0.161 97.29,-10.339 122.45,-31.492 27.76,-23.558 41.68,-54.707 41.79,-93.468 0.09,-30.27 -8.53,-56.321 -25.81,-78.141 -17.29,-21.828 -40.14,-35.82 -68.55,-42"
         style="fill:#ffffff;fill-opacity:1;fill-rule:nonzero;stroke:none"
         id="path24" />
      <path
         d="m 2824.74,744.039 c 0.14,-47.211 16.12,-85.98 47.95,-116.328 31.64,-30.34 68.14,-45.441 109.48,-45.332 44.85,0.121 82.64,15.723 113.38,46.793 30.74,31.43 46.05,69.648 45.92,114.637 -0.13,45.55 -15.46,83.679 -45.99,114.39 -30.37,30.903 -67.88,46.289 -112.54,46.172 -44.49,-0.133 -82,-15.73 -112.55,-46.789 -30.56,-30.703 -45.76,-68.551 -45.65,-113.543 z m -65.06,0.512 c -0.16,60.179 21.74,111.91 65.75,155.23 43.8,43.309 96.53,65.039 158.18,65.219 60.91,0.172 113.19,-21.469 156.88,-64.898 43.86,-43.454 65.87,-95.723 66.04,-156.801 0.18,-61.461 -21.65,-113.672 -65.46,-156.602 -43.99,-43.14 -97.18,-64.789 -159.56,-64.949 -55.19,-0.16 -104.8,18.809 -148.83,56.891 -48.47,42.129 -72.81,97.429 -73,165.91"
         style="fill:#ffffff;fill-opacity:1;fill-rule:nonzero;stroke:none"
         id="path26" />
      <path
         d="m 3283.39,530.328 -1.27,456.543 312.64,-325.281 -0.82,297.07 64.5,0.18 1.25,-453.488 -312.63,324.437 0.83,-299.277 -64.5,-0.184"
         style="fill:#ffffff;fill-opacity:1;fill-rule:nonzero;stroke:none"
         id="path28" />
      <path
         d="m 3812.43,959.27 1.18,-427.469 -64.51,-0.18 -1.18,427.457 64.51,0.192"
         style="fill:#ffffff;fill-opacity:1;fill-rule:nonzero;stroke:none"
         id="path30" />
      <path
         d="m 3968.78,789.148 165.91,171.012 86.11,0.231 -192.71,-194.051 195,-233.41 -86.38,-0.231 -154.46,189.77 -13.25,-13.328 0.49,-176.911 -64.51,-0.179 -1.18,427.461 64.51,0.187 0.47,-170.551"
         style="fill:#ffffff;fill-opacity:1;fill-rule:nonzero;stroke:none"
         id="path32" />
      <path
         d="m 2884.66,4270.03 c 0,35.81 -22.83,64.83 -51.02,64.83 -28.2,0 -51.03,-29.02 -51.03,-64.83 v -394.39 h 102.05 v 394.39"
         style="fill:#ffffff;fill-opacity:1;fill-rule:nonzero;stroke:none"
         id="path34" />
      <path
         d="m 2322.32,4270.03 c 0,35.81 -22.83,64.83 -51.03,64.83 -28.2,0 -51.02,-29.02 -51.02,-64.83 v -394.39 h 102.05 v 394.39"
         style="fill:#ffffff;fill-opacity:1;fill-rule:nonzero;stroke:none"
         id="path36" />
      <path
         d="M 2475.93,1272.56 H 2629 V 2650.2 H 2475.93 V 1272.56"
         style="fill:#ffffff;fill-opacity:1;fill-rule:nonzero;stroke:none"
         id="path38" />
      <path
         d="M 3088.84,3823.61 H 2016.09 c 0,0 -0.04,-254.72 -0.03,-255.41 0.52,-37.09 9.64,-73.9 31.05,-107.94 l 352.61,-531.22 v -227.95 h 305.49 v 227.95 l 352.61,531.22 c 21.42,34.04 30.53,70.85 31.05,107.94 0.01,0.69 -0.03,255.41 -0.03,255.41"
         style="fill:#ffffff;fill-opacity:1;fill-rule:nonzero;stroke:none"
         id="path40" />
    </g>
  </g>
</svg>
