<?xml version="1.0" encoding="UTF-8" standalone="no"?>
<!-- Created with Inkscape (http://www.inkscape.org/) -->

<svg
   version="1.1"
   id="svg2"
   width="680.32001"
   height="680.32001"
   viewBox="0 0 680.32001 680.32001"
   sodipodi:docname="ELPAERER_rgb.eps"
   xmlns:inkscape="http://www.inkscape.org/namespaces/inkscape"
   xmlns:sodipodi="http://sodipodi.sourceforge.net/DTD/sodipodi-0.dtd"
   xmlns="http://www.w3.org/2000/svg"
   xmlns:svg="http://www.w3.org/2000/svg">
  <defs
     id="defs6" />
  <sodipodi:namedview
     id="namedview4"
     pagecolor="#ffffff"
     bordercolor="#000000"
     borderopacity="0.25"
     inkscape:showpageshadow="2"
     inkscape:pageopacity="0.0"
     inkscape:pagecheckerboard="0"
     inkscape:deskcolor="#d1d1d1" />
  <g
     id="g8"
     inkscape:groupmode="layer"
     inkscape:label="ink_ext_XXXXXX"
     transform="matrix(1.3333333,0,0,-1.3333333,0,680.32)">
    <g
       id="g10"
       transform="scale(0.1)">
      <path
         d="M 5102.36,0 H 0 V 5102.36 H 5102.36 V 0"
         style="fill:#e91d2c;fill-opacity:1;fill-rule:nonzero;stroke:none"
         id="path12" />
      <path
         d="M 1622.57,898.898 H 1451.19 V 796.191 h 166.39 v -60.632 h -166.39 v -142.86 h 171.38 V 532.07 h -235.88 v 427.461 h 235.88 v -60.633"
         style="fill:#ffffff;fill-opacity:1;fill-rule:nonzero;stroke:none"
         id="path14" />
      <path
         d="M 1760.45,959.531 V 592.699 h 125.69 V 532.07 h -190.2 v 427.461 h 64.51"
         style="fill:#ffffff;fill-opacity:1;fill-rule:nonzero;stroke:none"
         id="path16" />
      <path
         d="m 2023.18,765.461 h 24.08 c 59.25,0 88.87,22.789 88.87,68.379 0,44.109 -30.55,66.172 -91.64,66.172 h -21.31 z m 0,-59.801 V 532.07 h -64.51 v 427.461 h 73.09 c 35.8,0 62.84,-2.492 81.12,-7.472 18.45,-4.981 34.69,-14.399 48.72,-28.239 24.55,-24 36.83,-54.261 36.83,-90.808 0,-39.133 -13.11,-70.141 -39.32,-93.024 -26.21,-22.886 -61.56,-34.328 -106.03,-34.328 h -29.9"
         style="fill:#ffffff;fill-opacity:1;fill-rule:nonzero;stroke:none"
         id="path18" />
      <path
         d="m 2430.57,694.859 -61.18,140.09 -65.89,-140.09 z m 25.75,-60.629 H 2274.7 l -46.78,-102.16 h -70.6 l 205.42,427.461 h 189.1 l 26.85,-60.633 h -170.26 l 45.12,-103.539 h 165.56 l 27.13,-60.629 h -165.83 l 60.91,-142.031 h 170.82 l 26.02,-60.629 h -236.99 l -44.85,102.16"
         style="fill:#ffffff;fill-opacity:1;fill-rule:nonzero;stroke:none"
         id="path20" />
      <path
         d="m 2858.91,763.238 h 20.49 c 61.09,0 91.64,23.352 91.64,70.051 0,43.742 -29.72,65.609 -89.15,65.609 h -22.98 z m 80.29,-49 132.34,-182.168 h -78.91 l -122.09,174.969 h -11.63 V 532.07 h -64.51 v 427.461 h 75.58 c 56.48,0 97.27,-10.609 122.37,-31.832 27.69,-23.629 41.53,-54.82 41.53,-93.578 0,-30.269 -8.67,-56.301 -26.02,-78.07 -17.35,-21.781 -40.24,-35.723 -68.66,-41.813"
         style="fill:#ffffff;fill-opacity:1;fill-rule:nonzero;stroke:none"
         id="path22" />
      <path
         d="M 3366.79,898.898 H 3195.41 V 796.191 h 166.39 v -60.632 h -166.39 v -142.86 h 171.38 V 532.07 h -235.88 v 427.461 h 235.88 v -60.633"
         style="fill:#ffffff;fill-opacity:1;fill-rule:nonzero;stroke:none"
         id="path24" />
      <path
         d="m 3503.05,763.238 h 20.49 c 61.09,0 91.64,23.352 91.64,70.051 0,43.742 -29.72,65.609 -89.15,65.609 h -22.98 z m 80.29,-49 132.34,-182.168 h -78.91 l -122.09,174.969 h -11.63 V 532.07 h -64.51 v 427.461 h 75.58 c 56.48,0 97.27,-10.609 122.37,-31.832 27.69,-23.629 41.53,-54.82 41.53,-93.578 0,-30.269 -8.67,-56.301 -26.02,-78.07 -17.35,-21.781 -40.24,-35.723 -68.66,-41.813"
         style="fill:#ffffff;fill-opacity:1;fill-rule:nonzero;stroke:none"
         id="path26" />
      <path
         d="m 2551.18,1785.76 c 143.11,0 259.98,112.23 267.47,253.46 h -534.94 c 7.49,-141.23 124.36,-253.46 267.47,-253.46"
         style="fill:#ffffff;fill-opacity:1;fill-rule:nonzero;stroke:none"
         id="path28" />
      <path
         d="m 3024.37,2853.76 h -0.07 c 79.2,101.62 126.41,229.42 126.41,368.24 0,331.11 -268.42,599.53 -599.53,599.53 -331.11,0 -599.53,-268.42 -599.53,-599.53 0,-138.83 47.21,-266.62 126.42,-368.24 h -0.04 c 98.13,-142.32 202.11,-274.64 204.68,-508.11 h 536.99 c 2.56,233.47 106.55,365.79 204.67,508.11"
         style="fill:#ffffff;fill-opacity:1;fill-rule:nonzero;stroke:none"
         id="path30" />
      <path
         d="m 2283.31,2090.25 h 535.74 v 76.67 h -535.74 v -76.67"
         style="fill:#ffffff;fill-opacity:1;fill-rule:nonzero;stroke:none"
         id="path32" />
      <path
         d="m 2283.31,2294.62 v -76.67 h 535.74 v 76.67 h -535.74"
         style="fill:#ffffff;fill-opacity:1;fill-rule:nonzero;stroke:none"
         id="path34" />
    </g>
  </g>
</svg>
