<?xml version="1.0" encoding="UTF-8" standalone="no"?>
<!-- Created with Inkscape (http://www.inkscape.org/) -->

<svg
   version="1.1"
   id="svg2"
   width="680.32001"
   height="680.32001"
   viewBox="0 0 680.32001 680.32001"
   sodipodi:docname="FARLIGT_AFFALD_rgb.eps"
   xmlns:inkscape="http://www.inkscape.org/namespaces/inkscape"
   xmlns:sodipodi="http://sodipodi.sourceforge.net/DTD/sodipodi-0.dtd"
   xmlns="http://www.w3.org/2000/svg"
   xmlns:svg="http://www.w3.org/2000/svg">
  <defs
     id="defs6" />
  <sodipodi:namedview
     id="namedview4"
     pagecolor="#ffffff"
     bordercolor="#000000"
     borderopacity="0.25"
     inkscape:showpageshadow="2"
     inkscape:pageopacity="0.0"
     inkscape:pagecheckerboard="0"
     inkscape:deskcolor="#d1d1d1" />
  <g
     id="g8"
     inkscape:groupmode="layer"
     inkscape:label="ink_ext_XXXXXX"
     transform="matrix(1.3333333,0,0,-1.3333333,0,680.32)">
    <g
       id="g10"
       transform="scale(0.1)">
      <path
         d="M 5102.36,0 H 0 V 5102.36 H 5102.36 V 0"
         style="fill:#e91d2c;fill-opacity:1;fill-rule:nonzero;stroke:none"
         id="path12" />
      <path
         d="M 693.574,898.961 H 549.137 V 796.238 H 688.473 V 735.609 H 549.137 V 532.129 H 486.582 V 959.59 h 206.992 v -60.629"
         style="fill:#ffffff;fill-opacity:1;fill-rule:nonzero;stroke:none"
         id="path14" />
      <path
         d="M 940.48,696.578 879,841.93 814.566,696.578 Z m 25.504,-60.629 H 788.523 L 742.344,532.129 H 674.957 L 880.074,986.441 1077.94,532.129 h -68.46 l -43.496,103.82"
         style="fill:#ffffff;fill-opacity:1;fill-rule:nonzero;stroke:none"
         id="path16" />
      <path
         d="m 1193.93,763.301 h 19.87 c 59.24,0 88.86,23.347 88.86,70.039 0,43.75 -28.82,65.621 -86.45,65.621 h -22.28 z m 77.86,-49 128.33,-182.172 h -76.52 l -118.39,174.973 h -11.28 V 532.129 h -62.56 V 959.59 h 73.3 c 54.77,0 94.32,-10.621 118.66,-31.84 26.85,-23.629 40.28,-54.82 40.28,-93.578 0,-30.274 -8.42,-56.293 -25.24,-78.07 -16.83,-21.782 -39.02,-35.711 -66.58,-41.801"
         style="fill:#ffffff;fill-opacity:1;fill-rule:nonzero;stroke:none"
         id="path18" />
      <path
         d="M 1516.86,959.59 V 592.762 h 121.89 V 532.129 H 1454.3 V 959.59 h 62.56"
         style="fill:#ffffff;fill-opacity:1;fill-rule:nonzero;stroke:none"
         id="path20" />
      <path
         d="M 1771.97,959.59 V 532.129 h -62.55 V 959.59 h 62.55"
         style="fill:#ffffff;fill-opacity:1;fill-rule:nonzero;stroke:none"
         id="path22" />
      <path
         d="m 2076.65,754.719 h 171.28 v -14.117 c 0,-32.122 -3.67,-60.543 -11,-85.274 -7.16,-22.887 -19.25,-44.297 -36.25,-64.226 -38.48,-44.672 -87.43,-67 -146.85,-67 -57.99,0 -107.66,21.589 -149.01,64.777 -41.34,43.371 -62.01,95.422 -62.01,156.152 0,62.008 21.02,114.61 63.09,157.797 42.06,43.383 93.25,65.07 153.56,65.07 32.4,0 62.65,-6.796 90.75,-20.398 26.85,-13.602 53.25,-35.691 79.2,-66.262 l -44.57,-44.019 c -34.01,46.691 -75.44,70.043 -124.3,70.043 -43.85,0 -80.64,-15.59 -110.34,-46.782 -29.72,-30.64 -44.57,-69.039 -44.57,-115.179 0,-47.621 16.55,-86.84 49.67,-117.66 30.96,-28.61 64.52,-42.911 100.68,-42.911 30.78,0 58.43,10.668 82.95,32.032 24.52,21.539 38.22,47.308 41.08,77.328 h -103.36 v 60.629"
         style="fill:#ffffff;fill-opacity:1;fill-rule:nonzero;stroke:none"
         id="path24" />
      <path
         d="M 2439.89,898.961 V 532.129 h -62.55 v 366.832 h -95.31 v 60.629 h 252.9 v -60.629 h -95.04"
         style="fill:#ffffff;fill-opacity:1;fill-rule:nonzero;stroke:none"
         id="path26" />
      <path
         d="m 2929.85,696.578 -61.48,145.352 -64.43,-145.352 z m 25.51,-60.629 H 2777.9 l -46.18,-103.82 h -67.39 l 205.12,454.312 197.86,-454.312 h -68.46 l -43.49,103.82"
         style="fill:#ffffff;fill-opacity:1;fill-rule:nonzero;stroke:none"
         id="path28" />
      <path
         d="M 3326.12,898.961 H 3181.68 V 796.238 h 139.34 v -60.629 h -139.34 v -203.48 h -62.55 V 959.59 h 206.99 v -60.629"
         style="fill:#ffffff;fill-opacity:1;fill-rule:nonzero;stroke:none"
         id="path30" />
      <path
         d="M 3605.6,898.961 H 3461.16 V 796.238 h 139.34 v -60.629 h -139.34 v -203.48 h -62.55 V 959.59 h 206.99 v -60.629"
         style="fill:#ffffff;fill-opacity:1;fill-rule:nonzero;stroke:none"
         id="path32" />
      <path
         d="m 3852.51,696.578 -61.48,145.352 -64.44,-145.352 z m 25.5,-60.629 h -177.46 l -46.18,-103.82 h -67.38 l 205.11,454.312 197.87,-454.312 h -68.46 l -43.5,103.82"
         style="fill:#ffffff;fill-opacity:1;fill-rule:nonzero;stroke:none"
         id="path34" />
      <path
         d="M 4104.34,959.59 V 592.762 h 121.89 V 532.129 H 4041.78 V 959.59 h 62.56"
         style="fill:#ffffff;fill-opacity:1;fill-rule:nonzero;stroke:none"
         id="path36" />
      <path
         d="m 4357.83,592.762 h 28.19 c 28.1,0 51.46,3.039 70.07,9.129 18.62,6.461 35.44,16.699 50.48,30.73 30.78,28.981 46.18,66.731 46.18,113.238 0,46.879 -15.22,84.903 -45.65,114.063 -27.38,26.027 -67.74,39.039 -121.08,39.039 h -28.19 z m -62.55,-60.633 V 959.59 h 86.98 c 41.71,0 74.64,-4.25 98.8,-12.738 25.95,-8.301 49.49,-22.422 70.61,-42.352 42.78,-40.238 64.17,-93.121 64.17,-158.641 0,-65.711 -22.29,-118.871 -66.85,-159.468 -22.38,-20.309 -45.82,-34.43 -70.34,-42.36 -22.92,-7.941 -55.4,-11.902 -97.46,-11.902 h -85.91"
         style="fill:#ffffff;fill-opacity:1;fill-rule:nonzero;stroke:none"
         id="path38" />
      <path
         d="m 2602.23,2345.16 -101.87,0.14 -51.2,816.24 h 204.1 z m -51.02,-304.44 c -56.36,0 -102.05,45.69 -102.05,102.05 0,56.36 45.69,102.05 102.05,102.05 56.36,0 102.05,-45.69 102.05,-102.05 0,-56.36 -45.69,-102.05 -102.05,-102.05 z m 1200.68,-147.24 0.01,0.02 -1140.49,1898.99 c -12.31,20.34 -34.66,33.93 -60.2,33.93 -27.03,0 -50.48,-15.23 -62.24,-37.56 L 1350.21,1893 l 0.01,-0.01 c -7.89,-12.47 -11.96,-27.57 -10.54,-43.7 3.23,-36.74 36.18,-63.81 73.07,-63.81 h 2276.83 c 37.05,0 70.14,27.28 73.19,64.2 1.35,16.2 -2.86,31.34 -10.88,43.8"
         style="fill:#ffffff;fill-opacity:1;fill-rule:nonzero;stroke:none"
         id="path40" />
    </g>
  </g>
</svg>
