<?xml version="1.0" encoding="UTF-8" standalone="no"?>
<!-- Created with Inkscape (http://www.inkscape.org/) -->

<svg
   version="1.1"
   id="svg2"
   width="680.32001"
   height="680.32001"
   viewBox="0 0 680.32001 680.32001"
   sodipodi:docname="FARVET_BLOED_PLAST_rgb.eps"
   xmlns:inkscape="http://www.inkscape.org/namespaces/inkscape"
   xmlns:sodipodi="http://sodipodi.sourceforge.net/DTD/sodipodi-0.dtd"
   xmlns="http://www.w3.org/2000/svg"
   xmlns:svg="http://www.w3.org/2000/svg">
  <defs
     id="defs6" />
  <sodipodi:namedview
     id="namedview4"
     pagecolor="#ffffff"
     bordercolor="#000000"
     borderopacity="0.25"
     inkscape:showpageshadow="2"
     inkscape:pageopacity="0.0"
     inkscape:pagecheckerboard="0"
     inkscape:deskcolor="#d1d1d1" />
  <g
     id="g8"
     inkscape:groupmode="layer"
     inkscape:label="ink_ext_XXXXXX"
     transform="matrix(1.3333333,0,0,-1.3333333,0,680.32)">
    <g
       id="g10"
       transform="scale(0.1)">
      <path
         d="M 5102.36,0 H 0 V 5102.36 H 5102.36 V 0"
         style="fill:#8d1c90;fill-opacity:1;fill-rule:nonzero;stroke:none"
         id="path12" />
      <path
         d="m 995.953,592.75 h 39.867 c 29.16,0 50.57,5.719 64.23,17.172 14.39,12.359 21.6,28.039 21.6,47.058 0,18.461 -6.93,33.961 -20.77,46.508 -13.48,12.371 -37.56,18.551 -72.26,18.551 h -32.667 z m 0,183.281 h 20.207 c 23.99,0 41.57,5.301 52.74,15.918 11.17,10.602 16.75,26.25 16.75,46.922 0,20.117 -5.72,35.391 -17.16,45.82 -11.45,10.43 -28.06,15.649 -49.84,15.649 H 995.953 Z M 931.445,532.121 V 959.59 h 64.231 c 28.604,0 51.394,-2.219 68.384,-6.649 17.17,-4.429 31.65,-11.91 43.46,-22.429 12,-10.883 21.5,-24.453 28.52,-40.692 7.2,-16.441 10.8,-33.05 10.8,-49.832 0,-30.648 -11.72,-56.59 -35.16,-77.808 22.7,-7.75 40.6,-21.309 53.71,-40.692 13.29,-19.199 19.93,-41.527 19.93,-67 0,-33.406 -11.81,-61.648 -35.44,-84.718 -14.21,-14.219 -30.17,-24.079 -47.89,-29.622 -19.38,-5.359 -43.66,-8.027 -72.82,-8.027 h -97.725"
         style="fill:#ffffff;fill-opacity:1;fill-rule:nonzero;stroke:none"
         id="path14" />
      <path
         d="M 1326.36,959.59 V 592.75 h 125.7 v -60.629 h -190.2 V 959.59 h 64.5"
         style="fill:#ffffff;fill-opacity:1;fill-rule:nonzero;stroke:none"
         id="path16" />
      <path
         d="m 1858.07,844.141 -222.31,-226.75 c 31.18,-21.59 63.3,-32.391 96.34,-32.391 43.55,0 80.65,15.59 111.29,46.781 30.64,31.188 45.97,69.219 45.97,114.078 0,35.243 -10.43,68 -31.29,98.282 z m -37.1,35.98 c -26.77,17.899 -56.2,26.859 -88.32,26.859 -45.59,0 -83.61,-15.601 -114.06,-46.789 -30.27,-31.382 -45.41,-70.32 -45.41,-116.832 0,-30.449 8.95,-60.168 26.86,-89.148 z m 45.13,42.641 46.23,47.07 37.1,-36.832 -45.68,-46.781 c 33.77,-42.078 50.66,-89.239 50.66,-141.481 0,-60.527 -21.87,-112.398 -65.61,-155.59 -43.74,-43.187 -96.26,-64.777 -157.53,-64.777 -51.13,0 -98.29,16.328 -141.48,49.008 l -45.95,-45.688 -35.44,36.27 44.57,45.961 c -29.9,39.859 -44.85,84.617 -44.85,134.269 0,63.86 22.61,117.289 67.83,160.297 44.3,42.082 96.62,63.121 156.98,63.121 47.99,0 92.38,-14.949 133.17,-44.847"
         style="fill:#ffffff;fill-opacity:1;fill-rule:nonzero;stroke:none"
         id="path18" />
      <path
         d="m 2092.84,592.75 h 29.07 c 28.97,0 53.06,3.051 72.26,9.141 19.19,6.461 36.54,16.699 52.05,30.718 31.74,28.981 47.62,66.731 47.62,113.25 0,46.871 -15.7,84.891 -47.07,114.063 -28.24,26.019 -69.86,39.027 -124.86,39.027 h -29.07 z m -64.51,-60.629 V 959.59 h 89.7 c 43,0 76.97,-4.25 101.89,-12.738 26.75,-8.313 51.03,-22.43 72.81,-42.364 44.11,-40.238 66.17,-93.117 66.17,-158.629 0,-65.718 -22.98,-118.871 -68.94,-159.48 -23.07,-20.297 -47.25,-34.418 -72.53,-42.359 -23.63,-7.93 -57.13,-11.899 -100.5,-11.899 h -88.6"
         style="fill:#ffffff;fill-opacity:1;fill-rule:nonzero;stroke:none"
         id="path20" />
      <path
         d="m 2668.88,765.5 h 24.08 c 59.25,0 88.88,22.801 88.88,68.391 0,44.109 -30.55,66.168 -91.64,66.168 h -21.32 z m 0,-59.789 v -173.59 h -64.52 V 959.59 h 73.1 c 35.8,0 62.84,-2.488 81.11,-7.481 18.46,-4.98 34.7,-14.398 48.73,-28.238 24.55,-24 36.82,-54.262 36.82,-90.812 0,-39.129 -13.1,-70.129 -39.31,-93.02 -26.21,-22.891 -61.56,-34.328 -106.03,-34.328 h -29.9"
         style="fill:#ffffff;fill-opacity:1;fill-rule:nonzero;stroke:none"
         id="path22" />
      <path
         d="M 2975.08,959.59 V 592.75 h 125.69 v -60.629 h -190.2 V 959.59 h 64.51"
         style="fill:#ffffff;fill-opacity:1;fill-rule:nonzero;stroke:none"
         id="path24" />
      <path
         d="m 3429.3,696.57 -63.41,145.352 -66.45,-145.352 z m 26.3,-60.629 h -183.01 l -47.62,-103.82 h -69.49 l 211.52,454.32 204.04,-454.32 h -70.59 l -44.85,103.82"
         style="fill:#ffffff;fill-opacity:1;fill-rule:nonzero;stroke:none"
         id="path26" />
      <path
         d="m 3858.07,896.191 -52.33,-31.019 c -9.78,16.976 -19.1,28.058 -27.96,33.219 -9.23,5.91 -21.13,8.871 -35.71,8.871 -17.91,0 -32.76,-5.09 -44.58,-15.242 -11.81,-9.969 -17.72,-22.532 -17.72,-37.68 0,-20.879 15.51,-37.668 46.52,-50.418 l 42.64,-17.461 c 34.69,-14.039 60.07,-31.172 76.13,-51.402 16.05,-20.219 24.08,-45.02 24.08,-74.379 0,-39.348 -13.11,-71.86 -39.31,-97.532 -26.39,-25.859 -59.16,-38.777 -98.29,-38.777 -37.09,0 -67.73,11.027 -91.91,33.098 -23.81,22.043 -38.67,52.992 -44.57,92.871 l 65.33,14.39 c 2.96,-25.101 8.13,-42.449 15.51,-52.05 13.29,-18.461 32.66,-27.68 58.14,-27.68 20.11,0 36.82,6.719 50.11,20.191 13.29,13.469 19.93,30.528 19.93,51.18 0,8.301 -1.15,15.91 -3.46,22.828 -2.31,6.922 -5.9,13.281 -10.8,19.09 -4.89,5.813 -11.21,11.25 -18.96,16.32 -7.76,5.071 -16.98,9.922 -27.69,14.532 l -41.25,17.148 c -58.51,24.711 -87.76,60.859 -87.76,108.449 0,32.082 12.27,58.934 36.83,80.5 24.54,21.774 55.08,32.653 91.63,32.653 49.28,0 87.76,-23.911 115.45,-71.7"
         style="fill:#ffffff;fill-opacity:1;fill-rule:nonzero;stroke:none"
         id="path28" />
      <path
         d="M 4072.91,898.949 V 532.121 h -64.51 v 366.828 h -98.28 v 60.641 h 260.8 v -60.641 h -98.01"
         style="fill:#ffffff;fill-opacity:1;fill-rule:nonzero;stroke:none"
         id="path30" />
      <path
         d="m 1780.78,1437.28 h -148.95 v -102.71 h 143.69 v -60.64 h -143.69 v -203.48 h -64.51 v 427.47 h 213.46 v -60.64"
         style="fill:#ffffff;fill-opacity:1;fill-rule:nonzero;stroke:none"
         id="path32" />
      <path
         d="m 2041.29,1234.9 -63.4,145.35 -66.45,-145.35 z m 26.3,-60.64 h -183.01 l -47.61,-103.81 h -69.49 l 211.51,454.32 204.05,-454.32 h -70.6 l -44.85,103.81"
         style="fill:#ffffff;fill-opacity:1;fill-rule:nonzero;stroke:none"
         id="path34" />
      <path
         d="m 2308.18,1301.62 h 20.49 c 61.09,0 91.64,23.35 91.64,70.05 0,43.74 -29.72,65.61 -89.15,65.61 h -22.98 z m 80.29,-49 132.34,-182.17 h -78.91 l -122.09,174.97 h -11.63 v -174.97 h -64.5 v 427.47 h 75.58 c 56.47,0 97.26,-10.62 122.37,-31.85 27.68,-23.62 41.52,-54.81 41.52,-93.57 0,-30.28 -8.67,-56.3 -26.02,-78.08 -17.35,-21.78 -40.24,-35.71 -68.66,-41.8"
         style="fill:#ffffff;fill-opacity:1;fill-rule:nonzero;stroke:none"
         id="path36" />
      <path
         d="m 2593.2,1497.92 118.23,-296.24 119.87,296.24 h 70.59 l -191.85,-459.58 -187.43,459.58 h 70.59"
         style="fill:#ffffff;fill-opacity:1;fill-rule:nonzero;stroke:none"
         id="path38" />
      <path
         d="m 3207.15,1437.28 h -171.38 v -102.71 h 166.4 v -60.64 h -166.4 v -142.85 h 171.38 v -60.63 h -235.88 v 427.47 h 235.88 v -60.64"
         style="fill:#ffffff;fill-opacity:1;fill-rule:nonzero;stroke:none"
         id="path40" />
      <path
         d="m 3436.83,1437.28 v -366.83 h -64.52 v 366.83 h -98.28 v 60.64 h 260.8 v -60.64 h -98"
         style="fill:#ffffff;fill-opacity:1;fill-rule:nonzero;stroke:none"
         id="path42" />
      <path
         d="m 2938.72,3958.82 c 0,-49.11 -40.18,-89.29 -89.29,-89.29 h -586.77 c -49.11,0 -89.29,40.18 -89.29,89.29 v 0 c 0,49.12 40.18,89.3 89.29,89.3 h 586.77 c 49.1,0 89.29,-40.18 89.29,-89.3 z m 386.01,-1322.16 c -7.1,68.12 -14.18,137.05 -5.19,204.94 7.22,54.43 24.67,107.21 29.17,161.95 5.76,70.05 -9.89,139.91 -26.02,208.22 -11.63,49.23 -23.56,100.97 -10.75,149.89 6.84,26.13 20.4,49.81 30.17,74.94 14.12,36.33 103.99,350.38 107.2,688.67 0.42,44.44 8.91,84.44 2.49,128.39 -177.56,51.02 -737.96,41.29 -953.07,41.29 -813.91,0 -834.44,41.27 -834.9,44.09 L 1700.94,3597 c 21.65,-202.49 55.14,-410.8 162.8,-581.75 10.15,-16.12 21.36,-33.29 20.78,-52.49 -0.45,-15.06 -8.15,-28.71 -15.12,-41.96 -65.46,-124.46 -81.73,-263.73 -96.83,-404.4 -10.82,-100.86 -21.64,-201.72 -32.46,-302.58 -8.87,-82.76 -8.64,-138.05 -17.52,-220.82 -0.73,-30.76 -30.1,-57.34 -48.69,-81.43 -18.6,-24.09 -24.35,-78.3 -25.95,-122.41 38.39,-14.63 286.59,-8.58 496.6,-1.18 133.84,4.72 254.3,20.76 287.58,24.82 332.44,40.61 686.67,20.1 1021.12,4.94 -21.04,68.57 -40.56,147 -48.02,218.52 -20.83,200.12 -59.67,400.26 -80.5,600.4"
         style="fill:#ffffff;fill-opacity:1;fill-rule:nonzero;stroke:none"
         id="path44" />
    </g>
  </g>
</svg>
