<?xml version="1.0" encoding="UTF-8" standalone="no"?>
<!-- Created with Inkscape (http://www.inkscape.org/) -->

<svg
   version="1.1"
   id="svg2"
   width="681.78668"
   height="681.30664"
   viewBox="0 0 681.78668 681.30664"
   sodipodi:docname="FLADT_GLAS_rgb.eps"
   xmlns:inkscape="http://www.inkscape.org/namespaces/inkscape"
   xmlns:sodipodi="http://sodipodi.sourceforge.net/DTD/sodipodi-0.dtd"
   xmlns="http://www.w3.org/2000/svg"
   xmlns:svg="http://www.w3.org/2000/svg">
  <defs
     id="defs6" />
  <sodipodi:namedview
     id="namedview4"
     pagecolor="#ffffff"
     bordercolor="#000000"
     borderopacity="0.25"
     inkscape:showpageshadow="2"
     inkscape:pageopacity="0.0"
     inkscape:pagecheckerboard="0"
     inkscape:deskcolor="#d1d1d1" />
  <g
     id="g8"
     inkscape:groupmode="layer"
     inkscape:label="ink_ext_XXXXXX"
     transform="matrix(1.3333333,0,0,-1.3333333,0,681.30667)">
    <g
       id="g10"
       transform="scale(0.1)">
      <path
         d="M 0,0 H 5113.45 V 5109.85 H 0 V 0"
         style="fill:#3db586;fill-opacity:1;fill-rule:nonzero;stroke:none"
         id="path12" />
      <path
         d="M 1126.98,906.281 H 978.152 V 803.641 H 1121.73 V 743.059 H 978.152 V 539.711 h -64.464 v 427.148 h 213.292 v -60.578"
         style="fill:#ffffff;fill-opacity:1;fill-rule:nonzero;stroke:none"
         id="path14" />
      <path
         d="m 1271.54,966.859 v -366.55 h 125.59 v -60.598 h -190.05 v 427.148 h 64.46"
         style="fill:#ffffff;fill-opacity:1;fill-rule:nonzero;stroke:none"
         id="path16" />
      <path
         d="m 1726.48,704.039 -63.35,145.25 -66.39,-145.25 z m 26.28,-60.578 H 1569.9 l -47.58,-103.75 h -69.44 l 211.36,453.988 203.88,-453.988 h -70.54 l -44.82,103.75"
         style="fill:#ffffff;fill-opacity:1;fill-rule:nonzero;stroke:none"
         id="path18" />
      <path
         d="m 1993.17,600.309 h 29.04 c 28.96,0 53.02,3.043 72.21,9.132 19.18,6.45 36.52,16.688 52.01,30.7 31.72,28.949 47.58,66.679 47.58,113.16 0,46.828 -15.68,84.82 -47.03,113.961 -28.21,26.019 -69.81,39.019 -124.77,39.019 h -29.04 z m -64.46,-60.598 v 427.148 h 89.64 c 42.96,0 76.9,-4.238 101.8,-12.718 26.74,-8.301 50.99,-22.411 72.75,-42.34 44.08,-40.199 66.12,-93.031 66.12,-158.5 0,-65.672 -22.96,-118.781 -68.89,-159.36 -23.05,-20.281 -47.21,-34.402 -72.47,-42.32 -23.62,-7.93 -57.09,-11.91 -100.43,-11.91 h -88.52"
         style="fill:#ffffff;fill-opacity:1;fill-rule:nonzero;stroke:none"
         id="path20" />
      <path
         d="m 2446.87,906.281 v -366.57 h -64.47 v 366.57 h -98.21 v 60.578 h 260.61 v -60.578 h -97.93"
         style="fill:#ffffff;fill-opacity:1;fill-rule:nonzero;stroke:none"
         id="path22" />
      <path
         d="m 2996.83,762.148 h 176.5 v -14.109 c 0,-32.09 -3.79,-60.488 -11.34,-85.219 -7.39,-22.871 -19.84,-44.261 -37.35,-64.172 -39.65,-44.64 -90.09,-66.949 -151.32,-66.949 -59.76,0 -110.95,21.59 -153.54,64.731 -42.6,43.34 -63.91,95.359 -63.91,156.039 0,61.961 21.67,114.519 65.02,157.672 43.34,43.339 96.08,65.007 158.24,65.007 33.38,0 64.55,-6.777 93.5,-20.367 27.66,-13.59 54.87,-35.652 81.61,-66.211 l -45.92,-43.98 c -35.05,46.66 -77.74,69.988 -128.09,69.988 -45.18,0 -83.08,-15.598 -113.7,-46.758 -30.61,-30.609 -45.92,-68.968 -45.92,-115.09 0,-47.57 17.06,-86.769 51.18,-117.57 31.9,-28.582 66.48,-42.879 103.73,-42.879 31.73,0 60.22,10.668 85.49,32.008 25.27,21.531 39.38,47.281 42.32,77.262 h -106.5 v 60.597"
         style="fill:#ffffff;fill-opacity:1;fill-rule:nonzero;stroke:none"
         id="path24" />
      <path
         d="m 3318.85,966.859 v -366.55 h 125.6 v -60.598 h -190.06 v 427.148 h 64.46"
         style="fill:#ffffff;fill-opacity:1;fill-rule:nonzero;stroke:none"
         id="path26" />
      <path
         d="m 3775.59,704.039 -63.35,145.25 -66.4,-145.25 z m 26.29,-60.578 h -182.86 l -47.59,-103.75 h -69.44 l 211.36,453.988 203.9,-453.988 h -70.56 l -44.81,103.75"
         style="fill:#ffffff;fill-opacity:1;fill-rule:nonzero;stroke:none"
         id="path28" />
      <path
         d="m 4204.94,903.512 -52.29,-30.981 c -9.77,16.957 -19.08,28.02 -27.93,33.188 -9.24,5.902 -21.13,8.859 -35.68,8.859 -17.91,0 -32.74,-5.09 -44.56,-15.238 -11.79,-9.961 -17.69,-22.512 -17.69,-37.641 0,-20.859 15.49,-37.648 46.47,-50.379 l 42.61,-17.449 c 34.67,-14.043 60.02,-31.16 76.08,-51.359 16.03,-20.203 24.06,-44.981 24.06,-74.321 0,-39.32 -13.1,-71.812 -39.29,-97.461 -26.37,-25.839 -59.11,-38.75 -98.21,-38.75 -37.07,0 -67.68,11.02 -91.84,33.071 -23.79,22.019 -38.64,52.961 -44.54,92.801 l 65.28,14.378 c 2.95,-25.082 8.13,-42.41 15.5,-52.011 13.28,-18.438 32.64,-27.66 58.1,-27.66 20.1,0 36.78,6.73 50.07,20.179 13.28,13.453 19.92,30.5 19.92,51.141 0,8.301 -1.15,15.902 -3.46,22.812 -2.31,6.918 -5.9,13.27 -10.79,19.071 -4.89,5.808 -11.2,11.238 -18.96,16.308 -7.74,5.078 -16.96,9.91 -27.66,14.52 l -41.22,17.14 c -58.46,24.7 -87.69,60.821 -87.69,108.36 0,32.07 12.27,58.879 36.8,80.449 24.52,21.75 55.04,32.609 91.56,32.609 49.24,0 87.7,-23.867 115.36,-71.636"
         style="fill:#ffffff;fill-opacity:1;fill-rule:nonzero;stroke:none"
         id="path30" />
      <path
         d="m 2510.08,2172.38 h -62.23 l 624.67,892.23 h 62.23 z M 1998.35,2044.03 3069.2,3573.57 h 62.25 L 2060.58,2044.03 Z m 623.51,1401.33 h 62.22 l -624.66,-892.23 h -62.24 z M 1673.6,1537.64 H 3458.07 V 4086.87 H 1673.6 V 1537.64"
         style="fill:#ffffff;fill-opacity:1;fill-rule:nonzero;stroke:none"
         id="path32" />
    </g>
  </g>
</svg>
