<?xml version="1.0" encoding="UTF-8" standalone="no"?>
<!-- Created with Inkscape (http://www.inkscape.org/) -->

<svg
   version="1.1"
   id="svg2"
   width="680.32001"
   height="680.32001"
   viewBox="0 0 680.32001 680.32001"
   sodipodi:docname="FLAMINGO_rgb.icon.svg"
   inkscape:version="1.3.2 (091e20e, 2023-11-25, custom)"
   xmlns:inkscape="http://www.inkscape.org/namespaces/inkscape"
   xmlns:sodipodi="http://sodipodi.sourceforge.net/DTD/sodipodi-0.dtd"
   xmlns="http://www.w3.org/2000/svg"
   xmlns:svg="http://www.w3.org/2000/svg">
  <defs
     id="defs6" />
  <sodipodi:namedview
     id="namedview4"
     pagecolor="#ffffff"
     bordercolor="#000000"
     borderopacity="0.25"
     inkscape:showpageshadow="2"
     inkscape:pageopacity="0.0"
     inkscape:pagecheckerboard="0"
     inkscape:deskcolor="#d1d1d1"
     showgrid="false"
     inkscape:zoom="1.6859713"
     inkscape:cx="340.16"
     inkscape:cy="340.16"
     inkscape:window-width="2560"
     inkscape:window-height="1361"
     inkscape:window-x="2551"
     inkscape:window-y="-9"
     inkscape:window-maximized="1"
     inkscape:current-layer="g8" />
  <g
     id="g8"
     inkscape:groupmode="layer"
     inkscape:label="ink_ext_XXXXXX"
     transform="matrix(1.3333333,0,0,-1.3333333,0,680.32)">
    <g
       id="g10"
       transform="scale(0.1)">
      <path
         d="M 5102.36,0 H 0 V 5102.36 H 5102.36 V 0"
         style="fill:#8d1c90;fill-opacity:1;fill-rule:nonzero;stroke:none"
         id="path12" />
      <path
         d="m 1549.07,2728.89 782.06,-0.09 v 720.51 c 0,0 -658.89,-592.89 -786.74,-708.28 -4.74,-4.27 -1.7,-12.13 4.68,-12.14"
         style="fill:#ffffff;fill-opacity:1;fill-rule:nonzero;stroke:none"
         id="path30" />
      <path
         d="m 2796.83,2739.15 c 16.15,14.49 720.41,647.89 791.33,711.84 -0.85,0.02 -1.73,0.02 -2.66,0.02 H 2382.16 l -0.01,-722.28 370.89,-0.06 c 20.36,0 35.49,3.62 43.79,10.48"
         style="fill:#ffffff;fill-opacity:1;fill-rule:nonzero;stroke:none"
         id="path32" />
      <path
         d="m 1486.9,2757.83 0.95,0.9 c 797.61,719.89 800.17,720.53 800.63,720.92 21.99,18.5 41.55,22.39 55.6,22.39 H 3585.5 c 12.47,0 50.42,0 61.92,-27.77 4.9,-11.84 5.73,-30.97 -18.18,-54.89 -2.59,-2.58 -794.35,-714.86 -799.23,-718.99 -18.09,-15.31 -43.26,-22.75 -76.97,-22.75 h -0.01 l -1230.52,0.24 c -19.36,0 -43.07,7.3 -51.56,27.81 -4.84,11.67 -5.99,30.2 15.95,52.14 z m -178.7,-156.66 h 1496.68 c 28.64,0.39 58.9,11.05 84.22,35.04 l 950.12,852.72 c 40.01,36.76 3.13,84.62 -40.69,84.17 l -1493.18,-0.01 c -19.62,0 -39.64,-4.91 -54.43,-17.97 L 1273.3,2675.24 c -25.1,-22.57 -39.79,-76.64 34.9,-74.07"
         style="fill:#ffffff;fill-opacity:1;fill-rule:nonzero;stroke:none"
         id="path34" />
      <path
         d="m 2883.51,2566.88 0.77,-764.12 h 0.01 l 126.15,113.74 0.27,114.68 c 0.07,25.46 10.46,39.72 31.1,56.4 l 93.92,83.3 c 20.32,12.83 36.9,2.51 36.84,-22.95 l -0.21,-85.43 122.75,110.66 0.28,118.79 c 0.06,25.45 10.45,39.71 31.08,56.41 l 93.93,83.28 c 20.32,12.84 36.9,2.51 36.85,-22.94 l -0.23,-89.55 122.76,110.67 0.28,120.17 c 0.07,25.45 10.46,39.71 31.09,56.4 l 93.93,83.29 c 20.32,12.84 36.89,2.51 36.83,-22.95 l -0.21,-90.92 117.07,105.55 v 763.95 l -975.26,-878.43"
         style="fill:#ffffff;fill-opacity:1;fill-rule:nonzero;stroke:none"
         id="path36" />
      <path
         d="m 2832.48,2550.39 -1586.63,-0.24 v -761.23 h 310.27 v 70.92 c 0,32.73 26.78,59.49 59.5,59.49 h 187.16 c 32.72,0 59.49,-26.76 59.49,-59.49 v -70.92 h 344.28 v 70.92 c 0,32.73 26.77,59.49 59.49,59.49 h 187.16 c 32.72,0 59.49,-26.76 59.49,-59.49 v -70.92 h 320.59 l -0.8,761.47"
         style="fill:#ffffff;fill-opacity:1;fill-rule:nonzero;stroke:none"
         id="path38" />
    </g>
  </g>
</svg>
