<?xml version="1.0" encoding="UTF-8" standalone="no"?>
<!-- Created with Inkscape (http://www.inkscape.org/) -->

<svg
   version="1.1"
   id="svg2"
   width="680.32001"
   height="680.32001"
   viewBox="0 0 680.32001 680.32001"
   sodipodi:docname="FLAMINGO_rgb.eps"
   xmlns:inkscape="http://www.inkscape.org/namespaces/inkscape"
   xmlns:sodipodi="http://sodipodi.sourceforge.net/DTD/sodipodi-0.dtd"
   xmlns="http://www.w3.org/2000/svg"
   xmlns:svg="http://www.w3.org/2000/svg">
  <defs
     id="defs6" />
  <sodipodi:namedview
     id="namedview4"
     pagecolor="#ffffff"
     bordercolor="#000000"
     borderopacity="0.25"
     inkscape:showpageshadow="2"
     inkscape:pageopacity="0.0"
     inkscape:pagecheckerboard="0"
     inkscape:deskcolor="#d1d1d1" />
  <g
     id="g8"
     inkscape:groupmode="layer"
     inkscape:label="ink_ext_XXXXXX"
     transform="matrix(1.3333333,0,0,-1.3333333,0,680.32)">
    <g
       id="g10"
       transform="scale(0.1)">
      <path
         d="M 5102.36,0 H 0 V 5102.36 H 5102.36 V 0"
         style="fill:#8d1c90;fill-opacity:1;fill-rule:nonzero;stroke:none"
         id="path12" />
      <path
         d="M 1229.55,904.711 H 1080.61 V 802 h 143.68 V 741.359 H 1080.61 V 537.879 H 1016.1 V 965.34 h 213.45 v -60.629"
         style="fill:#ffffff;fill-opacity:1;fill-rule:nonzero;stroke:none"
         id="path14" />
      <path
         d="M 1363.41,965.34 V 598.512 H 1489.1 V 537.879 H 1298.9 V 965.34 h 64.51"
         style="fill:#ffffff;fill-opacity:1;fill-rule:nonzero;stroke:none"
         id="path16" />
      <path
         d="m 1820.52,702.332 -63.41,145.348 -66.44,-145.348 z m 26.3,-60.633 h -183.01 l -47.61,-103.82 h -69.5 l 211.52,454.312 204.05,-454.312 h -70.6 l -44.85,103.82"
         style="fill:#ffffff;fill-opacity:1;fill-rule:nonzero;stroke:none"
         id="path18" />
      <path
         d="m 2018.76,537.879 89.98,459.582 146.73,-332.231 152,332.231 80.84,-459.582 h -66.17 l -41.26,258.019 -126.51,-277.679 -122.93,277.972 -45.96,-258.312 h -66.72"
         style="fill:#ffffff;fill-opacity:1;fill-rule:nonzero;stroke:none"
         id="path20" />
      <path
         d="M 2627.14,965.34 V 537.879 h -64.51 V 965.34 h 64.51"
         style="fill:#ffffff;fill-opacity:1;fill-rule:nonzero;stroke:none"
         id="path22" />
      <path
         d="M 2706.44,537.879 V 994.41 L 3018.17,668.281 V 965.34 h 64.52 V 511.852 L 2770.94,837.148 V 537.879 h -64.5"
         style="fill:#ffffff;fill-opacity:1;fill-rule:nonzero;stroke:none"
         id="path24" />
      <path
         d="m 3394.96,760.469 h 176.64 v -14.117 c 0,-32.122 -3.79,-60.543 -11.36,-85.27 -7.38,-22.891 -19.84,-44.301 -37.37,-64.23 -39.69,-44.68 -90.17,-67 -151.44,-67 -59.8,0 -111.02,21.589 -153.66,64.789 -42.63,43.359 -63.95,95.418 -63.95,156.14 0,62.02 21.69,114.617 65.06,157.809 43.38,43.371 96.16,65.058 158.37,65.058 33.39,0 64.6,-6.796 93.57,-20.386 27.69,-13.614 54.91,-35.692 81.67,-66.274 l -45.96,-44.008 c -35.07,46.68 -77.79,70.032 -128.18,70.032 -45.23,0 -83.15,-15.59 -113.79,-46.782 -30.63,-30.652 -45.96,-69.039 -45.96,-115.179 0,-47.621 17.07,-86.832 51.22,-117.653 31.94,-28.617 66.54,-42.918 103.82,-42.918 31.75,0 60.27,10.68 85.55,32.04 25.29,21.531 39.4,47.3 42.36,77.32 h -106.59 v 60.629"
         style="fill:#ffffff;fill-opacity:1;fill-rule:nonzero;stroke:none"
         id="path26" />
      <path
         d="m 3710.87,752.859 c 0,-47.218 15.87,-86.039 47.62,-116.461 31.56,-30.429 68,-45.636 109.35,-45.636 44.86,0 82.69,15.488 113.52,46.468 30.82,31.34 46.23,69.52 46.23,114.508 0,45.551 -15.23,83.731 -45.68,114.532 -30.27,30.98 -67.74,46.468 -112.41,46.468 -44.48,0 -82.04,-15.488 -112.67,-46.468 -30.64,-30.622 -45.96,-68.418 -45.96,-113.411 z m -65.06,0.692 c 0,60.168 22.05,111.847 66.16,155.039 43.93,43.18 96.72,64.789 158.36,64.789 60.91,0 113.15,-21.789 156.71,-65.348 43.74,-43.562 65.62,-95.883 65.62,-156.98 0,-61.449 -21.98,-113.602 -65.9,-156.41 -44.11,-43.012 -97.37,-64.52 -159.75,-64.52 -55.18,0 -104.74,19.109 -148.67,57.32 -48.36,42.25 -72.53,97.629 -72.53,166.11"
         style="fill:#ffffff;fill-opacity:1;fill-rule:nonzero;stroke:none"
         id="path28" />
      <path
         d="m 1549.07,2728.89 782.06,-0.09 v 720.51 c 0,0 -658.89,-592.89 -786.74,-708.28 -4.74,-4.27 -1.7,-12.13 4.68,-12.14"
         style="fill:#ffffff;fill-opacity:1;fill-rule:nonzero;stroke:none"
         id="path30" />
      <path
         d="m 2796.83,2739.15 c 16.15,14.49 720.41,647.89 791.33,711.84 -0.85,0.02 -1.73,0.02 -2.66,0.02 H 2382.16 l -0.01,-722.28 370.89,-0.06 c 20.36,0 35.49,3.62 43.79,10.48"
         style="fill:#ffffff;fill-opacity:1;fill-rule:nonzero;stroke:none"
         id="path32" />
      <path
         d="m 1486.9,2757.83 0.95,0.9 c 797.61,719.89 800.17,720.53 800.63,720.92 21.99,18.5 41.55,22.39 55.6,22.39 H 3585.5 c 12.47,0 50.42,0 61.92,-27.77 4.9,-11.84 5.73,-30.97 -18.18,-54.89 -2.59,-2.58 -794.35,-714.86 -799.23,-718.99 -18.09,-15.31 -43.26,-22.75 -76.97,-22.75 h -0.01 l -1230.52,0.24 c -19.36,0 -43.07,7.3 -51.56,27.81 -4.84,11.67 -5.99,30.2 15.95,52.14 z m -178.7,-156.66 h 1496.68 c 28.64,0.39 58.9,11.05 84.22,35.04 l 950.12,852.72 c 40.01,36.76 3.13,84.62 -40.69,84.17 l -1493.18,-0.01 c -19.62,0 -39.64,-4.91 -54.43,-17.97 L 1273.3,2675.24 c -25.1,-22.57 -39.79,-76.64 34.9,-74.07"
         style="fill:#ffffff;fill-opacity:1;fill-rule:nonzero;stroke:none"
         id="path34" />
      <path
         d="m 2883.51,2566.88 0.77,-764.12 h 0.01 l 126.15,113.74 0.27,114.68 c 0.07,25.46 10.46,39.72 31.1,56.4 l 93.92,83.3 c 20.32,12.83 36.9,2.51 36.84,-22.95 l -0.21,-85.43 122.75,110.66 0.28,118.79 c 0.06,25.45 10.45,39.71 31.08,56.41 l 93.93,83.28 c 20.32,12.84 36.9,2.51 36.85,-22.94 l -0.23,-89.55 122.76,110.67 0.28,120.17 c 0.07,25.45 10.46,39.71 31.09,56.4 l 93.93,83.29 c 20.32,12.84 36.89,2.51 36.83,-22.95 l -0.21,-90.92 117.07,105.55 v 763.95 l -975.26,-878.43"
         style="fill:#ffffff;fill-opacity:1;fill-rule:nonzero;stroke:none"
         id="path36" />
      <path
         d="m 2832.48,2550.39 -1586.63,-0.24 v -761.23 h 310.27 v 70.92 c 0,32.73 26.78,59.49 59.5,59.49 h 187.16 c 32.72,0 59.49,-26.76 59.49,-59.49 v -70.92 h 344.28 v 70.92 c 0,32.73 26.77,59.49 59.49,59.49 h 187.16 c 32.72,0 59.49,-26.76 59.49,-59.49 v -70.92 h 320.59 l -0.8,761.47"
         style="fill:#ffffff;fill-opacity:1;fill-rule:nonzero;stroke:none"
         id="path38" />
    </g>
  </g>
</svg>
