<?xml version="1.0" encoding="UTF-8" standalone="no"?>
<!-- Created with Inkscape (http://www.inkscape.org/) -->

<svg
   version="1.1"
   id="svg2"
   width="680.32001"
   height="680.32001"
   viewBox="0 0 680.32001 680.32001"
   sodipodi:docname="FLISER_rgb.eps"
   xmlns:inkscape="http://www.inkscape.org/namespaces/inkscape"
   xmlns:sodipodi="http://sodipodi.sourceforge.net/DTD/sodipodi-0.dtd"
   xmlns="http://www.w3.org/2000/svg"
   xmlns:svg="http://www.w3.org/2000/svg">
  <defs
     id="defs6" />
  <sodipodi:namedview
     id="namedview4"
     pagecolor="#ffffff"
     bordercolor="#000000"
     borderopacity="0.25"
     inkscape:showpageshadow="2"
     inkscape:pageopacity="0.0"
     inkscape:pagecheckerboard="0"
     inkscape:deskcolor="#d1d1d1" />
  <g
     id="g8"
     inkscape:groupmode="layer"
     inkscape:label="ink_ext_XXXXXX"
     transform="matrix(1.3333333,0,0,-1.3333333,0,680.32)">
    <g
       id="g10"
       transform="scale(0.1)">
      <path
         d="M 5102.36,0 H 0 V 5102.36 H 5102.36 V 0"
         style="fill:#21508c;fill-opacity:1;fill-rule:nonzero;stroke:none"
         id="path12" />
      <path
         d="M 1969.69,894.449 H 1820.75 V 791.738 h 143.68 V 731.109 H 1820.75 V 527.621 h -64.51 V 955.09 h 213.45 v -60.641"
         style="fill:#ffffff;fill-opacity:1;fill-rule:nonzero;stroke:none"
         id="path14" />
      <path
         d="M 2108.95,955.09 V 588.25 h 125.7 v -60.629 h -190.2 V 955.09 h 64.5"
         style="fill:#ffffff;fill-opacity:1;fill-rule:nonzero;stroke:none"
         id="path16" />
      <path
         d="M 2372.94,955.09 V 527.621 h -64.51 V 955.09 h 64.51"
         style="fill:#ffffff;fill-opacity:1;fill-rule:nonzero;stroke:none"
         id="path18" />
      <path
         d="m 2704.74,891.41 -52.32,-31.012 c -9.79,16.981 -19.1,28.051 -27.96,33.223 -9.23,5.91 -21.14,8.859 -35.72,8.859 -17.9,0 -32.76,-5.082 -44.57,-15.23 -11.81,-9.961 -17.72,-22.52 -17.72,-37.648 0,-20.864 15.5,-37.653 46.51,-50.391 l 42.64,-17.441 c 34.69,-14.032 60.08,-31.141 76.13,-51.348 16.06,-20.211 24.09,-44.992 24.09,-74.34 0,-39.312 -13.11,-71.801 -39.31,-97.453 -26.4,-25.848 -59.16,-38.758 -98.29,-38.758 -37.1,0 -67.73,10.981 -91.91,32.938 -23.81,21.972 -38.67,52.882 -44.58,92.75 l 65.34,14.402 c 2.95,-25.109 8.12,-42.461 15.51,-52.051 13.29,-18.461 32.66,-27.691 58.13,-27.691 20.12,0 36.83,6.742 50.11,20.211 13.29,13.468 19.94,30.55 19.94,51.218 0,8.313 -1.16,15.922 -3.46,22.84 -2.31,6.922 -5.91,13.293 -10.8,19.102 -4.89,5.82 -11.21,11.262 -18.96,16.34 -7.76,5.07 -16.99,9.922 -27.69,14.531 l -41.25,17.168 c -58.51,24.73 -87.76,60.91 -87.76,108.531 0,32.11 12.27,58.969 36.82,80.559 24.54,21.781 55.09,32.672 91.64,32.672 49.28,0 87.76,-23.993 115.44,-71.981"
         style="fill:#ffffff;fill-opacity:1;fill-rule:nonzero;stroke:none"
         id="path20" />
      <path
         d="M 3029.5,894.449 H 2858.12 V 791.738 h 166.39 V 731.109 H 2858.12 V 588.25 H 3029.5 V 527.621 H 2793.62 V 955.09 h 235.88 v -60.641"
         style="fill:#ffffff;fill-opacity:1;fill-rule:nonzero;stroke:none"
         id="path22" />
      <path
         d="m 3178.72,758.789 h 20.49 c 61.09,0 91.64,23.352 91.64,70.051 0,43.742 -29.72,65.609 -89.15,65.609 h -22.98 z m 80.29,-49 132.34,-182.168 h -78.91 L 3190.35,702.59 h -11.63 V 527.621 h -64.51 V 955.09 h 75.59 c 56.47,0 97.26,-10.621 122.37,-31.84 27.68,-23.629 41.52,-54.82 41.52,-93.578 0,-30.274 -8.67,-56.301 -26.02,-78.07 -17.35,-21.782 -40.24,-35.723 -68.66,-41.813"
         style="fill:#ffffff;fill-opacity:1;fill-rule:nonzero;stroke:none"
         id="path24" />
      <path
         d="M 1963.92,3179.75 1586.77,3556.9 1477.5,3447.64 H 876.477 L 596.246,3167.4 973.395,2790.26 1082.66,2899.52 h 601.02 l 280.24,280.23"
         style="fill:#ffffff;fill-opacity:1;fill-rule:nonzero;stroke:none"
         id="path26" />
      <path
         d="m 2109.26,3325.1 h 601.03 l 280.23,280.23 -377.15,377.15 -109.27,-109.27 H 1903.08 L 1622.85,3592.98 2000,3215.83 2109.26,3325.1"
         style="fill:#ffffff;fill-opacity:1;fill-rule:nonzero;stroke:none"
         id="path28" />
      <path
         d="m 2526.95,2740.11 v 533.37 h -396.31 l -424.98,-424.99 h -154.53 v -533.37 h 396.31 l 424.99,424.99 h 154.52"
         style="fill:#ffffff;fill-opacity:1;fill-rule:nonzero;stroke:none"
         id="path30" />
      <path
         d="M 2577.98,3274.07 V 2740.7 h 396.31 l 424.99,424.99 h 154.52 v 533.37 H 3157.49 L 2732.5,3274.07 h -154.52"
         style="fill:#ffffff;fill-opacity:1;fill-rule:nonzero;stroke:none"
         id="path32" />
      <path
         d="m 2994.61,2689.08 h -601.03 l -280.23,-280.23 377.15,-377.15 109.27,109.26 h 601.02 l 280.23,280.24 -377.15,377.15 -109.26,-109.27"
         style="fill:#ffffff;fill-opacity:1;fill-rule:nonzero;stroke:none"
         id="path34" />
      <path
         d="m 4130.48,3223.92 -109.27,-109.26 h -601.02 l -280.24,-280.23 377.15,-377.15 109.27,109.26 h 601.02 l 280.23,280.23 -377.14,377.15"
         style="fill:#ffffff;fill-opacity:1;fill-rule:nonzero;stroke:none"
         id="path36" />
    </g>
  </g>
</svg>
