<?xml version="1.0" encoding="UTF-8" standalone="no"?>
<!-- Created with Inkscape (http://www.inkscape.org/) -->

<svg
   version="1.1"
   id="svg2"
   width="680.32001"
   height="680.32001"
   viewBox="0 0 680.32001 680.32001"
   sodipodi:docname="FYRVAERKERI_rgb.icon.svg"
   inkscape:version="1.3.2 (091e20e, 2023-11-25, custom)"
   xmlns:inkscape="http://www.inkscape.org/namespaces/inkscape"
   xmlns:sodipodi="http://sodipodi.sourceforge.net/DTD/sodipodi-0.dtd"
   xmlns="http://www.w3.org/2000/svg"
   xmlns:svg="http://www.w3.org/2000/svg">
  <defs
     id="defs6" />
  <sodipodi:namedview
     id="namedview4"
     pagecolor="#ffffff"
     bordercolor="#000000"
     borderopacity="0.25"
     inkscape:showpageshadow="2"
     inkscape:pageopacity="0.0"
     inkscape:pagecheckerboard="0"
     inkscape:deskcolor="#d1d1d1"
     inkscape:zoom="1.6859713"
     inkscape:cx="340.16"
     inkscape:cy="340.16"
     inkscape:window-width="2560"
     inkscape:window-height="1361"
     inkscape:window-x="2551"
     inkscape:window-y="-9"
     inkscape:window-maximized="1"
     inkscape:current-layer="g8" />
  <g
     id="g8"
     inkscape:groupmode="layer"
     inkscape:label="ink_ext_XXXXXX"
     transform="matrix(1.3333333,0,0,-1.3333333,0,680.32)">
    <g
       id="g10"
       transform="scale(0.1)">
      <path
         d="M 5102.36,0 H 0 V 5102.36 H 5102.36 V 0"
         style="fill:#ea1d2c;fill-opacity:1;fill-rule:nonzero;stroke:none"
         id="path12" />
      <path
         d="m 4334.64,4181.33 c -2.76,3.8 -7.3,5.54 -11.64,4.92 l -371.91,-32.59 238.69,-328.53 146.25,344.27 c 1.59,3.81 1.23,8.34 -1.39,11.93"
         style="fill:#ffffff;fill-opacity:1;fill-rule:nonzero;stroke:none"
         id="path34" />
      <path
         d="m 2272.06,3144.66 0.75,-180.05 c 16.85,-1.29 33.91,-1.19 51.02,0.38 l -0.75,180.32 c -17.18,-3.76 -34.49,-3.83 -51.02,-0.65"
         style="fill:#ffffff;fill-opacity:1;fill-rule:nonzero;stroke:none"
         id="path36" />
      <path
         d="m 2322.04,3394.82 -0.76,180.28 c -16.83,1.41 -33.9,1.41 -51.02,-0.05 l 0.75,-180.03 c 17.22,3.46 34.54,3.25 51.03,-0.2"
         style="fill:#ffffff;fill-opacity:1;fill-rule:nonzero;stroke:none"
         id="path38" />
      <path
         d="m 2170.99,3295.29 -180.19,-0.76 c -1.37,-16.83 -1.33,-33.9 0.16,-51.02 l 180.12,0.75 c -3.55,17.21 -3.45,34.53 -0.09,51.03"
         style="fill:#ffffff;fill-opacity:1;fill-rule:nonzero;stroke:none"
         id="path40" />
      <path
         d="m 2367.66,3164.35 127.81,-126.75 c 13.01,11.17 24.96,23.35 35.79,36.37 l -128,126.94 c -9.16,-14.25 -21.17,-26.77 -35.6,-36.56"
         style="fill:#ffffff;fill-opacity:1;fill-rule:nonzero;stroke:none"
         id="path42" />
      <path
         d="m 2226.08,3376.61 -128.01,126.94 c -13.08,-11.08 -25.12,-23.18 -36.02,-36.13 l 127.81,-126.75 c 9.38,14.09 21.61,26.37 36.22,35.94"
         style="fill:#ffffff;fill-opacity:1;fill-rule:nonzero;stroke:none"
         id="path44" />
      <path
         d="m 2402.57,3340.07 140.67,110.54 c -10.14,13.88 -21.35,26.77 -33.48,38.58 l -141.82,-111.44 4.44,-5.64 c 11.69,-8.72 21.95,-19.5 30.19,-32.04"
         style="fill:#ffffff;fill-opacity:1;fill-rule:nonzero;stroke:none"
         id="path46" />
      <path
         d="m 2190.16,3198.75 -126.81,-127.87 c 11.15,-13.03 23.31,-25 36.31,-35.85 l 126.88,127.95 c -14.21,9.21 -26.66,21.28 -36.38,35.77"
         style="fill:#ffffff;fill-opacity:1;fill-rule:nonzero;stroke:none"
         id="path48" />
      <path
         d="m 3908.83,4125.03 -975.44,-708.69 29.11,-40.07 c -52.79,-38.35 -123.92,-62.61 -217.42,-74.13 -84.69,-10.44 -176,-9.37 -264.31,-8.34 -20.62,0.24 -40.36,0.47 -59.9,0.56 1.53,-7.89 2.35,-16.02 2.35,-24.36 0,-9.14 -0.98,-18.06 -2.81,-26.66 19.45,-0.09 39.16,-0.32 59.76,-0.56 26.25,-0.31 52.99,-0.62 79.99,-0.62 155.79,0 318.93,10.45 432.34,92.83 l 28.35,-39.03 L 765.328,1656.97 v -126.15 l 2315.502,1682.58 92.49,-127.29 975.43,708.69 -239.92,330.23"
         style="fill:#ffffff;fill-opacity:1;fill-rule:nonzero;stroke:none"
         id="path50" />
    </g>
  </g>
</svg>
