<?xml version="1.0" encoding="UTF-8" standalone="no"?>
<!-- Created with Inkscape (http://www.inkscape.org/) -->

<svg
   version="1.1"
   id="svg2"
   width="680.32001"
   height="680.32001"
   viewBox="0 0 680.32001 680.32001"
   sodipodi:docname="FYRVAERKERI_rgb.eps"
   xmlns:inkscape="http://www.inkscape.org/namespaces/inkscape"
   xmlns:sodipodi="http://sodipodi.sourceforge.net/DTD/sodipodi-0.dtd"
   xmlns="http://www.w3.org/2000/svg"
   xmlns:svg="http://www.w3.org/2000/svg">
  <defs
     id="defs6" />
  <sodipodi:namedview
     id="namedview4"
     pagecolor="#ffffff"
     bordercolor="#000000"
     borderopacity="0.25"
     inkscape:showpageshadow="2"
     inkscape:pageopacity="0.0"
     inkscape:pagecheckerboard="0"
     inkscape:deskcolor="#d1d1d1" />
  <g
     id="g8"
     inkscape:groupmode="layer"
     inkscape:label="ink_ext_XXXXXX"
     transform="matrix(1.3333333,0,0,-1.3333333,0,680.32)">
    <g
       id="g10"
       transform="scale(0.1)">
      <path
         d="M 5102.36,0 H 0 V 5102.36 H 5102.36 V 0"
         style="fill:#ea1d2c;fill-opacity:1;fill-rule:nonzero;stroke:none"
         id="path12" />
      <path
         d="M 1112.9,899.68 H 963.953 V 796.969 H 1107.64 V 736.34 H 963.953 V 532.84 H 899.449 V 960.309 H 1112.9 V 899.68"
         style="fill:#ffffff;fill-opacity:1;fill-rule:nonzero;stroke:none"
         id="path14" />
      <path
         d="m 1301.05,717.512 -139.54,242.797 h 74.2 l 97.73,-170.821 98.01,170.821 h 74.19 L 1365.56,717.512 V 532.84 h -64.51 v 184.672"
         style="fill:#ffffff;fill-opacity:1;fill-rule:nonzero;stroke:none"
         id="path16" />
      <path
         d="m 1621.24,764.031 h 20.48 c 61.09,0 91.64,23.34 91.64,70.028 0,43.75 -29.72,65.621 -89.15,65.621 h -22.97 z m 80.28,-49.011 132.34,-182.18 h -78.9 l -122.1,174.98 h -11.62 V 532.84 h -64.51 v 427.469 h 75.58 c 56.47,0 97.26,-10.61 122.37,-31.829 27.68,-23.628 41.53,-54.832 41.53,-93.589 0,-30.27 -8.68,-56.282 -26.03,-78.063 -17.35,-21.789 -40.24,-35.719 -68.66,-41.808"
         style="fill:#ffffff;fill-opacity:1;fill-rule:nonzero;stroke:none"
         id="path18" />
      <path
         d="m 1904.45,960.309 118.23,-296.239 119.87,296.239 h 70.6 L 2021.29,500.73 1833.86,960.309 h 70.59"
         style="fill:#ffffff;fill-opacity:1;fill-rule:nonzero;stroke:none"
         id="path20" />
      <path
         d="m 2404.69,695.641 -61.18,140.078 -65.9,-140.078 z m 25.74,-60.629 H 2248.82 L 2202.03,532.84 h -70.6 l 205.43,427.469 h 189.09 l 26.86,-60.629 h -170.27 l 45.13,-103.539 h 165.56 l 27.13,-60.629 h -165.83 l 60.9,-142.032 h 170.82 l 26.03,-60.64 h -236.99 l -44.86,102.172"
         style="fill:#ffffff;fill-opacity:1;fill-rule:nonzero;stroke:none"
         id="path22" />
      <path
         d="m 2834.65,764.031 h 20.49 c 61.08,0 91.64,23.34 91.64,70.028 0,43.75 -29.73,65.621 -89.15,65.621 h -22.98 z m 80.28,-49.011 132.35,-182.18 h -78.91 l -122.09,174.98 h -11.63 V 532.84 h -64.51 v 427.469 h 75.58 c 56.48,0 97.27,-10.61 122.38,-31.829 27.68,-23.628 41.52,-54.832 41.52,-93.589 0,-30.27 -8.68,-56.282 -26.03,-78.063 -17.35,-21.789 -40.23,-35.719 -68.66,-41.808"
         style="fill:#ffffff;fill-opacity:1;fill-rule:nonzero;stroke:none"
         id="path24" />
      <path
         d="m 3176.01,789.77 166.39,170.539 h 86.11 L 3235.25,766.789 3429.61,532.84 h -86.38 L 3189.3,723.051 3176.01,709.762 V 532.84 h -64.51 v 427.469 h 64.51 V 789.77"
         style="fill:#ffffff;fill-opacity:1;fill-rule:nonzero;stroke:none"
         id="path26" />
      <path
         d="M 3732.08,899.68 H 3560.7 V 796.969 h 166.4 V 736.34 H 3560.7 V 593.48 h 171.38 V 532.84 H 3496.2 v 427.469 h 235.88 V 899.68"
         style="fill:#ffffff;fill-opacity:1;fill-rule:nonzero;stroke:none"
         id="path28" />
      <path
         d="m 3865.1,764.031 h 20.49 c 61.08,0 91.64,23.34 91.64,70.028 0,43.75 -29.72,65.621 -89.15,65.621 h -22.98 z m 80.28,-49.011 132.34,-182.18 h -78.9 L 3876.73,707.82 H 3865.1 V 532.84 h -64.5 v 427.469 h 75.57 c 56.48,0 97.27,-10.61 122.37,-31.829 27.69,-23.628 41.53,-54.832 41.53,-93.589 0,-30.27 -8.67,-56.282 -26.03,-78.063 -17.35,-21.789 -40.23,-35.719 -68.66,-41.808"
         style="fill:#ffffff;fill-opacity:1;fill-rule:nonzero;stroke:none"
         id="path30" />
      <path
         d="M 4202.86,960.309 V 532.84 h -64.51 v 427.469 h 64.51"
         style="fill:#ffffff;fill-opacity:1;fill-rule:nonzero;stroke:none"
         id="path32" />
      <path
         d="m 4334.64,4181.33 c -2.76,3.8 -7.3,5.54 -11.64,4.92 l -371.91,-32.59 238.69,-328.53 146.25,344.27 c 1.59,3.81 1.23,8.34 -1.39,11.93"
         style="fill:#ffffff;fill-opacity:1;fill-rule:nonzero;stroke:none"
         id="path34" />
      <path
         d="m 2272.06,3144.66 0.75,-180.05 c 16.85,-1.29 33.91,-1.19 51.02,0.38 l -0.75,180.32 c -17.18,-3.76 -34.49,-3.83 -51.02,-0.65"
         style="fill:#ffffff;fill-opacity:1;fill-rule:nonzero;stroke:none"
         id="path36" />
      <path
         d="m 2322.04,3394.82 -0.76,180.28 c -16.83,1.41 -33.9,1.41 -51.02,-0.05 l 0.75,-180.03 c 17.22,3.46 34.54,3.25 51.03,-0.2"
         style="fill:#ffffff;fill-opacity:1;fill-rule:nonzero;stroke:none"
         id="path38" />
      <path
         d="m 2170.99,3295.29 -180.19,-0.76 c -1.37,-16.83 -1.33,-33.9 0.16,-51.02 l 180.12,0.75 c -3.55,17.21 -3.45,34.53 -0.09,51.03"
         style="fill:#ffffff;fill-opacity:1;fill-rule:nonzero;stroke:none"
         id="path40" />
      <path
         d="m 2367.66,3164.35 127.81,-126.75 c 13.01,11.17 24.96,23.35 35.79,36.37 l -128,126.94 c -9.16,-14.25 -21.17,-26.77 -35.6,-36.56"
         style="fill:#ffffff;fill-opacity:1;fill-rule:nonzero;stroke:none"
         id="path42" />
      <path
         d="m 2226.08,3376.61 -128.01,126.94 c -13.08,-11.08 -25.12,-23.18 -36.02,-36.13 l 127.81,-126.75 c 9.38,14.09 21.61,26.37 36.22,35.94"
         style="fill:#ffffff;fill-opacity:1;fill-rule:nonzero;stroke:none"
         id="path44" />
      <path
         d="m 2402.57,3340.07 140.67,110.54 c -10.14,13.88 -21.35,26.77 -33.48,38.58 l -141.82,-111.44 4.44,-5.64 c 11.69,-8.72 21.95,-19.5 30.19,-32.04"
         style="fill:#ffffff;fill-opacity:1;fill-rule:nonzero;stroke:none"
         id="path46" />
      <path
         d="m 2190.16,3198.75 -126.81,-127.87 c 11.15,-13.03 23.31,-25 36.31,-35.85 l 126.88,127.95 c -14.21,9.21 -26.66,21.28 -36.38,35.77"
         style="fill:#ffffff;fill-opacity:1;fill-rule:nonzero;stroke:none"
         id="path48" />
      <path
         d="m 3908.83,4125.03 -975.44,-708.69 29.11,-40.07 c -52.79,-38.35 -123.92,-62.61 -217.42,-74.13 -84.69,-10.44 -176,-9.37 -264.31,-8.34 -20.62,0.24 -40.36,0.47 -59.9,0.56 1.53,-7.89 2.35,-16.02 2.35,-24.36 0,-9.14 -0.98,-18.06 -2.81,-26.66 19.45,-0.09 39.16,-0.32 59.76,-0.56 26.25,-0.31 52.99,-0.62 79.99,-0.62 155.79,0 318.93,10.45 432.34,92.83 l 28.35,-39.03 L 765.328,1656.97 v -126.15 l 2315.502,1682.58 92.49,-127.29 975.43,708.69 -239.92,330.23"
         style="fill:#ffffff;fill-opacity:1;fill-rule:nonzero;stroke:none"
         id="path50" />
    </g>
  </g>
</svg>
