<?xml version="1.0" encoding="UTF-8" standalone="no"?>
<!-- Created with Inkscape (http://www.inkscape.org/) -->

<svg
   version="1.1"
   id="svg2"
   width="680.32001"
   height="680.32001"
   viewBox="0 0 680.32001 680.32001"
   sodipodi:docname="GENBRUG_rgb.icon.svg"
   inkscape:version="1.3.2 (091e20e, 2023-11-25, custom)"
   xmlns:inkscape="http://www.inkscape.org/namespaces/inkscape"
   xmlns:sodipodi="http://sodipodi.sourceforge.net/DTD/sodipodi-0.dtd"
   xmlns="http://www.w3.org/2000/svg"
   xmlns:svg="http://www.w3.org/2000/svg">
  <defs
     id="defs6" />
  <sodipodi:namedview
     id="namedview4"
     pagecolor="#ffffff"
     bordercolor="#000000"
     borderopacity="0.25"
     inkscape:showpageshadow="2"
     inkscape:pageopacity="0.0"
     inkscape:pagecheckerboard="0"
     inkscape:deskcolor="#d1d1d1"
     inkscape:zoom="1.6859713"
     inkscape:cx="340.16"
     inkscape:cy="340.16"
     inkscape:window-width="2560"
     inkscape:window-height="1361"
     inkscape:window-x="2551"
     inkscape:window-y="-9"
     inkscape:window-maximized="1"
     inkscape:current-layer="g8" />
  <g
     id="g8"
     inkscape:groupmode="layer"
     inkscape:label="ink_ext_XXXXXX"
     transform="matrix(1.3333333,0,0,-1.3333333,0,680.32)">
    <g
       id="g10"
       transform="scale(0.1)">
      <path
         d="M 5102.36,-0.0117188 H 0.00390625 V 5102.36 H 5102.36 V -0.0117188"
         style="fill:#76cb4d;fill-opacity:1;fill-rule:nonzero;stroke:none"
         id="path12" />
      <path
         d="m 2161.43,3556.15 c 113.9,64.87 243.23,99.39 377.85,99.39 204.44,0 396.64,-79.61 541.19,-224.17 46.33,-46.34 85.99,-97.58 118.49,-152.54 l -253.91,-150.79 665.97,-239.67 84.45,685.31 -233.34,-138.58 c -45.65,77.25 -100.9,148.47 -165.19,212.75 -98.35,98.35 -212.93,175.59 -340.54,229.57 -132.19,55.91 -272.54,84.26 -417.12,84.26 -144.58,0 -284.92,-28.35 -417.12,-84.26 -5.35,-2.26 -10.67,-4.58 -15.97,-6.92 l 55.24,-314.35"
         style="fill:#ffffff;fill-opacity:1;fill-rule:nonzero;stroke:none"
         id="path28" />
      <path
         d="m 2158.14,2226.14 c -57.81,33.29 -111.6,74.42 -160.05,122.86 -144.55,144.56 -224.16,336.75 -224.16,541.19 0,136.14 35.31,266.85 101.59,381.67 l 257.83,-145.53 -122.39,696.44 -636.64,-268 234.68,-132.46 c -21.19,-37.01 -40.19,-75.38 -56.95,-115 -55.91,-132.2 -84.26,-272.54 -84.26,-417.12 0,-144.59 28.35,-284.93 84.26,-417.13 53.98,-127.61 131.21,-242.18 229.57,-340.54 40.48,-40.47 83.72,-77.34 129.47,-110.51 l 247.05,204.13"
         style="fill:#ffffff;fill-opacity:1;fill-rule:nonzero;stroke:none"
         id="path30" />
      <path
         d="M 3304.64,2890.08 C 3304.61,2685.69 3225,2493.53 3080.47,2349 2937.67,2206.21 2748.4,2126.79 2546.76,2124.88 l 0.04,289.34 -546.11,-450.55 545.96,-422.72 0.05,277.78 c 141.97,0.96 279.77,29.27 409.7,84.22 127.61,53.98 242.19,131.22 340.54,229.57 98.36,98.36 175.6,212.93 229.57,340.54 41.85,98.95 68.24,202.46 78.88,308.89 l -300.75,108.13"
         style="fill:#ffffff;fill-opacity:1;fill-rule:nonzero;stroke:none"
         id="path32" />
    </g>
  </g>
</svg>
