<?xml version="1.0" encoding="UTF-8" standalone="no"?>
<!-- Created with Inkscape (http://www.inkscape.org/) -->

<svg
   version="1.1"
   id="svg2"
   width="680.32001"
   height="680.32001"
   viewBox="0 0 680.32001 680.32001"
   sodipodi:docname="GENBRUG_rgb.eps"
   xmlns:inkscape="http://www.inkscape.org/namespaces/inkscape"
   xmlns:sodipodi="http://sodipodi.sourceforge.net/DTD/sodipodi-0.dtd"
   xmlns="http://www.w3.org/2000/svg"
   xmlns:svg="http://www.w3.org/2000/svg">
  <defs
     id="defs6" />
  <sodipodi:namedview
     id="namedview4"
     pagecolor="#ffffff"
     bordercolor="#000000"
     borderopacity="0.25"
     inkscape:showpageshadow="2"
     inkscape:pageopacity="0.0"
     inkscape:pagecheckerboard="0"
     inkscape:deskcolor="#d1d1d1" />
  <g
     id="g8"
     inkscape:groupmode="layer"
     inkscape:label="ink_ext_XXXXXX"
     transform="matrix(1.3333333,0,0,-1.3333333,0,680.32)">
    <g
       id="g10"
       transform="scale(0.1)">
      <path
         d="M 5102.36,-0.0117188 H 0.00390625 V 5102.36 H 5102.36 V -0.0117188"
         style="fill:#76cb4d;fill-opacity:1;fill-rule:nonzero;stroke:none"
         id="path12" />
      <path
         d="m 1389.84,762.199 h 176.63 v -14.121 c 0,-32.117 -3.79,-60.547 -11.35,-85.269 -7.38,-22.887 -19.84,-44.297 -37.38,-64.227 -39.68,-44.672 -90.16,-67.004 -151.43,-67.004 -59.8,0 -111.02,21.594 -153.66,64.781 -42.64,43.371 -63.96,95.422 -63.96,156.141 0,62.031 21.69,114.621 65.07,157.82 43.37,43.371 96.15,65.059 158.36,65.059 33.4,0 64.6,-6.797 93.58,-20.399 27.68,-13.601 54.9,-35.679 81.67,-66.25 l -45.96,-44.031 c -35.07,46.692 -77.8,70.051 -128.19,70.051 -45.21,0 -83.14,-15.609 -113.78,-46.801 -30.64,-30.629 -45.96,-69.019 -45.96,-115.16 0,-47.617 17.07,-86.848 51.22,-117.668 31.93,-28.609 66.53,-42.91 103.82,-42.91 31.74,0 60.26,10.68 85.55,32.027 25.28,21.543 39.4,47.321 42.36,77.332 h -106.59 v 60.629"
         style="fill:#ffffff;fill-opacity:1;fill-rule:nonzero;stroke:none"
         id="path14" />
      <path
         d="M 1883.47,906.441 H 1712.1 V 803.73 h 166.39 V 743.102 H 1712.1 V 600.238 h 171.37 V 539.602 H 1647.59 V 967.07 h 235.88 v -60.629"
         style="fill:#ffffff;fill-opacity:1;fill-rule:nonzero;stroke:none"
         id="path16" />
      <path
         d="M 1968.19,539.602 V 996.141 L 2279.93,670 v 297.07 h 64.51 V 513.582 L 2032.69,838.891 V 539.602 h -64.5"
         style="fill:#ffffff;fill-opacity:1;fill-rule:nonzero;stroke:none"
         id="path18" />
      <path
         d="m 2511.38,600.238 h 39.87 c 29.16,0 50.56,5.723 64.23,17.172 14.39,12.36 21.59,28.039 21.59,47.059 0,18.453 -6.92,33.953 -20.76,46.511 -13.48,12.36 -37.56,18.551 -72.26,18.551 h -32.67 z m 0,183.282 h 20.21 c 23.99,0 41.57,5.3 52.74,15.921 11.17,10.598 16.75,26.25 16.75,46.918 0,20.121 -5.72,35.391 -17.17,45.821 -11.44,10.429 -28.05,15.648 -49.83,15.648 h -22.7 z M 2446.87,539.602 V 967.07 h 64.23 c 28.61,0 51.4,-2.211 68.38,-6.648 17.17,-4.422 31.66,-11.902 43.47,-22.422 12,-10.891 21.5,-24.461 28.51,-40.699 7.21,-16.43 10.8,-33.039 10.8,-49.832 0,-30.641 -11.72,-56.578 -35.15,-77.797 22.69,-7.75 40.59,-21.32 53.71,-40.692 13.28,-19.199 19.93,-41.531 19.93,-67 0,-33.41 -11.82,-61.652 -35.44,-84.718 -14.22,-14.223 -30.18,-24.09 -47.9,-29.633 -19.38,-5.348 -43.65,-8.027 -72.81,-8.027 h -97.73"
         style="fill:#ffffff;fill-opacity:1;fill-rule:nonzero;stroke:none"
         id="path20" />
      <path
         d="m 2846.65,770.789 h 20.49 c 61.09,0 91.64,23.34 91.64,70.031 0,43.739 -29.72,65.621 -89.15,65.621 h -22.98 z m 80.29,-49.008 132.33,-182.179 h -78.9 L 2858.28,714.57 h -11.63 V 539.602 h -64.5 V 967.07 h 75.57 c 56.49,0 97.27,-10.609 122.37,-31.832 27.69,-23.629 41.53,-54.828 41.53,-93.59 0,-30.269 -8.67,-56.289 -26.02,-78.066 -17.35,-21.781 -40.24,-35.711 -68.66,-41.801"
         style="fill:#ffffff;fill-opacity:1;fill-rule:nonzero;stroke:none"
         id="path22" />
      <path
         d="M 3181.65,967.07 V 709.789 c 0,-36.711 5.99,-63.551 17.99,-80.508 17.91,-24.531 43.09,-36.801 75.58,-36.801 32.67,0 57.95,12.27 75.86,36.801 11.99,16.418 18,43.25 18,80.508 V 967.07 h 64.5 V 691.879 c 0,-45.039 -14.02,-82.141 -42.08,-111.301 -31.56,-32.488 -70.32,-48.726 -116.28,-48.726 -45.96,0 -84.63,16.238 -116,48.726 -28.06,29.16 -42.08,66.262 -42.08,111.301 V 967.07 h 64.51"
         style="fill:#ffffff;fill-opacity:1;fill-rule:nonzero;stroke:none"
         id="path24" />
      <path
         d="m 3755.85,762.199 h 176.63 v -14.121 c 0,-32.117 -3.79,-60.547 -11.35,-85.269 -7.39,-22.887 -19.84,-44.297 -37.38,-64.227 -39.69,-44.672 -90.16,-67.004 -151.44,-67.004 -59.8,0 -111.01,21.594 -153.65,64.781 -42.64,43.371 -63.96,95.422 -63.96,156.141 0,62.031 21.68,114.621 65.06,157.82 43.37,43.371 96.16,65.059 158.36,65.059 33.41,0 64.6,-6.797 93.59,-20.399 27.68,-13.601 54.9,-35.679 81.67,-66.25 l -45.96,-44.031 c -35.07,46.692 -77.8,70.051 -128.18,70.051 -45.23,0 -83.16,-15.609 -113.79,-46.801 -30.65,-30.629 -45.96,-69.019 -45.96,-115.16 0,-47.617 17.07,-86.848 51.21,-117.668 31.93,-28.609 66.54,-42.91 103.83,-42.91 31.74,0 60.25,10.68 85.55,32.027 25.28,21.543 39.4,47.321 42.35,77.332 h -106.58 v 60.629"
         style="fill:#ffffff;fill-opacity:1;fill-rule:nonzero;stroke:none"
         id="path26" />
      <path
         d="m 2161.43,3556.15 c 113.9,64.87 243.23,99.39 377.85,99.39 204.44,0 396.64,-79.61 541.19,-224.17 46.33,-46.34 85.99,-97.58 118.49,-152.54 l -253.91,-150.79 665.97,-239.67 84.45,685.31 -233.34,-138.58 c -45.65,77.25 -100.9,148.47 -165.19,212.75 -98.35,98.35 -212.93,175.59 -340.54,229.57 -132.19,55.91 -272.54,84.26 -417.12,84.26 -144.58,0 -284.92,-28.35 -417.12,-84.26 -5.35,-2.26 -10.67,-4.58 -15.97,-6.92 l 55.24,-314.35"
         style="fill:#ffffff;fill-opacity:1;fill-rule:nonzero;stroke:none"
         id="path28" />
      <path
         d="m 2158.14,2226.14 c -57.81,33.29 -111.6,74.42 -160.05,122.86 -144.55,144.56 -224.16,336.75 -224.16,541.19 0,136.14 35.31,266.85 101.59,381.67 l 257.83,-145.53 -122.39,696.44 -636.64,-268 234.68,-132.46 c -21.19,-37.01 -40.19,-75.38 -56.95,-115 -55.91,-132.2 -84.26,-272.54 -84.26,-417.12 0,-144.59 28.35,-284.93 84.26,-417.13 53.98,-127.61 131.21,-242.18 229.57,-340.54 40.48,-40.47 83.72,-77.34 129.47,-110.51 l 247.05,204.13"
         style="fill:#ffffff;fill-opacity:1;fill-rule:nonzero;stroke:none"
         id="path30" />
      <path
         d="M 3304.64,2890.08 C 3304.61,2685.69 3225,2493.53 3080.47,2349 2937.67,2206.21 2748.4,2126.79 2546.76,2124.88 l 0.04,289.34 -546.11,-450.55 545.96,-422.72 0.05,277.78 c 141.97,0.96 279.77,29.27 409.7,84.22 127.61,53.98 242.19,131.22 340.54,229.57 98.36,98.36 175.6,212.93 229.57,340.54 41.85,98.95 68.24,202.46 78.88,308.89 l -300.75,108.13"
         style="fill:#ffffff;fill-opacity:1;fill-rule:nonzero;stroke:none"
         id="path32" />
    </g>
  </g>
</svg>
