<?xml version="1.0" encoding="UTF-8" standalone="no"?>
<!-- Created with Inkscape (http://www.inkscape.org/) -->

<svg
   version="1.1"
   id="svg2"
   width="680.32001"
   height="680.32001"
   viewBox="0 0 680.32001 680.32001"
   sodipodi:docname="GIPS_rgb.eps"
   xmlns:inkscape="http://www.inkscape.org/namespaces/inkscape"
   xmlns:sodipodi="http://sodipodi.sourceforge.net/DTD/sodipodi-0.dtd"
   xmlns="http://www.w3.org/2000/svg"
   xmlns:svg="http://www.w3.org/2000/svg">
  <defs
     id="defs6" />
  <sodipodi:namedview
     id="namedview4"
     pagecolor="#ffffff"
     bordercolor="#000000"
     borderopacity="0.25"
     inkscape:showpageshadow="2"
     inkscape:pageopacity="0.0"
     inkscape:pagecheckerboard="0"
     inkscape:deskcolor="#d1d1d1" />
  <g
     id="g8"
     inkscape:groupmode="layer"
     inkscape:label="ink_ext_XXXXXX"
     transform="matrix(1.3333333,0,0,-1.3333333,0,680.32)">
    <g
       id="g10"
       transform="scale(0.1)">
      <path
         d="M 5102.36,0 H 0 V 5102.36 H 5102.36 V 0"
         style="fill:#21508b;fill-opacity:1;fill-rule:nonzero;stroke:none"
         id="path12" />
      <path
         d="m 2185,760.25 h 176.64 v -14.121 c 0,-32.109 -3.79,-60.539 -11.35,-85.27 -7.39,-22.89 -19.84,-44.289 -37.38,-64.23 -39.68,-44.668 -90.16,-67 -151.44,-67 -59.8,0 -111.02,21.601 -153.65,64.793 -42.64,43.367 -63.96,95.418 -63.96,156.137 0,62.023 21.69,114.621 65.06,157.812 43.38,43.367 96.17,65.059 158.37,65.059 33.4,0 64.6,-6.801 93.58,-20.391 27.68,-13.598 54.9,-35.687 81.67,-66.258 l -45.96,-44.019 c -35.07,46.687 -77.8,70.039 -128.19,70.039 -45.22,0 -83.15,-15.602 -113.78,-46.789 -30.64,-30.641 -45.96,-69.032 -45.96,-115.172 0,-47.621 17.07,-86.84 51.22,-117.66 31.93,-28.61 66.53,-42.918 103.82,-42.918 31.74,0 60.26,10.679 85.55,32.039 25.28,21.531 39.4,47.308 42.36,77.32 H 2185 v 60.629"
         style="fill:#ffffff;fill-opacity:1;fill-rule:nonzero;stroke:none"
         id="path14" />
      <path
         d="M 2507.27,965.129 V 537.66 h -64.51 v 427.469 h 64.51"
         style="fill:#ffffff;fill-opacity:1;fill-rule:nonzero;stroke:none"
         id="path16" />
      <path
         d="m 2656.47,771.051 h 24.09 c 59.25,0 88.87,22.789 88.87,68.379 0,44.109 -30.55,66.172 -91.64,66.172 h -21.32 z m 0,-59.801 V 537.66 h -64.5 v 427.469 h 73.09 c 35.8,0 62.84,-2.5 81.12,-7.481 18.45,-4.976 34.69,-14.398 48.72,-28.238 24.55,-23.988 36.82,-54.262 36.82,-90.808 0,-39.133 -13.1,-70.141 -39.31,-93.024 -26.21,-22.887 -61.56,-34.328 -106.03,-34.328 h -29.91"
         style="fill:#ffffff;fill-opacity:1;fill-rule:nonzero;stroke:none"
         id="path18" />
      <path
         d="m 3145.27,901.73 -52.33,-31.011 c -9.78,16.98 -19.1,28.051 -27.96,33.222 -9.23,5.911 -21.14,8.86 -35.72,8.86 -17.9,0 -32.76,-5.082 -44.57,-15.242 -11.81,-9.977 -17.72,-22.528 -17.72,-37.68 0,-20.867 15.51,-37.68 46.51,-50.418 l 42.64,-17.449 c 34.7,-14.051 60.08,-31.184 76.13,-51.403 16.06,-20.23 24.09,-45.019 24.09,-74.39 0,-39.34 -13.11,-71.848 -39.31,-97.52 -26.4,-25.859 -59.16,-38.789 -98.28,-38.789 -37.1,0 -67.74,11.031 -91.92,33.102 -23.81,22.039 -38.67,53 -44.57,92.867 l 65.33,14.402 c 2.95,-25.109 8.12,-42.461 15.51,-52.051 13.29,-18.46 32.67,-27.691 58.14,-27.691 20.11,0 36.82,6.731 50.11,20.191 13.29,13.469 19.93,30.532 19.93,51.192 0,8.289 -1.15,15.898 -3.46,22.816 -2.31,6.922 -5.91,13.282 -10.8,19.094 -4.89,5.809 -11.21,11.25 -18.96,16.316 -7.75,5.071 -16.98,9.922 -27.69,14.532 l -41.25,17.148 c -58.51,24.711 -87.76,60.871 -87.76,108.453 0,32.09 12.27,58.93 36.82,80.5 24.54,21.77 55.1,32.649 91.64,32.649 49.28,0 87.76,-23.899 115.45,-71.7"
         style="fill:#ffffff;fill-opacity:1;fill-rule:nonzero;stroke:none"
         id="path20" />
      <path
         d="m 3177.55,2472.54 0.18,-152.7 1065.67,952.65 v 153.19 L 3177.55,2472.54"
         style="fill:#ffffff;fill-opacity:1;fill-rule:nonzero;stroke:none"
         id="path22" />
      <path
         d="M 2526.45,3477.24 863.992,1990.88 H 1995.25 l 216.84,194.46 h 281.82 l 156.48,211.54 494.7,115.08 1079.44,965.28 H 2526.45"
         style="fill:#ffffff;fill-opacity:1;fill-rule:nonzero;stroke:none"
         id="path24" />
      <path
         d="m 2519.64,2134.32 h -286.47 l -186.02,-165.56 0.22,-156.76 187.78,168.65 h 285.48 l 160.3,218.85 445.88,102.66 v 153.03 l -446.57,-103.75 -160.6,-217.12"
         style="fill:#ffffff;fill-opacity:1;fill-rule:nonzero;stroke:none"
         id="path26" />
      <path
         d="M 861.484,1939.85 V 1786.78 H 1996.37 l -0.21,153.07 H 861.484"
         style="fill:#ffffff;fill-opacity:1;fill-rule:nonzero;stroke:none"
         id="path28" />
    </g>
  </g>
</svg>
