<?xml version="1.0" encoding="UTF-8" standalone="no"?>
<!-- Created with Inkscape (http://www.inkscape.org/) -->

<svg
   version="1.1"
   id="svg2"
   width="680.32001"
   height="680.32001"
   viewBox="0 0 680.32001 680.32001"
   sodipodi:docname="GLASULD_rgb.eps"
   xmlns:inkscape="http://www.inkscape.org/namespaces/inkscape"
   xmlns:sodipodi="http://sodipodi.sourceforge.net/DTD/sodipodi-0.dtd"
   xmlns="http://www.w3.org/2000/svg"
   xmlns:svg="http://www.w3.org/2000/svg">
  <defs
     id="defs6" />
  <sodipodi:namedview
     id="namedview4"
     pagecolor="#ffffff"
     bordercolor="#000000"
     borderopacity="0.25"
     inkscape:showpageshadow="2"
     inkscape:pageopacity="0.0"
     inkscape:pagecheckerboard="0"
     inkscape:deskcolor="#d1d1d1" />
  <g
     id="g8"
     inkscape:groupmode="layer"
     inkscape:label="ink_ext_XXXXXX"
     transform="matrix(1.3333333,0,0,-1.3333333,0,680.32)">
    <g
       id="g10"
       transform="scale(0.1)">
      <path
         d="M 5102.36,0 H 0 V 5102.36 H 5102.36 V 0"
         style="fill:#21508b;fill-opacity:1;fill-rule:nonzero;stroke:none"
         id="path12" />
      <path
         d="m 1519.59,758.109 h 176.63 v -14.121 c 0,-32.109 -3.78,-60.539 -11.35,-85.269 -7.38,-22.891 -19.84,-44.289 -37.37,-64.231 -39.69,-44.668 -90.17,-67 -151.44,-67 -59.8,0 -111.02,21.602 -153.66,64.793 -42.63,43.367 -63.95,95.418 -63.95,156.141 0,62.019 21.69,114.617 65.06,157.808 43.37,43.372 96.16,65.059 158.36,65.059 33.41,0 64.6,-6.801 93.58,-20.391 27.69,-13.597 54.91,-35.687 81.67,-66.257 l -45.96,-44.02 c -35.07,46.688 -77.79,70.039 -128.18,70.039 -45.22,0 -83.15,-15.601 -113.79,-46.789 -30.64,-30.641 -45.96,-69.031 -45.96,-115.172 0,-47.617 17.07,-86.84 51.22,-117.66 31.93,-28.609 66.54,-42.918 103.82,-42.918 31.75,0 60.26,10.68 85.55,32.039 25.29,21.539 39.41,47.309 42.36,77.32 h -106.59 v 60.629"
         style="fill:#ffffff;fill-opacity:1;fill-rule:nonzero;stroke:none"
         id="path14" />
      <path
         d="m 1840.05,962.988 v -366.84 h 125.69 V 535.52 h -190.2 v 427.468 h 64.51"
         style="fill:#ffffff;fill-opacity:1;fill-rule:nonzero;stroke:none"
         id="path16" />
      <path
         d="m 2298.95,699.969 -63.4,145.351 -66.45,-145.351 z m 26.3,-60.629 h -183 l -47.62,-103.82 h -69.49 l 211.51,454.32 204.05,-454.32 h -70.6 l -44.85,103.82"
         style="fill:#ffffff;fill-opacity:1;fill-rule:nonzero;stroke:none"
         id="path18" />
      <path
         d="m 2734.03,899.59 -52.33,-31.008 c -9.79,16.977 -19.1,28.047 -27.96,33.219 -9.23,5.91 -21.14,8.859 -35.72,8.859 -17.9,0 -32.76,-5.082 -44.57,-15.238 -11.82,-9.973 -17.72,-22.531 -17.72,-37.684 0,-20.867 15.5,-37.679 46.51,-50.418 l 42.64,-17.449 c 34.7,-14.051 60.07,-31.18 76.13,-51.402 16.06,-20.231 24.09,-45.02 24.09,-74.391 0,-39.34 -13.11,-71.848 -39.31,-97.519 -26.4,-25.86 -59.16,-38.789 -98.29,-38.789 -37.1,0 -67.74,11.031 -91.91,33.101 -23.81,22.039 -38.67,53 -44.58,92.867 l 65.34,14.403 c 2.95,-25.11 8.12,-42.461 15.5,-52.051 13.29,-18.461 32.67,-27.692 58.14,-27.692 20.12,0 36.82,6.731 50.11,20.192 13.29,13.469 19.94,30.531 19.94,51.191 0,8.289 -1.16,15.899 -3.46,22.821 -2.31,6.918 -5.91,13.277 -10.8,19.089 -4.89,5.809 -11.21,11.25 -18.97,16.321 -7.75,5.066 -16.98,9.918 -27.68,14.527 l -41.25,17.152 c -58.51,24.707 -87.77,60.868 -87.77,108.45 0,32.089 12.28,58.929 36.83,80.507 24.54,21.762 55.09,32.641 91.64,32.641 49.28,0 87.76,-23.898 115.45,-71.699"
         style="fill:#ffffff;fill-opacity:1;fill-rule:nonzero;stroke:none"
         id="path20" />
      <path
         d="M 2887.4,962.988 V 705.699 c 0,-36.699 6,-63.539 18,-80.5 17.9,-24.527 43.09,-36.801 75.58,-36.801 32.67,0 57.95,12.274 75.86,36.801 11.99,16.41 17.99,43.25 17.99,80.5 v 257.289 h 64.51 V 687.789 c 0,-45.027 -14.03,-82.129 -42.08,-111.289 -31.56,-32.488 -70.32,-48.73 -116.28,-48.73 -45.96,0 -84.63,16.242 -116,48.73 -28.06,29.16 -42.08,66.262 -42.08,111.289 v 275.199 h 64.5"
         style="fill:#ffffff;fill-opacity:1;fill-rule:nonzero;stroke:none"
         id="path22" />
      <path
         d="m 3291.88,962.988 v -366.84 h 125.7 V 535.52 h -190.2 v 427.468 h 64.5"
         style="fill:#ffffff;fill-opacity:1;fill-rule:nonzero;stroke:none"
         id="path24" />
      <path
         d="m 3561.27,596.148 h 29.07 c 28.97,0 53.06,3.051 72.26,9.141 19.19,6.461 36.54,16.699 52.05,30.731 31.74,28.98 47.62,66.718 47.62,113.23 0,46.879 -15.69,84.898 -47.07,114.07 -28.24,26.02 -69.86,39.039 -124.86,39.039 h -29.07 z m -64.51,-60.628 v 427.468 h 89.7 c 43.01,0 76.97,-4.25 101.89,-12.738 26.76,-8.301 51.03,-22.422 72.81,-42.359 44.11,-40.243 66.17,-93.121 66.17,-158.641 0,-65.711 -22.98,-118.859 -68.94,-159.461 -23.07,-20.309 -47.25,-34.43 -72.54,-42.359 -23.62,-7.942 -57.12,-11.91 -100.49,-11.91 h -88.6"
         style="fill:#ffffff;fill-opacity:1;fill-rule:nonzero;stroke:none"
         id="path26" />
      <path
         d="m 3344.42,1783.79 h -217.91 v 2296.06 h 217.91 V 1783.79"
         style="fill:#ffffff;fill-opacity:1;fill-rule:nonzero;stroke:none"
         id="path28" />
      <path
         d="m 1980.59,1783.79 h -217.9 v 2296.06 h 217.9 V 1783.79"
         style="fill:#ffffff;fill-opacity:1;fill-rule:nonzero;stroke:none"
         id="path30" />
      <path
         d="m 2370.73,3926.78 h 591.01 v 102.05 h -591.89 v -0.01 c -123.87,-0.48 -224.49,-101.38 -224.49,-225.36 0,-124.26 101.1,-225.36 225.37,-225.36 v 0.02 h 365.82 c 67.92,-0.09 123.14,-55.37 123.14,-123.31 0,-67.76 -54.93,-122.92 -122.61,-123.3 h -366.35 v 0.01 c -124.27,0 -225.37,-101.1 -225.37,-225.37 0,-124.27 101.1,-225.37 225.37,-225.37 v 0.02 h 366.18 c 67.75,-0.29 122.78,-55.49 122.78,-123.31 0,-67.87 -55.12,-123.11 -122.95,-123.31 h -366.01 v 0.02 c -124.27,0 -225.37,-101.1 -225.37,-225.36 0,-124.27 101.1,-225.37 225.37,-225.37 v 0.01 h 366.54 v 0 c 67.59,-0.49 122.42,-55.6 122.42,-123.3 0,-68 -55.32,-123.32 -123.32,-123.32 h -591.01 v -102.05 h 592.47 v 0.02 c 123.6,0.79 223.91,101.57 223.91,225.35 0,124.27 -101.1,225.37 -225.37,225.37 v -0.03 h -365.82 c -67.91,0.1 -123.14,55.38 -123.14,123.32 0,67.92 55.2,123.19 123.09,123.31 v -0.01 h 365.87 v -0.01 c 0.25,0 0.49,0.01 0.73,0.01 h 0.17 v 0 c 123.86,0.49 224.47,101.39 224.47,225.35 0,124.27 -101.1,225.37 -225.37,225.37 v -0.01 H 2370.5 v -0.01 c -67.89,0.12 -123.09,55.39 -123.09,123.31 0,67.92 55.2,123.19 123.09,123.31 v 0 h 365.87 v -0.02 c 124.27,0 225.37,101.1 225.37,225.37 0,123.96 -100.61,224.86 -224.47,225.35 v 0.01 h -0.55 c -0.12,0 -0.23,0 -0.35,0 v 0 H 2370.5 v -0.02 c -67.89,0.12 -123.09,55.39 -123.09,123.31 0,68 55.32,123.32 123.32,123.32"
         style="fill:#ffffff;fill-opacity:1;fill-rule:nonzero;stroke:none"
         id="path32" />
    </g>
  </g>
</svg>
