<?xml version="1.0" encoding="UTF-8" standalone="no"?>
<!-- Created with Inkscape (http://www.inkscape.org/) -->

<svg
   version="1.1"
   id="svg2"
   width="681.46667"
   height="682.22668"
   viewBox="0 0 681.46667 682.22668"
   sodipodi:docname="GLAS_rgb.eps"
   xmlns:inkscape="http://www.inkscape.org/namespaces/inkscape"
   xmlns:sodipodi="http://sodipodi.sourceforge.net/DTD/sodipodi-0.dtd"
   xmlns="http://www.w3.org/2000/svg"
   xmlns:svg="http://www.w3.org/2000/svg">
  <defs
     id="defs6" />
  <sodipodi:namedview
     id="namedview4"
     pagecolor="#ffffff"
     bordercolor="#000000"
     borderopacity="0.25"
     inkscape:showpageshadow="2"
     inkscape:pageopacity="0.0"
     inkscape:pagecheckerboard="0"
     inkscape:deskcolor="#d1d1d1" />
  <g
     id="g8"
     inkscape:groupmode="layer"
     inkscape:label="ink_ext_XXXXXX"
     transform="matrix(1.3333333,0,0,-1.3333333,0,682.22667)">
    <g
       id="g10"
       transform="scale(0.1)">
      <path
         d="M -0.00390625,0 H 5111.03 V 5116.68 H -0.00390625 V 0"
         style="fill:#3db586;fill-opacity:1;fill-rule:nonzero;stroke:none"
         id="path12" />
      <path
         d="m 2057.35,768.609 h 176.41 v -14.097 c 0,-32.09 -3.78,-60.461 -11.34,-85.172 -7.37,-22.86 -19.81,-44.238 -37.33,-64.149 -39.63,-44.609 -90.05,-66.921 -151.25,-66.921 -59.73,0 -110.89,21.57 -153.47,64.699 -42.58,43.32 -63.86,95.301 -63.86,155.961 0,61.929 21.65,114.48 64.97,157.621 43.32,43.32 96.04,64.98 158.17,64.98 33.36,0 64.52,-6.801 93.45,-20.383 27.66,-13.578 54.84,-35.636 81.58,-66.179 l -45.9,-43.957 c -35.03,46.629 -77.71,69.957 -128.03,69.957 -45.17,0 -83.05,-15.578 -113.64,-46.727 -30.6,-30.601 -45.91,-68.953 -45.91,-115.043 0,-47.547 17.05,-86.73 51.16,-117.519 31.89,-28.571 66.45,-42.848 103.69,-42.848 31.7,0 60.19,10.66 85.45,31.988 25.25,21.52 39.35,47.25 42.3,77.231 h -106.45 v 60.558"
         style="fill:#ffffff;fill-opacity:1;fill-rule:nonzero;stroke:none"
         id="path14" />
      <path
         d="M 2379.21,973.23 V 606.852 h 125.53 V 546.289 H 2314.77 V 973.23 h 64.44"
         style="fill:#ffffff;fill-opacity:1;fill-rule:nonzero;stroke:none"
         id="path16" />
      <path
         d="m 2841.12,710.539 -63.32,145.172 -66.36,-145.172 z m 26.27,-60.559 h -182.77 l -47.56,-103.691 h -69.41 l 211.26,453.761 203.78,-453.761 h -70.5 l -44.8,103.691"
         style="fill:#ffffff;fill-opacity:1;fill-rule:nonzero;stroke:none"
         id="path18" />
      <path
         d="m 3268.47,909.91 -52.26,-30.98 c -9.77,16.961 -19.08,28.031 -27.93,33.191 -9.22,5.891 -21.1,8.848 -35.67,8.848 -17.89,0 -32.72,-5.09 -44.52,-15.227 -11.79,-9.961 -17.69,-22.5 -17.69,-37.621 0,-20.859 15.49,-37.641 46.45,-50.371 l 42.58,-17.43 c 34.66,-14.031 60.01,-31.129 76.05,-51.328 16.03,-20.203 24.06,-44.972 24.06,-74.293 0,-39.308 -13.1,-71.777 -39.28,-97.41 -26.36,-25.828 -59.07,-38.738 -98.15,-38.738 -37.05,0 -67.66,11.008 -91.81,33.051 -23.78,22.027 -38.62,52.937 -44.51,92.757 l 65.25,14.383 c 2.95,-25.07 8.12,-42.402 15.49,-51.992 13.27,-18.441 32.63,-27.648 58.07,-27.648 20.08,0 36.76,6.73 50.05,20.168 13.27,13.449 19.9,30.492 19.9,51.121 0,8.289 -1.15,15.89 -3.46,22.808 -2.3,6.891 -5.9,13.262 -10.77,19.051 -4.9,5.801 -11.21,11.25 -18.96,16.309 -7.73,5.07 -16.95,9.902 -27.64,14.5 l -41.2,17.14 c -58.44,24.68 -87.66,60.781 -87.66,108.313 0,32.047 12.26,58.859 36.78,80.41 24.52,21.73 55.03,32.609 91.52,32.609 49.22,0 87.67,-23.883 115.31,-71.621"
         style="fill:#ffffff;fill-opacity:1;fill-rule:nonzero;stroke:none"
         id="path20" />
      <path
         d="m 2834.57,1594.53 c -51.7,106.2 -160.72,179.56 -286.55,179.56 -125.84,0 -234.85,-73.36 -286.56,-179.56 h -55.76 c 55.02,135.05 187.73,230.51 342.32,230.51 154.59,0 287.29,-95.46 342.31,-230.51 z m 146.14,1111.09 c 0,677.89 -297.23,623.1 -305.2,1258.54 l -0.09,382.23 h -254.81 l -0.08,-382.23 c -7.98,-635.44 -305.21,-580.65 -305.21,-1258.54 l -0.46,-1162.04 h 866.32 l -0.47,1162.04"
         style="fill:#ffffff;fill-opacity:1;fill-rule:nonzero;stroke:none"
         id="path22" />
    </g>
  </g>
</svg>
