<?xml version="1.0" encoding="UTF-8" standalone="no"?>
<!-- Created with Inkscape (http://www.inkscape.org/) -->

<svg
   version="1.1"
   id="svg2"
   width="681.46667"
   height="682.22668"
   viewBox="0 0 681.46667 682.22668"
   sodipodi:docname="GLAS_rgb.icon.svg"
   inkscape:version="1.3.2 (091e20e, 2023-11-25, custom)"
   xmlns:inkscape="http://www.inkscape.org/namespaces/inkscape"
   xmlns:sodipodi="http://sodipodi.sourceforge.net/DTD/sodipodi-0.dtd"
   xmlns="http://www.w3.org/2000/svg"
   xmlns:svg="http://www.w3.org/2000/svg">
  <defs
     id="defs6" />
  <sodipodi:namedview
     id="namedview4"
     pagecolor="#ffffff"
     bordercolor="#000000"
     borderopacity="0.25"
     inkscape:showpageshadow="2"
     inkscape:pageopacity="0.0"
     inkscape:pagecheckerboard="0"
     inkscape:deskcolor="#d1d1d1"
     inkscape:zoom="1.6812594"
     inkscape:cx="340.51855"
     inkscape:cy="341.11334"
     inkscape:window-width="2560"
     inkscape:window-height="1361"
     inkscape:window-x="2551"
     inkscape:window-y="-9"
     inkscape:window-maximized="1"
     inkscape:current-layer="g8" />
  <g
     id="g8"
     inkscape:groupmode="layer"
     inkscape:label="ink_ext_XXXXXX"
     transform="matrix(1.3333333,0,0,-1.3333333,0,682.22667)">
    <g
       id="g10"
       transform="scale(0.1)">
      <path
         d="M -0.00390625,0 H 5111.03 V 5116.68 H -0.00390625 V 0"
         style="fill:#3db586;fill-opacity:1;fill-rule:nonzero;stroke:none"
         id="path12" />
      <path
         d="m 2834.57,1594.53 c -51.7,106.2 -160.72,179.56 -286.55,179.56 -125.84,0 -234.85,-73.36 -286.56,-179.56 h -55.76 c 55.02,135.05 187.73,230.51 342.32,230.51 154.59,0 287.29,-95.46 342.31,-230.51 z m 146.14,1111.09 c 0,677.89 -297.23,623.1 -305.2,1258.54 l -0.09,382.23 h -254.81 l -0.08,-382.23 c -7.98,-635.44 -305.21,-580.65 -305.21,-1258.54 l -0.46,-1162.04 h 866.32 l -0.47,1162.04"
         style="fill:#ffffff;fill-opacity:1;fill-rule:nonzero;stroke:none"
         id="path22" />
    </g>
  </g>
</svg>
