<?xml version="1.0" encoding="UTF-8" standalone="no"?>
<!-- Created with Inkscape (http://www.inkscape.org/) -->

<svg
   version="1.1"
   id="svg2"
   width="680.32001"
   height="680.32001"
   viewBox="0 0 680.32001 680.32001"
   sodipodi:docname="HAARD_PVC_rgb.eps"
   xmlns:inkscape="http://www.inkscape.org/namespaces/inkscape"
   xmlns:sodipodi="http://sodipodi.sourceforge.net/DTD/sodipodi-0.dtd"
   xmlns="http://www.w3.org/2000/svg"
   xmlns:svg="http://www.w3.org/2000/svg">
  <defs
     id="defs6" />
  <sodipodi:namedview
     id="namedview4"
     pagecolor="#ffffff"
     bordercolor="#000000"
     borderopacity="0.25"
     inkscape:showpageshadow="2"
     inkscape:pageopacity="0.0"
     inkscape:pagecheckerboard="0"
     inkscape:deskcolor="#d1d1d1" />
  <g
     id="g8"
     inkscape:groupmode="layer"
     inkscape:label="ink_ext_XXXXXX"
     transform="matrix(1.3333333,0,0,-1.3333333,0,680.32)">
    <g
       id="g10"
       transform="scale(0.1)">
      <path
         d="M 5102.36,0 H 0 V 5102.36 H 5102.36 V 0"
         style="fill:#8d1c90;fill-opacity:1;fill-rule:nonzero;stroke:none"
         id="path12" />
      <path
         d="m 1229.77,794.832 h 184.39 v 167.219 h 64.51 V 534.59 h -64.51 V 734.199 H 1229.77 V 534.59 h -64.5 v 427.461 h 64.5 V 794.832"
         style="fill:#ffffff;fill-opacity:1;fill-rule:nonzero;stroke:none"
         id="path14" />
      <path
         d="m 1716.76,1061.72 c 0,-7.94 2.63,-14.53 7.89,-19.8 5.27,-5.25 11.77,-7.89 19.52,-7.89 7.75,0 14.26,2.64 19.52,7.89 5.26,5.27 7.89,11.77 7.89,19.53 0,7.75 -2.63,14.25 -7.89,19.52 -5.26,5.25 -11.77,7.89 -19.52,7.89 -3.87,0 -7.47,-0.74 -10.8,-2.22 -3.32,-1.48 -6.22,-3.47 -8.72,-5.96 -2.49,-2.49 -4.43,-5.39 -5.81,-8.72 -1.39,-3.32 -2.08,-6.73 -2.08,-10.24 z m -32.94,0.56 c 0,16.24 5.9,30.17 17.72,41.8 11.8,11.81 25.92,17.72 42.36,17.72 16.79,0 31,-5.91 42.63,-17.72 11.81,-11.81 17.72,-26.02 17.72,-42.63 0,-16.62 -5.91,-30.83 -17.72,-42.64 -11.63,-11.82 -25.75,-17.72 -42.36,-17.72 -16.8,0 -31.1,5.9 -42.91,17.72 -11.63,11.81 -17.44,26.3 -17.44,43.47 z m 122.09,-363.241 -63.4,145.359 -66.45,-145.359 z m 26.3,-60.629 h -183 l -47.62,-103.82 h -69.49 l 211.52,454.32 204.04,-454.32 h -70.6 l -44.85,103.82"
         style="fill:#ffffff;fill-opacity:1;fill-rule:nonzero;stroke:none"
         id="path16" />
      <path
         d="m 2065.6,765.762 h 20.49 c 61.09,0 91.63,23.347 91.63,70.047 0,43.742 -29.71,65.621 -89.14,65.621 h -22.98 z m 80.29,-49 132.34,-182.172 h -78.91 L 2077.23,709.559 H 2065.6 V 534.59 h -64.51 v 427.461 h 75.58 c 56.48,0 97.27,-10.61 122.38,-31.832 27.68,-23.629 41.52,-54.821 41.52,-93.578 0,-30.27 -8.68,-56.301 -26.02,-78.071 -17.35,-21.781 -40.24,-35.718 -68.66,-41.808"
         style="fill:#ffffff;fill-opacity:1;fill-rule:nonzero;stroke:none"
         id="path18" />
      <path
         d="m 2406.96,595.23 h 29.07 c 28.98,0 53.07,3.032 72.26,9.129 19.19,6.45 36.55,16.711 52.05,30.731 31.75,28.969 47.62,66.719 47.62,113.23 0,46.891 -15.69,84.899 -47.06,114.059 -28.25,26.031 -69.87,39.051 -124.87,39.051 h -29.07 z m -64.51,-60.64 v 427.461 h 89.71 c 43,0 76.96,-4.25 101.88,-12.731 26.76,-8.3 51.04,-22.422 72.81,-42.359 44.12,-40.242 66.17,-93.121 66.17,-158.641 0,-65.711 -22.97,-118.871 -68.94,-159.461 -23.07,-20.308 -47.25,-34.437 -72.53,-42.371 -23.63,-7.929 -57.13,-11.898 -100.5,-11.898 h -88.6"
         style="fill:#ffffff;fill-opacity:1;fill-rule:nonzero;stroke:none"
         id="path20" />
      <path
         d="m 2993.62,767.98 h 24.08 c 59.25,0 88.88,22.79 88.88,68.379 0,44.11 -30.56,66.172 -91.64,66.172 h -21.32 z m 0,-59.808 V 534.59 h -64.51 v 427.461 h 73.1 c 35.8,0 62.84,-2.492 81.11,-7.473 18.46,-4.976 34.7,-14.387 48.73,-28.238 24.54,-24 36.82,-54.262 36.82,-90.809 0,-39.133 -13.11,-70.14 -39.31,-93.019 -26.21,-22.891 -61.56,-34.34 -106.04,-34.34 h -29.9"
         style="fill:#ffffff;fill-opacity:1;fill-rule:nonzero;stroke:none"
         id="path22" />
      <path
         d="M 3280.31,962.051 3398.52,665.82 3518.41,962.051 H 3589 L 3397.15,502.469 3209.72,962.051 h 70.59"
         style="fill:#ffffff;fill-opacity:1;fill-rule:nonzero;stroke:none"
         id="path24" />
      <path
         d="m 3936.87,939.219 v -76.278 c -37.28,31.188 -75.86,46.789 -115.72,46.789 -43.93,0 -80.94,-15.781 -111.02,-47.351 -30.28,-31.367 -45.4,-69.758 -45.4,-115.16 0,-44.86 15.12,-82.699 45.4,-113.52 30.27,-30.82 67.37,-46.23 111.29,-46.23 22.71,0 41.99,3.691 57.87,11.082 8.85,3.687 18.03,8.668 27.54,14.949 9.51,6.27 19.53,13.832 30.04,22.691 v -77.929 c -36.91,-20.942 -75.67,-31.422 -116.28,-31.422 -61.09,0 -113.23,21.308 -156.42,63.949 -43.01,43.012 -64.5,94.859 -64.5,155.602 0,54.437 17.98,102.988 53.98,145.621 44.3,52.226 101.6,78.347 171.92,78.347 38.39,0 75.49,-10.379 111.3,-31.14"
         style="fill:#ffffff;fill-opacity:1;fill-rule:nonzero;stroke:none"
         id="path26" />
      <path
         d="m 2909.2,2916.44 v 399.48 h -714.34 v -399.48 l 88.5,-135.4 h -954.93 v -637.8 h 2091.98 v 637.8 h -592.9 l 81.69,135.4"
         style="fill:#ffffff;fill-opacity:1;fill-rule:nonzero;stroke:none"
         id="path28" />
      <path
         d="M 3011.24,3572.13 H 2909.2 v 82.35 h -714.34 v -82.35 h -102.04 v -204.09 h 918.42 v 204.09"
         style="fill:#ffffff;fill-opacity:1;fill-rule:nonzero;stroke:none"
         id="path30" />
      <path
         d="m 3673.75,2781.04 v 102.05 H 3471.43 V 2041.2 h 202.32 v 102.04 h 103.82 v 637.8 h -103.82"
         style="fill:#ffffff;fill-opacity:1;fill-rule:nonzero;stroke:none"
         id="path32" />
    </g>
  </g>
</svg>
