<?xml version="1.0" encoding="UTF-8" standalone="no"?>
<!-- Created with Inkscape (http://www.inkscape.org/) -->

<svg
   version="1.1"
   id="svg2"
   width="680.32001"
   height="680.32001"
   viewBox="0 0 680.32001 680.32001"
   sodipodi:docname="HAARD_PLAST_rgb.eps"
   xmlns:inkscape="http://www.inkscape.org/namespaces/inkscape"
   xmlns:sodipodi="http://sodipodi.sourceforge.net/DTD/sodipodi-0.dtd"
   xmlns="http://www.w3.org/2000/svg"
   xmlns:svg="http://www.w3.org/2000/svg">
  <defs
     id="defs6" />
  <sodipodi:namedview
     id="namedview4"
     pagecolor="#ffffff"
     bordercolor="#000000"
     borderopacity="0.25"
     inkscape:showpageshadow="2"
     inkscape:pageopacity="0.0"
     inkscape:pagecheckerboard="0"
     inkscape:deskcolor="#d1d1d1" />
  <g
     id="g8"
     inkscape:groupmode="layer"
     inkscape:label="ink_ext_XXXXXX"
     transform="matrix(1.3333333,0,0,-1.3333333,0,680.32)">
    <g
       id="g10"
       transform="scale(0.1)">
      <path
         d="M 5102.36,0 H 0 V 5102.36 H 5102.36 V 0"
         style="fill:#8d1b8f;fill-opacity:1;fill-rule:nonzero;stroke:none"
         id="path12" />
      <path
         d="M 948.512,792.359 H 1132.9 v 167.219 h 64.5 V 532.121 h -64.5 V 731.73 H 948.512 V 532.121 h -64.508 v 427.457 h 64.508 V 792.359"
         style="fill:#ffffff;fill-opacity:1;fill-rule:nonzero;stroke:none"
         id="path14" />
      <path
         d="m 1435.5,1059.25 c 0,-7.94 2.63,-14.53 7.89,-19.79 5.26,-5.26 11.77,-7.89 19.52,-7.89 7.75,0 14.25,2.63 19.52,7.89 5.26,5.26 7.89,11.76 7.89,19.51 0,7.76 -2.63,14.26 -7.89,19.52 -5.27,5.26 -11.77,7.89 -19.52,7.89 -3.88,0 -7.48,-0.74 -10.8,-2.21 -3.32,-1.48 -6.23,-3.46 -8.72,-5.95 -2.49,-2.5 -4.43,-5.4 -5.81,-8.72 -1.39,-3.33 -2.08,-6.74 -2.08,-10.25 z m -32.95,0.56 c 0,16.23 5.91,30.17 17.72,41.8 11.81,11.81 25.93,17.72 42.36,17.72 16.79,0 31.01,-5.91 42.64,-17.72 11.81,-11.81 17.72,-26.02 17.72,-42.64 0,-16.61 -5.91,-30.82 -17.72,-42.63 -11.63,-11.82 -25.75,-17.719 -42.36,-17.719 -16.8,0 -31.11,5.899 -42.92,17.719 -11.62,11.81 -17.44,26.3 -17.44,43.47 z m 122.1,-363.24 -63.4,145.352 -66.45,-145.352 z m 26.3,-60.629 h -183 l -47.62,-103.82 h -69.49 l 211.51,454.32 204.05,-454.32 h -70.6 l -44.85,103.82"
         style="fill:#ffffff;fill-opacity:1;fill-rule:nonzero;stroke:none"
         id="path16" />
      <path
         d="m 1784.34,763.289 h 20.48 c 61.09,0 91.64,23.352 91.64,70.051 0,43.738 -29.72,65.609 -89.14,65.609 h -22.98 z m 80.28,-49 132.34,-182.168 h -78.9 l -122.1,174.969 h -11.62 V 532.121 h -64.51 v 427.457 h 75.58 c 56.48,0 97.27,-10.609 122.37,-31.84 27.69,-23.617 41.53,-54.808 41.53,-93.566 0,-30.274 -8.68,-56.301 -26.03,-78.082 -17.35,-21.781 -40.23,-35.711 -68.66,-41.801"
         style="fill:#ffffff;fill-opacity:1;fill-rule:nonzero;stroke:none"
         id="path18" />
      <path
         d="m 2125.7,592.75 h 29.07 c 28.97,0 53.06,3.051 72.26,9.141 19.19,6.449 36.54,16.699 52.05,30.73 31.74,28.969 47.62,66.719 47.62,113.231 0,46.878 -15.69,84.898 -47.07,114.07 -28.24,26.019 -69.86,39.027 -124.86,39.027 h -29.07 z m -64.51,-60.629 v 427.457 h 89.7 c 43.01,0 76.97,-4.238 101.89,-12.726 26.76,-8.313 51.03,-22.43 72.81,-42.364 44.11,-40.238 66.17,-93.117 66.17,-158.636 0,-65.711 -22.98,-118.872 -68.94,-159.473 -23.07,-20.297 -47.25,-34.418 -72.54,-42.359 -23.62,-7.938 -57.12,-11.899 -100.49,-11.899 h -88.6"
         style="fill:#ffffff;fill-opacity:1;fill-rule:nonzero;stroke:none"
         id="path20" />
      <path
         d="m 2712.36,765.512 h 24.08 c 59.25,0 88.87,22.789 88.87,68.379 0,44.109 -30.55,66.168 -91.64,66.168 h -21.31 z m 0,-59.801 v -173.59 h -64.51 v 427.457 h 73.09 c 35.8,0 62.84,-2.488 81.12,-7.469 18.45,-4.988 34.69,-14.398 48.72,-28.238 24.55,-24 36.83,-54.262 36.83,-90.812 0,-39.129 -13.11,-70.137 -39.32,-93.02 -26.21,-22.891 -61.55,-34.328 -106.03,-34.328 h -29.9"
         style="fill:#ffffff;fill-opacity:1;fill-rule:nonzero;stroke:none"
         id="path22" />
      <path
         d="M 3018.56,959.578 V 592.75 h 125.69 v -60.629 h -190.2 v 427.457 h 64.51"
         style="fill:#ffffff;fill-opacity:1;fill-rule:nonzero;stroke:none"
         id="path24" />
      <path
         d="m 3475.11,696.57 -63.4,145.352 -66.44,-145.352 z m 26.3,-60.629 h -183 l -47.62,-103.82 h -69.49 l 211.52,454.32 204.04,-454.32 h -70.6 l -44.85,103.82"
         style="fill:#ffffff;fill-opacity:1;fill-rule:nonzero;stroke:none"
         id="path26" />
      <path
         d="m 3905.51,896.18 -52.33,-31 c -9.78,16.968 -19.1,28.05 -27.96,33.218 -9.23,5.903 -21.13,8.864 -35.71,8.864 -17.91,0 -32.77,-5.09 -44.58,-15.242 -11.81,-9.981 -17.71,-22.54 -17.71,-37.68 0,-20.871 15.5,-37.68 46.51,-50.418 l 42.63,-17.461 c 34.7,-14.039 60.08,-31.172 76.14,-51.391 16.05,-20.23 24.09,-45.031 24.09,-74.39 0,-39.34 -13.11,-71.848 -39.32,-97.532 -26.4,-25.859 -59.16,-38.777 -98.28,-38.777 -37.1,0 -67.74,11.027 -91.92,33.09 -23.81,22.051 -38.67,53.008 -44.57,92.879 l 65.34,14.39 c 2.95,-25.101 8.12,-42.449 15.5,-52.05 13.29,-18.461 32.67,-27.68 58.14,-27.68 20.11,0 36.82,6.73 50.11,20.191 13.29,13.457 19.93,30.52 19.93,51.18 0,8.301 -1.15,15.91 -3.46,22.828 -2.31,6.91 -5.91,13.281 -10.79,19.09 -4.9,5.813 -11.22,11.25 -18.97,16.32 -7.75,5.071 -16.98,9.922 -27.69,14.532 l -41.25,17.148 c -58.51,24.711 -87.76,60.859 -87.76,108.449 0,32.09 12.27,58.922 36.82,80.5 24.55,21.774 55.1,32.653 91.64,32.653 49.28,0 87.77,-23.911 115.45,-71.711"
         style="fill:#ffffff;fill-opacity:1;fill-rule:nonzero;stroke:none"
         id="path28" />
      <path
         d="M 4120.35,898.949 V 532.121 h -64.51 v 366.828 h -98.28 v 60.629 h 260.8 v -60.629 h -98.01"
         style="fill:#ffffff;fill-opacity:1;fill-rule:nonzero;stroke:none"
         id="path30" />
      <path
         d="m 3008.75,2533.36 c 0,-48.9 -40.01,-88.92 -88.92,-88.92 h -0.73 c -48.91,0 -88.93,40.02 -88.93,88.92 v 587.51 c 0,48.91 40.02,88.92 88.93,88.92 h 0.73 c 48.91,0 88.92,-40.01 88.92,-88.92 z m 62.82,927.46 -403.38,366.13 v 509.54 l -382.68,1.12 V 3827.03 L 2000.38,3440 c -90.05,-116.64 -86.88,-245.77 -86.88,-308.02 0,-3.7 -0.11,-6.98 -0.11,-10.77 V 1643.33 c 0,-61.87 53.18,-112.02 118.79,-112.02 h 1037.94 c 65.6,0 118.78,50.15 118.78,112.02 v 1481.48 c 0,4.64 0.07,8.97 0.07,13.68 0,76.68 -7.88,220.1 -117.4,322.33"
         style="fill:#ffffff;fill-opacity:1;fill-rule:nonzero;stroke:none"
         id="path32" />
    </g>
  </g>
</svg>
