<?xml version="1.0" encoding="UTF-8" standalone="no"?>
<!-- Created with Inkscape (http://www.inkscape.org/) -->

<svg
   version="1.1"
   id="svg2"
   width="680.32001"
   height="680.32001"
   viewBox="0 0 680.32001 680.32001"
   sodipodi:docname="HAARD_PLAST_rgb.icon.svg"
   inkscape:version="1.3.2 (091e20e, 2023-11-25, custom)"
   xmlns:inkscape="http://www.inkscape.org/namespaces/inkscape"
   xmlns:sodipodi="http://sodipodi.sourceforge.net/DTD/sodipodi-0.dtd"
   xmlns="http://www.w3.org/2000/svg"
   xmlns:svg="http://www.w3.org/2000/svg">
  <defs
     id="defs6" />
  <sodipodi:namedview
     id="namedview4"
     pagecolor="#ffffff"
     bordercolor="#000000"
     borderopacity="0.25"
     inkscape:showpageshadow="2"
     inkscape:pageopacity="0.0"
     inkscape:pagecheckerboard="0"
     inkscape:deskcolor="#d1d1d1"
     inkscape:zoom="1.6859713"
     inkscape:cx="340.16"
     inkscape:cy="340.16"
     inkscape:window-width="2560"
     inkscape:window-height="1361"
     inkscape:window-x="2551"
     inkscape:window-y="-9"
     inkscape:window-maximized="1"
     inkscape:current-layer="g8" />
  <g
     id="g8"
     inkscape:groupmode="layer"
     inkscape:label="ink_ext_XXXXXX"
     transform="matrix(1.3333333,0,0,-1.3333333,0,680.32)">
    <g
       id="g10"
       transform="scale(0.1)">
      <path
         d="M 5102.36,0 H 0 V 5102.36 H 5102.36 V 0"
         style="fill:#8d1b8f;fill-opacity:1;fill-rule:nonzero;stroke:none"
         id="path12" />
      <path
         d="m 3008.75,2533.36 c 0,-48.9 -40.01,-88.92 -88.92,-88.92 h -0.73 c -48.91,0 -88.93,40.02 -88.93,88.92 v 587.51 c 0,48.91 40.02,88.92 88.93,88.92 h 0.73 c 48.91,0 88.92,-40.01 88.92,-88.92 z m 62.82,927.46 -403.38,366.13 v 509.54 l -382.68,1.12 V 3827.03 L 2000.38,3440 c -90.05,-116.64 -86.88,-245.77 -86.88,-308.02 0,-3.7 -0.11,-6.98 -0.11,-10.77 V 1643.33 c 0,-61.87 53.18,-112.02 118.79,-112.02 h 1037.94 c 65.6,0 118.78,50.15 118.78,112.02 v 1481.48 c 0,4.64 0.07,8.97 0.07,13.68 0,76.68 -7.88,220.1 -117.4,322.33"
         style="fill:#ffffff;fill-opacity:1;fill-rule:nonzero;stroke:none"
         id="path32" />
    </g>
  </g>
</svg>
