<?xml version="1.0" encoding="UTF-8" standalone="no"?>
<!-- Created with Inkscape (http://www.inkscape.org/) -->

<svg
   version="1.1"
   id="svg2"
   width="680.32001"
   height="680.32001"
   viewBox="0 0 680.32001 680.32001"
   sodipodi:docname="HAVEAFFALD_rgb.eps"
   xmlns:inkscape="http://www.inkscape.org/namespaces/inkscape"
   xmlns:sodipodi="http://sodipodi.sourceforge.net/DTD/sodipodi-0.dtd"
   xmlns="http://www.w3.org/2000/svg"
   xmlns:svg="http://www.w3.org/2000/svg">
  <defs
     id="defs6" />
  <sodipodi:namedview
     id="namedview4"
     pagecolor="#ffffff"
     bordercolor="#000000"
     borderopacity="0.25"
     inkscape:showpageshadow="2"
     inkscape:pageopacity="0.0"
     inkscape:pagecheckerboard="0"
     inkscape:deskcolor="#d1d1d1" />
  <g
     id="g8"
     inkscape:groupmode="layer"
     inkscape:label="ink_ext_XXXXXX"
     transform="matrix(1.3333333,0,0,-1.3333333,0,680.32)">
    <g
       id="g10"
       transform="scale(0.1)">
      <path
         d="M 5102.36,0 H 0 V 5102.36 H 5102.36 V 0"
         style="fill:#1e6434;fill-opacity:1;fill-rule:nonzero;stroke:none"
         id="path12" />
      <path
         d="m 868.449,792.289 h 184.391 v 167.223 h 64.5 V 532.051 h -64.5 V 731.66 H 868.449 V 532.051 h -64.508 v 427.461 h 64.508 V 792.289"
         style="fill:#ffffff;fill-opacity:1;fill-rule:nonzero;stroke:none"
         id="path14" />
      <path
         d="m 1462.59,696.5 -63.4,145.352 -66.45,-145.352 z m 26.3,-60.629 h -183 l -47.62,-103.82 h -69.49 l 211.52,454.32 204.04,-454.32 h -70.6 l -44.85,103.82"
         style="fill:#ffffff;fill-opacity:1;fill-rule:nonzero;stroke:none"
         id="path16" />
      <path
         d="m 1609.86,959.512 118.22,-296.231 119.88,296.231 h 70.6 L 1726.7,499.93 1539.27,959.512 h 70.59"
         style="fill:#ffffff;fill-opacity:1;fill-rule:nonzero;stroke:none"
         id="path18" />
      <path
         d="M 2216.6,898.879 H 2045.22 V 796.172 h 166.39 V 735.539 H 2045.22 V 592.68 h 171.38 v -60.629 h -235.89 v 427.461 h 235.89 v -60.633"
         style="fill:#ffffff;fill-opacity:1;fill-rule:nonzero;stroke:none"
         id="path20" />
      <path
         d="m 2544.12,696.5 -63.4,145.352 -66.44,-145.352 z m 26.3,-60.629 h -183 l -47.62,-103.82 h -69.49 l 211.52,454.32 204.04,-454.32 h -70.6 l -44.85,103.82"
         style="fill:#ffffff;fill-opacity:1;fill-rule:nonzero;stroke:none"
         id="path22" />
      <path
         d="M 2952.76,898.879 H 2803.81 V 796.172 H 2947.5 V 735.539 H 2803.81 V 532.051 h -64.51 v 427.461 h 213.46 v -60.633"
         style="fill:#ffffff;fill-opacity:1;fill-rule:nonzero;stroke:none"
         id="path24" />
      <path
         d="M 3240.97,898.879 H 3092.02 V 796.172 h 143.69 V 735.539 H 3092.02 V 532.051 h -64.51 v 427.461 h 213.46 v -60.633"
         style="fill:#ffffff;fill-opacity:1;fill-rule:nonzero;stroke:none"
         id="path26" />
      <path
         d="m 3503.28,696.5 -63.4,145.352 -66.44,-145.352 z m 26.3,-60.629 h -183 l -47.62,-103.82 h -69.49 l 211.52,454.32 204.04,-454.32 h -70.59 l -44.86,103.82"
         style="fill:#ffffff;fill-opacity:1;fill-rule:nonzero;stroke:none"
         id="path28" />
      <path
         d="M 3771.97,959.512 V 592.68 h 125.7 v -60.629 h -190.2 v 427.461 h 64.5"
         style="fill:#ffffff;fill-opacity:1;fill-rule:nonzero;stroke:none"
         id="path30" />
      <path
         d="m 4032.36,592.68 h 29.07 c 28.97,0 53.06,3.039 72.26,9.129 19.19,6.461 36.54,16.711 52.05,30.742 31.74,28.969 47.62,66.719 47.62,113.23 0,46.879 -15.69,84.899 -47.07,114.059 -28.24,26.031 -69.86,39.039 -124.86,39.039 h -29.07 z m -64.51,-60.629 v 427.461 h 89.7 c 43.01,0 76.97,-4.25 101.89,-12.731 26.76,-8.312 51.03,-22.429 72.81,-42.359 44.11,-40.242 66.17,-93.121 66.17,-158.641 0,-65.711 -22.98,-118.871 -68.94,-159.472 -23.07,-20.297 -47.25,-34.418 -72.54,-42.36 -23.62,-7.937 -57.12,-11.898 -100.49,-11.898 h -88.6"
         style="fill:#ffffff;fill-opacity:1;fill-rule:nonzero;stroke:none"
         id="path32" />
      <path
         d="m 1862.59,2726.92 c 20.39,-142.93 80.49,-420.34 292.43,-656.52 147.56,-164.44 350.25,-274.8 370.64,-285.68 v 445.96 l -663.07,496.24"
         style="fill:#ffffff;fill-opacity:1;fill-rule:nonzero;stroke:none"
         id="path34" />
      <path
         d="m 3042.59,3662.42 c -67.36,98.17 -159.65,194.74 -228.2,279.62 -62.85,77.81 -146.83,156.93 -190.32,265.37 l -47.39,129.27 V 3313.73 l 465.91,348.69"
         style="fill:#ffffff;fill-opacity:1;fill-rule:nonzero;stroke:none"
         id="path36" />
      <path
         d="m 2525.66,2740.47 -648.01,484.97 c -0.08,-0.4 -0.18,-0.82 -0.26,-1.22 -25.58,-125.59 -33.82,-325.18 -23.37,-427.15 l 671.64,-502.66 v 446.06"
         style="fill:#ffffff;fill-opacity:1;fill-rule:nonzero;stroke:none"
         id="path38" />
      <path
         d="m 2525.66,3250 -493.54,369.37 c -0.07,-0.12 -0.14,-0.24 -0.21,-0.35 -65.77,-109.7 -114.89,-240.44 -141.36,-339.5 L 2525.66,2804.2 V 3250"
         style="fill:#ffffff;fill-opacity:1;fill-rule:nonzero;stroke:none"
         id="path40" />
      <path
         d="m 2525.66,4336.42 -47.37,-129.17 c -43.49,-108.44 -127.47,-187.57 -190.32,-265.37 -68.53,-84.85 -160.78,-181.39 -228.13,-279.53 l 465.82,-348.62 v 1022.69"
         style="fill:#ffffff;fill-opacity:1;fill-rule:nonzero;stroke:none"
         id="path42" />
      <path
         d="m 2576.68,2230.68 v -445.81 c 20.28,10.82 223.05,121.2 370.66,285.69 211.86,236.09 271.99,513.39 292.41,656.36 l -663.07,-496.24"
         style="fill:#ffffff;fill-opacity:1;fill-rule:nonzero;stroke:none"
         id="path44" />
      <path
         d="m 2576.68,2294.41 671.65,502.66 c 10.47,101.93 2.23,301.66 -23.36,427.31 -0.07,0.36 -0.16,0.74 -0.23,1.1 l -648.06,-485.01 v -446.06"
         style="fill:#ffffff;fill-opacity:1;fill-rule:nonzero;stroke:none"
         id="path46" />
      <path
         d="m 2576.68,2804.2 635.17,475.36 c -26.47,99.08 -75.61,229.87 -141.4,339.62 -0.05,0.09 -0.1,0.17 -0.15,0.25 L 2576.68,3250 v -445.8"
         style="fill:#ffffff;fill-opacity:1;fill-rule:nonzero;stroke:none"
         id="path48" />
      <path
         d="m 2576.69,1274.48 h -51.02 v 510.24 h 51.02 v -510.24"
         style="fill:#ffffff;fill-opacity:1;fill-rule:nonzero;stroke:none"
         id="path50" />
    </g>
  </g>
</svg>
