<?xml version="1.0" encoding="UTF-8" standalone="no"?>
<!-- Created with Inkscape (http://www.inkscape.org/) -->

<svg
   version="1.1"
   id="svg2"
   width="680.32001"
   height="680.32001"
   viewBox="0 0 680.32001 680.32001"
   sodipodi:docname="HELE_MURSTEN_rgb.icon.svg"
   inkscape:version="1.3.2 (091e20e, 2023-11-25, custom)"
   xmlns:inkscape="http://www.inkscape.org/namespaces/inkscape"
   xmlns:sodipodi="http://sodipodi.sourceforge.net/DTD/sodipodi-0.dtd"
   xmlns="http://www.w3.org/2000/svg"
   xmlns:svg="http://www.w3.org/2000/svg">
  <defs
     id="defs6" />
  <sodipodi:namedview
     id="namedview4"
     pagecolor="#ffffff"
     bordercolor="#000000"
     borderopacity="0.25"
     inkscape:showpageshadow="2"
     inkscape:pageopacity="0.0"
     inkscape:pagecheckerboard="0"
     inkscape:deskcolor="#d1d1d1"
     inkscape:zoom="1.6859713"
     inkscape:cx="340.16"
     inkscape:cy="340.16"
     inkscape:window-width="2560"
     inkscape:window-height="1361"
     inkscape:window-x="2551"
     inkscape:window-y="-9"
     inkscape:window-maximized="1"
     inkscape:current-layer="g8" />
  <g
     id="g8"
     inkscape:groupmode="layer"
     inkscape:label="ink_ext_XXXXXX"
     transform="matrix(1.3333333,0,0,-1.3333333,0,680.32)">
    <g
       id="g10"
       transform="scale(0.1)">
      <path
         d="M 5102.36,0 H 0 V 5102.36 H 5102.36 V 0"
         style="fill:#21508b;fill-opacity:1;fill-rule:nonzero;stroke:none"
         id="path12" />
      <path
         d="M 2218.13,3310.13 H 1197.66 v 408.19 h 1020.47 v -408.19"
         style="fill:#ffffff;fill-opacity:1;fill-rule:nonzero;stroke:none"
         id="path36" />
      <path
         d="m 1197.66,2187.37 v -408.19 h 459.21 v 408.19 h -459.21"
         style="fill:#ffffff;fill-opacity:1;fill-rule:nonzero;stroke:none"
         id="path38" />
      <path
         d="m 2881.42,2187.37 v -408.19 h 1022.01 v 408.19 H 2881.42"
         style="fill:#ffffff;fill-opacity:1;fill-rule:nonzero;stroke:none"
         id="path40" />
      <path
         d="m 1761.35,2187.37 v -408.19 h 1020.53 v 408.19 H 1761.35"
         style="fill:#ffffff;fill-opacity:1;fill-rule:nonzero;stroke:none"
         id="path42" />
      <path
         d="m 3341.09,2289.5 v 408.19 H 2319.07 V 2289.5 h 1022.02"
         style="fill:#ffffff;fill-opacity:1;fill-rule:nonzero;stroke:none"
         id="path44" />
      <path
         d="M 2216.59,2697.69 H 1197.66 V 2289.5 h 1018.93 v 408.19"
         style="fill:#ffffff;fill-opacity:1;fill-rule:nonzero;stroke:none"
         id="path46" />
      <path
         d="m 2782.64,2799.82 v 408.19 H 1760.59 v -408.19 h 1022.05"
         style="fill:#ffffff;fill-opacity:1;fill-rule:nonzero;stroke:none"
         id="path48" />
      <path
         d="m 1656.87,3208.01 h -459.21 v -408.19 h 459.21 v 408.19"
         style="fill:#ffffff;fill-opacity:1;fill-rule:nonzero;stroke:none"
         id="path50" />
      <path
         d="m 3502.71,4116.66 c 60.43,34.42 129.04,52.74 200.47,52.74 108.47,0 210.44,-42.24 287.14,-118.94 24.59,-24.58 45.62,-51.77 62.87,-80.93 l -134.72,-80.01 353.35,-127.16 44.8,363.6 -123.81,-73.52 c -24.21,40.99 -53.53,78.77 -87.64,112.88 -52.18,52.18 -112.97,93.16 -180.68,121.8 -70.14,29.67 -144.6,44.71 -221.31,44.71 -76.71,0 -151.17,-15.04 -221.31,-44.71 -2.84,-1.2 -5.66,-2.43 -8.47,-3.67 l 29.31,-166.79"
         style="fill:#ffffff;fill-opacity:1;fill-rule:nonzero;stroke:none"
         id="path52" />
      <path
         d="m 3500.96,3411 c -30.67,17.66 -59.22,39.48 -84.92,65.19 -76.69,76.69 -118.93,178.67 -118.93,287.13 0,72.24 18.74,141.58 53.9,202.51 l 136.8,-77.22 -64.94,369.52 -337.78,-142.2 124.51,-70.28 c -11.24,-19.64 -21.32,-39.99 -30.21,-61.01 -29.67,-70.14 -44.71,-144.6 -44.71,-221.32 0,-76.71 15.04,-151.17 44.71,-221.31 28.63,-67.71 69.61,-128.5 121.8,-180.68 21.47,-21.48 44.42,-41.04 68.69,-58.64 L 3500.96,3411"
         style="fill:#ffffff;fill-opacity:1;fill-rule:nonzero;stroke:none"
         id="path54" />
      <path
         d="m 4109.26,3763.27 c -0.02,-108.45 -42.26,-210.4 -118.94,-287.08 -75.76,-75.77 -176.19,-117.9 -283.17,-118.92 l 0.02,153.52 -289.75,-239.05 289.67,-224.28 0.03,147.38 c 75.32,0.51 148.44,15.53 217.37,44.69 67.71,28.64 128.5,69.62 180.68,121.8 52.19,52.18 93.17,112.97 121.81,180.68 22.2,52.5 36.21,107.42 41.85,163.89 l -159.57,57.37"
         style="fill:#ffffff;fill-opacity:1;fill-rule:nonzero;stroke:none"
         id="path56" />
    </g>
  </g>
</svg>
