<?xml version="1.0" encoding="UTF-8" standalone="no"?>
<!-- Created with Inkscape (http://www.inkscape.org/) -->

<svg
   version="1.1"
   id="svg2"
   width="680.32001"
   height="680.32001"
   viewBox="0 0 680.32001 680.32001"
   sodipodi:docname="INDENDOERS_MALET_TRAE_rgb.eps"
   xmlns:inkscape="http://www.inkscape.org/namespaces/inkscape"
   xmlns:sodipodi="http://sodipodi.sourceforge.net/DTD/sodipodi-0.dtd"
   xmlns="http://www.w3.org/2000/svg"
   xmlns:svg="http://www.w3.org/2000/svg">
  <defs
     id="defs6" />
  <sodipodi:namedview
     id="namedview4"
     pagecolor="#ffffff"
     bordercolor="#000000"
     borderopacity="0.25"
     inkscape:showpageshadow="2"
     inkscape:pageopacity="0.0"
     inkscape:pagecheckerboard="0"
     inkscape:deskcolor="#d1d1d1" />
  <g
     id="g8"
     inkscape:groupmode="layer"
     inkscape:label="ink_ext_XXXXXX"
     transform="matrix(1.3333333,0,0,-1.3333333,0,680.32)">
    <g
       id="g10"
       transform="scale(0.1)">
      <path
         d="M 5102.36,0 H 0 V 5102.36 H 5102.36 V 0"
         style="fill:#715724;fill-opacity:1;fill-rule:nonzero;stroke:none"
         id="path12" />
      <path
         d="m 983.75,1505.34 v -427.46 h -64.504 v 427.46 h 64.504"
         style="fill:#ffffff;fill-opacity:1;fill-rule:nonzero;stroke:none"
         id="path14" />
      <path
         d="m 1063.06,1077.88 v 456.53 l 311.74,-326.13 v 297.06 h 64.51 v -453.49 l -311.74,325.31 v -299.28 h -64.51"
         style="fill:#ffffff;fill-opacity:1;fill-rule:nonzero;stroke:none"
         id="path16" />
      <path
         d="m 1584.65,1138.51 h 29.07 c 28.97,0 53.06,3.04 72.26,9.14 19.19,6.45 36.54,16.7 52.05,30.73 31.74,28.97 47.62,66.72 47.62,113.23 0,46.88 -15.69,84.9 -47.07,114.06 -28.24,26.03 -69.86,39.04 -124.86,39.04 h -29.07 z m -64.51,-60.63 v 427.46 h 89.7 c 43.01,0 76.97,-4.25 101.89,-12.73 26.76,-8.31 51.03,-22.43 72.81,-42.36 44.11,-40.24 66.17,-93.12 66.17,-158.64 0,-65.71 -22.98,-118.87 -68.94,-159.47 -23.07,-20.3 -47.25,-34.42 -72.54,-42.36 -23.62,-7.94 -57.12,-11.9 -100.49,-11.9 h -88.6"
         style="fill:#ffffff;fill-opacity:1;fill-rule:nonzero;stroke:none"
         id="path18" />
      <path
         d="M 2165.91,1444.71 H 1994.53 V 1342 h 166.39 v -60.63 h -166.39 v -142.86 h 171.38 v -60.63 h -235.88 v 427.46 h 235.88 v -60.63"
         style="fill:#ffffff;fill-opacity:1;fill-rule:nonzero;stroke:none"
         id="path20" />
      <path
         d="m 2245.22,1077.88 v 456.53 l 311.74,-326.13 v 297.06 h 64.51 v -453.49 l -311.74,325.31 v -299.28 h -64.51"
         style="fill:#ffffff;fill-opacity:1;fill-rule:nonzero;stroke:none"
         id="path22" />
      <path
         d="m 2765.01,1138.51 h 29.07 c 28.98,0 53.06,3.04 72.26,9.14 19.19,6.45 36.54,16.7 52.05,30.73 31.74,28.97 47.62,66.72 47.62,113.23 0,46.88 -15.69,84.9 -47.07,114.06 -28.24,26.03 -69.86,39.04 -124.86,39.04 h -29.07 z m -64.51,-60.63 v 427.46 h 89.71 c 43,0 76.96,-4.25 101.88,-12.73 26.76,-8.31 51.03,-22.43 72.81,-42.36 44.11,-40.24 66.17,-93.12 66.17,-158.64 0,-65.71 -22.98,-118.87 -68.94,-159.47 -23.07,-20.3 -47.25,-34.42 -72.53,-42.36 -23.63,-7.94 -57.13,-11.9 -100.5,-11.9 h -88.6"
         style="fill:#ffffff;fill-opacity:1;fill-rule:nonzero;stroke:none"
         id="path24" />
      <path
         d="M 3446.21,1389.89 3223.9,1163.15 c 31.19,-21.6 63.3,-32.39 96.35,-32.39 43.55,0 80.65,15.59 111.29,46.79 30.64,31.18 45.96,69.21 45.96,114.06 0,35.25 -10.43,68.01 -31.29,98.28 z m -37.09,35.99 c -26.77,17.91 -56.21,26.86 -88.32,26.86 -45.59,0 -83.61,-15.6 -114.07,-46.79 -30.27,-31.38 -45.4,-70.32 -45.4,-116.83 0,-30.46 8.95,-60.17 26.85,-89.15 z m 45.12,42.64 46.24,47.07 37.1,-36.83 -45.68,-46.79 c 33.77,-42.08 50.66,-89.24 50.66,-141.47 0,-60.54 -21.87,-112.4 -65.62,-155.59 -43.74,-43.19 -96.25,-64.78 -157.53,-64.78 -51.12,0 -98.28,16.33 -141.47,49 l -45.96,-45.68 -35.43,36.27 44.57,45.95 c -29.9,39.87 -44.85,84.63 -44.85,134.28 0,63.86 22.61,117.29 67.83,160.3 44.3,42.08 96.62,63.12 156.98,63.12 47.98,0 92.37,-14.95 133.16,-44.85"
         style="fill:#ffffff;fill-opacity:1;fill-rule:nonzero;stroke:none"
         id="path26" />
      <path
         d="m 3682.79,1309.05 h 20.48 c 61.09,0 91.64,23.35 91.64,70.05 0,43.74 -29.72,65.61 -89.14,65.61 h -22.98 z m 80.28,-49 132.34,-182.17 h -78.9 l -122.1,174.97 h -11.62 v -174.97 h -64.51 v 427.46 h 75.58 c 56.48,0 97.27,-10.61 122.37,-31.84 27.69,-23.62 41.53,-54.81 41.53,-93.57 0,-30.28 -8.68,-56.3 -26.03,-78.08 -17.35,-21.78 -40.24,-35.71 -68.66,-41.8"
         style="fill:#ffffff;fill-opacity:1;fill-rule:nonzero;stroke:none"
         id="path28" />
      <path
         d="m 4188.74,1441.94 -52.33,-31.01 c -9.79,16.98 -19.1,28.06 -27.96,33.23 -9.23,5.9 -21.14,8.86 -35.72,8.86 -17.9,0 -32.76,-5.09 -44.57,-15.24 -11.82,-9.98 -17.72,-22.54 -17.72,-37.68 0,-20.87 15.5,-37.68 46.51,-50.42 l 42.64,-17.46 c 34.7,-14.04 60.08,-31.17 76.13,-51.39 16.06,-20.23 24.09,-45.03 24.09,-74.39 0,-39.35 -13.11,-71.86 -39.31,-97.53 -26.4,-25.86 -59.16,-38.78 -98.29,-38.78 -37.1,0 -67.74,11.03 -91.91,33.09 -23.81,22.05 -38.67,53.01 -44.58,92.87 l 65.34,14.4 c 2.95,-25.1 8.12,-42.45 15.5,-52.05 13.29,-18.46 32.67,-27.68 58.14,-27.68 20.12,0 36.82,6.73 50.11,20.19 13.29,13.46 19.94,30.52 19.94,51.18 0,8.3 -1.16,15.91 -3.46,22.83 -2.31,6.91 -5.91,13.28 -10.8,19.09 -4.89,5.81 -11.21,11.25 -18.97,16.32 -7.75,5.07 -16.98,9.91 -27.68,14.53 l -41.25,17.15 c -58.51,24.71 -87.76,60.86 -87.76,108.45 0,32.08 12.27,58.92 36.82,80.5 24.54,21.76 55.09,32.65 91.64,32.65 49.28,0 87.76,-23.91 115.45,-71.71"
         style="fill:#ffffff;fill-opacity:1;fill-rule:nonzero;stroke:none"
         id="path30" />
      <path
         d="m 943.645,539.75 89.975,459.578 146.74,-332.219 151.99,332.219 80.84,-459.578 h -66.16 L 1305.77,797.781 1179.25,520.102 1056.33,798.059 1010.37,539.75 h -66.725"
         style="fill:#ffffff;fill-opacity:1;fill-rule:nonzero;stroke:none"
         id="path32" />
      <path
         d="m 1732.13,704.211 -63.4,145.348 -66.44,-145.348 z m 26.3,-60.641 h -183 l -47.62,-103.82 h -69.49 l 211.52,454.32 204.04,-454.32 h -70.6 l -44.85,103.82"
         style="fill:#ffffff;fill-opacity:1;fill-rule:nonzero;stroke:none"
         id="path34" />
      <path
         d="M 1991.82,967.219 V 600.391 h 125.7 V 539.75 h -190.21 v 427.469 h 64.51"
         style="fill:#ffffff;fill-opacity:1;fill-rule:nonzero;stroke:none"
         id="path36" />
      <path
         d="M 2427.18,906.59 H 2255.81 V 803.871 H 2422.2 V 743.238 H 2255.81 V 600.391 h 171.37 V 539.75 H 2191.3 v 427.469 h 235.88 V 906.59"
         style="fill:#ffffff;fill-opacity:1;fill-rule:nonzero;stroke:none"
         id="path38" />
      <path
         d="M 2662.24,906.59 V 539.75 h -64.5 v 366.84 h -98.29 v 60.629 h 260.8 V 906.59 h -98.01"
         style="fill:#ffffff;fill-opacity:1;fill-rule:nonzero;stroke:none"
         id="path40" />
      <path
         d="M 3107.15,906.59 V 539.75 h -64.51 v 366.84 h -98.28 v 60.629 h 260.8 V 906.59 h -98.01"
         style="fill:#ffffff;fill-opacity:1;fill-rule:nonzero;stroke:none"
         id="path42" />
      <path
         d="m 3338.05,770.93 h 20.49 c 61.09,0 91.64,23.34 91.64,70.039 0,43.75 -29.72,65.621 -89.15,65.621 h -22.98 z m 80.29,-49 132.34,-182.18 h -78.91 l -122.09,174.98 h -11.63 V 539.75 h -64.51 v 427.469 h 75.58 c 56.48,0 97.27,-10.617 122.37,-31.84 27.69,-23.629 41.53,-54.82 41.53,-93.578 0,-30.27 -8.68,-56.289 -26.02,-78.071 -17.35,-21.781 -40.24,-35.71 -68.66,-41.8"
         style="fill:#ffffff;fill-opacity:1;fill-rule:nonzero;stroke:none"
         id="path44" />
      <path
         d="m 3852.31,702.551 -61.18,140.078 -65.89,-140.078 z m 25.75,-60.641 h -181.62 l -46.79,-102.16 h -70.59 l 205.42,427.469 h 189.09 l 26.86,-60.629 h -170.27 l 45.13,-103.551 h 165.56 l 27.13,-60.629 h -165.83 l 60.9,-142.019 h 170.82 l 26.03,-60.641 h -236.99 l -44.85,102.16"
         style="fill:#ffffff;fill-opacity:1;fill-rule:nonzero;stroke:none"
         id="path46" />
      <path
         d="m 2067.24,3435.34 c -49.31,0 -89.29,39.98 -89.29,89.29 0,49.31 39.98,89.29 89.29,89.29 49.32,0 89.29,-39.98 89.29,-89.29 0,-49.31 -39.97,-89.29 -89.29,-89.29 z m -1020.47,395.43 v -612.28 h 2040.95 v 612.28 H 1046.77"
         style="fill:#ffffff;fill-opacity:1;fill-rule:nonzero;stroke:none"
         id="path48" />
      <path
         d="m 2067.24,2771.03 c -49.31,0 -89.29,39.98 -89.29,89.29 0,49.32 39.98,89.29 89.29,89.29 49.32,0 89.29,-39.97 89.29,-89.29 0,-49.31 -39.97,-89.29 -89.29,-89.29 z m -1020.47,395.44 v -612.29 h 2040.95 v 612.29 H 1046.77"
         style="fill:#ffffff;fill-opacity:1;fill-rule:nonzero;stroke:none"
         id="path50" />
      <path
         d="m 1148.82,2043.89 h -102.05 v 459.21 h 102.05 v -459.21"
         style="fill:#ffffff;fill-opacity:1;fill-rule:nonzero;stroke:none"
         id="path52" />
      <path
         d="m 3087.72,2043.89 h -102.05 v 459.21 h 102.05 v -459.21"
         style="fill:#ffffff;fill-opacity:1;fill-rule:nonzero;stroke:none"
         id="path54" />
      <path
         d="m 4065.84,3521.02 c 0,75.34 0,106.1 0,106.1 -98.25,0.09 -177.93,79.53 -178.41,177.69 h -0.03 v 471.53 c 0,35.08 -28.7,63.78 -63.78,63.78 -35.08,0 -63.78,-28.7 -63.78,-63.78 v -471.53 h -0.03 c -0.48,-98.22 -80.24,-177.69 -178.57,-177.69 -0.04,0 -0.08,0 -0.12,0 v -104.78 l 484.72,-1.32"
         style="fill:#ffffff;fill-opacity:1;fill-rule:nonzero;stroke:none"
         id="path56" />
      <path
         d="m 3581.12,3471.32 v -152.8 c 0,-20.55 1.04,-85.46 -31.78,-146.36 -31.34,-58.13 -53.78,-62.16 -46.78,-74.54 9.64,-17.06 64.82,-31.79 92.74,-20.93 33.94,13.2 71.35,58.95 85.48,115.37 8.12,32.46 39.32,-21.52 17.63,-77.83 -12.73,-33.04 -8.49,-32.66 1.37,-43.44 20.83,-22.78 211.2,-7.42 220.6,-6.45 120.41,12.35 145.46,123.59 145.46,314.01 0,39.84 0,61.82 0,91.65 l -484.72,1.32"
         style="fill:#ffffff;fill-opacity:1;fill-rule:nonzero;stroke:none"
         id="path58" />
    </g>
  </g>
</svg>
