<?xml version="1.0" encoding="UTF-8" standalone="no"?>
<!-- Created with Inkscape (http://www.inkscape.org/) -->

<svg
   version="1.1"
   id="svg2"
   width="680.32001"
   height="680.32001"
   viewBox="0 0 680.32001 680.32001"
   sodipodi:docname="INDENDOERS_UMALET_TRAE_rgb.eps"
   xmlns:inkscape="http://www.inkscape.org/namespaces/inkscape"
   xmlns:sodipodi="http://sodipodi.sourceforge.net/DTD/sodipodi-0.dtd"
   xmlns="http://www.w3.org/2000/svg"
   xmlns:svg="http://www.w3.org/2000/svg">
  <defs
     id="defs6" />
  <sodipodi:namedview
     id="namedview4"
     pagecolor="#ffffff"
     bordercolor="#000000"
     borderopacity="0.25"
     inkscape:showpageshadow="2"
     inkscape:pageopacity="0.0"
     inkscape:pagecheckerboard="0"
     inkscape:deskcolor="#d1d1d1" />
  <g
     id="g8"
     inkscape:groupmode="layer"
     inkscape:label="ink_ext_XXXXXX"
     transform="matrix(1.3333333,0,0,-1.3333333,0,680.32)">
    <g
       id="g10"
       transform="scale(0.1)">
      <path
         d="M 5102.36,0 H 0 V 5102.36 H 5102.36 V 0"
         style="fill:#715724;fill-opacity:1;fill-rule:nonzero;stroke:none"
         id="path12" />
      <path
         d="m 983.75,1502.24 v -427.46 h -64.504 v 427.46 h 64.504"
         style="fill:#ffffff;fill-opacity:1;fill-rule:nonzero;stroke:none"
         id="path14" />
      <path
         d="m 1063.06,1074.78 v 456.53 l 311.74,-326.14 v 297.07 h 64.51 v -453.49 l -311.74,325.31 v -299.28 h -64.51"
         style="fill:#ffffff;fill-opacity:1;fill-rule:nonzero;stroke:none"
         id="path16" />
      <path
         d="m 1584.65,1135.41 h 29.07 c 28.97,0 53.06,3.04 72.26,9.13 19.19,6.46 36.54,16.7 52.05,30.73 31.74,28.98 47.62,66.73 47.62,113.24 0,46.88 -15.69,84.9 -47.07,114.06 -28.24,26.03 -69.86,39.04 -124.86,39.04 h -29.07 z m -64.51,-60.63 v 427.46 h 89.7 c 43.01,0 76.97,-4.25 101.89,-12.74 26.76,-8.3 51.03,-22.42 72.81,-42.35 44.11,-40.24 66.17,-93.12 66.17,-158.64 0,-65.71 -22.98,-118.87 -68.94,-159.47 -23.07,-20.31 -47.25,-34.43 -72.54,-42.36 -23.62,-7.94 -57.12,-11.9 -100.49,-11.9 h -88.6"
         style="fill:#ffffff;fill-opacity:1;fill-rule:nonzero;stroke:none"
         id="path18" />
      <path
         d="M 2165.91,1441.61 H 1994.53 V 1338.9 h 166.39 v -60.64 h -166.39 v -142.85 h 171.38 v -60.63 h -235.88 v 427.46 h 235.88 v -60.63"
         style="fill:#ffffff;fill-opacity:1;fill-rule:nonzero;stroke:none"
         id="path20" />
      <path
         d="m 2245.22,1074.78 v 456.53 l 311.74,-326.14 v 297.07 h 64.51 v -453.49 l -311.74,325.31 v -299.28 h -64.51"
         style="fill:#ffffff;fill-opacity:1;fill-rule:nonzero;stroke:none"
         id="path22" />
      <path
         d="m 2765.01,1135.41 h 29.07 c 28.98,0 53.06,3.04 72.26,9.13 19.19,6.46 36.54,16.7 52.05,30.73 31.74,28.98 47.62,66.73 47.62,113.24 0,46.88 -15.69,84.9 -47.07,114.06 -28.24,26.03 -69.86,39.04 -124.86,39.04 h -29.07 z m -64.51,-60.63 v 427.46 h 89.71 c 43,0 76.96,-4.25 101.88,-12.74 26.76,-8.3 51.03,-22.42 72.81,-42.35 44.11,-40.24 66.17,-93.12 66.17,-158.64 0,-65.71 -22.98,-118.87 -68.94,-159.47 -23.07,-20.31 -47.25,-34.43 -72.53,-42.36 -23.63,-7.94 -57.13,-11.9 -100.5,-11.9 h -88.6"
         style="fill:#ffffff;fill-opacity:1;fill-rule:nonzero;stroke:none"
         id="path24" />
      <path
         d="M 3446.21,1386.79 3223.9,1160.05 c 31.19,-21.6 63.3,-32.4 96.35,-32.4 43.55,0 80.65,15.6 111.29,46.79 30.64,31.19 45.96,69.22 45.96,114.07 0,35.25 -10.43,68.01 -31.29,98.28 z m -37.09,35.99 c -26.77,17.9 -56.21,26.86 -88.32,26.86 -45.59,0 -83.61,-15.6 -114.07,-46.79 -30.27,-31.38 -45.4,-70.32 -45.4,-116.83 0,-30.46 8.95,-60.18 26.85,-89.15 z m 45.12,42.64 46.24,47.06 37.1,-36.82 -45.68,-46.79 c 33.77,-42.08 50.66,-89.24 50.66,-141.47 0,-60.54 -21.87,-112.4 -65.62,-155.59 -43.74,-43.19 -96.25,-64.79 -157.53,-64.79 -51.12,0 -98.28,16.34 -141.47,49.01 l -45.96,-45.68 -35.43,36.26 44.57,45.96 c -29.9,39.87 -44.85,84.62 -44.85,134.28 0,63.85 22.61,117.29 67.83,160.3 44.3,42.08 96.62,63.12 156.98,63.12 47.98,0 92.37,-14.95 133.16,-44.85"
         style="fill:#ffffff;fill-opacity:1;fill-rule:nonzero;stroke:none"
         id="path26" />
      <path
         d="m 3682.79,1305.95 h 20.48 c 61.09,0 91.64,23.35 91.64,70.04 0,43.75 -29.72,65.62 -89.14,65.62 h -22.98 z m 80.28,-49 132.34,-182.17 h -78.9 l -122.1,174.97 h -11.62 v -174.97 h -64.51 v 427.46 h 75.58 c 56.48,0 97.27,-10.62 122.37,-31.84 27.69,-23.63 41.53,-54.82 41.53,-93.58 0,-30.27 -8.68,-56.29 -26.03,-78.07 -17.35,-21.78 -40.24,-35.71 -68.66,-41.8"
         style="fill:#ffffff;fill-opacity:1;fill-rule:nonzero;stroke:none"
         id="path28" />
      <path
         d="m 4188.74,1438.84 -52.33,-31.01 c -9.79,16.98 -19.1,28.05 -27.96,33.22 -9.23,5.91 -21.14,8.86 -35.72,8.86 -17.9,0 -32.76,-5.08 -44.57,-15.24 -11.82,-9.97 -17.72,-22.53 -17.72,-37.67 0,-20.88 15.5,-37.68 46.51,-50.43 l 42.64,-17.45 c 34.7,-14.04 60.08,-31.17 76.13,-51.4 16.06,-20.23 24.09,-45.02 24.09,-74.39 0,-39.34 -13.11,-71.85 -39.31,-97.52 -26.4,-25.86 -59.16,-38.79 -98.29,-38.79 -37.1,0 -67.74,11.03 -91.91,33.1 -23.81,22.04 -38.67,53 -44.58,92.87 l 65.34,14.4 c 2.95,-25.11 8.12,-42.45 15.5,-52.05 13.29,-18.46 32.67,-27.69 58.14,-27.69 20.12,0 36.82,6.73 50.11,20.2 13.29,13.46 19.94,30.52 19.94,51.18 0,8.3 -1.16,15.91 -3.46,22.82 -2.31,6.92 -5.91,13.29 -10.8,19.09 -4.89,5.81 -11.21,11.26 -18.97,16.33 -7.75,5.07 -16.98,9.91 -27.68,14.52 l -41.25,17.15 c -58.51,24.72 -87.76,60.87 -87.76,108.45 0,32.09 12.27,58.93 36.82,80.51 24.54,21.76 55.09,32.65 91.64,32.65 49.28,0 87.76,-23.91 115.45,-71.71"
         style="fill:#ffffff;fill-opacity:1;fill-rule:nonzero;stroke:none"
         id="path30" />
      <path
         d="M 841.844,964.121 V 706.828 c 0,-36.699 5.996,-63.539 17.996,-80.496 17.902,-24.531 43.094,-36.801 75.582,-36.801 32.668,0 57.953,12.27 75.858,36.801 12,16.406 18,43.246 18,80.496 v 257.293 h 64.5 V 688.922 c 0,-45.031 -14.02,-82.133 -42.08,-111.293 -31.56,-32.488 -70.321,-48.731 -116.278,-48.731 -45.957,0 -84.625,16.243 -116,48.731 -28.059,29.16 -42.082,66.262 -42.082,111.293 v 275.199 h 64.504"
         style="fill:#ffffff;fill-opacity:1;fill-rule:nonzero;stroke:none"
         id="path32" />
      <path
         d="m 1143.47,536.648 89.97,459.582 146.74,-332.218 151.99,332.218 80.84,-459.582 h -66.16 L 1505.59,794.68 1379.07,517 1256.15,794.961 1210.19,536.648 h -66.72"
         style="fill:#ffffff;fill-opacity:1;fill-rule:nonzero;stroke:none"
         id="path34" />
      <path
         d="m 1931.95,701.102 -63.4,145.347 -66.44,-145.347 z m 26.3,-60.633 h -183 l -47.62,-103.821 h -69.49 l 211.52,454.321 204.04,-454.321 h -70.6 l -44.85,103.821"
         style="fill:#ffffff;fill-opacity:1;fill-rule:nonzero;stroke:none"
         id="path36" />
      <path
         d="m 2191.64,964.121 v -366.84 h 125.7 v -60.633 h -190.21 v 427.473 h 64.51"
         style="fill:#ffffff;fill-opacity:1;fill-rule:nonzero;stroke:none"
         id="path38" />
      <path
         d="M 2627,903.488 H 2455.63 V 800.77 h 166.39 V 740.141 H 2455.63 V 597.281 H 2627 V 536.648 H 2391.12 V 964.121 H 2627 v -60.633"
         style="fill:#ffffff;fill-opacity:1;fill-rule:nonzero;stroke:none"
         id="path40" />
      <path
         d="m 2862.06,903.488 v -366.84 h -64.5 v 366.84 h -98.29 v 60.633 h 260.8 v -60.633 h -98.01"
         style="fill:#ffffff;fill-opacity:1;fill-rule:nonzero;stroke:none"
         id="path42" />
      <path
         d="m 3306.97,903.488 v -366.84 h -64.51 v 366.84 h -98.28 v 60.633 h 260.8 v -60.633 h -98.01"
         style="fill:#ffffff;fill-opacity:1;fill-rule:nonzero;stroke:none"
         id="path44" />
      <path
         d="m 3537.87,767.828 h 20.49 c 61.09,0 91.64,23.344 91.64,70.043 0,43.738 -29.72,65.617 -89.15,65.617 h -22.98 z m 80.29,-49.008 132.34,-182.172 h -78.91 L 3549.5,711.621 h -11.63 V 536.648 h -64.51 v 427.473 h 75.58 c 56.48,0 97.27,-10.621 122.38,-31.84 27.68,-23.633 41.52,-54.82 41.52,-93.582 0,-30.269 -8.67,-56.301 -26.02,-78.07 -17.35,-21.777 -40.24,-35.719 -68.66,-41.809"
         style="fill:#ffffff;fill-opacity:1;fill-rule:nonzero;stroke:none"
         id="path46" />
      <path
         d="m 4052.13,699.441 -61.18,140.09 -65.89,-140.09 z m 25.75,-60.632 h -181.62 l -46.79,-102.161 h -70.59 l 205.42,427.473 h 189.09 l 26.86,-60.633 h -170.27 l 45.13,-103.547 h 165.56 l 27.13,-60.632 h -165.83 l 60.9,-142.028 h 170.82 l 26.03,-60.633 h -236.99 l -44.85,102.161"
         style="fill:#ffffff;fill-opacity:1;fill-rule:nonzero;stroke:none"
         id="path48" />
      <path
         d="m 2551.57,3432.24 c -49.31,0 -89.29,39.97 -89.29,89.29 0,49.31 39.98,89.29 89.29,89.29 49.32,0 89.3,-39.98 89.3,-89.29 0,-49.32 -39.98,-89.29 -89.3,-89.29 z M 1531.1,3827.67 v -612.28 h 2040.95 v 612.28 H 1531.1"
         style="fill:#ffffff;fill-opacity:1;fill-rule:nonzero;stroke:none"
         id="path50" />
      <path
         d="m 2551.57,2767.93 c -49.31,0 -89.29,39.98 -89.29,89.29 0,49.32 39.98,89.29 89.29,89.29 49.32,0 89.3,-39.97 89.3,-89.29 0,-49.31 -39.98,-89.29 -89.3,-89.29 z M 1531.1,3163.36 v -612.28 h 2040.95 v 612.28 H 1531.1"
         style="fill:#ffffff;fill-opacity:1;fill-rule:nonzero;stroke:none"
         id="path52" />
      <path
         d="M 1633.15,2040.78 H 1531.1 V 2500 h 102.05 v -459.22"
         style="fill:#ffffff;fill-opacity:1;fill-rule:nonzero;stroke:none"
         id="path54" />
      <path
         d="M 3572.05,2040.78 H 3470 V 2500 h 102.05 v -459.22"
         style="fill:#ffffff;fill-opacity:1;fill-rule:nonzero;stroke:none"
         id="path56" />
    </g>
  </g>
</svg>
