<?xml version="1.0" encoding="UTF-8" standalone="no"?>
<!-- Created with Inkscape (http://www.inkscape.org/) -->

<svg
   version="1.1"
   id="svg2"
   width="680.32001"
   height="680.32001"
   viewBox="0 0 680.32001 680.32001"
   sodipodi:docname="JORD_rgb.eps"
   xmlns:inkscape="http://www.inkscape.org/namespaces/inkscape"
   xmlns:sodipodi="http://sodipodi.sourceforge.net/DTD/sodipodi-0.dtd"
   xmlns="http://www.w3.org/2000/svg"
   xmlns:svg="http://www.w3.org/2000/svg">
  <defs
     id="defs6" />
  <sodipodi:namedview
     id="namedview4"
     pagecolor="#ffffff"
     bordercolor="#000000"
     borderopacity="0.25"
     inkscape:showpageshadow="2"
     inkscape:pageopacity="0.0"
     inkscape:pagecheckerboard="0"
     inkscape:deskcolor="#d1d1d1" />
  <g
     id="g8"
     inkscape:groupmode="layer"
     inkscape:label="ink_ext_XXXXXX"
     transform="matrix(1.3333333,0,0,-1.3333333,0,680.32)">
    <g
       id="g10"
       transform="scale(0.1)">
      <path
         d="M 5102.36,0 H 0 V 5102.36 H 5102.36 V 0"
         style="fill:#1e612f;fill-opacity:1;fill-rule:nonzero;stroke:none"
         id="path12" />
      <path
         d="M 2006.92,962.602 V 684.551 c 0,-33.211 -2.32,-57.981 -6.96,-74.313 -4.64,-18.547 -12.52,-34.238 -23.66,-47.039 -21.71,-25.418 -50.47,-38.117 -86.27,-38.117 -27.1,0 -52.43,7.078 -75.99,21.25 l 31.73,55.559 c 15.77,-10.571 30.52,-15.871 44.26,-15.871 19.29,0 32.65,7.332 40.07,21.98 7.8,14.641 11.69,40.23 11.69,76.75 v 277.852 h 65.13"
         style="fill:#ffffff;fill-opacity:1;fill-rule:nonzero;stroke:none"
         id="path14" />
      <path
         d="m 2153.87,748.98 c 0,-47.46 15.95,-86.48 47.87,-117.07 31.73,-30.59 68.37,-45.89 109.94,-45.89 45.09,0 83.12,15.582 114.11,46.718 30.98,31.524 46.48,69.891 46.48,115.133 0,45.789 -15.31,84.16 -45.93,115.129 -30.43,31.141 -68.09,46.719 -112.99,46.719 -44.72,0 -82.48,-15.578 -113.28,-46.719 -30.8,-30.781 -46.2,-68.781 -46.2,-114.02 z m -65.41,0.7 c 0,60.48 22.18,112.441 66.52,155.859 44.16,43.41 97.23,65.121 159.21,65.121 61.22,0 113.73,-21.89 157.52,-65.68 43.97,-43.789 65.96,-96.398 65.96,-157.8 0,-61.789 -22.08,-114.211 -66.24,-157.258 -44.34,-43.231 -97.87,-64.84 -160.59,-64.84 -55.48,0 -105.3,19.199 -149.46,57.598 -48.61,42.492 -72.92,98.16 -72.92,167"
         style="fill:#ffffff;fill-opacity:1;fill-rule:nonzero;stroke:none"
         id="path16" />
      <path
         d="m 2684.07,765.262 h 20.6 c 61.4,0 92.12,23.476 92.12,70.418 0,43.98 -29.88,65.961 -89.62,65.961 h -23.1 z M 2764.79,716 2897.82,532.871 H 2818.5 L 2695.76,708.77 h -11.69 V 532.871 h -64.85 v 429.731 h 75.99 c 56.77,0 97.77,-10.68 123.01,-32.024 27.84,-23.75 41.75,-55.098 41.75,-94.066 0,-30.43 -8.73,-56.59 -26.16,-78.481 -17.45,-21.902 -40.46,-35.902 -69.02,-42.031"
         style="fill:#ffffff;fill-opacity:1;fill-rule:nonzero;stroke:none"
         id="path18" />
      <path
         d="m 3029.03,593.82 h 29.23 c 29.13,0 53.34,3.059 72.64,9.192 19.3,6.488 36.74,16.777 52.32,30.879 31.92,29.14 47.87,67.078 47.87,113.839 0,47.129 -15.77,85.34 -47.31,114.668 -28.39,26.161 -70.22,39.243 -125.52,39.243 h -29.23 z m -64.84,-60.949 v 429.731 h 90.18 c 43.23,0 77.37,-4.282 102.42,-12.813 26.9,-8.348 51.3,-22.551 73.19,-42.578 44.35,-40.449 66.52,-93.621 66.52,-159.481 0,-66.058 -23.1,-119.492 -69.3,-160.308 -23.2,-20.422 -47.5,-34.613 -72.92,-42.59 -23.75,-7.98 -57.42,-11.961 -101.03,-11.961 h -89.06"
         style="fill:#ffffff;fill-opacity:1;fill-rule:nonzero;stroke:none"
         id="path20" />
      <path
         d="m 2121.47,2735.32 c 27.89,-36.3 95.78,-122.97 169.05,-204.26 56.55,-62.72 105.4,-110.22 145.21,-141.2 25.3,-19.69 46.86,-32.73 65.89,-39.91 18.34,-6.9 44.71,-11.75 66.26,4.39 39.05,29.24 19.87,91.65 2.05,136.05 -18.72,46.65 -50.73,106.63 -95.11,178.3 -57.81,93.34 -122.24,183.07 -148.98,219.63 l 220.47,165.08 362.91,-484.72 -0.07,-0.05 c 6.94,-9.58 13.48,-19.62 19.51,-30.19 118.28,-207.36 61.51,-555 -31.93,-624.96 l -0.65,-0.48 c -93.43,-69.95 -443,-26.55 -608.66,145.34 -8.44,8.76 -16.24,17.86 -23.47,27.21 l -0.07,-0.04 -362.91,484.71 z m -634.09,3.4 C 1363.7,2624.37 1213.48,2629.17 1113.71,2446.96 1061.82,2352.23 719.184,1533.49 716.836,1527.7 H 4376.97 c -72.27,162.34 -276.35,606.9 -394.66,723.96 -75.86,75.05 -238.23,169.34 -281.3,251.47 -43.08,82.12 -25.34,48.23 -125.42,322.64 -100.09,274.35 -294.04,460.23 -473.29,654.2 -89.27,96.59 -217.82,234.21 -372.11,300.66 -152.12,65.52 -353.73,82.74 -584.21,-142.26 -58.28,-62.47 -131.43,-142.4 -205.08,-257.76 -7.79,-12.19 -15.02,-23.64 -21.8,-34.48 l 365.8,-488.45 h 0.01 c 26.42,-36.13 89.93,-124.08 146.7,-215.75 132.07,-213.23 106.13,-246.67 105.81,-246.91 -0.33,-0.25 -38.09,-19.64 -208.96,169.86 -71.94,79.78 -138.47,165.13 -166.09,201.05 v 0.01 l -328.33,438.41 c -30.02,-50.65 -59.95,-98.49 -120.56,-181.63 -148.96,-204.33 -169.96,-232.14 -226.1,-284"
         style="fill:#ffffff;fill-opacity:1;fill-rule:nonzero;stroke:none"
         id="path22" />
      <path
         d="m 1359.4,4093.48 98.02,73.4 -45.87,61.26 -318.58,-238.53 45.87,-61.26 98.03,73.39 597.17,-797.39 c 23.43,39.51 46.92,80.75 85.06,141.78 l -559.7,747.35"
         style="fill:#ffffff;fill-opacity:1;fill-rule:nonzero;stroke:none"
         id="path24" />
    </g>
  </g>
</svg>
