<?xml version="1.0" encoding="UTF-8" standalone="no"?>
<!-- Created with Inkscape (http://www.inkscape.org/) -->

<svg
   version="1.1"
   id="svg2"
   width="680.32001"
   height="680.32001"
   viewBox="0 0 680.32001 680.32001"
   sodipodi:docname="JORD_rgb.icon.svg"
   inkscape:version="1.3.2 (091e20e, 2023-11-25, custom)"
   xmlns:inkscape="http://www.inkscape.org/namespaces/inkscape"
   xmlns:sodipodi="http://sodipodi.sourceforge.net/DTD/sodipodi-0.dtd"
   xmlns="http://www.w3.org/2000/svg"
   xmlns:svg="http://www.w3.org/2000/svg">
  <defs
     id="defs6" />
  <sodipodi:namedview
     id="namedview4"
     pagecolor="#ffffff"
     bordercolor="#000000"
     borderopacity="0.25"
     inkscape:showpageshadow="2"
     inkscape:pageopacity="0.0"
     inkscape:pagecheckerboard="0"
     inkscape:deskcolor="#d1d1d1"
     inkscape:zoom="1.6859713"
     inkscape:cx="340.16"
     inkscape:cy="340.16"
     inkscape:window-width="2560"
     inkscape:window-height="1361"
     inkscape:window-x="2551"
     inkscape:window-y="-9"
     inkscape:window-maximized="1"
     inkscape:current-layer="g8" />
  <g
     id="g8"
     inkscape:groupmode="layer"
     inkscape:label="ink_ext_XXXXXX"
     transform="matrix(1.3333333,0,0,-1.3333333,0,680.32)">
    <g
       id="g10"
       transform="scale(0.1)">
      <path
         d="M 5102.36,0 H 0 V 5102.36 H 5102.36 V 0"
         style="fill:#1e612f;fill-opacity:1;fill-rule:nonzero;stroke:none"
         id="path12" />
      <path
         d="m 2121.47,2735.32 c 27.89,-36.3 95.78,-122.97 169.05,-204.26 56.55,-62.72 105.4,-110.22 145.21,-141.2 25.3,-19.69 46.86,-32.73 65.89,-39.91 18.34,-6.9 44.71,-11.75 66.26,4.39 39.05,29.24 19.87,91.65 2.05,136.05 -18.72,46.65 -50.73,106.63 -95.11,178.3 -57.81,93.34 -122.24,183.07 -148.98,219.63 l 220.47,165.08 362.91,-484.72 -0.07,-0.05 c 6.94,-9.58 13.48,-19.62 19.51,-30.19 118.28,-207.36 61.51,-555 -31.93,-624.96 l -0.65,-0.48 c -93.43,-69.95 -443,-26.55 -608.66,145.34 -8.44,8.76 -16.24,17.86 -23.47,27.21 l -0.07,-0.04 -362.91,484.71 z m -634.09,3.4 C 1363.7,2624.37 1213.48,2629.17 1113.71,2446.96 1061.82,2352.23 719.184,1533.49 716.836,1527.7 H 4376.97 c -72.27,162.34 -276.35,606.9 -394.66,723.96 -75.86,75.05 -238.23,169.34 -281.3,251.47 -43.08,82.12 -25.34,48.23 -125.42,322.64 -100.09,274.35 -294.04,460.23 -473.29,654.2 -89.27,96.59 -217.82,234.21 -372.11,300.66 -152.12,65.52 -353.73,82.74 -584.21,-142.26 -58.28,-62.47 -131.43,-142.4 -205.08,-257.76 -7.79,-12.19 -15.02,-23.64 -21.8,-34.48 l 365.8,-488.45 h 0.01 c 26.42,-36.13 89.93,-124.08 146.7,-215.75 132.07,-213.23 106.13,-246.67 105.81,-246.91 -0.33,-0.25 -38.09,-19.64 -208.96,169.86 -71.94,79.78 -138.47,165.13 -166.09,201.05 v 0.01 l -328.33,438.41 c -30.02,-50.65 -59.95,-98.49 -120.56,-181.63 -148.96,-204.33 -169.96,-232.14 -226.1,-284"
         style="fill:#ffffff;fill-opacity:1;fill-rule:nonzero;stroke:none"
         id="path22" />
      <path
         d="m 1359.4,4093.48 98.02,73.4 -45.87,61.26 -318.58,-238.53 45.87,-61.26 98.03,73.39 597.17,-797.39 c 23.43,39.51 46.92,80.75 85.06,141.78 l -559.7,747.35"
         style="fill:#ffffff;fill-opacity:1;fill-rule:nonzero;stroke:none"
         id="path24" />
    </g>
  </g>
</svg>
