<?xml version="1.0" encoding="UTF-8" standalone="no"?>
<!-- Created with Inkscape (http://www.inkscape.org/) -->

<svg
   version="1.1"
   id="svg2"
   width="680.32001"
   height="680.32001"
   viewBox="0 0 680.32001 680.32001"
   sodipodi:docname="KAFFEGRUMS_rgb.icon.svg"
   inkscape:version="1.3.2 (091e20e, 2023-11-25, custom)"
   xmlns:inkscape="http://www.inkscape.org/namespaces/inkscape"
   xmlns:sodipodi="http://sodipodi.sourceforge.net/DTD/sodipodi-0.dtd"
   xmlns="http://www.w3.org/2000/svg"
   xmlns:svg="http://www.w3.org/2000/svg">
  <defs
     id="defs6" />
  <sodipodi:namedview
     id="namedview4"
     pagecolor="#ffffff"
     bordercolor="#000000"
     borderopacity="0.25"
     inkscape:showpageshadow="2"
     inkscape:pageopacity="0.0"
     inkscape:pagecheckerboard="0"
     inkscape:deskcolor="#d1d1d1"
     showgrid="false"
     inkscape:zoom="1.6859713"
     inkscape:cx="340.16"
     inkscape:cy="340.16"
     inkscape:window-width="2560"
     inkscape:window-height="1361"
     inkscape:window-x="2551"
     inkscape:window-y="-9"
     inkscape:window-maximized="1"
     inkscape:current-layer="g8" />
  <g
     id="g8"
     inkscape:groupmode="layer"
     inkscape:label="ink_ext_XXXXXX"
     transform="matrix(1.3333333,0,0,-1.3333333,0,680.32)">
    <g
       id="g10"
       transform="scale(0.1)">
      <path
         d="M 5102.36,0 H 0 V 5102.36 H 5102.36 V 0"
         style="fill:#31ae52;fill-opacity:1;fill-rule:nonzero;stroke:none"
         id="path12" />
      <path
         d="m 2319.7,1791.38 c 53.75,1.12 93.04,38.52 96.73,41.98 68.93,64.51 118.13,140.09 146.35,224.83 56.49,169.67 25.93,370.59 -90.84,597.17 -96.72,187.67 -145.16,367.37 -143.97,534.11 0.97,136.72 34.97,264.42 101.05,379.56 12.01,20.94 39.98,62.81 41.15,64.59 0,0 13.69,18.19 4.06,36.53 -10.46,19.89 -33.3,17.9 -33.3,17.9 -402.02,-7.32 -679.47,-519.97 -679.47,-960.83 0,-436.62 180.43,-771.67 455.23,-915.55 6.74,-3.54 44.21,-21.51 103.01,-20.29"
         style="fill:#ffffff;fill-opacity:1;fill-rule:nonzero;stroke:none"
         id="path34" />
      <path
         d="m 2795.69,3681.62 c -58.38,0.11 -113.13,-33.48 -144.6,-66.77 -32.35,-34.24 -64.02,-76.75 -92.59,-127.79 -51.36,-91.76 -77.42,-193.78 -77.49,-303.24 -0.08,-140.47 42.65,-294.68 126.99,-458.34 72.59,-140.85 116.46,-276.64 130.38,-403.6 12.19,-111.26 1.67,-217.13 -31.25,-314.68 -22.49,-66.61 -53.49,-123.92 -87.72,-172.64 -2.84,-6.01 -7.2,-19.14 0.66,-32.39 10.27,-17.31 28.97,-16.44 31.73,-16.21 0.3,0.03 0.58,0.04 0.88,0.05 401.27,8.08 688,462.24 688,934.97 0,454.15 -172.19,791.76 -441.83,937.53 -7.93,4.29 -47.13,23 -103.16,23.11"
         style="fill:#ffffff;fill-opacity:1;fill-rule:nonzero;stroke:none"
         id="path36" />
    </g>
  </g>
</svg>
