<?xml version="1.0" encoding="UTF-8" standalone="no"?>
<!-- Created with Inkscape (http://www.inkscape.org/) -->

<svg
   version="1.1"
   id="svg2"
   width="680.32001"
   height="680.32001"
   viewBox="0 0 680.32001 680.32001"
   sodipodi:docname="KAFFEGRUMS_rgb.eps"
   xmlns:inkscape="http://www.inkscape.org/namespaces/inkscape"
   xmlns:sodipodi="http://sodipodi.sourceforge.net/DTD/sodipodi-0.dtd"
   xmlns="http://www.w3.org/2000/svg"
   xmlns:svg="http://www.w3.org/2000/svg">
  <defs
     id="defs6" />
  <sodipodi:namedview
     id="namedview4"
     pagecolor="#ffffff"
     bordercolor="#000000"
     borderopacity="0.25"
     inkscape:showpageshadow="2"
     inkscape:pageopacity="0.0"
     inkscape:pagecheckerboard="0"
     inkscape:deskcolor="#d1d1d1" />
  <g
     id="g8"
     inkscape:groupmode="layer"
     inkscape:label="ink_ext_XXXXXX"
     transform="matrix(1.3333333,0,0,-1.3333333,0,680.32)">
    <g
       id="g10"
       transform="scale(0.1)">
      <path
         d="M 5102.36,0 H 0 V 5102.36 H 5102.36 V 0"
         style="fill:#31ae52;fill-opacity:1;fill-rule:nonzero;stroke:none"
         id="path12" />
      <path
         d="m 761.305,789.809 166.39,170.55 H 1013.8 L 820.555,766.84 1014.9,532.891 H 928.527 L 774.598,723.102 761.305,709.801 v -176.91 h -64.508 v 427.468 h 64.508 v -170.55"
         style="fill:#ffffff;fill-opacity:1;fill-rule:nonzero;stroke:none"
         id="path14" />
      <path
         d="m 1331.04,697.34 -63.4,145.351 -66.44,-145.351 z m 26.3,-60.621 h -183 l -47.62,-103.828 h -69.49 l 211.52,454.328 204.04,-454.328 h -70.6 l -44.85,103.828"
         style="fill:#ffffff;fill-opacity:1;fill-rule:nonzero;stroke:none"
         id="path16" />
      <path
         d="M 1750.48,899.73 H 1601.54 V 797.012 h 143.69 v -60.621 h -143.69 v -203.5 h -64.51 v 427.468 h 213.45 V 899.73"
         style="fill:#ffffff;fill-opacity:1;fill-rule:nonzero;stroke:none"
         id="path18" />
      <path
         d="M 2038.69,899.73 H 1889.74 V 797.012 h 143.69 v -60.621 h -143.69 v -203.5 h -64.5 v 427.468 h 213.45 V 899.73"
         style="fill:#ffffff;fill-opacity:1;fill-rule:nonzero;stroke:none"
         id="path20" />
      <path
         d="M 2349.32,899.73 H 2177.95 V 797.012 h 166.39 V 736.391 H 2177.95 V 593.52 h 171.37 v -60.629 h -235.88 v 427.468 h 235.88 V 899.73"
         style="fill:#ffffff;fill-opacity:1;fill-rule:nonzero;stroke:none"
         id="path22" />
      <path
         d="m 2659.26,755.488 h 176.64 v -14.117 c 0,-32.121 -3.78,-60.543 -11.35,-85.281 -7.39,-22.891 -19.84,-44.289 -37.38,-64.231 -39.68,-44.66 -90.16,-67 -151.43,-67 -59.81,0 -111.02,21.602 -153.66,64.789 -42.64,43.372 -63.95,95.422 -63.95,156.153 0,62.008 21.69,114.609 65.06,157.801 43.37,43.367 96.16,65.058 158.36,65.058 33.41,0 64.6,-6.82 93.57,-20.488 27.69,-13.652 54.92,-35.801 81.68,-66.442 l -45.95,-44.019 c -35.08,46.687 -77.81,70.039 -128.2,70.039 -45.21,0 -83.15,-15.59 -113.78,-46.781 -30.64,-30.641 -45.96,-69.039 -45.96,-115.168 0,-47.629 17.07,-86.852 51.22,-117.672 31.93,-28.609 66.54,-42.91 103.83,-42.91 31.73,0 60.25,10.703 85.54,32.113 25.29,21.598 39.41,47.438 42.36,77.52 h -106.6 v 60.636"
         style="fill:#ffffff;fill-opacity:1;fill-rule:nonzero;stroke:none"
         id="path24" />
      <path
         d="m 2976.12,764.07 h 20.49 c 61.09,0 91.64,23.34 91.64,70.039 0,43.743 -29.72,65.621 -89.14,65.621 h -22.99 z m 80.29,-49 132.34,-182.179 h -78.9 l -122.1,174.98 h -11.63 v -174.98 h -64.5 v 427.468 h 75.57 c 56.49,0 97.28,-10.609 122.38,-31.839 27.68,-23.629 41.53,-54.821 41.53,-93.579 0,-30.269 -8.68,-56.3 -26.03,-78.07 -17.35,-21.781 -40.24,-35.723 -68.66,-41.801"
         style="fill:#ffffff;fill-opacity:1;fill-rule:nonzero;stroke:none"
         id="path26" />
      <path
         d="m 3294.91,960.359 v -257.48 c 0,-36.731 5.99,-63.578 18,-80.57 17.9,-24.539 43.09,-36.809 75.58,-36.809 32.67,0 57.95,12.27 75.85,36.809 12,16.429 18,43.293 18,80.57 v 257.48 h 64.51 V 685.172 c 0,-45.043 -14.03,-82.141 -42.08,-111.301 -31.56,-32.48 -70.32,-48.723 -116.28,-48.723 -45.96,0 -84.63,16.243 -116,48.723 -28.06,29.16 -42.08,66.258 -42.08,111.301 v 275.187 h 64.5"
         style="fill:#ffffff;fill-opacity:1;fill-rule:nonzero;stroke:none"
         id="path28" />
      <path
         d="m 3605.51,532.891 89.98,459.578 146.74,-332.231 151.99,332.231 80.84,-459.578 h -66.17 L 3967.64,790.93 3841.12,513.238 3718.2,791.199 3672.24,532.891 h -66.73"
         style="fill:#ffffff;fill-opacity:1;fill-rule:nonzero;stroke:none"
         id="path30" />
      <path
         d="m 4394.27,896.68 -52.32,-31.008 c -9.79,16.988 -19.11,28.058 -27.97,33.226 -9.23,5.903 -21.13,8.852 -35.71,8.852 -17.9,0 -32.77,-5.07 -44.57,-15.219 -11.82,-9.972 -17.73,-22.519 -17.73,-37.66 0,-20.859 15.51,-37.641 46.52,-50.383 l 42.63,-17.437 c 34.7,-14.031 60.08,-31.153 76.14,-51.36 16.06,-20.211 24.09,-44.992 24.09,-74.332 0,-39.32 -13.11,-71.808 -39.32,-97.449 -26.39,-25.851 -59.15,-38.762 -98.28,-38.762 -37.1,0 -67.74,10.973 -91.91,32.942 -23.82,21.961 -38.68,52.879 -44.58,92.738 l 65.34,14.402 c 2.95,-25.101 8.11,-42.46 15.5,-52.05 13.29,-18.45 32.67,-27.68 58.14,-27.68 20.12,0 36.82,6.738 50.11,20.199 13.29,13.481 19.93,30.551 19.93,51.223 0,8.308 -1.15,15.918 -3.46,22.848 -2.3,6.921 -5.91,13.289 -10.8,19.101 -4.88,5.82 -11.21,11.258 -18.96,16.328 -7.75,5.071 -16.99,9.93 -27.69,14.539 l -41.25,17.16 c -58.5,24.731 -87.75,60.911 -87.75,108.532 0,32.121 12.26,58.968 36.81,80.57 24.54,21.77 55.1,32.66 91.64,32.66 49.28,0 87.77,-23.988 115.45,-71.98"
         style="fill:#ffffff;fill-opacity:1;fill-rule:nonzero;stroke:none"
         id="path32" />
      <path
         d="m 2319.7,1791.38 c 53.75,1.12 93.04,38.52 96.73,41.98 68.93,64.51 118.13,140.09 146.35,224.83 56.49,169.67 25.93,370.59 -90.84,597.17 -96.72,187.67 -145.16,367.37 -143.97,534.11 0.97,136.72 34.97,264.42 101.05,379.56 12.01,20.94 39.98,62.81 41.15,64.59 0,0 13.69,18.19 4.06,36.53 -10.46,19.89 -33.3,17.9 -33.3,17.9 -402.02,-7.32 -679.47,-519.97 -679.47,-960.83 0,-436.62 180.43,-771.67 455.23,-915.55 6.74,-3.54 44.21,-21.51 103.01,-20.29"
         style="fill:#ffffff;fill-opacity:1;fill-rule:nonzero;stroke:none"
         id="path34" />
      <path
         d="m 2795.69,3681.62 c -58.38,0.11 -113.13,-33.48 -144.6,-66.77 -32.35,-34.24 -64.02,-76.75 -92.59,-127.79 -51.36,-91.76 -77.42,-193.78 -77.49,-303.24 -0.08,-140.47 42.65,-294.68 126.99,-458.34 72.59,-140.85 116.46,-276.64 130.38,-403.6 12.19,-111.26 1.67,-217.13 -31.25,-314.68 -22.49,-66.61 -53.49,-123.92 -87.72,-172.64 -2.84,-6.01 -7.2,-19.14 0.66,-32.39 10.27,-17.31 28.97,-16.44 31.73,-16.21 0.3,0.03 0.58,0.04 0.88,0.05 401.27,8.08 688,462.24 688,934.97 0,454.15 -172.19,791.76 -441.83,937.53 -7.93,4.29 -47.13,23 -103.16,23.11"
         style="fill:#ffffff;fill-opacity:1;fill-rule:nonzero;stroke:none"
         id="path36" />
    </g>
  </g>
</svg>
