<?xml version="1.0" encoding="UTF-8" standalone="no"?>
<!-- Created with Inkscape (http://www.inkscape.org/) -->

<svg
   version="1.1"
   id="svg2"
   width="680.32001"
   height="680.32001"
   viewBox="0 0 680.32001 680.32001"
   sodipodi:docname="KLAR_BLOED_PLAST_rgb.eps"
   xmlns:inkscape="http://www.inkscape.org/namespaces/inkscape"
   xmlns:sodipodi="http://sodipodi.sourceforge.net/DTD/sodipodi-0.dtd"
   xmlns="http://www.w3.org/2000/svg"
   xmlns:svg="http://www.w3.org/2000/svg">
  <defs
     id="defs6" />
  <sodipodi:namedview
     id="namedview4"
     pagecolor="#ffffff"
     bordercolor="#000000"
     borderopacity="0.25"
     inkscape:showpageshadow="2"
     inkscape:pageopacity="0.0"
     inkscape:pagecheckerboard="0"
     inkscape:deskcolor="#d1d1d1" />
  <g
     id="g8"
     inkscape:groupmode="layer"
     inkscape:label="ink_ext_XXXXXX"
     transform="matrix(1.3333333,0,0,-1.3333333,0,680.32)">
    <g
       id="g10"
       transform="scale(0.1)">
      <path
         d="M 5102.36,0 H 0 V 5102.36 H 5102.36 V 0"
         style="fill:#8d1c90;fill-opacity:1;fill-rule:nonzero;stroke:none"
         id="path12" />
      <path
         d="m 995.953,592.699 h 39.867 c 29.16,0 50.57,5.723 64.23,17.172 14.39,12.359 21.6,28.059 21.6,47.059 0,18.461 -6.93,33.961 -20.77,46.511 C 1087.4,715.809 1063.32,722 1028.62,722 h -32.667 z m 0,183.281 h 20.207 c 23.99,0 41.57,5.309 52.74,15.918 11.17,10.622 16.75,26.25 16.75,46.922 0,20.121 -5.72,35.391 -17.16,45.821 -11.45,10.429 -28.06,15.648 -49.84,15.648 H 995.953 Z M 931.445,532.07 v 427.469 h 64.231 c 28.604,0 51.394,-2.219 68.384,-6.648 17.17,-4.43 31.65,-11.911 43.46,-22.43 12,-10.883 21.5,-24.449 28.52,-40.691 7.2,-16.43 10.8,-33.051 10.8,-49.829 0,-30.652 -11.72,-56.57 -35.16,-77.812 22.7,-7.738 40.6,-21.309 53.71,-40.688 13.29,-19.203 19.93,-41.531 19.93,-67 0,-33.41 -11.81,-61.652 -35.44,-84.722 -14.21,-14.207 -30.17,-24.078 -47.89,-29.617 -19.38,-5.364 -43.66,-8.032 -72.82,-8.032 h -97.725"
         style="fill:#ffffff;fill-opacity:1;fill-rule:nonzero;stroke:none"
         id="path14" />
      <path
         d="m 1326.36,959.539 v -366.84 h 125.7 V 532.07 h -190.2 v 427.469 h 64.5"
         style="fill:#ffffff;fill-opacity:1;fill-rule:nonzero;stroke:none"
         id="path16" />
      <path
         d="M 1858.07,844.09 1635.76,617.34 c 31.18,-21.59 63.3,-32.391 96.34,-32.391 43.55,0 80.65,15.59 111.29,46.781 30.64,31.2 45.97,69.219 45.97,114.079 0,35.242 -10.43,68 -31.29,98.281 z m -37.1,35.98 c -26.77,17.899 -56.2,26.86 -88.32,26.86 -45.59,0 -83.61,-15.598 -114.06,-46.789 -30.27,-31.371 -45.41,-70.321 -45.41,-116.821 0,-30.461 8.95,-60.179 26.86,-89.148 z m 45.13,42.641 46.23,47.07 37.1,-36.82 -45.68,-46.789 c 33.77,-42.082 50.66,-89.242 50.66,-141.481 0,-60.531 -21.87,-112.402 -65.61,-155.582 -43.74,-43.199 -96.26,-64.789 -157.53,-64.789 -51.13,0 -98.29,16.328 -141.48,49.008 l -45.95,-45.687 -35.44,36.269 44.57,45.961 c -29.9,39.859 -44.85,84.617 -44.85,134.277 0,63.852 22.61,117.282 67.83,160.293 44.3,42.079 96.62,63.118 156.98,63.118 47.99,0 92.38,-14.95 133.17,-44.848"
         style="fill:#ffffff;fill-opacity:1;fill-rule:nonzero;stroke:none"
         id="path18" />
      <path
         d="m 2092.84,592.699 h 29.07 c 28.97,0 53.06,3.051 72.26,9.141 19.19,6.461 36.54,16.699 52.05,30.73 31.74,28.981 47.62,66.719 47.62,113.239 0,46.871 -15.7,84.89 -47.07,114.062 -28.24,26.02 -69.86,39.027 -124.86,39.027 h -29.07 z m -64.51,-60.629 v 427.469 h 89.7 c 43,0 76.97,-4.25 101.89,-12.738 26.75,-8.313 51.03,-22.43 72.81,-42.36 44.11,-40.23 66.17,-93.121 66.17,-158.632 0,-65.719 -22.98,-118.868 -68.94,-159.477 -23.07,-20.301 -47.25,-34.422 -72.53,-42.352 -23.63,-7.941 -57.13,-11.91 -100.5,-11.91 h -88.6"
         style="fill:#ffffff;fill-opacity:1;fill-rule:nonzero;stroke:none"
         id="path20" />
      <path
         d="m 2668.88,765.461 h 24.08 c 59.25,0 88.88,22.801 88.88,68.379 0,44.121 -30.55,66.18 -91.64,66.18 h -21.32 z m 0,-59.801 V 532.07 h -64.52 v 427.469 h 73.1 c 35.8,0 62.84,-2.488 81.11,-7.48 18.46,-4.981 34.7,-14.399 48.73,-28.239 24.55,-23.988 36.82,-54.261 36.82,-90.808 0,-39.133 -13.1,-70.133 -39.31,-93.024 -26.21,-22.879 -61.56,-34.328 -106.03,-34.328 h -29.9"
         style="fill:#ffffff;fill-opacity:1;fill-rule:nonzero;stroke:none"
         id="path22" />
      <path
         d="m 2975.08,959.539 v -366.84 h 125.69 V 532.07 h -190.2 v 427.469 h 64.51"
         style="fill:#ffffff;fill-opacity:1;fill-rule:nonzero;stroke:none"
         id="path24" />
      <path
         d="m 3429.3,696.52 -63.41,145.351 -66.45,-145.351 z m 26.3,-60.629 H 3272.59 L 3224.97,532.07 h -69.49 L 3367,986.391 3571.04,532.07 h -70.59 l -44.85,103.821"
         style="fill:#ffffff;fill-opacity:1;fill-rule:nonzero;stroke:none"
         id="path26" />
      <path
         d="m 3858.07,896.141 -52.33,-31.012 c -9.78,16.98 -19.1,28.051 -27.96,33.23 -9.23,5.891 -21.13,8.852 -35.71,8.852 -17.91,0 -32.76,-5.082 -44.58,-15.242 -11.81,-9.969 -17.72,-22.528 -17.72,-37.68 0,-20.867 15.51,-37.668 46.52,-50.418 l 42.64,-17.461 c 34.69,-14.039 60.07,-31.172 76.13,-51.39 16.05,-20.231 24.08,-45.02 24.08,-74.391 0,-39.34 -13.11,-71.848 -39.31,-97.527 -26.39,-25.864 -59.16,-38.782 -98.29,-38.782 -37.09,0 -67.73,11.032 -91.91,33.102 -23.81,22.039 -38.67,53.008 -44.57,92.867 l 65.33,14.391 c 2.96,-25.09 8.13,-42.45 15.51,-52.051 13.29,-18.449 32.66,-27.68 58.14,-27.68 20.11,0 36.82,6.742 50.11,20.192 13.29,13.468 19.93,30.531 19.93,51.179 0,8.309 -1.15,15.91 -3.46,22.828 -2.31,6.922 -5.9,13.282 -10.8,19.09 -4.89,5.813 -11.21,11.25 -18.96,16.332 -7.76,5.059 -16.98,9.91 -27.69,14.52 l -41.25,17.148 c -58.51,24.711 -87.76,60.871 -87.76,108.453 0,32.09 12.27,58.93 36.83,80.5 24.54,21.77 55.08,32.649 91.63,32.649 49.28,0 87.76,-23.899 115.45,-71.699"
         style="fill:#ffffff;fill-opacity:1;fill-rule:nonzero;stroke:none"
         id="path28" />
      <path
         d="M 4072.91,898.898 V 532.07 h -64.51 v 366.828 h -98.28 v 60.641 h 260.8 v -60.641 h -98.01"
         style="fill:#ffffff;fill-opacity:1;fill-rule:nonzero;stroke:none"
         id="path30" />
      <path
         d="m 1946.38,1327.32 166.39,170.55 h 86.1 l -193.25,-193.53 194.36,-233.94 h -86.38 l -153.93,190.2 -13.29,-13.29 V 1070.4 h -64.51 v 427.47 h 64.51 v -170.55"
         style="fill:#ffffff;fill-opacity:1;fill-rule:nonzero;stroke:none"
         id="path32" />
      <path
         d="m 2334.68,1497.87 v -366.84 h 125.69 v -60.63 h -190.2 v 427.47 h 64.51"
         style="fill:#ffffff;fill-opacity:1;fill-rule:nonzero;stroke:none"
         id="path34" />
      <path
         d="m 2791.79,1234.85 -63.4,145.35 -66.45,-145.35 z m 26.3,-60.63 h -183 l -47.63,-103.82 h -69.49 l 211.52,454.32 204.04,-454.32 h -70.59 l -44.85,103.82"
         style="fill:#ffffff;fill-opacity:1;fill-rule:nonzero;stroke:none"
         id="path36" />
      <path
         d="m 3058.68,1301.58 h 20.49 c 61.08,0 91.64,23.34 91.64,70.04 0,43.74 -29.72,65.61 -89.15,65.61 h -22.98 z m 80.28,-49.01 132.35,-182.17 h -78.91 l -122.09,174.98 h -11.63 V 1070.4 h -64.51 v 427.47 h 75.59 c 56.47,0 97.26,-10.62 122.37,-31.85 27.68,-23.62 41.52,-54.81 41.52,-93.57 0,-30.28 -8.68,-56.3 -26.02,-78.07 -17.35,-21.79 -40.24,-35.72 -68.67,-41.81"
         style="fill:#ffffff;fill-opacity:1;fill-rule:nonzero;stroke:none"
         id="path38" />
      <path
         d="m 2505.63,2270.59 h -61.89 l -0.14,0.1 460.09,663.21 h 62.1 z M 2139,2168.54 h -62.1 l 798.44,1150.95 h 55.8 l 4.26,-2.95 z m 368.28,1050.13 h 62.09 l -463.11,-667.58 h -62.1 z m -265.84,841.53 h 586.77 c 49.11,0 89.29,-40.18 89.29,-89.3 0,-49.11 -40.18,-89.29 -89.29,-89.29 h -586.77 c -49.11,0 -89.29,40.18 -89.29,89.29 0,49.12 40.18,89.3 89.29,89.3 z M 3303.51,2648.74 c -7.1,68.12 -14.18,137.05 -5.19,204.94 7.22,54.43 24.67,107.2 29.17,161.95 5.76,70.05 -9.89,139.9 -26.03,208.22 -11.62,49.23 -23.55,100.97 -10.74,149.89 6.85,26.13 20.4,49.8 30.17,74.93 14.12,36.34 103.99,350.39 107.2,688.69 0.42,44.43 8.91,84.43 2.49,128.38 -177.56,51.01 -737.96,41.29 -953.07,41.29 -813.91,0 -834.44,41.27 -834.9,44.1 l 37.11,-742.05 c 21.65,-202.49 55.14,-410.8 162.8,-581.75 10.15,-16.12 21.36,-33.29 20.78,-52.49 -0.45,-15.06 -8.15,-28.72 -15.12,-41.97 -65.46,-124.46 -81.73,-263.72 -96.82,-404.39 -10.83,-100.86 -21.65,-201.72 -32.47,-302.58 -8.88,-82.76 -8.64,-138.05 -17.51,-220.82 -0.74,-30.76 -30.11,-57.34 -48.7,-81.43 -18.6,-24.09 -24.36,-78.31 -25.95,-122.41 38.39,-14.63 286.59,-8.58 496.6,-1.18 133.84,4.72 254.3,20.75 287.58,24.82 332.44,40.61 686.67,20.1 1021.12,4.94 -21.04,68.57 -40.57,147 -48.01,218.51 -20.84,200.13 -59.68,400.27 -80.51,600.41"
         style="fill:#ffffff;fill-opacity:1;fill-rule:nonzero;stroke:none"
         id="path40" />
    </g>
  </g>
</svg>
