<?xml version="1.0" encoding="UTF-8" standalone="no"?>
<!-- Created with Inkscape (http://www.inkscape.org/) -->

<svg
   version="1.1"
   id="svg2"
   width="680.32001"
   height="680.32001"
   viewBox="0 0 680.32001 680.32001"
   sodipodi:docname="KLAR_BLOED_PLAST_rgb.icon.svg"
   inkscape:version="1.3.2 (091e20e, 2023-11-25, custom)"
   xmlns:inkscape="http://www.inkscape.org/namespaces/inkscape"
   xmlns:sodipodi="http://sodipodi.sourceforge.net/DTD/sodipodi-0.dtd"
   xmlns="http://www.w3.org/2000/svg"
   xmlns:svg="http://www.w3.org/2000/svg">
  <defs
     id="defs6" />
  <sodipodi:namedview
     id="namedview4"
     pagecolor="#ffffff"
     bordercolor="#000000"
     borderopacity="0.25"
     inkscape:showpageshadow="2"
     inkscape:pageopacity="0.0"
     inkscape:pagecheckerboard="0"
     inkscape:deskcolor="#d1d1d1"
     inkscape:zoom="1.6859713"
     inkscape:cx="340.16"
     inkscape:cy="340.16"
     inkscape:window-width="2560"
     inkscape:window-height="1361"
     inkscape:window-x="2551"
     inkscape:window-y="-9"
     inkscape:window-maximized="1"
     inkscape:current-layer="g8" />
  <g
     id="g8"
     inkscape:groupmode="layer"
     inkscape:label="ink_ext_XXXXXX"
     transform="matrix(1.3333333,0,0,-1.3333333,0,680.32)">
    <g
       id="g10"
       transform="scale(0.1)">
      <path
         d="M 5102.36,0 H 0 V 5102.36 H 5102.36 V 0"
         style="fill:#8d1c90;fill-opacity:1;fill-rule:nonzero;stroke:none"
         id="path12" />
      <path
         d="m 2505.63,2270.59 h -61.89 l -0.14,0.1 460.09,663.21 h 62.1 z M 2139,2168.54 h -62.1 l 798.44,1150.95 h 55.8 l 4.26,-2.95 z m 368.28,1050.13 h 62.09 l -463.11,-667.58 h -62.1 z m -265.84,841.53 h 586.77 c 49.11,0 89.29,-40.18 89.29,-89.3 0,-49.11 -40.18,-89.29 -89.29,-89.29 h -586.77 c -49.11,0 -89.29,40.18 -89.29,89.29 0,49.12 40.18,89.3 89.29,89.3 z M 3303.51,2648.74 c -7.1,68.12 -14.18,137.05 -5.19,204.94 7.22,54.43 24.67,107.2 29.17,161.95 5.76,70.05 -9.89,139.9 -26.03,208.22 -11.62,49.23 -23.55,100.97 -10.74,149.89 6.85,26.13 20.4,49.8 30.17,74.93 14.12,36.34 103.99,350.39 107.2,688.69 0.42,44.43 8.91,84.43 2.49,128.38 -177.56,51.01 -737.96,41.29 -953.07,41.29 -813.91,0 -834.44,41.27 -834.9,44.1 l 37.11,-742.05 c 21.65,-202.49 55.14,-410.8 162.8,-581.75 10.15,-16.12 21.36,-33.29 20.78,-52.49 -0.45,-15.06 -8.15,-28.72 -15.12,-41.97 -65.46,-124.46 -81.73,-263.72 -96.82,-404.39 -10.83,-100.86 -21.65,-201.72 -32.47,-302.58 -8.88,-82.76 -8.64,-138.05 -17.51,-220.82 -0.74,-30.76 -30.11,-57.34 -48.7,-81.43 -18.6,-24.09 -24.36,-78.31 -25.95,-122.41 38.39,-14.63 286.59,-8.58 496.6,-1.18 133.84,4.72 254.3,20.75 287.58,24.82 332.44,40.61 686.67,20.1 1021.12,4.94 -21.04,68.57 -40.57,147 -48.01,218.51 -20.84,200.13 -59.68,400.27 -80.51,600.41"
         style="fill:#ffffff;fill-opacity:1;fill-rule:nonzero;stroke:none"
         id="path40" />
    </g>
  </g>
</svg>
