<?xml version="1.0" encoding="UTF-8" standalone="no"?>
<!-- Created with Inkscape (http://www.inkscape.org/) -->

<svg
   version="1.1"
   id="svg2"
   width="680.32001"
   height="680.32001"
   viewBox="0 0 680.32001 680.32001"
   sodipodi:docname="KLINISK_RISIKOAFFALD_rgb.eps"
   xmlns:inkscape="http://www.inkscape.org/namespaces/inkscape"
   xmlns:sodipodi="http://sodipodi.sourceforge.net/DTD/sodipodi-0.dtd"
   xmlns="http://www.w3.org/2000/svg"
   xmlns:svg="http://www.w3.org/2000/svg">
  <defs
     id="defs6" />
  <sodipodi:namedview
     id="namedview4"
     pagecolor="#ffffff"
     bordercolor="#000000"
     borderopacity="0.25"
     inkscape:showpageshadow="2"
     inkscape:pageopacity="0.0"
     inkscape:pagecheckerboard="0"
     inkscape:deskcolor="#d1d1d1" />
  <g
     id="g8"
     inkscape:groupmode="layer"
     inkscape:label="ink_ext_XXXXXX"
     transform="matrix(1.3333333,0,0,-1.3333333,0,680.32)">
    <g
       id="g10"
       transform="scale(0.1)">
      <path
         d="M 0,5102.36 H 5102.36 V 0 H 0 v 5102.36"
         style="fill:#f7e219;fill-opacity:1;fill-rule:nonzero;stroke:none"
         id="path12" />
      <path
         d="m 1593.68,1330.42 166.39,170.55 h 86.1 l -193.25,-193.53 194.36,-233.94 h -86.38 l -153.93,190.2 -13.29,-13.29 V 1073.5 h -64.51 v 427.47 h 64.51 v -170.55"
         style="fill:#111111;fill-opacity:1;fill-rule:nonzero;stroke:none"
         id="path14" />
      <path
         d="m 1969.37,1500.97 v -366.84 h 125.69 v -60.63 h -190.2 v 427.47 h 64.51"
         style="fill:#111111;fill-opacity:1;fill-rule:nonzero;stroke:none"
         id="path16" />
      <path
         d="M 2220.75,1500.97 V 1073.5 h -64.5 v 427.47 h 64.5"
         style="fill:#111111;fill-opacity:1;fill-rule:nonzero;stroke:none"
         id="path18" />
      <path
         d="m 2323.47,1073.5 v 456.54 l 311.74,-326.14 v 297.07 h 64.5 v -453.49 l -311.74,325.3 V 1073.5 h -64.5"
         style="fill:#111111;fill-opacity:1;fill-rule:nonzero;stroke:none"
         id="path20" />
      <path
         d="M 2866.66,1500.97 V 1073.5 h -64.51 v 427.47 h 64.51"
         style="fill:#111111;fill-opacity:1;fill-rule:nonzero;stroke:none"
         id="path22" />
      <path
         d="m 3211.07,1437.29 -52.33,-31.01 c -9.78,16.98 -19.1,28.06 -27.96,33.22 -9.23,5.91 -21.14,8.86 -35.72,8.86 -17.9,0 -32.76,-5.07 -44.57,-15.22 -11.81,-9.97 -17.72,-22.52 -17.72,-37.66 0,-20.85 15.5,-37.65 46.51,-50.38 l 42.64,-17.44 c 34.7,-14.03 60.08,-31.15 76.13,-51.36 16.06,-20.21 24.09,-44.99 24.09,-74.34 0,-39.31 -13.11,-71.8 -39.31,-97.45 -26.4,-25.84 -59.16,-38.76 -98.28,-38.76 -37.1,0 -67.74,10.98 -91.92,32.95 -23.81,21.96 -38.67,52.88 -44.58,92.74 l 65.34,14.4 c 2.95,-25.1 8.12,-42.45 15.51,-52.05 13.29,-18.46 32.66,-27.69 58.13,-27.69 20.12,0 36.83,6.74 50.12,20.21 13.29,13.48 19.93,30.55 19.93,51.22 0,8.31 -1.16,15.92 -3.46,22.84 -2.31,6.93 -5.91,13.29 -10.8,19.11 -4.89,5.81 -11.21,11.25 -18.96,16.33 -7.76,5.08 -16.99,9.92 -27.69,14.54 l -41.25,17.16 c -58.51,24.73 -87.76,60.91 -87.76,108.53 0,32.11 12.27,58.97 36.82,80.56 24.54,21.78 55.09,32.67 91.64,32.67 49.28,0 87.76,-23.99 115.45,-71.98"
         style="fill:#111111;fill-opacity:1;fill-rule:nonzero;stroke:none"
         id="path24" />
      <path
         d="m 3364.45,1330.42 166.38,170.55 h 86.11 l -193.25,-193.53 194.36,-233.94 h -86.38 l -153.94,190.2 -13.28,-13.29 V 1073.5 h -64.51 v 427.47 h 64.51 v -170.55"
         style="fill:#111111;fill-opacity:1;fill-rule:nonzero;stroke:none"
         id="path26" />
      <path
         d="m 719.922,764.68 h 20.484 c 61.09,0 91.641,23.34 91.641,70.039 0,43.742 -29.719,65.621 -89.149,65.621 H 719.922 Z M 800.207,715.672 932.547,533.5 H 853.641 L 731.547,708.469 H 719.922 V 533.5 H 655.41 v 427.469 h 75.582 c 56.481,0 97.27,-10.617 122.371,-31.84 27.688,-23.629 41.528,-54.82 41.528,-93.578 0,-30.27 -8.676,-56.301 -26.024,-78.071 -17.351,-21.781 -40.238,-35.718 -68.66,-41.808"
         style="fill:#111111;fill-opacity:1;fill-rule:nonzero;stroke:none"
         id="path28" />
      <path
         d="M 1061.28,960.969 V 533.5 h -64.507 v 427.469 h 64.507"
         style="fill:#111111;fill-opacity:1;fill-rule:nonzero;stroke:none"
         id="path30" />
      <path
         d="m 1405.69,897.289 -52.33,-31.008 c -9.78,16.981 -19.1,28.059 -27.96,33.219 -9.23,5.91 -21.13,8.859 -35.71,8.859 -17.91,0 -32.77,-5.07 -44.58,-15.218 -11.81,-9.969 -17.71,-22.52 -17.71,-37.661 0,-20.851 15.5,-37.652 46.51,-50.378 l 42.63,-17.442 c 34.7,-14.031 60.08,-31.148 76.14,-51.359 16.06,-20.211 24.09,-44.992 24.09,-74.34 0,-39.313 -13.11,-71.801 -39.32,-97.449 -26.39,-25.84 -59.15,-38.762 -98.28,-38.762 -37.1,0 -67.74,10.98 -91.92,32.949 -23.81,21.961 -38.67,52.879 -44.57,92.742 l 65.34,14.399 c 2.95,-25.102 8.11,-42.449 15.5,-52.051 13.29,-18.461 32.67,-27.687 58.14,-27.687 20.11,0 36.82,6.738 50.11,20.207 13.29,13.48 19.93,30.55 19.93,51.222 0,8.309 -1.15,15.918 -3.46,22.84 -2.31,6.93 -5.91,13.289 -10.8,19.109 -4.89,5.809 -11.21,11.25 -18.96,16.329 -7.75,5.082 -16.98,9.921 -27.68,14.543 l -41.26,17.16 c -58.51,24.726 -87.76,60.91 -87.76,108.527 0,32.109 12.27,58.973 36.82,80.563 24.55,21.777 55.1,32.668 91.64,32.668 49.28,0 87.77,-23.989 115.45,-71.981"
         style="fill:#111111;fill-opacity:1;fill-rule:nonzero;stroke:none"
         id="path32" />
      <path
         d="M 1559.07,960.969 V 533.5 h -64.51 v 427.469 h 64.51"
         style="fill:#111111;fill-opacity:1;fill-rule:nonzero;stroke:none"
         id="path34" />
      <path
         d="m 1726.29,790.422 166.39,170.547 h 86.1 L 1785.54,767.441 1979.89,533.5 h -86.38 L 1739.58,723.699 1726.29,710.41 V 533.5 h -64.51 v 427.469 h 64.51 V 790.422"
         style="fill:#111111;fill-opacity:1;fill-rule:nonzero;stroke:none"
         id="path36" />
      <path
         d="m 2056.86,748.34 c 0,-47.25 15.87,-86.102 47.61,-116.551 31.57,-30.457 68.01,-45.687 109.36,-45.687 44.85,0 82.69,15.507 113.51,46.519 30.82,31.367 46.24,69.578 46.24,114.609 0,45.59 -15.23,83.801 -45.68,114.622 -30.28,31.007 -67.74,46.507 -112.41,46.507 -44.48,0 -82.04,-15.5 -112.68,-46.507 -30.64,-30.641 -45.95,-68.481 -45.95,-113.512 z m -65.07,0.832 c 0,60.168 22.06,111.848 66.17,155.039 43.93,43.187 96.72,64.789 158.36,64.789 60.91,0 113.14,-21.789 156.7,-65.34 43.75,-43.558 65.62,-95.89 65.62,-156.98 0,-61.461 -21.97,-113.602 -65.89,-156.418 -44.12,-43.012 -97.37,-64.512 -159.75,-64.512 -55.19,0 -104.74,19.102 -148.67,57.309 -48.36,42.261 -72.54,97.632 -72.54,166.113"
         style="fill:#111111;fill-opacity:1;fill-rule:nonzero;stroke:none"
         id="path38" />
      <path
         d="m 2722.97,697.949 -63.4,145.352 -66.45,-145.352 z m 26.3,-60.629 h -183 L 2518.65,533.5 h -69.49 l 211.52,454.32 204.04,-454.32 h -70.6 l -44.85,103.82"
         style="fill:#111111;fill-opacity:1;fill-rule:nonzero;stroke:none"
         id="path40" />
      <path
         d="M 3131.61,900.34 H 2982.66 V 797.621 h 143.69 V 736.988 H 2982.66 V 533.5 h -64.51 v 427.469 h 213.46 V 900.34"
         style="fill:#111111;fill-opacity:1;fill-rule:nonzero;stroke:none"
         id="path42" />
      <path
         d="M 3419.82,900.34 H 3270.87 V 797.621 h 143.69 V 736.988 H 3270.87 V 533.5 h -64.51 v 427.469 h 213.46 V 900.34"
         style="fill:#111111;fill-opacity:1;fill-rule:nonzero;stroke:none"
         id="path44" />
      <path
         d="m 3691.14,697.949 -63.4,145.352 -66.45,-145.352 z m 26.3,-60.629 h -183 L 3486.82,533.5 h -69.49 l 211.52,454.32 204.04,-454.32 h -70.6 l -44.85,103.82"
         style="fill:#111111;fill-opacity:1;fill-rule:nonzero;stroke:none"
         id="path46" />
      <path
         d="m 3950.83,960.969 v -366.84 h 125.69 V 533.5 h -190.2 v 427.469 h 64.51"
         style="fill:#111111;fill-opacity:1;fill-rule:nonzero;stroke:none"
         id="path48" />
      <path
         d="m 4202.21,594.129 h 29.07 c 28.98,0 53.06,3.051 72.26,9.141 19.19,6.46 36.55,16.699 52.05,30.73 31.74,28.98 47.62,66.719 47.62,113.23 0,46.879 -15.69,84.899 -47.07,114.071 -28.23,26.019 -69.86,39.039 -124.86,39.039 h -29.07 z m -64.5,-60.629 v 427.469 h 89.7 c 43,0 76.96,-4.25 101.88,-12.739 26.76,-8.3 51.03,-22.421 72.81,-42.359 44.11,-40.242 66.17,-93.121 66.17,-158.641 0,-65.71 -22.98,-118.859 -68.94,-159.46 -23.07,-20.309 -47.25,-34.43 -72.53,-42.36 -23.63,-7.941 -57.13,-11.91 -100.5,-11.91 h -88.59"
         style="fill:#111111;fill-opacity:1;fill-rule:nonzero;stroke:none"
         id="path50" />
      <path
         d="m 1519.12,3257.9 c 270.01,155.89 611.66,75.24 785.04,-177.65 l 93.68,54.09 c -6.66,17.83 -10.31,37.12 -10.31,57.28 0,81.7 59.87,149.42 138.14,161.67 v 106.66 c -315.58,13.36 -567.34,273.4 -567.34,592.27 0,247.04 151.12,458.76 365.94,547.83 -343.27,-98.46 -594.46,-414.7 -594.46,-789.62 0,-58.89 6.21,-116.33 17.99,-171.71 -45.51,-16.36 -90.2,-36.99 -133.55,-62.02 -324.69,-187.46 -472.96,-563.12 -386.6,-909.63 -30.27,230.58 77.53,467.31 291.47,590.83"
         style="fill:#111111;fill-opacity:1;fill-rule:nonzero;stroke:none"
         id="path52" />
      <path
         d="m 3488.12,3576.7 c -43.36,25.03 -88.05,45.66 -133.55,62.02 11.78,55.38 17.99,112.82 17.99,171.71 0,374.92 -251.2,691.16 -594.47,789.62 214.82,-89.07 365.94,-300.79 365.94,-547.83 0,-318.87 -251.76,-578.91 -567.34,-592.27 v -106.66 c 78.27,-12.25 138.15,-79.97 138.15,-161.67 0,-20.14 -3.65,-39.43 -10.31,-57.25 l 93.69,-54.09 c 173.39,252.86 515.03,333.5 785.03,177.62 213.94,-123.52 321.73,-360.25 291.46,-590.83 86.37,346.51 -61.91,722.17 -386.59,909.63"
         style="fill:#111111;fill-opacity:1;fill-rule:nonzero;stroke:none"
         id="path54" />
      <path
         d="m 2990.39,2231.05 c -282.25,162.96 -379.77,522.95 -219.2,805.92 l -91.76,52.98 c -29.98,-37.76 -76.29,-61.99 -128.25,-61.99 -51.95,0 -98.24,24.21 -128.22,61.96 l -91.77,-52.98 c 160.54,-282.96 63.02,-642.93 -219.22,-805.89 -213.95,-123.52 -472.85,-98.5 -657.41,43 256.9,-248.05 656.37,-307.47 981.06,-120.01 41.44,23.92 79.99,50.92 115.56,80.52 35.57,-29.6 74.12,-56.6 115.56,-80.52 324.69,-187.46 724.16,-128.04 981.07,120.01 -184.56,-141.5 -443.47,-166.52 -657.42,-43"
         style="fill:#111111;fill-opacity:1;fill-rule:nonzero;stroke:none"
         id="path56" />
      <path
         d="m 1955.83,3268.48 c -46.81,12.54 -94.44,18.75 -142.26,18.59 -4.01,-31.43 -6.04,-63.24 -6.04,-95.35 0,-100.46 19.73,-198.02 58.62,-289.98 37.52,-88.72 91.2,-168.35 159.54,-236.69 68.33,-68.33 147.97,-122.01 236.68,-159.54 10.83,-4.57 21.74,-8.88 32.72,-12.93 18.65,35.49 33.35,73.02 43.87,112.3 7.39,27.58 12.55,55.45 15.53,83.47 -200.76,78.97 -342.86,274.57 -342.86,503.37 0,19.38 1.04,38.51 3.03,57.36 -19.14,7.52 -38.75,14.02 -58.83,19.4"
         style="fill:#111111;fill-opacity:1;fill-rule:nonzero;stroke:none"
         id="path58" />
      <path
         d="m 2087.05,3773.33 c 22.69,-37.77 49.96,-72.66 81.55,-104.25 17.35,-17.35 35.72,-33.37 54.99,-48.08 91.1,69.88 205.07,111.44 328.77,111.44 123.4,0 237.13,-41.37 328.13,-110.96 19.05,14.58 37.2,30.44 54.37,47.6 31.78,31.78 59.17,66.91 81.95,104.93 -53.06,42.42 -111.46,77.26 -174.47,103.91 -91.96,38.9 -189.53,58.62 -289.98,58.62 -100.47,0 -198.03,-19.72 -289.99,-58.62 -63.35,-26.79 -122.04,-61.87 -175.32,-104.59"
         style="fill:#111111;fill-opacity:1;fill-rule:nonzero;stroke:none"
         id="path60" />
      <path
         d="m 2749.01,2687.89 c 3,-27.87 8.13,-55.58 15.49,-83.01 10.56,-39.42 25.32,-77.09 44.08,-112.68 11.33,4.15 22.58,8.59 33.76,13.31 88.71,37.53 168.34,91.21 236.68,159.54 68.34,68.34 122.02,147.97 159.54,236.69 38.89,91.96 58.62,189.52 58.62,289.98 0,32.1 -2.03,63.91 -6.04,95.33 -48.24,0.28 -96.29,-5.92 -143.52,-18.57 -19.66,-5.27 -38.87,-11.61 -57.62,-18.94 2.02,-19 3.08,-38.29 3.08,-57.82 0,-229.25 -142.68,-425.17 -344.07,-503.83"
         style="fill:#111111;fill-opacity:1;fill-rule:nonzero;stroke:none"
         id="path62" />
    </g>
  </g>
</svg>
