<?xml version="1.0" encoding="UTF-8" standalone="no"?>
<!-- Created with Inkscape (http://www.inkscape.org/) -->

<svg
   version="1.1"
   id="svg2"
   width="680.32001"
   height="680.32001"
   viewBox="0 0 680.32001 680.32001"
   sodipodi:docname="KLINISK_RISIKOAFFALD_rgb.icon.svg"
   inkscape:version="1.3.2 (091e20e, 2023-11-25, custom)"
   xmlns:inkscape="http://www.inkscape.org/namespaces/inkscape"
   xmlns:sodipodi="http://sodipodi.sourceforge.net/DTD/sodipodi-0.dtd"
   xmlns="http://www.w3.org/2000/svg"
   xmlns:svg="http://www.w3.org/2000/svg">
  <defs
     id="defs6" />
  <sodipodi:namedview
     id="namedview4"
     pagecolor="#ffffff"
     bordercolor="#000000"
     borderopacity="0.25"
     inkscape:showpageshadow="2"
     inkscape:pageopacity="0.0"
     inkscape:pagecheckerboard="0"
     inkscape:deskcolor="#d1d1d1"
     inkscape:zoom="1.6859713"
     inkscape:cx="340.16"
     inkscape:cy="340.16"
     inkscape:window-width="2560"
     inkscape:window-height="1361"
     inkscape:window-x="2551"
     inkscape:window-y="-9"
     inkscape:window-maximized="1"
     inkscape:current-layer="g8" />
  <g
     id="g8"
     inkscape:groupmode="layer"
     inkscape:label="ink_ext_XXXXXX"
     transform="matrix(1.3333333,0,0,-1.3333333,0,680.32)">
    <g
       id="g10"
       transform="scale(0.1)">
      <path
         d="M 0,5102.36 H 5102.36 V 0 H 0 v 5102.36"
         style="fill:#f7e219;fill-opacity:1;fill-rule:nonzero;stroke:none"
         id="path12" />
      <path
         d="m 1519.12,3257.9 c 270.01,155.89 611.66,75.24 785.04,-177.65 l 93.68,54.09 c -6.66,17.83 -10.31,37.12 -10.31,57.28 0,81.7 59.87,149.42 138.14,161.67 v 106.66 c -315.58,13.36 -567.34,273.4 -567.34,592.27 0,247.04 151.12,458.76 365.94,547.83 -343.27,-98.46 -594.46,-414.7 -594.46,-789.62 0,-58.89 6.21,-116.33 17.99,-171.71 -45.51,-16.36 -90.2,-36.99 -133.55,-62.02 -324.69,-187.46 -472.96,-563.12 -386.6,-909.63 -30.27,230.58 77.53,467.31 291.47,590.83"
         style="fill:#111111;fill-opacity:1;fill-rule:nonzero;stroke:none"
         id="path52" />
      <path
         d="m 3488.12,3576.7 c -43.36,25.03 -88.05,45.66 -133.55,62.02 11.78,55.38 17.99,112.82 17.99,171.71 0,374.92 -251.2,691.16 -594.47,789.62 214.82,-89.07 365.94,-300.79 365.94,-547.83 0,-318.87 -251.76,-578.91 -567.34,-592.27 v -106.66 c 78.27,-12.25 138.15,-79.97 138.15,-161.67 0,-20.14 -3.65,-39.43 -10.31,-57.25 l 93.69,-54.09 c 173.39,252.86 515.03,333.5 785.03,177.62 213.94,-123.52 321.73,-360.25 291.46,-590.83 86.37,346.51 -61.91,722.17 -386.59,909.63"
         style="fill:#111111;fill-opacity:1;fill-rule:nonzero;stroke:none"
         id="path54" />
      <path
         d="m 2990.39,2231.05 c -282.25,162.96 -379.77,522.95 -219.2,805.92 l -91.76,52.98 c -29.98,-37.76 -76.29,-61.99 -128.25,-61.99 -51.95,0 -98.24,24.21 -128.22,61.96 l -91.77,-52.98 c 160.54,-282.96 63.02,-642.93 -219.22,-805.89 -213.95,-123.52 -472.85,-98.5 -657.41,43 256.9,-248.05 656.37,-307.47 981.06,-120.01 41.44,23.92 79.99,50.92 115.56,80.52 35.57,-29.6 74.12,-56.6 115.56,-80.52 324.69,-187.46 724.16,-128.04 981.07,120.01 -184.56,-141.5 -443.47,-166.52 -657.42,-43"
         style="fill:#111111;fill-opacity:1;fill-rule:nonzero;stroke:none"
         id="path56" />
      <path
         d="m 1955.83,3268.48 c -46.81,12.54 -94.44,18.75 -142.26,18.59 -4.01,-31.43 -6.04,-63.24 -6.04,-95.35 0,-100.46 19.73,-198.02 58.62,-289.98 37.52,-88.72 91.2,-168.35 159.54,-236.69 68.33,-68.33 147.97,-122.01 236.68,-159.54 10.83,-4.57 21.74,-8.88 32.72,-12.93 18.65,35.49 33.35,73.02 43.87,112.3 7.39,27.58 12.55,55.45 15.53,83.47 -200.76,78.97 -342.86,274.57 -342.86,503.37 0,19.38 1.04,38.51 3.03,57.36 -19.14,7.52 -38.75,14.02 -58.83,19.4"
         style="fill:#111111;fill-opacity:1;fill-rule:nonzero;stroke:none"
         id="path58" />
      <path
         d="m 2087.05,3773.33 c 22.69,-37.77 49.96,-72.66 81.55,-104.25 17.35,-17.35 35.72,-33.37 54.99,-48.08 91.1,69.88 205.07,111.44 328.77,111.44 123.4,0 237.13,-41.37 328.13,-110.96 19.05,14.58 37.2,30.44 54.37,47.6 31.78,31.78 59.17,66.91 81.95,104.93 -53.06,42.42 -111.46,77.26 -174.47,103.91 -91.96,38.9 -189.53,58.62 -289.98,58.62 -100.47,0 -198.03,-19.72 -289.99,-58.62 -63.35,-26.79 -122.04,-61.87 -175.32,-104.59"
         style="fill:#111111;fill-opacity:1;fill-rule:nonzero;stroke:none"
         id="path60" />
      <path
         d="m 2749.01,2687.89 c 3,-27.87 8.13,-55.58 15.49,-83.01 10.56,-39.42 25.32,-77.09 44.08,-112.68 11.33,4.15 22.58,8.59 33.76,13.31 88.71,37.53 168.34,91.21 236.68,159.54 68.34,68.34 122.02,147.97 159.54,236.69 38.89,91.96 58.62,189.52 58.62,289.98 0,32.1 -2.03,63.91 -6.04,95.33 -48.24,0.28 -96.29,-5.92 -143.52,-18.57 -19.66,-5.27 -38.87,-11.61 -57.62,-18.94 2.02,-19 3.08,-38.29 3.08,-57.82 0,-229.25 -142.68,-425.17 -344.07,-503.83"
         style="fill:#111111;fill-opacity:1;fill-rule:nonzero;stroke:none"
         id="path62" />
    </g>
  </g>
</svg>
