<?xml version="1.0" encoding="UTF-8" standalone="no"?>
<!-- Created with Inkscape (http://www.inkscape.org/) -->

<svg
   version="1.1"
   id="svg2"
   width="680.32001"
   height="680.32001"
   viewBox="0 0 680.32001 680.32001"
   sodipodi:docname="KOELEUDSTYR_rgb.eps"
   xmlns:inkscape="http://www.inkscape.org/namespaces/inkscape"
   xmlns:sodipodi="http://sodipodi.sourceforge.net/DTD/sodipodi-0.dtd"
   xmlns="http://www.w3.org/2000/svg"
   xmlns:svg="http://www.w3.org/2000/svg">
  <defs
     id="defs6" />
  <sodipodi:namedview
     id="namedview4"
     pagecolor="#ffffff"
     bordercolor="#000000"
     borderopacity="0.25"
     inkscape:showpageshadow="2"
     inkscape:pageopacity="0.0"
     inkscape:pagecheckerboard="0"
     inkscape:deskcolor="#d1d1d1" />
  <g
     id="g8"
     inkscape:groupmode="layer"
     inkscape:label="ink_ext_XXXXXX"
     transform="matrix(1.3333333,0,0,-1.3333333,0,680.32)">
    <g
       id="g10"
       transform="scale(0.1)">
      <path
         d="M 5102.36,0 0.00390625,0.0117188 V 5102.36 L 5102.36,5102.35 V 0"
         style="fill:#ef8514;fill-opacity:1;fill-rule:nonzero;stroke:none"
         id="path12" />
      <path
         d="M 832.926,787.488 1000.2,958.941 h 86.55 L 892.488,764.379 1087.87,529.211 h -86.84 L 846.285,720.422 832.926,707.059 V 529.211 h -64.848 v 429.73 h 64.848 V 787.488"
         style="fill:#ffffff;fill-opacity:1;fill-rule:nonzero;stroke:none"
         id="path14" />
      <path
         d="M 1476.13,842.871 1252.63,614.93 c 31.36,-21.711 63.65,-32.571 96.86,-32.571 43.79,0 81.08,15.692 111.88,47.039 30.8,31.364 46.21,69.582 46.21,114.672 0,35.442 -10.49,68.371 -31.45,98.801 z m -37.3,36.188 c -26.9,17.992 -56.5,26.992 -88.78,26.992 -45.83,0 -84.06,-15.68 -114.67,-47.031 -30.43,-31.551 -45.65,-70.692 -45.65,-117.45 0,-30.621 9,-60.5 27,-89.621 z m 45.37,42.863 46.48,47.316 37.29,-37.019 -45.92,-47.028 c 33.95,-42.32 50.93,-89.722 50.93,-142.23 0,-60.859 -21.99,-113 -65.96,-156.422 -43.98,-43.418 -96.76,-65.117 -158.37,-65.117 -51.39,0 -98.8,16.418 -142.22,49.25 l -46.2,-45.91 -35.62,36.457 44.81,46.191 c -30.06,40.078 -45.09,85.078 -45.09,134.988 0,64.204 22.73,117.911 68.19,161.153 44.53,42.308 97.13,63.461 157.8,63.461 48.25,0 92.87,-15.032 133.88,-45.09"
         style="fill:#ffffff;fill-opacity:1;fill-rule:nonzero;stroke:none"
         id="path16" />
      <path
         d="M 1719.38,958.941 V 590.172 h 126.35 v -60.961 h -191.2 v 429.73 h 64.85"
         style="fill:#ffffff;fill-opacity:1;fill-rule:nonzero;stroke:none"
         id="path18" />
      <path
         d="M 2167.78,897.98 H 1995.5 V 794.73 h 167.27 V 733.781 H 1995.5 V 590.172 h 172.28 v -60.961 h -237.13 v 429.73 h 237.13 V 897.98"
         style="fill:#ffffff;fill-opacity:1;fill-rule:nonzero;stroke:none"
         id="path20" />
      <path
         d="M 2319.59,958.941 V 700.289 c 0,-36.898 6.03,-63.867 18.09,-80.937 18,-24.653 43.32,-36.993 75.98,-36.993 32.85,0 58.27,12.34 76.26,36.993 12.06,16.507 18.09,43.488 18.09,80.937 v 258.652 h 64.85 v -276.66 c 0,-45.269 -14.1,-82.562 -42.3,-111.883 -31.73,-32.66 -70.69,-48.976 -116.9,-48.976 -46.2,0 -85.07,16.316 -116.61,48.976 -28.21,29.321 -42.31,66.614 -42.31,111.883 v 276.66 h 64.85"
         style="fill:#ffffff;fill-opacity:1;fill-rule:nonzero;stroke:none"
         id="path22" />
      <path
         d="m 2728.08,590.172 h 29.23 c 29.13,0 53.34,3.047 72.64,9.18 19.29,6.488 36.74,16.777 52.32,30.886 31.92,29.121 47.87,67.071 47.87,113.832 0,47.129 -15.77,85.352 -47.31,114.668 -28.39,26.16 -70.23,39.242 -125.52,39.242 h -29.23 z m -64.84,-60.961 v 429.73 h 90.17 c 43.24,0 77.38,-4.269 102.43,-12.812 26.9,-8.348 51.3,-22.539 73.19,-42.578 44.35,-40.449 66.52,-93.61 66.52,-159.481 0,-66.05 -23.1,-119.492 -69.3,-160.308 -23.2,-20.41 -47.5,-34.614 -72.92,-42.582 -23.75,-7.989 -57.42,-11.969 -101.03,-11.969 h -89.06"
         style="fill:#ffffff;fill-opacity:1;fill-rule:nonzero;stroke:none"
         id="path24" />
      <path
         d="m 3320.08,895.199 -52.6,-31.168 c -9.85,17.059 -19.21,28.199 -28.12,33.399 -9.28,5.929 -21.25,8.91 -35.91,8.91 -17.99,0 -32.93,-5.121 -44.8,-15.32 -11.88,-10.032 -17.81,-22.661 -17.81,-37.891 0,-20.981 15.58,-37.879 46.75,-50.688 l 42.87,-17.543 c 34.88,-14.117 60.4,-31.339 76.53,-51.668 16.14,-20.332 24.22,-45.261 24.22,-74.781 0,-39.551 -13.18,-72.23 -39.52,-98.039 -26.54,-26 -59.48,-38.988 -98.81,-38.988 -37.29,0 -68.1,11.09 -92.39,33.269 -23.95,22.161 -38.88,53.289 -44.82,93.368 l 65.68,14.461 c 2.97,-25.239 8.17,-42.68 15.59,-52.321 13.36,-18.558 32.84,-27.84 58.45,-27.84 20.22,0 37.02,6.77 50.38,20.313 13.36,13.527 20.04,30.68 20.04,51.449 0,8.34 -1.16,16 -3.49,22.949 -2.32,6.95 -5.94,13.352 -10.85,19.192 -4.92,5.84 -11.28,11.308 -19.06,16.41 -7.8,5.09 -17.08,9.969 -27.84,14.598 l -41.47,17.242 c -58.82,24.84 -88.23,61.187 -88.23,109.019 0,32.258 12.34,59.239 37.02,80.93 24.68,21.891 55.39,32.82 92.13,32.82 49.53,0 88.22,-24.031 116.06,-72.082"
         style="fill:#ffffff;fill-opacity:1;fill-rule:nonzero;stroke:none"
         id="path26" />
      <path
         d="M 3545.06,897.98 V 529.211 H 3480.2 V 897.98 h -98.8 v 60.961 h 262.18 V 897.98 h -98.52"
         style="fill:#ffffff;fill-opacity:1;fill-rule:nonzero;stroke:none"
         id="path28" />
      <path
         d="m 3839.54,714.852 -140.28,244.089 h 74.59 l 98.26,-171.722 98.52,171.722 h 74.59 L 3904.38,714.852 V 529.211 h -64.84 v 185.641"
         style="fill:#ffffff;fill-opacity:1;fill-rule:nonzero;stroke:none"
         id="path30" />
      <path
         d="m 4179.41,761.609 h 20.6 c 61.4,0 92.12,23.473 92.12,70.411 0,43.98 -29.88,65.96 -89.62,65.96 h -23.1 z m 80.71,-49.269 133.04,-183.129 h -79.32 L 4191.1,705.109 h -11.69 V 529.211 h -64.85 v 429.73 h 75.98 c 56.78,0 97.79,-10.679 123.02,-32.011 27.83,-23.758 41.75,-55.102 41.75,-94.078 0,-30.43 -8.73,-56.59 -26.16,-78.493 -17.44,-21.89 -40.45,-35.89 -69.03,-42.019"
         style="fill:#ffffff;fill-opacity:1;fill-rule:nonzero;stroke:none"
         id="path32" />
      <path
         d="m 1981.83,3726.15 h 382.68 V 3624.1 h -382.68 z m 1264.05,-232.87 v 842.23 H 1868.24 v -842.23 h 1377.64"
         style="fill:#ffffff;fill-opacity:1;fill-rule:nonzero;stroke:none"
         id="path34" />
      <path
         d="m 2364.51,3214.17 h -382.68 v 102.05 h 382.68 z m -496.27,228.08 V 1529.21 H 3245.88 V 3442.25 H 1868.24"
         style="fill:#ffffff;fill-opacity:1;fill-rule:nonzero;stroke:none"
         id="path36" />
    </g>
  </g>
</svg>
