<?xml version="1.0" encoding="UTF-8" standalone="no"?>
<!-- Created with Inkscape (http://www.inkscape.org/) -->

<svg
   version="1.1"
   id="svg2"
   width="680.32001"
   height="680.32001"
   viewBox="0 0 680.32001 680.32001"
   sodipodi:docname="KOMPOST_rgb.eps"
   xmlns:inkscape="http://www.inkscape.org/namespaces/inkscape"
   xmlns:sodipodi="http://sodipodi.sourceforge.net/DTD/sodipodi-0.dtd"
   xmlns="http://www.w3.org/2000/svg"
   xmlns:svg="http://www.w3.org/2000/svg">
  <defs
     id="defs6" />
  <sodipodi:namedview
     id="namedview4"
     pagecolor="#ffffff"
     bordercolor="#000000"
     borderopacity="0.25"
     inkscape:showpageshadow="2"
     inkscape:pageopacity="0.0"
     inkscape:pagecheckerboard="0"
     inkscape:deskcolor="#d1d1d1" />
  <g
     id="g8"
     inkscape:groupmode="layer"
     inkscape:label="ink_ext_XXXXXX"
     transform="matrix(1.3333333,0,0,-1.3333333,0,680.32)">
    <g
       id="g10"
       transform="scale(0.1)">
      <path
         d="M 5102.36,0 H 0 V 5102.36 H 5102.36 V 0"
         style="fill:#1e612f;fill-opacity:1;fill-rule:nonzero;stroke:none"
         id="path12" />
      <path
         d="m 1276.24,791.711 166.39,170.527 h 86.1 L 1335.48,768.73 1529.83,534.781 h -86.37 L 1289.53,724.98 1276.24,711.699 V 534.781 h -64.51 v 427.457 h 64.51 V 791.711"
         style="fill:#ffffff;fill-opacity:1;fill-rule:nonzero;stroke:none"
         id="path14" />
      <path
         d="m 1606.8,749.762 c 0,-47.211 15.87,-86.024 47.62,-116.453 31.56,-30.43 68.01,-45.649 109.36,-45.649 44.85,0 82.69,15.488 113.51,46.481 30.82,31.339 46.24,69.519 46.24,114.507 0,45.551 -15.23,83.723 -45.69,114.524 -30.27,30.988 -67.74,46.476 -112.4,46.476 -44.48,0 -82.05,-15.488 -112.68,-46.476 -30.64,-30.613 -45.96,-68.422 -45.96,-113.41 z m -65.06,0.699 c 0,60.16 22.05,111.84 66.17,155.039 43.93,43.18 96.71,64.781 158.36,64.781 60.91,0 113.14,-21.793 156.7,-65.34 43.74,-43.562 65.61,-95.89 65.61,-156.972 0,-61.469 -21.96,-113.617 -65.88,-156.43 -44.12,-43.008 -97.37,-64.508 -159.75,-64.508 -55.19,0 -104.75,19.11 -148.67,57.309 -48.36,42.269 -72.54,97.64 -72.54,166.121"
         style="fill:#ffffff;fill-opacity:1;fill-rule:nonzero;stroke:none"
         id="path16" />
      <path
         d="m 2040.35,534.781 89.98,459.578 146.73,-332.218 152,332.218 80.84,-459.578 h -66.17 l -41.25,258.028 -126.52,-277.68 -122.93,277.961 -45.95,-258.309 h -66.73"
         style="fill:#ffffff;fill-opacity:1;fill-rule:nonzero;stroke:none"
         id="path18" />
      <path
         d="m 2663.14,768.172 h 24.09 c 59.25,0 88.86,22.797 88.86,68.387 0,44.101 -30.54,66.16 -91.64,66.16 h -21.31 z m 0,-59.801 v -173.59 h -64.51 v 427.457 h 73.09 c 35.81,0 62.85,-2.488 81.12,-7.468 18.45,-4.981 34.7,-14.391 48.72,-28.239 24.55,-23.992 36.83,-54.261 36.83,-90.812 0,-39.129 -13.11,-70.141 -39.32,-93.02 -26.21,-22.89 -61.55,-34.328 -106.03,-34.328 h -29.9"
         style="fill:#ffffff;fill-opacity:1;fill-rule:nonzero;stroke:none"
         id="path20" />
      <path
         d="m 2966.57,747.969 c 0,-47.219 15.88,-86.039 47.63,-116.469 31.56,-30.418 68.01,-45.641 109.36,-45.641 44.85,0 82.68,15.5 113.5,46.473 30.83,31.348 46.24,69.52 46.24,114.52 0,45.546 -15.22,83.718 -45.68,114.527 -30.28,30.973 -67.74,46.473 -112.4,46.473 -44.49,0 -82.05,-15.5 -112.68,-46.473 -30.64,-30.617 -45.97,-68.418 -45.97,-113.41 z m -65.06,0.679 c 0,60.184 22.06,111.864 66.18,155.043 43.92,43.188 96.71,64.778 158.36,64.778 60.9,0 113.14,-21.77 156.69,-65.328 43.74,-43.563 65.62,-95.891 65.62,-156.981 0,-61.449 -21.96,-113.601 -65.89,-156.422 -44.12,-43 -97.36,-64.508 -159.74,-64.508 -55.19,0 -104.75,19.098 -148.68,57.309 -48.36,42.262 -72.54,97.633 -72.54,166.109"
         style="fill:#ffffff;fill-opacity:1;fill-rule:nonzero;stroke:none"
         id="path22" />
      <path
         d="m 3669.38,897.051 -52.33,-31.012 c -9.78,16.981 -19.1,28.051 -27.97,33.231 -9.23,5.89 -21.13,8.851 -35.71,8.851 -17.9,0 -32.76,-5.07 -44.57,-15.242 -11.82,-9.969 -17.72,-22.527 -17.72,-37.68 0,-20.871 15.5,-37.668 46.51,-50.418 l 42.64,-17.461 c 34.69,-14.031 60.07,-31.16 76.13,-51.379 16.06,-20.242 24.09,-45.031 24.09,-74.402 0,-39.34 -13.11,-71.84 -39.32,-97.519 -26.39,-25.872 -59.15,-38.79 -98.28,-38.79 -37.1,0 -67.73,11.032 -91.91,33.098 -23.81,22.051 -38.67,53.012 -44.58,92.871 l 65.34,14.391 c 2.95,-25.09 8.12,-42.449 15.51,-52.051 13.28,-18.449 32.66,-27.68 58.13,-27.68 20.12,0 36.83,6.743 50.11,20.192 13.29,13.469 19.94,30.527 19.94,51.187 0,8.301 -1.16,15.903 -3.47,22.832 -2.3,6.91 -5.9,13.282 -10.79,19.078 -4.89,5.813 -11.22,11.262 -18.96,16.332 -7.76,5.071 -16.98,9.911 -27.69,14.52 l -41.25,17.16 c -58.51,24.699 -87.76,60.86 -87.76,108.442 0,32.089 12.26,58.929 36.82,80.5 24.54,21.769 55.09,32.66 91.64,32.66 49.27,0 87.76,-23.91 115.45,-71.711"
         style="fill:#ffffff;fill-opacity:1;fill-rule:nonzero;stroke:none"
         id="path24" />
      <path
         d="M 3898.61,899.82 V 532.988 h -64.5 V 899.82 h -98.29 v 60.629 h 260.8 V 899.82 h -98.01"
         style="fill:#ffffff;fill-opacity:1;fill-rule:nonzero;stroke:none"
         id="path26" />
      <path
         d="m 2171.87,2627.38 c -10.29,43.13 -16.11,83.7 -18.45,128.21 l 376.36,-281.81 v -317.5 c -33.09,18.76 -129.03,76.84 -201.68,157.79 -95.19,106.07 -136.98,226.63 -156.23,313.31 z m 34.9,472.4 323.01,-241.86 v -320.4 l -377.42,282.61 c 1.89,100.27 21.58,196.2 54.41,279.65 z m 72.35,135.11 c 38.24,53.36 87.79,105.95 125.23,152.31 36.04,44.61 84.2,89.98 109.14,152.16 l 16.29,44.42 v -662.12 l -302.02,226.15 c 15.24,31.48 32.45,60.7 51.36,87.08 z m 301.68,-761.11 376.36,281.8 c -2.35,-44.81 -8.25,-85.64 -18.64,-129.01 -19.35,-86.61 -61.18,-206.71 -156.04,-312.4 -72.65,-80.96 -168.58,-139.03 -201.68,-157.8 z m 0,384.14 322.76,241.67 c 32.98,-83.57 52.77,-178.99 54.66,-279.46 L 2580.8,2537.52 Z m 0,725.96 16.3,-44.42 c 24.93,-62.19 73.1,-107.56 109.14,-152.17 37.76,-46.75 88.33,-99.5 126.2,-153.7 18.41,-26.35 35.19,-55.16 50.1,-85.99 L 2580.8,2921.66 Z m -51.02,-1427.81 h 51.02 v -375.69 h 1804.56 c -72.27,162.34 -276.36,606.9 -394.67,723.96 -75.86,75.05 -238.22,169.35 -281.29,251.47 -43.08,82.12 -25.34,48.23 -125.42,322.64 -100.09,274.35 -294.04,460.24 -473.3,654.2 -89.26,96.59 -217.81,234.21 -372.11,300.67 -152.11,65.51 -353.73,82.73 -584.2,-142.27 -58.28,-62.47 -131.43,-142.39 -205.09,-257.75 -107.78,-168.8 -111.1,-198.35 -227.42,-357.9 -148.96,-204.33 -169.95,-232.14 -226.09,-283.99 -123.69,-114.36 -273.9,-109.56 -373.68,-291.76 -51.88,-94.74 -394.52,-913.48 -396.871,-919.27 H 2529.78 v 375.69"
         style="fill:#ffffff;fill-opacity:1;fill-rule:nonzero;stroke:none"
         id="path28" />
    </g>
  </g>
</svg>
