<?xml version="1.0" encoding="UTF-8" standalone="no"?>
<!-- Created with Inkscape (http://www.inkscape.org/) -->

<svg
   version="1.1"
   id="svg2"
   width="680.32001"
   height="680.32001"
   viewBox="0 0 680.32001 680.32001"
   sodipodi:docname="LEDNINGER_&amp;_KABLER_rgb.icon.svg"
   inkscape:version="1.3.2 (091e20e, 2023-11-25, custom)"
   xmlns:inkscape="http://www.inkscape.org/namespaces/inkscape"
   xmlns:sodipodi="http://sodipodi.sourceforge.net/DTD/sodipodi-0.dtd"
   xmlns="http://www.w3.org/2000/svg"
   xmlns:svg="http://www.w3.org/2000/svg">
  <defs
     id="defs6" />
  <sodipodi:namedview
     id="namedview4"
     pagecolor="#ffffff"
     bordercolor="#000000"
     borderopacity="0.25"
     inkscape:showpageshadow="2"
     inkscape:pageopacity="0.0"
     inkscape:pagecheckerboard="0"
     inkscape:deskcolor="#d1d1d1"
     inkscape:zoom="1.6859713"
     inkscape:cx="340.16"
     inkscape:cy="340.16"
     inkscape:window-width="2560"
     inkscape:window-height="1361"
     inkscape:window-x="2551"
     inkscape:window-y="-9"
     inkscape:window-maximized="1"
     inkscape:current-layer="g8" />
  <g
     id="g8"
     inkscape:groupmode="layer"
     inkscape:label="ink_ext_XXXXXX"
     transform="matrix(1.3333333,0,0,-1.3333333,0,680.32)">
    <g
       id="g10"
       transform="scale(0.1)">
      <path
         d="M 5102.36,0 0.00390625,0.0117188 V 5102.36 L 5102.36,5102.35 V 0"
         style="fill:#ef8514;fill-opacity:1;fill-rule:nonzero;stroke:none"
         id="path12" />
      <path
         d="m 4350.76,2881.67 h -203.43 v -51.02 h 203.43 v 51.02"
         style="fill:#ffffff;fill-opacity:1;fill-rule:nonzero;stroke:none"
         id="path46" />
      <path
         d="m 4268.01,3230.19 -23.29,45.4 -180.95,-92.87 23.3,-45.39 180.94,92.86"
         style="fill:#ffffff;fill-opacity:1;fill-rule:nonzero;stroke:none"
         id="path48" />
      <path
         d="m 3980.84,3540.73 -42.77,27.82 -111.18,-170.9 42.77,-27.83 111.18,170.91"
         style="fill:#ffffff;fill-opacity:1;fill-rule:nonzero;stroke:none"
         id="path50" />
      <path
         d="m 3498.87,2787.73 c -33.61,38.93 -58.05,83.6 -72.48,131.41 l -703.78,-529.19 c -95.99,-65.95 -201.08,-100.79 -304.05,-100.79 -0.02,0 -0.05,0 -0.08,0 -94.01,0.01 -182.74,28.31 -256.59,81.83 -70.44,51.04 -122.17,121.65 -149.59,204.19 -30.18,90.86 -29.63,194.76 1.6,300.55 2.92,9.04 32.37,98.64 79.66,183.77 46.71,84.07 100.13,218.49 102.38,224.18 l 1.95,4.91 1.53,5.06 c 88.02,290.35 56.08,558.68 -89.96,755.55 -67.34,90.79 -155.08,161.6 -260.77,210.47 -103.76,47.98 -219.76,72.31 -344.61,72.31 l -980.584,1.09 -0.301,-255.11 980.735,-1.1 c 172.41,0 314.7,-63.8 400.63,-179.65 45.38,-61.18 73.67,-134.82 84.09,-218.88 11.53,-93.02 0.82,-195.79 -31.83,-305.51 -9.51,-23.62 -52.02,-127.77 -86.27,-189.43 -62.7,-112.85 -98.81,-227.26 -100.32,-232.08 l -0.54,-1.75 c -46.52,-156.52 -46.34,-313.79 0.51,-454.81 44.36,-133.54 128.04,-247.77 241.98,-330.35 117.67,-85.26 258.14,-130.34 406.26,-130.36 0.05,0 0.07,0 0.12,0 155.8,0 311.85,51.01 451.23,147.51 l 2.06,1.42 709.88,533.78 c -30.66,19.07 -58.59,42.87 -82.86,70.98"
         style="fill:#ffffff;fill-opacity:1;fill-rule:nonzero;stroke:none"
         id="path52" />
      <path
         d="m 3611.3,2758.48 c -27.38,16.64 -52.27,37.64 -73.8,62.59 -30.5,35.33 -52.2,76.18 -64.25,119.87 l 1.13,1.17 c 81.64,81.34 166.57,213.82 226.02,306.55 31.49,49.14 60.1,93.56 77.24,120.15 l 85.55,-55.65 c -17.13,-26.56 -45.57,-70.72 -76.88,-119.57 -43.13,-67.29 -94.93,-148.07 -150.83,-220.78 146.25,92.53 323.99,183.68 371.96,207.92 l 46.6,-90.81 c -43.96,-22.26 -212.16,-108.59 -351.73,-195.67 45.37,8.26 98.88,13.05 163.4,13.05 122.46,0 198.12,-0.08 230.6,-0.12 v -102.05 c -32.37,0.05 -108,0.12 -230.6,0.12 -124.38,0 -198.09,-18.57 -253.55,-46.37 l -0.86,-0.4"
         style="fill:#ffffff;fill-opacity:1;fill-rule:nonzero;stroke:none"
         id="path54" />
    </g>
  </g>
</svg>
