<?xml version="1.0" encoding="UTF-8" standalone="no"?>
<!-- Created with Inkscape (http://www.inkscape.org/) -->

<svg
   version="1.1"
   id="svg2"
   width="680.32001"
   height="680.32001"
   viewBox="0 0 680.32001 680.32001"
   sodipodi:docname="LEDNINGER_&amp;_KABLER_rgb.eps"
   xmlns:inkscape="http://www.inkscape.org/namespaces/inkscape"
   xmlns:sodipodi="http://sodipodi.sourceforge.net/DTD/sodipodi-0.dtd"
   xmlns="http://www.w3.org/2000/svg"
   xmlns:svg="http://www.w3.org/2000/svg">
  <defs
     id="defs6" />
  <sodipodi:namedview
     id="namedview4"
     pagecolor="#ffffff"
     bordercolor="#000000"
     borderopacity="0.25"
     inkscape:showpageshadow="2"
     inkscape:pageopacity="0.0"
     inkscape:pagecheckerboard="0"
     inkscape:deskcolor="#d1d1d1" />
  <g
     id="g8"
     inkscape:groupmode="layer"
     inkscape:label="ink_ext_XXXXXX"
     transform="matrix(1.3333333,0,0,-1.3333333,0,680.32)">
    <g
       id="g10"
       transform="scale(0.1)">
      <path
         d="M 5102.36,0 0.00390625,0.0117188 V 5102.36 L 5102.36,5102.35 V 0"
         style="fill:#ef8514;fill-opacity:1;fill-rule:nonzero;stroke:none"
         id="path12" />
      <path
         d="M 1050.24,1499.52 V 1132.7 h 125.69 v -60.64 h -190.2 v 427.46 h 64.51"
         style="fill:#ffffff;fill-opacity:1;fill-rule:nonzero;stroke:none"
         id="path14" />
      <path
         d="m 1487.39,1438.9 h -171.37 v -102.72 h 166.39 v -60.63 H 1316.02 V 1132.7 h 171.37 v -60.64 h -235.87 v 427.46 h 235.87 v -60.62"
         style="fill:#ffffff;fill-opacity:1;fill-rule:nonzero;stroke:none"
         id="path16" />
      <path
         d="m 1631.22,1132.7 h 29.07 c 28.97,0 53.06,3.03 72.26,9.13 19.19,6.45 36.54,16.7 52.05,30.73 31.74,28.97 47.62,66.72 47.62,113.23 0,46.89 -15.69,84.9 -47.07,114.06 -28.24,26.03 -69.86,39.05 -124.86,39.05 h -29.07 z m -64.5,-60.64 v 427.46 h 89.69 c 43.01,0 76.97,-4.25 101.89,-12.73 26.76,-8.3 51.03,-22.42 72.81,-42.36 44.11,-40.24 66.17,-93.12 66.17,-158.64 0,-65.7 -22.98,-118.87 -68.94,-159.46 -23.07,-20.31 -47.25,-34.44 -72.53,-42.37 -23.64,-7.93 -57.13,-11.9 -100.5,-11.9 h -88.59"
         style="fill:#ffffff;fill-opacity:1;fill-rule:nonzero;stroke:none"
         id="path18" />
      <path
         d="m 1978.4,1072.06 v 456.53 l 311.73,-326.13 v 297.06 h 64.51 v -453.49 l -311.74,325.31 v -299.28 h -64.5"
         style="fill:#ffffff;fill-opacity:1;fill-rule:nonzero;stroke:none"
         id="path20" />
      <path
         d="m 2503.72,1499.52 v -427.46 h -64.5 v 427.46 h 64.5"
         style="fill:#ffffff;fill-opacity:1;fill-rule:nonzero;stroke:none"
         id="path22" />
      <path
         d="m 2586.5,1072.06 v 456.53 l 311.74,-326.13 v 297.06 h 64.5 V 1046.03 L 2651,1371.34 v -299.28 h -64.5"
         style="fill:#ffffff;fill-opacity:1;fill-rule:nonzero;stroke:none"
         id="path24" />
      <path
         d="m 3287.63,1294.65 h 176.63 v -14.11 c 0,-32.12 -3.77,-60.55 -11.34,-85.28 -7.39,-22.89 -19.85,-44.29 -37.38,-64.23 -39.68,-44.67 -90.16,-67 -151.44,-67 -59.8,0 -111.02,21.59 -153.65,64.79 -42.64,43.37 -63.96,95.42 -63.96,156.14 0,62.02 21.69,114.62 65.06,157.81 43.38,43.37 96.16,65.06 158.37,65.06 33.4,0 64.6,-6.8 93.57,-20.39 27.69,-13.6 54.92,-35.69 81.67,-66.27 l -45.95,-44.01 c -35.07,46.69 -77.8,70.04 -128.19,70.04 -45.22,0 -83.15,-15.6 -113.79,-46.79 -30.63,-30.64 -45.95,-69.03 -45.95,-115.18 0,-47.61 17.07,-86.83 51.22,-117.65 31.92,-28.62 66.53,-42.92 103.82,-42.92 31.74,0 60.26,10.68 85.54,32.04 25.29,21.53 39.41,47.3 42.37,77.32 h -106.6 v 60.63"
         style="fill:#ffffff;fill-opacity:1;fill-rule:nonzero;stroke:none"
         id="path26" />
      <path
         d="m 3779.47,1438.9 h -171.38 v -102.72 h 166.39 v -60.63 H 3608.09 V 1132.7 h 171.38 v -60.64 h -235.88 v 427.46 h 235.88 v -60.62"
         style="fill:#ffffff;fill-opacity:1;fill-rule:nonzero;stroke:none"
         id="path28" />
      <path
         d="m 3917.89,1303.23 h 20.49 c 61.09,0 91.64,23.35 91.64,70.05 0,43.74 -29.72,65.62 -89.14,65.62 h -22.99 z m 80.29,-49 132.33,-182.17 h -78.89 l -122.1,174.97 h -11.63 v -174.97 h -64.5 v 427.46 h 75.57 c 56.49,0 97.28,-10.61 122.37,-31.83 27.69,-23.63 41.54,-54.82 41.54,-93.58 0,-30.27 -8.68,-56.3 -26.03,-78.08 -17.35,-21.77 -40.24,-35.71 -68.66,-41.8"
         style="fill:#ffffff;fill-opacity:1;fill-rule:nonzero;stroke:none"
         id="path30" />
      <path
         d="m 1390.99,816.809 5.26,3.871 c 9.04,6.832 16.52,12.781 22.42,17.851 5.91,5.078 10.15,9.367 12.74,12.879 5.54,6.828 8.3,15.231 8.3,25.192 0,11.257 -3.78,20.398 -11.34,27.41 -7.58,7.019 -17.72,10.519 -30.46,10.519 -11.63,0 -21.41,-3.59 -29.35,-10.793 -7.93,-6.84 -11.9,-15.609 -11.9,-26.308 0,-12.551 4.98,-24.91 14.95,-37.102 l 16.06,-19.367 c 0.55,-0.93 1.66,-2.32 3.32,-4.152 z m -13.84,-81.68 -3.6,-2.488 c -26.4,-18.27 -44.4,-32.942 -53.99,-44.02 -9.41,-11.07 -14.12,-22.801 -14.12,-35.16 0,-17.723 7.1,-33.973 21.32,-48.723 14.76,-14.218 31.01,-21.316 48.73,-21.316 24.91,0 53.61,16.328 86.1,49 z m 51.22,36.269 76.96,-93.019 2.49,2.762 c 8.3,9.05 16.15,17.898 23.53,26.578 7.38,8.679 14.49,17.453 21.32,26.301 l 42.08,-43.192 c -5.17,-7.379 -11.95,-15.969 -20.34,-25.738 -8.41,-9.789 -18.42,-21.051 -30.04,-33.781 l 79.18,-97.727 h -80.29 l -42.64,52.328 c -39.13,-40.422 -79.83,-60.64 -122.09,-60.64 -37.84,0 -69.95,12.089 -96.35,36.269 -25.84,24.371 -38.76,54.449 -38.76,90.262 0,42.629 20.49,78.07 61.46,106.32 l 27.97,19.098 c 0.36,0.172 1.01,0.64 1.94,1.371 0.92,0.75 2.21,1.762 3.87,3.051 -28.24,30.089 -42.35,59.711 -42.35,88.879 0,28.789 9.4,52.218 28.23,70.32 19.2,18.09 43.93,27.129 74.2,27.129 29.35,0 53.62,-8.77 72.81,-26.297 19.2,-17.543 28.8,-39.692 28.8,-66.453 0,-18.457 -5.27,-35.16 -15.78,-50.11 -10.34,-14.949 -29.08,-32.847 -56.2,-53.711"
         style="fill:#ffffff;fill-opacity:1;fill-rule:nonzero;stroke:none"
         id="path32" />
      <path
         d="m 1921.45,790.5 166.38,170.539 h 86.11 L 1980.7,767.52 2175.05,533.582 h -86.38 l -153.94,190.199 -13.28,-13.293 V 533.582 h -64.51 v 427.457 h 64.51 V 790.5"
         style="fill:#ffffff;fill-opacity:1;fill-rule:nonzero;stroke:none"
         id="path34" />
      <path
         d="m 2491.64,698.039 -63.4,145.34 -66.45,-145.34 z m 26.3,-60.641 h -183 l -47.62,-103.816 h -69.49 l 211.52,454.316 204.05,-454.316 h -70.61 l -44.85,103.816"
         style="fill:#ffffff;fill-opacity:1;fill-rule:nonzero;stroke:none"
         id="path36" />
      <path
         d="m 2758.53,594.211 h 39.87 c 29.16,0 50.57,5.719 64.23,17.168 14.4,12.359 21.6,28.051 21.6,47.07 0,18.442 -6.93,33.949 -20.77,46.5 -13.47,12.36 -37.56,18.563 -72.26,18.563 h -32.67 z m 0,183.277 h 20.22 c 23.98,0 41.57,5.301 52.73,15.922 11.17,10.61 16.75,26.262 16.75,46.918 0,20.121 -5.72,35.391 -17.16,45.82 -11.44,10.43 -28.06,15.653 -49.83,15.653 h -22.71 z m -64.51,-243.906 v 427.457 h 64.24 c 28.6,0 51.4,-2.207 68.38,-6.641 17.17,-4.429 31.65,-11.898 43.46,-22.429 12,-10.887 21.51,-24.449 28.52,-40.688 7.2,-16.429 10.8,-33.043 10.8,-49.832 0,-30.648 -11.73,-56.578 -35.17,-77.801 22.71,-7.75 40.61,-21.316 53.72,-40.699 13.29,-19.199 19.93,-41.519 19.93,-67 0,-33.41 -11.81,-61.64 -35.43,-84.719 -14.22,-14.21 -30.19,-24.082 -47.9,-29.621 -19.38,-5.359 -43.66,-8.027 -72.82,-8.027 h -97.73"
         style="fill:#ffffff;fill-opacity:1;fill-rule:nonzero;stroke:none"
         id="path38" />
      <path
         d="M 3086.6,961.039 V 594.211 h 125.69 V 533.582 H 3022.1 v 427.457 h 64.5"
         style="fill:#ffffff;fill-opacity:1;fill-rule:nonzero;stroke:none"
         id="path40" />
      <path
         d="M 3525.56,900.41 H 3354.19 V 797.699 h 166.39 V 737.07 H 3354.19 V 594.211 h 171.37 v -60.629 h -235.88 v 427.457 h 235.88 V 900.41"
         style="fill:#ffffff;fill-opacity:1;fill-rule:nonzero;stroke:none"
         id="path42" />
      <path
         d="m 3667.58,764.762 h 20.49 c 61.1,0 91.64,23.347 91.64,70.027 0,43.75 -29.71,65.621 -89.15,65.621 h -22.98 z m 80.3,-49.012 132.33,-182.168 h -78.9 l -122.09,174.969 h -11.64 V 533.582 h -64.5 v 427.457 h 75.58 c 56.48,0 97.26,-10.609 122.37,-31.828 27.69,-23.633 41.53,-54.82 41.53,-93.582 0,-30.27 -8.68,-56.289 -26.02,-78.07 -17.35,-21.789 -40.24,-35.707 -68.66,-41.809"
         style="fill:#ffffff;fill-opacity:1;fill-rule:nonzero;stroke:none"
         id="path44" />
      <path
         d="m 4350.76,2881.67 h -203.43 v -51.02 h 203.43 v 51.02"
         style="fill:#ffffff;fill-opacity:1;fill-rule:nonzero;stroke:none"
         id="path46" />
      <path
         d="m 4268.01,3230.19 -23.29,45.4 -180.95,-92.87 23.3,-45.39 180.94,92.86"
         style="fill:#ffffff;fill-opacity:1;fill-rule:nonzero;stroke:none"
         id="path48" />
      <path
         d="m 3980.84,3540.73 -42.77,27.82 -111.18,-170.9 42.77,-27.83 111.18,170.91"
         style="fill:#ffffff;fill-opacity:1;fill-rule:nonzero;stroke:none"
         id="path50" />
      <path
         d="m 3498.87,2787.73 c -33.61,38.93 -58.05,83.6 -72.48,131.41 l -703.78,-529.19 c -95.99,-65.95 -201.08,-100.79 -304.05,-100.79 -0.02,0 -0.05,0 -0.08,0 -94.01,0.01 -182.74,28.31 -256.59,81.83 -70.44,51.04 -122.17,121.65 -149.59,204.19 -30.18,90.86 -29.63,194.76 1.6,300.55 2.92,9.04 32.37,98.64 79.66,183.77 46.71,84.07 100.13,218.49 102.38,224.18 l 1.95,4.91 1.53,5.06 c 88.02,290.35 56.08,558.68 -89.96,755.55 -67.34,90.79 -155.08,161.6 -260.77,210.47 -103.76,47.98 -219.76,72.31 -344.61,72.31 l -980.584,1.09 -0.301,-255.11 980.735,-1.1 c 172.41,0 314.7,-63.8 400.63,-179.65 45.38,-61.18 73.67,-134.82 84.09,-218.88 11.53,-93.02 0.82,-195.79 -31.83,-305.51 -9.51,-23.62 -52.02,-127.77 -86.27,-189.43 -62.7,-112.85 -98.81,-227.26 -100.32,-232.08 l -0.54,-1.75 c -46.52,-156.52 -46.34,-313.79 0.51,-454.81 44.36,-133.54 128.04,-247.77 241.98,-330.35 117.67,-85.26 258.14,-130.34 406.26,-130.36 0.05,0 0.07,0 0.12,0 155.8,0 311.85,51.01 451.23,147.51 l 2.06,1.42 709.88,533.78 c -30.66,19.07 -58.59,42.87 -82.86,70.98"
         style="fill:#ffffff;fill-opacity:1;fill-rule:nonzero;stroke:none"
         id="path52" />
      <path
         d="m 3611.3,2758.48 c -27.38,16.64 -52.27,37.64 -73.8,62.59 -30.5,35.33 -52.2,76.18 -64.25,119.87 l 1.13,1.17 c 81.64,81.34 166.57,213.82 226.02,306.55 31.49,49.14 60.1,93.56 77.24,120.15 l 85.55,-55.65 c -17.13,-26.56 -45.57,-70.72 -76.88,-119.57 -43.13,-67.29 -94.93,-148.07 -150.83,-220.78 146.25,92.53 323.99,183.68 371.96,207.92 l 46.6,-90.81 c -43.96,-22.26 -212.16,-108.59 -351.73,-195.67 45.37,8.26 98.88,13.05 163.4,13.05 122.46,0 198.12,-0.08 230.6,-0.12 v -102.05 c -32.37,0.05 -108,0.12 -230.6,0.12 -124.38,0 -198.09,-18.57 -253.55,-46.37 l -0.86,-0.4"
         style="fill:#ffffff;fill-opacity:1;fill-rule:nonzero;stroke:none"
         id="path54" />
    </g>
  </g>
</svg>
