<?xml version="1.0" encoding="UTF-8" standalone="no"?>
<!-- Created with Inkscape (http://www.inkscape.org/) -->

<svg
   version="1.1"
   id="svg2"
   width="680.32001"
   height="680.32001"
   viewBox="0 0 680.32001 680.32001"
   sodipodi:docname="LYSSTOFROER_rgb.eps"
   xmlns:inkscape="http://www.inkscape.org/namespaces/inkscape"
   xmlns:sodipodi="http://sodipodi.sourceforge.net/DTD/sodipodi-0.dtd"
   xmlns="http://www.w3.org/2000/svg"
   xmlns:svg="http://www.w3.org/2000/svg">
  <defs
     id="defs6" />
  <sodipodi:namedview
     id="namedview4"
     pagecolor="#ffffff"
     bordercolor="#000000"
     borderopacity="0.25"
     inkscape:showpageshadow="2"
     inkscape:pageopacity="0.0"
     inkscape:pagecheckerboard="0"
     inkscape:deskcolor="#d1d1d1" />
  <g
     id="g8"
     inkscape:groupmode="layer"
     inkscape:label="ink_ext_XXXXXX"
     transform="matrix(1.3333333,0,0,-1.3333333,0,680.32)">
    <g
       id="g10"
       transform="scale(0.1)">
      <path
         d="M 5102.36,0 H 0 V 5102.36 H 5102.36 V 0"
         style="fill:#ea1d2c;fill-opacity:1;fill-rule:nonzero;stroke:none"
         id="path12" />
      <path
         d="M 894.465,964.699 V 595.922 H 1020.82 V 534.98 H 829.613 v 429.719 h 64.852"
         style="fill:#ffffff;fill-opacity:1;fill-rule:nonzero;stroke:none"
         id="path14" />
      <path
         d="m 1141.71,720.609 -140.27,244.09 h 74.59 l 98.24,-171.73 98.53,171.73 h 74.59 L 1206.56,720.609 V 534.98 h -64.85 v 185.629"
         style="fill:#ffffff;fill-opacity:1;fill-rule:nonzero;stroke:none"
         id="path16" />
      <path
         d="m 1634.02,900.961 -52.6,-31.172 c -9.84,17.07 -19.2,28.199 -28.11,33.402 -9.28,5.938 -21.25,8.911 -35.9,8.911 -18.01,0 -32.94,-5.114 -44.81,-15.332 -11.88,-10.02 -17.81,-22.641 -17.81,-37.872 0,-20.976 15.58,-37.878 46.75,-50.687 l 42.86,-17.551 c 34.89,-14.109 60.4,-31.34 76.54,-51.66 16.14,-20.34 24.22,-45.262 24.22,-74.781 0,-39.559 -13.18,-72.239 -39.53,-98.047 -26.53,-26 -59.47,-38.992 -98.8,-38.992 -37.29,0 -68.09,11.09 -92.4,33.281 -23.94,22.148 -38.87,53.277 -44.81,93.348 l 65.68,14.48 c 2.97,-25.238 8.16,-42.68 15.59,-52.328 13.36,-18.551 32.84,-27.832 58.45,-27.832 20.22,0 37.01,6.769 50.37,20.301 13.36,13.539 20.04,30.691 20.04,51.461 0,8.339 -1.16,15.988 -3.48,22.937 -2.32,6.953 -5.94,13.352 -10.85,19.203 -4.92,5.828 -11.27,11.309 -19.07,16.399 -7.79,5.101 -17.07,9.961 -27.83,14.601 l -41.47,17.25 c -58.82,24.84 -88.23,61.18 -88.23,109.02 0,32.258 12.34,59.238 37.02,80.929 24.67,21.879 55.39,32.821 92.12,32.821 49.54,0 88.23,-24.031 116.06,-72.09"
         style="fill:#ffffff;fill-opacity:1;fill-rule:nonzero;stroke:none"
         id="path18" />
      <path
         d="m 1966.34,900.961 -52.6,-31.172 c -9.84,17.07 -19.21,28.199 -28.11,33.402 -9.29,5.938 -21.25,8.911 -35.91,8.911 -18,0 -32.94,-5.114 -44.81,-15.332 -11.87,-10.02 -17.81,-22.641 -17.81,-37.872 0,-20.976 15.59,-37.878 46.76,-50.687 l 42.86,-17.551 c 34.88,-14.109 60.39,-31.34 76.54,-51.66 16.14,-20.34 24.21,-45.262 24.21,-74.781 0,-39.559 -13.18,-72.239 -39.52,-98.047 -26.54,-26 -59.47,-38.992 -98.8,-38.992 -37.3,0 -68.1,11.09 -92.41,33.281 -23.93,22.148 -38.87,53.277 -44.81,93.348 l 65.69,14.48 c 2.96,-25.238 8.16,-42.68 15.58,-52.328 13.36,-18.551 32.84,-27.832 58.45,-27.832 20.22,0 37.02,6.769 50.38,20.301 13.36,13.539 20.04,30.691 20.04,51.461 0,8.339 -1.17,15.988 -3.49,22.937 -2.32,6.953 -5.93,13.352 -10.85,19.203 -4.92,5.828 -11.27,11.309 -19.06,16.399 -7.8,5.101 -17.08,9.961 -27.84,14.601 l -41.46,17.25 c -58.83,24.84 -88.23,61.18 -88.23,109.02 0,32.258 12.34,59.238 37.01,80.929 24.68,21.879 55.39,32.821 92.13,32.821 49.54,0 88.23,-24.031 116.06,-72.09"
         style="fill:#ffffff;fill-opacity:1;fill-rule:nonzero;stroke:none"
         id="path20" />
      <path
         d="M 2189.51,903.75 V 534.98 h -64.85 v 368.77 h -98.8 v 60.949 h 262.18 V 903.75 h -98.53"
         style="fill:#ffffff;fill-opacity:1;fill-rule:nonzero;stroke:none"
         id="path22" />
      <path
         d="m 2388.87,751.09 c 0,-47.461 15.95,-86.481 47.87,-117.07 31.73,-30.598 68.37,-45.891 109.93,-45.891 45.09,0 83.12,15.582 114.11,46.723 30.99,31.507 46.49,69.886 46.49,115.128 0,45.79 -15.32,84.161 -45.92,115.122 -30.44,31.148 -68.11,46.718 -113.01,46.718 -44.71,0 -82.48,-15.57 -113.27,-46.718 -30.8,-30.782 -46.2,-68.782 -46.2,-114.012 z m -65.41,0.691 c 0,60.489 22.17,112.438 66.52,155.86 44.16,43.418 97.23,65.129 159.2,65.129 61.23,0 113.74,-21.891 157.53,-65.68 43.97,-43.789 65.96,-96.399 65.96,-157.809 0,-61.781 -22.08,-114.211 -66.23,-157.25 -44.36,-43.23 -97.89,-64.851 -160.6,-64.851 -55.48,0 -105.3,19.199 -149.46,57.609 -48.61,42.492 -72.92,98.16 -72.92,166.992"
         style="fill:#ffffff;fill-opacity:1;fill-rule:nonzero;stroke:none"
         id="path24" />
      <path
         d="M 3067,903.75 H 2917.27 V 800.488 h 144.45 V 739.539 H 2917.27 V 534.98 h -64.85 V 964.699 H 3067 V 903.75"
         style="fill:#ffffff;fill-opacity:1;fill-rule:nonzero;stroke:none"
         id="path26" />
      <path
         d="m 3214.2,767.371 h 20.59 c 61.42,0 92.12,23.481 92.12,70.418 0,43.973 -29.87,65.961 -89.61,65.961 h -23.1 z m 80.71,-49.262 133.04,-183.129 h -79.33 L 3225.89,710.879 H 3214.2 V 534.98 h -64.84 v 429.719 h 75.97 c 56.78,0 97.79,-10.668 123.02,-32.008 27.83,-23.75 41.75,-55.109 41.75,-94.07 0,-30.43 -8.72,-56.59 -26.16,-78.492 -17.45,-21.891 -40.45,-35.899 -69.03,-42.02"
         style="fill:#ffffff;fill-opacity:1;fill-rule:nonzero;stroke:none"
         id="path28" />
      <path
         d="m 3824.69,848.641 -223.5,-227.942 c 31.36,-21.711 63.64,-32.57 96.86,-32.57 43.79,0 81.08,15.68 111.88,47.043 30.8,31.348 46.2,69.578 46.2,114.668 0,35.43 -10.48,68.371 -31.44,98.801 z m -37.3,36.179 c -26.9,18 -56.5,27 -88.79,27 -45.83,0 -84.05,-15.679 -114.66,-47.039 -30.43,-31.543 -45.65,-70.691 -45.65,-117.449 0,-30.613 9,-60.492 27,-89.621 z m 45.36,42.86 46.49,47.32 37.29,-37.02 -45.92,-47.039 c 33.95,-42.3 50.93,-89.711 50.93,-142.211 0,-60.859 -21.99,-113 -65.96,-156.421 -43.98,-43.418 -96.76,-65.129 -158.36,-65.129 -51.4,0 -98.81,16.422 -142.23,49.261 l -46.2,-45.921 -35.63,36.46 44.82,46.2 c -30.06,40.082 -45.09,85.07 -45.09,134.992 0,64.187 22.73,117.91 68.18,161.137 44.54,42.312 97.14,63.461 157.82,63.461 48.24,0 92.86,-15.032 133.86,-45.09"
         style="fill:#ffffff;fill-opacity:1;fill-rule:nonzero;stroke:none"
         id="path30" />
      <path
         d="m 4066.13,767.371 h 20.6 c 61.41,0 92.13,23.481 92.13,70.418 0,43.973 -29.88,65.961 -89.62,65.961 h -23.11 z m 80.72,-49.262 133.03,-183.129 h -79.31 l -122.75,175.899 h -11.69 V 534.98 h -64.84 v 429.719 h 75.99 c 56.77,0 97.77,-10.668 123,-32.008 27.84,-23.75 41.75,-55.109 41.75,-94.07 0,-30.43 -8.72,-56.59 -26.15,-78.492 -17.45,-21.891 -40.46,-35.899 -69.03,-42.02"
         style="fill:#ffffff;fill-opacity:1;fill-rule:nonzero;stroke:none"
         id="path32" />
      <path
         d="M 1227.77,2550.8 H 3881.1 v 408.19 H 1227.77 V 2550.8"
         style="fill:#ffffff;fill-opacity:1;fill-rule:nonzero;stroke:none"
         id="path34" />
      <path
         d="m 1176.75,2550.8 v 408.19 H 765.012 V 2831.46 H 509.895 v -51.02 h 255.117 v -51.09 H 509.895 v -51.02 H 765.012 V 2550.8 h 411.738"
         style="fill:#ffffff;fill-opacity:1;fill-rule:nonzero;stroke:none"
         id="path36" />
      <path
         d="m 4591.79,2780.44 v 51.02 h -255.12 v 127.53 H 3932.13 V 2550.8 h 404.54 v 127.53 h 255.12 v 51.02 h -255.12 v 51.09 h 255.12"
         style="fill:#ffffff;fill-opacity:1;fill-rule:nonzero;stroke:none"
         id="path38" />
    </g>
  </g>
</svg>
