<?xml version="1.0" encoding="UTF-8" standalone="no"?>
<!-- Created with Inkscape (http://www.inkscape.org/) -->

<svg
   version="1.1"
   id="svg2"
   width="680.32001"
   height="680.32001"
   viewBox="0 0 680.32001 680.32001"
   sodipodi:docname="MAD-_&amp;_DRIKKEKARTONER_rgb.eps"
   xmlns:inkscape="http://www.inkscape.org/namespaces/inkscape"
   xmlns:sodipodi="http://sodipodi.sourceforge.net/DTD/sodipodi-0.dtd"
   xmlns="http://www.w3.org/2000/svg"
   xmlns:svg="http://www.w3.org/2000/svg">
  <defs
     id="defs6" />
  <sodipodi:namedview
     id="namedview4"
     pagecolor="#ffffff"
     bordercolor="#000000"
     borderopacity="0.25"
     inkscape:showpageshadow="2"
     inkscape:pageopacity="0.0"
     inkscape:pagecheckerboard="0"
     inkscape:deskcolor="#d1d1d1" />
  <g
     id="g8"
     inkscape:groupmode="layer"
     inkscape:label="ink_ext_XXXXXX"
     transform="matrix(1.3333333,0,0,-1.3333333,0,680.32)">
    <g
       id="g10"
       transform="scale(0.1)">
      <path
         d="M 5102.36,0 H 0 V 5102.36 H 5102.36 V 0"
         style="fill:#b09455;fill-opacity:1;fill-rule:nonzero;stroke:none"
         id="path12" />
      <path
         d="m 455.41,1073.06 89.981,459.58 146.734,-332.23 151.992,332.23 80.844,-459.58 H 858.797 L 817.539,1331.09 691.016,1053.4 568.098,1331.37 522.137,1073.06 H 455.41"
         style="fill:#ffffff;fill-opacity:1;fill-rule:nonzero;stroke:none"
         id="path14" />
      <path
         d="m 1252.91,1237.51 -63.4,145.35 -66.45,-145.35 z m 26.3,-60.63 h -183 l -47.62,-103.82 h -69.492 l 211.522,454.31 204.04,-454.31 h -70.6 l -44.85,103.82"
         style="fill:#ffffff;fill-opacity:1;fill-rule:nonzero;stroke:none"
         id="path16" />
      <path
         d="m 1516.2,1133.68 h 29.07 c 28.98,0 53.06,3.05 72.26,9.14 19.19,6.46 36.55,16.71 52.05,30.74 31.74,28.97 47.62,66.71 47.62,113.23 0,46.88 -15.69,84.9 -47.07,114.06 -28.23,26.03 -69.86,39.04 -124.86,39.04 h -29.07 z m -64.5,-60.62 v 427.46 h 89.7 c 43,0 76.96,-4.25 101.88,-12.74 26.76,-8.3 51.03,-22.42 72.81,-42.35 44.11,-40.24 66.17,-93.12 66.17,-158.64 0,-65.71 -22.98,-118.87 -68.94,-159.46 -23.07,-20.32 -47.25,-34.44 -72.53,-42.37 -23.63,-7.94 -57.13,-11.9 -100.5,-11.9 h -88.59"
         style="fill:#ffffff;fill-opacity:1;fill-rule:nonzero;stroke:none"
         id="path18" />
      <path
         d="m 2268.69,1356.28 5.26,3.88 c 9.04,6.82 16.51,12.77 22.42,17.85 5.91,5.08 10.15,9.36 12.74,12.88 5.53,6.83 8.31,15.22 8.31,25.2 0,11.25 -3.79,20.39 -11.35,27.4 -7.58,7.01 -17.72,10.52 -30.46,10.52 -11.63,0 -21.41,-3.6 -29.35,-10.8 -7.93,-6.83 -11.9,-15.59 -11.9,-26.29 0,-12.56 4.98,-24.93 14.95,-37.1 l 16.06,-19.39 c 0.55,-0.93 1.66,-2.3 3.32,-4.15 z m -13.85,-81.67 -3.59,-2.49 c -26.4,-18.27 -44.39,-32.95 -53.99,-44.02 -9.41,-11.08 -14.12,-22.81 -14.12,-35.16 0,-17.72 7.1,-33.96 21.32,-48.73 14.76,-14.22 31,-21.32 48.72,-21.32 24.92,0 53.62,16.33 86.11,49.01 z m 51.23,36.26 76.96,-93.02 2.49,2.78 c 8.31,9.03 16.15,17.89 23.53,26.57 7.38,8.67 14.49,17.44 21.32,26.3 l 42.09,-43.19 c -5.17,-7.38 -11.96,-15.96 -20.35,-25.75 -8.41,-9.78 -18.41,-21.04 -30.04,-33.77 l 79.18,-97.73 h -80.29 l -42.63,52.32 c -39.14,-40.42 -79.84,-60.63 -122.1,-60.63 -37.84,0 -69.95,12.09 -96.35,36.27 -25.84,24.36 -38.76,54.44 -38.76,90.25 0,42.64 20.49,78.08 61.47,106.32 l 27.96,19.1 c 0.37,0.18 1.01,0.65 1.94,1.39 0.92,0.73 2.21,1.75 3.87,3.04 -28.23,30.08 -42.36,59.7 -42.36,88.87 0,28.79 9.42,52.23 28.24,70.32 19.2,18.09 43.93,27.13 74.2,27.13 29.35,0 53.61,-8.77 72.81,-26.3 19.2,-17.54 28.8,-39.68 28.8,-66.44 0,-18.46 -5.26,-35.17 -15.78,-50.11 -10.35,-14.96 -29.08,-32.86 -56.2,-53.72"
         style="fill:#ffffff;fill-opacity:1;fill-rule:nonzero;stroke:none"
         id="path20" />
      <path
         d="m 2765.73,1133.68 h 29.07 c 28.97,0 53.06,3.05 72.26,9.14 19.19,6.46 36.54,16.71 52.05,30.74 31.74,28.97 47.62,66.71 47.62,113.23 0,46.88 -15.69,84.9 -47.07,114.06 -28.23,26.03 -69.86,39.04 -124.86,39.04 h -29.07 z m -64.51,-60.62 v 427.46 h 89.71 c 43,0 76.96,-4.25 101.87,-12.74 26.77,-8.3 51.04,-22.42 72.82,-42.35 44.11,-40.24 66.17,-93.12 66.17,-158.64 0,-65.71 -22.98,-118.87 -68.94,-159.46 -23.07,-20.32 -47.25,-34.44 -72.54,-42.37 -23.62,-7.94 -57.13,-11.9 -100.49,-11.9 h -88.6"
         style="fill:#ffffff;fill-opacity:1;fill-rule:nonzero;stroke:none"
         id="path22" />
      <path
         d="m 3177.41,1304.23 h 20.49 c 61.09,0 91.64,23.35 91.64,70.05 0,43.74 -29.71,65.61 -89.15,65.61 h -22.98 z m 80.29,-49 132.34,-182.17 h -78.91 l -122.09,174.97 h -11.63 v -174.97 h -64.5 v 427.46 h 75.58 c 56.47,0 97.26,-10.62 122.37,-31.84 27.69,-23.62 41.52,-54.81 41.52,-93.57 0,-30.27 -8.67,-56.3 -26.02,-78.08 -17.35,-21.77 -40.24,-35.71 -68.66,-41.8"
         style="fill:#ffffff;fill-opacity:1;fill-rule:nonzero;stroke:none"
         id="path24" />
      <path
         d="m 3518.78,1500.52 v -427.46 h -64.51 v 427.46 h 64.51"
         style="fill:#ffffff;fill-opacity:1;fill-rule:nonzero;stroke:none"
         id="path26" />
      <path
         d="m 3667.99,1329.98 166.39,170.54 h 86.1 L 3727.24,1307 3921.58,1073.06 h -86.37 l -153.94,190.19 -13.28,-13.29 v -176.9 h -64.51 v 427.46 h 64.51 v -170.54"
         style="fill:#ffffff;fill-opacity:1;fill-rule:nonzero;stroke:none"
         id="path28" />
      <path
         d="m 4047.29,1329.98 166.38,170.54 h 86.11 L 4106.52,1307 4300.88,1073.06 h -86.38 l -153.93,190.19 -13.28,-13.29 v -176.9 h -64.52 v 427.46 h 64.52 v -170.54"
         style="fill:#ffffff;fill-opacity:1;fill-rule:nonzero;stroke:none"
         id="path30" />
      <path
         d="m 4594.35,1439.89 h -171.37 v -102.71 h 166.39 v -60.64 h -166.39 v -142.86 h 171.37 v -60.62 h -235.88 v 427.46 h 235.88 v -60.63"
         style="fill:#ffffff;fill-opacity:1;fill-rule:nonzero;stroke:none"
         id="path32" />
      <path
         d="m 4658.78,1336.22 h 123.48 v -59.78 h -123.48 v 59.78"
         style="fill:#ffffff;fill-opacity:1;fill-rule:nonzero;stroke:none"
         id="path34" />
      <path
         d="m 1106.74,791.828 166.39,170.543 h 86.1 L 1165.99,768.852 1360.34,534.898 h -86.38 L 1120.03,725.109 1106.74,711.82 V 534.898 h -64.51 v 427.473 h 64.51 V 791.828"
         style="fill:#ffffff;fill-opacity:1;fill-rule:nonzero;stroke:none"
         id="path36" />
      <path
         d="m 1682.36,699.359 -63.4,145.352 -66.45,-145.352 z m 26.3,-60.64 h -183 l -47.62,-103.821 h -69.49 l 211.51,454.332 204.05,-454.332 h -70.6 l -44.85,103.821"
         style="fill:#ffffff;fill-opacity:1;fill-rule:nonzero;stroke:none"
         id="path38" />
      <path
         d="m 1952.86,766.082 h 20.48 c 61.09,0 91.64,23.348 91.64,70.039 0,43.738 -29.72,65.617 -89.14,65.617 h -22.98 z m 80.29,-49.004 132.33,-182.18 h -78.9 l -122.1,174.973 h -11.62 V 534.898 h -64.51 v 427.473 h 75.58 c 56.48,0 97.27,-10.609 122.37,-31.832 27.69,-23.629 41.53,-54.828 41.53,-93.59 0,-30.269 -8.68,-56.289 -26.03,-78.07 -17.35,-21.777 -40.24,-35.707 -68.65,-41.801"
         style="fill:#ffffff;fill-opacity:1;fill-rule:nonzero;stroke:none"
         id="path40" />
      <path
         d="m 2349.87,901.738 v -366.84 h -64.5 v 366.84 h -98.29 v 60.633 h 260.8 v -60.633 h -98.01"
         style="fill:#ffffff;fill-opacity:1;fill-rule:nonzero;stroke:none"
         id="path42" />
      <path
         d="m 2544.65,749.879 c 0,-47.207 15.87,-86.02 47.62,-116.449 31.56,-30.43 68.01,-45.649 109.36,-45.649 44.85,0 82.68,15.489 113.51,46.481 30.82,31.347 46.23,69.519 46.23,114.519 0,45.547 -15.23,83.707 -45.68,114.508 -30.27,30.992 -67.74,46.481 -112.4,46.481 -44.48,0 -82.05,-15.489 -112.68,-46.481 -30.64,-30.609 -45.96,-68.418 -45.96,-113.41 z m -65.06,0.699 c 0,60.16 22.05,111.844 66.17,155.043 43.92,43.18 96.71,64.777 158.36,64.777 60.91,0 113.14,-21.777 156.7,-65.339 43.74,-43.547 65.62,-95.887 65.62,-156.969 0,-61.469 -21.98,-113.621 -65.9,-156.43 -44.11,-43.012 -97.36,-64.512 -159.75,-64.512 -55.18,0 -104.74,19.114 -148.67,57.313 -48.35,42.269 -72.53,97.641 -72.53,166.117"
         style="fill:#ffffff;fill-opacity:1;fill-rule:nonzero;stroke:none"
         id="path44" />
      <path
         d="m 3002.15,534.898 v 456.551 l 311.74,-326.148 v 297.07 h 64.5 V 508.879 L 3066.65,834.191 V 534.898 h -64.5"
         style="fill:#ffffff;fill-opacity:1;fill-rule:nonzero;stroke:none"
         id="path46" />
      <path
         d="M 3700.5,901.738 H 3529.13 V 799.02 h 166.39 V 738.391 H 3529.13 V 595.539 h 171.37 v -60.641 h -235.88 v 427.473 h 235.88 v -60.633"
         style="fill:#ffffff;fill-opacity:1;fill-rule:nonzero;stroke:none"
         id="path48" />
      <path
         d="m 3846.12,766.082 h 20.49 c 61.09,0 91.64,23.348 91.64,70.039 0,43.738 -29.72,65.617 -89.15,65.617 h -22.98 z m 80.29,-49.004 132.34,-182.18 h -78.91 l -122.09,174.973 h -11.63 V 534.898 h -64.51 v 427.473 h 75.59 c 56.47,0 97.26,-10.609 122.37,-31.832 27.69,-23.629 41.52,-54.828 41.52,-93.59 0,-30.269 -8.68,-56.289 -26.02,-78.07 -17.35,-21.777 -40.24,-35.707 -68.66,-41.801"
         style="fill:#ffffff;fill-opacity:1;fill-rule:nonzero;stroke:none"
         id="path50" />
      <path
         d="m 1860.06,1336.22 h 123.48 v -59.78 h -123.48 v 59.78"
         style="fill:#ffffff;fill-opacity:1;fill-rule:nonzero;stroke:none"
         id="path52" />
      <path
         d="M 1933.55,3648.02 V 2039.75 h 829.78 v 1608.27 h -829.78"
         style="fill:#ffffff;fill-opacity:1;fill-rule:nonzero;stroke:none"
         id="path54" />
      <path
         d="m 2942.15,4337.35 h -831.69 v -203.78 h 831.69 v 203.78"
         style="fill:#ffffff;fill-opacity:1;fill-rule:nonzero;stroke:none"
         id="path56" />
      <path
         d="m 2763.33,3701.46 h 2.1 l 159.04,381.09 h -815.44 l -172.72,-383.51 h 827.02 v 2.42"
         style="fill:#ffffff;fill-opacity:1;fill-rule:nonzero;stroke:none"
         id="path58" />
      <path
         d="m 2834.39,3734.2 296.86,264.62 -159.13,65.42 z"
         style="fill:#ffffff;fill-opacity:1;fill-rule:nonzero;stroke:none"
         id="path60" />
      <path
         d="m 2825.16,2064.13 342.18,306.58 v 1592.5 L 2825.16,3658.18 V 2064.13"
         style="fill:#ffffff;fill-opacity:1;fill-rule:nonzero;stroke:none"
         id="path62" />
    </g>
  </g>
</svg>
