<?xml version="1.0" encoding="UTF-8" standalone="no"?>
<!-- Created with Inkscape (http://www.inkscape.org/) -->

<svg
   version="1.1"
   id="svg2"
   width="680.32001"
   height="680.32001"
   viewBox="0 0 680.32001 680.32001"
   sodipodi:docname="MADAFFALD_rgb.eps"
   xmlns:inkscape="http://www.inkscape.org/namespaces/inkscape"
   xmlns:sodipodi="http://sodipodi.sourceforge.net/DTD/sodipodi-0.dtd"
   xmlns="http://www.w3.org/2000/svg"
   xmlns:svg="http://www.w3.org/2000/svg">
  <defs
     id="defs6" />
  <sodipodi:namedview
     id="namedview4"
     pagecolor="#ffffff"
     bordercolor="#000000"
     borderopacity="0.25"
     inkscape:showpageshadow="2"
     inkscape:pageopacity="0.0"
     inkscape:pagecheckerboard="0"
     inkscape:deskcolor="#d1d1d1" />
  <g
     id="g8"
     inkscape:groupmode="layer"
     inkscape:label="ink_ext_XXXXXX"
     transform="matrix(1.3333333,0,0,-1.3333333,0,680.32)">
    <g
       id="g10"
       transform="scale(0.1)">
      <path
         d="M 0,0 H 5102.36 V 5102.36 H 0 Z"
         style="fill:#31ae52;fill-opacity:1;fill-rule:nonzero;stroke:none"
         id="path12" />
      <path
         d="m 871.773,532.09 89.977,459.582 146.73,-332.231 152,332.231 80.84,-459.582 h -66.17 L 1233.9,790.121 1107.38,512.43 984.453,790.398 938.496,532.09 h -66.723"
         style="fill:#ffffff;fill-opacity:1;fill-rule:nonzero;stroke:none"
         id="path14" />
      <path
         d="m 1665.66,696.539 -63.4,145.352 -66.45,-145.352 z m 26.3,-60.629 h -183 l -47.62,-103.82 h -69.49 l 211.52,454.32 204.04,-454.32 h -70.6 l -44.85,103.82"
         style="fill:#ffffff;fill-opacity:1;fill-rule:nonzero;stroke:none"
         id="path16" />
      <path
         d="m 1925.35,592.719 h 29.07 c 28.97,0 53.06,3.051 72.26,9.14 19.19,6.461 36.54,16.7 52.05,30.731 31.74,28.969 47.62,66.719 47.62,113.23 0,46.879 -15.69,84.899 -47.07,114.071 -28.24,26.019 -69.86,39.031 -124.86,39.031 h -29.07 z m -64.51,-60.629 v 427.461 h 89.7 c 43.01,0 76.97,-4.242 101.89,-12.731 26.76,-8.308 51.03,-22.429 72.81,-42.359 44.11,-40.242 66.17,-93.121 66.17,-158.641 0,-65.711 -22.98,-118.859 -68.94,-159.468 -23.07,-20.301 -47.25,-34.422 -72.54,-42.364 -23.62,-7.929 -57.12,-11.898 -100.49,-11.898 h -88.6"
         style="fill:#ffffff;fill-opacity:1;fill-rule:nonzero;stroke:none"
         id="path18" />
      <path
         d="m 2467.29,696.539 -63.4,145.352 -66.44,-145.352 z m 26.3,-60.629 h -183 l -47.62,-103.82 h -69.49 L 2405,986.41 2609.04,532.09 h -70.6 l -44.85,103.82"
         style="fill:#ffffff;fill-opacity:1;fill-rule:nonzero;stroke:none"
         id="path20" />
      <path
         d="M 2884.93,898.922 H 2735.98 V 796.211 h 143.69 V 735.578 H 2735.98 V 532.09 h -64.51 v 427.461 h 213.46 v -60.629"
         style="fill:#ffffff;fill-opacity:1;fill-rule:nonzero;stroke:none"
         id="path22" />
      <path
         d="M 3173.14,898.922 H 3024.19 V 796.211 h 143.69 V 735.578 H 3024.19 V 532.09 h -64.51 v 427.461 h 213.46 v -60.629"
         style="fill:#ffffff;fill-opacity:1;fill-rule:nonzero;stroke:none"
         id="path24" />
      <path
         d="m 3435.45,696.539 -63.4,145.352 -66.44,-145.352 z m 26.3,-60.629 h -183 l -47.62,-103.82 h -69.49 l 211.52,454.32 204.04,-454.32 h -70.59 l -44.86,103.82"
         style="fill:#ffffff;fill-opacity:1;fill-rule:nonzero;stroke:none"
         id="path26" />
      <path
         d="M 3704.14,959.551 V 592.719 h 125.7 V 532.09 h -190.2 v 427.461 h 64.5"
         style="fill:#ffffff;fill-opacity:1;fill-rule:nonzero;stroke:none"
         id="path28" />
      <path
         d="m 3964.53,592.719 h 29.07 c 28.97,0 53.06,3.051 72.26,9.14 19.19,6.461 36.54,16.7 52.05,30.731 31.74,28.969 47.62,66.719 47.62,113.23 0,46.879 -15.69,84.899 -47.07,114.071 -28.24,26.019 -69.86,39.031 -124.86,39.031 h -29.07 z m -64.51,-60.629 v 427.461 h 89.7 c 43.01,0 76.97,-4.242 101.89,-12.731 26.76,-8.308 51.03,-22.429 72.81,-42.359 44.11,-40.242 66.17,-93.121 66.17,-158.641 0,-65.711 -22.98,-118.859 -68.94,-159.468 -23.07,-20.301 -47.25,-34.422 -72.54,-42.364 -23.62,-7.929 -57.12,-11.898 -100.49,-11.898 h -88.6"
         style="fill:#ffffff;fill-opacity:1;fill-rule:nonzero;stroke:none"
         id="path30" />
      <path
         d="m 2575.4,3507.13 25.45,420.21 -102.05,0.19 25.36,-420.43 c 8.36,-0.47 16.8,-0.73 25.32,-0.73 8.71,0 17.35,0.26 25.92,0.76"
         style="fill:#ffffff;fill-opacity:1;fill-rule:nonzero;stroke:none"
         id="path32" />
      <path
         d="m 1760.1,3403.61 0.09,0.02 h 0.01 l -0.1,-0.02"
         style="fill:#79cf99;fill-opacity:1;fill-rule:nonzero;stroke:none"
         id="path34" />
      <path
         d="m 3279.28,1990.88 -5.87,0.14 c -4.88,0.13 -23.1,1.1 -27.94,1.44 -154.63,10.75 -290.27,125.79 -375.02,298.47 -57.72,117.61 -92.1,261.37 -92.1,417.29 0,160.19 36.3,307.52 96.94,426.81 60.16,118.37 144.36,208.86 242.41,255.29 43.68,20.67 89.96,32.92 138.03,34.79 2.54,0.1 21.06,0.56 21.06,0.56 h 46.28 0.03 c -12.46,13.11 -24.9,26.25 -38.08,38.65 -71.01,66.31 -166.35,106.89 -271.17,106.89 h -0.02 -0.01 c -66.82,0 -144.19,-16.49 -199.45,-45.62 l -0.01,0.03 -0.02,-0.02 v 0.02 c -82.77,-44.38 -162.84,-69.79 -263.16,-70.41 -100.32,0.62 -180.39,26.03 -263.16,70.41 v -0.02 l -0.02,0.02 -0.01,-0.03 c -55.26,29.13 -132.63,45.62 -199.45,45.62 h -0.01 -0.01 c -104.83,0 -200.17,-40.58 -271.18,-106.89 -13.18,-12.4 -25.62,-25.54 -38.08,-38.65 h 0.03 46.28 c 0,0 18.53,-0.46 21.06,-0.56 48.08,-1.87 94.35,-14.12 138.03,-34.79 98.05,-46.43 182.25,-136.92 242.41,-255.29 60.64,-119.29 96.94,-266.62 96.94,-426.81 0,-155.92 -34.38,-299.68 -92.1,-417.29 -84.75,-172.68 -220.39,-287.72 -375.02,-298.47 -4.84,-0.34 -23.06,-1.31 -27.94,-1.44 l -5.87,-0.14 h -94.23 c 21.93,-26.33 44.02,-52.58 68.3,-76.71 l 1.5,-1.6 v -0.01 c 72.49,-77.13 175.5,-127.16 289.71,-127.16 h 0.01 0.01 l 0.04,0.01 c 18.16,0 84.44,1.9 101.95,4.26 5.9,0.85 11.88,1.49 17.69,2.6 13.04,2.36 25.69,5.73 38.25,9.32 10.61,3.05 20.95,6.52 31.18,10.4 9.51,3.61 18.59,7.62 27.47,11.94 70.81,38.51 144.15,61.91 246.22,61.91 101.97,0 177.03,-23.35 247.81,-61.8 8.95,-4.35 18.09,-8.41 27.68,-12.05 10.23,-3.88 20.57,-7.35 31.18,-10.4 12.56,-3.59 25.21,-6.96 38.25,-9.32 5.81,-1.11 11.79,-1.75 17.69,-2.6 17.51,-2.36 81.99,-4.26 100.15,-4.26 l 0.04,-0.01 h 0.01 0.01 c 114.21,0 217.22,50.03 289.71,127.16 v 0.01 l 1.5,1.6 c 24.28,24.13 46.37,50.38 68.3,76.71 h -94.23"
         style="fill:#ffffff;fill-opacity:1;fill-rule:nonzero;stroke:none"
         id="path36" />
    </g>
  </g>
</svg>
