<?xml version="1.0" encoding="UTF-8" standalone="no"?>
<!-- Created with Inkscape (http://www.inkscape.org/) -->

<svg
   version="1.1"
   id="svg2"
   width="680.32001"
   height="680.32001"
   viewBox="0 0 680.32001 680.32001"
   sodipodi:docname="MADRASSER_rgb.icon.svg"
   inkscape:version="1.3.2 (091e20e, 2023-11-25, custom)"
   xmlns:inkscape="http://www.inkscape.org/namespaces/inkscape"
   xmlns:sodipodi="http://sodipodi.sourceforge.net/DTD/sodipodi-0.dtd"
   xmlns="http://www.w3.org/2000/svg"
   xmlns:svg="http://www.w3.org/2000/svg">
  <defs
     id="defs6" />
  <sodipodi:namedview
     id="namedview4"
     pagecolor="#ffffff"
     bordercolor="#000000"
     borderopacity="0.25"
     inkscape:showpageshadow="2"
     inkscape:pageopacity="0.0"
     inkscape:pagecheckerboard="0"
     inkscape:deskcolor="#d1d1d1"
     inkscape:zoom="1.6859713"
     inkscape:cx="340.16"
     inkscape:cy="340.16"
     inkscape:window-width="2560"
     inkscape:window-height="1361"
     inkscape:window-x="2551"
     inkscape:window-y="-9"
     inkscape:window-maximized="1"
     inkscape:current-layer="g8" />
  <g
     id="g8"
     inkscape:groupmode="layer"
     inkscape:label="ink_ext_XXXXXX"
     transform="matrix(1.3333333,0,0,-1.3333333,0,680.32)">
    <g
       id="g10"
       transform="scale(0.1)">
      <path
         d="M 5102.36,0 H 0 V 5102.36 H 5102.36 V 0"
         style="fill:#9a1844;fill-opacity:1;fill-rule:nonzero;stroke:none"
         id="path12" />
      <path
         d="m 1701.62,2985.14 c 47.77,0 86.5,-16.84 86.5,-37.62 0,-20.78 -38.73,-37.62 -86.5,-37.62 -47.77,0 -86.5,16.84 -86.5,37.62 0,20.78 38.73,37.62 86.5,37.62 z m 253.57,228.32 c 47.77,0 86.5,-16.85 86.5,-37.63 0,-20.77 -38.73,-37.62 -86.5,-37.62 -47.77,0 -86.5,16.85 -86.5,37.62 0,20.78 38.73,37.63 86.5,37.63 z m 252.88,-228.32 c 47.77,0 86.5,-16.84 86.5,-37.62 0,-20.78 -38.73,-37.62 -86.5,-37.62 -47.77,0 -86.5,16.84 -86.5,37.62 0,20.78 38.73,37.62 86.5,37.62 z m 0,456.63 c 47.77,0 86.5,-16.84 86.5,-37.62 0,-20.78 -38.73,-37.62 -86.5,-37.62 -47.77,0 -86.5,16.84 -86.5,37.62 0,20.78 38.73,37.62 86.5,37.62 z m 253.57,-228.31 c 47.77,0 86.49,-16.85 86.49,-37.63 0,-20.77 -38.72,-37.62 -86.49,-37.62 -47.78,0 -86.5,16.85 -86.5,37.62 0,20.78 38.72,37.63 86.5,37.63 z m 0,456.62 c 47.77,0 86.49,-16.84 86.49,-37.62 0,-20.78 -38.72,-37.62 -86.49,-37.62 -47.78,0 -86.5,16.84 -86.5,37.62 0,20.78 38.72,37.62 86.5,37.62 z m 254.72,-684.94 c 47.77,0 86.5,-16.84 86.5,-37.62 0,-20.78 -38.73,-37.62 -86.5,-37.62 -47.77,0 -86.5,16.84 -86.5,37.62 0,20.78 38.73,37.62 86.5,37.62 z m 0,456.63 c 47.77,0 86.5,-16.84 86.5,-37.62 0,-20.78 -38.73,-37.62 -86.5,-37.62 -47.77,0 -86.5,16.84 -86.5,37.62 0,20.78 38.73,37.62 86.5,37.62 z m 253.57,-228.31 c 47.77,0 86.5,-16.85 86.5,-37.63 0,-20.77 -38.73,-37.62 -86.5,-37.62 -47.77,0 -86.5,16.85 -86.5,37.62 0,20.78 38.73,37.63 86.5,37.63 z m 0,456.62 c 47.77,0 86.5,-16.84 86.5,-37.62 0,-20.78 -38.73,-37.62 -86.5,-37.62 -47.77,0 -86.5,16.84 -86.5,37.62 0,20.78 38.73,37.62 86.5,37.62 z m 252.88,-228.31 c 47.77,0 86.49,-16.84 86.49,-37.62 0,-20.78 -38.72,-37.62 -86.49,-37.62 -47.78,0 -86.5,16.84 -86.5,37.62 0,20.78 38.72,37.62 86.5,37.62 z m 253.57,228.31 c 47.77,0 86.49,-16.84 86.49,-37.62 0,-20.78 -38.72,-37.62 -86.49,-37.62 -47.78,0 -86.5,16.84 -86.5,37.62 0,20.78 38.72,37.62 86.5,37.62 z M 943.129,2656.05 H 2926.85 c 17.66,0 34.68,6.54 47.8,18.35 l 1208.48,1088.12 c 24.32,21.9 8.83,62.26 -23.9,62.26 h -1932.8 c -50.44,0 -99.09,-18.68 -136.57,-52.42 L 919.23,2718.31 c -24.324,-21.9 -8.832,-62.26 23.899,-62.26"
         style="fill:#ffffff;fill-opacity:1;fill-rule:nonzero;stroke:none"
         id="path32" />
      <path
         d="m 2994.09,2623.38 c -13.12,-11.82 -30.15,-18.35 -47.8,-18.35 H 2897.46 907.34 v -492.74 c 0,-39.45 31.98,-71.43 71.433,-71.43 H 2895.37 c 50.44,0 99.09,18.68 136.57,52.43 l 1139.11,1025.66 c 15.04,13.55 23.63,32.84 23.63,53.08 v 532.37 l -1200.36,-1080.81 -0.23,-0.21"
         style="fill:#ffffff;fill-opacity:1;fill-rule:nonzero;stroke:none"
         id="path34" />
    </g>
  </g>
</svg>
