<?xml version="1.0" encoding="UTF-8" standalone="no"?>
<!-- Created with Inkscape (http://www.inkscape.org/) -->

<svg
   version="1.1"
   id="svg2"
   width="680.32001"
   height="680.32001"
   viewBox="0 0 680.32001 680.32001"
   sodipodi:docname="MADRASSER_rgb.eps"
   xmlns:inkscape="http://www.inkscape.org/namespaces/inkscape"
   xmlns:sodipodi="http://sodipodi.sourceforge.net/DTD/sodipodi-0.dtd"
   xmlns="http://www.w3.org/2000/svg"
   xmlns:svg="http://www.w3.org/2000/svg">
  <defs
     id="defs6" />
  <sodipodi:namedview
     id="namedview4"
     pagecolor="#ffffff"
     bordercolor="#000000"
     borderopacity="0.25"
     inkscape:showpageshadow="2"
     inkscape:pageopacity="0.0"
     inkscape:pagecheckerboard="0"
     inkscape:deskcolor="#d1d1d1" />
  <g
     id="g8"
     inkscape:groupmode="layer"
     inkscape:label="ink_ext_XXXXXX"
     transform="matrix(1.3333333,0,0,-1.3333333,0,680.32)">
    <g
       id="g10"
       transform="scale(0.1)">
      <path
         d="M 5102.36,0 H 0 V 5102.36 H 5102.36 V 0"
         style="fill:#9a1844;fill-opacity:1;fill-rule:nonzero;stroke:none"
         id="path12" />
      <path
         d="M 856.824,533.512 946.801,993.09 1093.54,660.859 1245.53,993.09 1326.37,533.512 H 1260.2 L 1218.95,791.539 1092.43,513.852 969.504,791.809 923.547,533.512 h -66.723"
         style="fill:#ffffff;fill-opacity:1;fill-rule:nonzero;stroke:none"
         id="path14" />
      <path
         d="m 1641.71,697.961 -63.4,145.348 -66.45,-145.348 z m 26.3,-60.629 h -183 l -47.62,-103.82 h -69.49 l 211.52,454.316 204.04,-454.316 h -70.6 l -44.85,103.82"
         style="fill:#ffffff;fill-opacity:1;fill-rule:nonzero;stroke:none"
         id="path16" />
      <path
         d="m 1901.4,594.141 h 29.07 c 28.97,0 53.06,3.039 72.26,9.14 19.19,6.449 36.54,16.699 52.05,30.731 31.74,28.968 47.62,66.718 47.62,113.226 0,46.883 -15.69,84.903 -47.07,114.063 -28.24,26.031 -69.86,39.039 -124.86,39.039 h -29.07 z m -64.51,-60.629 v 427.457 h 89.7 c 43.01,0 76.97,-4.239 101.89,-12.731 26.76,-8.308 51.03,-22.429 72.81,-42.359 44.11,-40.238 66.17,-93.117 66.17,-158.641 0,-65.707 -22.98,-118.867 -68.94,-159.468 -23.07,-20.301 -47.25,-34.418 -72.54,-42.36 -23.62,-7.941 -57.12,-11.898 -100.49,-11.898 h -88.6"
         style="fill:#ffffff;fill-opacity:1;fill-rule:nonzero;stroke:none"
         id="path18" />
      <path
         d="m 2293.08,764.68 h 20.49 c 61.09,0 91.64,23.351 91.64,70.05 0,43.739 -29.72,65.61 -89.15,65.61 h -22.98 z m 80.29,-49 132.34,-182.168 h -78.9 l -122.1,174.968 h -11.63 V 533.512 h -64.5 v 427.457 h 75.58 c 56.48,0 97.27,-10.61 122.37,-31.84 27.68,-23.617 41.53,-54.809 41.53,-93.57 0,-30.278 -8.68,-56.297 -26.03,-78.079 -17.35,-21.781 -40.24,-35.71 -68.66,-41.8"
         style="fill:#ffffff;fill-opacity:1;fill-rule:nonzero;stroke:none"
         id="path20" />
      <path
         d="m 2824.75,697.961 -63.4,145.348 -66.45,-145.348 z m 26.3,-60.629 h -183 l -47.63,-103.82 h -69.48 l 211.51,454.316 204.05,-454.316 h -70.6 l -44.85,103.82"
         style="fill:#ffffff;fill-opacity:1;fill-rule:nonzero;stroke:none"
         id="path22" />
      <path
         d="m 3251.62,897.301 -52.32,-31.012 c -9.79,16.981 -19.1,28.051 -27.96,33.223 -9.24,5.898 -21.14,8.859 -35.72,8.859 -17.9,0 -32.76,-5.082 -44.57,-15.23 -11.82,-9.961 -17.72,-22.52 -17.72,-37.653 0,-20.859 15.5,-37.648 46.51,-50.386 l 42.64,-17.442 c 34.69,-14.031 60.08,-31.148 76.13,-51.359 16.06,-20.211 24.09,-44.992 24.09,-74.332 0,-39.321 -13.11,-71.797 -39.31,-97.457 -26.4,-25.84 -59.16,-38.75 -98.29,-38.75 -37.1,0 -67.74,10.968 -91.91,32.937 -23.81,21.961 -38.67,52.879 -44.58,92.75 l 65.34,14.391 c 2.95,-25.102 8.12,-42.449 15.5,-52.039 13.29,-18.461 32.67,-27.692 58.14,-27.692 20.12,0 36.82,6.743 50.11,20.211 13.29,13.469 19.94,30.539 19.94,51.219 0,8.301 -1.16,15.922 -3.46,22.84 -2.31,6.922 -5.91,13.293 -10.8,19.101 -4.89,5.821 -11.21,11.258 -18.97,16.34 -7.75,5.071 -16.98,9.918 -27.68,14.532 l -41.25,17.168 c -58.51,24.73 -87.76,60.902 -87.76,108.519 0,32.121 12.27,58.973 36.82,80.57 24.54,21.782 55.09,32.672 91.64,32.672 49.28,0 87.76,-24 115.44,-71.98"
         style="fill:#ffffff;fill-opacity:1;fill-rule:nonzero;stroke:none"
         id="path24" />
      <path
         d="m 3582.19,897.301 -52.33,-31.012 c -9.78,16.981 -19.1,28.051 -27.96,33.223 -9.23,5.898 -21.13,8.859 -35.71,8.859 -17.91,0 -32.77,-5.082 -44.58,-15.23 -11.81,-9.961 -17.71,-22.52 -17.71,-37.653 0,-20.859 15.5,-37.648 46.51,-50.386 l 42.63,-17.442 c 34.7,-14.031 60.08,-31.148 76.14,-51.359 16.06,-20.211 24.08,-44.992 24.08,-74.332 0,-39.321 -13.1,-71.797 -39.31,-97.457 -26.4,-25.84 -59.15,-38.75 -98.28,-38.75 -37.1,0 -67.74,10.968 -91.92,32.937 -23.81,21.961 -38.67,52.879 -44.57,92.75 l 65.33,14.391 c 2.96,-25.102 8.12,-42.449 15.51,-52.039 13.29,-18.461 32.67,-27.692 58.14,-27.692 20.11,0 36.82,6.743 50.11,20.211 13.29,13.469 19.93,30.539 19.93,51.219 0,8.301 -1.15,15.922 -3.46,22.84 -2.31,6.922 -5.91,13.293 -10.79,19.101 -4.9,5.821 -11.22,11.258 -18.97,16.34 -7.75,5.071 -16.98,9.918 -27.69,14.532 l -41.25,17.168 c -58.51,24.73 -87.76,60.902 -87.76,108.519 0,32.121 12.27,58.973 36.82,80.57 24.55,21.782 55.1,32.672 91.64,32.672 49.28,0 87.76,-24 115.45,-71.98"
         style="fill:#ffffff;fill-opacity:1;fill-rule:nonzero;stroke:none"
         id="path26" />
      <path
         d="M 3906.94,900.34 H 3735.57 V 797.629 h 166.39 V 737 H 3735.57 V 594.141 h 171.37 v -60.629 h -235.88 v 427.457 h 235.88 V 900.34"
         style="fill:#ffffff;fill-opacity:1;fill-rule:nonzero;stroke:none"
         id="path28" />
      <path
         d="m 4056.17,764.68 h 20.48 c 61.09,0 91.64,23.351 91.64,70.05 0,43.739 -29.72,65.61 -89.14,65.61 h -22.98 z m 80.28,-49 132.34,-182.168 h -78.9 l -122.1,174.968 h -11.62 V 533.512 h -64.51 v 427.457 h 75.58 c 56.48,0 97.27,-10.61 122.37,-31.84 27.69,-23.617 41.53,-54.809 41.53,-93.57 0,-30.278 -8.68,-56.297 -26.02,-78.079 -17.36,-21.781 -40.24,-35.71 -68.67,-41.8"
         style="fill:#ffffff;fill-opacity:1;fill-rule:nonzero;stroke:none"
         id="path30" />
      <path
         d="m 1701.62,2985.14 c 47.77,0 86.5,-16.84 86.5,-37.62 0,-20.78 -38.73,-37.62 -86.5,-37.62 -47.77,0 -86.5,16.84 -86.5,37.62 0,20.78 38.73,37.62 86.5,37.62 z m 253.57,228.32 c 47.77,0 86.5,-16.85 86.5,-37.63 0,-20.77 -38.73,-37.62 -86.5,-37.62 -47.77,0 -86.5,16.85 -86.5,37.62 0,20.78 38.73,37.63 86.5,37.63 z m 252.88,-228.32 c 47.77,0 86.5,-16.84 86.5,-37.62 0,-20.78 -38.73,-37.62 -86.5,-37.62 -47.77,0 -86.5,16.84 -86.5,37.62 0,20.78 38.73,37.62 86.5,37.62 z m 0,456.63 c 47.77,0 86.5,-16.84 86.5,-37.62 0,-20.78 -38.73,-37.62 -86.5,-37.62 -47.77,0 -86.5,16.84 -86.5,37.62 0,20.78 38.73,37.62 86.5,37.62 z m 253.57,-228.31 c 47.77,0 86.49,-16.85 86.49,-37.63 0,-20.77 -38.72,-37.62 -86.49,-37.62 -47.78,0 -86.5,16.85 -86.5,37.62 0,20.78 38.72,37.63 86.5,37.63 z m 0,456.62 c 47.77,0 86.49,-16.84 86.49,-37.62 0,-20.78 -38.72,-37.62 -86.49,-37.62 -47.78,0 -86.5,16.84 -86.5,37.62 0,20.78 38.72,37.62 86.5,37.62 z m 254.72,-684.94 c 47.77,0 86.5,-16.84 86.5,-37.62 0,-20.78 -38.73,-37.62 -86.5,-37.62 -47.77,0 -86.5,16.84 -86.5,37.62 0,20.78 38.73,37.62 86.5,37.62 z m 0,456.63 c 47.77,0 86.5,-16.84 86.5,-37.62 0,-20.78 -38.73,-37.62 -86.5,-37.62 -47.77,0 -86.5,16.84 -86.5,37.62 0,20.78 38.73,37.62 86.5,37.62 z m 253.57,-228.31 c 47.77,0 86.5,-16.85 86.5,-37.63 0,-20.77 -38.73,-37.62 -86.5,-37.62 -47.77,0 -86.5,16.85 -86.5,37.62 0,20.78 38.73,37.63 86.5,37.63 z m 0,456.62 c 47.77,0 86.5,-16.84 86.5,-37.62 0,-20.78 -38.73,-37.62 -86.5,-37.62 -47.77,0 -86.5,16.84 -86.5,37.62 0,20.78 38.73,37.62 86.5,37.62 z m 252.88,-228.31 c 47.77,0 86.49,-16.84 86.49,-37.62 0,-20.78 -38.72,-37.62 -86.49,-37.62 -47.78,0 -86.5,16.84 -86.5,37.62 0,20.78 38.72,37.62 86.5,37.62 z m 253.57,228.31 c 47.77,0 86.49,-16.84 86.49,-37.62 0,-20.78 -38.72,-37.62 -86.49,-37.62 -47.78,0 -86.5,16.84 -86.5,37.62 0,20.78 38.72,37.62 86.5,37.62 z M 943.129,2656.05 H 2926.85 c 17.66,0 34.68,6.54 47.8,18.35 l 1208.48,1088.12 c 24.32,21.9 8.83,62.26 -23.9,62.26 h -1932.8 c -50.44,0 -99.09,-18.68 -136.57,-52.42 L 919.23,2718.31 c -24.324,-21.9 -8.832,-62.26 23.899,-62.26"
         style="fill:#ffffff;fill-opacity:1;fill-rule:nonzero;stroke:none"
         id="path32" />
      <path
         d="m 2994.09,2623.38 c -13.12,-11.82 -30.15,-18.35 -47.8,-18.35 H 2897.46 907.34 v -492.74 c 0,-39.45 31.98,-71.43 71.433,-71.43 H 2895.37 c 50.44,0 99.09,18.68 136.57,52.43 l 1139.11,1025.66 c 15.04,13.55 23.63,32.84 23.63,53.08 v 532.37 l -1200.36,-1080.81 -0.23,-0.21"
         style="fill:#ffffff;fill-opacity:1;fill-rule:nonzero;stroke:none"
         id="path34" />
    </g>
  </g>
</svg>
