<?xml version="1.0" encoding="UTF-8" standalone="no"?>
<!-- Created with Inkscape (http://www.inkscape.org/) -->

<svg
   version="1.1"
   id="svg2"
   width="680.32001"
   height="680.32001"
   viewBox="0 0 680.32001 680.32001"
   sodipodi:docname="MAELKE_&amp;_BROEDKASSER_rgb.eps"
   xmlns:inkscape="http://www.inkscape.org/namespaces/inkscape"
   xmlns:sodipodi="http://sodipodi.sourceforge.net/DTD/sodipodi-0.dtd"
   xmlns="http://www.w3.org/2000/svg"
   xmlns:svg="http://www.w3.org/2000/svg">
  <defs
     id="defs6" />
  <sodipodi:namedview
     id="namedview4"
     pagecolor="#ffffff"
     bordercolor="#000000"
     borderopacity="0.25"
     inkscape:showpageshadow="2"
     inkscape:pageopacity="0.0"
     inkscape:pagecheckerboard="0"
     inkscape:deskcolor="#d1d1d1" />
  <g
     id="g8"
     inkscape:groupmode="layer"
     inkscape:label="ink_ext_XXXXXX"
     transform="matrix(1.3333333,0,0,-1.3333333,0,680.32)">
    <g
       id="g10"
       transform="scale(0.1)">
      <path
         d="M 5102.36,0 H 0 V 5102.36 H 5102.36 V 0"
         style="fill:#8d1c90;fill-opacity:1;fill-rule:nonzero;stroke:none"
         id="path12" />
      <path
         d="m 772.41,596.039 h 39.871 c 29.16,0 50.567,5.711 64.227,17.16 14.394,12.36 21.597,28.063 21.597,47.071 0,18.46 -6.925,33.949 -20.765,46.511 -13.473,12.367 -37.559,18.547 -72.262,18.547 H 772.41 Z m 0,183.27 h 20.211 c 23.988,0 41.574,5.312 52.738,15.929 11.168,10.614 16.754,26.25 16.754,46.922 0,20.121 -5.722,35.399 -17.168,45.82 -11.445,10.418 -28.054,15.641 -49.832,15.641 H 772.41 Z M 707.906,535.41 v 427.461 h 64.227 c 28.609,0 51.402,-2.211 68.383,-6.641 17.164,-4.441 31.656,-11.91 43.468,-22.421 11.996,-10.899 21.5,-24.469 28.516,-40.707 7.195,-16.422 10.797,-33.043 10.797,-49.832 0,-30.641 -11.727,-56.571 -35.164,-77.801 22.707,-7.75 40.605,-21.309 53.711,-40.699 13.293,-19.192 19.937,-41.52 19.937,-66.989 0,-33.41 -11.816,-61.652 -35.437,-84.722 -14.215,-14.219 -30.176,-24.09 -47.899,-29.629 -19.379,-5.352 -43.648,-8.02 -72.812,-8.02 h -97.727"
         style="fill:#ffffff;fill-opacity:1;fill-rule:nonzero;stroke:none"
         id="path14" />
      <path
         d="m 1102.28,766.578 h 20.49 c 61.09,0 91.64,23.352 91.64,70.051 0,43.742 -29.72,65.609 -89.15,65.609 h -22.98 z m 80.29,-49.008 132.34,-182.16 h -78.9 l -122.1,174.969 h -11.63 V 535.41 h -64.5 v 427.461 h 75.58 c 56.48,0 97.26,-10.621 122.37,-31.84 27.68,-23.621 41.53,-54.812 41.53,-93.57 0,-30.281 -8.68,-56.301 -26.03,-78.082 -17.35,-21.777 -40.24,-35.707 -68.66,-41.809"
         style="fill:#ffffff;fill-opacity:1;fill-rule:nonzero;stroke:none"
         id="path16" />
      <path
         d="M 1707.77,847.422 1485.45,620.68 c 31.19,-21.602 63.31,-32.391 96.35,-32.391 43.56,0 80.66,15.59 111.3,46.781 30.63,31.2 45.95,69.211 45.95,114.071 0,35.25 -10.43,68.007 -31.28,98.281 z m -37.1,35.988 c -26.76,17.899 -56.2,26.86 -88.32,26.86 -45.59,0 -83.61,-15.598 -114.06,-46.79 -30.27,-31.378 -45.41,-70.32 -45.41,-116.832 0,-30.449 8.95,-60.179 26.86,-89.148 z m 45.13,42.641 46.23,47.058 37.1,-36.808 -45.68,-46.789 c 33.78,-42.09 50.66,-89.25 50.66,-141.481 0,-60.543 -21.87,-112.402 -65.61,-155.59 -43.74,-43.203 -96.26,-64.793 -157.53,-64.793 -51.13,0 -98.28,16.34 -141.48,49.012 l -45.96,-45.691 -35.43,36.269 44.57,45.961 c -29.9,39.871 -44.85,84.629 -44.85,134.281 0,63.852 22.61,117.29 67.83,160.301 44.3,42.078 96.63,63.117 156.98,63.117 47.98,0 92.37,-14.949 133.17,-44.847"
         style="fill:#ffffff;fill-opacity:1;fill-rule:nonzero;stroke:none"
         id="path18" />
      <path
         d="m 1949.74,596.039 h 29.07 c 28.97,0 53.06,3.039 72.26,9.133 19.19,6.469 36.54,16.699 52.04,30.726 31.75,28.981 47.63,66.723 47.63,113.243 0,46.879 -15.7,84.898 -47.07,114.058 -28.24,26.02 -69.86,39.039 -124.86,39.039 h -29.07 z m -64.51,-60.629 v 427.461 h 89.7 c 43.01,0 76.97,-4.25 101.89,-12.742 26.75,-8.301 51.03,-22.418 72.81,-42.348 44.11,-40.242 66.17,-93.133 66.17,-158.64 0,-65.711 -22.98,-118.871 -68.94,-159.469 -23.08,-20.313 -47.25,-34.434 -72.53,-42.363 -23.64,-7.938 -57.13,-11.899 -100.5,-11.899 h -88.6"
         style="fill:#ffffff;fill-opacity:1;fill-rule:nonzero;stroke:none"
         id="path20" />
      <path
         d="m 2359.62,792.332 166.39,170.539 h 86.11 L 2418.87,769.352 2613.22,535.41 h -86.38 L 2372.91,725.602 2359.62,712.32 V 535.41 h -64.5 v 427.461 h 64.5 V 792.332"
         style="fill:#ffffff;fill-opacity:1;fill-rule:nonzero;stroke:none"
         id="path22" />
      <path
         d="m 2933.42,699.859 -63.4,145.352 -66.45,-145.352 z m 26.3,-60.64 h -183 L 2729.1,535.41 h -69.49 l 211.51,454.309 204.05,-454.309 h -70.6 l -44.85,103.809"
         style="fill:#ffffff;fill-opacity:1;fill-rule:nonzero;stroke:none"
         id="path24" />
      <path
         d="m 3370.3,899.469 -52.33,-31.008 c -9.79,16.988 -19.1,28.059 -27.96,33.23 -9.23,5.899 -21.13,8.848 -35.71,8.848 -17.91,0 -32.77,-5.07 -44.57,-15.23 -11.82,-9.981 -17.73,-22.539 -17.73,-37.688 0,-20.871 15.51,-37.672 46.52,-50.422 l 42.63,-17.449 c 34.7,-14.039 60.08,-31.168 76.13,-51.391 16.06,-20.23 24.1,-45.031 24.1,-74.39 0,-39.34 -13.12,-71.848 -39.32,-97.528 -26.4,-25.863 -59.16,-38.793 -98.28,-38.793 -37.1,0 -67.75,11.043 -91.92,33.102 -23.81,22.051 -38.67,53.012 -44.58,92.871 l 65.35,14.399 c 2.95,-25.098 8.11,-42.461 15.49,-52.051 13.3,-18.449 32.68,-27.68 58.15,-27.68 20.11,0 36.82,6.731 50.11,20.191 13.29,13.461 19.93,30.52 19.93,51.18 0,8.301 -1.15,15.91 -3.46,22.828 -2.31,6.91 -5.91,13.282 -10.8,19.09 -4.89,5.813 -11.21,11.25 -18.96,16.32 -7.76,5.071 -16.99,9.911 -27.69,14.532 l -41.25,17.148 c -58.52,24.711 -87.76,60.871 -87.76,108.442 0,32.089 12.27,58.929 36.82,80.511 24.54,21.758 55.09,32.649 91.64,32.649 49.28,0 87.77,-23.91 115.45,-71.711"
         style="fill:#ffffff;fill-opacity:1;fill-rule:nonzero;stroke:none"
         id="path26" />
      <path
         d="m 3708.07,899.469 -52.33,-31.008 c -9.78,16.988 -19.11,28.059 -27.97,33.23 -9.23,5.899 -21.13,8.848 -35.71,8.848 -17.9,0 -32.76,-5.07 -44.57,-15.23 -11.82,-9.981 -17.72,-22.539 -17.72,-37.688 0,-20.871 15.5,-37.672 46.51,-50.422 l 42.64,-17.449 c 34.69,-14.039 60.07,-31.168 76.13,-51.391 16.06,-20.23 24.09,-45.031 24.09,-74.39 0,-39.34 -13.11,-71.848 -39.32,-97.528 -26.39,-25.863 -59.15,-38.793 -98.28,-38.793 -37.1,0 -67.74,11.043 -91.91,33.102 -23.82,22.051 -38.67,53.012 -44.58,92.871 l 65.34,14.399 c 2.95,-25.098 8.12,-42.461 15.5,-52.051 13.29,-18.449 32.67,-27.68 58.14,-27.68 20.12,0 36.82,6.731 50.11,20.191 13.29,13.461 19.93,30.52 19.93,51.18 0,8.301 -1.15,15.91 -3.46,22.828 -2.3,6.91 -5.9,13.282 -10.8,19.09 -4.88,5.813 -11.21,11.25 -18.96,16.32 -7.74,5.071 -16.98,9.911 -27.69,14.532 l -41.25,17.148 c -58.5,24.711 -87.75,60.871 -87.75,108.442 0,32.089 12.27,58.929 36.82,80.511 24.54,21.758 55.09,32.649 91.64,32.649 49.27,0 87.76,-23.91 115.45,-71.711"
         style="fill:#ffffff;fill-opacity:1;fill-rule:nonzero;stroke:none"
         id="path28" />
      <path
         d="M 4025.61,902.238 H 3854.24 V 799.531 h 166.39 v -60.64 H 3854.24 V 596.039 h 171.37 V 535.41 h -235.87 v 427.461 h 235.87 v -60.633"
         style="fill:#ffffff;fill-opacity:1;fill-rule:nonzero;stroke:none"
         id="path30" />
      <path
         d="m 4167.64,766.578 h 20.48 c 61.1,0 91.65,23.352 91.65,70.051 0,43.742 -29.72,65.609 -89.16,65.609 h -22.97 z m 80.29,-49.008 132.33,-182.16 h -78.9 l -122.09,174.969 h -11.63 V 535.41 h -64.51 v 427.461 h 75.58 c 56.49,0 97.27,-10.621 122.37,-31.84 27.69,-23.621 41.53,-54.812 41.53,-93.57 0,-30.281 -8.67,-56.301 -26.02,-78.082 -17.35,-21.777 -40.24,-35.707 -68.66,-41.809"
         style="fill:#ffffff;fill-opacity:1;fill-rule:nonzero;stroke:none"
         id="path32" />
      <path
         d="m 1162.37,1071.21 89.97,459.58 146.74,-332.23 151.99,332.23 80.84,-459.58 h -66.16 l -41.26,258.02 -126.52,-277.68 -122.92,277.96 -45.96,-258.3 h -66.72"
         style="fill:#ffffff;fill-opacity:1;fill-rule:nonzero;stroke:none"
         id="path34" />
      <path
         d="m 1950.85,1233.99 -61.18,140.09 -65.9,-140.09 z m 25.75,-60.62 h -181.62 l -46.79,-102.16 h -70.6 l 205.43,427.46 h 189.09 l 26.86,-60.64 H 1928.7 l 45.13,-103.54 h 165.56 l 27.13,-60.63 h -165.84 l 60.91,-142.03 h 170.82 l 26.03,-60.62 h -236.99 l -44.85,102.16"
         style="fill:#ffffff;fill-opacity:1;fill-rule:nonzero;stroke:none"
         id="path36" />
      <path
         d="m 2380.81,1498.67 v -366.84 h 125.69 v -60.62 h -190.2 v 427.46 h 64.51"
         style="fill:#ffffff;fill-opacity:1;fill-rule:nonzero;stroke:none"
         id="path38" />
      <path
         d="m 2644.79,1328.12 166.39,170.55 h 86.1 l -193.24,-193.53 194.36,-233.93 h -86.39 l -153.92,190.19 -13.3,-13.29 v -176.9 h -64.5 v 427.46 h 64.5 v -170.55"
         style="fill:#ffffff;fill-opacity:1;fill-rule:nonzero;stroke:none"
         id="path40" />
      <path
         d="m 3200.87,1438.03 h -171.38 v -102.71 h 166.39 v -60.63 h -166.39 v -142.86 h 171.38 v -60.62 h -235.89 v 427.46 h 235.89 v -60.64"
         style="fill:#ffffff;fill-opacity:1;fill-rule:nonzero;stroke:none"
         id="path42" />
      <path
         d="m 3714.71,1354.43 5.26,3.87 c 9.03,6.83 16.51,12.78 22.42,17.86 5.91,5.08 10.15,9.36 12.74,12.87 5.53,6.83 8.31,15.23 8.31,25.19 0,11.26 -3.79,20.4 -11.36,27.42 -7.57,7.01 -17.72,10.51 -30.45,10.51 -11.63,0 -21.42,-3.59 -29.35,-10.8 -7.93,-6.82 -11.9,-15.59 -11.9,-26.29 0,-12.55 4.98,-24.92 14.94,-37.1 l 16.07,-19.38 c 0.54,-0.93 1.66,-2.31 3.32,-4.15 z m -13.85,-81.68 -3.59,-2.49 c -26.4,-18.27 -44.4,-32.94 -53.99,-44.01 -9.41,-11.08 -14.12,-22.81 -14.12,-35.17 0,-17.71 7.1,-33.96 21.32,-48.73 14.76,-14.21 31,-21.31 48.73,-21.31 24.91,0 53.61,16.33 86.09,49 z m 51.22,36.27 76.97,-93.02 2.49,2.77 c 8.3,9.04 16.15,17.9 23.53,26.58 7.38,8.67 14.49,17.44 21.33,26.3 l 42.08,-43.2 c -5.18,-7.38 -11.96,-15.96 -20.36,-25.74 -8.39,-9.78 -18.4,-21.04 -30.03,-33.78 l 79.18,-97.72 h -80.3 l -42.62,52.32 c -39.14,-40.42 -79.84,-60.63 -122.1,-60.63 -37.84,0 -69.96,12.09 -96.35,36.27 -25.84,24.36 -38.76,54.44 -38.76,90.25 0,42.64 20.49,78.08 61.46,106.31 l 27.96,19.11 c 0.37,0.18 1.02,0.63 1.95,1.38 0.91,0.74 2.21,1.75 3.87,3.04 -28.24,30.09 -42.36,59.71 -42.36,88.87 0,28.8 9.41,52.24 28.24,70.32 19.2,18.09 43.93,27.14 74.2,27.14 29.35,0 53.61,-8.77 72.81,-26.31 19.19,-17.53 28.79,-39.67 28.79,-66.44 0,-18.46 -5.25,-35.16 -15.78,-50.11 -10.33,-14.95 -29.06,-32.85 -56.2,-53.71"
         style="fill:#ffffff;fill-opacity:1;fill-rule:nonzero;stroke:none"
         id="path44" />
      <path
         d="m 3260.8,1335.4 h 123.49 v -60.72 H 3260.8 v 60.72"
         style="fill:#ffffff;fill-opacity:1;fill-rule:nonzero;stroke:none"
         id="path46" />
      <path
         d="M 1874.27,3422.76 H 3226.4 v 154.09 H 1874.27 v -154.09"
         style="fill:#ffffff;fill-opacity:1;fill-rule:nonzero;stroke:none"
         id="path48" />
      <path
         d="m 3028.96,2251.85 h -140.07 c -31.63,0 -57.52,25.88 -57.52,57.52 v 675.83 c 0,31.63 25.89,57.52 57.52,57.52 h 140.07 c 31.65,0 57.52,-25.89 57.52,-57.52 v -675.83 c 0,-31.64 -25.87,-57.52 -57.52,-57.52 z M 2677.89,2590 c 0,-31.63 -25.89,-57.52 -57.52,-57.52 h -140.08 c -31.64,0 -57.52,25.89 -57.52,57.52 v 395.2 c 0,31.63 25.88,57.52 57.52,57.52 h 140.08 c 31.63,0 57.52,-25.89 57.52,-57.52 z m -408.6,-280.63 c 0,-31.64 -25.89,-57.52 -57.52,-57.52 h -140.08 c -31.64,0 -57.52,25.88 -57.52,57.52 v 675.83 c 0,31.63 25.88,57.52 57.52,57.52 h 140.08 c 31.63,0 57.52,-25.89 57.52,-57.52 z m 599.56,1062.37 c 0.24,-2.13 0.38,-4.3 0.38,-6.49 v -140.08 c 0,-31.64 -25.89,-57.52 -57.52,-57.52 h -522.76 c -31.64,0 -57.52,25.88 -57.52,57.52 v 140.08 c 0,2.19 0.14,4.36 0.38,6.49 H 1874.27 V 2046.15 H 3226.4 v 1325.59 h -357.55"
         style="fill:#ffffff;fill-opacity:1;fill-rule:nonzero;stroke:none"
         id="path50" />
      <path
         d="m 3277.41,2046.15 h 267.88 v 1530.7 h -267.88 v -1530.7"
         style="fill:#ffffff;fill-opacity:1;fill-rule:nonzero;stroke:none"
         id="path52" />
      <path
         d="m 1823.24,3576.85 h -267.87 v -1530.7 h 267.87 v 1530.7"
         style="fill:#ffffff;fill-opacity:1;fill-rule:nonzero;stroke:none"
         id="path54" />
    </g>
  </g>
</svg>
