<?xml version="1.0" encoding="UTF-8" standalone="no"?>
<!-- Created with Inkscape (http://www.inkscape.org/) -->

<svg
   version="1.1"
   id="svg2"
   width="680.32001"
   height="680.32001"
   viewBox="0 0 680.32001 680.32001"
   sodipodi:docname="MALING_rgb.icon.svg"
   inkscape:version="1.3.2 (091e20e, 2023-11-25, custom)"
   xmlns:inkscape="http://www.inkscape.org/namespaces/inkscape"
   xmlns:sodipodi="http://sodipodi.sourceforge.net/DTD/sodipodi-0.dtd"
   xmlns="http://www.w3.org/2000/svg"
   xmlns:svg="http://www.w3.org/2000/svg">
  <defs
     id="defs6" />
  <sodipodi:namedview
     id="namedview4"
     pagecolor="#ffffff"
     bordercolor="#000000"
     borderopacity="0.25"
     inkscape:showpageshadow="2"
     inkscape:pageopacity="0.0"
     inkscape:pagecheckerboard="0"
     inkscape:deskcolor="#d1d1d1"
     inkscape:zoom="1.6859713"
     inkscape:cx="340.16"
     inkscape:cy="340.16"
     inkscape:window-width="2560"
     inkscape:window-height="1361"
     inkscape:window-x="2551"
     inkscape:window-y="-9"
     inkscape:window-maximized="1"
     inkscape:current-layer="g8" />
  <g
     id="g8"
     inkscape:groupmode="layer"
     inkscape:label="ink_ext_XXXXXX"
     transform="matrix(1.3333333,0,0,-1.3333333,0,680.32)">
    <g
       id="g10"
       transform="scale(0.1)">
      <path
         d="M 5102.36,0 H 0 V 5102.36 H 5102.36 V 0"
         style="fill:#ea1d2c;fill-opacity:1;fill-rule:nonzero;stroke:none"
         id="path12" />
      <path
         d="m 3443.79,3401.77 c -10.35,-103.75 -406.06,-187.17 -892.7,-187.17 -61.13,0 -120.83,1.32 -178.52,3.83 0,-11.89 -0.01,-22.87 -0.02,-22.87 v -262.94 c 0,-28.17 -22.84,-51.02 -51.02,-51.02 -28.18,0 -51.03,22.85 -51.03,47.43 v 78.45 c -8.95,-4.17 -20.64,-12.49 -33.43,-12.49 -11.3,0 -21.74,3.68 -30.2,9.9 v -148.27 c 0,-28.18 -22.84,-51.02 -51.02,-51.02 v 0 c -9.28,0 -17.97,2.49 -25.47,6.81 l 0.11,-183.85 c 0.02,-42.27 -34.23,-76.56 -76.5,-76.58 -42.27,-0.02 -76.55,34.23 -76.57,76.5 l -0.07,119.66 c -10.31,-13.04 -24.46,-17.27 -38.5,-17.27 -15.62,0 -27.95,6.38 -38.12,16.68 v -323.09 c 0,-42.28 -34.27,-80.14 -76.54,-80.14 v 0 c -42.27,0 -76.53,37.86 -76.53,80.14 v 897.9 c -54.65,24.08 -86.42,50.98 -89.26,79.41 -0.13,1.39 -0.22,2.77 -0.22,4.16 0,105.68 399.77,191.34 892.91,191.34 493.15,0 892.91,-85.66 892.91,-191.34 0,-1.39 -0.07,-2.77 -0.21,-4.16 z m 250.4,-684.66 c -34.23,135.12 -102.32,291.28 -199.16,457.96 v 226.7 h -0.1 c 0.07,1.44 0.1,2.83 0.1,4.16 0,18.26 -5.6,45.88 -32.27,73.8 -15.95,16.72 -37.5,31.83 -65.87,46.2 -48.88,24.77 -117.43,46.7 -203.72,65.2 -172.06,36.87 -400.08,57.17 -642.08,57.17 -241.99,0 -470.02,-20.3 -642.07,-57.17 -86.3,-18.5 -154.84,-40.43 -203.73,-65.2 -28.36,-14.37 -49.91,-29.48 -65.87,-46.2 -26.67,-27.92 -32.26,-55.54 -32.26,-73.8 0,-1.33 0.03,-2.72 0.1,-4.16 h -0.1 v -1377.84 0 c 0,-17.93 5.59,-45.05 32.26,-72.47 15.96,-16.42 37.51,-31.25 65.87,-45.36 48.89,-24.32 117.43,-45.86 203.73,-64.02 172.05,-36.21 400.08,-56.14 642.07,-56.14 242,0 470.02,19.93 642.08,56.14 86.29,18.16 154.84,39.7 203.72,64.02 28.37,14.11 49.92,28.94 65.87,45.36 26.67,27.42 32.27,54.54 32.27,72.47 v 0 273.87 c -22.5,0.8 -46.11,4.42 -70.8,10.88 -84.1,22.03 -182.1,77.67 -291.25,165.38 -89.1,71.61 -184.93,163.76 -284.84,273.9 -156.3,172.34 -280.42,342.45 -325.01,415.71 9.31,-0.05 18.62,-0.09 27.96,-0.09 10.81,0 21.59,0.05 32.33,0.13 52.56,-79.68 166.01,-230.97 302.52,-381.47 98.1,-108.17 191.98,-198.47 279,-268.4 103.52,-83.19 195.11,-135.61 272.22,-155.8 20.48,-5.36 39.73,-8.44 57.87,-9.26 v 721.14 c 70.94,-132.78 122.51,-258 149.7,-365.34 20.77,-82.03 27.32,-152.11 19.46,-208.3 -7.58,-54.22 -28.59,-93.89 -62.46,-117.95 -28.02,-19.89 -60.09,-29.79 -97.03,-29.79 -3.18,0 -6.41,0.1 -9.67,0.24 v -50.98 c 3.17,-0.12 6.33,-0.18 9.45,-0.18 47.66,0.01 90.11,13.07 126.79,39.11 61.57,43.73 122.48,145.22 62.92,380.38"
         style="fill:#ffffff;fill-opacity:1;fill-rule:nonzero;stroke:none"
         id="path26" />
    </g>
  </g>
</svg>
