<?xml version="1.0" encoding="UTF-8" standalone="no"?>
<!-- Created with Inkscape (http://www.inkscape.org/) -->

<svg
   version="1.1"
   id="svg2"
   width="680.32001"
   height="680.32001"
   viewBox="0 0 680.32001 680.32001"
   sodipodi:docname="MEDICIN_rgb.eps"
   xmlns:inkscape="http://www.inkscape.org/namespaces/inkscape"
   xmlns:sodipodi="http://sodipodi.sourceforge.net/DTD/sodipodi-0.dtd"
   xmlns="http://www.w3.org/2000/svg"
   xmlns:svg="http://www.w3.org/2000/svg">
  <defs
     id="defs6" />
  <sodipodi:namedview
     id="namedview4"
     pagecolor="#ffffff"
     bordercolor="#000000"
     borderopacity="0.25"
     inkscape:showpageshadow="2"
     inkscape:pageopacity="0.0"
     inkscape:pagecheckerboard="0"
     inkscape:deskcolor="#d1d1d1" />
  <g
     id="g8"
     inkscape:groupmode="layer"
     inkscape:label="ink_ext_XXXXXX"
     transform="matrix(1.3333333,0,0,-1.3333333,0,680.32)">
    <g
       id="g10"
       transform="scale(0.1)">
      <path
         d="M 5102.36,0 H 0 V 5102.36 H 5102.36 V 0"
         style="fill:#ea1d2c;fill-opacity:1;fill-rule:nonzero;stroke:none"
         id="path12" />
      <path
         d="m 1395.14,532.34 89.98,459.582 146.73,-332.231 151.99,332.231 80.85,-459.582 h -66.17 L 1757.27,790.371 1630.74,512.68 1507.82,790.641 1461.86,532.34 h -66.72"
         style="fill:#ffffff;fill-opacity:1;fill-rule:nonzero;stroke:none"
         id="path14" />
      <path
         d="M 2165.88,899.18 H 1994.51 V 796.461 H 2160.9 V 735.828 H 1994.51 V 592.969 h 171.37 V 532.34 H 1930 v 427.461 h 235.88 V 899.18"
         style="fill:#ffffff;fill-opacity:1;fill-rule:nonzero;stroke:none"
         id="path16" />
      <path
         d="m 2300.7,592.969 h 29.07 c 28.98,0 53.06,3.043 72.26,9.14 19.19,6.45 36.54,16.7 52.05,30.731 31.74,28.969 47.61,66.719 47.61,113.23 0,46.891 -15.68,84.899 -47.06,114.059 -28.24,26.031 -69.86,39.051 -124.86,39.051 h -29.07 z m -64.51,-60.629 v 427.461 h 89.7 c 43.01,0 76.97,-4.25 101.89,-12.731 26.76,-8.3 51.03,-22.429 72.81,-42.359 44.11,-40.242 66.17,-93.121 66.17,-158.641 0,-65.711 -22.98,-118.871 -68.94,-159.468 -23.07,-20.301 -47.25,-34.43 -72.54,-42.364 -23.62,-7.929 -57.12,-11.898 -100.49,-11.898 h -88.6"
         style="fill:#ffffff;fill-opacity:1;fill-rule:nonzero;stroke:none"
         id="path18" />
      <path
         d="M 2706.98,959.801 V 532.34 h -64.51 v 427.461 h 64.51"
         style="fill:#ffffff;fill-opacity:1;fill-rule:nonzero;stroke:none"
         id="path20" />
      <path
         d="m 3114.78,936.82 v -76.398 c -37.29,31.18 -75.85,46.777 -115.73,46.777 -43.92,0 -80.93,-15.777 -111.01,-47.34 -30.28,-31.379 -45.41,-69.769 -45.41,-115.179 0,-44.84 15.13,-82.68 45.41,-113.5 30.26,-30.828 67.36,-46.239 111.3,-46.239 22.69,0 41.98,3.688 57.86,11.071 8.85,3.687 18.03,8.679 27.54,14.949 9.51,6.277 19.52,13.848 30.04,22.711 V 555.879 C 3077.86,535.02 3039.1,524.59 2998.5,524.59 c -61.1,0 -113.24,21.308 -156.42,63.949 -43.01,43 -64.51,94.859 -64.51,155.602 0,54.441 18,102.988 53.98,145.621 44.3,52.226 101.61,78.347 171.94,78.347 38.39,0 75.47,-10.429 111.29,-31.289"
         style="fill:#ffffff;fill-opacity:1;fill-rule:nonzero;stroke:none"
         id="path22" />
      <path
         d="M 3257.08,959.801 V 532.34 h -64.5 v 427.461 h 64.5"
         style="fill:#ffffff;fill-opacity:1;fill-rule:nonzero;stroke:none"
         id="path24" />
      <path
         d="m 3330.98,532.34 v 456.531 l 311.73,-326.133 v 297.063 h 64.52 V 506.309 L 3395.49,831.621 V 532.34 h -64.51"
         style="fill:#ffffff;fill-opacity:1;fill-rule:nonzero;stroke:none"
         id="path26" />
      <path
         d="m 2979.78,3775.79 h -857.2 V 3571.7 h 857.2 v 204.09"
         style="fill:#ffffff;fill-opacity:1;fill-rule:nonzero;stroke:none"
         id="path28" />
      <path
         d="m 2857.32,2500.2 h -204.09 v -204.09 h -204.09 v 204.09 h -204.1 v 204.1 h 204.1 v 204.09 h 204.09 V 2704.3 h 204.09 z m 69.38,1020.47 h -751.04 c -0.22,-209.5 -160.23,-125.06 -160.23,-473.21 v -707.03 -0.12 -443.62 c 0,-61.21 49.03,-110.81 109.52,-110.81 h 852.47 c 60.48,0 109.51,49.6 109.51,110.81 v 1150.77 c 0,348.15 -160.01,263.71 -160.23,473.21"
         style="fill:#ffffff;fill-opacity:1;fill-rule:nonzero;stroke:none"
         id="path30" />
    </g>
  </g>
</svg>
