<?xml version="1.0" encoding="UTF-8" standalone="no"?>
<!-- Created with Inkscape (http://www.inkscape.org/) -->

<svg
   version="1.1"
   id="svg2"
   width="680.32001"
   height="680.32001"
   viewBox="0 0 680.32001 680.32001"
   sodipodi:docname="MELLEMSTORT_ELEKTRONIK_rgb.eps"
   xmlns:inkscape="http://www.inkscape.org/namespaces/inkscape"
   xmlns:sodipodi="http://sodipodi.sourceforge.net/DTD/sodipodi-0.dtd"
   xmlns="http://www.w3.org/2000/svg"
   xmlns:svg="http://www.w3.org/2000/svg">
  <defs
     id="defs6" />
  <sodipodi:namedview
     id="namedview4"
     pagecolor="#ffffff"
     bordercolor="#000000"
     borderopacity="0.25"
     inkscape:showpageshadow="2"
     inkscape:pageopacity="0.0"
     inkscape:pagecheckerboard="0"
     inkscape:deskcolor="#d1d1d1" />
  <g
     id="g8"
     inkscape:groupmode="layer"
     inkscape:label="ink_ext_XXXXXX"
     transform="matrix(1.3333333,0,0,-1.3333333,0,680.32)">
    <g
       id="g10"
       transform="scale(0.1)">
      <path
         d="M 5102.36,0 0.00390625,0.0117188 V 5102.36 L 5102.36,5102.35 V 0"
         style="fill:#f28519;fill-opacity:1;fill-rule:nonzero;stroke:none"
         id="path12" />
      <path
         d="m 1118.03,897.551 -171.374,-0.481 0.285,-102.718 166.389,0.468 0.17,-60.629 -166.391,-0.461 0.395,-142.859 171.376,0.481 0.16,-60.641 -235.876,-0.652 -1.18,427.472 235.876,0.641 0.17,-60.621"
         style="fill:#ffffff;fill-opacity:1;fill-rule:nonzero;stroke:none"
         id="path14" />
      <path
         d="m 1254.12,958.551 1.02,-366.832 125.69,0.351 0.17,-60.629 -190.2,-0.531 -1.18,427.469 64.5,0.172"
         style="fill:#ffffff;fill-opacity:1;fill-rule:nonzero;stroke:none"
         id="path16" />
      <path
         d="m 1690.01,899.129 -171.37,-0.481 0.28,-102.699 166.39,0.461 0.17,-60.64 -166.39,-0.461 0.39,-142.86 171.38,0.481 0.17,-60.641 -235.89,-0.648 -1.18,427.468 235.89,0.653 0.16,-60.633"
         style="fill:#ffffff;fill-opacity:1;fill-rule:nonzero;stroke:none"
         id="path18" />
      <path
         d="m 1829.82,789.602 165.92,171 86.1,0.238 -192.71,-194.051 195,-233.41 -86.38,-0.238 -154.46,189.781 -13.25,-13.332 0.49,-176.899 -64.51,-0.191 -1.18,427.469 64.51,0.179 0.47,-170.546"
         style="fill:#ffffff;fill-opacity:1;fill-rule:nonzero;stroke:none"
         id="path20" />
      <path
         d="m 2291.62,900.789 1.01,-366.828 -64.5,-0.18 -1.02,366.828 -98.28,-0.269 -0.17,60.64 260.8,0.719 0.17,-60.64 -98.01,-0.27"
         style="fill:#ffffff;fill-opacity:1;fill-rule:nonzero;stroke:none"
         id="path22" />
      <path
         d="m 2526.67,765.781 20.49,0.059 c 61.09,0.172 91.58,23.601 91.45,70.301 -0.13,43.738 -29.9,65.531 -89.33,65.359 l -22.98,-0.059 z M 2607.1,717 l 132.84,-181.809 -78.91,-0.211 -122.58,174.641 -11.62,-0.043 0.48,-174.969 -64.51,-0.179 -1.18,427.461 75.58,0.218 c 56.48,0.153 97.3,-10.347 122.46,-31.507 27.75,-23.551 41.68,-54.704 41.79,-93.461 0.08,-30.27 -8.52,-56.321 -25.81,-78.153 C 2658.35,737.172 2635.5,723.172 2607.1,717"
         style="fill:#ffffff;fill-opacity:1;fill-rule:nonzero;stroke:none"
         id="path24" />
      <path
         d="m 2824.66,750.41 c 0.13,-47.211 16.12,-85.988 47.94,-116.32 31.65,-30.34 68.14,-45.461 109.49,-45.34 44.85,0.129 82.64,15.719 113.39,46.789 30.73,31.422 46.03,69.652 45.91,114.652 -0.12,45.528 -15.46,83.668 -46,114.379 -30.35,30.899 -67.86,46.289 -112.53,46.16 -44.48,-0.121 -82,-15.71 -112.55,-46.781 -30.56,-30.699 -45.77,-68.539 -45.65,-113.539 z m -65.06,0.52 c -0.17,60.16 21.74,111.898 65.74,155.211 43.81,43.308 96.53,65.058 158.18,65.23 60.91,0.16 113.21,-21.473 156.89,-64.91 43.85,-43.43 65.88,-95.699 66.04,-156.789 0.17,-61.473 -21.65,-113.66 -65.46,-156.602 -43.99,-43.14 -97.18,-64.781 -159.56,-64.961 -55.19,-0.148 -104.8,18.813 -148.84,56.903 -48.47,42.129 -72.8,97.437 -72.99,165.918"
         style="fill:#ffffff;fill-opacity:1;fill-rule:nonzero;stroke:none"
         id="path26" />
      <path
         d="m 3283.3,536.699 -1.26,456.531 312.63,-325.269 -0.82,297.07 64.51,0.168 1.26,-453.48 -312.64,324.441 0.83,-299.289 -64.51,-0.172"
         style="fill:#ffffff;fill-opacity:1;fill-rule:nonzero;stroke:none"
         id="path28" />
      <path
         d="m 3812.34,965.629 1.19,-427.469 -64.51,-0.172 -1.18,427.461 64.5,0.18"
         style="fill:#ffffff;fill-opacity:1;fill-rule:nonzero;stroke:none"
         id="path30" />
      <path
         d="m 3968.7,795.52 165.92,171 86.1,0.242 -192.72,-194.063 195,-233.398 -86.37,-0.242 -154.46,189.781 -13.25,-13.328 0.49,-176.91 -64.51,-0.18 -1.18,427.469 64.51,0.168 0.47,-170.539"
         style="fill:#ffffff;fill-opacity:1;fill-rule:nonzero;stroke:none"
         id="path32" />
      <path
         d="m 604.949,1073.26 89.981,459.58 146.726,-332.23 151.996,332.23 80.838,-459.58 h -66.16 l -41.252,258.03 -126.523,-277.69 -122.926,277.96 -45.957,-258.3 h -66.723"
         style="fill:#ffffff;fill-opacity:1;fill-rule:nonzero;stroke:none"
         id="path34" />
      <path
         d="m 1377.49,1440.09 h -171.37 v -102.72 h 166.39 v -60.62 h -166.39 v -142.86 h 171.37 v -60.63 h -235.88 v 427.46 h 235.88 v -60.63"
         style="fill:#ffffff;fill-opacity:1;fill-rule:nonzero;stroke:none"
         id="path36" />
      <path
         d="m 1513.62,1500.72 v -366.83 h 125.69 v -60.63 h -190.2 v 427.46 h 64.51"
         style="fill:#ffffff;fill-opacity:1;fill-rule:nonzero;stroke:none"
         id="path38" />
      <path
         d="m 1773.07,1500.72 v -366.83 h 125.69 v -60.63 h -190.2 v 427.46 h 64.51"
         style="fill:#ffffff;fill-opacity:1;fill-rule:nonzero;stroke:none"
         id="path40" />
      <path
         d="m 2209.87,1440.09 h -171.38 v -102.72 h 166.39 v -60.62 h -166.39 v -142.86 h 171.38 v -60.63 h -235.88 v 427.46 h 235.88 v -60.63"
         style="fill:#ffffff;fill-opacity:1;fill-rule:nonzero;stroke:none"
         id="path42" />
      <path
         d="m 2281.44,1073.26 89.97,459.58 146.74,-332.23 151.99,332.23 80.84,-459.58 h -66.17 l -41.25,258.03 -126.52,-277.69 -122.93,277.96 -45.95,-258.3 h -66.72"
         style="fill:#ffffff;fill-opacity:1;fill-rule:nonzero;stroke:none"
         id="path44" />
      <path
         d="m 3061.6,1437.04 -52.33,-31.01 c -9.78,16.99 -19.11,28.06 -27.96,33.23 -9.23,5.91 -21.14,8.85 -35.72,8.85 -17.9,0 -32.76,-5.07 -44.57,-15.22 -11.81,-9.96 -17.72,-22.52 -17.72,-37.65 0,-20.86 15.51,-37.65 46.51,-50.39 l 42.64,-17.44 c 34.7,-14.03 60.08,-31.14 76.13,-51.36 16.07,-20.21 24.09,-44.99 24.09,-74.33 0,-39.32 -13.11,-71.8 -39.31,-97.45 -26.4,-25.84 -59.16,-38.76 -98.28,-38.76 -37.1,0 -67.75,10.97 -91.92,32.94 -23.82,21.96 -38.67,52.88 -44.58,92.75 l 65.34,14.4 c 2.95,-25.11 8.12,-42.46 15.5,-52.06 13.29,-18.45 32.68,-27.68 58.15,-27.68 20.11,0 36.81,6.74 50.1,20.21 13.29,13.47 19.93,30.55 19.93,51.21 0,8.32 -1.15,15.93 -3.45,22.85 -2.31,6.92 -5.91,13.29 -10.8,19.1 -4.9,5.82 -11.21,11.26 -18.97,16.34 -7.74,5.07 -16.98,9.92 -27.68,14.53 l -41.25,17.17 c -58.51,24.73 -87.77,60.9 -87.77,108.52 0,32.12 12.28,58.98 36.83,80.57 24.54,21.77 55.1,32.67 91.64,32.67 49.28,0 87.76,-24 115.45,-71.99"
         style="fill:#ffffff;fill-opacity:1;fill-rule:nonzero;stroke:none"
         id="path46" />
      <path
         d="m 3290.85,1440.09 v -366.83 h -64.52 v 366.83 h -98.28 v 60.63 h 260.8 v -60.63 h -98"
         style="fill:#ffffff;fill-opacity:1;fill-rule:nonzero;stroke:none"
         id="path48" />
      <path
         d="m 3482.02,1288.1 c 0,-47.25 15.87,-86.11 47.62,-116.56 31.56,-30.46 68,-45.68 109.35,-45.68 44.85,0 82.69,15.51 113.52,46.51 30.82,31.38 46.23,69.58 46.23,114.62 0,45.59 -15.23,83.79 -45.68,114.62 -30.27,31.01 -67.74,46.5 -112.4,46.5 -44.49,0 -82.05,-15.49 -112.68,-46.5 -30.64,-30.64 -45.96,-68.48 -45.96,-113.51 z m -65.06,0.83 c 0,60.17 22.05,111.85 66.16,155.03 43.93,43.2 96.72,64.79 158.36,64.79 60.91,0 113.15,-21.78 156.71,-65.33 43.74,-43.57 65.62,-95.89 65.62,-156.98 0,-61.47 -21.98,-113.61 -65.9,-156.43 -44.11,-43.01 -97.36,-64.5 -159.75,-64.5 -55.18,0 -104.75,19.1 -148.67,57.3 -48.36,42.27 -72.53,97.64 -72.53,166.12"
         style="fill:#ffffff;fill-opacity:1;fill-rule:nonzero;stroke:none"
         id="path50" />
      <path
         d="m 4000.43,1304.43 h 20.48 c 61.09,0 91.64,23.35 91.64,70.04 0,43.75 -29.72,65.62 -89.14,65.62 h -22.98 z m 80.28,-49 132.33,-182.17 h -78.89 l -122.1,174.97 h -11.62 v -174.97 h -64.52 v 427.46 h 75.59 c 56.48,0 97.27,-10.61 122.36,-31.83 27.69,-23.64 41.54,-54.83 41.54,-93.59 0,-30.26 -8.68,-56.29 -26.03,-78.06 -17.35,-21.79 -40.24,-35.72 -68.66,-41.81"
         style="fill:#ffffff;fill-opacity:1;fill-rule:nonzero;stroke:none"
         id="path52" />
      <path
         d="m 4399.24,1440.09 v -366.83 h -64.51 v 366.83 h -98.28 v 60.63 h 260.79 v -60.63 h -98"
         style="fill:#ffffff;fill-opacity:1;fill-rule:nonzero;stroke:none"
         id="path54" />
      <path
         d="m 3368.04,2321.68 c 0,44.75 8.78,88.18 26.09,129.1 16.71,39.5 40.61,74.97 71.05,105.41 30.44,30.44 65.91,54.35 105.4,71.06 40.93,17.3 84.37,26.08 129.11,26.08 44.76,0 88.2,-8.78 129.12,-26.08 37.4,-15.82 71.17,-38.11 100.49,-66.27 v 120.89 c 0,123.83 -90.12,175.55 -314.89,175.55 h -54.01 c -325.74,0 -597.61,-99.87 -774.88,-219 -12.64,12.72 -25.44,25.29 -38,37.61 -96.72,94.91 -196.73,193.04 -249.12,377.49 -61.85,217.79 -46.08,520.3 48.21,924.82 l 0.31,1.32 39.04,219.76 0.11,0.62 c 16,96.93 -4.22,190.1 -56.89,262.36 -49.91,68.44 -125.4,113.25 -212.6,126.19 -88.06,13.07 -176.35,-9.38 -248.59,-63.19 -71.25,-53.08 -121.09,-132.53 -140.32,-223.71 l -0.12,-0.58 -385.48,-2062.7 -327.25,-49.39 c -44.11,-6.88 -65.51,-10.18 -72.59,-45.01 l -20.36,-102.58 901.28,-0.39 17.56,94.79 c 6.68,40.64 -6.7,47.19 -45.35,53.86 l -349.71,47.45 381.98,2044.03 c 29.09,136.6 146.79,225.34 273.98,206.47 59.92,-8.89 111.45,-39.2 145.11,-85.36 36.38,-49.9 50.13,-115.72 38.71,-185.34 l -38.51,-216.75 c -51.52,-221.32 -80.58,-417.62 -86.35,-583.5 -5.26,-150.65 7.72,-278.57 39.67,-391.05 59.77,-210.46 174.54,-323.09 275.8,-422.45 9.33,-9.15 18.43,-18.08 27.34,-26.94 -90.47,-77.57 -140.79,-157.33 -140.79,-219.24 0,-216.45 238.13,-264.94 438.39,-264.94 104.25,0 278.63,0 459.41,0 -28.17,29.33 -50.44,63.1 -66.26,100.5 -17.31,40.92 -26.09,84.35 -26.09,129.11"
         style="fill:#ffffff;fill-opacity:1;fill-rule:nonzero;stroke:none"
         id="path56" />
      <path
         d="m 3929.3,2483.05 c -50.79,72.13 -134.68,119.25 -229.61,119.25 -154.98,0 -280.62,-125.64 -280.62,-280.62 0,-94.92 47.13,-178.83 119.26,-229.61 45.64,-32.14 101.3,-51.03 161.36,-51.03 154.99,0 280.64,125.65 280.64,280.64 0,60.07 -18.89,115.72 -51.03,161.37"
         style="fill:#ffffff;fill-opacity:1;fill-rule:nonzero;stroke:none"
         id="path58" />
    </g>
  </g>
</svg>
