<?xml version="1.0" encoding="UTF-8" standalone="no"?>
<!-- Created with Inkscape (http://www.inkscape.org/) -->

<svg
   version="1.1"
   id="svg2"
   width="680.32001"
   height="680.32001"
   viewBox="0 0 680.32001 680.32001"
   sodipodi:docname="MELLEMSTORT_ELEKTRONIK_rgb.icon.svg"
   inkscape:version="1.3.2 (091e20e, 2023-11-25, custom)"
   xmlns:inkscape="http://www.inkscape.org/namespaces/inkscape"
   xmlns:sodipodi="http://sodipodi.sourceforge.net/DTD/sodipodi-0.dtd"
   xmlns="http://www.w3.org/2000/svg"
   xmlns:svg="http://www.w3.org/2000/svg">
  <defs
     id="defs6" />
  <sodipodi:namedview
     id="namedview4"
     pagecolor="#ffffff"
     bordercolor="#000000"
     borderopacity="0.25"
     inkscape:showpageshadow="2"
     inkscape:pageopacity="0.0"
     inkscape:pagecheckerboard="0"
     inkscape:deskcolor="#d1d1d1"
     inkscape:zoom="1.6859713"
     inkscape:cx="340.16"
     inkscape:cy="340.16"
     inkscape:window-width="2560"
     inkscape:window-height="1361"
     inkscape:window-x="2551"
     inkscape:window-y="-9"
     inkscape:window-maximized="1"
     inkscape:current-layer="g8" />
  <g
     id="g8"
     inkscape:groupmode="layer"
     inkscape:label="ink_ext_XXXXXX"
     transform="matrix(1.3333333,0,0,-1.3333333,0,680.32)">
    <g
       id="g10"
       transform="scale(0.1)">
      <path
         d="M 5102.36,0 0.00390625,0.0117188 V 5102.36 L 5102.36,5102.35 V 0"
         style="fill:#f28519;fill-opacity:1;fill-rule:nonzero;stroke:none"
         id="path12" />
      <path
         d="m 3368.04,2321.68 c 0,44.75 8.78,88.18 26.09,129.1 16.71,39.5 40.61,74.97 71.05,105.41 30.44,30.44 65.91,54.35 105.4,71.06 40.93,17.3 84.37,26.08 129.11,26.08 44.76,0 88.2,-8.78 129.12,-26.08 37.4,-15.82 71.17,-38.11 100.49,-66.27 v 120.89 c 0,123.83 -90.12,175.55 -314.89,175.55 h -54.01 c -325.74,0 -597.61,-99.87 -774.88,-219 -12.64,12.72 -25.44,25.29 -38,37.61 -96.72,94.91 -196.73,193.04 -249.12,377.49 -61.85,217.79 -46.08,520.3 48.21,924.82 l 0.31,1.32 39.04,219.76 0.11,0.62 c 16,96.93 -4.22,190.1 -56.89,262.36 -49.91,68.44 -125.4,113.25 -212.6,126.19 -88.06,13.07 -176.35,-9.38 -248.59,-63.19 -71.25,-53.08 -121.09,-132.53 -140.32,-223.71 l -0.12,-0.58 -385.48,-2062.7 -327.25,-49.39 c -44.11,-6.88 -65.51,-10.18 -72.59,-45.01 l -20.36,-102.58 901.28,-0.39 17.56,94.79 c 6.68,40.64 -6.7,47.19 -45.35,53.86 l -349.71,47.45 381.98,2044.03 c 29.09,136.6 146.79,225.34 273.98,206.47 59.92,-8.89 111.45,-39.2 145.11,-85.36 36.38,-49.9 50.13,-115.72 38.71,-185.34 l -38.51,-216.75 c -51.52,-221.32 -80.58,-417.62 -86.35,-583.5 -5.26,-150.65 7.72,-278.57 39.67,-391.05 59.77,-210.46 174.54,-323.09 275.8,-422.45 9.33,-9.15 18.43,-18.08 27.34,-26.94 -90.47,-77.57 -140.79,-157.33 -140.79,-219.24 0,-216.45 238.13,-264.94 438.39,-264.94 104.25,0 278.63,0 459.41,0 -28.17,29.33 -50.44,63.1 -66.26,100.5 -17.31,40.92 -26.09,84.35 -26.09,129.11"
         style="fill:#ffffff;fill-opacity:1;fill-rule:nonzero;stroke:none"
         id="path56" />
      <path
         d="m 3929.3,2483.05 c -50.79,72.13 -134.68,119.25 -229.61,119.25 -154.98,0 -280.62,-125.64 -280.62,-280.62 0,-94.92 47.13,-178.83 119.26,-229.61 45.64,-32.14 101.3,-51.03 161.36,-51.03 154.99,0 280.64,125.65 280.64,280.64 0,60.07 -18.89,115.72 -51.03,161.37"
         style="fill:#ffffff;fill-opacity:1;fill-rule:nonzero;stroke:none"
         id="path58" />
    </g>
  </g>
</svg>
