<?xml version="1.0" encoding="UTF-8" standalone="no"?>
<!-- Created with Inkscape (http://www.inkscape.org/) -->

<svg
   version="1.1"
   id="svg2"
   width="680.32001"
   height="680.32001"
   viewBox="0 0 680.32001 680.32001"
   sodipodi:docname="METAL_2_rgb.icon.svg"
   inkscape:version="1.3.2 (091e20e, 2023-11-25, custom)"
   xmlns:inkscape="http://www.inkscape.org/namespaces/inkscape"
   xmlns:sodipodi="http://sodipodi.sourceforge.net/DTD/sodipodi-0.dtd"
   xmlns="http://www.w3.org/2000/svg"
   xmlns:svg="http://www.w3.org/2000/svg">
  <defs
     id="defs6" />
  <sodipodi:namedview
     id="namedview4"
     pagecolor="#ffffff"
     bordercolor="#000000"
     borderopacity="0.25"
     inkscape:showpageshadow="2"
     inkscape:pageopacity="0.0"
     inkscape:pagecheckerboard="0"
     inkscape:deskcolor="#d1d1d1"
     inkscape:zoom="1.6859713"
     inkscape:cx="340.16"
     inkscape:cy="340.16"
     inkscape:window-width="2560"
     inkscape:window-height="1361"
     inkscape:window-x="2551"
     inkscape:window-y="-9"
     inkscape:window-maximized="1"
     inkscape:current-layer="g8" />
  <g
     id="g8"
     inkscape:groupmode="layer"
     inkscape:label="ink_ext_XXXXXX"
     transform="matrix(1.3333333,0,0,-1.3333333,0,680.32)">
    <g
       id="g10"
       transform="scale(0.1)">
      <path
         d="M 5102.36,0 H 0 V 5102.36 H 5102.36 V 0"
         style="fill:#4f6570;fill-opacity:1;fill-rule:nonzero;stroke:none"
         id="path12" />
      <path
         d="m 2230.46,2170.56 c 309.64,0 600.43,35.91 818.8,101.12 12.48,3.72 24.63,7.52 36.45,11.39 -10.94,33.59 -77.59,79.79 -237.91,119.03 -164.6,40.27 -383.84,62.46 -617.34,62.46 -233.49,0 -452.73,-22.19 -617.34,-62.46 -160.31,-39.24 -226.96,-85.44 -237.91,-119.03 11.83,-3.87 23.98,-7.67 36.46,-11.39 218.37,-65.21 509.16,-101.12 818.79,-101.12"
         style="fill:#ffffff;fill-opacity:1;fill-rule:nonzero;stroke:none"
         id="path24" />
      <path
         d="m 3053.11,2221.48 c -221.57,-66.18 -515.33,-102.77 -827.67,-103.16 -312.35,0.39 -606.11,36.98 -827.68,103.16 -109.78,32.77 -196.36,71.23 -257.34,114.27 -14.61,10.32 -27.66,20.85 -39.16,31.58 0,0 1.17,-4.19 3.36,-11.81 7.68,-26.68 27.92,-95.52 54.52,-174.22 67.81,-200.56 281.61,-268.4 338.65,-288.19 70.52,-24.47 148.8,-44.8 234.35,-60.71 96.96,-18.03 203.28,-30.38 318.31,-36.63 55.43,-3.12 112.18,-4.75 169.96,-4.75 1.68,0 3.34,0.02 5.03,0.02 1.68,0 3.34,-0.02 5.02,-0.02 57.78,0 114.53,1.63 169.96,4.75 115.03,6.25 221.36,18.6 318.31,36.63 85.56,15.91 163.84,36.24 234.35,60.71 57.05,19.79 270.84,87.63 338.65,288.19 26.61,78.7 46.84,147.54 54.52,174.22 2.19,7.62 3.36,11.81 3.36,11.81 -11.5,-10.73 -24.55,-21.26 -39.16,-31.58 -60.98,-43.04 -147.56,-81.5 -257.34,-114.27"
         style="fill:#ffffff;fill-opacity:1;fill-rule:nonzero;stroke:none"
         id="path26" />
      <path
         d="m 3960.84,3528.05 c -17.12,-16.53 -62.28,-62.89 -80.1,-80.1 -4.48,-4.33 -9.48,-8.13 -14.81,-11.41 -25.85,-15.88 -59.75,-19.1 -82.67,-6.2 -16.28,9.16 -23.33,24.37 -21.05,40.52 1.59,11.27 7.7,22.99 18.41,33.45 18.46,18.02 62.61,63.02 80.11,80.1 28.57,27.9 69.82,33.17 97.47,17.61 27.65,-15.56 28.83,-48.68 2.64,-73.97 z m 80.91,111.83 c -6.01,5.53 -12.97,10.4 -20.89,14.44 -63.75,32.49 -150.67,35.56 -225.81,-33.01 l -127.32,-121.55 -667.97,-625.18 c -15.52,-16.83 -27.17,-28.48 -40.11,-53.06 l -41.6,-78.47 c -191.24,47.48 -429.4,75.64 -687.59,75.64 -603.01,0 -1096.8,-153.6 -1138.66,-348.21 10.01,-29.41 35.66,-58.84 76.68,-87.79 40.8,-28.81 94.67,-55.62 160.73,-80.04 9.62,28.51 35.43,55.06 77.1,79.17 46.39,26.83 112.08,50.77 195.26,71.12 168.27,41.18 391.62,63.86 628.89,63.86 237.28,0 460.62,-22.68 628.9,-63.86 83.18,-20.35 148.87,-44.29 195.26,-71.12 41.67,-24.11 67.48,-50.66 77.1,-79.17 66.06,24.42 119.93,51.23 160.73,80.04 41.01,28.95 66.67,58.38 76.68,87.79 -14.03,65.24 -78.87,125.87 -181.58,177.66 l 47.75,84.08 c 2.71,4.4 19.42,24.59 32.89,38.5 l 761.41,715.98 c 12.09,11.8 20.99,24.38 27.89,37.12 21.26,37.78 16.61,86.32 -15.74,116.06"
         style="fill:#ffffff;fill-opacity:1;fill-rule:nonzero;stroke:none"
         id="path28" />
    </g>
  </g>
</svg>
