<?xml version="1.0" encoding="UTF-8" standalone="no"?>
<!-- Created with Inkscape (http://www.inkscape.org/) -->

<svg
   version="1.1"
   id="svg2"
   width="680.32001"
   height="680.32001"
   viewBox="0 0 680.32001 680.32001"
   sodipodi:docname="MINERALULD_rgb.eps"
   xmlns:inkscape="http://www.inkscape.org/namespaces/inkscape"
   xmlns:sodipodi="http://sodipodi.sourceforge.net/DTD/sodipodi-0.dtd"
   xmlns="http://www.w3.org/2000/svg"
   xmlns:svg="http://www.w3.org/2000/svg">
  <defs
     id="defs6" />
  <sodipodi:namedview
     id="namedview4"
     pagecolor="#ffffff"
     bordercolor="#000000"
     borderopacity="0.25"
     inkscape:showpageshadow="2"
     inkscape:pageopacity="0.0"
     inkscape:pagecheckerboard="0"
     inkscape:deskcolor="#d1d1d1" />
  <g
     id="g8"
     inkscape:groupmode="layer"
     inkscape:label="ink_ext_XXXXXX"
     transform="matrix(1.3333333,0,0,-1.3333333,0,680.32)">
    <g
       id="g10"
       transform="scale(0.1)">
      <path
         d="M 5102.36,0 H 0 V 5102.36 H 5102.36 V 0"
         style="fill:#21508b;fill-opacity:1;fill-rule:nonzero;stroke:none"
         id="path12" />
      <path
         d="m 792.625,533.949 89.977,459.582 146.738,-332.222 151.99,332.222 80.84,-459.582 H 1196 L 1154.75,791.98 1028.23,514.301 905.305,792.262 859.348,533.949 h -66.723"
         style="fill:#ffffff;fill-opacity:1;fill-rule:nonzero;stroke:none"
         id="path14" />
      <path
         d="M 1402.81,961.422 V 533.949 h -64.51 v 427.473 h 64.51"
         style="fill:#ffffff;fill-opacity:1;fill-rule:nonzero;stroke:none"
         id="path16" />
      <path
         d="m 1491.12,533.949 v 456.539 l 311.74,-326.136 v 297.07 h 64.51 V 507.93 l -311.74,325.3 V 533.949 h -64.51"
         style="fill:#ffffff;fill-opacity:1;fill-rule:nonzero;stroke:none"
         id="path18" />
      <path
         d="M 2189.48,900.789 H 2018.11 V 798.07 H 2184.5 V 737.441 H 2018.11 V 594.59 h 171.37 V 533.949 H 1953.6 v 427.473 h 235.88 v -60.633"
         style="fill:#ffffff;fill-opacity:1;fill-rule:nonzero;stroke:none"
         id="path20" />
      <path
         d="m 2335.11,765.129 h 20.49 c 61.09,0 91.64,23.34 91.64,70.043 0,43.75 -29.72,65.617 -89.15,65.617 h -22.98 z m 80.29,-49.008 132.33,-182.172 h -78.9 L 2346.74,708.93 h -11.63 V 533.949 h -64.51 v 427.473 h 75.58 c 56.48,0 97.27,-10.621 122.37,-31.844 27.69,-23.629 41.53,-54.816 41.53,-93.578 0,-30.27 -8.68,-56.289 -26.02,-78.07 -17.35,-21.782 -40.24,-35.711 -68.66,-41.809"
         style="fill:#ffffff;fill-opacity:1;fill-rule:nonzero;stroke:none"
         id="path22" />
      <path
         d="m 2861.97,698.41 -63.4,145.34 -66.44,-145.34 z m 26.3,-60.64 h -183 l -47.62,-103.821 h -69.49 l 211.52,454.321 204.04,-454.321 h -70.6 l -44.85,103.821"
         style="fill:#ffffff;fill-opacity:1;fill-rule:nonzero;stroke:none"
         id="path24" />
      <path
         d="M 3124.12,961.422 V 594.59 h 125.69 v -60.641 h -190.19 v 427.473 h 64.5"
         style="fill:#ffffff;fill-opacity:1;fill-rule:nonzero;stroke:none"
         id="path26" />
      <path
         d="M 3366.1,961.422 V 704.129 c 0,-36.699 5.99,-63.539 17.99,-80.5 17.9,-24.527 43.1,-36.801 75.58,-36.801 32.67,0 57.96,12.274 75.86,36.801 12,16.41 18,43.25 18,80.5 v 257.293 h 64.5 V 686.219 c 0,-45.028 -14.02,-82.129 -42.08,-111.289 -31.56,-32.489 -70.32,-48.731 -116.28,-48.731 -45.95,0 -84.62,16.242 -116,48.731 -28.06,29.16 -42.08,66.261 -42.08,111.289 v 275.203 h 64.51"
         style="fill:#ffffff;fill-opacity:1;fill-rule:nonzero;stroke:none"
         id="path28" />
      <path
         d="M 3770.58,961.422 V 594.59 h 125.69 v -60.641 h -190.2 v 427.473 h 64.51"
         style="fill:#ffffff;fill-opacity:1;fill-rule:nonzero;stroke:none"
         id="path30" />
      <path
         d="m 4039.96,594.59 h 29.07 c 28.98,0 53.06,3.039 72.26,9.129 19.2,6.461 36.55,16.703 52.05,30.73 31.74,28.981 47.62,66.723 47.62,113.242 0,46.879 -15.69,84.899 -47.06,114.059 -28.24,26.02 -69.87,39.039 -124.87,39.039 h -29.07 z m -64.5,-60.641 v 427.473 h 89.7 c 43,0 76.96,-4.25 101.88,-12.742 26.76,-8.301 51.03,-22.418 72.81,-42.36 44.11,-40.23 66.17,-93.109 66.17,-158.629 0,-65.711 -22.98,-118.871 -68.93,-159.472 -23.08,-20.309 -47.26,-34.43 -72.54,-42.36 -23.63,-7.937 -57.13,-11.91 -100.5,-11.91 h -88.59"
         style="fill:#ffffff;fill-opacity:1;fill-rule:nonzero;stroke:none"
         id="path32" />
      <path
         d="m 3344.42,1783.79 h -217.91 v 2296.06 h 217.91 V 1783.79"
         style="fill:#ffffff;fill-opacity:1;fill-rule:nonzero;stroke:none"
         id="path34" />
      <path
         d="m 1980.59,1783.79 h -217.9 v 2296.06 h 217.9 V 1783.79"
         style="fill:#ffffff;fill-opacity:1;fill-rule:nonzero;stroke:none"
         id="path36" />
      <path
         d="m 2370.73,3926.78 h 591.01 v 102.05 h -591.89 v -0.01 c -123.87,-0.48 -224.49,-101.38 -224.49,-225.36 0,-124.26 101.1,-225.36 225.37,-225.36 v 0.02 h 365.82 c 67.92,-0.09 123.14,-55.37 123.14,-123.31 0,-67.76 -54.93,-122.92 -122.61,-123.3 h -366.35 v 0.01 c -124.27,0 -225.37,-101.1 -225.37,-225.37 0,-124.27 101.1,-225.37 225.37,-225.37 v 0.02 h 366.18 c 67.75,-0.29 122.78,-55.49 122.78,-123.31 0,-67.87 -55.12,-123.11 -122.95,-123.31 h -366.01 v 0.02 c -124.27,0 -225.37,-101.1 -225.37,-225.36 0,-124.27 101.1,-225.37 225.37,-225.37 v 0.01 h 366.54 v 0 c 67.59,-0.49 122.42,-55.6 122.42,-123.3 0,-68 -55.32,-123.32 -123.32,-123.32 h -591.01 v -102.05 h 592.47 v 0.02 c 123.6,0.79 223.91,101.57 223.91,225.35 0,124.27 -101.1,225.37 -225.37,225.37 v -0.03 h -365.82 c -67.91,0.1 -123.14,55.38 -123.14,123.32 0,67.92 55.2,123.19 123.09,123.31 v -0.01 h 365.87 v -0.01 c 0.25,0 0.49,0.01 0.73,0.01 h 0.17 v 0 c 123.86,0.49 224.47,101.39 224.47,225.35 0,124.27 -101.1,225.37 -225.37,225.37 v -0.01 H 2370.5 v -0.01 c -67.89,0.12 -123.09,55.39 -123.09,123.31 0,67.92 55.2,123.19 123.09,123.31 v 0 h 365.87 v -0.02 c 124.27,0 225.37,101.1 225.37,225.37 0,123.96 -100.61,224.86 -224.47,225.35 v 0.01 h -0.55 c -0.12,0 -0.23,0 -0.35,0 v 0 H 2370.5 v -0.02 c -67.89,0.12 -123.09,55.39 -123.09,123.31 0,68 55.32,123.32 123.32,123.32"
         style="fill:#ffffff;fill-opacity:1;fill-rule:nonzero;stroke:none"
         id="path38" />
    </g>
  </g>
</svg>
