<?xml version="1.0" encoding="UTF-8" standalone="no"?>
<!-- Created with Inkscape (http://www.inkscape.org/) -->

<svg
   version="1.1"
   id="svg2"
   width="680.32001"
   height="680.32001"
   viewBox="0 0 680.32001 680.32001"
   sodipodi:docname="MINERALULD_rgb.icon.svg"
   inkscape:version="1.3.2 (091e20e, 2023-11-25, custom)"
   xmlns:inkscape="http://www.inkscape.org/namespaces/inkscape"
   xmlns:sodipodi="http://sodipodi.sourceforge.net/DTD/sodipodi-0.dtd"
   xmlns="http://www.w3.org/2000/svg"
   xmlns:svg="http://www.w3.org/2000/svg">
  <defs
     id="defs6" />
  <sodipodi:namedview
     id="namedview4"
     pagecolor="#ffffff"
     bordercolor="#000000"
     borderopacity="0.25"
     inkscape:showpageshadow="2"
     inkscape:pageopacity="0.0"
     inkscape:pagecheckerboard="0"
     inkscape:deskcolor="#d1d1d1"
     inkscape:zoom="1.6859713"
     inkscape:cx="340.16"
     inkscape:cy="340.16"
     inkscape:window-width="2560"
     inkscape:window-height="1361"
     inkscape:window-x="2551"
     inkscape:window-y="-9"
     inkscape:window-maximized="1"
     inkscape:current-layer="g8" />
  <g
     id="g8"
     inkscape:groupmode="layer"
     inkscape:label="ink_ext_XXXXXX"
     transform="matrix(1.3333333,0,0,-1.3333333,0,680.32)">
    <g
       id="g10"
       transform="scale(0.1)">
      <path
         d="M 5102.36,0 H 0 V 5102.36 H 5102.36 V 0"
         style="fill:#21508b;fill-opacity:1;fill-rule:nonzero;stroke:none"
         id="path12" />
      <path
         d="m 3344.42,1783.79 h -217.91 v 2296.06 h 217.91 V 1783.79"
         style="fill:#ffffff;fill-opacity:1;fill-rule:nonzero;stroke:none"
         id="path34" />
      <path
         d="m 1980.59,1783.79 h -217.9 v 2296.06 h 217.9 V 1783.79"
         style="fill:#ffffff;fill-opacity:1;fill-rule:nonzero;stroke:none"
         id="path36" />
      <path
         d="m 2370.73,3926.78 h 591.01 v 102.05 h -591.89 v -0.01 c -123.87,-0.48 -224.49,-101.38 -224.49,-225.36 0,-124.26 101.1,-225.36 225.37,-225.36 v 0.02 h 365.82 c 67.92,-0.09 123.14,-55.37 123.14,-123.31 0,-67.76 -54.93,-122.92 -122.61,-123.3 h -366.35 v 0.01 c -124.27,0 -225.37,-101.1 -225.37,-225.37 0,-124.27 101.1,-225.37 225.37,-225.37 v 0.02 h 366.18 c 67.75,-0.29 122.78,-55.49 122.78,-123.31 0,-67.87 -55.12,-123.11 -122.95,-123.31 h -366.01 v 0.02 c -124.27,0 -225.37,-101.1 -225.37,-225.36 0,-124.27 101.1,-225.37 225.37,-225.37 v 0.01 h 366.54 v 0 c 67.59,-0.49 122.42,-55.6 122.42,-123.3 0,-68 -55.32,-123.32 -123.32,-123.32 h -591.01 v -102.05 h 592.47 v 0.02 c 123.6,0.79 223.91,101.57 223.91,225.35 0,124.27 -101.1,225.37 -225.37,225.37 v -0.03 h -365.82 c -67.91,0.1 -123.14,55.38 -123.14,123.32 0,67.92 55.2,123.19 123.09,123.31 v -0.01 h 365.87 v -0.01 c 0.25,0 0.49,0.01 0.73,0.01 h 0.17 v 0 c 123.86,0.49 224.47,101.39 224.47,225.35 0,124.27 -101.1,225.37 -225.37,225.37 v -0.01 H 2370.5 v -0.01 c -67.89,0.12 -123.09,55.39 -123.09,123.31 0,67.92 55.2,123.19 123.09,123.31 v 0 h 365.87 v -0.02 c 124.27,0 225.37,101.1 225.37,225.37 0,123.96 -100.61,224.86 -224.47,225.35 v 0.01 h -0.55 c -0.12,0 -0.23,0 -0.35,0 v 0 H 2370.5 v -0.02 c -67.89,0.12 -123.09,55.39 -123.09,123.31 0,68 55.32,123.32 123.32,123.32"
         style="fill:#ffffff;fill-opacity:1;fill-rule:nonzero;stroke:none"
         id="path38" />
    </g>
  </g>
</svg>
