<?xml version="1.0" encoding="UTF-8" standalone="no"?>
<!-- Created with Inkscape (http://www.inkscape.org/) -->

<svg
   version="1.1"
   id="svg2"
   width="680.32001"
   height="680.32001"
   viewBox="0 0 680.32001 680.32001"
   sodipodi:docname="MURSTEN_&amp;_TEGL_rgb.eps"
   xmlns:inkscape="http://www.inkscape.org/namespaces/inkscape"
   xmlns:sodipodi="http://sodipodi.sourceforge.net/DTD/sodipodi-0.dtd"
   xmlns="http://www.w3.org/2000/svg"
   xmlns:svg="http://www.w3.org/2000/svg">
  <defs
     id="defs6" />
  <sodipodi:namedview
     id="namedview4"
     pagecolor="#ffffff"
     bordercolor="#000000"
     borderopacity="0.25"
     inkscape:showpageshadow="2"
     inkscape:pageopacity="0.0"
     inkscape:pagecheckerboard="0"
     inkscape:deskcolor="#d1d1d1" />
  <g
     id="g8"
     inkscape:groupmode="layer"
     inkscape:label="ink_ext_XXXXXX"
     transform="matrix(1.3333333,0,0,-1.3333333,0,680.32)">
    <g
       id="g10"
       transform="scale(0.1)">
      <path
         d="M 5102.36,0 H 0 V 5102.36 H 5102.36 V 0"
         style="fill:#21508c;fill-opacity:1;fill-rule:nonzero;stroke:none"
         id="path12" />
      <path
         d="m 1245.52,1072.2 89.98,459.58 146.73,-332.23 151.99,332.23 80.84,-459.58 h -66.16 l -41.26,258.03 -126.52,-277.69 -122.92,277.97 -45.96,-258.31 h -66.72"
         style="fill:#ffffff;fill-opacity:1;fill-rule:nonzero;stroke:none"
         id="path14" />
      <path
         d="m 1844.9,1499.66 v -257.28 c 0,-36.7 6,-63.54 18,-80.5 17.9,-24.53 43.09,-36.8 75.58,-36.8 32.67,0 57.95,12.27 75.86,36.8 11.99,16.4 17.99,43.24 17.99,80.5 v 257.28 h 64.51 v -275.19 c 0,-45.03 -14.03,-82.13 -42.08,-111.29 -31.57,-32.49 -70.33,-48.73 -116.28,-48.73 -45.96,0 -84.63,16.24 -116,48.73 -28.06,29.16 -42.09,66.26 -42.09,111.29 v 275.19 h 64.51"
         style="fill:#ffffff;fill-opacity:1;fill-rule:nonzero;stroke:none"
         id="path16" />
      <path
         d="m 2245.78,1303.37 h 20.49 c 61.09,0 91.63,23.35 91.63,70.05 0,43.74 -29.71,65.62 -89.14,65.62 h -22.98 z m 80.29,-49 132.33,-182.17 h -78.9 l -122.09,174.97 h -11.63 V 1072.2 h -64.51 v 427.46 h 75.59 c 56.47,0 97.26,-10.61 122.36,-31.84 27.69,-23.62 41.53,-54.81 41.53,-93.57 0,-30.27 -8.68,-56.3 -26.02,-78.08 -17.35,-21.77 -40.24,-35.71 -68.66,-41.8"
         style="fill:#ffffff;fill-opacity:1;fill-rule:nonzero;stroke:none"
         id="path18" />
      <path
         d="m 2762.53,1436.26 -52.33,-31 c -9.78,16.98 -19.1,28.05 -27.95,33.22 -9.24,5.91 -21.15,8.86 -35.73,8.86 -17.9,0 -32.76,-5.08 -44.57,-15.24 -11.81,-9.98 -17.71,-22.54 -17.71,-37.68 0,-20.87 15.5,-37.68 46.5,-50.42 l 42.64,-17.45 c 34.7,-14.05 60.08,-31.18 76.14,-51.4 16.06,-20.23 24.08,-45.03 24.08,-74.39 0,-39.34 -13.1,-71.85 -39.31,-97.53 -26.4,-25.85 -59.15,-38.78 -98.28,-38.78 -37.1,0 -67.74,11.03 -91.92,33.09 -23.81,22.05 -38.67,53.01 -44.57,92.87 l 65.33,14.41 c 2.95,-25.11 8.13,-42.46 15.51,-52.05 13.29,-18.46 32.67,-27.69 58.14,-27.69 20.11,0 36.82,6.73 50.11,20.2 13.28,13.45 19.93,30.51 19.93,51.18 0,8.29 -1.16,15.91 -3.45,22.82 -2.32,6.91 -5.92,13.28 -10.8,19.09 -4.9,5.81 -11.21,11.25 -18.97,16.32 -7.75,5.07 -16.98,9.91 -27.68,14.53 l -41.25,17.15 c -58.52,24.72 -87.77,60.86 -87.77,108.45 0,32.09 12.27,58.92 36.82,80.5 24.55,21.76 55.1,32.65 91.64,32.65 49.28,0 87.76,-23.9 115.45,-71.71"
         style="fill:#ffffff;fill-opacity:1;fill-rule:nonzero;stroke:none"
         id="path20" />
      <path
         d="M 2993.57,1439.04 V 1072.2 h -64.51 v 366.84 h -98.28 v 60.62 h 260.79 v -60.62 h -98"
         style="fill:#ffffff;fill-opacity:1;fill-rule:nonzero;stroke:none"
         id="path22" />
      <path
         d="m 3404.84,1439.04 h -171.36 v -102.72 h 166.38 v -60.63 h -166.38 v -142.86 h 171.36 v -60.63 h -235.88 v 427.46 h 235.88 v -60.62"
         style="fill:#ffffff;fill-opacity:1;fill-rule:nonzero;stroke:none"
         id="path24" />
      <path
         d="m 3484.16,1072.2 v 456.53 L 3795.9,1202.6 v 297.06 h 64.51 v -453.49 l -311.74,325.31 V 1072.2 h -64.51"
         style="fill:#ffffff;fill-opacity:1;fill-rule:nonzero;stroke:none"
         id="path26" />
      <path
         d="m 1766.42,817.18 5.26,3.879 c 9.04,6.82 16.51,12.781 22.42,17.863 5.91,5.078 10.15,9.359 12.74,12.867 5.54,6.832 8.31,15.223 8.31,25.191 0,11.258 -3.79,20.399 -11.36,27.418 -7.56,7.012 -17.72,10.512 -30.45,10.512 -11.63,0 -21.41,-3.601 -29.35,-10.801 -7.94,-6.82 -11.9,-15.589 -11.9,-26.289 0,-12.55 4.98,-24.922 14.95,-37.101 l 16.06,-19.379 c 0.55,-0.93 1.66,-2.309 3.32,-4.16 z m -13.85,-81.668 -3.6,-2.492 c -26.39,-18.27 -44.39,-32.95 -53.98,-44.02 -9.41,-11.078 -14.12,-22.801 -14.12,-35.16 0,-17.719 7.1,-33.961 21.32,-48.731 14.76,-14.211 31,-21.32 48.72,-21.32 24.92,0 53.62,16.34 86.11,49.012 z m 51.22,36.269 76.97,-93.031 2.49,2.781 c 8.31,9.039 16.15,17.899 23.53,26.571 7.38,8.679 14.49,17.449 21.32,26.308 l 42.09,-43.199 c -5.18,-7.379 -11.96,-15.961 -20.36,-25.742 -8.4,-9.778 -18.4,-21.039 -30.04,-33.778 l 79.18,-97.73 h -80.28 l -42.64,52.32 c -39.13,-40.422 -79.82,-60.621 -122.09,-60.621 -37.84,0 -69.96,12.09 -96.35,36.27 -25.84,24.351 -38.76,54.441 -38.76,90.25 0,42.64 20.49,78.07 61.47,106.308 l 27.96,19.102 c 0.37,0.191 1.01,0.64 1.93,1.39 0.93,0.731 2.22,1.75 3.88,3.04 -28.24,30.082 -42.36,59.71 -42.36,88.871 0,28.8 9.42,52.238 28.24,70.32 19.19,18.09 43.93,27.129 74.2,27.129 29.35,0 53.61,-8.762 72.81,-26.301 19.2,-17.539 28.8,-39.68 28.8,-66.437 0,-18.461 -5.26,-35.161 -15.79,-50.114 -10.33,-14.949 -29.07,-32.859 -56.2,-53.707"
         style="fill:#ffffff;fill-opacity:1;fill-rule:nonzero;stroke:none"
         id="path28" />
      <path
         d="M 2343.11,900.789 V 533.961 h -64.51 v 366.828 h -98.28 v 60.641 h 260.79 v -60.641 h -98"
         style="fill:#ffffff;fill-opacity:1;fill-rule:nonzero;stroke:none"
         id="path30" />
      <path
         d="M 2748.98,900.789 H 2577.61 V 798.078 h 166.38 V 737.449 H 2577.61 V 594.59 h 171.37 V 533.961 H 2513.1 V 961.43 h 235.88 v -60.641"
         style="fill:#ffffff;fill-opacity:1;fill-rule:nonzero;stroke:none"
         id="path32" />
      <path
         d="m 3066.12,756.559 h 176.63 V 742.43 c 0,-32.11 -3.78,-60.539 -11.34,-85.27 -7.39,-22.89 -19.85,-44.301 -37.38,-64.23 -39.68,-44.668 -90.16,-67 -151.44,-67 -59.8,0 -111.02,21.59 -153.66,64.789 -42.63,43.359 -63.95,95.422 -63.95,156.14 0,62.02 21.69,114.621 65.07,157.813 43.37,43.367 96.15,65.058 158.36,65.058 33.4,0 64.6,-6.8 93.57,-20.39 27.69,-13.61 54.91,-35.692 81.67,-66.262 l -45.96,-44.019 c -35.06,46.679 -77.79,70.043 -128.18,70.043 -45.22,0 -83.15,-15.602 -113.79,-46.793 -30.63,-30.637 -45.95,-69.028 -45.95,-115.168 0,-47.621 17.07,-86.84 51.22,-117.661 31.92,-28.621 66.53,-42.91 103.81,-42.91 31.75,0 60.27,10.668 85.55,32.032 25.28,21.539 39.41,47.308 42.36,77.32 h -106.59 v 60.637"
         style="fill:#ffffff;fill-opacity:1;fill-rule:nonzero;stroke:none"
         id="path34" />
      <path
         d="M 3388.39,961.43 V 594.59 h 125.68 V 533.961 H 3323.88 V 961.43 h 64.51"
         style="fill:#ffffff;fill-opacity:1;fill-rule:nonzero;stroke:none"
         id="path36" />
      <path
         d="M 2218.17,3570.56 H 1197.7 v 408.19 h 1020.47 v -408.19"
         style="fill:#ffffff;fill-opacity:1;fill-rule:nonzero;stroke:none"
         id="path38" />
      <path
         d="m 1197.7,2447.8 v -408.19 h 459.21 V 2447.8 H 1197.7"
         style="fill:#ffffff;fill-opacity:1;fill-rule:nonzero;stroke:none"
         id="path40" />
      <path
         d="M 2881.46,2447.8 V 2039.61 H 3903.47 V 2447.8 H 2881.46"
         style="fill:#ffffff;fill-opacity:1;fill-rule:nonzero;stroke:none"
         id="path42" />
      <path
         d="M 1761.39,2447.8 V 2039.61 H 2781.91 V 2447.8 H 1761.39"
         style="fill:#ffffff;fill-opacity:1;fill-rule:nonzero;stroke:none"
         id="path44" />
      <path
         d="m 3341.13,2549.93 v 408.19 H 2319.12 v -408.19 h 1022.01"
         style="fill:#ffffff;fill-opacity:1;fill-rule:nonzero;stroke:none"
         id="path46" />
      <path
         d="M 2216.63,2958.12 H 1197.7 v -408.19 h 1018.93 v 408.19"
         style="fill:#ffffff;fill-opacity:1;fill-rule:nonzero;stroke:none"
         id="path48" />
      <path
         d="m 2782.68,3060.25 v 408.18 H 1760.63 v -408.18 h 1022.05"
         style="fill:#ffffff;fill-opacity:1;fill-rule:nonzero;stroke:none"
         id="path50" />
      <path
         d="M 1656.91,3468.43 H 1197.7 v -408.18 h 459.21 v 408.18"
         style="fill:#ffffff;fill-opacity:1;fill-rule:nonzero;stroke:none"
         id="path52" />
    </g>
  </g>
</svg>
