<?xml version="1.0" encoding="UTF-8" standalone="no"?>
<!-- Created with Inkscape (http://www.inkscape.org/) -->

<svg
   version="1.1"
   id="svg2"
   width="680.32001"
   height="680.32001"
   viewBox="0 0 680.32001 680.32001"
   sodipodi:docname="NATURSTEN_rgb.icon.svg"
   inkscape:version="1.3.2 (091e20e, 2023-11-25, custom)"
   xmlns:inkscape="http://www.inkscape.org/namespaces/inkscape"
   xmlns:sodipodi="http://sodipodi.sourceforge.net/DTD/sodipodi-0.dtd"
   xmlns="http://www.w3.org/2000/svg"
   xmlns:svg="http://www.w3.org/2000/svg">
  <defs
     id="defs6" />
  <sodipodi:namedview
     id="namedview4"
     pagecolor="#ffffff"
     bordercolor="#000000"
     borderopacity="0.25"
     inkscape:showpageshadow="2"
     inkscape:pageopacity="0.0"
     inkscape:pagecheckerboard="0"
     inkscape:deskcolor="#d1d1d1"
     inkscape:zoom="1.6859713"
     inkscape:cx="340.16"
     inkscape:cy="340.16"
     inkscape:window-width="2560"
     inkscape:window-height="1361"
     inkscape:window-x="2551"
     inkscape:window-y="-9"
     inkscape:window-maximized="1"
     inkscape:current-layer="g8" />
  <g
     id="g8"
     inkscape:groupmode="layer"
     inkscape:label="ink_ext_XXXXXX"
     transform="matrix(1.3333333,0,0,-1.3333333,0,680.32)">
    <g
       id="g10"
       transform="scale(0.1)">
      <path
         d="M 5102.36,0 H 0 V 5102.36 H 5102.36 V 0"
         style="fill:#1e6434;fill-opacity:1;fill-rule:nonzero;stroke:none"
         id="path12" />
      <path
         d="m 2537,2358.32 c -36.36,59.18 -79.44,95.01 -121.1,129.67 -39.85,33.15 -77.5,64.47 -101.29,110.77 -26.71,51.96 -30.5,112.35 -11.93,190.04 17.05,71.32 19.78,118.51 21.97,156.43 2.34,40.61 4.36,75.68 23.31,114.15 18.22,37 49.37,72.43 107.53,122.29 102.79,88.05 195.85,150.54 284.51,191.06 80.16,36.64 154.99,54.44 228.79,54.44 115.65,0 206.31,-44.5 286.3,-83.77 42.59,-20.91 82.82,-40.66 122.88,-51.93 85.36,-24 160.22,-38.97 227.98,-50.2 -2.81,46.62 -22.96,100.6 -75.48,191.17 -438.52,755.61 -778.14,503.01 -1081.37,521.99 -413.07,25.84 -614.12,128.5 -909.84,115.28 -384.21,-17.17 -402.89,-231.36 -475.91,-468.46 -116.159,-377.2 14.99,-479.28 10.58,-745.79 -2.72,-164.06 53.45,-232.36 138.31,-279.55 16.87,4.35 34.6,7.64 53.42,9.88 25.77,3.05 53.9,8.56 83.68,14.39 51.04,10 103.81,20.33 154.74,20.33 49.69,0 90.31,-9.97 124.17,-30.48 36.61,-22.19 72.55,-28.32 107.3,-34.25 33.98,-5.8 69.12,-11.8 100.18,-32.68 35.37,-23.78 58.1,-62.17 69.49,-117.37 6.79,-32.91 18.23,-57.89 30.34,-84.34 11.43,-24.97 23.58,-51.54 32.19,-85.16 138.25,-11.12 285.53,-6.6 411.99,-19.54 91.62,-9.37 169.72,-4.64 240.07,11.37 -25.96,37.72 -51.01,78.48 -77.81,122.12 l -5,8.14"
         style="fill:#ffffff;fill-opacity:1;fill-rule:nonzero;stroke:none"
         id="path32" />
      <path
         d="m 1601.81,2546.39 c -86.1,52.16 -222.64,1.48 -330.15,-11.27 -128.23,-15.21 -178.98,-81.87 -253.15,-175.97 -74.178,-94.11 -168.334,-75.92 -153.143,-204.04 15.207,-128.23 -29,-125.42 52.246,-213.42 244.727,-264.9 358.787,-132.54 482.647,-112.87 168.74,26.8 258.98,3.56 376.92,35.52 153.23,41.53 141.46,129.5 149.52,231.59 12.81,162.42 -49.22,191.73 -71.45,299.49 -30.26,146.69 -134.33,78.8 -253.44,150.97"
         style="fill:#ffffff;fill-opacity:1;fill-rule:nonzero;stroke:none"
         id="path34" />
      <path
         d="m 4022.24,3101.68 c -201.61,80.83 -365.73,58.46 -658.09,140.67 -214.61,60.36 -388.61,317.62 -875.46,-99.43 -161.64,-138.57 -83.01,-142.74 -136.38,-365.99 -53.33,-223.06 116.67,-210.42 228.16,-391.9 111.5,-181.49 187.3,-309.66 410.55,-363.03 187.17,-44.75 417.75,-162.47 580.54,-88.19 225.22,102.77 394.91,-38.61 478.67,214.11 61.54,185.65 177.11,224.56 188.09,513.96 6.89,181.92 45.86,334.79 -216.08,439.8"
         style="fill:#ffffff;fill-opacity:1;fill-rule:nonzero;stroke:none"
         id="path36" />
    </g>
  </g>
</svg>
