<?xml version="1.0" encoding="UTF-8" standalone="no"?>
<!-- Created with Inkscape (http://www.inkscape.org/) -->

<svg
   version="1.1"
   id="svg2"
   width="680.32001"
   height="680.32001"
   viewBox="0 0 680.32001 680.32001"
   sodipodi:docname="NATURSTEN_rgb.eps"
   xmlns:inkscape="http://www.inkscape.org/namespaces/inkscape"
   xmlns:sodipodi="http://sodipodi.sourceforge.net/DTD/sodipodi-0.dtd"
   xmlns="http://www.w3.org/2000/svg"
   xmlns:svg="http://www.w3.org/2000/svg">
  <defs
     id="defs6" />
  <sodipodi:namedview
     id="namedview4"
     pagecolor="#ffffff"
     bordercolor="#000000"
     borderopacity="0.25"
     inkscape:showpageshadow="2"
     inkscape:pageopacity="0.0"
     inkscape:pagecheckerboard="0"
     inkscape:deskcolor="#d1d1d1" />
  <g
     id="g8"
     inkscape:groupmode="layer"
     inkscape:label="ink_ext_XXXXXX"
     transform="matrix(1.3333333,0,0,-1.3333333,0,680.32)">
    <g
       id="g10"
       transform="scale(0.1)">
      <path
         d="M 5102.36,0 H 0 V 5102.36 H 5102.36 V 0"
         style="fill:#1e6434;fill-opacity:1;fill-rule:nonzero;stroke:none"
         id="path12" />
      <path
         d="M 919.086,533.48 V 990.02 L 1230.82,663.879 v 297.07 h 64.51 V 507.461 L 983.594,832.762 V 533.48 h -64.508"
         style="fill:#ffffff;fill-opacity:1;fill-rule:nonzero;stroke:none"
         id="path14" />
      <path
         d="m 1647.5,697.941 -63.4,145.348 -66.45,-145.348 z m 26.3,-60.64 h -183 L 1443.18,533.48 h -69.49 l 211.52,454.321 204.04,-454.321 h -70.6 l -44.85,103.821"
         style="fill:#ffffff;fill-opacity:1;fill-rule:nonzero;stroke:none"
         id="path16" />
      <path
         d="M 1936.81,900.32 V 533.48 h -64.51 v 366.84 h -98.28 v 60.629 h 260.8 V 900.32 h -98.01"
         style="fill:#ffffff;fill-opacity:1;fill-rule:nonzero;stroke:none"
         id="path18" />
      <path
         d="m 2167.71,960.949 v -257.48 c 0,-36.731 6,-63.578 18,-80.559 17.9,-24.551 43.09,-36.82 75.58,-36.82 32.67,0 57.95,12.269 75.86,36.82 11.99,16.418 17.99,43.281 17.99,80.559 v 257.48 h 64.51 V 685.762 c 0,-45.043 -14.03,-82.141 -42.08,-111.301 -31.56,-32.492 -70.32,-48.731 -116.28,-48.731 -45.96,0 -84.63,16.239 -116,48.731 -28.06,29.16 -42.09,66.258 -42.09,111.301 v 275.187 h 64.51"
         style="fill:#ffffff;fill-opacity:1;fill-rule:nonzero;stroke:none"
         id="path20" />
      <path
         d="m 2575.79,764.66 h 20.49 c 61.09,0 91.64,23.352 91.64,70.039 0,43.75 -29.72,65.621 -89.15,65.621 h -22.98 z m 80.29,-49 132.34,-182.18 h -78.9 l -122.1,174.981 h -11.63 V 533.48 h -64.5 v 427.469 h 75.58 c 56.48,0 97.26,-10.621 122.37,-31.84 27.68,-23.629 41.53,-54.82 41.53,-93.578 0,-30.269 -8.68,-56.293 -26.03,-78.07 -17.35,-21.781 -40.24,-35.711 -68.66,-41.801"
         style="fill:#ffffff;fill-opacity:1;fill-rule:nonzero;stroke:none"
         id="path22" />
      <path
         d="m 3088.94,897.27 -52.32,-31 c -9.79,16.968 -19.1,28.05 -27.96,33.218 -9.24,5.903 -21.14,8.864 -35.72,8.864 -17.9,0 -32.76,-5.082 -44.57,-15.231 -11.82,-9.973 -17.72,-22.519 -17.72,-37.652 0,-20.86 15.5,-37.66 46.51,-50.387 l 42.64,-17.441 c 34.69,-14.032 60.08,-31.153 76.13,-51.36 16.06,-20.211 24.09,-44.992 24.09,-74.332 0,-39.32 -13.11,-71.808 -39.31,-97.461 -26.4,-25.84 -59.16,-38.758 -98.29,-38.758 -37.1,0 -67.74,10.981 -91.91,32.95 -23.81,21.961 -38.67,52.879 -44.58,92.75 l 65.34,14.39 c 2.95,-25.101 8.12,-42.449 15.5,-52.05 13.29,-18.461 32.67,-27.68 58.14,-27.68 20.12,0 36.82,6.73 50.11,20.211 13.29,13.469 19.94,30.539 19.94,51.219 0,8.3 -1.16,15.91 -3.46,22.839 -2.31,6.922 -5.91,13.289 -10.8,19.102 -4.89,5.809 -11.21,11.258 -18.97,16.328 -7.75,5.082 -16.98,9.922 -27.68,14.539 l -41.25,17.16 c -58.51,24.731 -87.76,60.91 -87.76,108.532 0,32.121 12.27,58.968 36.82,80.57 24.54,21.769 55.09,32.672 91.64,32.672 49.28,0 87.76,-24 115.44,-71.992"
         style="fill:#ffffff;fill-opacity:1;fill-rule:nonzero;stroke:none"
         id="path24" />
      <path
         d="M 3309.18,900.32 V 533.48 h -64.5 v 366.84 h -98.29 v 60.629 h 260.8 V 900.32 h -98.01"
         style="fill:#ffffff;fill-opacity:1;fill-rule:nonzero;stroke:none"
         id="path26" />
      <path
         d="M 3700.66,900.32 H 3529.29 V 797.609 h 166.38 v -60.64 H 3529.29 V 594.121 h 171.37 V 533.48 h -235.88 v 427.469 h 235.88 V 900.32"
         style="fill:#ffffff;fill-opacity:1;fill-rule:nonzero;stroke:none"
         id="path28" />
      <path
         d="m 3785.38,533.48 v 456.54 l 311.73,-326.141 v 297.07 h 64.51 V 507.461 L 3849.88,832.762 V 533.48 h -64.5"
         style="fill:#ffffff;fill-opacity:1;fill-rule:nonzero;stroke:none"
         id="path30" />
      <path
         d="m 2537,2358.32 c -36.36,59.18 -79.44,95.01 -121.1,129.67 -39.85,33.15 -77.5,64.47 -101.29,110.77 -26.71,51.96 -30.5,112.35 -11.93,190.04 17.05,71.32 19.78,118.51 21.97,156.43 2.34,40.61 4.36,75.68 23.31,114.15 18.22,37 49.37,72.43 107.53,122.29 102.79,88.05 195.85,150.54 284.51,191.06 80.16,36.64 154.99,54.44 228.79,54.44 115.65,0 206.31,-44.5 286.3,-83.77 42.59,-20.91 82.82,-40.66 122.88,-51.93 85.36,-24 160.22,-38.97 227.98,-50.2 -2.81,46.62 -22.96,100.6 -75.48,191.17 -438.52,755.61 -778.14,503.01 -1081.37,521.99 -413.07,25.84 -614.12,128.5 -909.84,115.28 -384.21,-17.17 -402.89,-231.36 -475.91,-468.46 -116.159,-377.2 14.99,-479.28 10.58,-745.79 -2.72,-164.06 53.45,-232.36 138.31,-279.55 16.87,4.35 34.6,7.64 53.42,9.88 25.77,3.05 53.9,8.56 83.68,14.39 51.04,10 103.81,20.33 154.74,20.33 49.69,0 90.31,-9.97 124.17,-30.48 36.61,-22.19 72.55,-28.32 107.3,-34.25 33.98,-5.8 69.12,-11.8 100.18,-32.68 35.37,-23.78 58.1,-62.17 69.49,-117.37 6.79,-32.91 18.23,-57.89 30.34,-84.34 11.43,-24.97 23.58,-51.54 32.19,-85.16 138.25,-11.12 285.53,-6.6 411.99,-19.54 91.62,-9.37 169.72,-4.64 240.07,11.37 -25.96,37.72 -51.01,78.48 -77.81,122.12 l -5,8.14"
         style="fill:#ffffff;fill-opacity:1;fill-rule:nonzero;stroke:none"
         id="path32" />
      <path
         d="m 1601.81,2546.39 c -86.1,52.16 -222.64,1.48 -330.15,-11.27 -128.23,-15.21 -178.98,-81.87 -253.15,-175.97 -74.178,-94.11 -168.334,-75.92 -153.143,-204.04 15.207,-128.23 -29,-125.42 52.246,-213.42 244.727,-264.9 358.787,-132.54 482.647,-112.87 168.74,26.8 258.98,3.56 376.92,35.52 153.23,41.53 141.46,129.5 149.52,231.59 12.81,162.42 -49.22,191.73 -71.45,299.49 -30.26,146.69 -134.33,78.8 -253.44,150.97"
         style="fill:#ffffff;fill-opacity:1;fill-rule:nonzero;stroke:none"
         id="path34" />
      <path
         d="m 4022.24,3101.68 c -201.61,80.83 -365.73,58.46 -658.09,140.67 -214.61,60.36 -388.61,317.62 -875.46,-99.43 -161.64,-138.57 -83.01,-142.74 -136.38,-365.99 -53.33,-223.06 116.67,-210.42 228.16,-391.9 111.5,-181.49 187.3,-309.66 410.55,-363.03 187.17,-44.75 417.75,-162.47 580.54,-88.19 225.22,102.77 394.91,-38.61 478.67,214.11 61.54,185.65 177.11,224.56 188.09,513.96 6.89,181.92 45.86,334.79 -216.08,439.8"
         style="fill:#ffffff;fill-opacity:1;fill-rule:nonzero;stroke:none"
         id="path36" />
    </g>
  </g>
</svg>
