<?xml version="1.0" encoding="UTF-8" standalone="no"?>
<!-- Created with Inkscape (http://www.inkscape.org/) -->

<svg
   version="1.1"
   id="svg2"
   width="680.32001"
   height="680.32001"
   viewBox="0 0 680.32001 680.32001"
   sodipodi:docname="OLIEFILTRE_rgb.icon.svg"
   inkscape:version="1.3.2 (091e20e, 2023-11-25, custom)"
   xmlns:inkscape="http://www.inkscape.org/namespaces/inkscape"
   xmlns:sodipodi="http://sodipodi.sourceforge.net/DTD/sodipodi-0.dtd"
   xmlns="http://www.w3.org/2000/svg"
   xmlns:svg="http://www.w3.org/2000/svg">
  <defs
     id="defs6" />
  <sodipodi:namedview
     id="namedview4"
     pagecolor="#ffffff"
     bordercolor="#000000"
     borderopacity="0.25"
     inkscape:showpageshadow="2"
     inkscape:pageopacity="0.0"
     inkscape:pagecheckerboard="0"
     inkscape:deskcolor="#d1d1d1"
     inkscape:zoom="1.6859713"
     inkscape:cx="340.16"
     inkscape:cy="340.16"
     inkscape:window-width="2560"
     inkscape:window-height="1361"
     inkscape:window-x="2551"
     inkscape:window-y="-9"
     inkscape:window-maximized="1"
     inkscape:current-layer="g8" />
  <g
     id="g8"
     inkscape:groupmode="layer"
     inkscape:label="ink_ext_XXXXXX"
     transform="matrix(1.3333333,0,0,-1.3333333,0,680.32)">
    <g
       id="g10"
       transform="scale(0.1)">
      <path
         d="M 5102.36,0 H 0.00390625 V 5102.36 H 5102.36 V 0"
         style="fill:#ea1d2c;fill-opacity:1;fill-rule:nonzero;stroke:none"
         id="path12" />
      <path
         d="m 2617.39,1922.8 c -6,50.05 -27.11,113.63 -64.55,194.36 -39.73,85.66 -94.82,183.27 -160.66,285.34 -39.8,61.71 -83.53,125.04 -130.17,188.34 v 0 c -66.06,89.64 -133.9,173.72 -199.9,248.11 -57.69,65.01 -113.97,122.62 -166.41,170.03 -64.42,58.24 -117.85,96.79 -163.18,117.74 -1.12,0.52 -2.25,1.04 -3.36,1.54 -51.95,23.21 -94.69,22.91 -127.02,-0.88 -14.98,-11.03 -25.8,-25.68 -32.44,-43.84 -1.22,-3.36 -2.3,-6.86 -3.23,-10.47 1.21,0.98 2.45,1.94 3.72,2.86 19.02,14 41.3,21.1 66.2,21.1 v 0 c 33,0 69.7,-12.65 112.21,-38.67 37.07,-22.69 78.59,-55.4 126.91,-99.98 105.83,-97.64 228.78,-239.18 346.22,-398.57 117.46,-159.41 216.22,-318.76 278.09,-448.71 37.08,-77.89 58.5,-139.61 65.48,-188.69 4.12,-28.9 3.33,-53.52 -2.41,-75.25 -6.86,-25.95 -21.18,-47.53 -41.4,-62.4 -0.46,-0.34 -0.93,-0.66 -1.39,-0.98 0.59,-0.01 1.19,-0.04 1.78,-0.04 21.54,0.01 40.59,6.03 56.95,18.08 25.91,19.06 39.38,48.98 40.24,89.16 0.21,9.98 -0.33,20.58 -1.68,31.82"
         style="fill:#ffffff;fill-opacity:1;fill-rule:nonzero;stroke:none"
         id="path34" />
      <path
         d="m 2428.19,2440.66 c 27.06,-41.34 52.45,-81.98 75.86,-121.43 l 785.36,574.16 c -22.77,39.44 -47.85,80.36 -74.84,122.17 l -786.38,-574.9"
         style="fill:#ffffff;fill-opacity:1;fill-rule:nonzero;stroke:none"
         id="path36" />
      <path
         d="m 3314.62,2848.61 -784.79,-573.74 c 25.39,-44.68 47.96,-87.5 67.25,-127.73 l 782.04,571.74 c -5.27,12.06 -10.98,24.58 -17.16,37.6 -13.92,29.26 -29.79,60.1 -47.34,92.13"
         style="fill:#ffffff;fill-opacity:1;fill-rule:nonzero;stroke:none"
         id="path38" />
      <path
         d="m 2317.91,2600.13 c 28.53,-39.18 55.93,-78.28 82.01,-116.93 l 786.6,575.06 c -25.81,38.66 -53.11,77.87 -81.64,117.21 l -786.97,-575.34"
         style="fill:#ffffff;fill-opacity:1;fill-rule:nonzero;stroke:none"
         id="path40" />
      <path
         d="M 3398.89,2670.13 2618.8,2099.81 c 24.31,-55.78 39.88,-102.74 47.24,-142.35 l 736.94,538.76 v 0 c 30.5,26.59 29.25,83.86 -4.09,173.91"
         style="fill:#ffffff;fill-opacity:1;fill-rule:nonzero;stroke:none"
         id="path42" />
      <path
         d="m 2074.11,2902.08 c 30.8,-34.02 62.16,-70.29 93.69,-108.39 l 786.86,575.26 c -31.86,38.24 -63.46,74.4 -94.34,107.91 l -786.21,-574.78"
         style="fill:#ffffff;fill-opacity:1;fill-rule:nonzero;stroke:none"
         id="path44" />
      <path
         d="m 2514.67,3704.35 -739.9,-540.92 c 8.88,-4.52 18,-9.62 27.41,-15.38 28.98,-17.75 60.57,-41.31 95.75,-71.47 l 781.76,571.53 c -55.91,43.2 -100.1,64.63 -133.31,64.62 -11.99,0 -22.55,-2.81 -31.71,-8.38"
         style="fill:#ffffff;fill-opacity:1;fill-rule:nonzero;stroke:none"
         id="path46" />
      <path
         d="m 3526.31,2588.86 c -5.47,50.47 -26.16,114.41 -63.24,195.46 -63.12,137.96 -166.07,306.49 -289.89,474.53 -123.81,168.04 -254.29,316.31 -367.38,417.51 -66.45,59.45 -121.4,98.16 -168,118.36 -52.37,22.7 -95.6,21.94 -128.48,-2.26 -18.27,-13.44 -30.55,-32.1 -36.82,-55.73 l 7.87,5.76 c -0.05,0.09 -0.07,0.14 -0.06,0.15 18.98,13.99 41.22,21.08 66.07,21.09 v 0 0 c 32.92,0 69.54,-12.64 111.96,-38.65 36.99,-22.68 78.41,-55.37 126.64,-99.92 105.57,-97.55 228.27,-239.02 345.48,-398.32 117.19,-159.31 215.74,-318.58 277.47,-448.44 37,-77.85 58.38,-139.54 65.35,-188.57 4.11,-28.89 3.32,-53.49 -2.41,-75.21 -6.84,-25.93 -21.13,-47.5 -41.32,-62.38 -0.08,-0.06 -0.2,-0.07 -0.33,-0.04 l -5.41,-3.96 c 1.05,-0.02 2.12,-0.08 3.17,-0.08 22.31,0 42.05,6.25 59.01,18.73 32.89,24.21 46.46,65.24 40.32,121.97"
         style="fill:#ffffff;fill-opacity:1;fill-rule:nonzero;stroke:none"
         id="path48" />
      <path
         d="m 2200.11,2754.11 c 29.23,-36.32 58.5,-74.08 87.51,-112.92 l 787.04,575.38 c -29.06,38.96 -58.36,76.71 -87.57,112.87 l -786.98,-575.33"
         style="fill:#ffffff;fill-opacity:1;fill-rule:nonzero;stroke:none"
         id="path50" />
      <path
         d="m 2750.46,3587.68 c -10.35,9.55 -20.36,18.52 -30.09,26.97 l -783.48,-572.79 c 32.78,-30.26 67.12,-64.51 102.4,-102.03 l 785.78,574.46 c -25.61,26.6 -50.58,51.18 -74.61,73.39"
         style="fill:#ffffff;fill-opacity:1;fill-rule:nonzero;stroke:none"
         id="path52" />
      <path
         d="m 2396.33,1939 c -11.35,-8.35 -47.65,21.66 -81.08,67.03 -33.43,45.37 -51.34,88.92 -39.99,97.27 11.35,8.36 47.65,-21.66 81.08,-67.03 33.43,-45.37 51.33,-88.92 39.99,-97.27 z m -141.94,325.05 c -22.7,-16.69 -108.86,61.71 -192.43,175.15 -83.58,113.43 -132.94,218.93 -110.24,235.63 22.7,16.7 108.85,-61.71 192.43,-175.15 83.58,-113.43 132.93,-218.93 110.24,-235.63 z m -233.52,26.82 c -11.35,-8.36 -47.65,21.66 -81.08,67.03 -33.44,45.37 -51.34,88.93 -39.99,97.28 11.34,8.35 47.65,-21.66 81.08,-67.03 33.43,-45.37 51.33,-88.93 39.99,-97.28 z m -220.83,462.1 c -11.35,-8.35 -47.65,21.66 -81.08,67.03 -33.43,45.37 -51.33,88.92 -39.98,97.28 11.34,8.35 47.64,-21.66 81.07,-67.03 33.43,-45.37 51.34,-88.93 39.99,-97.28 z m 653.71,-663.8 c -60.52,127.11 -157.5,283.5 -273.1,440.37 -115.58,156.87 -236.23,295.85 -339.73,391.34 -90.78,83.75 -158.28,125.13 -204.53,125.12 -13.89,0 -25.86,-3.73 -35.97,-11.16 -43.78,-32.23 -31.5,-118.35 37.51,-263.32 60.5,-127.14 157.48,-283.52 273.08,-440.39 115.58,-156.87 236.23,-295.85 339.73,-391.32 90.78,-83.75 158.28,-125.14 204.52,-125.14 13.89,0 25.87,3.74 35.98,11.18 43.78,32.2 31.52,118.35 -37.49,263.32"
         style="fill:#ffffff;fill-opacity:1;fill-rule:nonzero;stroke:none"
         id="path54" />
    </g>
  </g>
</svg>
