<?xml version="1.0" encoding="UTF-8" standalone="no"?>
<!-- Created with Inkscape (http://www.inkscape.org/) -->

<svg
   version="1.1"
   id="svg2"
   width="680.32001"
   height="680.32001"
   viewBox="0 0 680.32001 680.32001"
   sodipodi:docname="OLIEHOLDIGE_MASKINER_rgb.eps"
   xmlns:inkscape="http://www.inkscape.org/namespaces/inkscape"
   xmlns:sodipodi="http://sodipodi.sourceforge.net/DTD/sodipodi-0.dtd"
   xmlns="http://www.w3.org/2000/svg"
   xmlns:svg="http://www.w3.org/2000/svg">
  <defs
     id="defs6" />
  <sodipodi:namedview
     id="namedview4"
     pagecolor="#ffffff"
     bordercolor="#000000"
     borderopacity="0.25"
     inkscape:showpageshadow="2"
     inkscape:pageopacity="0.0"
     inkscape:pagecheckerboard="0"
     inkscape:deskcolor="#d1d1d1" />
  <g
     id="g8"
     inkscape:groupmode="layer"
     inkscape:label="ink_ext_XXXXXX"
     transform="matrix(1.3333333,0,0,-1.3333333,0,680.32)">
    <g
       id="g10"
       transform="scale(0.1)">
      <path
         d="M 5102.36,-0.0117188 H 0.00390625 V 5102.36 H 5102.36 V -0.0117188"
         style="fill:#4f6570;fill-opacity:1;fill-rule:nonzero;stroke:none"
         id="path12" />
      <path
         d="m 740.789,1289.11 c 0,-47.22 15.871,-86.04 47.617,-116.47 31.563,-30.42 68.012,-45.63 109.36,-45.63 44.847,0 82.687,15.48 113.514,46.46 30.82,31.35 46.23,69.52 46.23,114.52 0,45.55 -15.23,83.72 -45.68,114.52 -30.275,30.98 -67.74,46.48 -112.404,46.48 -44.481,0 -82.047,-15.5 -112.68,-46.48 -30.641,-30.61 -45.957,-68.41 -45.957,-113.4 z m -65.059,0.68 c 0,60.18 22.051,111.85 66.168,155.04 43.926,43.19 96.711,64.78 158.36,64.78 60.906,0 113.142,-21.77 156.702,-65.33 43.74,-43.56 65.61,-95.89 65.61,-156.98 0,-61.46 -21.97,-113.6 -65.89,-156.42 -44.11,-43 -97.36,-64.51 -159.742,-64.51 -55.192,0 -104.747,19.1 -148.672,57.31 -48.36,42.26 -72.536,97.63 -72.536,166.11"
         style="fill:#ffffff;fill-opacity:1;fill-rule:nonzero;stroke:none"
         id="path14" />
      <path
         d="m 1268.2,1501.59 v -366.84 h 125.69 v -60.62 h -190.2 v 427.46 h 64.51"
         style="fill:#ffffff;fill-opacity:1;fill-rule:nonzero;stroke:none"
         id="path16" />
      <path
         d="m 1543,1501.59 v -427.46 h -64.51 v 427.46 H 1543"
         style="fill:#ffffff;fill-opacity:1;fill-rule:nonzero;stroke:none"
         id="path18" />
      <path
         d="m 1865.38,1440.96 h -171.37 v -102.71 h 166.39 v -60.64 h -166.39 v -142.86 h 171.37 v -60.62 H 1629.5 v 427.46 h 235.88 v -60.63"
         style="fill:#ffffff;fill-opacity:1;fill-rule:nonzero;stroke:none"
         id="path20" />
      <path
         d="m 2011,1334.37 h 184.39 v 167.22 h 64.51 v -427.46 h -64.51 v 199.6 H 2011 v -199.6 h -64.5 v 427.46 h 64.5 v -167.22"
         style="fill:#ffffff;fill-opacity:1;fill-rule:nonzero;stroke:none"
         id="path22" />
      <path
         d="m 2404.27,1289.11 c 0,-47.22 15.88,-86.04 47.63,-116.47 31.55,-30.42 68,-45.63 109.36,-45.63 44.84,0 82.67,15.48 113.5,46.46 30.82,31.35 46.23,69.52 46.23,114.52 0,45.55 -15.22,83.72 -45.67,114.52 -30.27,30.98 -67.74,46.48 -112.4,46.48 -44.49,0 -82.05,-15.5 -112.68,-46.48 -30.64,-30.61 -45.97,-68.41 -45.97,-113.4 z m -65.05,0.68 c 0,60.18 22.05,111.85 66.16,155.04 43.93,43.19 96.72,64.78 158.37,64.78 60.91,0 113.13,-21.77 156.7,-65.33 43.74,-43.56 65.61,-95.89 65.61,-156.98 0,-61.46 -21.97,-113.6 -65.9,-156.42 -44.11,-43 -97.35,-64.51 -159.74,-64.51 -55.19,0 -104.74,19.1 -148.67,57.31 -48.36,42.26 -72.53,97.63 -72.53,166.11"
         style="fill:#ffffff;fill-opacity:1;fill-rule:nonzero;stroke:none"
         id="path24" />
      <path
         d="m 2933.48,1501.59 v -366.84 h 125.7 v -60.62 h -190.2 v 427.46 h 64.5"
         style="fill:#ffffff;fill-opacity:1;fill-rule:nonzero;stroke:none"
         id="path26" />
      <path
         d="m 3208.29,1134.75 h 29.06 c 28.98,0 53.07,3.05 72.27,9.14 19.19,6.46 36.54,16.7 52.05,30.73 31.74,28.98 47.61,66.72 47.61,113.24 0,46.87 -15.69,84.9 -47.07,114.06 -28.23,26.02 -69.86,39.04 -124.86,39.04 h -29.06 z m -64.51,-60.62 v 427.46 h 89.7 c 43,0 76.97,-4.25 101.88,-12.74 26.77,-8.3 51.03,-22.42 72.81,-42.35 44.11,-40.25 66.17,-93.13 66.17,-158.64 0,-65.72 -22.98,-118.87 -68.93,-159.48 -23.08,-20.3 -47.26,-34.42 -72.54,-42.35 -23.62,-7.94 -57.13,-11.9 -100.5,-11.9 h -88.59"
         style="fill:#ffffff;fill-opacity:1;fill-rule:nonzero;stroke:none"
         id="path28" />
      <path
         d="m 3616.36,1501.59 v -427.46 h -64.5 v 427.46 h 64.5"
         style="fill:#ffffff;fill-opacity:1;fill-rule:nonzero;stroke:none"
         id="path30" />
      <path
         d="m 3933.5,1296.71 h 176.63 v -14.12 c 0,-32.11 -3.79,-60.53 -11.34,-85.26 -7.4,-22.89 -19.85,-44.3 -37.39,-64.24 -39.67,-44.67 -90.15,-66.99 -151.43,-66.99 -59.81,0 -111.02,21.59 -153.65,64.78 -42.64,43.37 -63.96,95.42 -63.96,156.15 0,62.01 21.68,114.61 65.06,157.8 43.37,43.38 96.16,65.07 158.36,65.07 33.41,0 64.6,-6.81 93.58,-20.4 27.69,-13.6 54.9,-35.69 81.67,-66.26 l -45.95,-44.03 c -35.07,46.7 -77.81,70.05 -128.19,70.05 -45.22,0 -83.15,-15.59 -113.79,-46.78 -30.64,-30.65 -45.95,-69.04 -45.95,-115.18 0,-47.62 17.07,-86.84 51.21,-117.66 31.93,-28.61 66.54,-42.92 103.82,-42.92 31.74,0 60.26,10.68 85.55,32.03 25.28,21.55 39.41,47.32 42.36,77.34 H 3933.5 v 60.62"
         style="fill:#ffffff;fill-opacity:1;fill-rule:nonzero;stroke:none"
         id="path32" />
      <path
         d="m 4430.74,1440.96 h -171.38 v -102.71 h 166.39 v -60.64 h -166.39 v -142.86 h 171.38 v -60.62 h -235.88 v 427.46 h 235.88 v -60.63"
         style="fill:#ffffff;fill-opacity:1;fill-rule:nonzero;stroke:none"
         id="path34" />
      <path
         d="m 1087.22,534.059 89.98,459.582 146.74,-332.231 151.99,332.231 80.84,-459.582 h -66.17 l -41.25,258.019 -126.52,-277.68 -122.93,277.973 -45.95,-258.312 h -66.73"
         style="fill:#ffffff;fill-opacity:1;fill-rule:nonzero;stroke:none"
         id="path36" />
      <path
         d="m 1879.31,698.512 -63.39,145.347 -66.45,-145.347 z m 26.3,-60.633 h -183 l -47.62,-103.82 h -69.48 l 211.51,454.312 204.05,-454.312 h -70.6 l -44.86,103.82"
         style="fill:#ffffff;fill-opacity:1;fill-rule:nonzero;stroke:none"
         id="path38" />
      <path
         d="m 2319.79,898.121 -52.32,-31.012 c -9.79,16.993 -19.1,28.063 -27.97,33.231 -9.22,5.898 -21.13,8.851 -35.71,8.851 -17.9,0 -32.76,-5.07 -44.57,-15.23 -11.82,-9.981 -17.72,-22.539 -17.72,-37.691 0,-20.872 15.5,-37.668 46.51,-50.418 l 42.64,-17.454 c 34.69,-14.039 60.07,-31.168 76.13,-51.386 16.06,-20.231 24.09,-45.032 24.09,-74.391 0,-39.34 -13.11,-71.851 -39.32,-97.531 -26.39,-25.86 -59.15,-38.789 -98.28,-38.789 -37.1,0 -67.74,11.039 -91.92,33.097 -23.8,22.051 -38.66,53.012 -44.57,92.872 l 65.34,14.402 c 2.95,-25.102 8.12,-42.461 15.5,-52.051 13.29,-18.449 32.67,-27.68 58.14,-27.68 20.12,0 36.83,6.731 50.11,20.188 13.29,13.461 19.94,30.519 19.94,51.18 0,8.3 -1.16,15.91 -3.46,22.832 -2.31,6.91 -5.91,13.281 -10.8,19.089 -4.89,5.809 -11.22,11.25 -18.96,16.321 -7.76,5.07 -16.99,9.91 -27.69,14.531 l -41.25,17.148 c -58.52,24.711 -87.76,60.872 -87.76,108.442 0,32.09 12.27,58.93 36.82,80.508 24.54,21.761 55.09,32.652 91.64,32.652 49.28,0 87.76,-23.91 115.44,-71.711"
         style="fill:#ffffff;fill-opacity:1;fill-rule:nonzero;stroke:none"
         id="path40" />
      <path
         d="m 2473.17,790.98 166.39,170.54 h 86.1 L 2532.42,768 2726.77,534.059 h -86.38 l -153.93,190.191 -13.29,-13.281 v -176.91 h -64.51 V 961.52 h 64.51 V 790.98"
         style="fill:#ffffff;fill-opacity:1;fill-rule:nonzero;stroke:none"
         id="path42" />
      <path
         d="M 2868.68,961.52 V 534.059 h -64.51 V 961.52 h 64.51"
         style="fill:#ffffff;fill-opacity:1;fill-rule:nonzero;stroke:none"
         id="path44" />
      <path
         d="M 2951.58,534.059 V 990.59 L 3263.32,664.461 V 961.52 h 64.5 V 508.031 L 3016.08,833.328 V 534.059 h -64.5"
         style="fill:#ffffff;fill-opacity:1;fill-rule:nonzero;stroke:none"
         id="path46" />
      <path
         d="M 3648.13,900.891 H 3476.76 V 798.18 h 166.38 V 737.539 H 3476.76 V 594.691 h 171.37 V 534.059 H 3412.25 V 961.52 h 235.88 v -60.629"
         style="fill:#ffffff;fill-opacity:1;fill-rule:nonzero;stroke:none"
         id="path48" />
      <path
         d="m 3793.76,765.23 h 20.49 c 61.08,0 91.63,23.352 91.63,70.051 0,43.739 -29.72,65.61 -89.14,65.61 h -22.98 z m 80.28,-49 132.33,-182.171 h -78.89 l -122.1,174.972 h -11.62 V 534.059 h -64.51 V 961.52 h 75.58 c 56.48,0 97.27,-10.622 122.36,-31.84 27.69,-23.621 41.54,-54.809 41.54,-93.571 0,-30.281 -8.68,-56.3 -26.03,-78.078 -17.35,-21.781 -40.24,-35.711 -68.66,-41.801"
         style="fill:#ffffff;fill-opacity:1;fill-rule:nonzero;stroke:none"
         id="path50" />
      <path
         d="m 4032.56,2659.88 h -369.01 v 148.57 c 0,47.17 -38.6,85.77 -85.77,85.77 h -67.3 v 70.9 c 0,52.34 -42.82,95.15 -95.15,95.15 H 3095.4 c -52.34,0 -95.16,-42.81 -95.16,-95.15 v -70.9 h -67.29 c -47.18,0 -85.78,-38.6 -85.78,-85.77 V 2659.88 H 2624.02 L 1227.74,3983.85 c -61.64,57.2 -126.16,86.54 -191.88,87.37 -0.44,0.01 -278.215,0.04 -278.215,0.04 -28.067,0 -51.028,-22.96 -51.028,-51.03 0,-28.06 22.961,-51.02 51.028,-51.02 0,0 276.355,-0.01 275.475,-0.01 39.89,-0.03 81.69,-20.02 124.41,-59.43 l 1318.46,-1250.15 1.61,-0.21 c 160.77,-22.9 284.91,-163.79 284.91,-333.67 0,-64.51 -17.91,-124.82 -48.91,-176.1 h 1079.72 c -31,51.28 -48.91,111.59 -48.91,176.1 0,171.02 125.8,312.68 288.15,334.14"
         style="fill:#ffffff;fill-opacity:1;fill-rule:nonzero;stroke:none"
         id="path52" />
      <path
         d="m 4075.41,2611.68 c -154.38,0 -279.97,-128.28 -279.97,-285.94 0,-157.67 125.59,-285.94 279.97,-285.94 154.38,0 279.98,128.27 279.98,285.94 0,157.66 -125.6,285.94 -279.98,285.94"
         style="fill:#ffffff;fill-opacity:1;fill-rule:nonzero;stroke:none"
         id="path54" />
      <path
         d="m 2431.51,2611.68 c -154.38,0 -279.97,-128.28 -279.97,-285.94 0,-157.67 125.59,-285.94 279.97,-285.94 154.38,0 279.97,128.27 279.97,285.94 0,157.66 -125.59,285.94 -279.97,285.94"
         style="fill:#ffffff;fill-opacity:1;fill-rule:nonzero;stroke:none"
         id="path56" />
    </g>
  </g>
</svg>
