<?xml version="1.0" encoding="UTF-8" standalone="no"?>
<!-- Created with Inkscape (http://www.inkscape.org/) -->

<svg
   version="1.1"
   id="svg2"
   width="680.32001"
   height="680.32001"
   viewBox="0 0 680.32001 680.32001"
   sodipodi:docname="PALLER_rgb.eps"
   xmlns:inkscape="http://www.inkscape.org/namespaces/inkscape"
   xmlns:sodipodi="http://sodipodi.sourceforge.net/DTD/sodipodi-0.dtd"
   xmlns="http://www.w3.org/2000/svg"
   xmlns:svg="http://www.w3.org/2000/svg">
  <defs
     id="defs6" />
  <sodipodi:namedview
     id="namedview4"
     pagecolor="#ffffff"
     bordercolor="#000000"
     borderopacity="0.25"
     inkscape:showpageshadow="2"
     inkscape:pageopacity="0.0"
     inkscape:pagecheckerboard="0"
     inkscape:deskcolor="#d1d1d1" />
  <g
     id="g8"
     inkscape:groupmode="layer"
     inkscape:label="ink_ext_XXXXXX"
     transform="matrix(1.3333333,0,0,-1.3333333,0,680.32)">
    <g
       id="g10"
       transform="scale(0.1)">
      <path
         d="M 5102.36,0 H 0 V 5102.36 H 5102.36 V 0"
         style="fill:#715724;fill-opacity:1;fill-rule:nonzero;stroke:none"
         id="path12" />
      <path
         d="m 1672.9,767.352 h 25.29 c 62.22,0 93.33,22.789 93.33,68.378 0,44.11 -32.08,66.168 -96.24,66.168 h -22.38 z m 0,-59.801 v -173.59 h -67.75 v 427.461 h 76.76 c 37.6,0 66,-2.492 85.19,-7.473 19.38,-4.988 36.44,-14.398 51.17,-28.238 25.77,-24 38.67,-54.262 38.67,-90.813 0,-39.128 -13.77,-70.136 -41.29,-93.019 -27.52,-22.891 -64.64,-34.328 -111.36,-34.328 h -31.39"
         style="fill:#ffffff;fill-opacity:1;fill-rule:nonzero;stroke:none"
         id="path14" />
      <path
         d="m 2101.13,698.41 -66.58,145.352 -69.78,-145.352 z m 27.62,-60.629 h -192.18 l -50.01,-103.82 h -72.98 l 222.13,454.32 214.28,-454.32 h -74.14 l -47.1,103.82"
         style="fill:#ffffff;fill-opacity:1;fill-rule:nonzero;stroke:none"
         id="path16" />
      <path
         d="M 2388.26,961.422 V 594.59 h 132 v -60.629 h -199.74 v 427.461 h 67.74"
         style="fill:#ffffff;fill-opacity:1;fill-rule:nonzero;stroke:none"
         id="path18" />
      <path
         d="M 2666.67,961.422 V 594.59 h 132 v -60.629 h -199.74 v 427.461 h 67.74"
         style="fill:#ffffff;fill-opacity:1;fill-rule:nonzero;stroke:none"
         id="path20" />
      <path
         d="M 3125.05,900.789 H 2945.08 V 798.078 h 174.74 V 737.449 H 2945.08 V 594.59 h 179.97 v -60.629 h -247.72 v 427.461 h 247.72 v -60.633"
         style="fill:#ffffff;fill-opacity:1;fill-rule:nonzero;stroke:none"
         id="path22" />
      <path
         d="m 3272.76,765.129 h 21.51 c 64.16,0 96.24,23.351 96.24,70.051 0,43.742 -31.21,65.609 -93.62,65.609 h -24.13 z m 84.32,-49 138.97,-182.168 h -82.86 L 3284.97,708.93 h -12.21 V 533.961 h -67.74 v 427.461 h 79.37 c 59.31,0 102.15,-10.613 128.51,-31.844 29.07,-23.617 43.61,-54.808 43.61,-93.566 0,-30.274 -9.11,-56.301 -27.33,-78.082 -18.22,-21.782 -42.26,-35.711 -72.1,-41.801"
         style="fill:#ffffff;fill-opacity:1;fill-rule:nonzero;stroke:none"
         id="path24" />
      <path
         d="m 2267.75,2308.53 -185.05,-166 h 169.55 l 185.06,166 h -169.56"
         style="fill:#ffffff;fill-opacity:1;fill-rule:nonzero;stroke:none"
         id="path26" />
      <path
         d="m 1585.45,2308.53 -185.05,-166 h 169.56 l 185.05,166 h -169.56"
         style="fill:#ffffff;fill-opacity:1;fill-rule:nonzero;stroke:none"
         id="path28" />
      <path
         d="M 3067.59,3417.45 1646.37,2142.53 h 359.91 l 1421.23,1274.92 h -359.92"
         style="fill:#ffffff;fill-opacity:1;fill-rule:nonzero;stroke:none"
         id="path30" />
      <path
         d="m 2169.21,2680.09 185.49,166.4 h -169.56 l -185.49,-166.4 h 169.56"
         style="fill:#ffffff;fill-opacity:1;fill-rule:nonzero;stroke:none"
         id="path32" />
      <path
         d="m 2776.21,3224.61 214.97,192.84 h -169.56 l -214.97,-192.84 h 169.56"
         style="fill:#ffffff;fill-opacity:1;fill-rule:nonzero;stroke:none"
         id="path34" />
      <path
         d="M 3749.89,3417.45 2328.67,2142.53 h 391.14 l 1421.22,1274.92 h -391.14"
         style="fill:#ffffff;fill-opacity:1;fill-rule:nonzero;stroke:none"
         id="path36" />
      <path
         d="m 4144.83,3137.06 v 215.25 l -178.58,-160.2 v -215.25 l -434.24,-389.54 v 215.26 l -178.58,-160.2 v -215.26 l -434.24,-389.53 v 215.25 l -178.21,-159.87 v -283.8 l 1404.01,1259.49 v 68.54 l -0.16,-0.14"
         style="fill:#ffffff;fill-opacity:1;fill-rule:nonzero;stroke:none"
         id="path38" />
      <path
         d="m 1647.92,1784.47 h 357.17 v 307.03 h -357.17 v -307.03"
         style="fill:#ffffff;fill-opacity:1;fill-rule:nonzero;stroke:none"
         id="path40" />
      <path
         d="M 963.227,1784.47 H 1320.39 V 2091.5 H 963.227 v -307.03"
         style="fill:#ffffff;fill-opacity:1;fill-rule:nonzero;stroke:none"
         id="path42" />
      <path
         d="m 2332.62,1784.47 h 357.16 v 307.03 h -357.16 v -307.03"
         style="fill:#ffffff;fill-opacity:1;fill-rule:nonzero;stroke:none"
         id="path44" />
      <path
         d="m 3458.51,3224.61 214.97,192.84 h -169.56 l -214.97,-192.84 h 169.56"
         style="fill:#ffffff;fill-opacity:1;fill-rule:nonzero;stroke:none"
         id="path46" />
      <path
         d="M 2381.03,3416.56 960.797,2142.53 h 363.193 l 1421.22,1274.92 -364.18,-0.89"
         style="fill:#ffffff;fill-opacity:1;fill-rule:nonzero;stroke:none"
         id="path48" />
      <path
         d="m 2851.51,2680.09 185.49,166.4 h -169.56 l -185.49,-166.4 h 169.56"
         style="fill:#ffffff;fill-opacity:1;fill-rule:nonzero;stroke:none"
         id="path50" />
    </g>
  </g>
</svg>
