<?xml version="1.0" encoding="UTF-8" standalone="no"?>
<!-- Created with Inkscape (http://www.inkscape.org/) -->

<svg
   version="1.1"
   id="svg2"
   width="680.32001"
   height="680.32001"
   viewBox="0 0 680.32001 680.32001"
   sodipodi:docname="PAP_rgb.eps"
   xmlns:inkscape="http://www.inkscape.org/namespaces/inkscape"
   xmlns:sodipodi="http://sodipodi.sourceforge.net/DTD/sodipodi-0.dtd"
   xmlns="http://www.w3.org/2000/svg"
   xmlns:svg="http://www.w3.org/2000/svg">
  <defs
     id="defs6" />
  <sodipodi:namedview
     id="namedview4"
     pagecolor="#ffffff"
     bordercolor="#000000"
     borderopacity="0.25"
     inkscape:showpageshadow="2"
     inkscape:pageopacity="0.0"
     inkscape:pagecheckerboard="0"
     inkscape:deskcolor="#d1d1d1" />
  <g
     id="g8"
     inkscape:groupmode="layer"
     inkscape:label="ink_ext_XXXXXX"
     transform="matrix(1.3333333,0,0,-1.3333333,0,680.32)">
    <g
       id="g10"
       transform="scale(0.1)">
      <path
         d="M 5102.36,0 H 0 V 5102.36 H 5102.36 V 0"
         style="fill:#b09455;fill-opacity:1;fill-rule:nonzero;stroke:none"
         id="path12" />
      <path
         d="m 2152.86,764.789 h 24.08 c 59.25,0 88.87,22.801 88.87,68.391 0,44.109 -30.55,66.172 -91.64,66.172 h -21.31 z m 0,-59.801 v -173.59 h -64.51 v 427.473 h 73.09 c 35.8,0 62.84,-2.492 81.12,-7.48 18.45,-4.981 34.69,-14.391 48.72,-28.243 24.55,-23.988 36.83,-54.257 36.83,-90.796 0,-39.141 -13.11,-70.141 -39.32,-93.032 -26.21,-22.879 -61.55,-34.332 -106.03,-34.332 h -29.9"
         style="fill:#ffffff;fill-opacity:1;fill-rule:nonzero;stroke:none"
         id="path14" />
      <path
         d="m 2573.67,695.859 -63.4,145.352 -66.44,-145.352 z m 26.3,-60.629 h -183 l -47.62,-103.832 h -69.49 l 211.52,454.321 204.04,-454.321 h -70.6 l -44.85,103.832"
         style="fill:#ffffff;fill-opacity:1;fill-rule:nonzero;stroke:none"
         id="path16" />
      <path
         d="m 2838.76,764.789 h 24.09 c 59.25,0 88.87,22.801 88.87,68.391 0,44.109 -30.55,66.172 -91.64,66.172 h -21.32 z m 0,-59.801 v -173.59 h -64.5 v 427.473 h 73.08 c 35.81,0 62.85,-2.492 81.12,-7.48 18.46,-4.981 34.7,-14.391 48.73,-28.231 24.55,-24 36.82,-54.269 36.82,-90.808 0,-39.133 -13.11,-70.141 -39.31,-93.032 -26.21,-22.879 -61.56,-34.332 -106.04,-34.332 h -29.9"
         style="fill:#ffffff;fill-opacity:1;fill-rule:nonzero;stroke:none"
         id="path18" />
      <path
         d="m 3289.59,3476.25 397.44,356.29 H 2126.52 v 0 -616.98 0 h 872.27 v 0 l 168.77,151.29 122.03,109.4"
         style="fill:#ffffff;fill-opacity:1;fill-rule:nonzero;stroke:none"
         id="path20" />
      <path
         d="m 2076.39,3215.56 v 601.09 l -670.51,-601.09 v 0 h 670.51"
         style="fill:#ffffff;fill-opacity:1;fill-rule:nonzero;stroke:none"
         id="path22" />
      <path
         d="m 1381.91,2602.26 v 0 -815.36 h 1582.62 v 1291.05 2.4 L 2768.6,2602.26 H 1381.91"
         style="fill:#ffffff;fill-opacity:1;fill-rule:nonzero;stroke:none"
         id="path24" />
      <path
         d="m 2864.53,2965.83 81.27,198.31 -1579.38,-0.54 -168.83,-410.66 -41.97,-102.11 1580.03,0.54 128.88,314.46"
         style="fill:#ffffff;fill-opacity:1;fill-rule:nonzero;stroke:none"
         id="path26" />
      <path
         d="m 3710.27,3044.63 v 0 l -441.05,-395.39 -198.32,345.11 -51.5,89.61 v 0 -1278.59 0 l 212.78,190.76 478.09,428.59 v 619.91"
         style="fill:#ffffff;fill-opacity:1;fill-rule:nonzero;stroke:none"
         id="path28" />
      <path
         d="m 3979.92,3366.27 -250.89,436.59 v 0 l -702.85,-630.08 255.67,-444.89 v 0 l 702.84,630.08 v 0 l -4.77,8.3"
         style="fill:#ffffff;fill-opacity:1;fill-rule:nonzero;stroke:none"
         id="path30" />
    </g>
  </g>
</svg>
