<?xml version="1.0" encoding="UTF-8" standalone="no"?>
<!-- Created with Inkscape (http://www.inkscape.org/) -->

<svg
   version="1.1"
   id="svg2"
   width="680.32001"
   height="680.32001"
   viewBox="0 0 680.32001 680.32001"
   sodipodi:docname="PAPIR_TIL_MAKULERING_rgb.eps"
   xmlns:inkscape="http://www.inkscape.org/namespaces/inkscape"
   xmlns:sodipodi="http://sodipodi.sourceforge.net/DTD/sodipodi-0.dtd"
   xmlns="http://www.w3.org/2000/svg"
   xmlns:svg="http://www.w3.org/2000/svg">
  <defs
     id="defs6" />
  <sodipodi:namedview
     id="namedview4"
     pagecolor="#ffffff"
     bordercolor="#000000"
     borderopacity="0.25"
     inkscape:showpageshadow="2"
     inkscape:pageopacity="0.0"
     inkscape:pagecheckerboard="0"
     inkscape:deskcolor="#d1d1d1" />
  <g
     id="g8"
     inkscape:groupmode="layer"
     inkscape:label="ink_ext_XXXXXX"
     transform="matrix(1.3333333,0,0,-1.3333333,0,680.32)">
    <g
       id="g10"
       transform="scale(0.1)">
      <path
         d="M 5102.36,0 H 0 V 5102.36 H 5102.36 V 0"
         style="fill:#3880c5;fill-opacity:1;fill-rule:nonzero;stroke:none"
         id="path12" />
      <path
         d="m 1479.93,1294.99 h 24.08 c 59.25,0 88.88,22.8 88.88,68.38 0,44.11 -30.56,66.17 -91.65,66.17 h -21.31 z m 0,-59.8 v -173.6 h -64.51 v 427.48 h 73.09 c 35.81,0 62.85,-2.5 81.12,-7.49 18.45,-4.98 34.7,-14.39 48.72,-28.23 24.55,-23.99 36.83,-54.27 36.83,-90.81 0,-39.13 -13.11,-70.14 -39.32,-93.03 -26.21,-22.88 -61.55,-34.32 -106.03,-34.32 h -29.9"
         style="fill:#ffffff;fill-opacity:1;fill-rule:nonzero;stroke:none"
         id="path14" />
      <path
         d="m 1897.14,1226.05 -63.4,145.35 -66.45,-145.35 z m 26.3,-60.63 h -183 l -47.62,-103.83 h -69.49 l 211.52,454.33 204.04,-454.33 h -70.59 l -44.86,103.83"
         style="fill:#ffffff;fill-opacity:1;fill-rule:nonzero;stroke:none"
         id="path16" />
      <path
         d="m 2165.83,1294.99 h 24.09 c 59.24,0 88.87,22.8 88.87,68.38 0,44.11 -30.55,66.17 -91.64,66.17 h -21.32 z m 0,-59.8 v -173.6 h -64.5 v 427.48 h 73.08 c 35.81,0 62.85,-2.5 81.12,-7.49 18.46,-4.98 34.7,-14.39 48.73,-28.23 24.55,-23.99 36.82,-54.27 36.82,-90.81 0,-39.13 -13.11,-70.14 -39.31,-93.03 -26.21,-22.88 -61.56,-34.32 -106.04,-34.32 h -29.9"
         style="fill:#ffffff;fill-opacity:1;fill-rule:nonzero;stroke:none"
         id="path18" />
      <path
         d="m 2479.24,1489.07 v -427.48 h -64.51 v 427.48 h 64.51"
         style="fill:#ffffff;fill-opacity:1;fill-rule:nonzero;stroke:none"
         id="path20" />
      <path
         d="m 2635.65,1292.78 h 20.49 c 61.09,0 91.64,23.34 91.64,70.04 0,43.75 -29.71,65.61 -89.15,65.61 h -22.98 z m 80.29,-49.01 132.34,-182.18 h -78.91 l -122.09,174.98 h -11.63 v -174.98 h -64.5 v 427.48 h 75.58 c 56.47,0 97.26,-10.62 122.37,-31.84 27.69,-23.63 41.52,-54.83 41.52,-93.58 0,-30.28 -8.67,-56.29 -26.02,-78.07 -17.34,-21.79 -40.24,-35.72 -68.66,-41.81"
         style="fill:#ffffff;fill-opacity:1;fill-rule:nonzero;stroke:none"
         id="path22" />
      <path
         d="m 3205.42,1428.43 v -366.84 h -64.5 v 366.84 h -98.29 v 60.64 h 260.8 v -60.64 h -98.01"
         style="fill:#ffffff;fill-opacity:1;fill-rule:nonzero;stroke:none"
         id="path24" />
      <path
         d="m 3436.33,1489.07 v -427.48 h -64.51 v 427.48 h 64.51"
         style="fill:#ffffff;fill-opacity:1;fill-rule:nonzero;stroke:none"
         id="path26" />
      <path
         d="m 3587.34,1489.07 v -366.84 h 125.7 v -60.64 h -190.2 v 427.48 h 64.5"
         style="fill:#ffffff;fill-opacity:1;fill-rule:nonzero;stroke:none"
         id="path28" />
      <path
         d="m 684.883,526.129 89.98,459.582 146.735,-332.231 151.992,332.231 80.84,-459.582 h -66.17 L 1047.01,784.148 920.488,506.469 797.563,784.441 751.605,526.129 h -66.722"
         style="fill:#ffffff;fill-opacity:1;fill-rule:nonzero;stroke:none"
         id="path30" />
      <path
         d="m 1482.38,690.578 -63.4,145.352 -66.45,-145.352 z m 26.3,-60.637 h -183 l -47.62,-103.812 h -69.49 l 211.51,454.312 204.05,-454.312 h -70.6 l -44.85,103.812"
         style="fill:#ffffff;fill-opacity:1;fill-rule:nonzero;stroke:none"
         id="path32" />
      <path
         d="m 1754.68,783.051 166.38,170.539 h 86.11 L 1813.92,760.07 2008.28,526.129 h -86.39 l -153.93,190.203 -13.28,-13.293 v -176.91 h -64.51 V 953.59 h 64.51 V 783.051"
         style="fill:#ffffff;fill-opacity:1;fill-rule:nonzero;stroke:none"
         id="path34" />
      <path
         d="M 2133.97,953.59 V 696.301 c 0,-36.699 6,-63.531 18,-80.5 17.9,-24.531 43.09,-36.789 75.58,-36.789 32.66,0 57.95,12.258 75.86,36.789 11.99,16.41 17.99,43.25 17.99,80.5 V 953.59 h 64.51 V 678.398 c 0,-45.039 -14.03,-82.136 -42.08,-111.296 -31.56,-32.493 -70.32,-48.731 -116.28,-48.731 -45.96,0 -84.63,16.238 -116,48.731 -28.06,29.16 -42.09,66.257 -42.09,111.296 V 953.59 h 64.51"
         style="fill:#ffffff;fill-opacity:1;fill-rule:nonzero;stroke:none"
         id="path36" />
      <path
         d="M 2531.24,953.59 V 586.762 h 125.69 v -60.633 h -190.2 V 953.59 h 64.51"
         style="fill:#ffffff;fill-opacity:1;fill-rule:nonzero;stroke:none"
         id="path38" />
      <path
         d="M 2972.01,892.961 H 2800.63 V 790.25 h 166.4 v -60.641 h -166.4 V 586.762 h 171.38 V 526.129 H 2736.13 V 953.59 h 235.88 v -60.629"
         style="fill:#ffffff;fill-opacity:1;fill-rule:nonzero;stroke:none"
         id="path40" />
      <path
         d="m 3117.64,757.301 h 20.48 c 61.09,0 91.64,23.347 91.64,70.051 0,43.738 -29.72,65.609 -89.15,65.609 h -22.97 z m 80.28,-49.012 132.33,-182.16 h -78.89 l -122.1,174.973 h -11.62 V 526.129 h -64.52 V 953.59 h 75.59 c 56.47,0 97.27,-10.621 122.36,-31.84 27.69,-23.621 41.54,-54.809 41.54,-93.57 0,-30.282 -8.68,-56.301 -26.03,-78.078 -17.35,-21.782 -40.24,-35.711 -68.66,-41.813"
         style="fill:#ffffff;fill-opacity:1;fill-rule:nonzero;stroke:none"
         id="path42" />
      <path
         d="M 3460.8,953.59 V 526.129 h -64.51 V 953.59 h 64.51"
         style="fill:#ffffff;fill-opacity:1;fill-rule:nonzero;stroke:none"
         id="path44" />
      <path
         d="M 3545.5,526.129 V 982.66 L 3857.24,656.531 V 953.59 h 64.51 V 500.102 L 3610.01,825.398 V 526.129 h -64.51"
         style="fill:#ffffff;fill-opacity:1;fill-rule:nonzero;stroke:none"
         id="path46" />
      <path
         d="m 4248.44,748.711 h 176.63 v -14.109 c 0,-32.122 -3.79,-60.551 -11.35,-85.274 -7.38,-22.887 -19.84,-44.297 -37.37,-64.226 -39.69,-44.672 -90.17,-67 -151.45,-67 -59.8,0 -111.01,21.589 -153.65,64.777 -42.64,43.371 -63.96,95.422 -63.96,156.152 0,62.02 21.69,114.61 65.06,157.809 43.37,43.371 96.17,65.058 158.36,65.058 33.41,0 64.6,-6.796 93.59,-20.386 27.68,-13.614 54.9,-35.703 81.67,-66.274 l -45.96,-44.019 c -35.07,46.691 -77.79,70.043 -128.18,70.043 -45.23,0 -83.16,-15.59 -113.79,-46.793 -30.65,-30.629 -45.96,-69.028 -45.96,-115.16 0,-47.629 17.07,-86.848 51.22,-117.668 31.92,-28.61 66.53,-42.911 103.82,-42.911 31.74,0 60.25,10.68 85.55,32.032 25.28,21.539 39.4,47.308 42.36,77.328 h -106.59 v 60.621"
         style="fill:#ffffff;fill-opacity:1;fill-rule:nonzero;stroke:none"
         id="path48" />
      <path
         d="m 2529.51,4531.48 -822.17,-823.21 822.36,0.01 z"
         style="fill:#ffffff;fill-opacity:1;fill-rule:nonzero;stroke:none"
         id="path50" />
      <path
         d="m 3040.33,3146.58 v -739.84 h 178.78 v 739.84 h 51.03 v -867.4 h 177.99 l 0.01,2296.06 H 2580.68 V 3657.25 H 1662.31 V 2279.18 h 178.01 v 867.4 h 51.02 V 2024.06 h 178.78 v 1122.52 h 51.02 v -739.84 h 178.78 v 739.84 h 51.02 v -994.96 h 178.78 v 994.96 h 51.02 v -867.4 h 178.77 v 867.4 h 51.03 V 2024.06 h 178.78 v 1122.52 h 51.01"
         style="fill:#ffffff;fill-opacity:1;fill-rule:nonzero;stroke:none"
         id="path52" />
    </g>
  </g>
</svg>
