<?xml version="1.0" encoding="UTF-8" standalone="no"?>
<!-- Created with Inkscape (http://www.inkscape.org/) -->

<svg
   version="1.1"
   id="svg2"
   width="680.32001"
   height="680.32001"
   viewBox="0 0 680.32001 680.32001"
   sodipodi:docname="PAPIR_rgb.eps"
   xmlns:inkscape="http://www.inkscape.org/namespaces/inkscape"
   xmlns:sodipodi="http://sodipodi.sourceforge.net/DTD/sodipodi-0.dtd"
   xmlns="http://www.w3.org/2000/svg"
   xmlns:svg="http://www.w3.org/2000/svg">
  <defs
     id="defs6" />
  <sodipodi:namedview
     id="namedview4"
     pagecolor="#ffffff"
     bordercolor="#000000"
     borderopacity="0.25"
     inkscape:showpageshadow="2"
     inkscape:pageopacity="0.0"
     inkscape:pagecheckerboard="0"
     inkscape:deskcolor="#d1d1d1" />
  <g
     id="g8"
     inkscape:groupmode="layer"
     inkscape:label="ink_ext_XXXXXX"
     transform="matrix(1.3333333,0,0,-1.3333333,0,680.32)">
    <g
       id="g10"
       transform="scale(0.1)">
      <path
         d="M 5102.36,0 H 0 V 5102.36 H 5102.36 V 0"
         style="fill:#3983c5;fill-opacity:1;fill-rule:nonzero;stroke:none"
         id="path12" />
      <path
         d="m 1897.48,764.789 h 24.09 c 59.24,0 88.86,22.793 88.86,68.391 0,44.109 -30.54,66.16 -91.63,66.16 h -21.32 z m 0,-59.801 v -173.59 h -64.51 v 427.473 h 73.09 c 35.8,0 62.85,-2.492 81.12,-7.48 18.45,-4.981 34.7,-14.403 48.73,-28.243 24.54,-24 36.82,-54.257 36.82,-90.796 0,-39.133 -13.11,-70.153 -39.31,-93.032 -26.21,-22.89 -61.56,-34.332 -106.04,-34.332 h -29.9"
         style="fill:#ffffff;fill-opacity:1;fill-rule:nonzero;stroke:none"
         id="path14" />
      <path
         d="m 2314.7,695.852 -63.41,145.347 -66.44,-145.347 z M 2341,635.23 h -183.01 l -47.61,-103.832 h -69.5 l 211.52,454.321 204.04,-454.321 h -70.6 L 2341,635.23"
         style="fill:#ffffff;fill-opacity:1;fill-rule:nonzero;stroke:none"
         id="path16" />
      <path
         d="m 2583.39,764.789 h 24.08 c 59.25,0 88.88,22.793 88.88,68.391 0,44.109 -30.56,66.16 -91.64,66.16 h -21.32 z m 0,-59.801 v -173.59 h -64.51 v 427.473 h 73.09 c 35.8,0 62.84,-2.492 81.12,-7.48 18.45,-4.981 34.69,-14.403 48.73,-28.243 24.54,-24 36.81,-54.257 36.81,-90.796 0,-39.133 -13.1,-70.153 -39.3,-93.032 -26.22,-22.89 -61.57,-34.332 -106.05,-34.332 h -29.89"
         style="fill:#ffffff;fill-opacity:1;fill-rule:nonzero;stroke:none"
         id="path18" />
      <path
         d="M 2898.58,958.871 V 531.398 h -64.5 v 427.473 h 64.5"
         style="fill:#ffffff;fill-opacity:1;fill-rule:nonzero;stroke:none"
         id="path20" />
      <path
         d="m 3056.81,762.582 h 20.48 c 61.1,0 91.64,23.34 91.64,70.039 0,43.738 -29.71,65.609 -89.15,65.609 h -22.97 z m 80.29,-49 132.33,-182.184 h -78.9 l -122.09,174.981 h -11.63 V 531.398 h -64.51 v 427.473 h 75.58 c 56.48,0 97.27,-10.621 122.37,-31.851 27.69,-23.622 41.53,-54.809 41.53,-93.571 0,-30.269 -8.68,-56.301 -26.02,-78.078 -17.35,-21.769 -40.24,-35.711 -68.66,-41.789"
         style="fill:#ffffff;fill-opacity:1;fill-rule:nonzero;stroke:none"
         id="path22" />
      <path
         d="m 2525.68,3214.98 -0.19,823.2 -822.17,-823.21 z"
         style="fill:#ffffff;fill-opacity:1;fill-rule:nonzero;stroke:none"
         id="path24" />
      <path
         d="m 2576.66,4081.94 v -917.99 h -918.37 v -1633.2 h 1785.82 l 0.01,2551.19 h -867.46"
         style="fill:#ffffff;fill-opacity:1;fill-rule:nonzero;stroke:none"
         id="path26" />
    </g>
  </g>
</svg>
