<?xml version="1.0" encoding="UTF-8" standalone="no"?>
<!-- Created with Inkscape (http://www.inkscape.org/) -->

<svg
   version="1.1"
   id="svg2"
   width="680.32001"
   height="680.32001"
   viewBox="0 0 680.32001 680.32001"
   sodipodi:docname="PLAST_rgb.eps"
   xmlns:inkscape="http://www.inkscape.org/namespaces/inkscape"
   xmlns:sodipodi="http://sodipodi.sourceforge.net/DTD/sodipodi-0.dtd"
   xmlns="http://www.w3.org/2000/svg"
   xmlns:svg="http://www.w3.org/2000/svg">
  <defs
     id="defs6" />
  <sodipodi:namedview
     id="namedview4"
     pagecolor="#ffffff"
     bordercolor="#000000"
     borderopacity="0.25"
     inkscape:showpageshadow="2"
     inkscape:pageopacity="0.0"
     inkscape:pagecheckerboard="0"
     inkscape:deskcolor="#d1d1d1" />
  <g
     id="g8"
     inkscape:groupmode="layer"
     inkscape:label="ink_ext_XXXXXX"
     transform="matrix(1.3333333,0,0,-1.3333333,0,680.32)">
    <g
       id="g10"
       transform="scale(0.1)">
      <path
         d="M 5102.36,0 H 0 V 5102.36 H 5102.36 V 0"
         style="fill:#8d1b8f;fill-opacity:1;fill-rule:nonzero;stroke:none"
         id="path12" />
      <path
         d="m 1829.85,765.641 h 24.09 c 59.24,0 88.87,22.789 88.87,68.379 0,44.109 -30.55,66.171 -91.64,66.171 h -21.32 z m 0,-59.813 V 532.25 h -64.51 v 427.461 h 73.09 c 35.81,0 62.85,-2.492 81.12,-7.473 18.46,-4.988 34.7,-14.398 48.73,-28.238 24.54,-24 36.82,-54.27 36.82,-90.809 0,-39.132 -13.11,-70.14 -39.31,-93.031 -26.21,-22.879 -61.56,-34.332 -106.04,-34.332 h -29.9"
         style="fill:#ffffff;fill-opacity:1;fill-rule:nonzero;stroke:none"
         id="path14" />
      <path
         d="M 2136.05,959.711 V 592.879 h 125.69 V 532.25 h -190.19 v 427.461 h 64.5"
         style="fill:#ffffff;fill-opacity:1;fill-rule:nonzero;stroke:none"
         id="path16" />
      <path
         d="m 2592.61,696.699 -63.4,145.352 -66.45,-145.352 z m 26.3,-60.629 h -183 l -47.62,-103.82 h -69.49 l 211.51,454.32 204.05,-454.32 h -70.6 l -44.85,103.82"
         style="fill:#ffffff;fill-opacity:1;fill-rule:nonzero;stroke:none"
         id="path18" />
      <path
         d="m 3023.01,896.309 -52.33,-31.008 c -9.78,16.98 -19.1,28.058 -27.96,33.23 -9.24,5.899 -21.14,8.86 -35.72,8.86 -17.9,0 -32.76,-5.09 -44.57,-15.243 -11.82,-9.976 -17.72,-22.539 -17.72,-37.679 0,-20.879 15.5,-37.68 46.51,-50.418 l 42.64,-17.461 c 34.7,-14.039 60.07,-31.168 76.13,-51.399 16.06,-20.222 24.09,-45.019 24.09,-74.382 0,-39.348 -13.11,-71.86 -39.31,-97.528 -26.4,-25.859 -59.16,-38.793 -98.29,-38.793 -37.1,0 -67.74,11.043 -91.91,33.102 -23.81,22.051 -38.67,53.012 -44.58,92.871 l 65.34,14.398 c 2.95,-25.097 8.12,-42.449 15.5,-52.05 13.29,-18.457 32.67,-27.68 58.14,-27.68 20.12,0 36.82,6.73 50.11,20.191 13.29,13.461 19.94,30.52 19.94,51.18 0,8.301 -1.16,15.91 -3.46,22.828 -2.31,6.91 -5.91,13.281 -10.8,19.094 -4.89,5.808 -11.21,11.25 -18.97,16.316 -7.75,5.071 -16.98,9.91 -27.68,14.524 l -41.25,17.16 c -58.51,24.707 -87.77,60.859 -87.77,108.437 0,32.09 12.28,58.93 36.83,80.512 24.54,21.758 55.09,32.649 91.64,32.649 49.28,0 87.76,-23.911 115.45,-71.711"
         style="fill:#ffffff;fill-opacity:1;fill-rule:nonzero;stroke:none"
         id="path20" />
      <path
         d="M 3237.85,899.078 V 532.25 h -64.51 v 366.828 h -98.29 v 60.633 h 260.8 v -60.633 h -98"
         style="fill:#ffffff;fill-opacity:1;fill-rule:nonzero;stroke:none"
         id="path22" />
      <path
         d="m 2974.93,3827.16 v 0.16 l -10.18,-13.98 z"
         style="fill:#ffffff;fill-opacity:1;fill-rule:nonzero;stroke:none"
         id="path24" />
      <path
         d="m 2513.58,3698.54 c 0,-49.11 -40.19,-89.29 -89.3,-89.29 h -586.77 c -49.11,0 -89.29,40.18 -89.29,89.29 v 0 c 0,49.11 40.18,89.3 89.29,89.3 h 586.77 c 49.11,0 89.3,-40.19 89.3,-89.3 z m 38.53,-579.19 c 0,2.06 0.03,3.99 0.06,5.9 0.02,1.65 0.05,3.29 0.05,5.03 l -0.01,6.2 c -0.1,64.95 -0.3,200.07 92.15,321.34 l 281.34,386.19 v 168.17 c -234.08,29.56 -668.66,22.49 -852.12,22.49 -813.9,0 -834.44,41.27 -834.89,44.09 l 37.1,-742.04 c 21.65,-202.49 55.15,-410.8 162.81,-581.75 10.15,-16.12 21.35,-33.29 20.77,-52.49 -0.45,-15.06 -8.15,-28.71 -15.12,-41.97 -65.46,-124.45 -81.73,-263.72 -96.82,-404.38 -10.82,-100.87 -21.64,-201.73 -32.46,-302.59 -8.88,-82.76 -8.64,-138.05 -17.52,-220.82 -0.73,-30.75 -30.1,-57.34 -48.7,-81.43 -18.6,-24.09 -24.35,-78.31 -25.94,-122.41 38.38,-14.63 286.58,-8.58 496.59,-1.18 133.85,4.72 254.3,20.75 287.59,24.82 182.9,22.35 372.41,26.17 561.58,22.58 -10.77,21.58 -16.46,45.03 -16.46,69.02 v 1475.23"
         style="fill:#ffffff;fill-opacity:1;fill-rule:nonzero;stroke:none"
         id="path26" />
      <path
         d="m 2602.81,3121.34 c 0,3.79 0.11,7.07 0.11,10.77 0,41.45 -1.4,112.58 24.27,189.92 -25.53,-73.36 -25.43,-142.07 -25.36,-185.48 l 0.01,-6.27 c 0,-1.99 -0.03,-3.87 -0.06,-5.76 -0.02,-1.68 -0.05,-3.36 -0.05,-5.17 V 1644.12 c 0,-24.79 9.68,-49.83 26.88,-70.39 0.02,-0.01 0.04,-0.01 0.04,-0.01 -16.15,19.14 -25.84,43.37 -25.84,69.74 v 1477.88"
         style="fill:#ffffff;fill-opacity:1;fill-rule:nonzero;stroke:none"
         id="path28" />
      <path
         d="m 1238.68,4078.92 0.01,-0.16"
         style="fill:none;stroke:#ffffff;stroke-width:7.5;stroke-linecap:round;stroke-linejoin:round;stroke-miterlimit:4;stroke-dasharray:none;stroke-opacity:1"
         id="path30" />
      <path
         d="m 3698.17,2533.49 c 0,-48.91 -40.01,-88.92 -88.92,-88.92 h -0.73 c -48.91,0 -88.93,40.01 -88.93,88.92 V 3121 c 0,48.91 40.02,88.92 88.93,88.92 h 0.73 c 48.91,0 88.92,-40.01 88.92,-88.92 z m 62.82,927.46 -403.38,366.12 v 509.55 l -382.29,1.12 v -509.9 l -0.39,-0.52 v -0.16 l -10.18,-13.82 -280.78,-385.41 c -26.62,-34.86 -44.61,-70.91 -56.78,-105.9 -25.67,-77.34 -24.27,-148.47 -24.27,-189.92 0,-3.7 -0.11,-6.98 -0.11,-10.77 V 1643.46 c 0,-26.37 9.69,-50.6 25.86,-69.74 21.76,-25.75 55.29,-42.28 92.92,-42.28 h 1037.95 c 65.6,0 118.78,50.15 118.78,112.02 v 1481.48 c 0,4.63 0.07,8.97 0.07,13.68 0,76.68 -7.88,220.09 -117.4,322.33"
         style="fill:#ffffff;fill-opacity:1;fill-rule:nonzero;stroke:none"
         id="path32" />
    </g>
  </g>
</svg>
