<?xml version="1.0" encoding="UTF-8" standalone="no"?>
<!-- Created with Inkscape (http://www.inkscape.org/) -->

<svg
   version="1.1"
   id="svg2"
   width="680.32001"
   height="680.32001"
   viewBox="0 0 680.32001 680.32001"
   sodipodi:docname="PLASTKOFANGERE_rgb.eps"
   xmlns:inkscape="http://www.inkscape.org/namespaces/inkscape"
   xmlns:sodipodi="http://sodipodi.sourceforge.net/DTD/sodipodi-0.dtd"
   xmlns="http://www.w3.org/2000/svg"
   xmlns:svg="http://www.w3.org/2000/svg">
  <defs
     id="defs6" />
  <sodipodi:namedview
     id="namedview4"
     pagecolor="#ffffff"
     bordercolor="#000000"
     borderopacity="0.25"
     inkscape:showpageshadow="2"
     inkscape:pageopacity="0.0"
     inkscape:pagecheckerboard="0"
     inkscape:deskcolor="#d1d1d1" />
  <g
     id="g8"
     inkscape:groupmode="layer"
     inkscape:label="ink_ext_XXXXXX"
     transform="matrix(1.3333333,0,0,-1.3333333,0,680.32)">
    <g
       id="g10"
       transform="scale(0.1)">
      <path
         d="M 5102.36,0 H 0 V 5102.36 H 5102.36 V 0"
         style="fill:#8d1b90;fill-opacity:1;fill-rule:nonzero;stroke:none"
         id="path12" />
      <path
         d="m 907.648,790.09 166.392,170.551 h 86.1 L 966.895,767.121 1161.25,533.172 h -86.38 L 920.938,723.371 907.648,710.09 V 533.172 h -64.507 v 427.469 h 64.507 V 790.09"
         style="fill:#ffffff;fill-opacity:1;fill-rule:nonzero;stroke:none"
         id="path14" />
      <path
         d="m 1238.21,748.012 c 0,-47.25 15.87,-86.102 47.62,-116.551 31.56,-30.461 68.01,-45.68 109.36,-45.68 44.85,0 82.69,15.5 113.51,46.508 30.82,31.371 46.24,69.582 46.24,114.621 0,45.578 -15.23,83.789 -45.68,114.61 -30.28,31.011 -67.74,46.519 -112.41,46.519 -44.48,0 -82.04,-15.508 -112.68,-46.519 -30.64,-30.641 -45.96,-68.469 -45.96,-113.508 z m -65.06,0.828 c 0,60.172 22.06,111.851 66.17,155.039 43.93,43.191 96.71,64.793 158.36,64.793 60.91,0 113.14,-21.781 156.7,-65.344 43.75,-43.558 65.62,-95.887 65.62,-156.976 0,-61.461 -21.97,-113.602 -65.9,-156.422 -44.11,-43.008 -97.36,-64.508 -159.74,-64.508 -55.19,0 -104.75,19.109 -148.67,57.308 -48.36,42.27 -72.54,97.641 -72.54,166.11"
         style="fill:#ffffff;fill-opacity:1;fill-rule:nonzero;stroke:none"
         id="path16" />
      <path
         d="M 1914.57,900.012 H 1765.62 V 797.289 h 143.69 V 736.66 H 1765.62 V 533.172 h -64.5 v 427.469 h 213.45 v -60.629"
         style="fill:#ffffff;fill-opacity:1;fill-rule:nonzero;stroke:none"
         id="path18" />
      <path
         d="m 2185.89,697.629 -63.4,145.351 -66.45,-145.351 z m 26.3,-60.641 h -183 l -47.62,-103.816 h -69.49 l 211.52,454.316 204.04,-454.316 h -70.6 l -44.85,103.816"
         style="fill:#ffffff;fill-opacity:1;fill-rule:nonzero;stroke:none"
         id="path20" />
      <path
         d="M 2381.07,533.172 V 989.711 L 2692.81,663.57 v 297.071 h 64.51 V 507.148 L 2445.58,832.461 V 533.172 h -64.51"
         style="fill:#ffffff;fill-opacity:1;fill-rule:nonzero;stroke:none"
         id="path22" />
      <path
         d="m 3084.01,755.762 h 176.63 v -14.114 c 0,-32.117 -3.78,-60.539 -11.35,-85.269 -7.38,-22.891 -19.84,-44.301 -37.37,-64.238 -39.69,-44.672 -90.17,-66.993 -151.44,-66.993 -59.8,0 -111.02,21.59 -153.66,64.782 -42.63,43.371 -63.95,95.422 -63.95,156.152 0,62.008 21.68,114.609 65.06,157.797 43.37,43.371 96.16,65.062 158.36,65.062 33.4,0 64.6,-6.832 93.58,-20.48 27.68,-13.66 54.91,-35.813 81.67,-66.449 l -45.96,-44.024 c -35.07,46.692 -77.79,70.051 -128.18,70.051 -45.22,0 -83.15,-15.598 -113.79,-46.789 -30.64,-30.641 -45.96,-69.039 -45.96,-115.168 0,-47.621 17.07,-86.852 51.22,-117.672 31.93,-28.609 66.54,-42.91 103.82,-42.91 31.74,0 60.26,10.699 85.55,32.109 25.29,21.602 39.4,47.442 42.36,77.532 h -106.59 v 60.621"
         style="fill:#ffffff;fill-opacity:1;fill-rule:nonzero;stroke:none"
         id="path24" />
      <path
         d="M 3577.64,900.012 H 3406.27 V 797.289 h 166.39 V 736.66 H 3406.27 V 593.809 h 171.37 v -60.637 h -235.88 v 427.469 h 235.88 v -60.629"
         style="fill:#ffffff;fill-opacity:1;fill-rule:nonzero;stroke:none"
         id="path26" />
      <path
         d="m 3726.87,764.352 h 20.49 c 61.08,0 91.63,23.339 91.63,70.039 0,43.738 -29.71,65.621 -89.14,65.621 h -22.98 z m 80.29,-49.012 132.33,-182.168 h -78.9 L 3738.5,708.148 h -11.63 V 533.172 h -64.51 v 427.469 h 75.58 c 56.48,0 97.27,-10.621 122.37,-31.84 27.69,-23.629 41.53,-54.821 41.53,-93.582 0,-30.27 -8.68,-56.289 -26.02,-78.071 -17.35,-21.777 -40.24,-35.707 -68.66,-41.808"
         style="fill:#ffffff;fill-opacity:1;fill-rule:nonzero;stroke:none"
         id="path28" />
      <path
         d="M 4239.6,900.012 H 4068.23 V 797.289 h 166.39 V 736.66 H 4068.23 V 593.809 h 171.37 v -60.637 h -235.88 v 427.469 h 235.88 v -60.629"
         style="fill:#ffffff;fill-opacity:1;fill-rule:nonzero;stroke:none"
         id="path30" />
      <path
         d="m 1818.47,1303.74 h 24.09 c 59.24,0 88.87,22.8 88.87,68.39 0,44.11 -30.55,66.16 -91.64,66.16 h -21.32 z m 0,-59.8 v -173.59 h -64.5 v 427.47 h 73.08 c 35.81,0 62.85,-2.49 81.12,-7.48 18.46,-4.98 34.7,-14.39 48.73,-28.23 24.54,-24 36.82,-54.27 36.82,-90.81 0,-39.13 -13.11,-70.14 -39.31,-93.03 -26.21,-22.89 -61.56,-34.33 -106.04,-34.33 h -29.9"
         style="fill:#ffffff;fill-opacity:1;fill-rule:nonzero;stroke:none"
         id="path32" />
      <path
         d="m 2124.67,1497.82 v -366.83 h 125.7 v -60.64 h -190.2 v 427.47 h 64.5"
         style="fill:#ffffff;fill-opacity:1;fill-rule:nonzero;stroke:none"
         id="path34" />
      <path
         d="m 2579.97,1234.81 -63.4,145.35 -66.45,-145.35 z m 26.3,-60.63 h -183 l -47.62,-103.83 h -69.49 l 211.52,454.32 204.04,-454.32 h -70.6 l -44.85,103.83"
         style="fill:#ffffff;fill-opacity:1;fill-rule:nonzero;stroke:none"
         id="path36" />
      <path
         d="m 3011.45,1434.42 -52.33,-31.01 c -9.78,16.98 -19.1,28.05 -27.96,33.22 -9.23,5.91 -21.14,8.86 -35.72,8.86 -17.9,0 -32.76,-5.08 -44.57,-15.24 -11.81,-9.97 -17.72,-22.53 -17.72,-37.68 0,-20.87 15.5,-37.67 46.51,-50.42 l 42.64,-17.45 c 34.7,-14.04 60.08,-31.17 76.13,-51.4 16.06,-20.23 24.09,-45.02 24.09,-74.38 0,-39.35 -13.11,-71.86 -39.31,-97.53 -26.4,-25.86 -59.16,-38.79 -98.29,-38.79 -37.1,0 -67.74,11.03 -91.91,33.1 -23.81,22.04 -38.67,53 -44.58,92.87 l 65.34,14.4 c 2.95,-25.11 8.12,-42.46 15.5,-52.05 13.29,-18.46 32.67,-27.69 58.14,-27.69 20.12,0 36.83,6.73 50.11,20.2 13.29,13.46 19.94,30.52 19.94,51.18 0,8.3 -1.16,15.91 -3.46,22.82 -2.31,6.92 -5.91,13.28 -10.8,19.09 -4.89,5.81 -11.21,11.26 -18.96,16.33 -7.76,5.07 -16.99,9.91 -27.69,14.52 l -41.25,17.15 c -58.51,24.72 -87.76,60.87 -87.76,108.45 0,32.09 12.27,58.93 36.82,80.51 24.54,21.76 55.09,32.65 91.64,32.65 49.28,0 87.76,-23.91 115.45,-71.71"
         style="fill:#ffffff;fill-opacity:1;fill-rule:nonzero;stroke:none"
         id="path38" />
      <path
         d="m 3228.09,1437.19 v -366.84 h -64.51 v 366.84 h -98.29 v 60.63 h 260.8 v -60.63 h -98"
         style="fill:#ffffff;fill-opacity:1;fill-rule:nonzero;stroke:none"
         id="path40" />
      <path
         d="m 3326.78,1305.63 h 123.48 v -61.23 h -123.48 v 61.23"
         style="fill:#ffffff;fill-opacity:1;fill-rule:nonzero;stroke:none"
         id="path42" />
      <path
         d="m 3777.32,2929.54 c -70.45,0 -127.56,57.11 -127.56,127.56 0,70.45 57.11,127.56 127.56,127.56 70.45,0 127.56,-57.11 127.56,-127.56 0,-70.45 -57.11,-127.56 -127.56,-127.56 z m -476.11,85.31 -0.01,-0.05 c -0.01,0 -0.01,-0.01 -0.01,-0.02 l -1.64,-6.28 H 1765.49 l -1.48,5.57 c -1.43,5.31 -2.21,10.9 -2.21,16.66 0,35.23 28.55,63.78 63.78,63.78 h 1413.84 c 35.23,0 63.78,-28.55 63.78,-63.78 0,-5.48 -0.69,-10.8 -1.99,-15.88 z m -38.35,-146.79 H 1802.78 l -23.74,89.42 H 3286.22 Z M 3128.71,2731.8 H 1937.1 c -55.61,0 -102.9,35.59 -120.36,85.24 h 1432.33 c -17.46,-49.64 -64.75,-85.24 -120.36,-85.24 z m -1841.03,197.74 c -70.45,0 -127.56,57.11 -127.56,127.56 0,70.45 57.11,127.56 127.56,127.56 70.45,0 127.56,-57.11 127.56,-127.56 0,-70.45 -57.11,-127.56 -127.56,-127.56 z m 2915.73,398.51 c 0,47.2 -25.65,88.38 -63.76,110.44 -1.86,-2.41 -104.48,-148.62 -302.74,-148.62 -97.68,0 -2511.14,0 -2608.82,0 -198.26,0 -300.883,146.21 -302.742,148.62 -38.106,-22.06 -63.758,-63.24 -63.758,-110.44 0,-0.02 0.004,-0.05 0.004,-0.08 0,-0.03 -0.004,-0.06 -0.004,-0.08 l 0.004,-0.03 c 0.019,-10.79 1.406,-21.26 3.953,-31.26 l 0.09,-0.73 144.993,-549.95 0.02,0.01 c 32.02,-119.77 141.25,-207.98 271.11,-207.98 h 0.06 2501.36 0.06 c 129.86,0 239.1,88.21 271.11,207.98 l 0.02,-0.01 144.99,549.95 0.1,0.73 c 2.54,10 3.93,20.47 3.95,31.26 v 0.03 c 0,0.02 0,0.05 0,0.08 0,0.03 0,0.06 0,0.08"
         style="fill:#ffffff;fill-opacity:1;fill-rule:nonzero;stroke:none"
         id="path44" />
    </g>
  </g>
</svg>
