<?xml version="1.0" encoding="UTF-8" standalone="no"?>
<!-- Created with Inkscape (http://www.inkscape.org/) -->

<svg
   version="1.1"
   id="svg2"
   width="680.32001"
   height="680.32001"
   viewBox="0 0 680.32001 680.32001"
   sodipodi:docname="PLASTHAVEMOEBLER_rgb.icon.svg"
   inkscape:version="1.3.2 (091e20e, 2023-11-25, custom)"
   xmlns:inkscape="http://www.inkscape.org/namespaces/inkscape"
   xmlns:sodipodi="http://sodipodi.sourceforge.net/DTD/sodipodi-0.dtd"
   xmlns="http://www.w3.org/2000/svg"
   xmlns:svg="http://www.w3.org/2000/svg">
  <defs
     id="defs6" />
  <sodipodi:namedview
     id="namedview4"
     pagecolor="#ffffff"
     bordercolor="#000000"
     borderopacity="0.25"
     inkscape:showpageshadow="2"
     inkscape:pageopacity="0.0"
     inkscape:pagecheckerboard="0"
     inkscape:deskcolor="#d1d1d1"
     inkscape:zoom="1.6859713"
     inkscape:cx="340.16"
     inkscape:cy="340.16"
     inkscape:window-width="2560"
     inkscape:window-height="1361"
     inkscape:window-x="2551"
     inkscape:window-y="-9"
     inkscape:window-maximized="1"
     inkscape:current-layer="g8" />
  <g
     id="g8"
     inkscape:groupmode="layer"
     inkscape:label="ink_ext_XXXXXX"
     transform="matrix(1.3333333,0,0,-1.3333333,0,680.32)">
    <g
       id="g10"
       transform="scale(0.1)">
      <path
         d="M 5102.36,0 H 0 V 5102.36 H 5102.36 V 0"
         style="fill:#8d1c90;fill-opacity:1;fill-rule:nonzero;stroke:none"
         id="path12" />
      <path
         d="m 1928.93,3337.2 c 73.05,22.28 126.63,89.67 128.13,169.56 h 0.04 v 204.09 c 0,86.3 21.85,169.23 62.89,242.53 18.25,-24.76 49.36,-76.23 80.32,-170.18 28.21,-85.59 50.68,-188.96 66.79,-307.23 18.64,-136.74 28.76,-293.83 30.16,-467.46 h -212.02 c -76.29,3.09 -112.58,18.37 -143.71,55.91 -38.92,46.93 -62.69,128.69 -64.93,264.95 18.19,0.04 35.76,2.77 52.33,7.83 z m 273.88,725.41 c 81.96,81.96 187.48,131.79 301.28,143.19 V 3008.51 h -104.78 c -1.46,185.48 -12.7,352.9 -33.46,498.19 -18.04,126.26 -43.33,236.54 -75.18,327.76 -37.02,106.06 -79.44,173.58 -109.46,205.12 6.94,7.86 14.12,15.56 21.6,23.03 z m 703.54,0 c 7.48,-7.47 14.67,-15.17 21.6,-23.03 -30.01,-31.54 -72.44,-99.07 -109.46,-205.12 -31.85,-91.22 -57.14,-201.5 -75.18,-327.76 -20.76,-145.29 -31.99,-312.71 -33.46,-498.19 h -103.71 v 1197.17 c 113.39,-11.6 218.51,-61.36 300.21,-143.07 z m 145.71,-351.76 v -204.09 h 0.05 c 1.49,-79.89 55.07,-147.28 128.12,-169.56 16.57,-5.06 34.13,-7.79 52.33,-7.83 -2.24,-136.26 -27.8,-218.02 -66.73,-264.95 -31.12,-37.54 -65.63,-52.82 -141.91,-55.91 H 2811.9 c 1.4,173.63 11.53,330.72 30.16,467.46 16.11,118.27 38.58,221.64 66.8,307.23 30.95,93.95 62.07,145.42 80.31,170.18 41.04,-73.3 62.89,-156.24 62.89,-242.53 z m 297.65,-252.84 h -113.12 c -41.18,0 -56.97,26.49 -56.97,52.2 v 200.64 0 c 0,84.35 -16.53,166.21 -49.14,243.31 -31.49,74.43 -76.54,141.27 -133.93,198.65 -57.38,57.39 -124.22,102.44 -198.66,133.93 -77.1,32.61 -158.95,49.15 -243.31,49.15 -84.35,0 -166.22,-16.54 -243.31,-49.15 -74.44,-31.49 -141.28,-76.54 -198.66,-133.93 -57.38,-57.38 -102.44,-124.22 -133.92,-198.65 -32.61,-77.1 -49.14,-158.95 -49.15,-243.3 v -200.65 c 0,-25.71 -17.42,-52.2 -58.77,-52.2 h -111.32 c -35.14,0 -62.8,-30.35 -59.92,-65.78 l 98.49,-1557.28 c 2.2,-27.1 24.58,-47.96 51.47,-47.96 h 27.8 c 28.52,0 51.64,23.38 51.64,52.22 v 659.77 c 4.91,218.32 37.72,302.45 201.33,305.43 h 841.86 c 172.41,-1.12 203.2,-87.11 208.11,-305.41 v -659.79 c 0,-28.84 23.12,-52.22 51.64,-52.22 h 27.81 c 26.87,0 49.27,20.86 51.46,47.96 l 98.49,1557.28 c 2.87,35.43 -24.78,65.78 -59.92,65.78"
         style="fill:#ffffff;fill-opacity:1;fill-rule:nonzero;stroke:none"
         id="path46" />
    </g>
  </g>
</svg>
