<?xml version="1.0" encoding="UTF-8" standalone="no"?>
<!-- Created with Inkscape (http://www.inkscape.org/) -->

<svg
   version="1.1"
   id="svg2"
   width="680.32001"
   height="680.32001"
   viewBox="0 0 680.32001 680.32001"
   sodipodi:docname="PLASTHAVEMOEBLER_rgb.eps"
   xmlns:inkscape="http://www.inkscape.org/namespaces/inkscape"
   xmlns:sodipodi="http://sodipodi.sourceforge.net/DTD/sodipodi-0.dtd"
   xmlns="http://www.w3.org/2000/svg"
   xmlns:svg="http://www.w3.org/2000/svg">
  <defs
     id="defs6" />
  <sodipodi:namedview
     id="namedview4"
     pagecolor="#ffffff"
     bordercolor="#000000"
     borderopacity="0.25"
     inkscape:showpageshadow="2"
     inkscape:pageopacity="0.0"
     inkscape:pagecheckerboard="0"
     inkscape:deskcolor="#d1d1d1" />
  <g
     id="g8"
     inkscape:groupmode="layer"
     inkscape:label="ink_ext_XXXXXX"
     transform="matrix(1.3333333,0,0,-1.3333333,0,680.32)">
    <g
       id="g10"
       transform="scale(0.1)">
      <path
         d="M 5102.36,0 H 0 V 5102.36 H 5102.36 V 0"
         style="fill:#8d1c90;fill-opacity:1;fill-rule:nonzero;stroke:none"
         id="path12" />
      <path
         d="m 746,795.059 h 184.387 v 167.23 h 64.504 V 534.82 H 930.387 V 734.441 H 746 V 534.82 H 681.492 V 962.289 H 746 v -167.23"
         style="fill:#ffffff;fill-opacity:1;fill-rule:nonzero;stroke:none"
         id="path14" />
      <path
         d="m 1334.74,699.27 -63.4,145.359 -66.45,-145.359 z m 26.3,-60.622 h -183 L 1130.42,534.82 h -69.49 l 211.52,454.328 204.04,-454.328 h -70.6 l -44.85,103.828"
         style="fill:#ffffff;fill-opacity:1;fill-rule:nonzero;stroke:none"
         id="path16" />
      <path
         d="m 1480.21,962.289 118.22,-296.238 119.88,296.238 h 70.6 L 1597.05,502.711 1409.61,962.289 h 70.6"
         style="fill:#ffffff;fill-opacity:1;fill-rule:nonzero;stroke:none"
         id="path18" />
      <path
         d="M 2092.35,901.66 H 1920.97 V 798.941 h 166.39 V 738.32 H 1920.97 V 595.461 h 171.38 V 534.82 h -235.89 v 427.469 h 235.89 V 901.66"
         style="fill:#ffffff;fill-opacity:1;fill-rule:nonzero;stroke:none"
         id="path20" />
      <path
         d="m 2172.91,534.82 89.99,459.578 146.73,-332.226 151.99,332.226 80.84,-459.578 H 2576.3 L 2535.04,792.859 2408.52,515.16 2285.6,793.129 2239.64,534.82 h -66.73"
         style="fill:#ffffff;fill-opacity:1;fill-rule:nonzero;stroke:none"
         id="path22" />
      <path
         d="M 3061.62,846.84 2839.31,620.09 c 31.19,-21.59 63.3,-32.391 96.34,-32.391 43.56,0 80.66,15.602 111.29,46.789 30.64,31.192 45.96,69.223 45.96,114.071 0,35.25 -10.43,68.011 -31.28,98.281 z m -37.1,35.988 c -26.77,17.902 -56.2,26.852 -88.32,26.852 -45.59,0 -83.6,-15.59 -114.06,-46.782 -30.28,-31.378 -45.4,-70.328 -45.4,-116.839 0,-30.45 8.94,-60.168 26.85,-89.137 z m 45.13,42.641 46.23,47.07 37.1,-36.828 -45.68,-46.789 c 33.77,-42.082 50.67,-89.242 50.67,-141.473 0,-60.539 -21.88,-112.398 -65.62,-155.597 -43.75,-43.18 -96.26,-64.774 -157.53,-64.774 -51.13,0 -98.29,16.32 -141.47,48.992 l -45.96,-45.672 -35.44,36.274 44.57,45.949 c -29.9,39.867 -44.85,84.617 -44.85,134.27 0,63.871 22.61,117.3 67.83,160.3 44.3,42.079 96.62,63.129 156.98,63.129 47.98,0 92.38,-14.949 133.17,-44.851"
         style="fill:#ffffff;fill-opacity:1;fill-rule:nonzero;stroke:none"
         id="path24" />
      <path
         d="m 3301.79,595.461 h 39.87 c 29.16,0 50.57,5.719 64.23,17.16 14.39,12.367 21.59,28.051 21.59,47.059 0,18.461 -6.92,33.961 -20.76,46.519 -13.48,12.36 -37.56,18.539 -72.26,18.539 h -32.67 z m 0,183.277 H 3322 c 24,0 41.57,5.301 52.75,15.91 11.16,10.614 16.74,26.25 16.74,46.93 0,20.121 -5.72,35.391 -17.16,45.82 -11.45,10.43 -28.06,15.641 -49.84,15.641 h -22.7 z M 3237.28,534.82 v 427.469 h 64.23 c 28.61,0 51.4,-2.219 68.39,-6.648 17.16,-4.422 31.65,-11.903 43.47,-22.422 11.99,-10.887 21.49,-24.457 28.51,-40.688 7.2,-16.441 10.8,-33.051 10.8,-49.84 0,-30.64 -11.72,-56.582 -35.16,-77.8 22.69,-7.75 40.59,-21.321 53.71,-40.692 13.28,-19.199 19.93,-41.539 19.93,-67.008 0,-33.402 -11.81,-61.652 -35.44,-84.711 -14.22,-14.218 -30.17,-24.089 -47.89,-29.628 -19.38,-5.352 -43.66,-8.032 -72.82,-8.032 h -97.73"
         style="fill:#ffffff;fill-opacity:1;fill-rule:nonzero;stroke:none"
         id="path26" />
      <path
         d="M 3631.66,962.289 V 595.461 h 125.69 V 534.82 h -190.19 v 427.469 h 64.5"
         style="fill:#ffffff;fill-opacity:1;fill-rule:nonzero;stroke:none"
         id="path28" />
      <path
         d="M 4068.82,901.66 H 3897.45 V 798.941 h 166.39 V 738.32 H 3897.45 V 595.461 h 171.37 V 534.82 h -235.88 v 427.469 h 235.88 V 901.66"
         style="fill:#ffffff;fill-opacity:1;fill-rule:nonzero;stroke:none"
         id="path30" />
      <path
         d="m 4209.04,766 h 20.49 c 61.09,0 91.64,23.34 91.64,70.039 0,43.742 -29.72,65.621 -89.14,65.621 h -22.99 z m 80.3,-49 132.33,-182.18 h -78.9 l -122.1,174.981 h -11.63 V 534.82 h -64.5 v 427.469 h 75.58 c 56.48,0 97.27,-10.609 122.37,-31.84 27.69,-23.629 41.53,-54.82 41.53,-93.578 0,-30.269 -8.68,-56.301 -26.02,-78.07 -17.36,-21.781 -40.25,-35.723 -68.66,-41.801"
         style="fill:#ffffff;fill-opacity:1;fill-rule:nonzero;stroke:none"
         id="path32" />
      <path
         d="m 1837.04,1303.8 h 24.09 c 59.24,0 88.86,22.79 88.86,68.37 0,44.12 -30.54,66.18 -91.64,66.18 h -21.31 z m 0,-59.81 v -173.58 h -64.51 v 427.46 h 73.09 c 35.81,0 62.85,-2.49 81.12,-7.47 18.46,-4.99 34.7,-14.41 48.72,-28.25 24.55,-23.99 36.82,-54.26 36.82,-90.81 0,-39.13 -13.1,-70.13 -39.31,-93.01 -26.21,-22.89 -61.55,-34.34 -106.03,-34.34 h -29.9"
         style="fill:#ffffff;fill-opacity:1;fill-rule:nonzero;stroke:none"
         id="path34" />
      <path
         d="m 2143.24,1497.87 v -366.84 h 125.69 v -60.62 h -190.19 v 427.46 h 64.5"
         style="fill:#ffffff;fill-opacity:1;fill-rule:nonzero;stroke:none"
         id="path36" />
      <path
         d="m 2598.53,1234.86 -63.39,145.34 -66.45,-145.34 z m 26.3,-60.64 h -182.99 l -47.63,-103.81 h -69.48 l 211.51,454.31 204.04,-454.31 h -70.59 l -44.86,103.81"
         style="fill:#ffffff;fill-opacity:1;fill-rule:nonzero;stroke:none"
         id="path38" />
      <path
         d="m 3030.01,1434.47 -52.32,-31.01 c -9.79,16.98 -19.11,28.05 -27.96,33.23 -9.24,5.89 -21.15,8.85 -35.72,8.85 -17.91,0 -32.76,-5.08 -44.58,-15.24 -11.8,-9.97 -17.71,-22.53 -17.71,-37.68 0,-20.87 15.51,-37.67 46.51,-50.42 l 42.64,-17.45 c 34.7,-14.04 60.08,-31.18 76.13,-51.39 16.06,-20.24 24.08,-45.03 24.08,-74.4 0,-39.34 -13.1,-71.84 -39.3,-97.52 -26.4,-25.86 -59.16,-38.79 -98.29,-38.79 -37.1,0 -67.74,11.03 -91.92,33.1 -23.81,22.04 -38.67,53.01 -44.57,92.87 l 65.33,14.39 c 2.95,-25.09 8.13,-42.45 15.51,-52.04 13.29,-18.46 32.67,-27.68 58.15,-27.68 20.1,0 36.81,6.73 50.1,20.18 13.29,13.47 19.94,30.53 19.94,51.19 0,8.3 -1.16,15.9 -3.46,22.83 -2.32,6.91 -5.91,13.28 -10.8,19.08 -4.9,5.81 -11.21,11.26 -18.97,16.33 -7.75,5.07 -16.98,9.91 -27.68,14.52 l -41.25,17.16 c -58.52,24.7 -87.77,60.86 -87.77,108.44 0,32.09 12.28,58.93 36.83,80.51 24.54,21.76 55.09,32.65 91.63,32.65 49.29,0 87.76,-23.91 115.45,-71.71"
         style="fill:#ffffff;fill-opacity:1;fill-rule:nonzero;stroke:none"
         id="path40" />
      <path
         d="m 3246.65,1437.23 v -366.82 h -64.5 v 366.82 h -98.29 v 60.64 h 260.8 v -60.64 h -98.01"
         style="fill:#ffffff;fill-opacity:1;fill-rule:nonzero;stroke:none"
         id="path42" />
      <path
         d="m 3345.35,1305.68 h 123.48 v -61.23 h -123.48 v 61.23"
         style="fill:#ffffff;fill-opacity:1;fill-rule:nonzero;stroke:none"
         id="path44" />
      <path
         d="m 1928.93,3337.2 c 73.05,22.28 126.63,89.67 128.13,169.56 h 0.04 v 204.09 c 0,86.3 21.85,169.23 62.89,242.53 18.25,-24.76 49.36,-76.23 80.32,-170.18 28.21,-85.59 50.68,-188.96 66.79,-307.23 18.64,-136.74 28.76,-293.83 30.16,-467.46 h -212.02 c -76.29,3.09 -112.58,18.37 -143.71,55.91 -38.92,46.93 -62.69,128.69 -64.93,264.95 18.19,0.04 35.76,2.77 52.33,7.83 z m 273.88,725.41 c 81.96,81.96 187.48,131.79 301.28,143.19 V 3008.51 h -104.78 c -1.46,185.48 -12.7,352.9 -33.46,498.19 -18.04,126.26 -43.33,236.54 -75.18,327.76 -37.02,106.06 -79.44,173.58 -109.46,205.12 6.94,7.86 14.12,15.56 21.6,23.03 z m 703.54,0 c 7.48,-7.47 14.67,-15.17 21.6,-23.03 -30.01,-31.54 -72.44,-99.07 -109.46,-205.12 -31.85,-91.22 -57.14,-201.5 -75.18,-327.76 -20.76,-145.29 -31.99,-312.71 -33.46,-498.19 h -103.71 v 1197.17 c 113.39,-11.6 218.51,-61.36 300.21,-143.07 z m 145.71,-351.76 v -204.09 h 0.05 c 1.49,-79.89 55.07,-147.28 128.12,-169.56 16.57,-5.06 34.13,-7.79 52.33,-7.83 -2.24,-136.26 -27.8,-218.02 -66.73,-264.95 -31.12,-37.54 -65.63,-52.82 -141.91,-55.91 H 2811.9 c 1.4,173.63 11.53,330.72 30.16,467.46 16.11,118.27 38.58,221.64 66.8,307.23 30.95,93.95 62.07,145.42 80.31,170.18 41.04,-73.3 62.89,-156.24 62.89,-242.53 z m 297.65,-252.84 h -113.12 c -41.18,0 -56.97,26.49 -56.97,52.2 v 200.64 0 c 0,84.35 -16.53,166.21 -49.14,243.31 -31.49,74.43 -76.54,141.27 -133.93,198.65 -57.38,57.39 -124.22,102.44 -198.66,133.93 -77.1,32.61 -158.95,49.15 -243.31,49.15 -84.35,0 -166.22,-16.54 -243.31,-49.15 -74.44,-31.49 -141.28,-76.54 -198.66,-133.93 -57.38,-57.38 -102.44,-124.22 -133.92,-198.65 -32.61,-77.1 -49.14,-158.95 -49.15,-243.3 v -200.65 c 0,-25.71 -17.42,-52.2 -58.77,-52.2 h -111.32 c -35.14,0 -62.8,-30.35 -59.92,-65.78 l 98.49,-1557.28 c 2.2,-27.1 24.58,-47.96 51.47,-47.96 h 27.8 c 28.52,0 51.64,23.38 51.64,52.22 v 659.77 c 4.91,218.32 37.72,302.45 201.33,305.43 h 841.86 c 172.41,-1.12 203.2,-87.11 208.11,-305.41 v -659.79 c 0,-28.84 23.12,-52.22 51.64,-52.22 h 27.81 c 26.87,0 49.27,20.86 51.46,47.96 l 98.49,1557.28 c 2.87,35.43 -24.78,65.78 -59.92,65.78"
         style="fill:#ffffff;fill-opacity:1;fill-rule:nonzero;stroke:none"
         id="path46" />
    </g>
  </g>
</svg>
