<?xml version="1.0" encoding="UTF-8" standalone="no"?>
<!-- Created with Inkscape (http://www.inkscape.org/) -->

<svg
   version="1.1"
   id="svg2"
   width="680.32001"
   height="680.32001"
   viewBox="0 0 680.32001 680.32001"
   sodipodi:docname="PLASTKOFANGERE_rgb.icon.svg"
   inkscape:version="1.3.2 (091e20e, 2023-11-25, custom)"
   xmlns:inkscape="http://www.inkscape.org/namespaces/inkscape"
   xmlns:sodipodi="http://sodipodi.sourceforge.net/DTD/sodipodi-0.dtd"
   xmlns="http://www.w3.org/2000/svg"
   xmlns:svg="http://www.w3.org/2000/svg">
  <defs
     id="defs6" />
  <sodipodi:namedview
     id="namedview4"
     pagecolor="#ffffff"
     bordercolor="#000000"
     borderopacity="0.25"
     inkscape:showpageshadow="2"
     inkscape:pageopacity="0.0"
     inkscape:pagecheckerboard="0"
     inkscape:deskcolor="#d1d1d1"
     inkscape:zoom="1.6859713"
     inkscape:cx="340.16"
     inkscape:cy="340.16"
     inkscape:window-width="2560"
     inkscape:window-height="1361"
     inkscape:window-x="2551"
     inkscape:window-y="-9"
     inkscape:window-maximized="1"
     inkscape:current-layer="g8" />
  <g
     id="g8"
     inkscape:groupmode="layer"
     inkscape:label="ink_ext_XXXXXX"
     transform="matrix(1.3333333,0,0,-1.3333333,0,680.32)">
    <g
       id="g10"
       transform="scale(0.1)">
      <path
         d="M 5102.36,0 H 0 V 5102.36 H 5102.36 V 0"
         style="fill:#8d1b90;fill-opacity:1;fill-rule:nonzero;stroke:none"
         id="path12" />
      <path
         d="m 3777.32,2929.54 c -70.45,0 -127.56,57.11 -127.56,127.56 0,70.45 57.11,127.56 127.56,127.56 70.45,0 127.56,-57.11 127.56,-127.56 0,-70.45 -57.11,-127.56 -127.56,-127.56 z m -476.11,85.31 -0.01,-0.05 c -0.01,0 -0.01,-0.01 -0.01,-0.02 l -1.64,-6.28 H 1765.49 l -1.48,5.57 c -1.43,5.31 -2.21,10.9 -2.21,16.66 0,35.23 28.55,63.78 63.78,63.78 h 1413.84 c 35.23,0 63.78,-28.55 63.78,-63.78 0,-5.48 -0.69,-10.8 -1.99,-15.88 z m -38.35,-146.79 H 1802.78 l -23.74,89.42 H 3286.22 Z M 3128.71,2731.8 H 1937.1 c -55.61,0 -102.9,35.59 -120.36,85.24 h 1432.33 c -17.46,-49.64 -64.75,-85.24 -120.36,-85.24 z m -1841.03,197.74 c -70.45,0 -127.56,57.11 -127.56,127.56 0,70.45 57.11,127.56 127.56,127.56 70.45,0 127.56,-57.11 127.56,-127.56 0,-70.45 -57.11,-127.56 -127.56,-127.56 z m 2915.73,398.51 c 0,47.2 -25.65,88.38 -63.76,110.44 -1.86,-2.41 -104.48,-148.62 -302.74,-148.62 -97.68,0 -2511.14,0 -2608.82,0 -198.26,0 -300.883,146.21 -302.742,148.62 -38.106,-22.06 -63.758,-63.24 -63.758,-110.44 0,-0.02 0.004,-0.05 0.004,-0.08 0,-0.03 -0.004,-0.06 -0.004,-0.08 l 0.004,-0.03 c 0.019,-10.79 1.406,-21.26 3.953,-31.26 l 0.09,-0.73 144.993,-549.95 0.02,0.01 c 32.02,-119.77 141.25,-207.98 271.11,-207.98 h 0.06 2501.36 0.06 c 129.86,0 239.1,88.21 271.11,207.98 l 0.02,-0.01 144.99,549.95 0.1,0.73 c 2.54,10 3.93,20.47 3.95,31.26 v 0.03 c 0,0.02 0,0.05 0,0.08 0,0.03 0,0.06 0,0.08"
         style="fill:#ffffff;fill-opacity:1;fill-rule:nonzero;stroke:none"
         id="path44" />
    </g>
  </g>
</svg>
