<?xml version="1.0" encoding="UTF-8" standalone="no"?>
<!-- Created with Inkscape (http://www.inkscape.org/) -->

<svg
   version="1.1"
   id="svg2"
   width="680.32001"
   height="680.32001"
   viewBox="0 0 680.32001 680.32001"
   sodipodi:docname="POLSTREDE_MOEBLER_rgb.eps"
   xmlns:inkscape="http://www.inkscape.org/namespaces/inkscape"
   xmlns:sodipodi="http://sodipodi.sourceforge.net/DTD/sodipodi-0.dtd"
   xmlns="http://www.w3.org/2000/svg"
   xmlns:svg="http://www.w3.org/2000/svg">
  <defs
     id="defs6" />
  <sodipodi:namedview
     id="namedview4"
     pagecolor="#ffffff"
     bordercolor="#000000"
     borderopacity="0.25"
     inkscape:showpageshadow="2"
     inkscape:pageopacity="0.0"
     inkscape:pagecheckerboard="0"
     inkscape:deskcolor="#d1d1d1" />
  <g
     id="g8"
     inkscape:groupmode="layer"
     inkscape:label="ink_ext_XXXXXX"
     transform="matrix(1.3333333,0,0,-1.3333333,0,680.32)">
    <g
       id="g10"
       transform="scale(0.1)">
      <path
         d="M 5102.36,-0.0117188 H 0.00390625 V 5102.36 H 5102.36 V -0.0117188"
         style="fill:#9a1844;fill-opacity:1;fill-rule:nonzero;stroke:none"
         id="path12" />
      <path
         d="m 1116.77,1305.93 h 23.88 c 58.72,0 88.08,22.91 88.08,68.74 0,44.35 -30.28,66.53 -90.83,66.53 h -21.13 z m 0,-60.12 V 1071.3 h -63.94 v 429.73 h 72.45 c 35.49,0 62.3,-2.5 80.41,-7.51 18.29,-5.01 34.39,-14.47 48.29,-28.39 24.33,-24.12 36.5,-54.55 36.5,-91.29 0,-39.33 -12.99,-70.51 -38.97,-93.51 -25.98,-23.01 -61.01,-34.52 -105.1,-34.52 h -29.64"
         style="fill:#ffffff;fill-opacity:1;fill-rule:nonzero;stroke:none"
         id="path14" />
      <path
         d="m 1415.9,1287.43 c 0,-47.46 15.73,-86.49 47.2,-117.08 31.28,-30.59 67.41,-45.88 108.39,-45.88 44.45,0 81.96,15.57 112.51,46.72 30.55,31.51 45.83,69.88 45.83,115.12 0,45.78 -15.1,84.16 -45.28,115.12 -30.01,31.15 -67.14,46.72 -111.41,46.72 -44.09,0 -81.32,-15.57 -111.69,-46.72 -30.37,-30.77 -45.55,-68.78 -45.55,-114 z m -64.49,0.69 c 0,60.49 21.86,112.44 65.58,155.86 43.54,43.42 95.87,65.13 156.97,65.13 60.37,0 112.14,-21.9 155.32,-65.69 43.36,-43.79 65.04,-96.39 65.04,-157.81 0,-61.79 -21.78,-114.2 -65.31,-157.25 -43.73,-43.23 -96.51,-64.85 -158.34,-64.85 -54.71,0 -103.83,19.21 -147.36,57.62 -47.94,42.49 -71.9,98.15 -71.9,166.99"
         style="fill:#ffffff;fill-opacity:1;fill-rule:nonzero;stroke:none"
         id="path16" />
      <path
         d="m 1938.66,1501.03 v -368.77 h 124.58 v -60.96 h -188.52 v 429.73 h 63.94"
         style="fill:#ffffff;fill-opacity:1;fill-rule:nonzero;stroke:none"
         id="path18" />
      <path
         d="m 2381.31,1437.3 -51.87,-31.17 c -9.7,17.07 -18.93,28.2 -27.71,33.4 -9.15,5.93 -20.96,8.9 -35.4,8.9 -17.75,0 -32.48,-5.11 -44.19,-15.32 -11.71,-10.03 -17.56,-22.66 -17.56,-37.88 0,-20.98 15.37,-37.87 46.1,-50.68 l 42.26,-17.55 c 34.4,-14.12 59.55,-31.34 75.47,-51.67 15.91,-20.34 23.87,-45.27 23.87,-74.78 0,-39.55 -12.99,-72.24 -38.97,-98.05 -26.16,-25.99 -58.63,-38.99 -97.41,-38.99 -36.78,0 -67.15,11.09 -91.11,33.28 -23.6,22.16 -38.33,53.28 -44.18,93.36 l 64.76,14.47 c 2.93,-25.23 8.05,-42.67 15.37,-52.32 13.17,-18.56 32.38,-27.83 57.63,-27.83 19.93,0 36.5,6.76 49.66,20.3 13.18,13.53 19.76,30.68 19.76,51.46 0,8.33 -1.14,15.98 -3.43,22.93 -2.29,6.96 -5.85,13.35 -10.7,19.19 -4.85,5.84 -11.11,11.31 -18.79,16.41 -7.69,5.1 -16.84,9.97 -27.45,14.61 l -40.88,17.24 c -58,24.84 -87,61.19 -87,109.02 0,32.26 12.17,59.24 36.5,80.94 24.33,21.87 54.61,32.81 90.83,32.81 48.85,0 86.99,-24.02 114.44,-72.08"
         style="fill:#ffffff;fill-opacity:1;fill-rule:nonzero;stroke:none"
         id="path20" />
      <path
         d="M 2606.85,1440.08 V 1071.3 h -63.94 v 368.78 h -97.41 v 60.95 h 258.49 v -60.95 h -97.14"
         style="fill:#ffffff;fill-opacity:1;fill-rule:nonzero;stroke:none"
         id="path22" />
      <path
         d="m 2850.21,1303.71 h 20.31 c 60.55,0 90.83,23.46 90.83,70.41 0,43.97 -29.46,65.96 -88.36,65.96 h -22.78 z m 79.58,-49.27 131.17,-183.14 h -78.2 l -121.02,175.9 h -11.53 v -175.9 h -63.93 v 429.73 h 74.91 c 55.98,0 96.41,-10.66 121.3,-32 27.43,-23.75 41.15,-55.11 41.15,-94.07 0,-30.43 -8.59,-56.6 -25.79,-78.49 -17.2,-21.9 -39.88,-35.91 -68.06,-42.03"
         style="fill:#ffffff;fill-opacity:1;fill-rule:nonzero;stroke:none"
         id="path24" />
      <path
         d="m 3362.03,1440.08 h -169.86 v -103.26 h 164.93 v -60.95 h -164.93 v -143.61 h 169.86 v -60.96 h -233.8 v 429.73 h 233.8 v -60.95"
         style="fill:#ffffff;fill-opacity:1;fill-rule:nonzero;stroke:none"
         id="path26" />
      <path
         d="m 3504.54,1132.26 h 28.82 c 28.72,0 52.58,3.06 71.62,9.18 19.02,6.49 36.22,16.8 51.59,30.9 31.46,29.13 47.2,67.07 47.2,113.83 0,47.13 -15.56,85.35 -46.65,114.66 -27.99,26.17 -69.25,39.25 -123.76,39.25 h -28.82 z m -63.94,-60.96 v 429.73 h 88.91 c 42.63,0 76.29,-4.27 100.99,-12.8 26.52,-8.35 50.58,-22.54 72.16,-42.58 43.73,-40.45 65.59,-93.61 65.59,-159.48 0,-66.06 -22.77,-119.5 -68.33,-160.32 -22.87,-20.41 -46.84,-34.6 -71.9,-42.57 -23.41,-7.98 -56.62,-11.98 -99.6,-11.98 h -87.82"
         style="fill:#ffffff;fill-opacity:1;fill-rule:nonzero;stroke:none"
         id="path28" />
      <path
         d="m 4071.66,1440.08 h -169.87 v -103.26 h 164.93 v -60.95 h -164.93 v -143.61 h 169.87 v -60.96 h -233.8 v 429.73 h 233.8 v -60.95"
         style="fill:#ffffff;fill-opacity:1;fill-rule:nonzero;stroke:none"
         id="path30" />
      <path
         d="m 1429.83,531.91 89.18,462.012 145.44,-333.981 150.65,333.981 80.14,-462.012 h -65.59 l -40.89,259.391 -125.4,-279.153 -121.85,279.442 -45.55,-259.68 h -66.13"
         style="fill:#ffffff;fill-opacity:1;fill-rule:nonzero;stroke:none"
         id="path32" />
      <path
         d="M 2310.7,845.578 2090.34,617.629 c 30.92,-21.707 62.75,-32.559 95.5,-32.559 43.17,0 79.94,15.68 110.31,47.032 30.37,31.359 45.56,69.578 45.56,114.668 0,35.441 -10.34,68.371 -31.01,98.808 z m -36.77,36.184 c -26.53,17.988 -55.71,26.988 -87.54,26.988 -45.19,0 -82.87,-15.68 -113.06,-47.031 -30.01,-31.547 -45,-70.688 -45,-117.449 0,-30.61 8.87,-60.489 26.61,-89.622 z m 44.73,42.859 45.82,47.32 36.78,-37.019 -45.28,-47.031 c 33.48,-42.313 50.21,-89.719 50.21,-142.231 0,-60.859 -21.68,-113 -65.03,-156.422 -43.36,-43.418 -95.41,-65.117 -156.14,-65.117 -50.68,0 -97.42,16.418 -140.23,49.258 l -45.55,-45.918 -35.13,36.461 44.18,46.199 c -29.64,40.078 -44.45,85.07 -44.45,134.981 0,64.199 22.41,117.91 67.23,161.148 43.91,42.309 95.77,63.461 155.59,63.461 47.57,0 91.56,-15.031 132,-45.09"
         style="fill:#ffffff;fill-opacity:1;fill-rule:nonzero;stroke:none"
         id="path34" />
      <path
         d="m 2550.54,592.871 h 39.52 c 28.9,0 50.11,5.75 63.66,17.25 14.27,12.418 21.4,28.199 21.4,47.32 0,18.539 -6.86,34.129 -20.58,46.75 -13.35,12.43 -37.23,18.649 -71.62,18.649 h -32.38 z m 0,184.238 h 20.03 c 23.78,0 41.2,5.34 52.28,16.012 11.06,10.66 16.6,26.391 16.6,47.168 0,20.223 -5.67,35.57 -17.01,46.063 -11.35,10.476 -27.81,15.718 -49.4,15.718 h -22.5 z M 2486.6,531.91 v 429.731 h 63.67 c 28.35,0 50.94,-2.231 67.77,-6.68 17.02,-4.461 31.38,-11.973 43.09,-22.539 11.88,-10.961 21.31,-24.594 28.26,-40.922 7.14,-16.52 10.7,-33.211 10.7,-50.102 0,-30.796 -11.62,-56.867 -34.85,-78.199 22.5,-7.801 40.25,-21.437 53.24,-40.918 13.18,-19.301 19.76,-41.75 19.76,-67.351 0,-33.59 -11.71,-61.981 -35.13,-85.168 -14.09,-14.293 -29.91,-24.211 -47.47,-29.782 -19.21,-5.39 -43.27,-8.07 -72.18,-8.07 h -96.86"
         style="fill:#ffffff;fill-opacity:1;fill-rule:nonzero;stroke:none"
         id="path36" />
      <path
         d="m 2882.86,961.641 v -368.77 h 124.58 V 531.91 h -188.53 v 429.731 h 63.95"
         style="fill:#ffffff;fill-opacity:1;fill-rule:nonzero;stroke:none"
         id="path38" />
      <path
         d="M 3321.69,900.691 H 3151.82 V 797.43 h 164.93 V 736.48 H 3151.82 V 592.871 h 169.87 V 531.91 h -233.8 v 429.731 h 233.8 v -60.95"
         style="fill:#ffffff;fill-opacity:1;fill-rule:nonzero;stroke:none"
         id="path40" />
      <path
         d="m 3464.2,764.309 h 20.3 c 60.56,0 90.84,23.472 90.84,70.41 0,43.98 -29.46,65.972 -88.37,65.972 h -22.77 z m 79.58,-49.27 131.17,-183.129 h -78.21 L 3475.72,707.809 H 3464.2 V 531.91 h -63.94 v 429.731 h 74.91 c 55.99,0 96.42,-10.68 121.29,-32.012 27.44,-23.758 41.16,-55.098 41.16,-94.07 0,-30.438 -8.59,-56.59 -25.79,-78.489 -17.19,-21.89 -39.88,-35.898 -68.05,-42.031"
         style="fill:#ffffff;fill-opacity:1;fill-rule:nonzero;stroke:none"
         id="path42" />
      <path
         d="m 2550.31,2115.92 v -4.83"
         style="fill:none;stroke:#231f20;stroke-width:7.5;stroke-linecap:round;stroke-linejoin:round;stroke-miterlimit:4;stroke-dasharray:none;stroke-opacity:1"
         id="path44" />
      <path
         d="m 1096.35,2037.52 h 178.51 v 204 h -178.51 v -204"
         style="fill:#ffffff;fill-opacity:1;fill-rule:nonzero;stroke:none"
         id="path46" />
      <path
         d="m 3876.07,2037.52 h 178.5 v 204 h -178.5 v -204"
         style="fill:#ffffff;fill-opacity:1;fill-rule:nonzero;stroke:none"
         id="path48" />
      <path
         d="M 1140.73,2610.45 H 2455.7 c 38.26,0 69.37,31.12 69.37,69.36 v 983.49 c 0,38.25 -31.11,69.37 -69.37,69.37 H 1140.73 c -38.27,0 -69.38,-31.12 -69.38,-69.37 v -983.49 c 0,-38.24 31.11,-69.36 69.38,-69.36"
         style="fill:#ffffff;fill-opacity:1;fill-rule:nonzero;stroke:none"
         id="path50" />
      <path
         d="m 2644.93,2610.45 h 1314.98 c 38.25,0 69.36,31.12 69.36,69.36 v 983.49 c 0,38.25 -31.11,69.37 -69.36,69.37 h -225.08 l 21.95,-95.96 -126.04,-115.25 47.17,-98.88 -187.92,-258.37 60.32,189.32 -51.33,129.35 51.33,63.54 -54.83,129.46 49.36,56.79 h -899.91 c -38.25,0 -69.38,-31.12 -69.38,-69.37 v -983.49 c 0,-38.24 31.13,-69.36 69.38,-69.36"
         style="fill:#ffffff;fill-opacity:1;fill-rule:nonzero;stroke:none"
         id="path52" />
      <path
         d="m 4255.2,3161.73 h -93.12 c -44.51,0 -80.93,-36.42 -80.93,-80.94 V 2554.83 H 1019.48 v 525.96 c 0,44.52 -36.41,80.94 -80.945,80.94 h -93.109 c -44.52,0 -80.938,-36.42 -80.938,-80.94 v -705.12 c 0,-44.51 36.418,-80.94 80.938,-80.94 H 4255.2 c 44.51,0 80.94,36.43 80.94,80.94 v 705.12 c 0,44.52 -36.43,80.94 -80.94,80.94"
         style="fill:#ffffff;fill-opacity:1;fill-rule:nonzero;stroke:none"
         id="path54" />
    </g>
  </g>
</svg>
