<?xml version="1.0" encoding="UTF-8" standalone="no"?>
<!-- Created with Inkscape (http://www.inkscape.org/) -->

<svg
   version="1.1"
   id="svg2"
   width="680.32001"
   height="680.32001"
   viewBox="0 0 680.32001 680.32001"
   sodipodi:docname="PORCELAEN_2_rgb.icon.svg"
   inkscape:version="1.3.2 (091e20e, 2023-11-25, custom)"
   xmlns:inkscape="http://www.inkscape.org/namespaces/inkscape"
   xmlns:sodipodi="http://sodipodi.sourceforge.net/DTD/sodipodi-0.dtd"
   xmlns="http://www.w3.org/2000/svg"
   xmlns:svg="http://www.w3.org/2000/svg">
  <defs
     id="defs6" />
  <sodipodi:namedview
     id="namedview4"
     pagecolor="#ffffff"
     bordercolor="#000000"
     borderopacity="0.25"
     inkscape:showpageshadow="2"
     inkscape:pageopacity="0.0"
     inkscape:pagecheckerboard="0"
     inkscape:deskcolor="#d1d1d1"
     showgrid="false"
     inkscape:zoom="1.6859713"
     inkscape:cx="340.16"
     inkscape:cy="340.16"
     inkscape:window-width="2560"
     inkscape:window-height="1361"
     inkscape:window-x="2551"
     inkscape:window-y="-9"
     inkscape:window-maximized="1"
     inkscape:current-layer="g8" />
  <g
     id="g8"
     inkscape:groupmode="layer"
     inkscape:label="ink_ext_XXXXXX"
     transform="matrix(1.3333333,0,0,-1.3333333,0,680.32)">
    <g
       id="g10"
       transform="scale(0.1)">
      <path
         d="M 5102.36,0 H 0 V 5102.36 H 5102.36 V 0"
         style="fill:#21508c;fill-opacity:1;fill-rule:nonzero;stroke:none"
         id="path12" />
      <path
         d="m 3867.94,2878.76 h -0.01 c -18.91,-93.73 -98.28,-186.8 -223.47,-262.07 -76.25,-45.85 -164.38,-80.53 -244.34,-97.69 57.05,120.98 89.2,255.87 89.82,398.18 h 0.03 v 3.08 h 1.15 c 0,105.56 85.52,191.43 190.65,191.44 h 0.03 c 105.12,-0.01 190.65,-85.88 190.65,-191.44 0,-14.25 -1.56,-28.13 -4.51,-41.5 z m -179.98,337.27 v 0.08 h -197.81 v 145.6 H 2029.94 l 47.29,-54.4 -54.83,-129.45 51.32,-63.56 -51.32,-129.35 60.32,-189.31 -187.92,258.36 47.17,98.88 -112.4,132.81 50.67,76.02 h -296.91 v -440.4 0 c 0,-0.02 0,-0.03 0,-0.05 v -4.13 h 0.03 c 1.74,-402.28 255.24,-745.47 611.98,-882.04 h 682.79 c 188.95,72.33 348.91,202.62 457.87,368.95 112.33,8.57 247.43,54.04 362.09,122.98 150.59,90.54 247.18,208.06 271.99,330.92 l 0.02,-0.01 c 4.31,20.09 6.57,40.93 6.57,62.29 0,161.15 -128.97,292.61 -288.71,295.81"
         style="fill:#ffffff;fill-opacity:1;fill-rule:nonzero;stroke:none"
         id="path30" />
    </g>
  </g>
</svg>
