<?xml version="1.0" encoding="UTF-8" standalone="no"?>
<!-- Created with Inkscape (http://www.inkscape.org/) -->

<svg
   version="1.1"
   id="svg2"
   width="680.32001"
   height="680.32001"
   viewBox="0 0 680.32001 680.32001"
   sodipodi:docname="PORCELAEN_2_rgb.eps"
   xmlns:inkscape="http://www.inkscape.org/namespaces/inkscape"
   xmlns:sodipodi="http://sodipodi.sourceforge.net/DTD/sodipodi-0.dtd"
   xmlns="http://www.w3.org/2000/svg"
   xmlns:svg="http://www.w3.org/2000/svg">
  <defs
     id="defs6" />
  <sodipodi:namedview
     id="namedview4"
     pagecolor="#ffffff"
     bordercolor="#000000"
     borderopacity="0.25"
     inkscape:showpageshadow="2"
     inkscape:pageopacity="0.0"
     inkscape:pagecheckerboard="0"
     inkscape:deskcolor="#d1d1d1" />
  <g
     id="g8"
     inkscape:groupmode="layer"
     inkscape:label="ink_ext_XXXXXX"
     transform="matrix(1.3333333,0,0,-1.3333333,0,680.32)">
    <g
       id="g10"
       transform="scale(0.1)">
      <path
         d="M 5102.36,0 H 0 V 5102.36 H 5102.36 V 0"
         style="fill:#21508c;fill-opacity:1;fill-rule:nonzero;stroke:none"
         id="path12" />
      <path
         d="m 1070.82,761.039 h 24.09 c 59.25,0 88.87,22.793 88.87,68.383 0,44.109 -30.55,66.168 -91.64,66.168 h -21.32 z m 0,-59.801 v -173.59 h -64.5 v 427.473 h 73.09 c 35.8,0 62.84,-2.5 81.11,-7.48 18.46,-4.981 34.7,-14.403 48.73,-28.243 24.55,-23.988 36.82,-54.257 36.82,-90.808 0,-39.129 -13.1,-70.141 -39.31,-93.02 -26.21,-22.89 -61.56,-34.332 -106.04,-34.332 h -29.9"
         style="fill:#ffffff;fill-opacity:1;fill-rule:nonzero;stroke:none"
         id="path14" />
      <path
         d="m 1370.66,742.629 c 0,-47.207 15.87,-86.027 47.62,-116.457 31.56,-30.434 68.01,-45.641 109.36,-45.641 44.85,0 82.68,15.489 113.51,46.469 30.82,31.352 46.24,69.52 46.24,114.52 0,45.55 -15.23,83.718 -45.69,114.519 -30.27,30.981 -67.73,46.473 -112.4,46.473 -44.48,0 -82.04,-15.492 -112.68,-46.473 -30.64,-30.609 -45.96,-68.418 -45.96,-113.41 z m -65.06,0.691 c 0,60.168 22.06,111.852 66.17,155.039 43.93,43.192 96.71,64.789 158.36,64.789 60.91,0 113.14,-21.789 156.7,-65.339 43.75,-43.559 65.62,-95.887 65.62,-156.981 0,-61.457 -21.97,-113.609 -65.89,-156.418 -44.12,-43.012 -97.37,-64.512 -159.75,-64.512 -55.19,0 -104.75,19.102 -148.67,57.313 -48.36,42.258 -72.54,97.629 -72.54,166.109"
         style="fill:#ffffff;fill-opacity:1;fill-rule:nonzero;stroke:none"
         id="path16" />
      <path
         d="m 1890.87,758.832 h 20.49 c 61.09,0 91.64,23.34 91.64,70.039 0,43.738 -29.72,65.617 -89.15,65.617 h -22.98 z m 80.29,-49.012 132.34,-182.172 h -78.91 L 1902.5,702.621 h -11.63 V 527.648 h -64.51 v 427.473 h 75.59 c 56.47,0 97.26,-10.621 122.37,-31.84 27.68,-23.633 41.52,-54.82 41.52,-93.582 0,-30.269 -8.67,-56.301 -26.02,-78.07 -17.35,-21.777 -40.24,-35.719 -68.66,-41.809"
         style="fill:#ffffff;fill-opacity:1;fill-rule:nonzero;stroke:none"
         id="path18" />
      <path
         d="M 2468.53,932.281 V 856 c -37.29,31.191 -75.86,46.789 -115.73,46.789 -43.93,0 -80.93,-15.777 -111.02,-47.34 -30.27,-31.379 -45.4,-69.769 -45.4,-115.168 0,-44.851 15.13,-82.691 45.4,-113.511 30.27,-30.829 67.37,-46.239 111.3,-46.239 22.7,0 41.99,3.688 57.86,11.078 8.86,3.68 18.04,8.672 27.55,14.95 9.5,6.269 19.52,13.839 30.04,22.703 v -77.93 c -36.92,-20.961 -75.68,-31.434 -116.28,-31.434 -61.09,0 -113.23,21.321 -156.42,63.954 -43.01,43.007 -64.51,94.867 -64.51,155.597 0,54.442 17.99,102.992 53.99,145.621 44.29,52.231 101.6,78.352 171.92,78.352 38.39,0 75.49,-10.383 111.3,-31.141"
         style="fill:#ffffff;fill-opacity:1;fill-rule:nonzero;stroke:none"
         id="path20" />
      <path
         d="M 2789.41,894.488 H 2618.03 V 791.77 h 166.39 v -60.629 h -166.39 v -142.86 h 171.38 v -60.633 h -235.89 v 427.473 h 235.89 v -60.633"
         style="fill:#ffffff;fill-opacity:1;fill-rule:nonzero;stroke:none"
         id="path22" />
      <path
         d="m 2938.63,955.121 v -366.84 h 125.69 v -60.633 h -190.19 v 427.473 h 64.5"
         style="fill:#ffffff;fill-opacity:1;fill-rule:nonzero;stroke:none"
         id="path24" />
      <path
         d="m 3388.11,690.441 -61.18,140.09 -65.9,-140.09 z m 25.75,-60.632 h -181.62 l -46.79,-102.161 h -70.6 l 205.43,427.473 h 189.09 l 26.86,-60.633 h -170.27 l 45.13,-103.547 h 165.56 l 27.13,-60.632 h -165.84 l 60.91,-142.028 h 170.82 l 26.03,-60.633 h -236.99 l -44.85,102.161"
         style="fill:#ffffff;fill-opacity:1;fill-rule:nonzero;stroke:none"
         id="path26" />
      <path
         d="m 3748.16,527.648 v 456.543 l 311.74,-326.14 v 297.07 h 64.51 V 501.629 L 3812.67,826.93 V 527.648 h -64.51"
         style="fill:#ffffff;fill-opacity:1;fill-rule:nonzero;stroke:none"
         id="path28" />
      <path
         d="m 3867.94,2878.76 h -0.01 c -18.91,-93.73 -98.28,-186.8 -223.47,-262.07 -76.25,-45.85 -164.38,-80.53 -244.34,-97.69 57.05,120.98 89.2,255.87 89.82,398.18 h 0.03 v 3.08 h 1.15 c 0,105.56 85.52,191.43 190.65,191.44 h 0.03 c 105.12,-0.01 190.65,-85.88 190.65,-191.44 0,-14.25 -1.56,-28.13 -4.51,-41.5 z m -179.98,337.27 v 0.08 h -197.81 v 145.6 H 2029.94 l 47.29,-54.4 -54.83,-129.45 51.32,-63.56 -51.32,-129.35 60.32,-189.31 -187.92,258.36 47.17,98.88 -112.4,132.81 50.67,76.02 h -296.91 v -440.4 0 c 0,-0.02 0,-0.03 0,-0.05 v -4.13 h 0.03 c 1.74,-402.28 255.24,-745.47 611.98,-882.04 h 682.79 c 188.95,72.33 348.91,202.62 457.87,368.95 112.33,8.57 247.43,54.04 362.09,122.98 150.59,90.54 247.18,208.06 271.99,330.92 l 0.02,-0.01 c 4.31,20.09 6.57,40.93 6.57,62.29 0,161.15 -128.97,292.61 -288.71,295.81"
         style="fill:#ffffff;fill-opacity:1;fill-rule:nonzero;stroke:none"
         id="path30" />
    </g>
  </g>
</svg>
