<?xml version="1.0" encoding="UTF-8" standalone="no"?>
<!-- Created with Inkscape (http://www.inkscape.org/) -->

<svg
   version="1.1"
   id="svg2"
   width="680.32001"
   height="680.32001"
   viewBox="0 0 680.32001 680.32001"
   sodipodi:docname="PRINTERPATRONER_rgb.icon.svg"
   inkscape:version="1.3.2 (091e20e, 2023-11-25, custom)"
   xmlns:inkscape="http://www.inkscape.org/namespaces/inkscape"
   xmlns:sodipodi="http://sodipodi.sourceforge.net/DTD/sodipodi-0.dtd"
   xmlns="http://www.w3.org/2000/svg"
   xmlns:svg="http://www.w3.org/2000/svg">
  <defs
     id="defs6" />
  <sodipodi:namedview
     id="namedview4"
     pagecolor="#ffffff"
     bordercolor="#000000"
     borderopacity="0.25"
     inkscape:showpageshadow="2"
     inkscape:pageopacity="0.0"
     inkscape:pagecheckerboard="0"
     inkscape:deskcolor="#d1d1d1"
     inkscape:zoom="1.6859713"
     inkscape:cx="340.16"
     inkscape:cy="340.16"
     inkscape:window-width="2560"
     inkscape:window-height="1361"
     inkscape:window-x="2551"
     inkscape:window-y="-9"
     inkscape:window-maximized="1"
     inkscape:current-layer="g8" />
  <g
     id="g8"
     inkscape:groupmode="layer"
     inkscape:label="ink_ext_XXXXXX"
     transform="matrix(1.3333333,0,0,-1.3333333,0,680.32)">
    <g
       id="g10"
       transform="scale(0.1)">
      <path
         d="M 5102.36,0 0.00390625,0.0117188 V 5102.36 L 5102.36,5102.35 V 0"
         style="fill:#ef8514;fill-opacity:1;fill-rule:nonzero;stroke:none"
         id="path12" />
      <path
         d="m 2993.77,2787.7 c 0,-92.22 -68.54,-166.98 -153.08,-166.98 -84.53,0 -153.07,74.76 -153.07,166.98 0,2.52 0.07,5.02 0.18,7.51 h -0.18 c 0,72.95 49.42,155.4 71.27,194.04 72.75,128.6 81.71,188.92 81.8,188.6 0.1,0.32 9.06,-60 81.8,-188.6 21.86,-38.64 71.28,-121.09 71.28,-194.04 h -0.18 c 0.1,-2.49 0.18,-4.99 0.18,-7.51 z m -156.67,740.62 -145.14,218.04 H 2120.33 V 3528.32 H 1593.26 V 3314.7 h 98.33 V 2037.07 h 534.04 v 338.4 h 1174.93 v 939.23 h 115.3 v 213.62 H 2837.1"
         style="fill:#ffffff;fill-opacity:1;fill-rule:nonzero;stroke:none"
         id="path46" />
      <path
         d="m 2917.19,2704.51 c -18.89,-19.31 -44.2,-29.52 -73.18,-29.52 v 51.03 c 15.37,0 27.38,4.64 36.72,14.17 13.93,14.24 21.56,39.25 20.93,68.62 l 51,1.1 c 0.95,-43.63 -11.65,-81.06 -35.47,-105.4"
         style="fill:#ffffff;fill-opacity:1;fill-rule:nonzero;stroke:none"
         id="path48" />
    </g>
  </g>
</svg>
