<?xml version="1.0" encoding="UTF-8" standalone="no"?>
<!-- Created with Inkscape (http://www.inkscape.org/) -->

<svg
   version="1.1"
   id="svg2"
   width="680.32001"
   height="680.32001"
   viewBox="0 0 680.32001 680.32001"
   sodipodi:docname="PRINTERPATRONER_rgb.eps"
   xmlns:inkscape="http://www.inkscape.org/namespaces/inkscape"
   xmlns:sodipodi="http://sodipodi.sourceforge.net/DTD/sodipodi-0.dtd"
   xmlns="http://www.w3.org/2000/svg"
   xmlns:svg="http://www.w3.org/2000/svg">
  <defs
     id="defs6" />
  <sodipodi:namedview
     id="namedview4"
     pagecolor="#ffffff"
     bordercolor="#000000"
     borderopacity="0.25"
     inkscape:showpageshadow="2"
     inkscape:pageopacity="0.0"
     inkscape:pagecheckerboard="0"
     inkscape:deskcolor="#d1d1d1" />
  <g
     id="g8"
     inkscape:groupmode="layer"
     inkscape:label="ink_ext_XXXXXX"
     transform="matrix(1.3333333,0,0,-1.3333333,0,680.32)">
    <g
       id="g10"
       transform="scale(0.1)">
      <path
         d="M 5102.36,0 0.00390625,0.0117188 V 5102.36 L 5102.36,5102.35 V 0"
         style="fill:#ef8514;fill-opacity:1;fill-rule:nonzero;stroke:none"
         id="path12" />
      <path
         d="m 1537.58,1297.57 h 24.08 c 59.25,0 88.87,22.79 88.87,68.39 0,44.11 -30.55,66.17 -91.64,66.17 h -21.31 z m 0,-59.8 v -173.59 h -64.51 v 427.47 h 73.09 c 35.8,0 62.84,-2.49 81.12,-7.48 18.45,-4.98 34.69,-14.39 48.72,-28.23 24.54,-24.01 36.82,-54.27 36.82,-90.81 0,-39.13 -13.11,-70.15 -39.31,-93.03 -26.21,-22.89 -61.56,-34.33 -106.04,-34.33 h -29.89"
         style="fill:#ffffff;fill-opacity:1;fill-rule:nonzero;stroke:none"
         id="path14" />
      <path
         d="m 1843.77,1295.36 h 20.49 c 61.09,0 91.64,23.34 91.64,70.04 0,43.74 -29.72,65.62 -89.15,65.62 h -22.98 z m 80.29,-49 132.34,-182.18 h -78.91 l -122.09,174.97 h -11.63 v -174.97 h -64.51 v 427.47 h 75.59 c 56.48,0 97.27,-10.62 122.37,-31.84 27.68,-23.63 41.52,-54.82 41.52,-93.58 0,-30.27 -8.67,-56.3 -26.02,-78.07 -17.35,-21.78 -40.24,-35.72 -68.66,-41.8"
         style="fill:#ffffff;fill-opacity:1;fill-rule:nonzero;stroke:none"
         id="path16" />
      <path
         d="m 2185.13,1491.65 v -427.47 h -64.5 v 427.47 h 64.5"
         style="fill:#ffffff;fill-opacity:1;fill-rule:nonzero;stroke:none"
         id="path18" />
      <path
         d="m 2287.84,1064.18 v 456.54 l 311.74,-326.14 v 297.07 h 64.51 v -453.5 l -311.74,325.32 v -299.29 h -64.51"
         style="fill:#ffffff;fill-opacity:1;fill-rule:nonzero;stroke:none"
         id="path20" />
      <path
         d="m 2884.46,1431.02 v -366.84 h -64.5 v 366.84 h -98.28 v 60.63 h 260.79 v -60.63 h -98.01"
         style="fill:#ffffff;fill-opacity:1;fill-rule:nonzero;stroke:none"
         id="path22" />
      <path
         d="M 3275.93,1431.02 H 3104.56 V 1328.3 h 166.39 v -60.62 h -166.39 v -142.87 h 171.37 v -60.63 h -235.87 v 427.47 h 235.87 v -60.63"
         style="fill:#ffffff;fill-opacity:1;fill-rule:nonzero;stroke:none"
         id="path24" />
      <path
         d="m 3425.15,1295.36 h 20.49 c 61.1,0 91.64,23.34 91.64,70.04 0,43.74 -29.71,65.62 -89.15,65.62 h -22.98 z m 80.3,-49 132.33,-182.18 h -78.91 l -122.09,174.97 h -11.63 v -174.97 h -64.5 v 427.47 h 75.58 c 56.48,0 97.26,-10.62 122.37,-31.84 27.69,-23.63 41.52,-54.82 41.52,-93.58 0,-30.27 -8.67,-56.3 -26.02,-78.07 -17.35,-21.78 -40.24,-35.72 -68.65,-41.8"
         style="fill:#ffffff;fill-opacity:1;fill-rule:nonzero;stroke:none"
         id="path26" />
      <path
         d="M 1188.92,754.59 H 1213 c 59.25,0 88.88,22.789 88.88,68.379 0,44.109 -30.55,66.172 -91.64,66.172 h -21.32 z m 0,-59.809 V 521.199 h -64.51 V 948.66 h 73.09 c 35.81,0 62.85,-2.488 81.12,-7.469 18.45,-4.992 34.7,-14.39 48.73,-28.242 24.54,-24 36.82,-54.269 36.82,-90.808 0,-39.129 -13.11,-70.141 -39.31,-93.02 -26.22,-22.891 -61.56,-34.34 -106.04,-34.34 h -29.9"
         style="fill:#ffffff;fill-opacity:1;fill-rule:nonzero;stroke:none"
         id="path28" />
      <path
         d="M 1624.13,685.648 1560.73,831 1494.29,685.648 Z m 26.3,-60.628 h -183 l -47.61,-103.821 h -69.5 l 211.52,454.321 204.04,-454.321 h -70.59 l -44.86,103.821"
         style="fill:#ffffff;fill-opacity:1;fill-rule:nonzero;stroke:none"
         id="path30" />
      <path
         d="m 1913.44,888.039 v -366.84 h -64.5 v 366.84 h -98.29 v 60.621 h 260.8 v -60.621 h -98.01"
         style="fill:#ffffff;fill-opacity:1;fill-rule:nonzero;stroke:none"
         id="path32" />
      <path
         d="m 2133.54,752.371 h 20.49 c 61.08,0 91.64,23.348 91.64,70.051 0,43.738 -29.72,65.617 -89.15,65.617 h -22.98 z m 80.29,-49 132.33,-182.172 h -78.9 l -122.09,174.973 h -11.63 V 521.199 h -64.51 V 948.66 h 75.58 c 56.48,0 97.27,-10.609 122.37,-31.832 27.69,-23.637 41.53,-54.816 41.53,-93.578 0,-30.27 -8.68,-56.301 -26.02,-78.07 -17.36,-21.782 -40.24,-35.719 -68.66,-41.809"
         style="fill:#ffffff;fill-opacity:1;fill-rule:nonzero;stroke:none"
         id="path34" />
      <path
         d="m 2444.45,736.18 c 0,-47.219 15.86,-86.032 47.61,-116.461 31.56,-30.418 68.02,-45.641 109.36,-45.641 44.85,0 82.69,15.492 113.51,46.481 30.82,31.332 46.24,69.511 46.24,114.511 0,45.551 -15.24,83.719 -45.68,114.52 -30.28,30.98 -67.75,46.469 -112.41,46.469 -44.48,0 -82.04,-15.489 -112.68,-46.469 -30.64,-30.621 -45.95,-68.418 -45.95,-113.41 z m -65.06,0.691 c 0,60.168 22.05,111.848 66.16,155.027 43.92,43.204 96.72,64.793 158.36,64.793 60.91,0 113.14,-21.781 156.7,-65.332 43.74,-43.57 65.62,-95.89 65.62,-156.988 0,-61.449 -21.98,-113.601 -65.89,-156.41 -44.12,-43.012 -97.36,-64.512 -159.75,-64.512 -55.19,0 -104.74,19.102 -148.67,57.301 -48.36,42.27 -72.53,97.641 -72.53,166.121"
         style="fill:#ffffff;fill-opacity:1;fill-rule:nonzero;stroke:none"
         id="path36" />
      <path
         d="M 2907.34,521.199 V 977.73 L 3219.08,651.602 V 948.66 h 64.51 V 495.18 l -311.74,325.3 V 521.199 h -64.51"
         style="fill:#ffffff;fill-opacity:1;fill-rule:nonzero;stroke:none"
         id="path38" />
      <path
         d="M 3621.9,888.039 H 3450.52 V 785.32 h 166.4 v -60.629 h -166.4 V 581.828 H 3621.9 V 521.199 H 3386.02 V 948.66 h 235.88 v -60.621"
         style="fill:#ffffff;fill-opacity:1;fill-rule:nonzero;stroke:none"
         id="path40" />
      <path
         d="m 3771.12,752.371 h 20.49 c 61.09,0 91.64,23.348 91.64,70.051 0,43.738 -29.72,65.617 -89.15,65.617 h -22.98 z m 80.29,-49 132.34,-182.172 h -78.91 l -122.09,174.973 h -11.63 V 521.199 h -64.5 V 948.66 h 75.57 c 56.49,0 97.27,-10.609 122.38,-31.832 27.68,-23.637 41.52,-54.816 41.52,-93.578 0,-30.27 -8.67,-56.301 -26.02,-78.07 -17.35,-21.782 -40.24,-35.719 -68.66,-41.809"
         style="fill:#ffffff;fill-opacity:1;fill-rule:nonzero;stroke:none"
         id="path42" />
      <path
         d="m 3662.81,1294.04 h 124.71 v -60.71 h -124.71 v 60.71"
         style="fill:#ffffff;fill-opacity:1;fill-rule:nonzero;stroke:none"
         id="path44" />
      <path
         d="m 2993.77,2787.7 c 0,-92.22 -68.54,-166.98 -153.08,-166.98 -84.53,0 -153.07,74.76 -153.07,166.98 0,2.52 0.07,5.02 0.18,7.51 h -0.18 c 0,72.95 49.42,155.4 71.27,194.04 72.75,128.6 81.71,188.92 81.8,188.6 0.1,0.32 9.06,-60 81.8,-188.6 21.86,-38.64 71.28,-121.09 71.28,-194.04 h -0.18 c 0.1,-2.49 0.18,-4.99 0.18,-7.51 z m -156.67,740.62 -145.14,218.04 H 2120.33 V 3528.32 H 1593.26 V 3314.7 h 98.33 V 2037.07 h 534.04 v 338.4 h 1174.93 v 939.23 h 115.3 v 213.62 H 2837.1"
         style="fill:#ffffff;fill-opacity:1;fill-rule:nonzero;stroke:none"
         id="path46" />
      <path
         d="m 2917.19,2704.51 c -18.89,-19.31 -44.2,-29.52 -73.18,-29.52 v 51.03 c 15.37,0 27.38,4.64 36.72,14.17 13.93,14.24 21.56,39.25 20.93,68.62 l 51,1.1 c 0.95,-43.63 -11.65,-81.06 -35.47,-105.4"
         style="fill:#ffffff;fill-opacity:1;fill-rule:nonzero;stroke:none"
         id="path48" />
    </g>
  </g>
</svg>
