<?xml version="1.0" encoding="UTF-8" standalone="no"?>
<!-- Created with Inkscape (http://www.inkscape.org/) -->

<svg
   version="1.1"
   id="svg2"
   width="680.32001"
   height="680.32001"
   viewBox="0 0 680.32001 680.32001"
   sodipodi:docname="REPARATION_rgb.icon.svg"
   inkscape:version="1.3.2 (091e20e, 2023-11-25, custom)"
   xmlns:inkscape="http://www.inkscape.org/namespaces/inkscape"
   xmlns:sodipodi="http://sodipodi.sourceforge.net/DTD/sodipodi-0.dtd"
   xmlns="http://www.w3.org/2000/svg"
   xmlns:svg="http://www.w3.org/2000/svg">
  <defs
     id="defs6" />
  <sodipodi:namedview
     id="namedview4"
     pagecolor="#ffffff"
     bordercolor="#000000"
     borderopacity="0.25"
     inkscape:showpageshadow="2"
     inkscape:pageopacity="0.0"
     inkscape:pagecheckerboard="0"
     inkscape:deskcolor="#d1d1d1"
     inkscape:zoom="1.6859713"
     inkscape:cx="340.16"
     inkscape:cy="340.16"
     inkscape:window-width="2560"
     inkscape:window-height="1361"
     inkscape:window-x="2551"
     inkscape:window-y="-9"
     inkscape:window-maximized="1"
     inkscape:current-layer="g8" />
  <g
     id="g8"
     inkscape:groupmode="layer"
     inkscape:label="ink_ext_XXXXXX"
     transform="matrix(1.3333333,0,0,-1.3333333,0,680.32)">
    <g
       id="g10"
       transform="scale(0.1)">
      <path
         d="M 5102.36,-0.0117188 H 0.00390625 V 5102.36 H 5102.36 V -0.0117188"
         style="fill:#76cb4d;fill-opacity:1;fill-rule:nonzero;stroke:none"
         id="path12" />
      <path
         d="m 1597.37,1926.67 c -56.96,-41.45 -136.74,-28.9 -178.2,28.05 -41.47,56.95 -28.91,136.74 28.04,178.2 56.96,41.47 136.74,28.91 178.2,-28.04 41.47,-56.96 28.91,-136.74 -28.04,-178.21 z m 1582.62,1309.99 2.54,333.2 303.58,221.02 c -158.27,64.67 -345.38,48.34 -493.76,-59.69 -161.61,-117.66 -233.82,-312.45 -202.94,-497.06 -8.21,-4.54 -16.23,-9.62 -23.99,-15.28 L 1372.6,2204.84 c -102.09,-74.33 -124.8,-218.67 -50.48,-320.76 v 0 c 74.33,-102.1 218.67,-124.82 320.77,-50.49 L 3035.7,2847.61 c 7.76,5.65 15.07,11.72 21.9,18.13 166.21,-86.08 373.76,-77.2 535.38,40.46 148.37,108.02 221.38,281.07 208.46,451.56 l -303.58,-221.02 -317.87,99.92"
         style="fill:#ffffff;fill-opacity:1;fill-rule:nonzero;stroke:none"
         id="path34" />
    </g>
  </g>
</svg>
