<?xml version="1.0" encoding="UTF-8" standalone="no"?>
<!-- Created with Inkscape (http://www.inkscape.org/) -->

<svg
   version="1.1"
   id="svg2"
   width="680.32001"
   height="680.32001"
   viewBox="0 0 680.32001 680.32001"
   sodipodi:docname="REPARATION_rgb.eps"
   xmlns:inkscape="http://www.inkscape.org/namespaces/inkscape"
   xmlns:sodipodi="http://sodipodi.sourceforge.net/DTD/sodipodi-0.dtd"
   xmlns="http://www.w3.org/2000/svg"
   xmlns:svg="http://www.w3.org/2000/svg">
  <defs
     id="defs6" />
  <sodipodi:namedview
     id="namedview4"
     pagecolor="#ffffff"
     bordercolor="#000000"
     borderopacity="0.25"
     inkscape:showpageshadow="2"
     inkscape:pageopacity="0.0"
     inkscape:pagecheckerboard="0"
     inkscape:deskcolor="#d1d1d1" />
  <g
     id="g8"
     inkscape:groupmode="layer"
     inkscape:label="ink_ext_XXXXXX"
     transform="matrix(1.3333333,0,0,-1.3333333,0,680.32)">
    <g
       id="g10"
       transform="scale(0.1)">
      <path
         d="M 5102.36,-0.0117188 H 0.00390625 V 5102.36 H 5102.36 V -0.0117188"
         style="fill:#76cb4d;fill-opacity:1;fill-rule:nonzero;stroke:none"
         id="path12" />
      <path
         d="m 905.266,767.719 h 20.488 c 61.09,0 91.636,23.351 91.636,70.051 0,43.742 -29.718,65.609 -89.148,65.609 h -22.976 z m 80.289,-49 132.335,-182.168 h -78.9 L 916.891,711.52 H 905.266 V 536.551 h -64.508 v 427.461 h 75.582 c 56.48,0 97.27,-10.621 122.37,-31.84 27.68,-23.621 41.53,-54.813 41.53,-93.57 0,-30.282 -8.68,-56.301 -26.02,-78.082 -17.36,-21.782 -40.24,-35.711 -68.665,-41.801"
         style="fill:#ffffff;fill-opacity:1;fill-rule:nonzero;stroke:none"
         id="path14" />
      <path
         d="M 1412.6,903.379 H 1241.23 V 800.672 h 166.39 V 740.031 H 1241.23 V 597.18 h 171.37 v -60.629 h -235.88 v 427.461 h 235.88 v -60.633"
         style="fill:#ffffff;fill-opacity:1;fill-rule:nonzero;stroke:none"
         id="path16" />
      <path
         d="m 1570.83,769.941 h 24.08 c 59.25,0 88.88,22.789 88.88,68.368 0,44.121 -30.56,66.179 -91.64,66.179 h -21.32 z m 0,-59.812 V 536.551 h -64.51 v 427.461 h 73.09 c 35.81,0 62.85,-2.492 81.12,-7.473 18.45,-4.98 34.7,-14.398 48.73,-28.238 24.54,-24 36.82,-54.262 36.82,-90.821 0,-39.128 -13.11,-70.128 -39.32,-93.011 -26.21,-22.891 -61.55,-34.34 -106.03,-34.34 h -29.9"
         style="fill:#ffffff;fill-opacity:1;fill-rule:nonzero;stroke:none"
         id="path18" />
      <path
         d="M 1984.45,701 1921.04,846.352 1854.6,701 Z m 26.29,-60.629 h -183 l -47.62,-103.82 h -69.49 l 211.52,454.308 204.04,-454.308 h -70.6 l -44.85,103.82"
         style="fill:#ffffff;fill-opacity:1;fill-rule:nonzero;stroke:none"
         id="path20" />
      <path
         d="m 2249.53,767.719 h 20.49 c 61.09,0 91.64,23.351 91.64,70.051 0,43.742 -29.72,65.609 -89.15,65.609 h -22.98 z m 80.29,-49 132.34,-182.168 h -78.9 l -122.1,174.969 h -11.63 V 536.551 h -64.5 v 427.461 h 75.58 c 56.48,0 97.26,-10.621 122.37,-31.84 27.68,-23.621 41.53,-54.813 41.53,-93.57 0,-30.282 -8.68,-56.301 -26.03,-78.082 -17.35,-21.782 -40.24,-35.711 -68.66,-41.801"
         style="fill:#ffffff;fill-opacity:1;fill-rule:nonzero;stroke:none"
         id="path22" />
      <path
         d="M 2764.12,701 2700.72,846.352 2634.27,701 Z m 26.3,-60.629 h -183 l -47.62,-103.82 h -69.49 l 211.51,454.308 204.05,-454.308 h -70.6 l -44.85,103.82"
         style="fill:#ffffff;fill-opacity:1;fill-rule:nonzero;stroke:none"
         id="path24" />
      <path
         d="M 3046.23,903.379 V 536.551 h -64.5 v 366.828 h -98.29 v 60.633 h 260.81 v -60.633 h -98.02"
         style="fill:#ffffff;fill-opacity:1;fill-rule:nonzero;stroke:none"
         id="path26" />
      <path
         d="M 3287.94,964.012 V 536.551 h -64.52 v 427.461 h 64.52"
         style="fill:#ffffff;fill-opacity:1;fill-rule:nonzero;stroke:none"
         id="path28" />
      <path
         d="m 3428.99,751.531 c 0,-47.222 15.87,-86.043 47.62,-116.461 31.56,-30.429 68.01,-45.64 109.35,-45.64 44.86,0 82.69,15.492 113.52,46.468 30.82,31.34 46.23,69.524 46.23,114.512 0,45.551 -15.22,83.731 -45.67,114.531 -30.28,30.981 -67.75,46.469 -112.41,46.469 -44.49,0 -82.05,-15.488 -112.68,-46.469 -30.64,-30.621 -45.96,-68.421 -45.96,-113.41 z m -65.06,0.688 c 0,60.172 22.05,111.851 66.17,155.043 43.92,43.179 96.71,64.777 158.35,64.777 60.92,0 113.15,-21.777 156.71,-65.34 43.74,-43.558 65.62,-95.89 65.62,-156.98 0,-61.449 -21.97,-113.598 -65.9,-156.41 -44.11,-43.008 -97.36,-64.52 -159.75,-64.52 -55.18,0 -104.74,19.102 -148.67,57.32 -48.35,42.25 -72.53,97.621 -72.53,166.11"
         style="fill:#ffffff;fill-opacity:1;fill-rule:nonzero;stroke:none"
         id="path30" />
      <path
         d="m 3886.49,536.551 v 456.527 l 311.74,-326.129 v 297.063 h 64.51 V 510.52 L 3951,835.82 V 536.551 h -64.51"
         style="fill:#ffffff;fill-opacity:1;fill-rule:nonzero;stroke:none"
         id="path32" />
      <path
         d="m 1597.37,1926.67 c -56.96,-41.45 -136.74,-28.9 -178.2,28.05 -41.47,56.95 -28.91,136.74 28.04,178.2 56.96,41.47 136.74,28.91 178.2,-28.04 41.47,-56.96 28.91,-136.74 -28.04,-178.21 z m 1582.62,1309.99 2.54,333.2 303.58,221.02 c -158.27,64.67 -345.38,48.34 -493.76,-59.69 -161.61,-117.66 -233.82,-312.45 -202.94,-497.06 -8.21,-4.54 -16.23,-9.62 -23.99,-15.28 L 1372.6,2204.84 c -102.09,-74.33 -124.8,-218.67 -50.48,-320.76 v 0 c 74.33,-102.1 218.67,-124.82 320.77,-50.49 L 3035.7,2847.61 c 7.76,5.65 15.07,11.72 21.9,18.13 166.21,-86.08 373.76,-77.2 535.38,40.46 148.37,108.02 221.38,281.07 208.46,451.56 l -303.58,-221.02 -317.87,99.92"
         style="fill:#ffffff;fill-opacity:1;fill-rule:nonzero;stroke:none"
         id="path34" />
    </g>
  </g>
</svg>
