<?xml version="1.0" encoding="UTF-8" standalone="no"?>
<!-- Created with Inkscape (http://www.inkscape.org/) -->

<svg
   version="1.1"
   id="svg2"
   width="680.32001"
   height="680.32001"
   viewBox="0 0 680.32001 680.32001"
   sodipodi:docname="REST_EFTER_SORTERING_rgb_sort.eps"
   xmlns:inkscape="http://www.inkscape.org/namespaces/inkscape"
   xmlns:sodipodi="http://sodipodi.sourceforge.net/DTD/sodipodi-0.dtd"
   xmlns="http://www.w3.org/2000/svg"
   xmlns:svg="http://www.w3.org/2000/svg">
  <defs
     id="defs6" />
  <sodipodi:namedview
     id="namedview4"
     pagecolor="#ffffff"
     bordercolor="#000000"
     borderopacity="0.25"
     inkscape:showpageshadow="2"
     inkscape:pageopacity="0.0"
     inkscape:pagecheckerboard="0"
     inkscape:deskcolor="#d1d1d1" />
  <g
     id="g8"
     inkscape:groupmode="layer"
     inkscape:label="ink_ext_XXXXXX"
     transform="matrix(1.3333333,0,0,-1.3333333,0,680.32)">
    <g
       id="g10"
       transform="scale(0.1)">
      <path
         d="M 5102.36,-0.0117188 H 0.00390625 V 5102.36 H 5102.36 V -0.0117188"
         style="fill:#111111;fill-opacity:1;fill-rule:nonzero;stroke:none"
         id="path12" />
      <path
         d="m 1136.63,1303.35 h 20.49 c 61.09,0 91.64,23.35 91.64,70.05 0,43.74 -29.72,65.62 -89.15,65.62 h -22.98 z m 80.29,-49 132.34,-182.17 h -78.91 l -122.09,174.97 h -11.63 v -174.97 h -64.5 v 427.46 h 75.58 c 56.48,0 97.26,-10.61 122.37,-31.83 27.68,-23.64 41.52,-54.82 41.52,-93.58 0,-30.27 -8.67,-56.3 -26.02,-78.07 -17.35,-21.78 -40.24,-35.72 -68.66,-41.81"
         style="fill:#ffffff;fill-opacity:1;fill-rule:nonzero;stroke:none"
         id="path14" />
      <path
         d="M 1642.17,1439.02 H 1470.79 V 1336.3 h 166.39 v -60.63 h -166.39 v -142.86 h 171.38 v -60.63 h -235.88 v 427.46 h 235.88 v -60.62"
         style="fill:#ffffff;fill-opacity:1;fill-rule:nonzero;stroke:none"
         id="path16" />
      <path
         d="m 1970.38,1436.24 -52.33,-31 c -9.78,16.97 -19.1,28.05 -27.96,33.22 -9.23,5.9 -21.13,8.86 -35.71,8.86 -17.91,0 -32.77,-5.08 -44.58,-15.25 -11.81,-9.97 -17.72,-22.52 -17.72,-37.67 0,-20.87 15.51,-37.68 46.52,-50.42 l 42.63,-17.45 c 34.7,-14.05 60.08,-31.17 76.14,-51.4 16.06,-20.23 24.08,-45.03 24.08,-74.39 0,-39.34 -13.1,-71.85 -39.31,-97.52 -26.4,-25.86 -59.15,-38.79 -98.28,-38.79 -37.1,0 -67.74,11.03 -91.92,33.09 -23.81,22.04 -38.67,53.01 -44.57,92.87 l 65.33,14.4 c 2.96,-25.1 8.12,-42.45 15.51,-52.04 13.29,-18.47 32.67,-27.69 58.14,-27.69 20.11,0 36.82,6.73 50.11,20.19 13.29,13.47 19.93,30.53 19.93,51.19 0,8.29 -1.15,15.9 -3.46,22.82 -2.31,6.92 -5.91,13.28 -10.79,19.09 -4.9,5.8 -11.22,11.25 -18.97,16.32 -7.75,5.07 -16.98,9.91 -27.68,14.52 l -41.26,17.16 c -58.51,24.71 -87.76,60.86 -87.76,108.45 0,32.09 12.27,58.93 36.82,80.51 24.54,21.75 55.1,32.64 91.64,32.64 49.28,0 87.76,-23.9 115.45,-71.71"
         style="fill:#ffffff;fill-opacity:1;fill-rule:nonzero;stroke:none"
         id="path18" />
      <path
         d="m 2194.22,1439.02 v -366.84 h -64.51 v 366.84 h -98.28 v 60.62 h 260.8 v -60.62 h -98.01"
         style="fill:#ffffff;fill-opacity:1;fill-rule:nonzero;stroke:none"
         id="path20" />
      <path
         d="M 2749.87,1439.02 H 2578.49 V 1336.3 h 166.39 v -60.63 h -166.39 v -142.86 h 171.38 v -60.63 h -235.88 v 427.46 h 235.88 v -60.62"
         style="fill:#ffffff;fill-opacity:1;fill-rule:nonzero;stroke:none"
         id="path22" />
      <path
         d="M 3040.84,1439.02 H 2891.89 V 1336.3 h 143.68 v -60.63 h -143.68 v -203.49 h -64.51 v 427.46 h 213.46 v -60.62"
         style="fill:#ffffff;fill-opacity:1;fill-rule:nonzero;stroke:none"
         id="path24" />
      <path
         d="m 3274.93,1439.02 v -366.84 h -64.5 v 366.84 h -98.28 v 60.62 h 260.79 v -60.62 h -98.01"
         style="fill:#ffffff;fill-opacity:1;fill-rule:nonzero;stroke:none"
         id="path26" />
      <path
         d="M 3680.81,1439.02 H 3509.44 V 1336.3 h 166.39 v -60.63 h -166.39 v -142.86 h 171.37 v -60.63 h -235.88 v 427.46 h 235.88 v -60.62"
         style="fill:#ffffff;fill-opacity:1;fill-rule:nonzero;stroke:none"
         id="path28" />
      <path
         d="m 3819.24,1303.35 h 20.47 c 61.1,0 91.64,23.35 91.64,70.05 0,43.74 -29.71,65.62 -89.14,65.62 h -22.97 z m 80.28,-49 132.33,-182.17 h -78.89 l -122.1,174.97 h -11.62 v -174.97 h -64.52 v 427.46 h 75.59 c 56.47,0 97.27,-10.61 122.36,-31.83 27.69,-23.64 41.54,-54.82 41.54,-93.58 0,-30.27 -8.69,-56.3 -26.03,-78.07 -17.35,-21.78 -40.24,-35.72 -68.66,-41.81"
         style="fill:#ffffff;fill-opacity:1;fill-rule:nonzero;stroke:none"
         id="path30" />
      <path
         d="m 1226.35,898.859 -52.33,-31 c -9.78,16.973 -19.1,28.039 -27.96,33.223 -9.23,5.898 -21.14,8.859 -35.72,8.859 -17.9,0 -32.76,-5.082 -44.57,-15.25 -11.81,-9.972 -17.72,-22.531 -17.72,-37.671 0,-20.872 15.51,-37.68 46.51,-50.418 l 42.64,-17.461 c 34.7,-14.039 60.08,-31.172 76.13,-51.391 16.06,-20.238 24.09,-45.031 24.09,-74.398 0,-39.332 -13.11,-71.84 -39.31,-97.524 -26.4,-25.848 -59.16,-38.777 -98.28,-38.777 -37.11,0 -67.74,11.027 -91.92,33.09 -23.812,22.039 -38.668,53.007 -44.578,92.871 l 65.338,14.398 c 2.95,-25.101 8.12,-42.449 15.51,-52.039 13.28,-18.473 32.66,-27.691 58.14,-27.691 20.11,0 36.82,6.73 50.1,20.191 13.3,13.461 19.94,30.52 19.94,51.188 0,8.293 -1.16,15.902 -3.46,22.82 -2.31,6.91 -5.91,13.281 -10.8,19.09 -4.89,5.801 -11.21,11.25 -18.96,16.32 -7.76,5.07 -16.98,9.91 -27.69,14.52 l -41.25,17.16 c -58.51,24.711 -87.762,60.863 -87.762,108.453 0,32.09 12.273,58.918 36.822,80.5 24.54,21.758 55.09,32.648 91.64,32.648 49.28,0 87.76,-23.91 115.45,-71.711"
         style="fill:#ffffff;fill-opacity:1;fill-rule:nonzero;stroke:none"
         id="path32" />
      <path
         d="m 1366.16,749.781 c 0,-47.222 15.87,-86.043 47.62,-116.472 31.56,-30.418 68.01,-45.629 109.36,-45.629 44.85,0 82.68,15.492 113.51,46.461 30.82,31.347 46.23,69.531 46.23,114.531 0,45.539 -15.22,83.719 -45.68,114.519 -30.27,30.969 -67.73,46.469 -112.4,46.469 -44.49,0 -82.04,-15.5 -112.68,-46.469 -30.64,-30.621 -45.96,-68.421 -45.96,-113.41 z m -65.06,0.68 c 0,60.18 22.05,111.859 66.17,155.039 43.92,43.199 96.71,64.789 158.36,64.789 60.91,0 113.14,-21.777 156.7,-65.328 43.74,-43.57 65.62,-95.891 65.62,-156.992 0,-61.449 -21.97,-113.598 -65.9,-156.41 -44.11,-43.008 -97.36,-64.508 -159.74,-64.508 -55.19,0 -104.75,19.097 -148.67,57.301 -48.36,42.269 -72.54,97.636 -72.54,166.109"
         style="fill:#ffffff;fill-opacity:1;fill-rule:nonzero;stroke:none"
         id="path34" />
      <path
         d="m 1888.17,765.969 h 20.49 c 61.09,0 91.64,23.351 91.64,70.051 0,43.742 -29.72,65.621 -89.15,65.621 h -22.98 z m 80.29,-49 132.33,-182.168 h -78.9 L 1899.8,709.77 h -11.63 V 534.801 h -64.51 v 427.461 h 75.59 c 56.47,0 97.26,-10.621 122.36,-31.84 27.69,-23.633 41.53,-54.813 41.53,-93.57 0,-30.274 -8.67,-56.301 -26.02,-78.082 -17.35,-21.77 -40.24,-35.711 -68.66,-41.801"
         style="fill:#ffffff;fill-opacity:1;fill-rule:nonzero;stroke:none"
         id="path36" />
      <path
         d="m 2288.78,901.641 v -366.84 h -64.51 v 366.84 h -98.28 v 60.621 h 260.8 v -60.621 h -98.01"
         style="fill:#ffffff;fill-opacity:1;fill-rule:nonzero;stroke:none"
         id="path38" />
      <path
         d="M 2700.06,901.641 H 2528.68 V 798.922 h 166.4 v -60.633 h -166.4 V 595.422 h 171.38 v -60.621 h -235.88 v 427.461 h 235.88 v -60.621"
         style="fill:#ffffff;fill-opacity:1;fill-rule:nonzero;stroke:none"
         id="path40" />
      <path
         d="m 2847.49,765.969 h 20.48 c 61.09,0 91.64,23.351 91.64,70.051 0,43.742 -29.72,65.621 -89.14,65.621 h -22.98 z m 80.28,-49 132.33,-182.168 h -78.89 l -122.1,174.969 h -11.62 V 534.801 h -64.51 v 427.461 h 75.58 c 56.48,0 97.27,-10.621 122.36,-31.84 27.69,-23.633 41.54,-54.813 41.54,-93.57 0,-30.274 -8.68,-56.301 -26.03,-78.082 -17.35,-21.77 -40.24,-35.711 -68.66,-41.801"
         style="fill:#ffffff;fill-opacity:1;fill-rule:nonzero;stroke:none"
         id="path42" />
      <path
         d="M 3179.84,962.262 V 534.801 h -64.5 v 427.461 h 64.5"
         style="fill:#ffffff;fill-opacity:1;fill-rule:nonzero;stroke:none"
         id="path44" />
      <path
         d="M 3268.16,534.801 V 991.332 L 3579.9,665.199 v 297.063 h 64.5 V 508.77 L 3332.66,834.078 V 534.801 h -64.5"
         style="fill:#ffffff;fill-opacity:1;fill-rule:nonzero;stroke:none"
         id="path46" />
      <path
         d="m 3965.69,757.391 h 176.64 V 743.27 c 0,-32.11 -3.79,-60.54 -11.36,-85.27 -7.38,-22.891 -19.84,-44.289 -37.37,-64.238 -39.69,-44.66 -90.17,-66.992 -151.44,-66.992 -59.8,0 -111.02,21.589 -153.66,64.789 -42.63,43.371 -63.95,95.421 -63.95,156.14 0,62.012 21.69,114.621 65.07,157.801 43.37,43.379 96.15,65.07 158.36,65.07 33.39,0 64.6,-6.808 93.57,-20.398 27.69,-13.594 54.91,-35.684 81.67,-66.262 l -45.96,-44.019 c -35.07,46.699 -77.79,70.05 -128.18,70.05 -45.23,0 -83.16,-15.601 -113.79,-46.793 -30.63,-30.648 -45.96,-69.027 -45.96,-115.179 0,-47.61 17.07,-86.828 51.22,-117.649 31.93,-28.621 66.54,-42.922 103.82,-42.922 31.75,0 60.27,10.672 85.55,32.032 25.28,21.539 39.4,47.308 42.36,77.332 h -106.59 v 60.629"
         style="fill:#ffffff;fill-opacity:1;fill-rule:nonzero;stroke:none"
         id="path48" />
      <path
         d="m 2276.17,4217.75 c 0,0 507.68,-129.6 810.43,-670.9 308.38,-551.37 209.49,-1311.61 -359.01,-1478.6 0,0 14.08,7.98 20.06,11.15 84.98,45.01 144.07,114.38 177.2,187.75 75.17,166.45 73.41,380.15 -63.84,639.34 -77.19,145.79 -258.77,342.21 -347.65,391.02 0,0 200.66,-247.62 -145.13,-627.23 -199.98,-219.55 -175.05,-359.86 -127,-456.95 42.8,-86.47 151.42,-148.44 196.27,-160.96 5.51,-1.55 17.01,-2.34 17.01,-2.34 0,0 -198.97,-24.47 -374.9,198.61 -185.78,235.56 -164.55,464.07 -130.29,644.34 43.93,231.17 267.23,444.63 337.96,646.42 107.61,306.98 76.26,638.63 -11.11,678.35"
         style="fill:#ffffff;fill-opacity:1;fill-rule:nonzero;stroke:none"
         id="path50" />
    </g>
  </g>
</svg>
