<?xml version="1.0" encoding="UTF-8" standalone="no"?>
<!-- Created with Inkscape (http://www.inkscape.org/) -->

<svg
   version="1.1"
   id="svg2"
   width="680.32001"
   height="680.32001"
   viewBox="0 0 680.32001 680.32001"
   sodipodi:docname="REST_EFTER_SORTERING_rgb_sort.icon.svg"
   inkscape:version="1.3.2 (091e20e, 2023-11-25, custom)"
   xmlns:inkscape="http://www.inkscape.org/namespaces/inkscape"
   xmlns:sodipodi="http://sodipodi.sourceforge.net/DTD/sodipodi-0.dtd"
   xmlns="http://www.w3.org/2000/svg"
   xmlns:svg="http://www.w3.org/2000/svg">
  <defs
     id="defs6" />
  <sodipodi:namedview
     id="namedview4"
     pagecolor="#ffffff"
     bordercolor="#000000"
     borderopacity="0.25"
     inkscape:showpageshadow="2"
     inkscape:pageopacity="0.0"
     inkscape:pagecheckerboard="0"
     inkscape:deskcolor="#d1d1d1"
     inkscape:zoom="1.6859713"
     inkscape:cx="340.16"
     inkscape:cy="340.16"
     inkscape:window-width="2560"
     inkscape:window-height="1361"
     inkscape:window-x="2551"
     inkscape:window-y="-9"
     inkscape:window-maximized="1"
     inkscape:current-layer="g8" />
  <g
     id="g8"
     inkscape:groupmode="layer"
     inkscape:label="ink_ext_XXXXXX"
     transform="matrix(1.3333333,0,0,-1.3333333,0,680.32)">
    <g
       id="g10"
       transform="scale(0.1)">
      <path
         d="M 5102.36,-0.0117188 H 0.00390625 V 5102.36 H 5102.36 V -0.0117188"
         style="fill:#111111;fill-opacity:1;fill-rule:nonzero;stroke:none"
         id="path12" />
      <path
         d="m 2276.17,4217.75 c 0,0 507.68,-129.6 810.43,-670.9 308.38,-551.37 209.49,-1311.61 -359.01,-1478.6 0,0 14.08,7.98 20.06,11.15 84.98,45.01 144.07,114.38 177.2,187.75 75.17,166.45 73.41,380.15 -63.84,639.34 -77.19,145.79 -258.77,342.21 -347.65,391.02 0,0 200.66,-247.62 -145.13,-627.23 -199.98,-219.55 -175.05,-359.86 -127,-456.95 42.8,-86.47 151.42,-148.44 196.27,-160.96 5.51,-1.55 17.01,-2.34 17.01,-2.34 0,0 -198.97,-24.47 -374.9,198.61 -185.78,235.56 -164.55,464.07 -130.29,644.34 43.93,231.17 267.23,444.63 337.96,646.42 107.61,306.98 76.26,638.63 -11.11,678.35"
         style="fill:#ffffff;fill-opacity:1;fill-rule:nonzero;stroke:none"
         id="path50" />
    </g>
  </g>
</svg>
