<?xml version="1.0" encoding="UTF-8" standalone="no"?>
<!-- Created with Inkscape (http://www.inkscape.org/) -->

<svg
   version="1.1"
   id="svg2"
   width="680.32001"
   height="680.32001"
   viewBox="0 0 680.32001 680.32001"
   sodipodi:docname="RESTAFFALD_rgb.eps"
   xmlns:inkscape="http://www.inkscape.org/namespaces/inkscape"
   xmlns:sodipodi="http://sodipodi.sourceforge.net/DTD/sodipodi-0.dtd"
   xmlns="http://www.w3.org/2000/svg"
   xmlns:svg="http://www.w3.org/2000/svg">
  <defs
     id="defs6" />
  <sodipodi:namedview
     id="namedview4"
     pagecolor="#ffffff"
     bordercolor="#000000"
     borderopacity="0.25"
     inkscape:showpageshadow="2"
     inkscape:pageopacity="0.0"
     inkscape:pagecheckerboard="0"
     inkscape:deskcolor="#d1d1d1" />
  <g
     id="g8"
     inkscape:groupmode="layer"
     inkscape:label="ink_ext_XXXXXX"
     transform="matrix(1.3333333,0,0,-1.3333333,0,680.32)">
    <g
       id="g10"
       transform="scale(0.1)">
      <path
         d="M 5102.36,0 H 0 V 5102.36 H 5102.36 V 0"
         style="fill:#111111;fill-opacity:1;fill-rule:nonzero;stroke:none"
         id="path12" />
      <path
         d="m 1003.4,763.18 h 20.49 c 61.09,0 91.64,23.34 91.64,70.039 0,43.742 -29.72,65.613 -89.15,65.613 H 1003.4 Z M 1083.69,714.172 1216.03,532 h -78.91 L 1015.03,706.969 H 1003.4 V 532 h -64.505 v 427.469 h 75.585 c 56.47,0 97.26,-10.617 122.37,-31.84 27.68,-23.629 41.52,-54.82 41.52,-93.578 0,-30.27 -8.67,-56.301 -26.02,-78.071 -17.35,-21.781 -40.24,-35.718 -68.66,-41.808"
         style="fill:#ffffff;fill-opacity:1;fill-rule:nonzero;stroke:none"
         id="path14" />
      <path
         d="M 1510.74,898.832 H 1339.36 V 796.121 h 166.39 V 735.488 H 1339.36 V 592.629 h 171.38 V 532 h -235.88 v 427.469 h 235.88 v -60.637"
         style="fill:#ffffff;fill-opacity:1;fill-rule:nonzero;stroke:none"
         id="path16" />
      <path
         d="m 1837.15,896.07 -52.33,-31.011 c -9.78,16.98 -19.1,28.05 -27.96,33.222 -9.23,5.91 -21.13,8.86 -35.71,8.86 -17.91,0 -32.77,-5.082 -44.58,-15.243 -11.81,-9.976 -17.71,-22.527 -17.71,-37.679 0,-20.867 15.5,-37.68 46.51,-50.418 L 1748,786.34 c 34.7,-14.039 60.08,-31.168 76.14,-51.391 16.06,-20.23 24.08,-45.019 24.08,-74.39 0,-39.34 -13.1,-71.848 -39.31,-97.528 -26.4,-25.859 -59.16,-38.781 -98.28,-38.781 -37.1,0 -67.74,11.031 -91.92,33.102 -23.81,22.039 -38.67,53 -44.57,92.867 l 65.34,14.402 c 2.95,-25.109 8.11,-42.461 15.5,-52.051 13.29,-18.461 32.67,-27.691 58.14,-27.691 20.11,0 36.82,6.73 50.11,20.191 13.29,13.469 19.93,30.532 19.93,51.192 0,8.289 -1.15,15.898 -3.46,22.816 -2.31,6.922 -5.91,13.281 -10.8,19.094 -4.89,5.808 -11.21,11.25 -18.96,16.316 -7.75,5.071 -16.98,9.922 -27.69,14.532 L 1681,746.172 c -58.51,24.707 -87.76,60.867 -87.76,108.449 0,32.09 12.27,58.93 36.82,80.5 24.55,21.77 55.1,32.649 91.64,32.649 49.28,0 87.76,-23.899 115.45,-71.7"
         style="fill:#ffffff;fill-opacity:1;fill-rule:nonzero;stroke:none"
         id="path18" />
      <path
         d="M 2051.99,898.832 V 532 h -64.51 v 366.832 h -98.28 v 60.637 H 2150 v -60.637 h -98.01"
         style="fill:#ffffff;fill-opacity:1;fill-rule:nonzero;stroke:none"
         id="path20" />
      <path
         d="m 2400.13,696.449 -63.4,145.352 -66.44,-145.352 z m 26.3,-60.629 h -183 L 2195.81,532 h -69.49 L 2337.84,986.32 2541.88,532 h -70.6 l -44.85,103.82"
         style="fill:#ffffff;fill-opacity:1;fill-rule:nonzero;stroke:none"
         id="path22" />
      <path
         d="M 2817.77,898.832 H 2668.82 V 796.121 h 143.69 V 735.488 H 2668.82 V 532 h -64.5 v 427.469 h 213.45 v -60.637"
         style="fill:#ffffff;fill-opacity:1;fill-rule:nonzero;stroke:none"
         id="path24" />
      <path
         d="M 3105.98,898.832 H 2957.03 V 796.121 h 143.69 V 735.488 H 2957.03 V 532 h -64.51 v 427.469 h 213.46 v -60.637"
         style="fill:#ffffff;fill-opacity:1;fill-rule:nonzero;stroke:none"
         id="path26" />
      <path
         d="m 3368.3,696.449 -63.4,145.352 -66.45,-145.352 z m 26.3,-60.629 h -183 L 3163.98,532 h -69.49 L 3306,986.32 3510.05,532 h -70.6 l -44.85,103.82"
         style="fill:#ffffff;fill-opacity:1;fill-rule:nonzero;stroke:none"
         id="path28" />
      <path
         d="m 3636.99,959.469 v -366.84 h 125.69 V 532 h -190.2 v 427.469 h 64.51"
         style="fill:#ffffff;fill-opacity:1;fill-rule:nonzero;stroke:none"
         id="path30" />
      <path
         d="m 3897.37,592.629 h 29.07 c 28.98,0 53.06,3.051 72.26,9.141 19.19,6.46 36.55,16.699 52.05,30.73 31.74,28.969 47.62,66.719 47.62,113.23 0,46.879 -15.69,84.899 -47.07,114.071 -28.24,26.019 -69.86,39.031 -124.86,39.031 h -29.07 z M 3832.86,532 v 427.469 h 89.71 c 43,0 76.96,-4.25 101.88,-12.739 26.76,-8.3 51.03,-22.421 72.81,-42.359 44.11,-40.242 66.17,-93.121 66.17,-158.641 0,-65.71 -22.98,-118.859 -68.94,-159.46 -23.07,-20.309 -47.25,-34.43 -72.53,-42.36 -23.63,-7.941 -57.13,-11.91 -100.5,-11.91 h -88.6"
         style="fill:#ffffff;fill-opacity:1;fill-rule:nonzero;stroke:none"
         id="path32" />
      <path
         d="m 2780.12,3503.58 402.66,330.48 c 0,0 -143.95,-58.39 -217.44,50.5 -39.11,57.95 -68.13,109.52 -89.69,142.41 -69.75,106.39 -141.61,-2.15 -141.61,-2.15 l -156.21,-402.52 -51.86,570.07 c -101.93,-301.43 -530.83,-59.65 -443.79,-245.54 l 241.02,-443.25 h 100.6 356.32"
         style="fill:#ffffff;fill-opacity:1;fill-rule:nonzero;stroke:none"
         id="path34" />
      <path
         d="m 3470.42,1598.45 c -3.89,4.4 -28.69,33.51 -53.67,85.23 -26.82,55.53 -52.55,138.4 -54.29,246.91 -0.19,5.04 -1.16,27.69 -0.91,34.53 0.81,23.03 1.51,45.73 2.09,68.11 10.3,279.55 5.69,780.62 -139.64,1052.14 -107.61,201.08 -321.14,328.82 -443.75,367.18 h -24.13 -112.94 -317.67 -2.46 c -122.89,-38.96 -338.2,-166.96 -445.37,-367.18 -145.33,-271.52 -149.94,-772.59 -139.63,-1052.14 l 1.78,-49.61 c 0.45,-13.15 0.36,-25.89 0.14,-38.51 -0.09,-4.69 -0.2,-9.33 -0.37,-13.94 -5.61,-209.33 -101.57,-341.49 -110.02,-352.71 -0.33,-0.45 -2.34,-3.73 -2.34,-3.73 -4.57,-6.27 -7.26,-13.85 -7.26,-22.02 0,-21.58 18.71,-39.08 41.78,-39.08 6.68,0 13.39,1.64 20.23,3.97 34.23,10.24 204.62,58.89 388.24,58.89 105.34,0 164.39,-11.38 221.48,-22.4 15.1,-2.92 116.81,-22.57 213.13,-22.57 118.87,0 238.3,7.75 391.28,100.21 59.07,-24.13 120.91,-42.37 180.9,-56.27 108.47,-25.14 210.76,-35.9 279.47,-40.41 49.25,-3.24 81.33,-3.32 85.83,-3.24 0,0 0.15,0.01 0.22,0.02 l 0.31,-0.02 c 21.81,0 39.49,17.4 39.49,38.85 0,10.9 -4.89,19.4 -11.92,27.79"
         style="fill:#ffffff;fill-opacity:1;fill-rule:nonzero;stroke:none"
         id="path36" />
    </g>
  </g>
</svg>
