<?xml version="1.0" encoding="UTF-8" standalone="no"?>
<!-- Created with Inkscape (http://www.inkscape.org/) -->

<svg
   version="1.1"
   id="svg2"
   width="680.32001"
   height="680.32001"
   viewBox="0 0 680.32001 680.32001"
   sodipodi:docname="ROEGALARMER_rgb.eps"
   xmlns:inkscape="http://www.inkscape.org/namespaces/inkscape"
   xmlns:sodipodi="http://sodipodi.sourceforge.net/DTD/sodipodi-0.dtd"
   xmlns="http://www.w3.org/2000/svg"
   xmlns:svg="http://www.w3.org/2000/svg">
  <defs
     id="defs6" />
  <sodipodi:namedview
     id="namedview4"
     pagecolor="#ffffff"
     bordercolor="#000000"
     borderopacity="0.25"
     inkscape:showpageshadow="2"
     inkscape:pageopacity="0.0"
     inkscape:pagecheckerboard="0"
     inkscape:deskcolor="#d1d1d1" />
  <g
     id="g8"
     inkscape:groupmode="layer"
     inkscape:label="ink_ext_XXXXXX"
     transform="matrix(1.3333333,0,0,-1.3333333,0,680.32)">
    <g
       id="g10"
       transform="scale(0.1)">
      <path
         d="M 5102.36,0 0.00390625,0.0117188 V 5102.36 L 5102.36,5102.35 V 0"
         style="fill:#f28519;fill-opacity:1;fill-rule:nonzero;stroke:none"
         id="path12" />
      <path
         d="m 643.27,765.191 h 20.488 c 61.09,0 91.64,23.34 91.64,70.039 0,43.739 -29.722,65.622 -89.152,65.622 H 643.27 Z M 723.559,716.18 855.895,534.012 H 776.988 L 654.898,708.98 H 643.27 V 534.012 h -64.508 v 427.457 h 75.582 c 56.476,0 97.265,-10.61 122.371,-31.828 27.687,-23.621 41.527,-54.821 41.527,-93.582 0,-30.27 -8.679,-56.289 -26.023,-78.071 -17.356,-21.777 -40.239,-35.707 -68.66,-41.808"
         style="fill:#ffffff;fill-opacity:1;fill-rule:nonzero;stroke:none"
         id="path14" />
      <path
         d="M 1254.16,845.75 1031.84,619 c 31.19,-21.59 63.3,-32.391 96.35,-32.391 43.56,0 80.65,15.602 111.29,46.801 30.64,31.18 45.96,69.211 45.96,114.059 0,35.242 -10.43,68.011 -31.28,98.281 z m -37.1,36.27 c -26.77,17.902 -56.2,26.859 -88.32,26.859 -45.59,0 -83.61,-15.598 -114.07,-46.789 -30.268,-31.391 -45.4,-70.32 -45.4,-116.84 0,-30.461 8.949,-60.168 26.855,-89.148 z m 45.12,42.64 46.24,47.059 37.1,-36.821 -45.68,-46.777 c 33.78,-42.09 50.66,-89.25 50.66,-141.48 0,-60.551 -21.87,-112.403 -65.62,-155.602 -43.74,-43.187 -96.25,-64.777 -157.52,-64.777 -51.13,0 -98.29,16.34 -141.477,49 l -45.957,-45.684 -35.438,36.274 44.571,45.957 c -29.899,39.871 -44.848,84.632 -44.848,134.273 0,63.859 22.605,117.297 67.828,160.309 44.291,42.078 96.621,63.109 156.981,63.109 47.98,0 92.37,-14.941 133.16,-44.84"
         style="fill:#ffffff;fill-opacity:1;fill-rule:nonzero;stroke:none"
         id="path16" />
      <path
         d="m 1665.85,756.602 h 176.64 V 742.48 c 0,-32.109 -3.79,-60.539 -11.36,-85.261 -7.38,-22.891 -19.84,-44.297 -37.37,-64.239 -39.69,-44.671 -90.16,-66.992 -151.44,-66.992 -59.8,0 -111.02,21.594 -153.66,64.782 -42.63,43.371 -63.95,95.421 -63.95,156.14 0,62.02 21.69,114.621 65.06,157.82 43.37,43.372 96.16,65.051 158.36,65.051 33.41,0 64.6,-6.832 93.58,-20.48 27.69,-13.672 54.91,-35.813 81.67,-66.449 l -45.96,-44.02 c -35.06,46.699 -77.79,70.047 -128.18,70.047 -45.22,0 -83.15,-15.598 -113.79,-46.789 -30.64,-30.641 -45.96,-69.031 -45.96,-115.18 0,-47.609 17.07,-86.828 51.22,-117.66 31.93,-28.609 66.54,-42.91 103.82,-42.91 31.75,0 60.26,10.699 85.55,32.121 25.29,21.59 39.41,47.43 42.36,77.519 h -106.59 v 60.622"
         style="fill:#ffffff;fill-opacity:1;fill-rule:nonzero;stroke:none"
         id="path18" />
      <path
         d="m 2129.03,698.469 -63.4,145.351 -66.44,-145.351 z m 26.3,-60.641 h -183 l -47.62,-103.816 h -69.49 l 211.52,454.316 204.04,-454.316 h -70.6 l -44.85,103.816"
         style="fill:#ffffff;fill-opacity:1;fill-rule:nonzero;stroke:none"
         id="path20" />
      <path
         d="M 2394.12,961.469 V 594.648 h 125.7 v -60.636 h -190.2 v 427.457 h 64.5"
         style="fill:#ffffff;fill-opacity:1;fill-rule:nonzero;stroke:none"
         id="path22" />
      <path
         d="m 2854.83,698.469 -63.4,145.351 -66.44,-145.351 z m 26.31,-60.641 h -183.01 l -47.62,-103.816 h -69.49 l 211.53,454.316 204.04,-454.316 h -70.61 l -44.84,103.816"
         style="fill:#ffffff;fill-opacity:1;fill-rule:nonzero;stroke:none"
         id="path24" />
      <path
         d="m 3127.14,765.191 h 20.48 c 61.09,0 91.63,23.34 91.63,70.039 0,43.739 -29.71,65.622 -89.14,65.622 h -22.97 z m 80.28,-49.011 132.34,-182.168 h -78.9 l -122.1,174.968 h -11.62 V 534.012 h -64.52 v 427.457 h 75.59 c 56.47,0 97.27,-10.61 122.36,-31.828 27.69,-23.621 41.54,-54.821 41.54,-93.582 0,-30.27 -8.69,-56.289 -26.03,-78.071 -17.35,-21.777 -40.24,-35.707 -68.66,-41.808"
         style="fill:#ffffff;fill-opacity:1;fill-rule:nonzero;stroke:none"
         id="path26" />
      <path
         d="m 3401.65,534.012 89.98,459.578 146.73,-332.219 151.99,332.219 80.85,-459.578 h -66.17 l -41.25,258.027 -126.53,-277.68 -122.93,277.95 -45.95,-258.297 h -66.72"
         style="fill:#ffffff;fill-opacity:1;fill-rule:nonzero;stroke:none"
         id="path28" />
      <path
         d="M 4177.79,900.852 H 4006.42 V 798.129 h 166.39 V 737.5 H 4006.42 V 594.648 h 171.37 v -60.636 h -235.88 v 427.457 h 235.88 v -60.617"
         style="fill:#ffffff;fill-opacity:1;fill-rule:nonzero;stroke:none"
         id="path30" />
      <path
         d="m 4316.21,765.191 h 20.49 c 61.09,0 91.64,23.34 91.64,70.039 0,43.739 -29.72,65.622 -89.15,65.622 h -22.98 z m 80.29,-49.011 132.33,-182.168 h -78.9 L 4327.84,708.98 h -11.63 V 534.012 h -64.5 v 427.457 h 75.57 c 56.49,0 97.28,-10.61 122.38,-31.828 27.68,-23.621 41.53,-54.821 41.53,-93.582 0,-30.27 -8.68,-56.289 -26.03,-78.071 -17.35,-21.777 -40.24,-35.707 -68.66,-41.808"
         style="fill:#ffffff;fill-opacity:1;fill-rule:nonzero;stroke:none"
         id="path32" />
      <path
         d="m 3285.59,2327.79 c -42.26,0 -76.53,34.27 -76.53,76.54 0,42.26 34.27,76.53 76.53,76.53 42.27,0 76.54,-34.27 76.54,-76.53 0,-42.27 -34.27,-76.54 -76.54,-76.54 z m -219.7,254.71 c 0.78,1.79 1.58,3.57 2.34,5.37 29.28,69.22 44.13,142.73 44.13,218.48 0,75.74 -14.85,149.25 -44.13,218.48 -0.76,1.8 -1.56,3.57 -2.34,5.36 l 89.7,49.15 c 37.78,-83.3 58.81,-175.74 58.81,-272.99 0,-97.26 -21.03,-189.7 -58.81,-272.99 z m -463.76,-437.51 v 102.41 c 57.74,5.19 113.88,19.16 167.45,41.82 66.84,28.27 126.86,68.73 178.39,120.26 25.79,25.78 48.79,53.69 68.9,83.52 l 89.54,-49.05 c -109.79,-167.67 -293.4,-282.85 -504.28,-298.96 z m 0,256.34 c 114.86,14.32 214.88,76.38 279.63,165.69 l 90.07,-49.34 c -82.91,-120.62 -216.3,-203.8 -369.7,-219.04 z m 0,912.72 c 153.4,-15.23 286.79,-98.42 369.7,-219.02 l -90.07,-49.35 c -64.75,89.3 -164.77,151.37 -279.63,165.69 z m 328.76,-357.82 90.07,49.35 c 25.99,-61.21 40.37,-128.54 40.37,-199.23 0,-70.69 -14.38,-138.03 -40.37,-199.24 l -90.07,49.35 c 18.33,46.41 28.39,96.97 28.39,149.89 0,52.92 -10.06,103.48 -28.39,149.88 z m -328.76,511.48 c 210.87,-16.11 394.49,-131.29 504.28,-298.96 l -89.54,-49.05 c -20.11,29.83 -43.11,57.74 -68.9,83.52 -51.53,51.53 -111.55,91.99 -178.39,120.26 -53.57,22.66 -109.71,36.63 -167.45,41.81 z m -102.05,-102.42 c -57.75,-5.18 -113.9,-19.15 -167.47,-41.81 -66.84,-28.27 -126.86,-68.73 -178.38,-120.26 -25.79,-25.78 -48.8,-53.69 -68.9,-83.52 l -89.55,49.05 c 109.79,167.67 293.41,282.85 504.3,298.96 z m 0,-153.92 c -114.87,-14.32 -214.9,-76.38 -279.65,-165.69 l -90.07,49.35 c 82.91,120.6 216.31,203.79 369.72,219.02 z m 0,-912.73 c -153.41,15.24 -286.81,98.42 -369.72,219.04 l 90.07,49.34 c 64.75,-89.31 164.78,-151.37 279.65,-165.69 z m -328.77,357.82 -90.08,-49.35 c -25.98,61.21 -40.37,128.55 -40.37,199.24 0,70.69 14.39,138.02 40.37,199.23 l 90.08,-49.35 c -18.33,-46.4 -28.4,-96.96 -28.4,-149.88 0,-52.92 10.07,-103.48 28.4,-149.89 z m 328.77,-511.48 c -210.89,16.12 -394.51,131.3 -504.3,298.97 l 89.55,49.05 c 20.1,-29.83 43.11,-57.74 68.9,-83.52 51.52,-51.53 111.54,-91.99 178.38,-120.26 53.57,-22.66 109.72,-36.63 167.47,-41.82 z m -612.29,661.37 c 0,97.25 21.04,189.69 58.81,272.99 l 89.71,-49.15 c -0.78,-1.79 -1.58,-3.56 -2.34,-5.36 -29.29,-69.23 -44.13,-142.74 -44.13,-218.48 0,-75.75 14.84,-149.26 44.13,-218.48 0.76,-1.8 1.56,-3.58 2.34,-5.37 l -89.71,-49.14 c -37.77,83.29 -58.81,175.73 -58.81,272.99 z m 663.31,1020.47 c -562.69,0 -1020.47,-457.78 -1020.47,-1020.48 0,-562.68 457.78,-1020.46 1020.47,-1020.46 562.69,0 1020.47,457.78 1020.47,1020.46 0,562.7 -457.78,1020.48 -1020.47,1020.48"
         style="fill:#ffffff;fill-opacity:1;fill-rule:nonzero;stroke:none"
         id="path34" />
    </g>
  </g>
</svg>
