<?xml version="1.0" encoding="UTF-8" standalone="no"?>
<!-- Created with Inkscape (http://www.inkscape.org/) -->

<svg
   version="1.1"
   id="svg2"
   width="680.32001"
   height="680.32001"
   viewBox="0 0 680.32001 680.32001"
   sodipodi:docname="ROEGALARMER_rgb.icon.svg"
   inkscape:version="1.3.2 (091e20e, 2023-11-25, custom)"
   xmlns:inkscape="http://www.inkscape.org/namespaces/inkscape"
   xmlns:sodipodi="http://sodipodi.sourceforge.net/DTD/sodipodi-0.dtd"
   xmlns="http://www.w3.org/2000/svg"
   xmlns:svg="http://www.w3.org/2000/svg">
  <defs
     id="defs6" />
  <sodipodi:namedview
     id="namedview4"
     pagecolor="#ffffff"
     bordercolor="#000000"
     borderopacity="0.25"
     inkscape:showpageshadow="2"
     inkscape:pageopacity="0.0"
     inkscape:pagecheckerboard="0"
     inkscape:deskcolor="#d1d1d1"
     inkscape:zoom="1.6859713"
     inkscape:cx="340.16"
     inkscape:cy="340.16"
     inkscape:window-width="2560"
     inkscape:window-height="1361"
     inkscape:window-x="2551"
     inkscape:window-y="-9"
     inkscape:window-maximized="1"
     inkscape:current-layer="g8" />
  <g
     id="g8"
     inkscape:groupmode="layer"
     inkscape:label="ink_ext_XXXXXX"
     transform="matrix(1.3333333,0,0,-1.3333333,0,680.32)">
    <g
       id="g10"
       transform="scale(0.1)">
      <path
         d="M 5102.36,0 0.00390625,0.0117188 V 5102.36 L 5102.36,5102.35 V 0"
         style="fill:#f28519;fill-opacity:1;fill-rule:nonzero;stroke:none"
         id="path12" />
      <path
         d="m 3285.59,2327.79 c -42.26,0 -76.53,34.27 -76.53,76.54 0,42.26 34.27,76.53 76.53,76.53 42.27,0 76.54,-34.27 76.54,-76.53 0,-42.27 -34.27,-76.54 -76.54,-76.54 z m -219.7,254.71 c 0.78,1.79 1.58,3.57 2.34,5.37 29.28,69.22 44.13,142.73 44.13,218.48 0,75.74 -14.85,149.25 -44.13,218.48 -0.76,1.8 -1.56,3.57 -2.34,5.36 l 89.7,49.15 c 37.78,-83.3 58.81,-175.74 58.81,-272.99 0,-97.26 -21.03,-189.7 -58.81,-272.99 z m -463.76,-437.51 v 102.41 c 57.74,5.19 113.88,19.16 167.45,41.82 66.84,28.27 126.86,68.73 178.39,120.26 25.79,25.78 48.79,53.69 68.9,83.52 l 89.54,-49.05 c -109.79,-167.67 -293.4,-282.85 -504.28,-298.96 z m 0,256.34 c 114.86,14.32 214.88,76.38 279.63,165.69 l 90.07,-49.34 c -82.91,-120.62 -216.3,-203.8 -369.7,-219.04 z m 0,912.72 c 153.4,-15.23 286.79,-98.42 369.7,-219.02 l -90.07,-49.35 c -64.75,89.3 -164.77,151.37 -279.63,165.69 z m 328.76,-357.82 90.07,49.35 c 25.99,-61.21 40.37,-128.54 40.37,-199.23 0,-70.69 -14.38,-138.03 -40.37,-199.24 l -90.07,49.35 c 18.33,46.41 28.39,96.97 28.39,149.89 0,52.92 -10.06,103.48 -28.39,149.88 z m -328.76,511.48 c 210.87,-16.11 394.49,-131.29 504.28,-298.96 l -89.54,-49.05 c -20.11,29.83 -43.11,57.74 -68.9,83.52 -51.53,51.53 -111.55,91.99 -178.39,120.26 -53.57,22.66 -109.71,36.63 -167.45,41.81 z m -102.05,-102.42 c -57.75,-5.18 -113.9,-19.15 -167.47,-41.81 -66.84,-28.27 -126.86,-68.73 -178.38,-120.26 -25.79,-25.78 -48.8,-53.69 -68.9,-83.52 l -89.55,49.05 c 109.79,167.67 293.41,282.85 504.3,298.96 z m 0,-153.92 c -114.87,-14.32 -214.9,-76.38 -279.65,-165.69 l -90.07,49.35 c 82.91,120.6 216.31,203.79 369.72,219.02 z m 0,-912.73 c -153.41,15.24 -286.81,98.42 -369.72,219.04 l 90.07,49.34 c 64.75,-89.31 164.78,-151.37 279.65,-165.69 z m -328.77,357.82 -90.08,-49.35 c -25.98,61.21 -40.37,128.55 -40.37,199.24 0,70.69 14.39,138.02 40.37,199.23 l 90.08,-49.35 c -18.33,-46.4 -28.4,-96.96 -28.4,-149.88 0,-52.92 10.07,-103.48 28.4,-149.89 z m 328.77,-511.48 c -210.89,16.12 -394.51,131.3 -504.3,298.97 l 89.55,49.05 c 20.1,-29.83 43.11,-57.74 68.9,-83.52 51.52,-51.53 111.54,-91.99 178.38,-120.26 53.57,-22.66 109.72,-36.63 167.47,-41.82 z m -612.29,661.37 c 0,97.25 21.04,189.69 58.81,272.99 l 89.71,-49.15 c -0.78,-1.79 -1.58,-3.56 -2.34,-5.36 -29.29,-69.23 -44.13,-142.74 -44.13,-218.48 0,-75.75 14.84,-149.26 44.13,-218.48 0.76,-1.8 1.56,-3.58 2.34,-5.37 l -89.71,-49.14 c -37.77,83.29 -58.81,175.73 -58.81,272.99 z m 663.31,1020.47 c -562.69,0 -1020.47,-457.78 -1020.47,-1020.48 0,-562.68 457.78,-1020.46 1020.47,-1020.46 562.69,0 1020.47,457.78 1020.47,1020.46 0,562.7 -457.78,1020.48 -1020.47,1020.48"
         style="fill:#ffffff;fill-opacity:1;fill-rule:nonzero;stroke:none"
         id="path34" />
    </g>
  </g>
</svg>
