<?xml version="1.0" encoding="UTF-8" standalone="no"?>
<!-- Created with Inkscape (http://www.inkscape.org/) -->

<svg
   version="1.1"
   id="svg2"
   width="680.32001"
   height="680.32001"
   viewBox="0 0 680.32001 680.32001"
   sodipodi:docname="SKO_rgb.icon.svg"
   inkscape:version="1.3.2 (091e20e, 2023-11-25, custom)"
   xmlns:inkscape="http://www.inkscape.org/namespaces/inkscape"
   xmlns:sodipodi="http://sodipodi.sourceforge.net/DTD/sodipodi-0.dtd"
   xmlns="http://www.w3.org/2000/svg"
   xmlns:svg="http://www.w3.org/2000/svg">
  <defs
     id="defs6" />
  <sodipodi:namedview
     id="namedview4"
     pagecolor="#ffffff"
     bordercolor="#000000"
     borderopacity="0.25"
     inkscape:showpageshadow="2"
     inkscape:pageopacity="0.0"
     inkscape:pagecheckerboard="0"
     inkscape:deskcolor="#d1d1d1"
     showgrid="false"
     inkscape:zoom="1.6859713"
     inkscape:cx="340.16"
     inkscape:cy="340.16"
     inkscape:window-width="2560"
     inkscape:window-height="1361"
     inkscape:window-x="2551"
     inkscape:window-y="-9"
     inkscape:window-maximized="1"
     inkscape:current-layer="g8" />
  <g
     id="g8"
     inkscape:groupmode="layer"
     inkscape:label="ink_ext_XXXXXX"
     transform="matrix(1.3333333,0,0,-1.3333333,0,680.32)">
    <g
       id="g10"
       transform="scale(0.1)">
      <path
         d="M 5102.36,-0.0117188 H 0.00390625 V 5102.36 H 5102.36 V -0.0117188"
         style="fill:#76cb4d;fill-opacity:1;fill-rule:nonzero;stroke:none"
         id="path12" />
      <path
         d="m 1249.93,2204.03 h 1505.19 c 310.55,0 573.11,18.86 780.38,56.06 165.38,29.68 256.41,64.55 298.72,84.51 -0.74,1.52 -1.2,2.37 -1.23,2.43 -66.58,124.23 -224.59,120.63 -472.34,164.97 -255.05,45.64 -371.87,147.52 -574.51,260.53 l -18.65,10.48 c -0.13,0.07 -0.29,0.03 -0.37,-0.09 l -144.68,-207.23 -44.48,27.22 145.3,208.13 c -36.42,22.38 -85,52.25 -135.74,83.46 -0.01,0.01 -0.02,0.01 -0.03,0 l -145.48,-208.38 -44.48,27.23 145.55,208.49 c -112.06,68.95 -220.61,135.78 -220.61,135.78 0,0 -84.65,-134.35 -145.18,-194.09 -104.81,-103.46 -262.88,-169.33 -439.73,-169.33 -161.33,0 -307.02,54.83 -410.93,142.99 -0.6,-0.53 -1.16,-1.06 -1.7,-1.59 -89,-89.19 -77.14,-340.53 -75,-375.98 v -255.59"
         style="fill:#ffffff;fill-opacity:1;fill-rule:nonzero;stroke:none"
         id="path20" />
      <path
         d="M 3544.51,2209.87 C 3334.27,2172.13 3068.69,2153 2755.12,2153 H 1249.93 v -8.33 c 0,-51.76 41.86,-93.71 93.51,-93.71 h 698.9 494.74 238.22 c 375.59,0 678.65,27.29 900.76,81.09 73.69,17.85 126.65,36 163.53,51.24 12.49,46.25 12.4,83.97 8.53,111.52 -53.93,-24.47 -147.85,-56.98 -303.61,-84.94"
         style="fill:#ffffff;fill-opacity:1;fill-rule:nonzero;stroke:none"
         id="path22" />
    </g>
  </g>
</svg>
