<?xml version="1.0" encoding="UTF-8" standalone="no"?>
<!-- Created with Inkscape (http://www.inkscape.org/) -->

<svg
   version="1.1"
   id="svg2"
   width="680.32001"
   height="680.32001"
   viewBox="0 0 680.32001 680.32001"
   sodipodi:docname="SKO_rgb.eps"
   xmlns:inkscape="http://www.inkscape.org/namespaces/inkscape"
   xmlns:sodipodi="http://sodipodi.sourceforge.net/DTD/sodipodi-0.dtd"
   xmlns="http://www.w3.org/2000/svg"
   xmlns:svg="http://www.w3.org/2000/svg">
  <defs
     id="defs6" />
  <sodipodi:namedview
     id="namedview4"
     pagecolor="#ffffff"
     bordercolor="#000000"
     borderopacity="0.25"
     inkscape:showpageshadow="2"
     inkscape:pageopacity="0.0"
     inkscape:pagecheckerboard="0"
     inkscape:deskcolor="#d1d1d1" />
  <g
     id="g8"
     inkscape:groupmode="layer"
     inkscape:label="ink_ext_XXXXXX"
     transform="matrix(1.3333333,0,0,-1.3333333,0,680.32)">
    <g
       id="g10"
       transform="scale(0.1)">
      <path
         d="M 5102.36,-0.0117188 H 0.00390625 V 5102.36 H 5102.36 V -0.0117188"
         style="fill:#76cb4d;fill-opacity:1;fill-rule:nonzero;stroke:none"
         id="path12" />
      <path
         d="m 2263.28,906.031 -52.33,-31.019 c -9.78,16.988 -19.1,28.058 -27.95,33.226 -9.24,5.91 -21.14,8.864 -35.72,8.864 -17.91,0 -32.77,-5.071 -44.57,-15.231 -11.82,-9.961 -17.72,-22.519 -17.72,-37.652 0,-20.86 15.5,-37.649 46.51,-50.387 l 42.63,-17.441 c 34.7,-14.032 60.08,-31.141 76.14,-51.36 16.06,-20.211 24.09,-44.992 24.09,-74.332 0,-39.32 -13.11,-71.801 -39.32,-97.449 -26.4,-25.84 -59.15,-38.762 -98.28,-38.762 -37.1,0 -67.74,10.973 -91.92,32.942 -23.81,21.961 -38.67,52.879 -44.57,92.75 l 65.34,14.39 c 2.95,-25.101 8.12,-42.449 15.5,-52.05 13.29,-18.45 32.67,-27.68 58.14,-27.68 20.12,0 36.82,6.738 50.11,20.211 13.29,13.469 19.93,30.539 19.93,51.211 0,8.308 -1.15,15.929 -3.46,22.847 -2.31,6.922 -5.91,13.289 -10.79,19.102 -4.9,5.82 -11.21,11.258 -18.97,16.34 -7.75,5.07 -16.98,9.918 -27.68,14.527 l -41.25,17.16 c -58.51,24.742 -87.77,60.91 -87.77,108.532 0,32.121 12.27,58.968 36.82,80.57 24.55,21.769 55.1,32.672 91.64,32.672 49.28,0 87.77,-24 115.45,-71.981"
         style="fill:#ffffff;fill-opacity:1;fill-rule:nonzero;stroke:none"
         id="path14" />
      <path
         d="m 2411.26,799.148 166.38,170.551 h 86.11 L 2470.51,776.18 2664.86,542.238 h -86.39 l -153.93,190.203 -13.28,-13.3 V 542.238 h -64.51 v 427.461 h 64.51 V 799.148"
         style="fill:#ffffff;fill-opacity:1;fill-rule:nonzero;stroke:none"
         id="path16" />
      <path
         d="m 2716.61,757.07 c 0,-47.238 15.87,-86.101 47.62,-116.55 31.56,-30.461 68,-45.68 109.35,-45.68 44.85,0 82.69,15.512 113.52,46.512 30.82,31.378 46.23,69.578 46.23,114.617 0,45.59 -15.23,83.793 -45.69,114.621 -30.27,31.012 -67.73,46.512 -112.4,46.512 -44.48,0 -82.04,-15.5 -112.67,-46.512 -30.65,-30.641 -45.96,-68.481 -45.96,-113.52 z m -65.06,0.828 c 0,60.172 22.05,111.864 66.16,155.043 43.93,43.2 96.72,64.789 158.36,64.789 60.91,0 113.15,-21.781 156.7,-65.332 43.75,-43.566 65.62,-95.886 65.62,-156.988 0,-61.461 -21.97,-113.601 -65.89,-156.422 -44.11,-43.008 -97.37,-64.5 -159.75,-64.5 -55.18,0 -104.74,19.102 -148.67,57.301 -48.36,42.27 -72.53,97.641 -72.53,166.109"
         style="fill:#ffffff;fill-opacity:1;fill-rule:nonzero;stroke:none"
         id="path18" />
      <path
         d="m 1249.93,2204.03 h 1505.19 c 310.55,0 573.11,18.86 780.38,56.06 165.38,29.68 256.41,64.55 298.72,84.51 -0.74,1.52 -1.2,2.37 -1.23,2.43 -66.58,124.23 -224.59,120.63 -472.34,164.97 -255.05,45.64 -371.87,147.52 -574.51,260.53 l -18.65,10.48 c -0.13,0.07 -0.29,0.03 -0.37,-0.09 l -144.68,-207.23 -44.48,27.22 145.3,208.13 c -36.42,22.38 -85,52.25 -135.74,83.46 -0.01,0.01 -0.02,0.01 -0.03,0 l -145.48,-208.38 -44.48,27.23 145.55,208.49 c -112.06,68.95 -220.61,135.78 -220.61,135.78 0,0 -84.65,-134.35 -145.18,-194.09 -104.81,-103.46 -262.88,-169.33 -439.73,-169.33 -161.33,0 -307.02,54.83 -410.93,142.99 -0.6,-0.53 -1.16,-1.06 -1.7,-1.59 -89,-89.19 -77.14,-340.53 -75,-375.98 v -255.59"
         style="fill:#ffffff;fill-opacity:1;fill-rule:nonzero;stroke:none"
         id="path20" />
      <path
         d="M 3544.51,2209.87 C 3334.27,2172.13 3068.69,2153 2755.12,2153 H 1249.93 v -8.33 c 0,-51.76 41.86,-93.71 93.51,-93.71 h 698.9 494.74 238.22 c 375.59,0 678.65,27.29 900.76,81.09 73.69,17.85 126.65,36 163.53,51.24 12.49,46.25 12.4,83.97 8.53,111.52 -53.93,-24.47 -147.85,-56.98 -303.61,-84.94"
         style="fill:#ffffff;fill-opacity:1;fill-rule:nonzero;stroke:none"
         id="path22" />
    </g>
  </g>
</svg>
