<?xml version="1.0" encoding="UTF-8" standalone="no"?>
<!-- Created with Inkscape (http://www.inkscape.org/) -->

<svg
   version="1.1"
   id="svg2"
   width="680.32001"
   height="680.32001"
   viewBox="0 0 680.32001 680.32001"
   sodipodi:docname="SMAAT_ELEKTRONIK_rgb.icon.svg"
   inkscape:version="1.3.2 (091e20e, 2023-11-25, custom)"
   xmlns:inkscape="http://www.inkscape.org/namespaces/inkscape"
   xmlns:sodipodi="http://sodipodi.sourceforge.net/DTD/sodipodi-0.dtd"
   xmlns="http://www.w3.org/2000/svg"
   xmlns:svg="http://www.w3.org/2000/svg">
  <defs
     id="defs6" />
  <sodipodi:namedview
     id="namedview4"
     pagecolor="#ffffff"
     bordercolor="#000000"
     borderopacity="0.25"
     inkscape:showpageshadow="2"
     inkscape:pageopacity="0.0"
     inkscape:pagecheckerboard="0"
     inkscape:deskcolor="#d1d1d1"
     inkscape:zoom="1.6859713"
     inkscape:cx="340.16"
     inkscape:cy="340.16"
     inkscape:window-width="2560"
     inkscape:window-height="1361"
     inkscape:window-x="2551"
     inkscape:window-y="-9"
     inkscape:window-maximized="1"
     inkscape:current-layer="g8" />
  <g
     id="g8"
     inkscape:groupmode="layer"
     inkscape:label="ink_ext_XXXXXX"
     transform="matrix(1.3333333,0,0,-1.3333333,0,680.32)">
    <g
       id="g10"
       transform="scale(0.1)">
      <path
         d="M 5102.36,0 0,0.0117188 V 5102.36 l 5102.36,-0.01 V 0"
         style="fill:#f18519;fill-opacity:1;fill-rule:nonzero;stroke:none"
         id="path12" />
      <path
         d="m 3023.35,3115.52 c 0.08,-28.15 -22.76,-51.12 -50.91,-51.2 l -841.82,-2.33 c -28.16,-0.07 -51.12,22.77 -51.2,50.92 l -2.97,1071.43 c -0.07,28.15 22.77,51.11 50.92,51.19 l 841.82,2.33 c 28.15,0.08 51.12,-22.76 51.2,-50.91 z m -49.48,-355.81 c 0.03,-8.24 -6.63,-14.94 -14.87,-14.96 l -174.26,-0.48 c -8.24,-0.02 -14.94,6.64 -14.96,14.87 l -0.27,97.73 c -0.02,8.24 6.64,14.94 14.88,14.96 l 174.26,0.48 c 8.23,0.02 14.93,-6.64 14.95,-14.88 z m 0.71,-255.58 c 0.02,-8.24 -6.64,-14.94 -14.87,-14.96 l -174.26,-0.48 c -8.24,-0.03 -14.94,6.63 -14.96,14.87 l -0.27,97.73 c -0.03,8.24 6.63,14.93 14.87,14.96 l 174.26,0.48 c 8.24,0.02 14.94,-6.64 14.96,-14.88 z m 0.71,-255.59 c 0.02,-8.23 -6.64,-14.93 -14.88,-14.95 l -174.26,-0.49 c -8.24,-0.02 -14.93,6.64 -14.95,14.88 l -0.28,97.73 c -0.02,8.23 6.64,14.93 14.88,14.95 l 174.26,0.49 c 8.24,0.02 14.94,-6.64 14.96,-14.88 z m -320.87,510.29 c 0.02,-8.24 -6.64,-14.94 -14.88,-14.96 l -174.26,-0.48 c -8.24,-0.03 -14.93,6.63 -14.96,14.87 l -0.27,97.73 c -0.02,8.23 6.64,14.93 14.88,14.95 l 174.26,0.49 c 8.24,0.02 14.93,-6.64 14.96,-14.88 z m 0.7,-255.59 c 0.03,-8.24 -6.63,-14.93 -14.87,-14.95 l -174.26,-0.49 c -8.24,-0.02 -14.94,6.64 -14.96,14.88 l -0.27,97.72 c -0.02,8.24 6.64,14.94 14.87,14.96 l 174.27,0.48 c 8.23,0.03 14.93,-6.63 14.95,-14.87 z m 0.71,-255.58 c 0.02,-8.24 -6.64,-14.93 -14.87,-14.96 l -174.27,-0.48 c -8.23,-0.02 -14.93,6.64 -14.95,14.88 l -0.27,97.72 c -0.03,8.24 6.63,14.94 14.87,14.96 l 174.26,0.48 c 8.24,0.02 14.94,-6.64 14.96,-14.87 z m -320.87,510.28 c 0.02,-8.24 -6.64,-14.93 -14.88,-14.96 l -174.26,-0.48 c -8.24,-0.02 -14.93,6.64 -14.96,14.88 l -0.27,97.72 c -0.02,8.24 6.64,14.94 14.88,14.96 l 174.26,0.48 c 8.24,0.03 14.94,-6.63 14.96,-14.87 z m 0.71,-255.58 c 0.02,-8.24 -6.64,-14.94 -14.88,-14.96 l -174.26,-0.48 c -8.24,-0.02 -14.94,6.64 -14.96,14.87 l -0.27,97.73 c -0.02,8.24 6.64,14.94 14.88,14.96 l 174.26,0.48 c 8.24,0.02 14.93,-6.64 14.96,-14.88 z m 0.7,-255.58 c 0.03,-8.24 -6.63,-14.94 -14.87,-14.96 l -174.26,-0.48 c -8.24,-0.03 -14.94,6.63 -14.96,14.87 l -0.27,97.73 c -0.02,8.24 6.64,14.93 14.87,14.96 l 174.27,0.48 c 8.23,0.02 14.93,-6.64 14.95,-14.88 z m 702.21,2091.1 -981.16,-2.72 c -45.88,-0.12 -83.33,-37.77 -83.2,-83.66 l 5.89,-2129.19 c 0.13,-45.89 37.78,-83.33 83.67,-83.2 l 981.16,2.71 c 45.88,0.13 83.33,37.78 83.2,83.67 l -5.89,2129.18 c -0.13,45.89 -37.78,83.33 -83.67,83.21"
         style="fill:#ffffff;fill-opacity:1;fill-rule:nonzero;stroke:none"
         id="path42" />
      <path
         d="m 2130.44,3113.05 841.86,2.3 -2.94,1071.45 -841.85,-2.29 2.93,-1071.46"
         style="fill:#ffffff;fill-opacity:1;fill-rule:nonzero;stroke:none"
         id="path44" />
    </g>
  </g>
</svg>
