<?xml version="1.0" encoding="UTF-8" standalone="no"?>
<!-- Created with Inkscape (http://www.inkscape.org/) -->

<svg
   version="1.1"
   id="svg2"
   width="680.32001"
   height="680.32001"
   viewBox="0 0 680.32001 680.32001"
   sodipodi:docname="SMAAT_ELEKTRONIK_rgb.eps"
   xmlns:inkscape="http://www.inkscape.org/namespaces/inkscape"
   xmlns:sodipodi="http://sodipodi.sourceforge.net/DTD/sodipodi-0.dtd"
   xmlns="http://www.w3.org/2000/svg"
   xmlns:svg="http://www.w3.org/2000/svg">
  <defs
     id="defs6" />
  <sodipodi:namedview
     id="namedview4"
     pagecolor="#ffffff"
     bordercolor="#000000"
     borderopacity="0.25"
     inkscape:showpageshadow="2"
     inkscape:pageopacity="0.0"
     inkscape:pagecheckerboard="0"
     inkscape:deskcolor="#d1d1d1" />
  <g
     id="g8"
     inkscape:groupmode="layer"
     inkscape:label="ink_ext_XXXXXX"
     transform="matrix(1.3333333,0,0,-1.3333333,0,680.32)">
    <g
       id="g10"
       transform="scale(0.1)">
      <path
         d="M 5102.36,0 0,0.0117188 V 5102.36 l 5102.36,-0.01 V 0"
         style="fill:#f18519;fill-opacity:1;fill-rule:nonzero;stroke:none"
         id="path12" />
      <path
         d="m 1116.72,894.988 -171.376,-0.468 0.285,-102.711 166.391,0.461 0.17,-60.629 -166.393,-0.461 0.394,-142.86 171.369,0.469 0.17,-60.629 -235.878,-0.648 -1.18,427.457 235.878,0.66 0.17,-60.641"
         style="fill:#ffffff;fill-opacity:1;fill-rule:nonzero;stroke:none"
         id="path14" />
      <path
         d="m 1252.81,956 1.02,-366.828 125.69,0.348 0.17,-60.629 -190.2,-0.532 -1.18,427.461 64.5,0.18"
         style="fill:#ffffff;fill-opacity:1;fill-rule:nonzero;stroke:none"
         id="path16" />
      <path
         d="m 1688.7,896.578 -171.37,-0.476 0.28,-102.711 166.39,0.461 0.17,-60.633 -166.39,-0.457 0.39,-142.864 171.38,0.481 0.16,-60.641 -235.88,-0.648 -1.18,427.461 235.88,0.66 0.17,-60.633"
         style="fill:#ffffff;fill-opacity:1;fill-rule:nonzero;stroke:none"
         id="path18" />
      <path
         d="m 1828.51,787.051 165.91,171 86.11,0.238 -192.71,-194.051 195,-233.41 -86.38,-0.238 -154.46,189.781 -13.25,-13.332 0.49,-176.91 -64.51,-0.18 -1.18,427.461 64.5,0.18 0.48,-170.539"
         style="fill:#ffffff;fill-opacity:1;fill-rule:nonzero;stroke:none"
         id="path20" />
      <path
         d="m 2290.3,898.238 1.02,-366.828 -64.51,-0.18 -1.01,366.829 -98.29,-0.27 -0.17,60.633 260.8,0.719 0.17,-60.629 -98.01,-0.274"
         style="fill:#ffffff;fill-opacity:1;fill-rule:nonzero;stroke:none"
         id="path22" />
      <path
         d="m 2525.36,763.23 20.48,0.059 c 61.1,0.172 91.58,23.602 91.45,70.301 -0.12,43.742 -29.9,65.531 -89.33,65.359 l -22.98,-0.058 z m 80.42,-48.781 132.84,-181.801 -78.9,-0.218 -122.58,174.629 -11.63,-0.028 0.49,-174.972 -64.51,-0.18 -1.18,427.461 75.58,0.211 c 56.48,0.16 97.29,-10.34 122.46,-31.5 27.75,-23.551 41.68,-54.699 41.78,-93.461 0.09,-30.27 -8.52,-56.32 -25.81,-78.141 -17.29,-21.828 -40.13,-35.828 -68.54,-42"
         style="fill:#ffffff;fill-opacity:1;fill-rule:nonzero;stroke:none"
         id="path24" />
      <path
         d="m 2823.35,747.859 c 0.13,-47.211 16.11,-85.98 47.94,-116.32 31.65,-30.348 68.14,-45.457 109.48,-45.34 44.85,0.121 82.65,15.723 113.39,46.781 30.73,31.43 46.04,69.649 45.91,114.649 -0.12,45.551 -15.46,83.672 -45.99,114.391 -30.36,30.902 -67.87,46.289 -112.54,46.16 -44.48,-0.121 -82,-15.719 -112.55,-46.782 -30.55,-30.699 -45.76,-68.546 -45.64,-113.539 z m -65.06,0.512 c -0.17,60.168 21.74,111.91 65.74,155.219 43.8,43.308 96.53,65.051 158.18,65.23 60.91,0.16 113.2,-21.468 156.88,-64.91 43.86,-43.441 65.88,-95.699 66.05,-156.789 0.17,-61.473 -21.65,-113.672 -65.46,-156.609 -44,-43.133 -97.19,-64.782 -159.57,-64.953 -55.19,-0.149 -104.8,18.82 -148.83,56.902 -48.47,42.129 -72.8,97.43 -72.99,165.91"
         style="fill:#ffffff;fill-opacity:1;fill-rule:nonzero;stroke:none"
         id="path26" />
      <path
         d="m 3281.99,534.148 -1.27,456.532 312.64,-325.27 -0.82,297.07 64.51,0.168 1.25,-453.476 -312.64,324.437 0.83,-299.281 -64.5,-0.18"
         style="fill:#ffffff;fill-opacity:1;fill-rule:nonzero;stroke:none"
         id="path28" />
      <path
         d="m 3811.03,963.078 1.18,-427.457 -64.51,-0.18 -1.18,427.457 64.51,0.18"
         style="fill:#ffffff;fill-opacity:1;fill-rule:nonzero;stroke:none"
         id="path30" />
      <path
         d="m 3967.38,792.969 165.92,171 86.1,0.242 -192.71,-194.063 195,-233.398 -86.38,-0.238 -154.45,189.769 -13.26,-13.32 0.49,-176.91 -64.51,-0.18 -1.18,427.457 64.51,0.184 0.47,-170.543"
         style="fill:#ffffff;fill-opacity:1;fill-rule:nonzero;stroke:none"
         id="path32" />
      <path
         d="m 2060.91,1436.6 -52.24,-31.15 c -9.83,16.95 -19.18,28 -28.06,33.14 -9.24,5.88 -21.16,8.8 -35.73,8.76 -17.91,-0.05 -32.75,-5.17 -44.54,-15.36 -11.78,-10.01 -17.65,-22.58 -17.61,-37.73 0.06,-20.87 15.61,-37.63 46.65,-50.29 l 42.69,-17.34 c 34.73,-13.95 60.16,-31.01 76.27,-51.18 16.12,-20.19 24.21,-44.96 24.29,-74.33 0.11,-39.34 -12.9,-71.88 -39.04,-97.63 -26.32,-25.93 -59.05,-38.95 -98.17,-39.06 -37.1,-0.1 -67.77,10.85 -92.01,32.84 -23.87,21.98 -38.82,52.9 -44.83,92.75 l 65.3,14.58 c 3.02,-25.09 8.23,-42.43 15.64,-52.01 13.34,-18.42 32.75,-27.59 58.22,-27.52 20.11,0.06 36.8,6.83 50.05,20.33 13.26,13.5 19.85,30.58 19.8,51.24 -0.03,8.3 -1.2,15.9 -3.53,22.81 -2.33,6.91 -5.94,13.27 -10.85,19.06 -4.91,5.8 -11.24,11.22 -19.01,16.27 -7.76,5.05 -17.01,9.87 -27.72,14.45 l -41.3,17.04 c -58.58,24.55 -87.93,60.62 -88.07,108.21 -0.08,32.09 12.11,58.96 36.6,80.6 24.49,21.83 55.01,32.8 91.55,32.9 49.28,0.14 87.83,-23.66 115.65,-71.38"
         style="fill:#ffffff;fill-opacity:1;fill-rule:nonzero;stroke:none"
         id="path34" />
      <path
         d="m 2127.74,1072.72 88.7,459.82 147.65,-331.82 151.08,332.65 82.11,-459.35 -66.17,-0.19 -41.96,257.92 -125.76,-278.04 -123.69,277.62 -45.24,-258.43 -66.72,-0.18"
         style="fill:#ffffff;fill-opacity:1;fill-rule:nonzero;stroke:none"
         id="path36" />
      <path
         d="m 3205.78,1442.53 1.01,-366.83 -64.51,-0.18 -1.01,366.84 -98.28,-0.28 -0.17,60.63 260.8,0.73 0.16,-60.64 -98,-0.27"
         style="fill:#ffffff;fill-opacity:1;fill-rule:nonzero;stroke:none"
         id="path38" />
      <path
         d="m 2836.06,1602.31 c 0,-7.93 2.63,-14.53 7.89,-19.79 5.26,-5.26 11.77,-7.89 19.52,-7.89 7.75,0 14.26,2.63 19.52,7.89 5.26,5.26 7.89,11.77 7.89,19.52 0,7.75 -2.63,14.26 -7.89,19.52 -5.26,5.26 -11.77,7.89 -19.52,7.89 -3.88,0 -7.48,-0.74 -10.8,-2.22 -3.32,-1.48 -6.23,-3.46 -8.72,-5.95 -2.49,-2.49 -4.43,-5.4 -5.81,-8.72 -1.39,-3.32 -2.08,-6.74 -2.08,-10.25 z m -32.94,0.56 c 0,16.24 5.9,30.17 17.71,41.8 11.81,11.81 25.93,17.72 42.36,17.72 16.8,0 31.01,-5.91 42.64,-17.72 11.81,-11.81 17.72,-26.02 17.72,-42.63 0,-16.61 -5.91,-30.83 -17.72,-42.64 -11.63,-11.81 -25.75,-17.72 -42.36,-17.72 -16.8,0 -31.1,5.91 -42.91,17.72 -11.63,11.81 -17.44,26.3 -17.44,43.47 z m 122.09,-363.24 -63.4,145.35 -66.45,-145.35 z m 26.3,-60.63 h -183 l -47.62,-103.82 h -69.49 l 211.52,454.32 204.04,-454.32 h -70.6 L 2951.51,1179"
         style="fill:#ffffff;fill-opacity:1;fill-rule:nonzero;stroke:none"
         id="path40" />
      <path
         d="m 3023.35,3115.52 c 0.08,-28.15 -22.76,-51.12 -50.91,-51.2 l -841.82,-2.33 c -28.16,-0.07 -51.12,22.77 -51.2,50.92 l -2.97,1071.43 c -0.07,28.15 22.77,51.11 50.92,51.19 l 841.82,2.33 c 28.15,0.08 51.12,-22.76 51.2,-50.91 z m -49.48,-355.81 c 0.03,-8.24 -6.63,-14.94 -14.87,-14.96 l -174.26,-0.48 c -8.24,-0.02 -14.94,6.64 -14.96,14.87 l -0.27,97.73 c -0.02,8.24 6.64,14.94 14.88,14.96 l 174.26,0.48 c 8.23,0.02 14.93,-6.64 14.95,-14.88 z m 0.71,-255.58 c 0.02,-8.24 -6.64,-14.94 -14.87,-14.96 l -174.26,-0.48 c -8.24,-0.03 -14.94,6.63 -14.96,14.87 l -0.27,97.73 c -0.03,8.24 6.63,14.93 14.87,14.96 l 174.26,0.48 c 8.24,0.02 14.94,-6.64 14.96,-14.88 z m 0.71,-255.59 c 0.02,-8.23 -6.64,-14.93 -14.88,-14.95 l -174.26,-0.49 c -8.24,-0.02 -14.93,6.64 -14.95,14.88 l -0.28,97.73 c -0.02,8.23 6.64,14.93 14.88,14.95 l 174.26,0.49 c 8.24,0.02 14.94,-6.64 14.96,-14.88 z m -320.87,510.29 c 0.02,-8.24 -6.64,-14.94 -14.88,-14.96 l -174.26,-0.48 c -8.24,-0.03 -14.93,6.63 -14.96,14.87 l -0.27,97.73 c -0.02,8.23 6.64,14.93 14.88,14.95 l 174.26,0.49 c 8.24,0.02 14.93,-6.64 14.96,-14.88 z m 0.7,-255.59 c 0.03,-8.24 -6.63,-14.93 -14.87,-14.95 l -174.26,-0.49 c -8.24,-0.02 -14.94,6.64 -14.96,14.88 l -0.27,97.72 c -0.02,8.24 6.64,14.94 14.87,14.96 l 174.27,0.48 c 8.23,0.03 14.93,-6.63 14.95,-14.87 z m 0.71,-255.58 c 0.02,-8.24 -6.64,-14.93 -14.87,-14.96 l -174.27,-0.48 c -8.23,-0.02 -14.93,6.64 -14.95,14.88 l -0.27,97.72 c -0.03,8.24 6.63,14.94 14.87,14.96 l 174.26,0.48 c 8.24,0.02 14.94,-6.64 14.96,-14.87 z m -320.87,510.28 c 0.02,-8.24 -6.64,-14.93 -14.88,-14.96 l -174.26,-0.48 c -8.24,-0.02 -14.93,6.64 -14.96,14.88 l -0.27,97.72 c -0.02,8.24 6.64,14.94 14.88,14.96 l 174.26,0.48 c 8.24,0.03 14.94,-6.63 14.96,-14.87 z m 0.71,-255.58 c 0.02,-8.24 -6.64,-14.94 -14.88,-14.96 l -174.26,-0.48 c -8.24,-0.02 -14.94,6.64 -14.96,14.87 l -0.27,97.73 c -0.02,8.24 6.64,14.94 14.88,14.96 l 174.26,0.48 c 8.24,0.02 14.93,-6.64 14.96,-14.88 z m 0.7,-255.58 c 0.03,-8.24 -6.63,-14.94 -14.87,-14.96 l -174.26,-0.48 c -8.24,-0.03 -14.94,6.63 -14.96,14.87 l -0.27,97.73 c -0.02,8.24 6.64,14.93 14.87,14.96 l 174.27,0.48 c 8.23,0.02 14.93,-6.64 14.95,-14.88 z m 702.21,2091.1 -981.16,-2.72 c -45.88,-0.12 -83.33,-37.77 -83.2,-83.66 l 5.89,-2129.19 c 0.13,-45.89 37.78,-83.33 83.67,-83.2 l 981.16,2.71 c 45.88,0.13 83.33,37.78 83.2,83.67 l -5.89,2129.18 c -0.13,45.89 -37.78,83.33 -83.67,83.21"
         style="fill:#ffffff;fill-opacity:1;fill-rule:nonzero;stroke:none"
         id="path42" />
      <path
         d="m 2130.44,3113.05 841.86,2.3 -2.94,1071.45 -841.85,-2.29 2.93,-1071.46"
         style="fill:#ffffff;fill-opacity:1;fill-rule:nonzero;stroke:none"
         id="path44" />
    </g>
  </g>
</svg>
