<?xml version="1.0" encoding="UTF-8" standalone="no"?>
<!-- Created with Inkscape (http://www.inkscape.org/) -->

<svg
   version="1.1"
   id="svg2"
   width="680.32001"
   height="680.32001"
   viewBox="0 0 680.32001 680.32001"
   sodipodi:docname="SMAAT_BRAENDBART_rgb_sort.eps"
   xmlns:inkscape="http://www.inkscape.org/namespaces/inkscape"
   xmlns:sodipodi="http://sodipodi.sourceforge.net/DTD/sodipodi-0.dtd"
   xmlns="http://www.w3.org/2000/svg"
   xmlns:svg="http://www.w3.org/2000/svg">
  <defs
     id="defs6" />
  <sodipodi:namedview
     id="namedview4"
     pagecolor="#ffffff"
     bordercolor="#000000"
     borderopacity="0.25"
     inkscape:showpageshadow="2"
     inkscape:pageopacity="0.0"
     inkscape:pagecheckerboard="0"
     inkscape:deskcolor="#d1d1d1" />
  <g
     id="g8"
     inkscape:groupmode="layer"
     inkscape:label="ink_ext_XXXXXX"
     transform="matrix(1.3333333,0,0,-1.3333333,0,680.32)">
    <g
       id="g10"
       transform="scale(0.1)">
      <path
         d="M 5102.36,-0.0117188 H 0.00390625 V 5102.36 H 5102.36 V -0.0117188"
         style="fill:#111111;fill-opacity:1;fill-rule:nonzero;stroke:none"
         id="path12" />
      <path
         d="m 918.918,610.441 h 39.867 c 29.16,0 50.565,5.731 64.225,17.168 14.4,12.371 21.6,28.051 21.6,47.063 0,18.457 -6.92,33.957 -20.76,46.519 -13.48,12.36 -37.569,18.539 -72.264,18.539 h -32.668 z m 0,183.289 h 20.211 c 23.988,0 41.57,5.301 52.738,15.911 11.163,10.609 16.753,26.25 16.753,46.929 0,20.11 -5.73,35.391 -17.167,45.821 -11.445,10.418 -28.058,15.64 -49.836,15.64 H 918.918 Z M 854.41,549.809 v 427.472 h 64.231 c 28.605,0 51.398,-2.222 68.382,-6.652 17.167,-4.418 31.657,-11.899 43.467,-22.418 12,-10.891 21.5,-24.473 28.52,-40.711 7.19,-16.418 10.79,-33.031 10.79,-49.828 0,-30.633 -11.72,-56.57 -35.16,-77.793 22.71,-7.758 40.61,-21.32 53.71,-40.699 13.29,-19.2 19.94,-41.532 19.94,-67 0,-33.41 -11.82,-61.649 -35.44,-84.711 -14.21,-14.219 -30.18,-24.098 -47.9,-29.629 -19.38,-5.36 -43.649,-8.031 -72.809,-8.031 H 854.41"
         style="fill:#ffffff;fill-opacity:1;fill-rule:nonzero;stroke:none"
         id="path14" />
      <path
         d="m 1243.39,780.98 h 20.48 c 61.1,0 91.64,23.348 91.64,70.051 0,43.739 -29.71,65.61 -89.14,65.61 h -22.98 z m 80.29,-48.992 132.33,-182.179 h -78.9 l -122.09,174.972 h -11.63 V 549.809 h -64.51 v 427.472 h 75.59 c 56.47,0 97.26,-10.621 122.36,-31.851 27.69,-23.621 41.53,-54.809 41.53,-93.571 0,-30.269 -8.68,-56.3 -26.02,-78.078 -17.35,-21.769 -40.24,-35.711 -68.66,-41.793"
         style="fill:#ffffff;fill-opacity:1;fill-rule:nonzero;stroke:none"
         id="path16" />
      <path
         d="m 1779.26,712.602 -61.19,140.089 -65.89,-140.089 z M 1805,651.969 h -181.61 l -46.8,-102.16 H 1506 l 205.43,427.472 h 189.08 l 26.87,-60.64 h -170.27 l 45.12,-103.539 h 165.56 l 27.13,-60.633 H 1829.09 L 1890,610.441 h 170.82 l 26.02,-60.632 H 1849.86 L 1805,651.969"
         style="fill:#ffffff;fill-opacity:1;fill-rule:nonzero;stroke:none"
         id="path18" />
      <path
         d="m 2144.7,549.809 v 456.531 l 311.74,-326.129 v 297.07 h 64.51 v -453.5 L 2209.21,849.102 V 549.809 h -64.51"
         style="fill:#ffffff;fill-opacity:1;fill-rule:nonzero;stroke:none"
         id="path20" />
      <path
         d="m 2668.09,610.441 h 29.08 c 28.97,0 53.05,3.047 72.25,9.129 19.2,6.469 36.54,16.711 52.05,30.739 31.74,28.972 47.62,66.73 47.62,113.23 0,46.883 -15.69,84.902 -47.06,114.07 -28.24,26.032 -69.86,39.032 -124.86,39.032 h -29.08 z m -64.5,-60.632 v 427.472 h 89.7 c 43,0 76.96,-4.25 101.88,-12.73 26.76,-8.321 51.03,-22.442 72.82,-42.371 44.11,-40.231 66.16,-93.11 66.16,-158.641 0,-65.699 -22.98,-118.859 -68.94,-159.461 -23.07,-20.308 -47.24,-34.43 -72.54,-42.367 -23.62,-7.941 -57.12,-11.902 -100.49,-11.902 h -88.59"
         style="fill:#ffffff;fill-opacity:1;fill-rule:nonzero;stroke:none"
         id="path22" />
      <path
         d="m 3072.58,610.441 h 39.87 c 29.15,0 50.56,5.731 64.23,17.168 14.39,12.371 21.59,28.051 21.59,47.063 0,18.457 -6.93,33.957 -20.76,46.519 -13.48,12.36 -37.57,18.539 -72.27,18.539 h -32.66 z m 0,183.289 h 20.2 c 23.99,0 41.57,5.301 52.74,15.911 11.18,10.609 16.76,26.25 16.76,46.929 0,20.11 -5.73,35.391 -17.17,45.821 -11.44,10.418 -28.05,15.64 -49.83,15.64 h -22.7 z m -64.51,-243.921 v 427.472 h 64.23 c 28.61,0 51.4,-2.222 68.38,-6.652 17.17,-4.418 31.66,-11.899 43.47,-22.418 11.99,-10.891 21.5,-24.473 28.51,-40.711 7.2,-16.418 10.8,-33.031 10.8,-49.828 0,-30.633 -11.72,-56.57 -35.16,-77.793 22.7,-7.758 40.6,-21.32 53.71,-40.699 13.29,-19.2 19.94,-41.532 19.94,-67 0,-33.41 -11.82,-61.649 -35.44,-84.711 -14.22,-14.219 -30.17,-24.098 -47.9,-29.629 -19.38,-5.36 -43.65,-8.031 -72.81,-8.031 h -97.73"
         style="fill:#ffffff;fill-opacity:1;fill-rule:nonzero;stroke:none"
         id="path24" />
      <path
         d="m 3567.18,714.262 -63.4,145.347 -66.45,-145.347 z m 26.3,-60.633 h -183 l -47.62,-103.82 h -69.49 l 211.52,454.331 204.04,-454.331 h -70.59 l -44.86,103.82"
         style="fill:#ffffff;fill-opacity:1;fill-rule:nonzero;stroke:none"
         id="path26" />
      <path
         d="m 3826.87,780.98 h 20.49 c 61.08,0 91.64,23.348 91.64,70.051 0,43.739 -29.73,65.61 -89.15,65.61 h -22.98 z m 80.29,-48.992 132.34,-182.179 h -78.91 L 3838.5,724.781 h -11.63 V 549.809 h -64.51 v 427.472 h 75.59 c 56.47,0 97.26,-10.621 122.37,-31.851 27.69,-23.621 41.52,-54.809 41.52,-93.571 0,-30.269 -8.68,-56.3 -26.02,-78.078 -17.35,-21.769 -40.24,-35.711 -68.66,-41.793"
         style="fill:#ffffff;fill-opacity:1;fill-rule:nonzero;stroke:none"
         id="path28" />
      <path
         d="M 4216.68,916.641 V 549.809 h -64.51 v 366.832 h -98.28 v 60.64 h 260.8 v -60.64 h -98.01"
         style="fill:#ffffff;fill-opacity:1;fill-rule:nonzero;stroke:none"
         id="path30" />
      <path
         d="m 2092.48,1450.21 -52.33,-31.01 c -9.79,16.99 -19.1,28.06 -27.96,33.23 -9.23,5.9 -21.14,8.85 -35.72,8.85 -17.9,0 -32.76,-5.07 -44.57,-15.23 -11.81,-9.98 -17.72,-22.54 -17.72,-37.69 0,-20.87 15.5,-37.67 46.52,-50.42 l 42.63,-17.45 c 34.69,-14.04 60.08,-31.17 76.14,-51.39 16.05,-20.24 24.08,-45.03 24.08,-74.4 0,-39.33 -13.11,-71.84 -39.31,-97.52 -26.4,-25.86 -59.16,-38.79 -98.29,-38.79 -37.1,0 -67.73,11.04 -91.91,33.1 -23.81,22.05 -38.67,53.01 -44.57,92.87 l 65.33,14.4 c 2.95,-25.1 8.12,-42.46 15.51,-52.05 13.29,-18.45 32.67,-27.68 58.13,-27.68 20.12,0 36.83,6.73 50.12,20.18 13.28,13.47 19.93,30.53 19.93,51.19 0,8.3 -1.15,15.91 -3.46,22.83 -2.31,6.91 -5.91,13.28 -10.8,19.09 -4.89,5.81 -11.21,11.25 -18.96,16.32 -7.76,5.07 -16.99,9.91 -27.69,14.52 l -41.25,17.16 c -58.51,24.71 -87.76,60.86 -87.76,108.44 0,32.09 12.27,58.93 36.82,80.51 24.54,21.76 55.1,32.65 91.64,32.65 49.28,0 87.76,-23.91 115.45,-71.71"
         style="fill:#ffffff;fill-opacity:1;fill-rule:nonzero;stroke:none"
         id="path32" />
      <path
         d="m 2160.99,1086.15 89.98,459.58 146.74,-332.23 151.99,332.23 80.84,-459.58 h -66.17 l -41.25,258.02 -126.52,-277.68 -122.92,277.96 -45.96,-258.3 h -66.73"
         style="fill:#ffffff;fill-opacity:1;fill-rule:nonzero;stroke:none"
         id="path34" />
      <path
         d="m 2871.13,1613.28 c 0,-7.94 2.64,-14.54 7.89,-19.8 5.26,-5.25 11.77,-7.89 19.52,-7.89 7.76,0 14.26,2.64 19.52,7.89 5.26,5.26 7.89,11.77 7.89,19.52 0,7.76 -2.63,14.26 -7.89,19.52 -5.26,5.26 -11.76,7.89 -19.52,7.89 -3.87,0 -7.48,-0.74 -10.8,-2.21 -3.32,-1.49 -6.22,-3.47 -8.72,-5.96 -2.49,-2.49 -4.42,-5.4 -5.81,-8.72 -1.39,-3.32 -2.08,-6.74 -2.08,-10.24 z m -32.94,0.55 c 0,16.24 5.91,30.18 17.72,41.81 11.8,11.81 25.92,17.71 42.36,17.71 16.79,0 31,-5.9 42.63,-17.71 11.81,-11.82 17.72,-26.03 17.72,-42.64 0,-16.61 -5.91,-30.83 -17.72,-42.63 -11.63,-11.82 -25.75,-17.72 -42.36,-17.72 -16.79,0 -31.1,5.9 -42.91,17.72 -11.63,11.8 -17.44,26.29 -17.44,43.46 z m 122.09,-363.23 -63.4,145.35 -66.44,-145.35 z m 26.3,-60.63 h -183 l -47.62,-103.82 h -69.49 l 211.52,454.31 204.04,-454.31 h -70.6 l -44.85,103.82"
         style="fill:#ffffff;fill-opacity:1;fill-rule:nonzero;stroke:none"
         id="path36" />
      <path
         d="m 3240.59,1452.98 v -366.83 h -64.5 v 366.83 h -98.28 v 60.63 h 260.79 v -60.63 h -98.01"
         style="fill:#ffffff;fill-opacity:1;fill-rule:nonzero;stroke:none"
         id="path38" />
      <path
         d="m 2276.17,4217.75 c 0,0 507.67,-129.6 810.43,-670.9 308.38,-551.37 209.49,-1311.61 -359.01,-1478.6 0,0 14.08,7.98 20.06,11.15 84.98,45.01 144.07,114.38 177.19,187.75 75.18,166.45 73.42,380.15 -63.83,639.34 -77.19,145.79 -258.77,342.21 -347.65,391.02 0,0 200.66,-247.62 -145.13,-627.23 -199.98,-219.55 -175.05,-359.86 -127,-456.95 42.8,-86.47 151.42,-148.44 196.27,-160.96 5.51,-1.55 17.01,-2.34 17.01,-2.34 0,0 -198.98,-24.47 -374.9,198.61 -185.78,235.56 -164.55,464.07 -130.29,644.34 43.93,231.17 267.23,444.63 337.96,646.42 107.61,306.98 76.26,638.63 -11.11,678.35"
         style="fill:#ffffff;fill-opacity:1;fill-rule:nonzero;stroke:none"
         id="path40" />
    </g>
  </g>
</svg>
