<?xml version="1.0" encoding="UTF-8" standalone="no"?>
<!-- Created with Inkscape (http://www.inkscape.org/) -->

<svg
   version="1.1"
   id="svg2"
   width="680.32001"
   height="680.32001"
   viewBox="0 0 680.32001 680.32001"
   sodipodi:docname="SOLPANELER_rgb.eps"
   xmlns:inkscape="http://www.inkscape.org/namespaces/inkscape"
   xmlns:sodipodi="http://sodipodi.sourceforge.net/DTD/sodipodi-0.dtd"
   xmlns="http://www.w3.org/2000/svg"
   xmlns:svg="http://www.w3.org/2000/svg">
  <defs
     id="defs6" />
  <sodipodi:namedview
     id="namedview4"
     pagecolor="#ffffff"
     bordercolor="#000000"
     borderopacity="0.25"
     inkscape:showpageshadow="2"
     inkscape:pageopacity="0.0"
     inkscape:pagecheckerboard="0"
     inkscape:deskcolor="#d1d1d1" />
  <g
     id="g8"
     inkscape:groupmode="layer"
     inkscape:label="ink_ext_XXXXXX"
     transform="matrix(1.3333333,0,0,-1.3333333,0,680.32)">
    <g
       id="g10"
       transform="scale(0.1)">
      <path
         d="M 5102.36,0 0.00390625,0.0117188 V 5102.36 L 5102.36,5102.35 V 0"
         style="fill:#ef8514;fill-opacity:1;fill-rule:nonzero;stroke:none"
         id="path12" />
      <path
         d="m 1082.43,889.961 -52.6,-31.172 c -9.84,17.07 -19.21,28.199 -28.11,33.402 -9.282,5.93 -21.247,8.899 -35.907,8.899 -18,0 -32.934,-5.102 -44.809,-15.32 -11.875,-10.032 -17.813,-22.661 -17.813,-37.879 0,-20.981 15.586,-37.871 46.758,-50.68 l 42.86,-17.551 c 34.881,-14.121 60.401,-31.34 76.541,-51.672 16.14,-20.328 24.21,-45.269 24.21,-74.777 0,-39.563 -13.17,-72.231 -39.52,-98.039 -26.53,-26 -59.47,-39 -98.806,-39 -37.293,0 -68.093,11.098 -92.398,33.269 -23.938,22.168 -38.875,53.289 -44.813,93.368 l 65.684,14.472 c 2.969,-25.23 8.164,-42.679 15.586,-52.32 13.359,-18.551 32.844,-27.832 58.449,-27.832 20.223,0 37.016,6.769 50.378,20.301 13.36,13.531 20.04,30.679 20.04,51.449 0,8.351 -1.17,15.992 -3.48,22.949 -2.32,6.953 -5.94,13.352 -10.85,19.192 -4.93,5.832 -11.28,11.3 -19.072,16.402 -7.793,5.098 -17.07,9.969 -27.832,14.609 l -41.469,17.239 c -58.82,24.839 -88.23,61.191 -88.23,109.019 0,32.27 12.339,59.242 37.019,80.941 24.676,21.872 55.387,32.809 92.121,32.809 49.543,0 88.233,-24.019 116.063,-72.078"
         style="fill:#ffffff;fill-opacity:1;fill-rule:nonzero;stroke:none"
         id="path14" />
      <path
         d="m 1222.95,740.09 c 0,-47.469 15.95,-86.488 47.87,-117.078 31.73,-30.59 68.37,-45.883 109.94,-45.883 45.09,0 83.12,15.57 114.11,46.723 30.98,31.507 46.48,69.878 46.48,115.117 0,45.793 -15.31,84.16 -45.92,115.121 -30.44,31.148 -68.1,46.719 -113,46.719 -44.72,0 -82.48,-15.571 -113.28,-46.719 -30.8,-30.77 -46.2,-68.781 -46.2,-114 z m -65.4,0.691 c 0,60.489 22.16,112.438 66.51,155.86 44.16,43.418 97.23,65.129 159.2,65.129 61.23,0 113.74,-21.899 157.53,-65.688 43.98,-43.793 65.96,-96.391 65.96,-157.812 0,-61.79 -22.08,-114.2 -66.24,-157.25 -44.35,-43.239 -97.88,-64.848 -160.59,-64.848 -55.48,0 -105.3,19.207 -149.45,57.617 -48.62,42.481 -72.92,98.152 -72.92,166.992"
         style="fill:#ffffff;fill-opacity:1;fill-rule:nonzero;stroke:none"
         id="path16" />
      <path
         d="M 1747.75,953.691 V 584.922 h 126.35 v -60.961 h -191.2 v 429.73 h 64.85"
         style="fill:#ffffff;fill-opacity:1;fill-rule:nonzero;stroke:none"
         id="path18" />
      <path
         d="m 2022.08,758.59 h 24.21 c 59.56,0 89.34,22.91 89.34,68.742 0,44.348 -30.71,66.527 -92.12,66.527 h -21.43 z m 0,-60.11 V 523.961 h -64.85 v 429.73 h 73.48 c 35.99,0 63.17,-2.5 81.54,-7.511 18.55,-5.008 34.88,-14.469 48.99,-28.391 24.67,-24.117 37.01,-54.551 37.01,-91.289 0,-39.328 -13.17,-70.5 -39.52,-93.512 -26.35,-23.008 -61.88,-34.508 -106.59,-34.508 h -30.06"
         style="fill:#ffffff;fill-opacity:1;fill-rule:nonzero;stroke:none"
         id="path20" />
      <path
         d="m 2436.18,689.289 -63.74,146.121 -66.79,-146.121 z m 26.44,-60.949 h -183.97 l -47.87,-104.379 h -69.86 l 212.64,456.73 205.12,-456.73 h -70.97 l -45.09,104.379"
         style="fill:#ffffff;fill-opacity:1;fill-rule:nonzero;stroke:none"
         id="path22" />
      <path
         d="M 2650.41,523.961 V 982.922 L 2963.8,655.059 v 298.632 h 64.85 V 497.801 L 2715.26,824.832 V 523.961 h -64.85"
         style="fill:#ffffff;fill-opacity:1;fill-rule:nonzero;stroke:none"
         id="path24" />
      <path
         d="M 3352.55,892.738 H 3180.26 V 789.48 h 167.28 V 728.531 H 3180.26 V 584.922 h 172.29 v -60.961 h -237.13 v 429.73 h 237.13 v -60.953"
         style="fill:#ffffff;fill-opacity:1;fill-rule:nonzero;stroke:none"
         id="path26" />
      <path
         d="M 3498.95,953.691 V 584.922 h 126.36 v -60.961 h -191.2 v 429.73 h 64.84"
         style="fill:#ffffff;fill-opacity:1;fill-rule:nonzero;stroke:none"
         id="path28" />
      <path
         d="M 3938.36,892.738 H 3766.08 V 789.48 h 167.27 V 728.531 H 3766.08 V 584.922 h 172.28 v -60.961 h -237.13 v 429.73 h 237.13 v -60.953"
         style="fill:#ffffff;fill-opacity:1;fill-rule:nonzero;stroke:none"
         id="path30" />
      <path
         d="m 4081.17,756.371 h 20.59 c 61.42,0 92.12,23.461 92.12,70.41 0,43.969 -29.87,65.957 -89.61,65.957 h -23.1 z m 80.71,-49.269 133.04,-183.141 h -79.33 l -122.73,175.898 h -11.69 V 523.961 h -64.84 v 429.73 h 75.97 c 56.78,0 97.78,-10.66 123.02,-32 27.83,-23.75 41.75,-55.113 41.75,-94.07 0,-30.43 -8.72,-56.601 -26.16,-78.492 -17.45,-21.891 -40.45,-35.91 -69.03,-42.027"
         style="fill:#ffffff;fill-opacity:1;fill-rule:nonzero;stroke:none"
         id="path32" />
      <path
         d="m 2333.05,2257.55 -321.09,-735.18 h 667.35 l 321.1,735.18 h -667.36"
         style="fill:#ffffff;fill-opacity:1;fill-rule:nonzero;stroke:none"
         id="path34" />
      <path
         d="m 2735,1522.37 h 660.12 l 321.1,735.18 H 3056.08 L 2735,1522.37"
         style="fill:#ffffff;fill-opacity:1;fill-rule:nonzero;stroke:none"
         id="path36" />
      <path
         d="m 1918.97,2939.81 c 0.04,-0.01 0.07,-0.02 0.11,-0.03 l 47.41,108.54 h 344.19 c 0.15,0.17 0.3,0.33 0.45,0.49 h -344.6 l -47.56,-109"
         style="fill:#ffffff;fill-opacity:1;fill-rule:nonzero;stroke:none"
         id="path38" />
      <path
         d="m 1932.98,3096.4 v 3.44 h 417.4 c 38.36,59.63 60.62,130.59 60.62,206.77 0,211.34 -171.33,382.67 -382.68,382.67 -211.34,0 -382.67,-171.33 -382.67,-382.67 0,-155.3 92.51,-288.99 225.43,-348.98 l 60.76,139.27 1.14,-0.5"
         style="fill:#ffffff;fill-opacity:1;fill-rule:nonzero;stroke:none"
         id="path40" />
      <path
         d="m 1643.53,2308.57 h 656.13 l 323.09,739.75 h -656.26 l -322.96,-739.75"
         style="fill:#ffffff;fill-opacity:1;fill-rule:nonzero;stroke:none"
         id="path42" />
      <path
         d="m 3078.37,2308.57 h 660.12 l 323.1,739.75 h -660.14 l -323.08,-739.75"
         style="fill:#ffffff;fill-opacity:1;fill-rule:nonzero;stroke:none"
         id="path44" />
      <path
         d="m 2678.42,3048.32 -323.09,-739.75 h 667.36 l 323.09,739.75 h -667.36"
         style="fill:#ffffff;fill-opacity:1;fill-rule:nonzero;stroke:none"
         id="path46" />
      <path
         d="m 1956.29,1522.37 321.09,735.18 h -656.12 l -320.79,-735.18 h 655.82"
         style="fill:#ffffff;fill-opacity:1;fill-rule:nonzero;stroke:none"
         id="path48" />
      <path
         d="m 1416.19,3303.4 c 0,0.14 -0.01,0.28 -0.01,0.43 0,0.14 0.01,0.28 0.01,0.42 v 25.77 h -358.5 c -0.19,-7.93 -0.3,-15.88 -0.31,-23.86 0,-0.23 0,-0.45 0,-0.68 0,-0.22 0,-0.45 0,-0.67 0.01,-8.63 0.14,-17.23 0.37,-25.81 h 358.44 v 24.4"
         style="fill:#ffffff;fill-opacity:1;fill-rule:nonzero;stroke:none"
         id="path50" />
      <path
         d="m 2003.71,3916.86 v 357.8 c -0.6,-0.01 -1.2,-0.03 -1.8,-0.05 v -357.75 h 1.8"
         style="fill:#ffffff;fill-opacity:1;fill-rule:nonzero;stroke:none"
         id="path52" />
      <path
         d="m 1615.51,3755.87 -254.33,254.33 c -12.35,-11.69 -24.39,-23.71 -36.12,-36.03 l 254.27,-254.27 c 11.57,12.48 23.63,24.49 36.18,35.97"
         style="fill:#ffffff;fill-opacity:1;fill-rule:nonzero;stroke:none"
         id="path54" />
      <path
         d="M 2995.91,3330.02 H 2640.46 V 3322 c 0.17,-6.04 0.29,-12.09 0.29,-18.17 0,-6.09 -0.12,-12.14 -0.29,-18.18 V 3279 h 355.41 c 0.24,8.8 0.41,17.63 0.41,26.48 0,8.21 -0.15,16.38 -0.37,24.54"
         style="fill:#ffffff;fill-opacity:1;fill-rule:nonzero;stroke:none"
         id="path56" />
      <path
         d="m 2003.71,4274.66 v -357.8 h 51.03 v 357.66 c -9.27,0.27 -18.58,0.41 -27.91,0.41 -7.73,0 -15.43,-0.09 -23.12,-0.27"
         style="fill:#ffffff;fill-opacity:1;fill-rule:nonzero;stroke:none"
         id="path58" />
      <path
         d="m 2477.47,3720.05 252.59,252.58 c -11.71,12.35 -23.71,24.42 -36.04,36.13 l -252.75,-252.75 c 12.56,-11.48 24.63,-23.49 36.2,-35.96"
         style="fill:#ffffff;fill-opacity:1;fill-rule:nonzero;stroke:none"
         id="path60" />
      <path
         d="m 1577.47,2889.75 -252.7,-252.7 c 11.74,-12.32 23.81,-24.31 36.17,-36 l 252.58,252.59 c -12.51,11.53 -24.54,23.58 -36.05,36.11"
         style="fill:#ffffff;fill-opacity:1;fill-rule:nonzero;stroke:none"
         id="path62" />
    </g>
  </g>
</svg>
