<?xml version="1.0" encoding="UTF-8" standalone="no"?>
<!-- Created with Inkscape (http://www.inkscape.org/) -->

<svg
   version="1.1"
   id="svg2"
   width="680.32001"
   height="680.32001"
   viewBox="0 0 680.32001 680.32001"
   sodipodi:docname="SOLPANELER_rgb.icon.svg"
   inkscape:version="1.3.2 (091e20e, 2023-11-25, custom)"
   xmlns:inkscape="http://www.inkscape.org/namespaces/inkscape"
   xmlns:sodipodi="http://sodipodi.sourceforge.net/DTD/sodipodi-0.dtd"
   xmlns="http://www.w3.org/2000/svg"
   xmlns:svg="http://www.w3.org/2000/svg">
  <defs
     id="defs6" />
  <sodipodi:namedview
     id="namedview4"
     pagecolor="#ffffff"
     bordercolor="#000000"
     borderopacity="0.25"
     inkscape:showpageshadow="2"
     inkscape:pageopacity="0.0"
     inkscape:pagecheckerboard="0"
     inkscape:deskcolor="#d1d1d1"
     inkscape:zoom="1.6859713"
     inkscape:cx="340.16"
     inkscape:cy="340.16"
     inkscape:window-width="2560"
     inkscape:window-height="1361"
     inkscape:window-x="2551"
     inkscape:window-y="-9"
     inkscape:window-maximized="1"
     inkscape:current-layer="g8" />
  <g
     id="g8"
     inkscape:groupmode="layer"
     inkscape:label="ink_ext_XXXXXX"
     transform="matrix(1.3333333,0,0,-1.3333333,0,680.32)">
    <g
       id="g10"
       transform="scale(0.1)">
      <path
         d="M 5102.36,0 0.00390625,0.0117188 V 5102.36 L 5102.36,5102.35 V 0"
         style="fill:#ef8514;fill-opacity:1;fill-rule:nonzero;stroke:none"
         id="path12" />
      <path
         d="m 2333.05,2257.55 -321.09,-735.18 h 667.35 l 321.1,735.18 h -667.36"
         style="fill:#ffffff;fill-opacity:1;fill-rule:nonzero;stroke:none"
         id="path34" />
      <path
         d="m 2735,1522.37 h 660.12 l 321.1,735.18 H 3056.08 L 2735,1522.37"
         style="fill:#ffffff;fill-opacity:1;fill-rule:nonzero;stroke:none"
         id="path36" />
      <path
         d="m 1918.97,2939.81 c 0.04,-0.01 0.07,-0.02 0.11,-0.03 l 47.41,108.54 h 344.19 c 0.15,0.17 0.3,0.33 0.45,0.49 h -344.6 l -47.56,-109"
         style="fill:#ffffff;fill-opacity:1;fill-rule:nonzero;stroke:none"
         id="path38" />
      <path
         d="m 1932.98,3096.4 v 3.44 h 417.4 c 38.36,59.63 60.62,130.59 60.62,206.77 0,211.34 -171.33,382.67 -382.68,382.67 -211.34,0 -382.67,-171.33 -382.67,-382.67 0,-155.3 92.51,-288.99 225.43,-348.98 l 60.76,139.27 1.14,-0.5"
         style="fill:#ffffff;fill-opacity:1;fill-rule:nonzero;stroke:none"
         id="path40" />
      <path
         d="m 1643.53,2308.57 h 656.13 l 323.09,739.75 h -656.26 l -322.96,-739.75"
         style="fill:#ffffff;fill-opacity:1;fill-rule:nonzero;stroke:none"
         id="path42" />
      <path
         d="m 3078.37,2308.57 h 660.12 l 323.1,739.75 h -660.14 l -323.08,-739.75"
         style="fill:#ffffff;fill-opacity:1;fill-rule:nonzero;stroke:none"
         id="path44" />
      <path
         d="m 2678.42,3048.32 -323.09,-739.75 h 667.36 l 323.09,739.75 h -667.36"
         style="fill:#ffffff;fill-opacity:1;fill-rule:nonzero;stroke:none"
         id="path46" />
      <path
         d="m 1956.29,1522.37 321.09,735.18 h -656.12 l -320.79,-735.18 h 655.82"
         style="fill:#ffffff;fill-opacity:1;fill-rule:nonzero;stroke:none"
         id="path48" />
      <path
         d="m 1416.19,3303.4 c 0,0.14 -0.01,0.28 -0.01,0.43 0,0.14 0.01,0.28 0.01,0.42 v 25.77 h -358.5 c -0.19,-7.93 -0.3,-15.88 -0.31,-23.86 0,-0.23 0,-0.45 0,-0.68 0,-0.22 0,-0.45 0,-0.67 0.01,-8.63 0.14,-17.23 0.37,-25.81 h 358.44 v 24.4"
         style="fill:#ffffff;fill-opacity:1;fill-rule:nonzero;stroke:none"
         id="path50" />
      <path
         d="m 2003.71,3916.86 v 357.8 c -0.6,-0.01 -1.2,-0.03 -1.8,-0.05 v -357.75 h 1.8"
         style="fill:#ffffff;fill-opacity:1;fill-rule:nonzero;stroke:none"
         id="path52" />
      <path
         d="m 1615.51,3755.87 -254.33,254.33 c -12.35,-11.69 -24.39,-23.71 -36.12,-36.03 l 254.27,-254.27 c 11.57,12.48 23.63,24.49 36.18,35.97"
         style="fill:#ffffff;fill-opacity:1;fill-rule:nonzero;stroke:none"
         id="path54" />
      <path
         d="M 2995.91,3330.02 H 2640.46 V 3322 c 0.17,-6.04 0.29,-12.09 0.29,-18.17 0,-6.09 -0.12,-12.14 -0.29,-18.18 V 3279 h 355.41 c 0.24,8.8 0.41,17.63 0.41,26.48 0,8.21 -0.15,16.38 -0.37,24.54"
         style="fill:#ffffff;fill-opacity:1;fill-rule:nonzero;stroke:none"
         id="path56" />
      <path
         d="m 2003.71,4274.66 v -357.8 h 51.03 v 357.66 c -9.27,0.27 -18.58,0.41 -27.91,0.41 -7.73,0 -15.43,-0.09 -23.12,-0.27"
         style="fill:#ffffff;fill-opacity:1;fill-rule:nonzero;stroke:none"
         id="path58" />
      <path
         d="m 2477.47,3720.05 252.59,252.58 c -11.71,12.35 -23.71,24.42 -36.04,36.13 l -252.75,-252.75 c 12.56,-11.48 24.63,-23.49 36.2,-35.96"
         style="fill:#ffffff;fill-opacity:1;fill-rule:nonzero;stroke:none"
         id="path60" />
      <path
         d="m 1577.47,2889.75 -252.7,-252.7 c 11.74,-12.32 23.81,-24.31 36.17,-36 l 252.58,252.59 c -12.51,11.53 -24.54,23.58 -36.05,36.11"
         style="fill:#ffffff;fill-opacity:1;fill-rule:nonzero;stroke:none"
         id="path62" />
    </g>
  </g>
</svg>
