<?xml version="1.0" encoding="UTF-8" standalone="no"?>
<!-- Created with Inkscape (http://www.inkscape.org/) -->

<svg
   version="1.1"
   id="svg2"
   width="680.32001"
   height="680.32001"
   viewBox="0 0 680.32001 680.32001"
   sodipodi:docname="SPILDOLIE_rgb.eps"
   xmlns:inkscape="http://www.inkscape.org/namespaces/inkscape"
   xmlns:sodipodi="http://sodipodi.sourceforge.net/DTD/sodipodi-0.dtd"
   xmlns="http://www.w3.org/2000/svg"
   xmlns:svg="http://www.w3.org/2000/svg">
  <defs
     id="defs6" />
  <sodipodi:namedview
     id="namedview4"
     pagecolor="#ffffff"
     bordercolor="#000000"
     borderopacity="0.25"
     inkscape:showpageshadow="2"
     inkscape:pageopacity="0.0"
     inkscape:pagecheckerboard="0"
     inkscape:deskcolor="#d1d1d1" />
  <g
     id="g8"
     inkscape:groupmode="layer"
     inkscape:label="ink_ext_XXXXXX"
     transform="matrix(1.3333333,0,0,-1.3333333,0,680.32)">
    <g
       id="g10"
       transform="scale(0.1)">
      <path
         d="M 5102.36,0 H 0 V 5102.36 H 5102.36 V 0"
         style="fill:#ea1d2c;fill-opacity:1;fill-rule:nonzero;stroke:none"
         id="path12" />
      <path
         d="m 1517.3,899.539 -52.32,-31.008 c -9.79,16.981 -19.11,28.047 -27.97,33.219 -9.23,5.91 -21.14,8.871 -35.71,8.871 -17.91,0 -32.77,-5.082 -44.58,-15.242 -11.81,-9.957 -17.72,-22.52 -17.72,-37.641 0,-20.859 15.51,-37.656 46.52,-50.386 l 42.63,-17.454 c 34.7,-14.027 60.08,-31.136 76.14,-51.347 16.06,-20.223 24.08,-44.992 24.08,-74.34 0,-39.32 -13.1,-71.801 -39.31,-97.449 C 1462.67,540.91 1429.9,528 1390.78,528 c -37.1,0 -67.74,10.98 -91.92,32.941 -23.81,21.969 -38.67,52.879 -44.57,92.75 l 65.33,14.399 c 2.96,-25.11 8.12,-42.449 15.51,-52.051 13.29,-18.457 32.67,-27.687 58.14,-27.687 20.11,0 36.82,6.738 50.11,20.218 13.29,13.461 19.94,30.532 19.94,51.211 0,8.309 -1.16,15.93 -3.47,22.84 -2.31,6.918 -5.9,13.289 -10.8,19.098 -4.89,5.82 -11.21,11.261 -18.96,16.34 -7.75,5.082 -16.98,9.921 -27.68,14.531 l -41.26,17.172 c -58.51,24.726 -87.76,60.91 -87.76,108.519 0,32.117 12.27,58.981 36.82,80.571 24.55,21.777 55.1,32.679 91.64,32.679 49.28,0 87.76,-24.011 115.45,-71.992"
         style="fill:#ffffff;fill-opacity:1;fill-rule:nonzero;stroke:none"
         id="path14" />
      <path
         d="m 1665.27,769.141 h 24.09 c 59.25,0 88.87,22.8 88.87,68.379 0,44.109 -30.55,66.171 -91.64,66.171 h -21.32 z m 0,-59.801 V 535.75 h -64.5 v 427.469 h 73.09 c 35.8,0 62.84,-2.5 81.12,-7.481 18.45,-4.988 34.69,-14.398 48.72,-28.238 24.55,-23.988 36.82,-54.27 36.82,-90.809 0,-39.132 -13.1,-70.14 -39.31,-93.031 -26.21,-22.879 -61.56,-34.32 -106.03,-34.32 h -29.91"
         style="fill:#ffffff;fill-opacity:1;fill-rule:nonzero;stroke:none"
         id="path16" />
      <path
         d="M 1976.88,963.219 V 535.75 h -64.51 v 427.469 h 64.51"
         style="fill:#ffffff;fill-opacity:1;fill-rule:nonzero;stroke:none"
         id="path18" />
      <path
         d="m 2113.48,963.219 v -366.84 h 125.69 V 535.75 h -190.2 v 427.469 h 64.51"
         style="fill:#ffffff;fill-opacity:1;fill-rule:nonzero;stroke:none"
         id="path20" />
      <path
         d="m 2370.27,596.379 h 29.07 c 28.98,0 53.06,3.051 72.26,9.141 19.19,6.449 36.54,16.699 52.05,30.73 31.74,28.98 47.62,66.719 47.62,113.23 0,46.879 -15.69,84.899 -47.07,114.071 -28.24,26.019 -69.86,39.031 -124.86,39.031 h -29.07 z m -64.51,-60.629 v 427.469 h 89.7 c 43.01,0 76.97,-4.25 101.89,-12.739 26.76,-8.308 51.03,-22.421 72.81,-42.359 44.11,-40.242 66.17,-93.121 66.17,-158.641 0,-65.71 -22.98,-118.859 -68.94,-159.468 -23.07,-20.301 -47.25,-34.422 -72.54,-42.352 -23.62,-7.941 -57.12,-11.91 -100.49,-11.91 h -88.6"
         style="fill:#ffffff;fill-opacity:1;fill-rule:nonzero;stroke:none"
         id="path22" />
      <path
         d="m 2761.19,750.59 c 0,-47.25 15.87,-86.11 47.62,-116.551 31.56,-30.457 68.01,-45.687 109.35,-45.687 44.86,0 82.69,15.507 113.52,46.519 30.82,31.367 46.23,69.578 46.23,114.609 0,45.59 -15.22,83.79 -45.68,114.622 -30.27,31.007 -67.74,46.519 -112.41,46.519 -44.48,0 -82.04,-15.512 -112.67,-46.519 -30.65,-30.641 -45.96,-68.481 -45.96,-113.512 z m -65.07,0.832 c 0,60.168 22.06,111.848 66.17,155.039 43.93,43.187 96.72,64.777 158.36,64.777 60.91,0 113.15,-21.769 156.71,-65.328 43.74,-43.558 65.61,-95.89 65.61,-156.98 0,-61.469 -21.96,-113.61 -65.89,-156.43 -44.11,-43.012 -97.36,-64.5 -159.75,-64.5 -55.18,0 -104.74,19.102 -148.67,57.301 -48.36,42.269 -72.54,97.64 -72.54,166.121"
         style="fill:#ffffff;fill-opacity:1;fill-rule:nonzero;stroke:none"
         id="path24" />
      <path
         d="m 3272.39,963.219 v -366.84 h 125.69 V 535.75 h -190.2 v 427.469 h 64.51"
         style="fill:#ffffff;fill-opacity:1;fill-rule:nonzero;stroke:none"
         id="path26" />
      <path
         d="M 3534.58,963.219 V 535.75 h -64.5 v 427.469 h 64.5"
         style="fill:#ffffff;fill-opacity:1;fill-rule:nonzero;stroke:none"
         id="path28" />
      <path
         d="M 3847.96,902.582 H 3676.58 V 799.879 h 166.4 v -60.641 h -166.4 V 596.379 h 171.38 V 535.75 h -235.88 v 427.469 h 235.88 v -60.637"
         style="fill:#ffffff;fill-opacity:1;fill-rule:nonzero;stroke:none"
         id="path30" />
      <path
         d="m 3747.97,2268.78 -207.67,781.95 c -9.96,38.46 -21.05,62.03 -37.08,78.83 -18.89,19.8 -44.8,29.43 -79.21,29.45 l -586.37,4.49 9.56,-0.01 h 0.09 0.09 c 112.92,0.72 164,69.1 213.39,135.24 50.92,68.17 103.57,138.66 230.35,160.27 l 188.25,25.5 -13.49,49.91 -182.08,-24.92 -0.81,-0.12 c -65.71,-11.13 -120.4,-35.03 -167.2,-73.04 -40.54,-32.94 -69.95,-72.32 -95.9,-107.07 -47.63,-63.78 -85.26,-114.16 -172.76,-114.74 l -355.54,0.09 -909.43,816.38 -456.39,-0.09 -0.82,-50.38 438.42,-0.28 758.15,-771.56 v -273.94 c -188.25,-86.89 -318.9,-277.29 -318.9,-498.23 v -905.68 h 1097.01 v 905.68 c 0,220.94 -130.66,411.34 -318.9,498.23 v 178.14 l 643.01,-4.89 h 0.19 c 41.76,0 53.35,-17.5 67.01,-70.16 l 207.69,-782.07 c 37.72,-142.81 -38.29,-202.99 -105.35,-256.09 -9.97,-7.89 -19.38,-15.35 -28.22,-22.93 l 33.2,-38.74 c 8.09,6.93 17.13,14.09 26.7,21.67 34.29,27.16 76.97,60.96 104.69,109.24 32.76,57.1 38.76,122.48 18.32,199.87"
         style="fill:#ffffff;fill-opacity:1;fill-rule:nonzero;stroke:none"
         id="path32" />
    </g>
  </g>
</svg>
