<?xml version="1.0" encoding="UTF-8" standalone="no"?>
<!-- Created with Inkscape (http://www.inkscape.org/) -->

<svg
   version="1.1"
   id="svg2"
   width="680.32001"
   height="680.32001"
   viewBox="0 0 680.32001 680.32001"
   sodipodi:docname="SPRAYDAASER_rgb.icon.svg"
   inkscape:version="1.3.2 (091e20e, 2023-11-25, custom)"
   xmlns:inkscape="http://www.inkscape.org/namespaces/inkscape"
   xmlns:sodipodi="http://sodipodi.sourceforge.net/DTD/sodipodi-0.dtd"
   xmlns="http://www.w3.org/2000/svg"
   xmlns:svg="http://www.w3.org/2000/svg">
  <defs
     id="defs6" />
  <sodipodi:namedview
     id="namedview4"
     pagecolor="#ffffff"
     bordercolor="#000000"
     borderopacity="0.25"
     inkscape:showpageshadow="2"
     inkscape:pageopacity="0.0"
     inkscape:pagecheckerboard="0"
     inkscape:deskcolor="#d1d1d1"
     inkscape:zoom="1.6859713"
     inkscape:cx="340.16"
     inkscape:cy="340.16"
     inkscape:window-width="2560"
     inkscape:window-height="1361"
     inkscape:window-x="2551"
     inkscape:window-y="-9"
     inkscape:window-maximized="1"
     inkscape:current-layer="g8" />
  <g
     id="g8"
     inkscape:groupmode="layer"
     inkscape:label="ink_ext_XXXXXX"
     transform="matrix(1.3333333,0,0,-1.3333333,0,680.32)">
    <g
       id="g10"
       transform="scale(0.1)">
      <path
         d="M 5102.36,0 H 0.00390625 V 5102.36 H 5102.36 V 0"
         style="fill:#ea1d2c;fill-opacity:1;fill-rule:nonzero;stroke:none"
         id="path12" />
      <path
         d="m 2551.12,3852.35 c -42.27,0 -76.54,34.26 -76.54,76.53 0,42.27 34.27,76.54 76.54,76.54 42.27,0 76.53,-34.27 76.53,-76.54 0,-42.27 -34.26,-76.53 -76.53,-76.53 z m 306.14,-132.67 c 0,30.87 -25.25,56.13 -56.12,56.13 h -84.19 v 306.14 h -331.66 v -306.14 h -84.18 c -30.88,0 -56.13,-25.26 -56.13,-56.13 0,-20.55 11.2,-38.59 27.79,-48.37 h 556.7 c 16.59,9.78 27.79,27.82 27.79,48.37"
         style="fill:#ffffff;fill-opacity:1;fill-rule:nonzero;stroke:none"
         id="path34" />
      <path
         d="M 2066.39,3240.06 V 1530.77 h 969.46 v 1709.29 c 0,154.09 -71.92,291.35 -184,380.13 h -601.46 c -112.08,-88.78 -184,-226.04 -184,-380.13"
         style="fill:#ffffff;fill-opacity:1;fill-rule:nonzero;stroke:none"
         id="path36" />
    </g>
  </g>
</svg>
