<?xml version="1.0" encoding="UTF-8" standalone="no"?>
<!-- Created with Inkscape (http://www.inkscape.org/) -->

<svg
   version="1.1"
   id="svg2"
   width="680.32001"
   height="680.32001"
   viewBox="0 0 680.32001 680.32001"
   sodipodi:docname="SPRAYDAASER_rgb.eps"
   xmlns:inkscape="http://www.inkscape.org/namespaces/inkscape"
   xmlns:sodipodi="http://sodipodi.sourceforge.net/DTD/sodipodi-0.dtd"
   xmlns="http://www.w3.org/2000/svg"
   xmlns:svg="http://www.w3.org/2000/svg">
  <defs
     id="defs6" />
  <sodipodi:namedview
     id="namedview4"
     pagecolor="#ffffff"
     bordercolor="#000000"
     borderopacity="0.25"
     inkscape:showpageshadow="2"
     inkscape:pageopacity="0.0"
     inkscape:pagecheckerboard="0"
     inkscape:deskcolor="#d1d1d1" />
  <g
     id="g8"
     inkscape:groupmode="layer"
     inkscape:label="ink_ext_XXXXXX"
     transform="matrix(1.3333333,0,0,-1.3333333,0,680.32)">
    <g
       id="g10"
       transform="scale(0.1)">
      <path
         d="M 5102.36,0 H 0.00390625 V 5102.36 H 5102.36 V 0"
         style="fill:#ea1d2c;fill-opacity:1;fill-rule:nonzero;stroke:none"
         id="path12" />
      <path
         d="M 1079.9,898.012 1027.58,867 c -9.79,16.98 -19.1,28.051 -27.963,33.23 -9.23,5.899 -21.133,8.848 -35.715,8.848 -17.906,0 -32.761,-5.066 -44.574,-15.219 -11.812,-9.968 -17.715,-22.519 -17.715,-37.66 0,-20.859 15.504,-37.64 46.508,-50.39 l 42.637,-17.438 c 34.702,-14.019 60.082,-31.141 76.132,-51.359 16.06,-20.203 24.09,-44.981 24.09,-74.332 0,-39.309 -13.11,-71.801 -39.31,-97.45 -26.4,-25.839 -59.158,-38.761 -98.283,-38.761 -37.102,0 -67.739,10.98 -91.918,32.953 -23.813,21.957 -38.668,52.879 -44.578,92.738 l 65.343,14.391 c 2.95,-25.09 8.121,-42.449 15.5,-52.039 13.289,-18.461 32.668,-27.684 58.141,-27.684 20.113,0 36.82,6.731 50.105,20.203 13.29,13.469 19.94,30.551 19.94,51.219 0,8.301 -1.16,15.922 -3.46,22.852 -2.31,6.91 -5.91,13.289 -10.8,19.097 -4.89,5.813 -11.21,11.25 -18.965,16.34 -7.754,5.063 -16.98,9.91 -27.683,14.531 l -41.25,17.16 c -58.516,24.731 -87.766,60.911 -87.766,108.532 0,32.109 12.274,58.957 36.824,80.57 24.539,21.77 55.09,32.656 91.641,32.656 49.279,0 87.759,-23.988 115.439,-71.976"
         style="fill:#ffffff;fill-opacity:1;fill-rule:nonzero;stroke:none"
         id="path14" />
      <path
         d="m 1224.28,767.609 h 24.09 c 59.24,0 88.86,22.789 88.86,68.391 0,44.102 -30.54,66.16 -91.63,66.16 h -21.32 z m 0,-59.8 v -173.59 h -64.51 V 961.68 h 73.09 c 35.81,0 62.85,-2.489 81.12,-7.469 18.45,-4.981 34.7,-14.391 48.73,-28.242 24.54,-24 36.82,-54.258 36.82,-90.809 0,-39.129 -13.11,-70.14 -39.31,-93.019 -26.21,-22.891 -61.56,-34.332 -106.04,-34.332 h -29.9"
         style="fill:#ffffff;fill-opacity:1;fill-rule:nonzero;stroke:none"
         id="path16" />
      <path
         d="m 1539.48,765.391 h 20.49 c 61.09,0 91.64,23.347 91.64,70.05 0,43.739 -29.71,65.618 -89.14,65.618 h -22.99 z m 80.29,-49 132.34,-182.172 h -78.9 l -122.09,174.972 h -11.64 V 534.219 h -64.5 V 961.68 h 75.58 c 56.48,0 97.27,-10.61 122.37,-31.828 27.69,-23.633 41.53,-54.821 41.53,-93.582 0,-30.27 -8.68,-56.301 -26.03,-78.071 -17.35,-21.777 -40.23,-35.719 -68.66,-41.808"
         style="fill:#ffffff;fill-opacity:1;fill-rule:nonzero;stroke:none"
         id="path18" />
      <path
         d="m 2059.16,698.672 -63.4,145.359 -66.45,-145.359 z m 26.3,-60.633 h -183 l -47.62,-103.82 h -69.49 l 211.52,454.32 204.04,-454.32 h -70.6 l -44.85,103.82"
         style="fill:#ffffff;fill-opacity:1;fill-rule:nonzero;stroke:none"
         id="path20" />
      <path
         d="M 2296.14,718.891 2156.61,961.68 h 74.19 l 97.73,-170.821 98.01,170.821 h 74.2 L 2360.65,718.891 V 534.219 h -64.51 v 184.672"
         style="fill:#ffffff;fill-opacity:1;fill-rule:nonzero;stroke:none"
         id="path22" />
      <path
         d="m 2627.14,594.859 h 29.06 c 28.98,0 53.06,3.039 72.26,9.129 19.19,6.461 36.55,16.711 52.05,30.731 31.74,28.972 47.62,66.722 47.62,113.23 0,46.891 -15.69,84.903 -47.07,114.063 -28.23,26.027 -69.86,39.047 -124.86,39.047 h -29.06 z m -64.52,-60.64 V 961.68 h 89.71 c 43,0 76.96,-4.25 101.89,-12.731 26.75,-8.301 51.02,-22.418 72.8,-42.359 44.11,-40.238 66.17,-93.11 66.17,-158.641 0,-65.699 -22.98,-118.871 -68.94,-159.461 -23.07,-20.308 -47.25,-34.429 -72.53,-42.359 -23.63,-7.938 -57.13,-11.91 -100.5,-11.91 h -88.6"
         style="fill:#ffffff;fill-opacity:1;fill-rule:nonzero;stroke:none"
         id="path24" />
      <path
         d="m 3088.92,1061.35 c 0,-7.93 2.64,-14.53 7.89,-19.8 5.27,-5.25 11.77,-7.89 19.52,-7.89 7.76,0 14.26,2.64 19.53,7.89 5.25,5.27 7.89,11.77 7.89,19.53 0,7.75 -2.64,14.25 -7.89,19.52 -5.27,5.25 -11.77,7.89 -19.53,7.89 -3.87,0 -7.47,-0.74 -10.8,-2.22 -3.32,-1.48 -6.22,-3.46 -8.72,-5.96 -2.49,-2.49 -4.42,-5.39 -5.81,-8.72 -1.38,-3.32 -2.08,-6.73 -2.08,-10.24 z m -32.94,0.56 c 0,16.24 5.9,30.17 17.72,41.8 11.8,11.81 25.93,17.72 42.36,17.72 16.79,0 31.01,-5.91 42.64,-17.72 11.8,-11.81 17.71,-26.02 17.71,-42.63 0,-16.61 -5.91,-30.83 -17.71,-42.64 -11.63,-11.82 -25.75,-17.72 -42.37,-17.72 -16.79,0 -31.1,5.9 -42.91,17.72 -11.63,11.81 -17.44,26.3 -17.44,43.47 z m 122.09,-363.238 -63.4,145.359 -66.44,-145.359 z m 26.3,-60.633 h -183 l -47.61,-103.82 h -69.5 l 211.52,454.32 204.05,-454.32 h -70.6 l -44.86,103.82"
         style="fill:#ffffff;fill-opacity:1;fill-rule:nonzero;stroke:none"
         id="path26" />
      <path
         d="M 3614.96,898.012 3562.63,867 c -9.79,16.98 -19.11,28.051 -27.97,33.23 -9.22,5.899 -21.13,8.848 -35.71,8.848 -17.9,0 -32.76,-5.066 -44.57,-15.219 -11.81,-9.968 -17.72,-22.519 -17.72,-37.66 0,-20.859 15.5,-37.64 46.51,-50.39 l 42.64,-17.438 c 34.69,-14.019 60.08,-31.141 76.13,-51.359 16.06,-20.203 24.09,-44.981 24.09,-74.332 0,-39.309 -13.11,-71.801 -39.31,-97.45 -26.4,-25.839 -59.16,-38.761 -98.29,-38.761 -37.1,0 -67.74,10.98 -91.92,32.953 -23.81,21.957 -38.66,52.879 -44.57,92.738 l 65.34,14.391 c 2.95,-25.09 8.12,-42.449 15.5,-52.039 13.29,-18.461 32.68,-27.684 58.14,-27.684 20.12,0 36.82,6.731 50.11,20.203 13.29,13.469 19.93,30.551 19.93,51.219 0,8.301 -1.15,15.922 -3.45,22.852 -2.31,6.91 -5.91,13.289 -10.8,19.097 -4.9,5.813 -11.22,11.25 -18.97,16.34 -7.75,5.063 -16.98,9.91 -27.68,14.531 l -41.25,17.16 c -58.51,24.731 -87.77,60.911 -87.77,108.532 0,32.109 12.28,58.957 36.83,80.57 24.54,21.77 55.1,32.656 91.64,32.656 49.28,0 87.76,-23.988 115.45,-71.976"
         style="fill:#ffffff;fill-opacity:1;fill-rule:nonzero;stroke:none"
         id="path28" />
      <path
         d="M 3937.91,901.059 H 3766.53 V 798.34 h 166.39 V 737.711 H 3766.53 V 594.859 h 171.38 v -60.64 H 3702.03 V 961.68 h 235.88 v -60.621"
         style="fill:#ffffff;fill-opacity:1;fill-rule:nonzero;stroke:none"
         id="path30" />
      <path
         d="m 4072.72,765.391 h 20.49 c 61.08,0 91.63,23.347 91.63,70.05 0,43.739 -29.72,65.618 -89.14,65.618 h -22.98 z m 80.28,-49 132.35,-182.172 h -78.91 l -122.09,174.972 h -11.63 V 534.219 h -64.51 V 961.68 h 75.59 c 56.47,0 97.26,-10.61 122.37,-31.828 27.68,-23.633 41.52,-54.821 41.52,-93.582 0,-30.27 -8.68,-56.301 -26.02,-78.071 -17.36,-21.777 -40.24,-35.719 -68.67,-41.808"
         style="fill:#ffffff;fill-opacity:1;fill-rule:nonzero;stroke:none"
         id="path32" />
      <path
         d="m 2551.12,3852.35 c -42.27,0 -76.54,34.26 -76.54,76.53 0,42.27 34.27,76.54 76.54,76.54 42.27,0 76.53,-34.27 76.53,-76.54 0,-42.27 -34.26,-76.53 -76.53,-76.53 z m 306.14,-132.67 c 0,30.87 -25.25,56.13 -56.12,56.13 h -84.19 v 306.14 h -331.66 v -306.14 h -84.18 c -30.88,0 -56.13,-25.26 -56.13,-56.13 0,-20.55 11.2,-38.59 27.79,-48.37 h 556.7 c 16.59,9.78 27.79,27.82 27.79,48.37"
         style="fill:#ffffff;fill-opacity:1;fill-rule:nonzero;stroke:none"
         id="path34" />
      <path
         d="M 2066.39,3240.06 V 1530.77 h 969.46 v 1709.29 c 0,154.09 -71.92,291.35 -184,380.13 h -601.46 c -112.08,-88.78 -184,-226.04 -184,-380.13"
         style="fill:#ffffff;fill-opacity:1;fill-rule:nonzero;stroke:none"
         id="path36" />
    </g>
  </g>
</svg>
