<?xml version="1.0" encoding="UTF-8" standalone="no"?>
<!-- Created with Inkscape (http://www.inkscape.org/) -->

<svg
   version="1.1"
   id="svg2"
   width="680.32001"
   height="680.32001"
   viewBox="0 0 680.32001 680.32001"
   sodipodi:docname="STENULD_rgb.eps"
   xmlns:inkscape="http://www.inkscape.org/namespaces/inkscape"
   xmlns:sodipodi="http://sodipodi.sourceforge.net/DTD/sodipodi-0.dtd"
   xmlns="http://www.w3.org/2000/svg"
   xmlns:svg="http://www.w3.org/2000/svg">
  <defs
     id="defs6" />
  <sodipodi:namedview
     id="namedview4"
     pagecolor="#ffffff"
     bordercolor="#000000"
     borderopacity="0.25"
     inkscape:showpageshadow="2"
     inkscape:pageopacity="0.0"
     inkscape:pagecheckerboard="0"
     inkscape:deskcolor="#d1d1d1" />
  <g
     id="g8"
     inkscape:groupmode="layer"
     inkscape:label="ink_ext_XXXXXX"
     transform="matrix(1.3333333,0,0,-1.3333333,0,680.32)">
    <g
       id="g10"
       transform="scale(0.1)">
      <path
         d="M 5102.36,0 H 0 V 5102.36 H 5102.36 V 0"
         style="fill:#21508b;fill-opacity:1;fill-rule:nonzero;stroke:none"
         id="path12" />
      <path
         d="m 1593.88,897.762 -52.32,-31.012 c -9.79,16.98 -19.11,28.059 -27.97,33.23 -9.23,5.899 -21.13,8.852 -35.71,8.852 -17.91,0 -32.76,-5.082 -44.57,-15.242 -11.82,-9.969 -17.72,-22.531 -17.72,-37.668 0,-20.883 15.5,-37.684 46.51,-50.434 l 42.63,-17.449 c 34.7,-14.039 60.08,-31.168 76.14,-51.398 16.06,-20.219 24.09,-45.02 24.09,-74.379 0,-39.352 -13.11,-71.864 -39.32,-97.532 -26.39,-25.859 -59.15,-38.789 -98.28,-38.789 -37.1,0 -67.74,11.028 -91.92,33.098 -23.81,22.051 -38.67,53.012 -44.57,92.871 l 65.34,14.399 c 2.95,-25.098 8.12,-42.45 15.5,-52.047 13.29,-18.461 32.67,-27.684 58.14,-27.684 20.12,0 36.82,6.731 50.11,20.192 13.29,13.46 19.94,30.519 19.94,51.179 0,8.301 -1.16,15.91 -3.46,22.832 -2.32,6.91 -5.91,13.278 -10.8,19.09 -4.89,5.801 -11.22,11.25 -18.97,16.32 -7.75,5.071 -16.98,9.911 -27.68,14.52 l -41.25,17.16 c -58.52,24.711 -87.77,60.859 -87.77,108.438 0,32.089 12.27,58.929 36.82,80.511 24.55,21.762 55.1,32.649 91.64,32.649 49.28,0 87.77,-23.91 115.45,-71.707"
         style="fill:#ffffff;fill-opacity:1;fill-rule:nonzero;stroke:none"
         id="path14" />
      <path
         d="M 1814.12,900.531 V 533.699 h -64.5 v 366.832 h -98.29 v 60.629 h 260.8 v -60.629 h -98.01"
         style="fill:#ffffff;fill-opacity:1;fill-rule:nonzero;stroke:none"
         id="path16" />
      <path
         d="M 2223.6,900.531 H 2052.22 V 797.82 h 166.4 v -60.64 h -166.4 V 594.328 H 2223.6 V 533.699 H 1987.72 V 961.16 h 235.88 v -60.629"
         style="fill:#ffffff;fill-opacity:1;fill-rule:nonzero;stroke:none"
         id="path18" />
      <path
         d="M 2299.32,533.699 V 990.23 l 311.74,-326.14 v 297.07 h 64.5 V 507.672 L 2363.82,832.98 V 533.699 h -64.5"
         style="fill:#ffffff;fill-opacity:1;fill-rule:nonzero;stroke:none"
         id="path20" />
      <path
         d="M 2826.3,961.16 V 703.879 c 0,-36.707 6,-63.539 18,-80.508 17.9,-24.531 43.09,-36.793 75.58,-36.793 32.67,0 57.96,12.262 75.86,36.793 12,16.41 18,43.25 18,80.508 V 961.16 h 64.5 V 685.969 c 0,-45.039 -14.03,-82.137 -42.08,-111.297 -31.56,-32.492 -70.32,-48.731 -116.28,-48.731 -45.96,0 -84.63,16.239 -116,48.731 -28.06,29.16 -42.08,66.258 -42.08,111.297 V 961.16 h 64.5"
         style="fill:#ffffff;fill-opacity:1;fill-rule:nonzero;stroke:none"
         id="path22" />
      <path
         d="M 3230.78,961.16 V 594.328 h 125.7 v -60.629 h -190.2 V 961.16 h 64.5"
         style="fill:#ffffff;fill-opacity:1;fill-rule:nonzero;stroke:none"
         id="path24" />
      <path
         d="m 3503.77,594.328 h 29.07 c 28.98,0 53.06,3.043 72.26,9.133 19.19,6.461 36.55,16.711 52.05,30.73 31.74,28.981 47.62,66.731 47.62,113.239 0,46.879 -15.69,84.902 -47.07,114.058 -28.24,26.032 -69.86,39.043 -124.86,39.043 h -29.07 z m -64.5,-60.629 V 961.16 h 89.7 c 43,0 76.96,-4.25 101.88,-12.73 26.76,-8.309 51.03,-22.43 72.81,-42.36 44.11,-40.242 66.17,-93.121 66.17,-158.64 0,-65.711 -22.98,-118.871 -68.94,-159.469 -23.07,-20.313 -47.25,-34.43 -72.53,-42.359 -23.63,-7.942 -57.13,-11.903 -100.5,-11.903 h -88.59"
         style="fill:#ffffff;fill-opacity:1;fill-rule:nonzero;stroke:none"
         id="path26" />
      <path
         d="m 3344.42,1783.79 h -217.91 v 2296.06 h 217.91 V 1783.79"
         style="fill:#ffffff;fill-opacity:1;fill-rule:nonzero;stroke:none"
         id="path28" />
      <path
         d="m 1980.59,1783.79 h -217.9 v 2296.06 h 217.9 V 1783.79"
         style="fill:#ffffff;fill-opacity:1;fill-rule:nonzero;stroke:none"
         id="path30" />
      <path
         d="m 2370.73,3926.78 h 591.01 v 102.05 h -591.89 v -0.01 c -123.87,-0.48 -224.49,-101.38 -224.49,-225.36 0,-124.26 101.1,-225.36 225.37,-225.36 v 0.02 h 365.82 c 67.92,-0.09 123.14,-55.37 123.14,-123.31 0,-67.76 -54.93,-122.92 -122.61,-123.3 h -366.35 v 0.01 c -124.27,0 -225.37,-101.1 -225.37,-225.37 0,-124.27 101.1,-225.37 225.37,-225.37 v 0.02 h 366.18 c 67.75,-0.29 122.78,-55.49 122.78,-123.31 0,-67.87 -55.12,-123.11 -122.95,-123.31 h -366.01 v 0.02 c -124.27,0 -225.37,-101.1 -225.37,-225.36 0,-124.27 101.1,-225.37 225.37,-225.37 v 0.01 h 366.54 v 0 c 67.59,-0.49 122.42,-55.6 122.42,-123.3 0,-68 -55.32,-123.32 -123.32,-123.32 h -591.01 v -102.05 h 592.47 v 0.02 c 123.6,0.79 223.91,101.57 223.91,225.35 0,124.27 -101.1,225.37 -225.37,225.37 v -0.03 h -365.82 c -67.91,0.1 -123.14,55.38 -123.14,123.32 0,67.92 55.2,123.19 123.09,123.31 v -0.01 h 365.87 v -0.01 c 0.25,0 0.49,0.01 0.73,0.01 h 0.17 v 0 c 123.86,0.49 224.47,101.39 224.47,225.35 0,124.27 -101.1,225.37 -225.37,225.37 v -0.01 H 2370.5 v -0.01 c -67.89,0.12 -123.09,55.39 -123.09,123.31 0,67.92 55.2,123.19 123.09,123.31 v 0 h 365.87 v -0.02 c 124.27,0 225.37,101.1 225.37,225.37 0,123.96 -100.61,224.86 -224.47,225.35 v 0.01 h -0.55 c -0.12,0 -0.23,0 -0.35,0 v 0 H 2370.5 v -0.02 c -67.89,0.12 -123.09,55.39 -123.09,123.31 0,68 55.32,123.32 123.32,123.32"
         style="fill:#ffffff;fill-opacity:1;fill-rule:nonzero;stroke:none"
         id="path32" />
    </g>
  </g>
</svg>
