<?xml version="1.0" encoding="UTF-8" standalone="no"?>
<!-- Created with Inkscape (http://www.inkscape.org/) -->

<svg
   version="1.1"
   id="svg2"
   width="680.32001"
   height="680.32001"
   viewBox="0 0 680.32001 680.32001"
   sodipodi:docname="STEN_&amp;_GRUS_rgb.icon.svg"
   inkscape:version="1.3.2 (091e20e, 2023-11-25, custom)"
   xmlns:inkscape="http://www.inkscape.org/namespaces/inkscape"
   xmlns:sodipodi="http://sodipodi.sourceforge.net/DTD/sodipodi-0.dtd"
   xmlns="http://www.w3.org/2000/svg"
   xmlns:svg="http://www.w3.org/2000/svg">
  <defs
     id="defs6" />
  <sodipodi:namedview
     id="namedview4"
     pagecolor="#ffffff"
     bordercolor="#000000"
     borderopacity="0.25"
     inkscape:showpageshadow="2"
     inkscape:pageopacity="0.0"
     inkscape:pagecheckerboard="0"
     inkscape:deskcolor="#d1d1d1"
     inkscape:zoom="1.6859713"
     inkscape:cx="340.16"
     inkscape:cy="340.16"
     inkscape:window-width="2560"
     inkscape:window-height="1361"
     inkscape:window-x="2551"
     inkscape:window-y="-9"
     inkscape:window-maximized="1"
     inkscape:current-layer="g8" />
  <g
     id="g8"
     inkscape:groupmode="layer"
     inkscape:label="ink_ext_XXXXXX"
     transform="matrix(1.3333333,0,0,-1.3333333,0,680.32)">
    <g
       id="g10"
       transform="scale(0.1)">
      <path
         d="M 5102.36,0 H 0 V 5102.36 H 5102.36 V 0"
         style="fill:#21508c;fill-opacity:1;fill-rule:nonzero;stroke:none"
         id="path12" />
      <path
         d="m 2458.57,2059.98 c -40.4,-31.84 -81.62,-11.66 -86.08,-66.8 -3.27,-40.51 -24.69,-54.07 -12.64,-113.02 7.57,-37.06 7.23,-69.85 65.29,-78.14 44.67,-6.38 76.71,6.22 139.77,4.03 46.3,-1.6 94.09,-44.96 171.83,63.21 25.8,35.94 9.72,32.9 9.5,80.6 -0.23,47.65 -33.93,36.72 -65.37,67.87 -31.45,31.14 -53.07,53.28 -100.76,53.05 -39.99,-0.18 -92.34,12.22 -121.54,-10.8"
         style="fill:#ffffff;fill-opacity:1;fill-rule:nonzero;stroke:none"
         id="path32" />
      <path
         d="m 1763.46,2023.64 c 33.18,-34.25 64.12,-34.23 108.38,-34.95 44.25,-0.7 59.99,-32.44 94.22,0.73 34.26,33.18 43.33,19.57 50.99,63.13 23,131.21 -41.42,135.07 -74.94,167.05 -45.66,43.56 -59.04,75.27 -94.84,102.76 -46.52,35.7 -69.72,12.54 -101.51,-7.95 -50.58,-32.62 -45.3,-57.41 -71.97,-88.06 -36.31,-41.75 6.94,-57.11 12.42,-108.25 3.96,-36.97 49.42,-65.72 77.25,-94.46"
         style="fill:#ffffff;fill-opacity:1;fill-rule:nonzero;stroke:none"
         id="path34" />
      <path
         d="m 1427.59,2255.07 c 34.66,32.77 35.01,63.71 36.25,107.95 1.24,44.25 33.16,59.61 0.42,94.24 -32.78,34.65 -19.06,43.55 -62.53,51.74 -130.92,24.57 -135.55,-39.81 -167.93,-72.94 -44.1,-45.13 -75.97,-58.14 -103.88,-93.61 -36.27,-46.08 -13.39,-69.56 6.73,-101.59 32,-50.97 56.85,-45.97 87.18,-73.02 41.31,-36.8 57.19,6.25 108.4,11.12 37.01,3.51 66.31,48.63 95.36,76.11"
         style="fill:#ffffff;fill-opacity:1;fill-rule:nonzero;stroke:none"
         id="path36" />
      <path
         d="m 2387.55,2552.27 c -42.89,-20.86 -52.51,-50.28 -66.97,-92.1 -14.46,-41.83 -49.52,-46.91 -28.67,-89.77 20.86,-42.89 5.1,-47.26 44.12,-68.11 117.51,-62.73 141.24,-2.71 182.08,19.18 55.61,29.82 89.91,32.66 127.17,58.12 48.43,33.08 33.65,62.34 24.07,98.94 -15.23,58.21 -40.42,60.92 -61.25,95.81 -28.36,47.5 -56.43,11.19 -106.74,21.92 -36.37,7.75 -77.85,-26.5 -113.81,-43.99"
         style="fill:#ffffff;fill-opacity:1;fill-rule:nonzero;stroke:none"
         id="path38" />
      <path
         d="m 3647,2724.26 c -31.33,35.96 -62.23,37.57 -106.38,40.63 -44.16,3.04 -58.2,35.56 -94.14,4.26 -35.95,-31.33 -44.3,-17.25 -54.24,-60.36 -29.91,-129.8 34.22,-137.06 66,-170.77 43.29,-45.91 54.98,-78.28 89.29,-107.62 44.56,-38.11 68.95,-16.22 101.79,2.57 52.22,29.89 48.26,54.92 76.51,84.13 38.47,39.76 -3.91,57.39 -6.68,108.76 -2,37.13 -45.88,68.24 -72.15,98.4"
         style="fill:#ffffff;fill-opacity:1;fill-rule:nonzero;stroke:none"
         id="path40" />
      <path
         d="m 2933.07,2289.04 c -2.03,-51.4 -44.14,-69.64 -5.1,-108.84 28.68,-28.8 25.08,-53.88 77.74,-83.01 33.1,-18.31 57.81,-39.84 101.82,-1.08 33.87,29.83 45.08,62.37 87.69,108.91 31.29,34.16 95.31,42.36 63.51,171.72 -10.58,42.95 -18.71,28.76 -55.13,59.56 -36.38,30.77 -49.95,-1.95 -94.06,-5.64 -44.1,-3.69 -74.98,-5.77 -105.77,-42.18 -25.83,-30.54 -69.25,-62.29 -70.7,-99.44"
         style="fill:#ffffff;fill-opacity:1;fill-rule:nonzero;stroke:none"
         id="path42" />
      <path
         d="m 4076.83,2045.09 c 20.65,47.12 66.51,48.72 44.49,99.46 -16.18,37.29 -3.67,59.32 -42.06,105.67 -24.12,29.13 -39.26,58.21 -94.38,38.2 -42.43,-15.41 -64.75,-41.6 -121.42,-69.37 -41.61,-20.37 -104.19,-4.62 -121.84,-136.66 -5.84,-43.84 6.91,-33.6 29.57,-75.57 22.63,-41.93 47.22,-16.44 89.62,-29.1 42.4,-12.68 71.9,-22.03 113.88,0.62 35.18,19 87.2,32.7 102.14,66.75"
         style="fill:#ffffff;fill-opacity:1;fill-rule:nonzero;stroke:none"
         id="path44" />
      <path
         d="m 2181.48,3012.9 c 8.5,50.74 52.58,63.51 18.81,107.33 -24.81,32.18 -18.07,56.61 -66.63,92.16 -30.52,22.34 -52.31,46.83 -100.86,13.94 -37.37,-25.31 -52.6,-56.18 -100.76,-96.96 -35.35,-29.93 -99.89,-29.97 -84.7,-162.31 5.06,-43.95 14.93,-30.9 47.16,-66.05 32.21,-35.12 49.81,-4.38 94.02,-6.29 44.22,-1.91 75.11,-3.77 110.26,28.47 29.48,27.03 76.56,53.04 82.7,89.71"
         style="fill:#ffffff;fill-opacity:1;fill-rule:nonzero;stroke:none"
         id="path46" />
      <path
         d="m 2825.43,3421.93 c -50.94,-7.13 -76.36,31.08 -108.02,-14.29 -23.25,-33.33 -48.57,-34.23 -67.91,-91.22 -12.15,-35.82 -28.96,-63.96 16.98,-100.39 35.37,-28.04 69.38,-33.31 122.74,-67 39.17,-24.74 58.58,-86.29 180.25,-32.07 40.4,18.02 24.99,23.51 48.85,64.81 23.84,41.27 -10.77,48.82 -22.23,91.58 -11.45,42.75 -18.95,72.77 -60.26,96.62 -34.62,20 -73.57,57.11 -110.4,51.96"
         style="fill:#ffffff;fill-opacity:1;fill-rule:nonzero;stroke:none"
         id="path48" />
      <path
         d="m 851.09,1996.64 c -35.176,-6.52 -48,-25.86 -66.805,-53.21 -18.801,-27.36 -45.156,-24.03 -38.64,-59.18 6.523,-35.17 -5.747,-35.19 18.3,-58.05 72.442,-68.8 101.578,-30.15 135.465,-22.47 46.156,10.46 71.524,5.67 103.54,16.63 41.61,14.25 36.77,38.36 37.15,66.72 0.6,45.14 -17.07,52.11 -25.16,81.51 -11.02,40 -38.561,19.34 -72.792,37.14 -24.746,12.87 -61.574,-3.62 -91.058,-9.09"
         style="fill:#ffffff;fill-opacity:1;fill-rule:nonzero;stroke:none"
         id="path50" />
      <path
         d="m 1531.52,2026.97 c 11.19,36.93 45.2,42.2 24.29,78.03 -15.38,26.33 -8.02,43.85 -40.72,74.95 -20.56,19.55 -34.42,39.86 -73.69,20.05 -30.22,-15.24 -44.52,-36.74 -84.25,-62.45 -29.17,-18.88 -77.18,-12.71 -78.58,-112.61 -0.45,-33.18 8.14,-24.41 28.74,-53.66 20.59,-29.22 36.63,-8.04 69.34,-13.7 32.71,-5.65 55.5,-10 84.74,10.61 24.52,17.27 62.04,32.1 70.13,58.78"
         style="fill:#ffffff;fill-opacity:1;fill-rule:nonzero;stroke:none"
         id="path52" />
      <path
         d="m 1689.77,1800.4 c 38.11,6.05 57.69,-22.26 80.81,12.2 16.97,25.31 35.95,26.34 49.66,69.34 8.62,27.03 20.85,48.36 -14.11,75.04 -26.9,20.55 -52.48,24.03 -92.96,48.57 -29.71,18.01 -45.11,63.89 -135.61,21.56 -30.04,-14.07 -18.41,-17.98 -35.73,-49.28 -17.31,-31.27 8.75,-36.45 17.93,-68.36 9.17,-31.9 15.21,-54.3 46.51,-71.63 26.24,-14.52 55.96,-41.8 83.5,-37.44"
         style="fill:#ffffff;fill-opacity:1;fill-rule:nonzero;stroke:none"
         id="path54" />
      <path
         d="m 2199.01,2041.96 c -38.53,1.98 -51.82,33.73 -81.58,4.81 -21.85,-21.25 -40.63,-18.32 -62.96,-57.54 -14.03,-24.66 -30.41,-43 -1.75,-76.35 22.07,-25.67 46.37,-34.38 80.88,-66.76 25.34,-23.78 30.89,-71.86 128.2,-49.2 32.31,7.53 21.73,13.77 45.17,40.79 23.41,27.01 -1,37.49 -3.37,70.59 -2.37,33.11 -3.63,56.28 -30.66,79.72 -22.66,19.64 -46.08,52.5 -73.93,53.94"
         style="fill:#ffffff;fill-opacity:1;fill-rule:nonzero;stroke:none"
         id="path56" />
      <path
         d="m 1899.21,1918.33 c -20.29,-15.8 -40.84,-5.58 -43.24,-33.14 -1.77,-20.24 -12.51,-26.95 -6.67,-56.47 3.67,-18.55 3.39,-34.94 32.39,-39.26 22.33,-3.33 38.38,2.87 69.91,1.58 23.14,-0.95 46.91,-22.78 86.1,31.06 13.01,17.89 4.97,16.43 5,40.28 0.03,23.82 -16.85,18.46 -32.47,34.14 -15.63,15.66 -26.37,26.79 -50.22,26.83 -19.99,0.03 -46.12,6.4 -60.8,-5.02"
         style="fill:#ffffff;fill-opacity:1;fill-rule:nonzero;stroke:none"
         id="path58" />
      <path
         d="m 2278.06,2218.95 c 7.51,37.84 40.84,46.42 16.5,80.04 -17.87,24.68 -12.27,42.84 -47.88,70.58 -22.37,17.43 -38.16,36.28 -75.29,12.72 -28.58,-18.15 -40.7,-40.94 -77.71,-70.43 -27.18,-21.65 -75.56,-20.23 -67.14,-119.78 2.81,-33.06 10.49,-23.49 33.87,-50.57 23.35,-27.05 37.24,-4.41 70.34,-6.83 33.11,-2.42 56.22,-4.5 83.3,18.87 22.7,19.6 58.58,38.04 64.01,65.4"
         style="fill:#ffffff;fill-opacity:1;fill-rule:nonzero;stroke:none"
         id="path60" />
      <path
         d="m 2272.91,2158.43 c -16.73,-16.98 -16.36,-32.45 -16.2,-54.58 0.16,-22.13 -15.52,-30.37 1.45,-47.09 16.99,-16.74 10.29,-21.44 32.16,-24.76 65.86,-9.96 67.03,22.29 82.62,39.42 21.25,23.33 36.94,30.39 50.26,48.6 17.31,23.67 5.46,35 -5.16,50.66 -16.89,24.89 -29.21,21.96 -44.85,34.94 -21.29,17.66 -28.46,-4.13 -53.97,-7.47 -18.43,-2.42 -32.28,-25.47 -46.31,-39.72"
         style="fill:#ffffff;fill-opacity:1;fill-rule:nonzero;stroke:none"
         id="path62" />
      <path
         d="m 2712,2139.25 c 24,30.21 57.57,22.59 51.31,63.6 -4.6,30.14 8.69,43.72 -10.27,84.68 -11.92,25.74 -17.33,49.73 -61.13,45.76 -33.72,-3.04 -54.92,-17.76 -101.32,-27.05 -34.08,-6.8 -76.44,16.59 -114.52,-75.77 -12.63,-30.68 -1.42,-25.69 6.97,-60.47 8.39,-34.74 31.1,-20.95 59.42,-38.26 28.33,-17.3 47.93,-29.74 82.7,-21.34 29.16,7.03 69.5,7.01 86.84,28.85"
         style="fill:#ffffff;fill-opacity:1;fill-rule:nonzero;stroke:none"
         id="path64" />
      <path
         d="m 1823.38,2886.64 c -43.79,18.91 -72.36,7.02 -113.5,-9.29 -41.14,-16.32 -67.85,6.94 -86.74,-36.81 -18.91,-43.78 -32.51,-34.69 -22.87,-77.87 29.09,-129.99 90.06,-108.84 133.28,-125.52 58.88,-22.71 83.4,-46.86 127.01,-58.51 56.65,-15.14 69.2,15.15 90.69,46.27 34.2,49.52 19.81,70.38 32.69,108.93 17.52,52.48 -28.31,50.07 -52.99,95.21 -17.84,32.62 -70.86,41.74 -107.57,57.59"
         style="fill:#ffffff;fill-opacity:1;fill-rule:nonzero;stroke:none"
         id="path66" />
      <path
         d="m 2043.23,2359.56 c 13.02,19.98 9.58,35.06 5.03,56.72 -4.56,21.65 9.17,32.84 -10.79,45.86 -19.98,13.03 -14.35,18.96 -36.44,17.86 -66.52,-3.33 -61.26,-35.16 -73.14,-55.05 -16.18,-27.09 -30.16,-37.13 -39.58,-57.63 -12.26,-26.63 1.6,-35.38 15.12,-48.61 21.51,-21.04 33.01,-15.72 50.91,-25.33 24.38,-13.08 27.07,9.71 51.4,18.05 17.59,6.03 26.57,31.38 37.49,48.13"
         style="fill:#ffffff;fill-opacity:1;fill-rule:nonzero;stroke:none"
         id="path68" />
      <path
         d="m 1630.86,2337.6 c -18.56,17.79 -11.43,39.61 -39.04,37.99 -20.29,-1.18 -28.48,8.47 -56.84,-1.57 -17.83,-6.32 -34.08,-8.42 -34.17,-37.75 -0.06,-22.57 8.4,-37.55 11.69,-68.93 2.41,-23.04 -15.75,-49.71 43.21,-80.71 19.58,-10.28 16.97,-2.53 40.57,0.89 23.58,3.42 15.83,19.35 29.07,37.07 13.24,17.74 22.71,29.97 19.29,53.58 -2.87,19.78 -0.35,46.57 -13.78,59.43"
         style="fill:#ffffff;fill-opacity:1;fill-rule:nonzero;stroke:none"
         id="path70" />
      <path
         d="m 1434.77,2606.81 c -1.44,-25.68 -22.64,-34.45 -3.45,-54.38 14.1,-14.63 12.1,-27.13 38.18,-42.13 16.4,-9.43 28.58,-20.41 50.9,-1.39 17.17,14.64 23.05,30.82 44.74,53.73 15.92,16.82 47.99,20.39 33.17,85.32 -4.94,21.56 -9.12,14.53 -27.08,30.23 -17.93,15.68 -24.99,-0.56 -47.07,-2.04 -22.08,-1.48 -37.52,-2.26 -53.22,-20.22 -13.17,-15.04 -35.13,-30.56 -36.17,-49.12"
         style="fill:#ffffff;fill-opacity:1;fill-rule:nonzero;stroke:none"
         id="path72" />
      <path
         d="m 1719.87,2374.05 c 33.75,-11.85 54.5,-1.45 84.43,12.92 29.92,14.36 51.12,-1.64 62.97,32.08 11.85,33.75 22.5,27.67 13.02,59.46 -28.59,95.73 -73.1,76.71 -106.31,86.92 -45.24,13.9 -64.85,30.68 -98.09,37.11 -43.18,8.35 -50.98,-14.97 -65.43,-39.39 -22.98,-38.84 -11.12,-53.69 -18.73,-83.21 -10.35,-40.17 23.81,-35.97 44.64,-68.44 15.06,-23.48 55.2,-27.51 83.5,-37.45"
         style="fill:#ffffff;fill-opacity:1;fill-rule:nonzero;stroke:none"
         id="path74" />
      <path
         d="m 4172.19,1821.23 c 28.26,-21.92 51.23,-18.63 84.17,-14.48 32.93,4.15 47.98,-17.74 69.88,10.5 21.93,28.26 30.11,19.11 31.18,52.27 3.19,99.86 -45.05,95.91 -73.32,116.11 -38.5,27.51 -51.8,49.64 -81.29,66.26 -38.31,21.59 -53.09,1.94 -74.53,-16.64 -34.1,-29.56 -27.56,-47.41 -44.12,-73 -22.54,-34.84 11.19,-41.66 20.67,-79.06 6.86,-27.04 43.66,-43.57 67.36,-61.96"
         style="fill:#ffffff;fill-opacity:1;fill-rule:nonzero;stroke:none"
         id="path76" />
      <path
         d="m 3968.21,1798.04 c 23.14,5.8 30.87,19.2 42.25,38.18 11.38,18.98 29.05,17.86 23.26,40.97 -5.8,23.13 2.36,23.66 -14.58,37.87 -51.05,42.78 -68.84,15.86 -91.06,9.35 -30.29,-8.87 -47.36,-6.73 -68.22,-15.36 -27.09,-11.21 -22.87,-27.05 -21.95,-45.93 1.46,-30.06 13.52,-33.97 20.12,-53.19 8.99,-26.16 26.45,-11.28 49.97,-21.71 17,-7.52 40.82,4.97 60.21,9.82"
         style="fill:#ffffff;fill-opacity:1;fill-rule:nonzero;stroke:none"
         id="path78" />
      <path
         d="m 3136.67,2887.18 c -45.13,15.43 -72.69,1.34 -112.42,-18.13 -39.75,-19.48 -68.2,1.63 -83.62,-43.47 -15.43,-45.12 -29.69,-37.12 -16.71,-79.41 39.15,-127.33 98.29,-101.49 142.67,-114.74 60.47,-18.04 86.81,-40.21 131.18,-48.42 57.67,-10.66 67.81,20.51 86.81,53.22 30.23,52.03 14.26,71.71 24.08,111.15 13.37,53.68 -32.13,47.71 -60.25,90.77 -20.33,31.13 -73.9,36.09 -111.74,49.03"
         style="fill:#ffffff;fill-opacity:1;fill-rule:nonzero;stroke:none"
         id="path80" />
      <path
         d="m 3696.08,2425.03 c -31.32,-17.25 -37.41,-39.66 -46.65,-71.54 -9.23,-31.88 -35.29,-37.02 -18.04,-68.32 17.26,-31.34 5.62,-35.22 35.64,-49.35 90.41,-42.5 105.9,3.36 135.65,21.31 40.52,24.46 66.1,27.9 93.04,48.39 35.01,26.62 22.82,47.98 14.26,75.02 -13.63,43.03 -32.61,44.09 -49.54,69.43 -23.05,34.5 -42.69,6.23 -80.78,12.35 -27.53,4.42 -57.31,-22.82 -83.58,-37.29"
         style="fill:#ffffff;fill-opacity:1;fill-rule:nonzero;stroke:none"
         id="path82" />
      <path
         d="m 3411.3,2058.77 c 8.76,37.57 42.35,45.06 19.14,79.45 -17.05,25.26 -10.85,43.23 -45.52,72.13 -21.79,18.17 -36.94,37.52 -74.83,15.2 -29.16,-17.19 -42.03,-39.56 -80,-67.81 -27.88,-20.75 -76.18,-17.73 -71.07,-117.5 1.71,-33.14 9.72,-23.83 32.18,-51.66 22.45,-27.82 37.07,-5.64 70.08,-9.15 33.01,-3.52 56.04,-6.37 83.88,16.1 23.34,18.84 59.81,36.08 66.14,63.24"
         style="fill:#ffffff;fill-opacity:1;fill-rule:nonzero;stroke:none"
         id="path84" />
      <path
         d="m 3470.45,2373.94 c -22.72,7.25 -36.35,-0.07 -56.02,-10.21 -19.66,-10.14 -34.1,0.12 -41.34,-22.58 -7.26,-22.72 -14.48,-18.86 -7.55,-39.87 20.87,-63.25 50.16,-49.73 72.49,-55.9 30.41,-8.41 43.8,-19.22 66.07,-22.87 28.93,-4.74 33.68,10.94 42.85,27.48 14.58,26.33 6.4,36 10.9,55.81 6.14,26.98 -16.54,23.53 -31.04,44.77 -10.48,15.35 -37.31,17.28 -56.36,23.37"
         style="fill:#ffffff;fill-opacity:1;fill-rule:nonzero;stroke:none"
         id="path86" />
      <path
         d="m 3514,2153.45 c -20.58,-12.04 -24.25,-27.07 -29.87,-48.48 -5.62,-21.39 -22.9,-25.26 -10.88,-45.84 12.03,-20.58 4.35,-23.37 24.59,-32.27 60.98,-26.8 70.52,4.02 90.04,16.49 26.59,16.98 43.58,19.71 61.2,33.82 22.87,18.33 14.4,32.36 8.22,50.23 -9.8,28.45 -22.47,28.84 -34.19,45.44 -15.93,22.61 -28.55,3.43 -54.04,6.87 -18.43,2.48 -37.8,-16.17 -55.07,-26.26"
         style="fill:#ffffff;fill-opacity:1;fill-rule:nonzero;stroke:none"
         id="path88" />
      <path
         d="m 3719.11,1842.75 c 18.02,34.11 52.41,32.81 38.7,71.97 -10.08,28.77 0.49,44.57 -25.7,81.33 -16.47,23.1 -26.2,45.68 -68.53,33.71 -32.56,-9.21 -50.69,-27.59 -94.6,-45.27 -32.22,-12.97 -78.18,2.22 -98.57,-95.58 -6.77,-32.48 3.34,-25.52 18,-58.15 14.65,-32.6 34.42,-14.87 65.45,-26.65 31.03,-11.78 52.58,-20.39 85.21,-5.73 27.36,12.29 67.02,19.71 80.04,44.37"
         style="fill:#ffffff;fill-opacity:1;fill-rule:nonzero;stroke:none"
         id="path90" />
      <path
         d="m 2943.76,2087.19 c -32.38,20.97 -28.04,55.12 -68.26,44.93 -29.54,-7.48 -44.35,4.44 -83.29,-18.37 -24.48,-14.34 -47.83,-22.04 -39.66,-65.25 6.28,-33.26 22.98,-52.95 36.68,-98.25 10.06,-33.27 -9.15,-77.69 86.45,-106.68 31.75,-9.62 25.72,1.05 59.51,12.76 33.78,11.69 17.87,32.96 32.37,62.82 14.49,29.87 24.98,50.57 13.28,84.38 -9.82,28.34 -13.68,68.49 -37.08,83.66"
         style="fill:#ffffff;fill-opacity:1;fill-rule:nonzero;stroke:none"
         id="path92" />
      <path
         d="m 3298.7,1941.74 c -23.72,-2.46 -33.27,-14.63 -47.23,-31.81 -13.95,-17.16 -31.29,-13.55 -28.83,-37.25 2.45,-23.72 -5.71,-23.09 9.06,-39.55 44.46,-49.59 65.89,-25.46 88.82,-22.17 31.23,4.49 47.83,-0.05 69.69,5.54 28.41,7.24 26.48,23.52 28.25,42.35 2.81,29.96 -8.57,35.54 -12.38,55.5 -5.18,27.17 -24.59,14.92 -46.38,28.57 -15.77,9.87 -41.12,0.88 -61,-1.18"
         style="fill:#ffffff;fill-opacity:1;fill-rule:nonzero;stroke:none"
         id="path94" />
      <path
         d="m 3164.55,1902.17 c -6.89,24.79 10.37,39.9 -14.2,52.6 -18.06,9.32 -20.17,21.81 -49.7,27.64 -18.55,3.66 -33.61,10.14 -48.63,-15.03 -11.57,-19.39 -11.93,-36.59 -25.12,-65.26 -9.67,-21.04 -38.89,-34.73 -4,-91.45 11.6,-18.84 13.3,-10.83 35.35,-19.94 22.02,-9.09 23.49,8.56 43.92,17.06 20.43,8.49 34.81,14.19 43.91,36.24 7.63,18.48 23.45,40.23 18.47,58.14"
         style="fill:#ffffff;fill-opacity:1;fill-rule:nonzero;stroke:none"
         id="path96" />
      <path
         d="m 3277.37,2413.94 c 15.25,-18.34 30.67,-19.5 52.71,-21.54 22.03,-2.03 28.68,-18.44 47,-3.22 18.34,15.25 22.34,8.12 27.82,29.55 16.44,64.54 -15.53,68.91 -31.02,86.13 -21.12,23.44 -26.59,39.76 -43.39,54.82 -21.84,19.57 -34.29,8.9 -50.91,-0.11 -26.46,-14.34 -24.77,-26.89 -39.23,-41.17 -19.68,-19.43 1.3,-28.73 2.09,-54.44 0.57,-18.59 22.15,-34.64 34.93,-50.02"
         style="fill:#ffffff;fill-opacity:1;fill-rule:nonzero;stroke:none"
         id="path98" />
      <path
         d="m 3371.55,2976.98 c -17.58,16.12 -33.03,15.2 -55.13,14.24 -22.11,-0.96 -30.91,14.41 -47.02,-3.15 -16.11,-17.58 -21.04,-11.05 -23.57,-33.03 -7.59,-66.17 24.68,-66.19 42.35,-81.15 24.09,-20.39 31.7,-35.82 50.38,-48.48 24.28,-16.44 35.18,-4.2 50.43,6.98 24.28,17.77 20.91,29.99 33.31,46.08 16.9,21.91 -5.14,28.29 -9.4,53.66 -3.07,18.34 -26.61,31.34 -41.35,44.85"
         style="fill:#ffffff;fill-opacity:1;fill-rule:nonzero;stroke:none"
         id="path100" />
      <path
         d="m 2766.84,2338.43 c -1.14,-23.83 9.46,-35.1 24.34,-51.47 14.87,-16.38 8.7,-32.98 32.5,-34.12 23.82,-1.13 21.96,-9.1 40.47,3.02 55.7,36.52 35.07,61.32 35.25,84.48 0.26,31.56 7.24,47.28 5.01,69.74 -2.9,29.18 -19.27,29.71 -37.62,34.29 -29.2,7.28 -36.43,-3.13 -56.73,-3.9 -27.65,-1.04 -18.45,-22.06 -35.23,-41.56 -12.12,-14.09 -7.05,-40.51 -7.99,-60.48"
         style="fill:#ffffff;fill-opacity:1;fill-rule:nonzero;stroke:none"
         id="path102" />
      <path
         d="m 2953.5,2570.15 c -14.47,-21.27 -37.16,-17.86 -30.97,-44.82 4.54,-19.81 -3.62,-29.5 10.99,-55.79 9.2,-16.53 13.99,-32.2 42.91,-27.41 22.26,3.69 35.63,14.53 66.03,22.99 22.31,6.21 51.64,-7.26 72.39,56.02 6.89,21.03 -0.32,17.16 -7.61,39.86 -7.3,22.69 -21.71,12.4 -41.4,22.51 -19.69,10.11 -33.33,17.41 -56.04,10.11 -19.03,-6.12 -45.86,-8.1 -56.3,-23.47"
         style="fill:#ffffff;fill-opacity:1;fill-rule:nonzero;stroke:none"
         id="path104" />
      <path
         d="m 2661.7,2596.72 c 11.9,-36.7 -13.01,-60.46 24.63,-77.93 27.64,-12.83 31.61,-31.41 76.23,-38.26 28.04,-4.31 51.01,-13.07 71.93,25.62 16.11,29.78 15.56,55.59 33.5,99.38 13.16,32.16 56.08,54.52 0.18,137.32 -18.57,27.49 -20.62,15.39 -54.24,27.63 -33.58,12.22 -34.65,-14.32 -64.73,-28.35 -30.08,-14.04 -51.28,-23.49 -63.52,-57.1 -10.25,-28.19 -32.58,-61.79 -23.98,-88.31"
         style="fill:#ffffff;fill-opacity:1;fill-rule:nonzero;stroke:none"
         id="path106" />
      <path
         d="m 3205.52,3003.14 c 10.38,37.16 44.26,43.17 22.57,78.54 -15.94,25.98 -8.97,43.66 -42.35,74.04 -20.97,19.09 -35.28,39.09 -74.1,18.43 -29.88,-15.9 -43.71,-37.7 -82.87,-64.27 -28.75,-19.52 -76.89,-14.4 -76.09,-114.31 0.27,-33.17 8.66,-24.23 29.9,-53.01 21.22,-28.76 36.79,-7.24 69.62,-12.18 32.82,-4.95 55.7,-8.79 84.49,12.44 24.13,17.81 61.32,33.46 68.83,60.32"
         style="fill:#ffffff;fill-opacity:1;fill-rule:nonzero;stroke:none"
         id="path108" />
      <path
         d="m 2421.94,2873.45 c -26.2,-39.85 -19.43,-70.04 -10.48,-113.39 8.95,-43.34 -18.57,-65.62 21.24,-91.8 39.86,-26.2 28.55,-38.03 72.74,-36 133.07,6.17 122.79,69.88 146.69,109.56 32.56,54.06 60.58,74.03 79.61,114.96 24.7,53.18 -2.96,70.78 -29.89,97.34 -42.86,42.25 -65.89,31.69 -101.64,51.03 -48.64,26.34 -54.21,-19.22 -102.93,-35.71 -35.22,-11.93 -53.37,-62.57 -75.34,-95.99"
         style="fill:#ffffff;fill-opacity:1;fill-rule:nonzero;stroke:none"
         id="path110" />
      <path
         d="m 2922.11,2885.81 c 11.09,21.11 6.26,35.81 -0.3,56.94 -6.56,21.13 6.06,33.56 -15.03,44.65 -21.11,11.1 -16.06,17.54 -37.94,14.38 -65.92,-9.53 -57.72,-40.74 -67.68,-61.65 -13.57,-28.48 -26.55,-39.78 -34.02,-61.08 -9.72,-27.66 4.9,-35.07 19.6,-46.98 23.38,-18.94 34.32,-12.57 53.05,-20.46 25.49,-10.74 26.05,12.2 49.49,22.78 16.95,7.64 23.52,33.73 32.83,51.42"
         style="fill:#ffffff;fill-opacity:1;fill-rule:nonzero;stroke:none"
         id="path112" />
      <path
         d="m 2153.47,2671.94 c -37.79,7.79 -46.13,41.19 -79.92,17.1 -24.82,-17.7 -42.94,-11.96 -70.94,-47.36 -17.6,-22.25 -36.56,-37.89 -13.27,-75.2 17.93,-28.71 40.63,-41 69.85,-78.24 21.44,-27.33 19.67,-75.7 119.28,-68.01 33.08,2.56 23.57,10.32 50.82,33.49 27.23,23.16 4.68,37.21 7.35,70.3 2.67,33.08 4.92,56.18 -18.26,83.43 -19.43,22.85 -37.6,58.86 -64.91,64.49"
         style="fill:#ffffff;fill-opacity:1;fill-rule:nonzero;stroke:none"
         id="path114" />
      <path
         d="m 2695.74,3156.01 c -25.16,-5.3 -39.16,12.88 -53.39,-10.84 -10.46,-17.43 -23.05,-18.75 -30.74,-47.84 -4.82,-18.29 -12.25,-32.9 11.93,-49.5 18.61,-12.76 35.76,-14.22 63.53,-29.19 20.39,-10.99 32.19,-41.03 91.02,-9.79 19.53,10.38 11.66,12.59 22.13,34.01 10.47,21.4 -7.06,23.98 -14.23,44.92 -7.19,20.92 -11.97,35.64 -33.39,46.12 -17.96,8.78 -38.67,25.95 -56.86,22.11"
         style="fill:#ffffff;fill-opacity:1;fill-rule:nonzero;stroke:none"
         id="path116" />
      <path
         d="m 2502.29,3037.84 c 23.82,30.36 57.43,22.94 50.93,63.92 -4.78,30.1 8.43,43.76 -10.77,84.61 -12.07,25.67 -17.63,49.62 -61.41,45.4 -33.69,-3.25 -54.81,-18.1 -101.16,-27.66 -34.03,-7.01 -76.54,16.14 -114.06,-76.45 -12.45,-30.75 -1.26,-25.7 7.33,-60.43 8.6,-34.69 31.22,-20.77 59.65,-37.9 28.43,-17.14 48.1,-29.45 82.82,-20.85 29.12,7.21 69.46,7.43 86.67,29.36"
         style="fill:#ffffff;fill-opacity:1;fill-rule:nonzero;stroke:none"
         id="path118" />
      <path
         d="m 2137.89,2874.95 c -22.27,8.54 -36.29,2 -56.51,-7 -20.21,-9.01 -34.04,2.05 -42.57,-20.2 -8.53,-22.27 -15.51,-18.01 -9.8,-39.37 17.24,-64.34 47.26,-52.5 69.2,-59.94 29.89,-10.12 42.64,-21.67 64.67,-26.58 28.61,-6.38 34.25,9.01 44.34,25.01 16.05,25.45 8.43,35.57 14.06,55.1 7.66,26.57 -15.19,24.42 -28.46,46.45 -9.59,15.93 -36.26,19.38 -54.93,26.53"
         style="fill:#ffffff;fill-opacity:1;fill-rule:nonzero;stroke:none"
         id="path120" />
      <path
         d="m 2373.84,2721.87 c -13.49,21.91 -1.09,41.21 -28.22,46.61 -19.92,3.96 -25.42,15.38 -55.4,12.8 -18.84,-1.62 -35.1,0.44 -42.57,-27.91 -5.75,-21.82 -1.34,-38.46 -6.07,-69.66 -3.47,-22.9 -27.76,-44.13 21.48,-88.98 16.35,-14.89 15.78,-6.73 39.48,-9.37 23.68,-2.64 20.19,14.73 37.48,28.54 17.28,13.83 29.53,23.28 32.17,46.99 2.21,19.87 11.39,45.15 1.65,60.98"
         style="fill:#ffffff;fill-opacity:1;fill-rule:nonzero;stroke:none"
         id="path122" />
      <path
         d="m 2306.85,2987.49 c -19.57,13.63 -34.76,10.65 -56.54,6.76 -21.78,-3.9 -32.55,10.16 -46.17,-9.39 -13.63,-19.57 -19.38,-13.76 -18.96,-35.88 1.3,-66.59 33.28,-62.3 52.8,-74.78 26.58,-16.99 36.19,-31.27 56.39,-41.32 26.25,-13.06 35.42,0.53 49.06,13.64 21.69,20.85 16.72,32.51 26.86,50.11 13.82,23.96 -8.88,27.36 -16.48,51.93 -5.49,17.76 -30.55,27.51 -46.96,38.93"
         style="fill:#ffffff;fill-opacity:1;fill-rule:nonzero;stroke:none"
         id="path124" />
      <path
         d="m 2406.07,3443.68 c -9.64,-37.36 -43.4,-44.04 -21.01,-78.98 16.45,-25.65 9.83,-43.47 43.8,-73.18 21.36,-18.67 36.06,-38.39 74.46,-16.96 29.57,16.49 42.95,38.57 81.58,65.92 28.35,20.07 76.57,15.91 73.81,115.78 -0.94,33.17 -9.15,24.05 -30.96,52.41 -21.78,28.33 -36.92,6.5 -69.84,10.8 -32.91,4.29 -55.87,7.68 -84.23,-14.13 -23.77,-18.28 -60.64,-34.66 -67.61,-61.66"
         style="fill:#ffffff;fill-opacity:1;fill-rule:nonzero;stroke:none"
         id="path126" />
      <path
         d="m 2231.94,3351.55 c -22.76,-7.12 -29.7,-20.95 -39.97,-40.55 -10.27,-19.61 -27.98,-19.5 -20.86,-42.25 7.12,-22.76 -1,-23.75 16.74,-36.96 53.42,-39.77 69.63,-11.87 91.45,-4.08 29.71,10.6 46.89,9.45 67.21,19.26 26.4,12.74 21.27,28.31 19.27,47.12 -3.2,29.92 -15.45,33.13 -23.15,51.93 -10.48,25.6 -27.06,9.74 -51.14,18.79 -17.4,6.54 -40.47,-7.3 -59.55,-13.26"
         style="fill:#ffffff;fill-opacity:1;fill-rule:nonzero;stroke:none"
         id="path128" />
      <path
         d="m 1182.16,1790.04 c 25.47,3.56 38.17,-15.57 54.01,7.11 11.64,16.66 24.3,17.11 33.98,45.6 6.08,17.91 14.5,31.97 -8.46,50.2 -17.67,14.03 -34.68,16.67 -61.35,33.54 -19.57,12.38 -29.27,43.15 -90.12,16.08 -20.2,-9 -12.5,-11.75 -24.44,-32.39 -11.93,-20.63 5.37,-24.42 11.09,-45.79 5.71,-21.38 9.46,-36.4 30.1,-48.33 17.31,-10.01 36.77,-28.58 55.19,-26.02"
         style="fill:#ffffff;fill-opacity:1;fill-rule:nonzero;stroke:none"
         id="path130" />
      <path
         d="m 1068.12,1992.1 c 31.46,-17.04 53.59,-10.06 85.41,-0.6 31.82,9.45 50.23,-9.7 67.25,21.72 17.04,31.46 26.6,23.75 22.26,56.66 -13.08,99.04 -60.04,87.3 -91.22,102.62 -42.47,20.89 -59.18,40.56 -90.99,52.16 -41.31,15.08 -52.7,-6.72 -70.826,-28.53 -28.844,-34.72 -19.481,-51.26 -31.66,-79.2 -16.582,-38.04 17.816,-39.29 33.254,-74.65 11.152,-25.56 50.152,-35.89 76.522,-50.18"
         style="fill:#ffffff;fill-opacity:1;fill-rule:nonzero;stroke:none"
         id="path132" />
      <path
         d="m 1375.74,1918.17 c -20.27,-15.83 -40.83,-5.66 -43.18,-33.22 -1.73,-20.24 -12.46,-26.97 -6.57,-56.48 3.7,-18.55 3.47,-34.93 32.47,-39.21 22.33,-3.28 38.37,2.95 69.9,1.72 23.14,-0.91 46.95,-22.7 86.05,31.22 12.98,17.92 4.93,16.44 4.92,40.28 -0.01,23.83 -16.88,18.44 -32.53,34.07 -15.66,15.65 -26.42,26.76 -50.27,26.75 -19.99,-0.01 -46.14,6.31 -60.79,-5.13"
         style="fill:#ffffff;fill-opacity:1;fill-rule:nonzero;stroke:none"
         id="path134" />
    </g>
  </g>
</svg>
