<?xml version="1.0" encoding="UTF-8" standalone="no"?>
<!-- Created with Inkscape (http://www.inkscape.org/) -->

<svg
   version="1.1"
   id="svg2"
   width="680.32001"
   height="680.32001"
   viewBox="0 0 680.32001 680.32001"
   sodipodi:docname="STOR_BLOED_PLAST_rgb.icon.svg"
   inkscape:version="1.3.2 (091e20e, 2023-11-25, custom)"
   xmlns:inkscape="http://www.inkscape.org/namespaces/inkscape"
   xmlns:sodipodi="http://sodipodi.sourceforge.net/DTD/sodipodi-0.dtd"
   xmlns="http://www.w3.org/2000/svg"
   xmlns:svg="http://www.w3.org/2000/svg">
  <defs
     id="defs6" />
  <sodipodi:namedview
     id="namedview4"
     pagecolor="#ffffff"
     bordercolor="#000000"
     borderopacity="0.25"
     inkscape:showpageshadow="2"
     inkscape:pageopacity="0.0"
     inkscape:pagecheckerboard="0"
     inkscape:deskcolor="#d1d1d1"
     inkscape:zoom="1.6859713"
     inkscape:cx="340.16"
     inkscape:cy="340.16"
     inkscape:window-width="2560"
     inkscape:window-height="1361"
     inkscape:window-x="2551"
     inkscape:window-y="-9"
     inkscape:window-maximized="1"
     inkscape:current-layer="g8" />
  <g
     id="g8"
     inkscape:groupmode="layer"
     inkscape:label="ink_ext_XXXXXX"
     transform="matrix(1.3333333,0,0,-1.3333333,0,680.32)">
    <g
       id="g10"
       transform="scale(0.1)">
      <path
         d="M 5102.36,0 H 0 V 5102.36 H 5102.36 V 0"
         style="fill:#911984;fill-opacity:1;fill-rule:nonzero;stroke:none"
         id="path12" />
      <path
         d="m 1260.43,3160.33 c 147.68,-7.74 283.5,-72.52 382.44,-182.41 98.95,-109.89 149.18,-251.74 141.44,-399.41 -3.48,-66.26 -18.47,-130.12 -43.84,-189.35 l 839.77,756.13 c 206.28,185.73 222.93,503.52 37.2,709.8 -185.73,206.27 -503.51,222.93 -709.79,37.2 L 1068.71,3136.9 c 61.21,18.78 125.88,26.89 191.72,23.43"
         style="fill:#ffffff;fill-opacity:1;fill-rule:nonzero;stroke:none"
         id="path40" />
      <path
         d="m 1332.37,2541.86 h 0.01 l -0.08,-0.07 v 0 0 l -14.35,-12.92 c 1.61,7.34 2.66,14.85 3.07,22.5 1.91,36.6 -10.54,71.76 -35.06,98.99 -30.79,34.2 -75.01,49.24 -117.59,44.41 l 14.46,13.02 c 0,0 0,0 0,0.01 0.01,0 0.01,0 0.01,0 l 0.07,0.06 v 0 c 45.84,41.2 116.41,37.48 157.66,-8.33 41.25,-45.82 37.57,-116.38 -8.2,-157.67 z m -62.31,12.19 c -1.04,-19.76 -8.64,-38.13 -21.61,-52.69 -2.13,-2.39 -4.38,-4.68 -6.79,-6.84 -35.31,-31.8 -89.9,-28.94 -121.7,6.38 -31.79,35.31 -28.93,89.9 6.38,121.7 2.41,2.17 4.93,4.17 7.52,6.02 14.99,10.75 32.57,16.07 50.1,16.07 23.59,0 47.09,-9.6 64.08,-28.47 15.41,-17.11 23.22,-39.19 22.02,-62.17 z m 334.89,389.73 c -89.82,99.76 -213.12,158.57 -347.19,165.6 -8.99,0.47 -17.97,0.71 -26.91,0.71 -124.3,0 -242.608,-45.31 -335.678,-129.11 -99.762,-89.83 -158.574,-213.13 -165.598,-347.19 -7.027,-134.06 38.574,-262.83 128.399,-362.59 89.828,-99.77 213.127,-158.58 347.187,-165.6 8.99,-0.48 17.97,-0.71 26.91,-0.71 124.31,0 242.61,45.31 335.68,129.11 99.76,89.83 158.58,213.13 165.6,347.18 7.03,134.07 -38.58,262.84 -128.4,362.6"
         style="fill:#ffffff;fill-opacity:1;fill-rule:nonzero;stroke:none"
         id="path42" />
      <path
         d="m 2387.2,2461.32 -47.8,39.63 1349.28,376.32 42.96,-35.62 1.39,-4.98 z m 347.37,-72.67 -47.65,39.5 -0.05,0.17 777.5,216.84 47.81,-39.64 z m 606.44,563.16 47.8,-39.64 -782.62,-218.28 -47.81,39.64 z m 842.12,157.64 c -26.97,9.99 -53.23,22.34 -78.45,37.06 -12.49,7.29 -24.73,15.15 -36.67,23.6 v -0.51 c -114.92,79.74 -267.61,85.05 -388.06,12.26 -2.5,-1.51 -23.97,-16.57 -32.43,-22.1 -7.05,-4.61 -14.19,-9.03 -21.42,-13.25 -14.95,-8.74 -30.24,-16.62 -45.81,-23.69 -132.16,-59.91 -283.98,-59.19 -414.86,0 -15.63,7.07 -30.94,14.96 -45.89,23.69 -8,4.67 -15.9,9.55 -23.68,14.69 -6.97,5.28 -45.59,29.57 -58.17,35.72 -105.92,51.71 -232.89,48.38 -336.83,-12.3 L 1626.29,2216.99 c 110.29,56.84 242.95,51.97 348.61,-12.02 12.18,-9.36 24.69,-18.1 37.52,-26.19 60.05,-37.91 126.61,-62.01 194.99,-72.03 48.5,-7.12 97.9,-7.13 146.53,0 69.43,10.17 137.28,34.95 198.69,74.57 10.34,6.68 20.49,13.78 30.45,21.29 117.64,73.4 267.25,71.26 382.32,-2.9 7.24,-5.36 14.59,-10.49 22.05,-15.42 62.25,-41.1 131.89,-67.05 203.53,-77.54 32.48,-4.77 65.37,-6.33 98.15,-4.72 l 477.5,429.94 449.95,405.14 156.92,141.29 c -64.56,-1.97 -129.28,8.45 -190.37,31.05"
         style="fill:#ffffff;fill-opacity:1;fill-rule:nonzero;stroke:none"
         id="path44" />
    </g>
  </g>
</svg>
