<?xml version="1.0" encoding="UTF-8" standalone="no"?>
<!-- Created with Inkscape (http://www.inkscape.org/) -->

<svg
   version="1.1"
   id="svg2"
   width="680.32001"
   height="680.32001"
   viewBox="0 0 680.32001 680.32001"
   sodipodi:docname="STORT_ELEKTRONIK_rgb.icon.svg"
   inkscape:version="1.3.2 (091e20e, 2023-11-25, custom)"
   xmlns:inkscape="http://www.inkscape.org/namespaces/inkscape"
   xmlns:sodipodi="http://sodipodi.sourceforge.net/DTD/sodipodi-0.dtd"
   xmlns="http://www.w3.org/2000/svg"
   xmlns:svg="http://www.w3.org/2000/svg">
  <defs
     id="defs6" />
  <sodipodi:namedview
     id="namedview4"
     pagecolor="#ffffff"
     bordercolor="#000000"
     borderopacity="0.25"
     inkscape:showpageshadow="2"
     inkscape:pageopacity="0.0"
     inkscape:pagecheckerboard="0"
     inkscape:deskcolor="#d1d1d1"
     inkscape:zoom="1.6859713"
     inkscape:cx="340.16"
     inkscape:cy="340.16"
     inkscape:window-width="2560"
     inkscape:window-height="1361"
     inkscape:window-x="2551"
     inkscape:window-y="-9"
     inkscape:window-maximized="1"
     inkscape:current-layer="g8" />
  <g
     id="g8"
     inkscape:groupmode="layer"
     inkscape:label="ink_ext_XXXXXX"
     transform="matrix(1.3333333,0,0,-1.3333333,0,680.32)">
    <g
       id="g10"
       transform="scale(0.1)">
      <path
         d="M 5102.36,0 0.00390625,0.0117188 V 5102.36 L 5102.36,5102.35 V 0"
         style="fill:#ef8514;fill-opacity:1;fill-rule:nonzero;stroke:none"
         id="path12" />
      <path
         d="m 2942.04,2620.03 c -106.02,-106.01 -246.96,-164.39 -396.88,-164.39 -149.91,0 -290.86,58.38 -396.87,164.39 -106,106.01 -164.39,246.95 -164.39,396.87 0,149.92 58.39,290.86 164.39,396.87 106.01,106.01 246.96,164.39 396.87,164.39 149.92,0 290.86,-58.38 396.88,-164.39 106,-106.01 164.38,-246.95 164.38,-396.87 0,-149.92 -58.38,-290.86 -164.38,-396.87 z M 1779.81,3727.69 V 2043.91 h 1530.7 v 1683.78 h -1530.7"
         style="fill:#ffffff;fill-opacity:1;fill-rule:nonzero;stroke:none"
         id="path44" />
      <path
         d="m 2942.04,2620.03 c -106.02,-106.01 -246.96,-164.39 -396.88,-164.39 -149.91,0 -290.86,58.38 -396.87,164.39 -106,106.01 -164.39,246.95 -164.39,396.87 0,149.92 58.39,290.86 164.39,396.87 106.01,106.01 246.96,164.39 396.87,164.39 149.92,0 290.86,-58.38 396.88,-164.39 106,-106.01 164.38,-246.95 164.38,-396.87 0,-149.92 -58.38,-290.86 -164.38,-396.87 z M 1779.81,3727.69 V 2043.91 h 1530.7 v 1683.78 z"
         style="fill:none;stroke:#f57a15;stroke-width:1.45417;stroke-linecap:butt;stroke-linejoin:miter;stroke-miterlimit:10;stroke-dasharray:none;stroke-opacity:1"
         id="path46" />
      <path
         d="m 2545.16,3476.11 c -122.66,0 -237.98,-47.76 -324.71,-134.49 -86.73,-86.74 -134.5,-202.06 -134.5,-324.72 0,-122.66 47.77,-237.98 134.5,-324.71 86.73,-86.74 202.05,-134.5 324.71,-134.5 122.67,0 237.98,47.76 324.72,134.5 86.73,86.73 134.49,202.05 134.49,324.71 0,122.66 -47.76,237.98 -134.49,324.72 -86.74,86.73 -202.06,134.49 -324.72,134.49"
         style="fill:#ffffff;fill-opacity:1;fill-rule:nonzero;stroke:none"
         id="path48" />
      <path
         d="m 2545.16,3476.11 c -122.66,0 -237.98,-47.76 -324.71,-134.49 -86.73,-86.74 -134.5,-202.06 -134.5,-324.72 0,-122.66 47.77,-237.98 134.5,-324.71 86.73,-86.74 202.05,-134.5 324.71,-134.5 122.67,0 237.98,47.76 324.72,134.5 86.73,86.73 134.49,202.05 134.49,324.71 0,122.66 -47.76,237.98 -134.49,324.72 -86.74,86.73 -202.06,134.49 -324.72,134.49 z"
         style="fill:none;stroke:#f57a15;stroke-width:1.45417;stroke-linecap:butt;stroke-linejoin:miter;stroke-miterlimit:10;stroke-dasharray:none;stroke-opacity:1"
         id="path50" />
      <path
         d="m 3056.37,3855.25 c -42.26,0 -76.53,34.27 -76.53,76.53 0,42.27 34.27,76.54 76.53,76.54 42.28,0 76.54,-34.27 76.54,-76.54 0,-42.26 -34.26,-76.53 -76.54,-76.53 z m -765.46,51.02 h -382.68 v 51.02 h 382.68 z m -511.1,178.58 v -306.13 h 1530.7 v 306.13 h -1530.7"
         style="fill:#ffffff;fill-opacity:1;fill-rule:nonzero;stroke:none"
         id="path52" />
      <path
         d="m 3056.37,3855.25 c -42.26,0 -76.53,34.27 -76.53,76.53 0,42.27 34.27,76.54 76.53,76.54 42.28,0 76.54,-34.27 76.54,-76.54 0,-42.26 -34.26,-76.53 -76.54,-76.53 z m -765.46,51.02 h -382.68 v 51.02 h 382.68 z m -511.1,178.58 v -306.13 h 1530.7 v 306.13 z"
         style="fill:none;stroke:#f57a15;stroke-width:1.45417;stroke-linecap:butt;stroke-linejoin:miter;stroke-miterlimit:10;stroke-dasharray:none;stroke-opacity:1"
         id="path54" />
    </g>
  </g>
</svg>
