<?xml version="1.0" encoding="UTF-8" standalone="no"?>
<!-- Created with Inkscape (http://www.inkscape.org/) -->

<svg
   version="1.1"
   id="svg2"
   width="680.32001"
   height="680.32001"
   viewBox="0 0 680.32001 680.32001"
   sodipodi:docname="STORSKRALD_rgb.eps"
   xmlns:inkscape="http://www.inkscape.org/namespaces/inkscape"
   xmlns:sodipodi="http://sodipodi.sourceforge.net/DTD/sodipodi-0.dtd"
   xmlns="http://www.w3.org/2000/svg"
   xmlns:svg="http://www.w3.org/2000/svg">
  <defs
     id="defs6" />
  <sodipodi:namedview
     id="namedview4"
     pagecolor="#ffffff"
     bordercolor="#000000"
     borderopacity="0.25"
     inkscape:showpageshadow="2"
     inkscape:pageopacity="0.0"
     inkscape:pagecheckerboard="0"
     inkscape:deskcolor="#d1d1d1" />
  <g
     id="g8"
     inkscape:groupmode="layer"
     inkscape:label="ink_ext_XXXXXX"
     transform="matrix(1.3333333,0,0,-1.3333333,0,680.32)">
    <g
       id="g10"
       transform="scale(0.1)">
      <path
         d="M 5102.36,0 H 0 V 5102.36 H 5102.36 V 0"
         style="fill:#111111;fill-opacity:1;fill-rule:nonzero;stroke:none"
         id="path12" />
      <path
         d="m 1043.44,895.57 -52.331,-31.011 c -9.785,16.98 -19.101,28.05 -27.961,33.222 -9.23,5.91 -21.136,8.86 -35.714,8.86 -17.907,0 -32.762,-5.082 -44.575,-15.243 -11.812,-9.968 -17.718,-22.527 -17.718,-37.679 0,-20.867 15.504,-37.68 46.511,-50.418 l 42.637,-17.449 c 34.695,-14.051 60.081,-31.18 76.131,-51.403 16.06,-20.23 24.09,-45.019 24.09,-74.39 0,-39.34 -13.11,-71.848 -39.31,-97.52 -26.399,-25.859 -59.161,-38.789 -98.286,-38.789 -37.098,0 -67.738,11.031 -91.918,33.102 -23.808,22.039 -38.668,53 -44.57,92.867 l 65.336,14.402 c 2.949,-25.109 8.117,-42.461 15.504,-52.051 13.289,-18.461 32.668,-27.691 58.14,-27.691 20.114,0 36.821,6.73 50.11,20.191 13.289,13.469 19.933,30.532 19.933,51.192 0,8.289 -1.152,15.898 -3.461,22.82 -2.308,6.918 -5.91,13.277 -10.797,19.09 -4.89,5.808 -11.211,11.25 -18.964,16.316 -7.75,5.071 -16.985,9.922 -27.684,14.532 l -41.254,17.152 c -58.512,24.707 -87.762,60.867 -87.762,108.449 0,32.09 12.27,58.93 36.821,80.5 24.547,21.77 55.093,32.649 91.64,32.649 49.282,0 87.762,-23.899 115.452,-71.7"
         style="fill:#ffffff;fill-opacity:1;fill-rule:nonzero;stroke:none"
         id="path14" />
      <path
         d="M 1258.28,898.328 V 531.5 h -64.51 v 366.828 h -98.28 v 60.641 h 260.79 v -60.641 h -98"
         style="fill:#ffffff;fill-opacity:1;fill-rule:nonzero;stroke:none"
         id="path16" />
      <path
         d="m 1444.05,746.48 c 0,-47.21 15.87,-86.031 47.62,-116.46 31.56,-30.418 68.01,-45.641 109.35,-45.641 44.85,0 82.69,15.492 113.51,46.473 30.83,31.347 46.24,69.519 46.24,114.519 0,45.551 -15.23,83.719 -45.68,114.52 -30.27,30.98 -67.74,46.468 -112.41,46.468 -44.48,0 -82.04,-15.488 -112.68,-46.468 -30.64,-30.61 -45.95,-68.422 -45.95,-113.411 z m -65.06,0.692 c 0,60.168 22.05,111.848 66.16,155.039 43.93,43.187 96.72,64.789 158.36,64.789 60.91,0 113.14,-21.789 156.71,-65.34 43.74,-43.558 65.61,-95.89 65.61,-156.98 0,-61.461 -21.97,-113.61 -65.89,-156.418 -44.12,-43.012 -97.36,-64.512 -159.75,-64.512 -55.19,0 -104.74,19.102 -148.67,57.309 -48.36,42.261 -72.53,97.632 -72.53,166.113"
         style="fill:#ffffff;fill-opacity:1;fill-rule:nonzero;stroke:none"
         id="path18" />
      <path
         d="m 1963.36,762.68 h 20.48 c 61.09,0 91.64,23.34 91.64,70.039 0,43.742 -29.72,65.609 -89.15,65.609 h -22.97 z m 80.28,-49.008 132.34,-182.172 h -78.9 l -122.1,174.969 h -11.62 V 531.5 h -64.51 v 427.469 h 75.58 c 56.48,0 97.27,-10.617 122.37,-31.84 27.69,-23.629 41.53,-54.82 41.53,-93.578 0,-30.27 -8.68,-56.301 -26.03,-78.071 -17.35,-21.781 -40.24,-35.718 -68.66,-41.808"
         style="fill:#ffffff;fill-opacity:1;fill-rule:nonzero;stroke:none"
         id="path20" />
      <path
         d="m 2468.94,895.57 -52.32,-31.011 c -9.79,16.98 -19.1,28.05 -27.96,33.222 -9.23,5.91 -21.14,8.86 -35.72,8.86 -17.9,0 -32.76,-5.082 -44.57,-15.243 -11.82,-9.968 -17.72,-22.527 -17.72,-37.679 0,-20.867 15.5,-37.68 46.51,-50.418 l 42.64,-17.449 c 34.69,-14.051 60.07,-31.18 76.13,-51.403 16.06,-20.23 24.09,-45.019 24.09,-74.39 0,-39.34 -13.11,-71.848 -39.31,-97.52 -26.4,-25.859 -59.16,-38.789 -98.29,-38.789 -37.1,0 -67.74,11.031 -91.91,33.102 -23.81,22.039 -38.67,53 -44.58,92.867 l 65.34,14.402 c 2.95,-25.109 8.12,-42.461 15.5,-52.051 13.29,-18.461 32.67,-27.691 58.14,-27.691 20.12,0 36.83,6.73 50.11,20.191 13.29,13.469 19.94,30.532 19.94,51.192 0,8.289 -1.16,15.898 -3.46,22.82 -2.31,6.918 -5.91,13.277 -10.8,19.09 -4.89,5.808 -11.21,11.25 -18.96,16.316 -7.76,5.071 -16.99,9.922 -27.69,14.532 l -41.25,17.152 c -58.51,24.707 -87.76,60.867 -87.76,108.449 0,32.09 12.27,58.93 36.82,80.5 24.54,21.77 55.09,32.649 91.64,32.649 49.28,0 87.76,-23.899 115.44,-71.7"
         style="fill:#ffffff;fill-opacity:1;fill-rule:nonzero;stroke:none"
         id="path22" />
      <path
         d="m 2615.84,788.422 166.39,170.547 h 86.1 L 2675.09,765.441 2869.44,531.5 h -86.38 L 2629.13,721.699 2615.84,708.41 V 531.5 h -64.51 v 427.469 h 64.51 V 788.422"
         style="fill:#ffffff;fill-opacity:1;fill-rule:nonzero;stroke:none"
         id="path24" />
      <path
         d="m 2998.02,762.68 h 20.48 c 61.09,0 91.64,23.34 91.64,70.039 0,43.742 -29.72,65.609 -89.15,65.609 h -22.97 z M 3078.3,713.672 3210.64,531.5 h -78.9 l -122.1,174.969 h -11.62 V 531.5 h -64.51 v 427.469 h 75.58 c 56.48,0 97.27,-10.617 122.37,-31.84 27.69,-23.629 41.53,-54.82 41.53,-93.578 0,-30.27 -8.68,-56.301 -26.03,-78.071 -17.35,-21.781 -40.24,-35.718 -68.66,-41.808"
         style="fill:#ffffff;fill-opacity:1;fill-rule:nonzero;stroke:none"
         id="path26" />
      <path
         d="m 3528.84,695.949 -63.4,145.352 -66.45,-145.352 z m 26.3,-60.629 h -183 L 3324.52,531.5 h -69.49 l 211.52,454.32 204.04,-454.32 h -70.6 l -44.85,103.82"
         style="fill:#ffffff;fill-opacity:1;fill-rule:nonzero;stroke:none"
         id="path28" />
      <path
         d="m 3796.63,958.969 v -366.84 h 125.69 V 531.5 h -190.2 v 427.469 h 64.51"
         style="fill:#ffffff;fill-opacity:1;fill-rule:nonzero;stroke:none"
         id="path30" />
      <path
         d="m 4056.12,592.129 h 29.07 c 28.97,0 53.06,3.051 72.25,9.141 19.2,6.46 36.55,16.699 52.05,30.73 31.75,28.969 47.62,66.719 47.62,113.23 0,46.879 -15.69,84.899 -47.06,114.071 -28.24,26.019 -69.87,39.027 -124.86,39.027 h -29.07 z M 3991.61,531.5 v 427.469 h 89.7 c 43,0 76.97,-4.25 101.88,-12.739 26.76,-8.3 51.03,-22.421 72.82,-42.359 44.11,-40.242 66.16,-93.121 66.16,-158.641 0,-65.71 -22.98,-118.859 -68.93,-159.468 -23.08,-20.301 -47.26,-34.422 -72.54,-42.352 -23.63,-7.941 -57.13,-11.91 -100.5,-11.91 h -88.59"
         style="fill:#ffffff;fill-opacity:1;fill-rule:nonzero;stroke:none"
         id="path32" />
      <path
         d="m 2551.3,1860.04 v 0 -4.83 z"
         style="fill:#171717;fill-opacity:1;fill-rule:nonzero;stroke:none"
         id="path34" />
      <path
         d="m 2551.3,1860.04 v 0 -4.83 z"
         style="fill:#171717;fill-opacity:1;fill-rule:nonzero;stroke:none"
         id="path36" />
      <path
         d="m 1275.24,1781.6 h -178.58 v 204.1 h 178.58 v -204.1"
         style="fill:#ffffff;fill-opacity:1;fill-rule:nonzero;stroke:none"
         id="path38" />
      <path
         d="m 4056.27,1781.6 h -178.59 v 204.1 h 178.59 v -204.1"
         style="fill:#ffffff;fill-opacity:1;fill-rule:nonzero;stroke:none"
         id="path40" />
      <path
         d="m 2456.64,3477.55 h -1315.6 c -38.27,0 -69.4,-31.13 -69.4,-69.4 V 2424.2 c 0,-38.27 31.13,-69.4 69.4,-69.4 h 1315.6 c 38.27,0 69.4,31.13 69.4,69.4 v 983.95 c 0,38.27 -31.13,69.4 -69.4,69.4"
         style="fill:#ffffff;fill-opacity:1;fill-rule:nonzero;stroke:none"
         id="path42" />
      <path
         d="m 3961.56,3477.55 h -1315.6 c -38.27,0 -69.4,-31.13 -69.4,-69.4 V 2424.2 c 0,-38.27 31.13,-69.4 69.4,-69.4 h 1315.6 c 38.27,0 69.4,31.13 69.4,69.4 v 983.95 c 0,38.27 -31.13,69.4 -69.4,69.4"
         style="fill:#ffffff;fill-opacity:1;fill-rule:nonzero;stroke:none"
         id="path44" />
      <path
         d="m 4256.99,2906.34 h -93.16 c -44.54,0 -80.98,-36.44 -80.98,-80.98 v -526.2 h -3063.1 v 526.2 c 0,44.54 -36.441,80.98 -80.977,80.98 h -93.168 c -44.535,0 -80.972,-36.44 -80.972,-80.98 v -705.44 c 0,-44.54 36.437,-80.98 80.972,-80.98 H 4256.99 c 44.54,0 80.98,36.44 80.98,80.98 v 705.44 c 0,44.54 -36.44,80.98 -80.98,80.98"
         style="fill:#ffffff;fill-opacity:1;fill-rule:nonzero;stroke:none"
         id="path46" />
    </g>
  </g>
</svg>
