<?xml version="1.0" encoding="UTF-8" standalone="no"?>
<!-- Created with Inkscape (http://www.inkscape.org/) -->

<svg
   version="1.1"
   id="svg2"
   width="680.32001"
   height="680.32001"
   viewBox="0 0 680.32001 680.32001"
   sodipodi:docname="STORT_ELEKTRONIK_rgb.eps"
   xmlns:inkscape="http://www.inkscape.org/namespaces/inkscape"
   xmlns:sodipodi="http://sodipodi.sourceforge.net/DTD/sodipodi-0.dtd"
   xmlns="http://www.w3.org/2000/svg"
   xmlns:svg="http://www.w3.org/2000/svg">
  <defs
     id="defs6" />
  <sodipodi:namedview
     id="namedview4"
     pagecolor="#ffffff"
     bordercolor="#000000"
     borderopacity="0.25"
     inkscape:showpageshadow="2"
     inkscape:pageopacity="0.0"
     inkscape:pagecheckerboard="0"
     inkscape:deskcolor="#d1d1d1" />
  <g
     id="g8"
     inkscape:groupmode="layer"
     inkscape:label="ink_ext_XXXXXX"
     transform="matrix(1.3333333,0,0,-1.3333333,0,680.32)">
    <g
       id="g10"
       transform="scale(0.1)">
      <path
         d="M 5102.36,0 0.00390625,0.0117188 V 5102.36 L 5102.36,5102.35 V 0"
         style="fill:#ef8514;fill-opacity:1;fill-rule:nonzero;stroke:none"
         id="path12" />
      <path
         d="m 1967.51,1440.6 -52.61,-31.18 c -9.83,17.07 -19.2,28.21 -28.11,33.4 -9.28,5.94 -21.25,8.91 -35.9,8.91 -18,0 -32.94,-5.11 -44.81,-15.32 -11.87,-10.03 -17.81,-22.65 -17.81,-37.88 0,-20.98 15.58,-37.88 46.76,-50.69 l 42.86,-17.55 c 34.88,-14.11 60.39,-31.34 76.54,-51.67 16.14,-20.33 24.21,-45.25 24.21,-74.77 0,-39.55 -13.18,-72.24 -39.52,-98.05 -26.54,-26 -59.47,-38.99 -98.81,-38.99 -37.29,0 -68.09,11.09 -92.4,33.28 -23.93,22.16 -38.87,53.28 -44.81,93.36 l 65.69,14.47 c 2.96,-25.23 8.16,-42.68 15.58,-52.32 13.36,-18.56 32.84,-27.84 58.45,-27.84 20.22,0 37.02,6.77 50.38,20.31 13.35,13.53 20.03,30.68 20.03,51.45 0,8.34 -1.16,15.99 -3.48,22.94 -2.32,6.95 -5.93,13.35 -10.85,19.19 -4.92,5.84 -11.27,11.32 -19.06,16.41 -7.8,5.09 -17.08,9.97 -27.84,14.61 l -41.47,17.23 c -58.82,24.86 -88.22,61.19 -88.22,109.04 0,32.25 12.34,59.23 37.01,80.92 24.68,21.88 55.39,32.82 92.13,32.82 49.54,0 88.22,-24.03 116.06,-72.08"
         style="fill:#ffffff;fill-opacity:1;fill-rule:nonzero;stroke:none"
         id="path14" />
      <path
         d="m 2188.88,1443.38 v -368.77 h -64.84 v 368.77 h -98.81 v 60.95 h 262.18 v -60.95 h -98.53"
         style="fill:#ffffff;fill-opacity:1;fill-rule:nonzero;stroke:none"
         id="path16" />
      <path
         d="m 2379.24,1290.72 c 0,-47.46 15.95,-86.48 47.87,-117.07 31.72,-30.59 68.37,-45.89 109.93,-45.89 45.09,0 83.12,15.58 114.12,46.72 30.98,31.52 46.47,69.89 46.47,115.13 0,45.79 -15.31,84.16 -45.91,115.13 -30.44,31.14 -68.11,46.71 -113.01,46.71 -44.71,0 -82.48,-15.57 -113.27,-46.71 -30.8,-30.79 -46.2,-68.79 -46.2,-114.02 z m -65.41,0.7 c 0,60.48 22.17,112.44 66.52,155.86 44.15,43.41 97.23,65.12 159.2,65.12 61.23,0 113.74,-21.89 157.53,-65.68 43.97,-43.79 65.96,-96.4 65.96,-157.81 0,-61.79 -22.09,-114.2 -66.24,-157.25 -44.35,-43.23 -97.88,-64.85 -160.59,-64.85 -55.48,0 -105.3,19.21 -149.46,57.61 -48.61,42.49 -72.92,98.16 -72.92,167"
         style="fill:#ffffff;fill-opacity:1;fill-rule:nonzero;stroke:none"
         id="path18" />
      <path
         d="m 2909.43,1307 h 20.61 c 61.4,0 92.12,23.47 92.12,70.41 0,43.99 -29.88,65.97 -89.62,65.97 h -23.11 z m 80.72,-49.26 133.03,-183.13 h -79.32 l -122.74,175.89 h -11.69 v -175.89 h -64.84 v 429.72 h 75.98 c 56.78,0 97.78,-10.67 123.02,-32.01 27.82,-23.75 41.75,-55.1 41.75,-94.07 0,-30.43 -8.73,-56.59 -26.16,-78.48 -17.45,-21.9 -40.46,-35.91 -69.03,-42.03"
         style="fill:#ffffff;fill-opacity:1;fill-rule:nonzero;stroke:none"
         id="path20" />
      <path
         d="m 3306.72,1443.38 v -368.77 h -64.86 v 368.77 h -98.8 v 60.95 h 262.18 v -60.95 h -98.52"
         style="fill:#ffffff;fill-opacity:1;fill-rule:nonzero;stroke:none"
         id="path22" />
      <path
         d="m 1111.48,899.121 -171.375,-0.48 0.29,-102.711 166.385,0.461 0.17,-60.629 -166.391,-0.461 0.394,-142.86 171.377,0.481 0.16,-60.641 -235.877,-0.652 -1.179,427.461 235.876,0.66 0.17,-60.629"
         style="fill:#ffffff;fill-opacity:1;fill-rule:nonzero;stroke:none"
         id="path24" />
      <path
         d="m 1247.58,960.129 1.01,-366.84 125.69,0.352 0.17,-60.629 -190.2,-0.532 -1.18,427.469 64.51,0.18"
         style="fill:#ffffff;fill-opacity:1;fill-rule:nonzero;stroke:none"
         id="path26" />
      <path
         d="m 1683.46,900.699 -171.37,-0.48 0.28,-102.707 166.39,0.457 0.17,-60.629 -166.39,-0.461 0.4,-142.859 171.37,0.48 0.16,-60.629 -235.87,-0.66 -1.19,427.461 235.88,0.66 0.17,-60.633"
         style="fill:#ffffff;fill-opacity:1;fill-rule:nonzero;stroke:none"
         id="path28" />
      <path
         d="m 1823.27,791.172 165.92,171.008 86.1,0.23 -192.71,-194.051 195,-233.41 -86.38,-0.23 -154.46,189.769 -13.25,-13.328 0.49,-176.898 -64.51,-0.192 -1.18,427.461 64.5,0.188 0.48,-170.547"
         style="fill:#ffffff;fill-opacity:1;fill-rule:nonzero;stroke:none"
         id="path30" />
      <path
         d="m 2285.07,902.359 1.01,-366.828 -64.51,-0.179 -1.01,366.839 -98.29,-0.281 -0.16,60.641 260.79,0.711 0.17,-60.621 -98,-0.282"
         style="fill:#ffffff;fill-opacity:1;fill-rule:nonzero;stroke:none"
         id="path32" />
      <path
         d="m 2520.12,767.352 20.49,0.058 c 61.09,0.172 91.57,23.61 91.45,70.289 -0.13,43.75 -29.9,65.539 -89.33,65.379 l -22.99,-0.058 z m 80.42,-48.782 132.85,-181.8 -78.91,-0.219 -122.58,174.629 -11.62,-0.032 0.48,-174.968 -64.51,-0.168 -1.18,427.457 75.58,0.203 c 56.48,0.16 97.3,-10.344 122.46,-31.492 27.75,-23.559 41.68,-54.711 41.79,-93.469 0.08,-30.27 -8.53,-56.32 -25.81,-78.141 -17.3,-21.832 -40.14,-35.82 -68.55,-42"
         style="fill:#ffffff;fill-opacity:1;fill-rule:nonzero;stroke:none"
         id="path34" />
      <path
         d="m 2818.11,751.98 c 0.13,-47.199 16.12,-85.98 47.94,-116.332 31.65,-30.328 68.14,-45.449 109.48,-45.328 44.86,0.121 82.65,15.711 113.39,46.789 30.74,31.422 46.04,69.653 45.92,114.641 -0.13,45.539 -15.46,83.68 -46.01,114.391 -30.35,30.898 -67.86,46.289 -112.52,46.16 -44.49,-0.121 -82.01,-15.723 -112.55,-46.781 -30.56,-30.7 -45.77,-68.551 -45.65,-113.54 z m -65.07,0.508 c -0.16,60.184 21.75,111.91 65.75,155.223 43.8,43.32 96.53,65.051 158.18,65.23 60.91,0.168 113.2,-21.472 156.88,-64.902 43.86,-43.449 65.88,-95.719 66.05,-156.801 0.17,-61.457 -21.65,-113.656 -65.46,-156.597 -43.99,-43.141 -97.19,-64.789 -159.56,-64.95 -55.2,-0.16 -104.8,18.809 -148.84,56.887 -48.47,42.133 -72.8,97.434 -73,165.91"
         style="fill:#ffffff;fill-opacity:1;fill-rule:nonzero;stroke:none"
         id="path36" />
      <path
         d="m 3276.74,538.27 -1.25,456.531 312.63,-325.27 -0.82,297.071 64.5,0.179 1.26,-453.492 -312.63,324.441 0.83,-299.281 -64.52,-0.179"
         style="fill:#ffffff;fill-opacity:1;fill-rule:nonzero;stroke:none"
         id="path38" />
      <path
         d="m 3805.79,967.211 1.19,-427.473 -64.51,-0.179 -1.18,427.461 64.5,0.191"
         style="fill:#ffffff;fill-opacity:1;fill-rule:nonzero;stroke:none"
         id="path40" />
      <path
         d="m 3962.15,797.09 165.91,171.012 86.11,0.226 -192.72,-194.047 195,-233.41 -86.37,-0.242 -154.46,189.781 -13.25,-13.332 0.49,-176.906 -64.51,-0.184 -1.19,427.461 64.52,0.192 0.47,-170.551"
         style="fill:#ffffff;fill-opacity:1;fill-rule:nonzero;stroke:none"
         id="path42" />
      <path
         d="m 2942.04,2620.03 c -106.02,-106.01 -246.96,-164.39 -396.88,-164.39 -149.91,0 -290.86,58.38 -396.87,164.39 -106,106.01 -164.39,246.95 -164.39,396.87 0,149.92 58.39,290.86 164.39,396.87 106.01,106.01 246.96,164.39 396.87,164.39 149.92,0 290.86,-58.38 396.88,-164.39 106,-106.01 164.38,-246.95 164.38,-396.87 0,-149.92 -58.38,-290.86 -164.38,-396.87 z M 1779.81,3727.69 V 2043.91 h 1530.7 v 1683.78 h -1530.7"
         style="fill:#ffffff;fill-opacity:1;fill-rule:nonzero;stroke:none"
         id="path44" />
      <path
         d="m 2942.04,2620.03 c -106.02,-106.01 -246.96,-164.39 -396.88,-164.39 -149.91,0 -290.86,58.38 -396.87,164.39 -106,106.01 -164.39,246.95 -164.39,396.87 0,149.92 58.39,290.86 164.39,396.87 106.01,106.01 246.96,164.39 396.87,164.39 149.92,0 290.86,-58.38 396.88,-164.39 106,-106.01 164.38,-246.95 164.38,-396.87 0,-149.92 -58.38,-290.86 -164.38,-396.87 z M 1779.81,3727.69 V 2043.91 h 1530.7 v 1683.78 z"
         style="fill:none;stroke:#f57a15;stroke-width:1.45417;stroke-linecap:butt;stroke-linejoin:miter;stroke-miterlimit:10;stroke-dasharray:none;stroke-opacity:1"
         id="path46" />
      <path
         d="m 2545.16,3476.11 c -122.66,0 -237.98,-47.76 -324.71,-134.49 -86.73,-86.74 -134.5,-202.06 -134.5,-324.72 0,-122.66 47.77,-237.98 134.5,-324.71 86.73,-86.74 202.05,-134.5 324.71,-134.5 122.67,0 237.98,47.76 324.72,134.5 86.73,86.73 134.49,202.05 134.49,324.71 0,122.66 -47.76,237.98 -134.49,324.72 -86.74,86.73 -202.06,134.49 -324.72,134.49"
         style="fill:#ffffff;fill-opacity:1;fill-rule:nonzero;stroke:none"
         id="path48" />
      <path
         d="m 2545.16,3476.11 c -122.66,0 -237.98,-47.76 -324.71,-134.49 -86.73,-86.74 -134.5,-202.06 -134.5,-324.72 0,-122.66 47.77,-237.98 134.5,-324.71 86.73,-86.74 202.05,-134.5 324.71,-134.5 122.67,0 237.98,47.76 324.72,134.5 86.73,86.73 134.49,202.05 134.49,324.71 0,122.66 -47.76,237.98 -134.49,324.72 -86.74,86.73 -202.06,134.49 -324.72,134.49 z"
         style="fill:none;stroke:#f57a15;stroke-width:1.45417;stroke-linecap:butt;stroke-linejoin:miter;stroke-miterlimit:10;stroke-dasharray:none;stroke-opacity:1"
         id="path50" />
      <path
         d="m 3056.37,3855.25 c -42.26,0 -76.53,34.27 -76.53,76.53 0,42.27 34.27,76.54 76.53,76.54 42.28,0 76.54,-34.27 76.54,-76.54 0,-42.26 -34.26,-76.53 -76.54,-76.53 z m -765.46,51.02 h -382.68 v 51.02 h 382.68 z m -511.1,178.58 v -306.13 h 1530.7 v 306.13 h -1530.7"
         style="fill:#ffffff;fill-opacity:1;fill-rule:nonzero;stroke:none"
         id="path52" />
      <path
         d="m 3056.37,3855.25 c -42.26,0 -76.53,34.27 -76.53,76.53 0,42.27 34.27,76.54 76.53,76.54 42.28,0 76.54,-34.27 76.54,-76.54 0,-42.26 -34.26,-76.53 -76.54,-76.53 z m -765.46,51.02 h -382.68 v 51.02 h 382.68 z m -511.1,178.58 v -306.13 h 1530.7 v 306.13 z"
         style="fill:none;stroke:#f57a15;stroke-width:1.45417;stroke-linecap:butt;stroke-linejoin:miter;stroke-miterlimit:10;stroke-dasharray:none;stroke-opacity:1"
         id="path54" />
    </g>
  </g>
</svg>
