<?xml version="1.0" encoding="UTF-8" standalone="no"?>
<!-- Created with Inkscape (http://www.inkscape.org/) -->

<svg
   version="1.1"
   id="svg2"
   width="680.32001"
   height="680.32001"
   viewBox="0 0 680.32001 680.32001"
   sodipodi:docname="STOR_HAARD_PLAST_rgb.icon.svg"
   inkscape:version="1.3.2 (091e20e, 2023-11-25, custom)"
   xmlns:inkscape="http://www.inkscape.org/namespaces/inkscape"
   xmlns:sodipodi="http://sodipodi.sourceforge.net/DTD/sodipodi-0.dtd"
   xmlns="http://www.w3.org/2000/svg"
   xmlns:svg="http://www.w3.org/2000/svg">
  <defs
     id="defs6" />
  <sodipodi:namedview
     id="namedview4"
     pagecolor="#ffffff"
     bordercolor="#000000"
     borderopacity="0.25"
     inkscape:showpageshadow="2"
     inkscape:pageopacity="0.0"
     inkscape:pagecheckerboard="0"
     inkscape:deskcolor="#d1d1d1"
     inkscape:zoom="1.6859713"
     inkscape:cx="340.16"
     inkscape:cy="340.16"
     inkscape:window-width="2560"
     inkscape:window-height="1361"
     inkscape:window-x="2551"
     inkscape:window-y="-9"
     inkscape:window-maximized="1"
     inkscape:current-layer="g8" />
  <g
     id="g8"
     inkscape:groupmode="layer"
     inkscape:label="ink_ext_XXXXXX"
     transform="matrix(1.3333333,0,0,-1.3333333,0,680.32)">
    <g
       id="g10"
       transform="scale(0.1)">
      <path
         d="M 5102.36,0 H 0 V 5102.36 H 5102.36 V 0"
         style="fill:#911984;fill-opacity:1;fill-rule:nonzero;stroke:none"
         id="path12" />
      <path
         d="M 3477.95,3583.91 3439,3362.96 c -4.87,-27.64 -31.81,-50.25 -59.88,-50.25 h -294.38 c -28.05,0 -48.41,22.81 -45.23,50.7 l 25.09,220.05 c 3.18,27.89 28.74,50.7 56.81,50.7 h 314.37 c 28.07,0 47.04,-22.61 42.17,-50.25 z m -81.84,-464.31 -38.94,-220.96 c -4.88,-27.63 -31.82,-50.24 -59.89,-50.24 h -265.47 c -28.07,0 -48.43,22.81 -45.25,50.69 l 25.1,220.06 c 3.17,27.88 28.74,50.7 56.8,50.7 h 285.48 c 28.06,0 47.04,-22.62 42.17,-50.25 z m -81.65,-464.35 -39.11,-220.97 c -4.89,-27.62 -31.86,-50.24 -59.91,-50.24 h -236.58 c -28.07,0 -48.43,22.81 -45.25,50.7 l 25.1,220.06 c 3.17,27.88 28.74,50.69 56.8,50.69 h 256.81 c 28.07,0 47.02,-22.61 42.14,-50.24 z m -563.81,927.92 -7.67,-219.47 c -0.99,-28.04 -24.75,-50.99 -52.82,-50.99 H 2414.7 c -28.07,0 -51.83,22.95 -52.81,50.99 l -7.69,219.47 c -0.98,28.04 21.18,50.99 49.25,50.99 h 297.96 c 28.07,0 50.23,-22.95 49.24,-50.99 z m -16.25,-464.32 -7.67,-219.46 c -0.99,-28.05 -24.75,-50.99 -52.82,-50.99 h -242.96 c -28.07,0 -51.83,22.94 -52.81,50.99 l -7.68,219.46 c -0.98,28.05 21.17,51 49.24,51 h 265.46 c 28.07,0 50.23,-22.95 49.24,-51 z m -16.25,-464.35 -7.68,-219.46 c -0.98,-28.05 -24.74,-51 -52.81,-51 H 2447.2 c -28.07,0 -51.83,22.95 -52.81,51 l -7.68,219.46 c -0.98,28.05 21.17,50.99 49.24,50.99 h 232.96 c 28.07,0 50.23,-22.94 49.24,-50.99 z m -592.14,-270.46 h -236.58 c -28.07,0 -55.03,22.62 -59.92,50.24 l -39.11,220.97 c -4.89,27.63 14.07,50.24 42.13,50.24 h 256.82 c 28.07,0 53.63,-22.81 56.81,-50.69 l 25.09,-220.06 c 3.18,-27.89 -17.18,-50.7 -45.24,-50.7 z m -378.31,514.6 -38.95,220.96 c -4.86,27.63 14.11,50.25 42.17,50.25 h 285.49 c 28.06,0 53.62,-22.82 56.8,-50.7 l 25.09,-220.06 c 3.18,-27.88 -17.18,-50.69 -45.24,-50.69 h -265.48 c -28.06,0 -55.01,22.61 -59.88,50.24 z m -81.84,464.32 -38.95,220.95 c -4.87,27.64 14.11,50.25 42.17,50.25 h 314.38 c 28.06,0 53.62,-22.81 56.8,-50.7 l 25.1,-220.05 c 3.17,-27.89 -17.18,-50.7 -45.25,-50.7 h -294.37 c -28.06,0 -55.01,22.61 -59.88,50.25 z m 2129.45,585.05 H 1309.55 l -32.71,-153.08 h 65.44 l 360.05,-1683.78 h 1700.24 l 360.02,1683.78 h 65.43 l -32.71,153.08"
         style="fill:#ffffff;fill-opacity:1;fill-rule:nonzero;stroke:none"
         id="path40" />
    </g>
  </g>
</svg>
