<?xml version="1.0" encoding="UTF-8" standalone="no"?>
<!-- Created with Inkscape (http://www.inkscape.org/) -->

<svg
   version="1.1"
   id="svg2"
   width="680.32001"
   height="680.32001"
   viewBox="0 0 680.32001 680.32001"
   sodipodi:docname="STOR_BLOED_PLAST_rgb.eps"
   xmlns:inkscape="http://www.inkscape.org/namespaces/inkscape"
   xmlns:sodipodi="http://sodipodi.sourceforge.net/DTD/sodipodi-0.dtd"
   xmlns="http://www.w3.org/2000/svg"
   xmlns:svg="http://www.w3.org/2000/svg">
  <defs
     id="defs6" />
  <sodipodi:namedview
     id="namedview4"
     pagecolor="#ffffff"
     bordercolor="#000000"
     borderopacity="0.25"
     inkscape:showpageshadow="2"
     inkscape:pageopacity="0.0"
     inkscape:pagecheckerboard="0"
     inkscape:deskcolor="#d1d1d1" />
  <g
     id="g8"
     inkscape:groupmode="layer"
     inkscape:label="ink_ext_XXXXXX"
     transform="matrix(1.3333333,0,0,-1.3333333,0,680.32)">
    <g
       id="g10"
       transform="scale(0.1)">
      <path
         d="M 5102.36,0 H 0 V 5102.36 H 5102.36 V 0"
         style="fill:#911984;fill-opacity:1;fill-rule:nonzero;stroke:none"
         id="path12" />
      <path
         d="m 2098.38,1438.15 -52.32,-31 c -9.79,16.98 -19.1,28.05 -27.96,33.22 -9.23,5.91 -21.14,8.86 -35.72,8.86 -17.9,0 -32.76,-5.08 -44.57,-15.23 -11.81,-9.97 -17.72,-22.52 -17.72,-37.65 0,-20.86 15.51,-37.65 46.51,-50.39 l 42.64,-17.44 c 34.7,-14.03 60.08,-31.15 76.13,-51.35 16.06,-20.22 24.09,-44.99 24.09,-74.34 0,-39.32 -13.11,-71.81 -39.31,-97.46 -26.4,-25.84 -59.16,-38.76 -98.29,-38.76 -37.1,0 -67.73,10.99 -91.91,32.95 -23.81,21.96 -38.67,52.88 -44.58,92.74 l 65.34,14.41 c 2.95,-25.11 8.12,-42.46 15.51,-52.05 13.28,-18.46 32.66,-27.69 58.14,-27.69 20.11,0 36.82,6.73 50.1,20.21 13.29,13.47 19.94,30.54 19.94,51.22 0,8.31 -1.16,15.91 -3.46,22.84 -2.31,6.92 -5.91,13.29 -10.8,19.1 -4.89,5.82 -11.21,11.26 -18.96,16.34 -7.76,5.07 -16.99,9.91 -27.69,14.53 l -41.25,17.17 c -58.51,24.72 -87.76,60.9 -87.76,108.52 0,32.12 12.27,58.98 36.82,80.57 24.54,21.78 55.09,32.66 91.64,32.66 49.28,0 87.76,-23.99 115.44,-71.98"
         style="fill:#ffffff;fill-opacity:1;fill-rule:nonzero;stroke:none"
         id="path14" />
      <path
         d="m 2313.22,1441.2 v -366.84 h -64.5 v 366.84 h -98.29 v 60.63 h 260.8 v -60.63 h -98.01"
         style="fill:#ffffff;fill-opacity:1;fill-rule:nonzero;stroke:none"
         id="path16" />
      <path
         d="m 2498.99,1289.21 c 0,-47.26 15.88,-86.11 47.62,-116.57 31.56,-30.45 68.02,-45.67 109.37,-45.67 44.84,0 82.67,15.5 113.5,46.51 30.82,31.37 46.23,69.58 46.23,114.61 0,45.59 -15.22,83.8 -45.67,114.62 -30.27,31.02 -67.75,46.52 -112.4,46.52 -44.49,0 -82.05,-15.5 -112.68,-46.52 -30.65,-30.63 -45.97,-68.47 -45.97,-113.5 z m -65.05,0.83 c 0,60.16 22.05,111.84 66.16,155.04 43.93,43.18 96.72,64.78 158.37,64.78 60.9,0 113.13,-21.79 156.7,-65.34 43.74,-43.56 65.61,-95.89 65.61,-156.97 0,-61.47 -21.97,-113.62 -65.9,-156.43 -44.11,-43.01 -97.35,-64.51 -159.74,-64.51 -55.19,0 -104.74,19.11 -148.67,57.31 -48.36,42.27 -72.53,97.64 -72.53,166.12"
         style="fill:#ffffff;fill-opacity:1;fill-rule:nonzero;stroke:none"
         id="path18" />
      <path
         d="m 3026.41,1305.54 h 20.48 c 61.09,0 91.64,23.34 91.64,70.04 0,43.74 -29.72,65.62 -89.15,65.62 h -22.97 z m 80.28,-49 132.34,-182.18 h -78.9 l -122.09,174.97 h -11.63 v -174.97 h -64.52 v 427.47 h 75.59 c 56.47,0 97.27,-10.61 122.37,-31.84 27.69,-23.63 41.53,-54.82 41.53,-93.58 0,-30.27 -8.69,-56.3 -26.03,-78.07 -17.35,-21.78 -40.23,-35.72 -68.66,-41.8"
         style="fill:#ffffff;fill-opacity:1;fill-rule:nonzero;stroke:none"
         id="path20" />
      <path
         d="m 998.023,595 h 39.867 c 29.16,0 50.57,5.719 64.23,17.172 14.4,12.359 21.6,28.039 21.6,47.058 0,18.45 -6.93,33.95 -20.77,46.508 -13.47,12.364 -37.56,18.543 -72.26,18.543 h -32.667 z m 0,183.281 h 20.207 c 24,0 41.57,5.301 52.74,15.918 11.17,10.602 16.75,26.25 16.75,46.922 0,20.117 -5.72,35.391 -17.16,45.82 -11.45,10.43 -28.06,15.649 -49.84,15.649 H 998.023 Z M 933.516,534.359 v 427.469 h 64.226 c 28.608,0 51.408,-2.207 68.388,-6.648 17.17,-4.418 31.65,-11.899 43.46,-22.418 12,-10.891 21.5,-24.461 28.52,-40.703 7.2,-16.43 10.8,-33.039 10.8,-49.84 0,-30.629 -11.72,-56.571 -35.16,-77.789 22.7,-7.75 40.6,-21.321 53.71,-40.692 13.29,-19.199 19.93,-41.539 19.93,-67 0,-33.41 -11.81,-61.648 -35.44,-84.718 -14.21,-14.219 -30.17,-24.09 -47.89,-29.629 -19.38,-5.352 -43.66,-8.032 -72.82,-8.032 h -97.724"
         style="fill:#ffffff;fill-opacity:1;fill-rule:nonzero;stroke:none"
         id="path22" />
      <path
         d="M 1333.29,961.828 V 595 h 125.69 v -60.641 h -190.19 v 427.469 h 64.5"
         style="fill:#ffffff;fill-opacity:1;fill-rule:nonzero;stroke:none"
         id="path24" />
      <path
         d="M 1848.8,846.102 1626.48,619.359 c 31.2,-21.597 63.31,-32.39 96.35,-32.39 43.56,0 80.66,15.601 111.3,46.793 30.63,31.187 45.95,69.207 45.95,114.058 0,35.25 -10.43,68.02 -31.28,98.282 z m -37.1,36.269 c -26.76,17.899 -56.2,26.859 -88.32,26.859 -45.59,0 -83.61,-15.601 -114.06,-46.789 -30.27,-31.382 -45.41,-70.32 -45.41,-116.839 0,-30.454 8.96,-60.161 26.86,-89.141 z m 45.13,42.641 46.23,47.066 37.1,-36.828 -45.68,-46.789 c 33.78,-42.082 50.67,-89.242 50.67,-141.473 0,-60.539 -21.88,-112.398 -65.62,-155.597 -43.74,-43.18 -96.25,-64.782 -157.53,-64.782 -51.13,0 -98.28,16.34 -141.48,49 l -45.95,-45.668 -35.44,36.27 44.58,45.961 c -29.91,39.859 -44.86,84.609 -44.86,134.258 0,63.859 22.61,117.3 67.83,160.308 44.3,42.082 96.63,63.121 156.98,63.121 47.99,0 92.37,-14.949 133.17,-44.847"
         style="fill:#ffffff;fill-opacity:1;fill-rule:nonzero;stroke:none"
         id="path26" />
      <path
         d="m 2090.77,595 h 29.07 c 28.97,0 53.06,3.039 72.26,9.129 19.19,6.461 36.54,16.711 52.05,30.73 31.74,28.981 47.62,66.731 47.62,113.231 0,46.89 -15.69,84.91 -47.07,114.082 -28.24,26.019 -69.86,39.027 -124.86,39.027 h -29.07 z m -64.51,-60.641 v 427.469 h 89.71 c 43,0 76.96,-4.238 101.88,-12.726 26.76,-8.313 51.03,-22.43 72.81,-42.364 44.11,-40.238 66.17,-93.117 66.17,-158.648 0,-65.699 -22.98,-118.852 -68.94,-159.461 -23.08,-20.301 -47.25,-34.418 -72.53,-42.359 -23.63,-7.942 -57.13,-11.911 -100.5,-11.911 h -88.6"
         style="fill:#ffffff;fill-opacity:1;fill-rule:nonzero;stroke:none"
         id="path28" />
      <path
         d="m 2677.43,767.75 h 24.08 c 59.25,0 88.87,22.789 88.87,68.391 0,44.109 -30.55,66.16 -91.63,66.16 h -21.32 z m 0,-59.789 V 534.359 h -64.51 v 427.469 h 73.1 c 35.8,0 62.84,-2.488 81.11,-7.476 18.46,-4.981 34.7,-14.391 48.73,-28.231 24.54,-24 36.82,-54.269 36.82,-90.812 0,-39.129 -13.11,-70.149 -39.31,-93.028 -26.21,-22.89 -61.56,-34.32 -106.05,-34.32 h -29.89"
         style="fill:#ffffff;fill-opacity:1;fill-rule:nonzero;stroke:none"
         id="path30" />
      <path
         d="M 2983.63,961.828 V 595 h 125.7 v -60.641 h -190.21 v 427.469 h 64.51"
         style="fill:#ffffff;fill-opacity:1;fill-rule:nonzero;stroke:none"
         id="path32" />
      <path
         d="m 3419.12,698.82 -63.4,145.352 -66.44,-145.352 z m 26.31,-60.64 H 3262.42 L 3214.8,534.359 h -69.49 l 211.53,454.332 204.04,-454.332 h -70.61 l -44.84,103.821"
         style="fill:#ffffff;fill-opacity:1;fill-rule:nonzero;stroke:none"
         id="path34" />
      <path
         d="m 3856,898.148 -52.33,-31 c -9.78,16.981 -19.1,28.051 -27.96,33.223 -9.23,5.91 -21.13,8.859 -35.71,8.859 -17.91,0 -32.76,-5.082 -44.58,-15.23 -11.81,-9.969 -17.72,-22.52 -17.72,-37.648 0,-20.864 15.51,-37.653 46.52,-50.391 l 42.63,-17.441 c 34.7,-14.032 60.08,-31.149 76.14,-51.348 16.05,-20.223 24.09,-44.992 24.09,-74.344 0,-39.316 -13.12,-71.808 -39.32,-97.457 -26.39,-25.84 -59.16,-38.762 -98.28,-38.762 -37.1,0 -67.74,10.993 -91.92,32.95 -23.81,21.961 -38.66,52.882 -44.57,92.742 l 65.34,14.41 c 2.95,-25.109 8.11,-42.461 15.5,-52.051 13.29,-18.461 32.66,-27.691 58.14,-27.691 20.11,0 36.82,6.73 50.11,20.211 13.29,13.468 19.93,30.539 19.93,51.218 0,8.313 -1.15,15.911 -3.46,22.84 -2.31,6.922 -5.9,13.293 -10.8,19.102 -4.89,5.82 -11.21,11.262 -18.96,16.34 -7.76,5.07 -16.98,9.91 -27.69,14.531 l -41.25,17.168 c -58.51,24.723 -87.76,60.902 -87.76,108.519 0,32.122 12.27,58.981 36.83,80.571 24.54,21.781 55.08,32.66 91.64,32.66 49.27,0 87.75,-23.988 115.44,-71.981"
         style="fill:#ffffff;fill-opacity:1;fill-rule:nonzero;stroke:none"
         id="path36" />
      <path
         d="m 4070.84,901.199 v -366.84 h -64.5 v 366.84 h -98.29 v 60.629 h 260.8 v -60.629 h -98.01"
         style="fill:#ffffff;fill-opacity:1;fill-rule:nonzero;stroke:none"
         id="path38" />
      <path
         d="m 1260.43,3160.33 c 147.68,-7.74 283.5,-72.52 382.44,-182.41 98.95,-109.89 149.18,-251.74 141.44,-399.41 -3.48,-66.26 -18.47,-130.12 -43.84,-189.35 l 839.77,756.13 c 206.28,185.73 222.93,503.52 37.2,709.8 -185.73,206.27 -503.51,222.93 -709.79,37.2 L 1068.71,3136.9 c 61.21,18.78 125.88,26.89 191.72,23.43"
         style="fill:#ffffff;fill-opacity:1;fill-rule:nonzero;stroke:none"
         id="path40" />
      <path
         d="m 1332.37,2541.86 h 0.01 l -0.08,-0.07 v 0 0 l -14.35,-12.92 c 1.61,7.34 2.66,14.85 3.07,22.5 1.91,36.6 -10.54,71.76 -35.06,98.99 -30.79,34.2 -75.01,49.24 -117.59,44.41 l 14.46,13.02 c 0,0 0,0 0,0.01 0.01,0 0.01,0 0.01,0 l 0.07,0.06 v 0 c 45.84,41.2 116.41,37.48 157.66,-8.33 41.25,-45.82 37.57,-116.38 -8.2,-157.67 z m -62.31,12.19 c -1.04,-19.76 -8.64,-38.13 -21.61,-52.69 -2.13,-2.39 -4.38,-4.68 -6.79,-6.84 -35.31,-31.8 -89.9,-28.94 -121.7,6.38 -31.79,35.31 -28.93,89.9 6.38,121.7 2.41,2.17 4.93,4.17 7.52,6.02 14.99,10.75 32.57,16.07 50.1,16.07 23.59,0 47.09,-9.6 64.08,-28.47 15.41,-17.11 23.22,-39.19 22.02,-62.17 z m 334.89,389.73 c -89.82,99.76 -213.12,158.57 -347.19,165.6 -8.99,0.47 -17.97,0.71 -26.91,0.71 -124.3,0 -242.608,-45.31 -335.678,-129.11 -99.762,-89.83 -158.574,-213.13 -165.598,-347.19 -7.027,-134.06 38.574,-262.83 128.399,-362.59 89.828,-99.77 213.127,-158.58 347.187,-165.6 8.99,-0.48 17.97,-0.71 26.91,-0.71 124.31,0 242.61,45.31 335.68,129.11 99.76,89.83 158.58,213.13 165.6,347.18 7.03,134.07 -38.58,262.84 -128.4,362.6"
         style="fill:#ffffff;fill-opacity:1;fill-rule:nonzero;stroke:none"
         id="path42" />
      <path
         d="m 2387.2,2461.32 -47.8,39.63 1349.28,376.32 42.96,-35.62 1.39,-4.98 z m 347.37,-72.67 -47.65,39.5 -0.05,0.17 777.5,216.84 47.81,-39.64 z m 606.44,563.16 47.8,-39.64 -782.62,-218.28 -47.81,39.64 z m 842.12,157.64 c -26.97,9.99 -53.23,22.34 -78.45,37.06 -12.49,7.29 -24.73,15.15 -36.67,23.6 v -0.51 c -114.92,79.74 -267.61,85.05 -388.06,12.26 -2.5,-1.51 -23.97,-16.57 -32.43,-22.1 -7.05,-4.61 -14.19,-9.03 -21.42,-13.25 -14.95,-8.74 -30.24,-16.62 -45.81,-23.69 -132.16,-59.91 -283.98,-59.19 -414.86,0 -15.63,7.07 -30.94,14.96 -45.89,23.69 -8,4.67 -15.9,9.55 -23.68,14.69 -6.97,5.28 -45.59,29.57 -58.17,35.72 -105.92,51.71 -232.89,48.38 -336.83,-12.3 L 1626.29,2216.99 c 110.29,56.84 242.95,51.97 348.61,-12.02 12.18,-9.36 24.69,-18.1 37.52,-26.19 60.05,-37.91 126.61,-62.01 194.99,-72.03 48.5,-7.12 97.9,-7.13 146.53,0 69.43,10.17 137.28,34.95 198.69,74.57 10.34,6.68 20.49,13.78 30.45,21.29 117.64,73.4 267.25,71.26 382.32,-2.9 7.24,-5.36 14.59,-10.49 22.05,-15.42 62.25,-41.1 131.89,-67.05 203.53,-77.54 32.48,-4.77 65.37,-6.33 98.15,-4.72 l 477.5,429.94 449.95,405.14 156.92,141.29 c -64.56,-1.97 -129.28,8.45 -190.37,31.05"
         style="fill:#ffffff;fill-opacity:1;fill-rule:nonzero;stroke:none"
         id="path44" />
    </g>
  </g>
</svg>
