<?xml version="1.0" encoding="UTF-8" standalone="no"?>
<!-- Created with Inkscape (http://www.inkscape.org/) -->

<svg
   version="1.1"
   id="svg2"
   width="680.32001"
   height="680.32001"
   viewBox="0 0 680.32001 680.32001"
   sodipodi:docname="STOR_HAARD_PLAST_rgb.eps"
   xmlns:inkscape="http://www.inkscape.org/namespaces/inkscape"
   xmlns:sodipodi="http://sodipodi.sourceforge.net/DTD/sodipodi-0.dtd"
   xmlns="http://www.w3.org/2000/svg"
   xmlns:svg="http://www.w3.org/2000/svg">
  <defs
     id="defs6" />
  <sodipodi:namedview
     id="namedview4"
     pagecolor="#ffffff"
     bordercolor="#000000"
     borderopacity="0.25"
     inkscape:showpageshadow="2"
     inkscape:pageopacity="0.0"
     inkscape:pagecheckerboard="0"
     inkscape:deskcolor="#d1d1d1" />
  <g
     id="g8"
     inkscape:groupmode="layer"
     inkscape:label="ink_ext_XXXXXX"
     transform="matrix(1.3333333,0,0,-1.3333333,0,680.32)">
    <g
       id="g10"
       transform="scale(0.1)">
      <path
         d="M 5102.36,0 H 0 V 5102.36 H 5102.36 V 0"
         style="fill:#911984;fill-opacity:1;fill-rule:nonzero;stroke:none"
         id="path12" />
      <path
         d="m 2122.06,1436.88 -52.32,-31 c -9.79,16.97 -19.11,28.04 -27.97,33.22 -9.23,5.9 -21.14,8.86 -35.72,8.86 -17.9,0 -32.76,-5.08 -44.57,-15.23 -11.81,-9.97 -17.72,-22.53 -17.72,-37.65 0,-20.86 15.51,-37.66 46.52,-50.39 l 42.63,-17.45 c 34.7,-14.02 60.08,-31.14 76.14,-51.35 16.06,-20.21 24.08,-44.99 24.08,-74.34 0,-39.31 -13.11,-71.8 -39.31,-97.45 -26.4,-25.84 -59.16,-38.76 -98.28,-38.76 -37.1,0 -67.74,10.98 -91.92,32.95 -23.81,21.96 -38.67,52.88 -44.57,92.74 l 65.33,14.4 c 2.95,-25.1 8.12,-42.45 15.51,-52.05 13.29,-18.46 32.67,-27.69 58.14,-27.69 20.11,0 36.82,6.74 50.11,20.22 13.28,13.46 19.93,30.54 19.93,51.22 0,8.3 -1.15,15.91 -3.46,22.84 -2.31,6.91 -5.91,13.28 -10.8,19.1 -4.89,5.81 -11.21,11.25 -18.96,16.33 -7.75,5.08 -16.99,9.92 -27.69,14.54 l -41.25,17.16 c -58.51,24.73 -87.76,60.91 -87.76,108.53 0,32.11 12.27,58.97 36.82,80.56 24.55,21.78 55.1,32.67 91.64,32.67 49.28,0 87.76,-23.99 115.45,-71.98"
         style="fill:#ffffff;fill-opacity:1;fill-rule:nonzero;stroke:none"
         id="path14" />
      <path
         d="m 2336.9,1439.93 v -366.84 h -64.51 v 366.84 h -98.28 v 60.62 h 260.8 v -60.62 h -98.01"
         style="fill:#ffffff;fill-opacity:1;fill-rule:nonzero;stroke:none"
         id="path16" />
      <path
         d="m 2522.66,1287.93 c 0,-47.25 15.88,-86.1 47.62,-116.56 31.57,-30.44 68.02,-45.68 109.37,-45.68 44.85,0 82.68,15.51 113.5,46.51 30.82,31.38 46.24,69.58 46.24,114.62 0,45.59 -15.22,83.79 -45.68,114.62 -30.27,31.01 -67.74,46.52 -112.4,46.52 -44.49,0 -82.04,-15.51 -112.68,-46.52 -30.64,-30.64 -45.97,-68.47 -45.97,-113.51 z m -65.05,0.84 c 0,60.16 22.05,111.84 66.16,155.04 43.93,43.18 96.72,64.77 158.37,64.77 60.91,0 113.13,-21.78 156.7,-65.33 43.74,-43.56 65.61,-95.89 65.61,-156.98 0,-61.46 -21.97,-113.61 -65.89,-156.42 -44.12,-43.01 -97.36,-64.51 -159.74,-64.51 -55.2,0 -104.75,19.1 -148.67,57.31 -48.36,42.26 -72.54,97.63 -72.54,166.12"
         style="fill:#ffffff;fill-opacity:1;fill-rule:nonzero;stroke:none"
         id="path18" />
      <path
         d="m 3050.08,1304.27 h 20.48 c 61.1,0 91.65,23.34 91.65,70.04 0,43.74 -29.72,65.62 -89.15,65.62 h -22.98 z m 80.29,-49.01 132.33,-182.17 h -78.9 l -122.09,174.97 h -11.63 v -174.97 h -64.51 v 427.46 h 75.58 c 56.48,0 97.27,-10.61 122.37,-31.83 27.69,-23.62 41.53,-54.82 41.53,-93.58 0,-30.27 -8.67,-56.29 -26.03,-78.07 -17.34,-21.78 -40.23,-35.71 -68.65,-41.81"
         style="fill:#ffffff;fill-opacity:1;fill-rule:nonzero;stroke:none"
         id="path20" />
      <path
         d="m 979.477,793.34 h 184.383 v 167.211 h 64.51 V 533.09 h -64.51 V 732.699 H 979.477 V 533.09 h -64.508 v 427.461 h 64.508 V 793.34"
         style="fill:#ffffff;fill-opacity:1;fill-rule:nonzero;stroke:none"
         id="path22" />
      <path
         d="m 1466.46,1060.22 c 0,-7.94 2.64,-14.53 7.89,-19.79 5.27,-5.26 11.77,-7.89 19.53,-7.89 7.74,0 14.25,2.63 19.51,7.89 5.26,5.26 7.89,11.76 7.89,19.52 0,7.75 -2.63,14.26 -7.89,19.52 -5.26,5.25 -11.77,7.89 -19.51,7.89 -3.88,0 -7.48,-0.74 -10.81,-2.22 -3.32,-1.48 -6.22,-3.46 -8.72,-5.95 -2.49,-2.49 -4.42,-5.4 -5.81,-8.72 -1.38,-3.32 -2.08,-6.74 -2.08,-10.25 z m -32.94,0.56 c 0,16.24 5.9,30.17 17.72,41.81 11.81,11.8 25.93,17.71 42.36,17.71 16.79,0 31.01,-5.91 42.63,-17.71 11.81,-11.82 17.72,-26.03 17.72,-42.64 0,-16.61 -5.91,-30.83 -17.72,-42.64 -11.62,-11.81 -25.74,-17.708 -42.35,-17.708 -16.81,0 -31.11,5.898 -42.92,17.708 -11.63,11.81 -17.44,26.3 -17.44,43.47 z m 122.09,-363.229 -63.39,145.347 -66.45,-145.347 z m 26.3,-60.641 h -183 l -47.62,-103.82 h -69.48 l 211.51,454.32 204.04,-454.32 h -70.59 l -44.86,103.82"
         style="fill:#ffffff;fill-opacity:1;fill-rule:nonzero;stroke:none"
         id="path24" />
      <path
         d="m 1815.3,764.27 h 20.49 c 61.09,0 91.64,23.339 91.64,70.039 0,43.742 -29.72,65.621 -89.15,65.621 h -22.98 z m 80.29,-49.008 132.34,-182.172 h -78.91 L 1826.93,708.059 H 1815.3 V 533.09 h -64.51 v 427.461 h 75.59 c 56.48,0 97.26,-10.61 122.37,-31.832 27.68,-23.617 41.53,-54.821 41.53,-93.578 0,-30.27 -8.68,-56.289 -26.03,-78.071 -17.35,-21.781 -40.24,-35.711 -68.66,-41.808"
         style="fill:#ffffff;fill-opacity:1;fill-rule:nonzero;stroke:none"
         id="path26" />
      <path
         d="m 2156.66,593.73 h 29.08 c 28.97,0 53.06,3.04 72.26,9.129 19.19,6.45 36.54,16.7 52.04,30.731 31.75,28.98 47.62,66.719 47.62,113.23 0,46.891 -15.69,84.91 -47.06,114.071 -28.24,26.019 -69.86,39.039 -124.86,39.039 h -29.08 z m -64.5,-60.64 v 427.461 h 89.7 c 43,0 76.97,-4.242 101.88,-12.731 26.76,-8.3 51.03,-22.422 72.82,-42.351 44.11,-40.25 66.16,-93.129 66.16,-158.649 0,-65.711 -22.98,-118.859 -68.93,-159.468 -23.08,-20.301 -47.25,-34.422 -72.54,-42.352 -23.63,-7.941 -57.13,-11.91 -100.5,-11.91 h -88.59"
         style="fill:#ffffff;fill-opacity:1;fill-rule:nonzero;stroke:none"
         id="path28" />
      <path
         d="m 2743.32,766.48 h 24.09 c 59.25,0 88.87,22.79 88.87,68.379 0,44.11 -30.55,66.172 -91.64,66.172 h -21.32 z m 0,-59.8 V 533.09 h -64.5 v 427.461 h 73.08 c 35.81,0 62.85,-2.492 81.13,-7.473 18.44,-4.976 34.69,-14.387 48.72,-28.238 24.55,-23.988 36.82,-54.262 36.82,-90.809 0,-39.133 -13.1,-70.14 -39.31,-93.019 -26.21,-22.891 -61.56,-34.332 -106.04,-34.332 h -29.9"
         style="fill:#ffffff;fill-opacity:1;fill-rule:nonzero;stroke:none"
         id="path30" />
      <path
         d="M 3049.53,960.551 V 593.73 h 125.68 v -60.64 h -190.19 v 427.461 h 64.51"
         style="fill:#ffffff;fill-opacity:1;fill-rule:nonzero;stroke:none"
         id="path32" />
      <path
         d="m 3485.02,697.551 -63.4,145.347 -66.45,-145.347 z m 26.3,-60.641 h -183 L 3280.7,533.09 h -69.49 l 211.51,454.32 204.05,-454.32 h -70.6 l -44.85,103.82"
         style="fill:#ffffff;fill-opacity:1;fill-rule:nonzero;stroke:none"
         id="path34" />
      <path
         d="m 3921.89,896.879 -52.32,-31 c -9.79,16.973 -19.1,28.043 -27.96,33.223 -9.24,5.898 -21.14,8.859 -35.71,8.859 -17.91,0 -32.77,-5.082 -44.58,-15.231 -11.81,-9.968 -17.72,-22.519 -17.72,-37.648 0,-20.863 15.5,-37.66 46.52,-50.391 l 42.63,-17.453 c 34.7,-14.019 60.08,-31.136 76.14,-51.347 16.05,-20.211 24.08,-44.993 24.08,-74.34 0,-39.313 -13.11,-71.801 -39.31,-97.449 -26.4,-25.84 -59.16,-38.762 -98.29,-38.762 -37.1,0 -67.73,10.98 -91.91,32.949 -23.81,21.961 -38.68,52.883 -44.57,92.742 l 65.33,14.399 c 2.95,-25.102 8.12,-42.45 15.51,-52.051 13.29,-18.457 32.66,-27.688 58.14,-27.688 20.11,0 36.82,6.739 50.11,20.219 13.29,13.461 19.93,30.539 19.93,51.219 0,8.301 -1.15,15.91 -3.46,22.84 -2.31,6.91 -5.91,13.281 -10.8,19.101 -4.89,5.809 -11.21,11.25 -18.96,16.328 -7.76,5.082 -16.99,9.922 -27.69,14.543 l -41.25,17.161 c -58.51,24.726 -87.76,60.91 -87.76,108.527 0,32.109 12.27,58.973 36.82,80.562 24.54,21.778 55.09,32.668 91.64,32.668 49.28,0 87.76,-23.988 115.44,-71.98"
         style="fill:#ffffff;fill-opacity:1;fill-rule:nonzero;stroke:none"
         id="path36" />
      <path
         d="M 4136.74,899.93 V 533.09 h -64.51 v 366.84 h -98.29 v 60.621 h 260.8 V 899.93 h -98"
         style="fill:#ffffff;fill-opacity:1;fill-rule:nonzero;stroke:none"
         id="path38" />
      <path
         d="M 3477.95,3583.91 3439,3362.96 c -4.87,-27.64 -31.81,-50.25 -59.88,-50.25 h -294.38 c -28.05,0 -48.41,22.81 -45.23,50.7 l 25.09,220.05 c 3.18,27.89 28.74,50.7 56.81,50.7 h 314.37 c 28.07,0 47.04,-22.61 42.17,-50.25 z m -81.84,-464.31 -38.94,-220.96 c -4.88,-27.63 -31.82,-50.24 -59.89,-50.24 h -265.47 c -28.07,0 -48.43,22.81 -45.25,50.69 l 25.1,220.06 c 3.17,27.88 28.74,50.7 56.8,50.7 h 285.48 c 28.06,0 47.04,-22.62 42.17,-50.25 z m -81.65,-464.35 -39.11,-220.97 c -4.89,-27.62 -31.86,-50.24 -59.91,-50.24 h -236.58 c -28.07,0 -48.43,22.81 -45.25,50.7 l 25.1,220.06 c 3.17,27.88 28.74,50.69 56.8,50.69 h 256.81 c 28.07,0 47.02,-22.61 42.14,-50.24 z m -563.81,927.92 -7.67,-219.47 c -0.99,-28.04 -24.75,-50.99 -52.82,-50.99 H 2414.7 c -28.07,0 -51.83,22.95 -52.81,50.99 l -7.69,219.47 c -0.98,28.04 21.18,50.99 49.25,50.99 h 297.96 c 28.07,0 50.23,-22.95 49.24,-50.99 z m -16.25,-464.32 -7.67,-219.46 c -0.99,-28.05 -24.75,-50.99 -52.82,-50.99 h -242.96 c -28.07,0 -51.83,22.94 -52.81,50.99 l -7.68,219.46 c -0.98,28.05 21.17,51 49.24,51 h 265.46 c 28.07,0 50.23,-22.95 49.24,-51 z m -16.25,-464.35 -7.68,-219.46 c -0.98,-28.05 -24.74,-51 -52.81,-51 H 2447.2 c -28.07,0 -51.83,22.95 -52.81,51 l -7.68,219.46 c -0.98,28.05 21.17,50.99 49.24,50.99 h 232.96 c 28.07,0 50.23,-22.94 49.24,-50.99 z m -592.14,-270.46 h -236.58 c -28.07,0 -55.03,22.62 -59.92,50.24 l -39.11,220.97 c -4.89,27.63 14.07,50.24 42.13,50.24 h 256.82 c 28.07,0 53.63,-22.81 56.81,-50.69 l 25.09,-220.06 c 3.18,-27.89 -17.18,-50.7 -45.24,-50.7 z m -378.31,514.6 -38.95,220.96 c -4.86,27.63 14.11,50.25 42.17,50.25 h 285.49 c 28.06,0 53.62,-22.82 56.8,-50.7 l 25.09,-220.06 c 3.18,-27.88 -17.18,-50.69 -45.24,-50.69 h -265.48 c -28.06,0 -55.01,22.61 -59.88,50.24 z m -81.84,464.32 -38.95,220.95 c -4.87,27.64 14.11,50.25 42.17,50.25 h 314.38 c 28.06,0 53.62,-22.81 56.8,-50.7 l 25.1,-220.05 c 3.17,-27.89 -17.18,-50.7 -45.25,-50.7 h -294.37 c -28.06,0 -55.01,22.61 -59.88,50.25 z m 2129.45,585.05 H 1309.55 l -32.71,-153.08 h 65.44 l 360.05,-1683.78 h 1700.24 l 360.02,1683.78 h 65.43 l -32.71,153.08"
         style="fill:#ffffff;fill-opacity:1;fill-rule:nonzero;stroke:none"
         id="path40" />
    </g>
  </g>
</svg>
