<?xml version="1.0" encoding="UTF-8" standalone="no"?>
<!-- Created with Inkscape (http://www.inkscape.org/) -->

<svg
   version="1.1"
   id="svg2"
   width="680.32001"
   height="680.32001"
   viewBox="0 0 680.32001 680.32001"
   sodipodi:docname="TAGPAP_rgb.eps"
   xmlns:inkscape="http://www.inkscape.org/namespaces/inkscape"
   xmlns:sodipodi="http://sodipodi.sourceforge.net/DTD/sodipodi-0.dtd"
   xmlns="http://www.w3.org/2000/svg"
   xmlns:svg="http://www.w3.org/2000/svg">
  <defs
     id="defs6" />
  <sodipodi:namedview
     id="namedview4"
     pagecolor="#ffffff"
     bordercolor="#000000"
     borderopacity="0.25"
     inkscape:showpageshadow="2"
     inkscape:pageopacity="0.0"
     inkscape:pagecheckerboard="0"
     inkscape:deskcolor="#d1d1d1" />
  <g
     id="g8"
     inkscape:groupmode="layer"
     inkscape:label="ink_ext_XXXXXX"
     transform="matrix(1.3333333,0,0,-1.3333333,0,680.32)">
    <g
       id="g10"
       transform="scale(0.1)">
      <path
         d="M 5102.36,0 H 0 V 5102.36 H 5102.36 V 0"
         style="fill:#21508b;fill-opacity:1;fill-rule:nonzero;stroke:none"
         id="path12" />
      <path
         d="M 1653.32,899.871 V 531.102 h -64.85 v 368.769 h -98.8 v 60.949 h 262.18 v -60.949 h -98.53"
         style="fill:#ffffff;fill-opacity:1;fill-rule:nonzero;stroke:none"
         id="path14" />
      <path
         d="m 2006.95,696.422 -63.74,146.117 -66.79,-146.117 z m 26.44,-60.953 h -183.97 l -47.87,-104.367 h -69.86 l 212.63,456.718 205.12,-456.718 h -70.97 l -45.08,104.367"
         style="fill:#ffffff;fill-opacity:1;fill-rule:nonzero;stroke:none"
         id="path16" />
      <path
         d="m 2410.07,754.871 h 177.56 v -14.199 c 0,-32.281 -3.8,-60.863 -11.41,-85.723 -7.42,-23.008 -19.95,-44.527 -37.57,-64.57 -39.9,-44.899 -90.64,-67.348 -152.24,-67.348 -60.12,0 -111.61,21.707 -154.47,65.129 -42.86,43.59 -64.29,95.918 -64.29,156.969 0,62.34 21.8,115.223 65.41,158.641 43.6,43.601 96.66,65.402 159.19,65.402 33.59,0 64.94,-6.832 94.08,-20.5 27.83,-13.672 55.19,-35.871 82.1,-66.613 l -46.2,-44.25 c -35.26,46.941 -78.21,70.41 -128.86,70.41 -45.46,0 -83.59,-15.68 -114.39,-47.028 -30.8,-30.812 -46.2,-69.402 -46.2,-115.793 0,-47.867 17.16,-87.296 51.49,-118.277 32.1,-28.762 66.89,-43.141 104.37,-43.141 31.91,0 60.57,10.731 86,32.2 25.41,21.648 39.61,47.558 42.58,77.742 h -107.15 v 60.949"
         style="fill:#ffffff;fill-opacity:1;fill-rule:nonzero;stroke:none"
         id="path18" />
      <path
         d="m 2735.83,765.719 h 24.21 c 59.56,0 89.34,22.922 89.34,68.75 0,44.34 -30.71,66.511 -92.12,66.511 h -21.43 z m 0,-60.117 v -174.5 h -64.85 V 960.82 h 73.48 c 35.99,0 63.17,-2.5 81.54,-7.511 18.55,-5.008 34.88,-14.469 48.99,-28.387 24.67,-24.121 37.02,-54.551 37.02,-91.293 0,-39.34 -13.18,-70.508 -39.53,-93.508 -26.35,-23.012 -61.88,-34.519 -106.59,-34.519 h -30.06"
         style="fill:#ffffff;fill-opacity:1;fill-rule:nonzero;stroke:none"
         id="path20" />
      <path
         d="m 3155.33,696.422 -63.73,146.117 -66.8,-146.117 z m 26.44,-60.953 h -183.96 l -47.88,-104.367 h -69.85 l 212.63,456.718 205.12,-456.718 h -70.97 l -45.09,104.367"
         style="fill:#ffffff;fill-opacity:1;fill-rule:nonzero;stroke:none"
         id="path22" />
      <path
         d="m 3436.21,765.719 h 24.21 c 59.56,0 89.34,22.922 89.34,68.75 0,44.34 -30.71,66.511 -92.12,66.511 h -21.43 z m 0,-60.117 v -174.5 h -64.85 V 960.82 h 73.48 c 35.99,0 63.17,-2.5 81.54,-7.511 18.56,-5.008 34.89,-14.469 48.99,-28.387 24.67,-24.121 37.01,-54.551 37.01,-91.293 0,-39.34 -13.17,-70.508 -39.52,-93.508 -26.35,-23.012 -61.88,-34.519 -106.59,-34.519 h -30.06"
         style="fill:#ffffff;fill-opacity:1;fill-rule:nonzero;stroke:none"
         id="path24" />
      <path
         d="m 2586.37,2145.67 -1.31,3.09 c -23.17,56.24 -35.58,120.56 -35.58,187.52 0,97.31 26.12,189.12 73.55,258.52 16.43,24.04 34.77,44.47 54.56,61.07 H 896.699 c -106.984,-16.75 -190.426,-153.81 -190.426,-320.46 0,-173.38 90.301,-314.75 203.469,-321.93 v -0.31 h 0.168 1783.1 c -45.14,29.99 -82.22,75.56 -106.64,132.5"
         style="fill:#ffffff;fill-opacity:1;fill-rule:nonzero;stroke:none"
         id="path26" />
      <path
         d="m 2400.5,3396.27 -741.02,-686.64 1162.3,-0.14 c 67.91,-3.52 130.78,-42.94 177.94,-111.95 28.9,-42.3 49.87,-91.12 61.86,-146.22 7.21,-46.87 0.07,-93.94 -18.68,-134.53 -22.65,-49.02 -62.73,-92.42 -126.12,-136.58 -15.28,-10.64 -40.58,-20.51 -69.58,-20.51 -10.09,0 -20.63,1.19 -31.35,3.96 -26.22,6.77 -62.85,25.8 -88.49,78 -39.1,79.57 -26.97,178.3 7.33,227.78 18.46,26.63 42.56,54.08 81.34,55.78 l 1.12,0.03 6.92,-0.03 c 39.61,-1.73 70.29,-23.35 84.18,-59.32 11.54,-29.89 13.79,-58.63 7.09,-84.72 -3.08,-12.01 -9.27,-20.64 -9.27,-20.64 -31,-43.76 -69.24,-24.13 -55.47,3.95 0,0 2.29,3.63 4.33,6.33 15.9,21.02 17.36,46.55 5.72,76.7 -6.47,16.74 -19.35,25.73 -38.3,26.71 h -4.57 c -9.63,-0.56 -21.35,-5.29 -41.16,-33.86 -22.09,-31.87 -35.59,-110.84 -3.47,-176.22 13.73,-27.94 32.39,-45.13 55.46,-51.09 26.58,-6.87 50.22,2.9 59.01,9.02 55.65,38.76 90.27,75.65 108.96,116.11 22.76,49.27 21.28,105.83 -5.43,169.11 l 0.04,-1.66 c -9.27,22.75 -20.5,43.95 -33.59,63.11 -38.19,55.88 -87.6,87.57 -139.71,89.86 h -12.12 c -52.11,-2.29 -101.52,-33.98 -139.7,-89.86 -41.7,-61.01 -64.66,-142.6 -64.66,-229.73 0,-60.28 11.02,-117.88 31.6,-167.88 l 0.02,0.01 c 31.35,-75.03 85.2,-124.67 151.64,-139.79 28.34,-6.45 57.69,-5.94 86.48,1.03 0.57,0.25 35.64,2.47 77.59,35.84 L 4398.67,3396.27 H 2400.5"
         style="fill:#ffffff;fill-opacity:1;fill-rule:nonzero;stroke:none"
         id="path28" />
    </g>
  </g>
</svg>
