<?xml version="1.0" encoding="UTF-8" standalone="no"?>
<!-- Created with Inkscape (http://www.inkscape.org/) -->

<svg
   version="1.1"
   id="svg2"
   width="680.32001"
   height="680.32001"
   viewBox="0 0 680.32001 680.32001"
   sodipodi:docname="TEKSTILAFFALD rgb.eps"
   xmlns:inkscape="http://www.inkscape.org/namespaces/inkscape"
   xmlns:sodipodi="http://sodipodi.sourceforge.net/DTD/sodipodi-0.dtd"
   xmlns="http://www.w3.org/2000/svg"
   xmlns:svg="http://www.w3.org/2000/svg">
  <defs
     id="defs6" />
  <sodipodi:namedview
     id="namedview4"
     pagecolor="#ffffff"
     bordercolor="#000000"
     borderopacity="0.25"
     inkscape:showpageshadow="2"
     inkscape:pageopacity="0.0"
     inkscape:pagecheckerboard="0"
     inkscape:deskcolor="#d1d1d1" />
  <g
     id="g8"
     inkscape:groupmode="layer"
     inkscape:label="ink_ext_XXXXXX"
     transform="matrix(1.3333333,0,0,-1.3333333,0,680.32)">
    <g
       id="g10"
       transform="scale(0.1)">
      <path
         d="M 5102.36,0 H 0 V 5102.36 H 5102.36 V 0"
         style="fill:#9a1844;fill-opacity:1;fill-rule:nonzero;stroke:none"
         id="path12" />
      <path
         d="M 725.188,901.129 V 534.289 H 660.68 v 366.84 h -98.285 v 60.633 h 260.796 v -60.633 h -98.003"
         style="fill:#ffffff;fill-opacity:1;fill-rule:nonzero;stroke:none"
         id="path14" />
      <path
         d="M 1131.06,901.129 H 959.688 V 798.41 H 1126.08 V 737.781 H 959.688 V 594.93 H 1131.06 V 534.289 H 895.18 v 427.473 h 235.88 v -60.633"
         style="fill:#ffffff;fill-opacity:1;fill-rule:nonzero;stroke:none"
         id="path16" />
      <path
         d="m 1269.48,791.219 166.39,170.543 h 86.11 L 1328.73,768.238 1523.08,534.289 h -86.38 l -153.93,190.199 -13.29,-13.289 v -176.91 h -64.5 v 427.473 h 64.5 V 791.219"
         style="fill:#ffffff;fill-opacity:1;fill-rule:nonzero;stroke:none"
         id="path18" />
      <path
         d="m 1806.58,898.359 -52.32,-31.007 c -9.79,16.976 -19.1,28.046 -27.96,33.218 -9.24,5.91 -21.14,8.86 -35.72,8.86 -17.9,0 -32.76,-5.078 -44.57,-15.239 -11.82,-9.972 -17.72,-22.531 -17.72,-37.679 0,-20.871 15.5,-37.672 46.51,-50.422 l 42.64,-17.449 c 34.69,-14.039 60.07,-31.172 76.13,-51.403 16.06,-20.226 24.09,-45.019 24.09,-74.386 0,-39.34 -13.11,-71.852 -39.32,-97.524 -26.39,-25.859 -59.15,-38.789 -98.28,-38.789 -37.1,0 -67.74,11.031 -91.92,33.102 -23.8,22.039 -38.66,53 -44.57,92.871 l 65.34,14.398 c 2.95,-25.109 8.12,-42.461 15.5,-52.051 13.29,-18.461 32.67,-27.687 58.14,-27.687 20.12,0 36.82,6.726 50.11,20.199 13.29,13.457 19.94,30.52 19.94,51.18 0,8.301 -1.16,15.91 -3.46,22.82 -2.31,6.918 -5.91,13.277 -10.8,19.09 -4.89,5.809 -11.21,11.25 -18.97,16.32 -7.75,5.071 -16.98,9.918 -27.68,14.528 l -41.25,17.152 c -58.51,24.719 -87.77,60.867 -87.77,108.449 0,32.09 12.28,58.93 36.83,80.512 24.54,21.758 55.09,32.637 91.64,32.637 49.28,0 87.76,-23.899 115.44,-71.7"
         style="fill:#ffffff;fill-opacity:1;fill-rule:nonzero;stroke:none"
         id="path20" />
      <path
         d="m 2025.02,901.129 v -366.84 h -64.5 v 366.84 h -98.29 v 60.633 h 260.8 v -60.633 h -98.01"
         style="fill:#ffffff;fill-opacity:1;fill-rule:nonzero;stroke:none"
         id="path22" />
      <path
         d="M 2266.73,961.762 V 534.289 h -64.51 v 427.473 h 64.51"
         style="fill:#ffffff;fill-opacity:1;fill-rule:nonzero;stroke:none"
         id="path24" />
      <path
         d="M 2408.75,961.762 V 594.93 h 125.69 v -60.641 h -190.2 v 427.473 h 64.51"
         style="fill:#ffffff;fill-opacity:1;fill-rule:nonzero;stroke:none"
         id="path26" />
      <path
         d="m 2856.98,698.75 -63.4,145.34 -66.45,-145.34 z m 26.3,-60.629 h -183 l -47.62,-103.832 h -69.49 l 211.51,454.32 204.05,-454.32 h -70.6 l -44.85,103.832"
         style="fill:#ffffff;fill-opacity:1;fill-rule:nonzero;stroke:none"
         id="path28" />
      <path
         d="M 3265.61,901.129 H 3116.67 V 798.41 h 143.68 V 737.781 H 3116.67 V 534.289 h -64.51 v 427.473 h 213.45 v -60.633"
         style="fill:#ffffff;fill-opacity:1;fill-rule:nonzero;stroke:none"
         id="path30" />
      <path
         d="M 3553.82,901.129 H 3404.87 V 798.41 h 143.69 V 737.781 H 3404.87 V 534.289 h -64.5 v 427.473 h 213.45 v -60.633"
         style="fill:#ffffff;fill-opacity:1;fill-rule:nonzero;stroke:none"
         id="path32" />
      <path
         d="m 3816.14,698.75 -63.4,145.34 -66.45,-145.34 z m 26.3,-60.629 h -183 l -47.62,-103.832 h -69.49 l 211.52,454.32 204.04,-454.32 h -70.6 l -44.85,103.832"
         style="fill:#ffffff;fill-opacity:1;fill-rule:nonzero;stroke:none"
         id="path34" />
      <path
         d="M 4084.83,961.762 V 594.93 h 125.69 v -60.641 h -190.2 v 427.473 h 64.51"
         style="fill:#ffffff;fill-opacity:1;fill-rule:nonzero;stroke:none"
         id="path36" />
      <path
         d="m 4345.21,594.93 h 29.07 c 28.98,0 53.07,3.039 72.26,9.129 19.2,6.461 36.55,16.703 52.05,30.73 31.75,28.981 47.62,66.723 47.62,113.242 0,46.879 -15.69,84.899 -47.06,114.059 -28.24,26.031 -69.87,39.039 -124.87,39.039 h -29.07 z m -64.5,-60.641 v 427.473 h 89.7 c 43,0 76.96,-4.25 101.88,-12.742 26.76,-8.301 51.03,-22.418 72.81,-42.36 44.11,-40.238 66.17,-93.109 66.17,-158.629 0,-65.711 -22.98,-118.871 -68.93,-159.472 -23.08,-20.309 -47.26,-34.43 -72.54,-42.36 -23.63,-7.937 -57.13,-11.91 -100.5,-11.91 h -88.59"
         style="fill:#ffffff;fill-opacity:1;fill-rule:nonzero;stroke:none"
         id="path38" />
      <path
         d="m 2895.74,4080.33 c -61.83,-128.2 -193.03,-216.66 -344.89,-216.66 -151.86,0 -283.06,88.46 -344.88,216.66 H 1275.26 V 3422.12 H 1785.5 V 1784.26 h 960.98 l 107.91,136.5 -101.96,117.28 54.84,129.45 -51.33,63.56 51.33,129.35 -60.32,189.31 187.91,-258.37 -47.17,-98.88 112.4,-132.81 -52.22,-78.33 135.01,-197.06 h 233.33 v 1637.86 h 510.23 v 658.21 h -930.7"
         style="fill:#ffffff;fill-opacity:1;fill-rule:nonzero;stroke:none"
         id="path40" />
    </g>
  </g>
</svg>
