<?xml version="1.0" encoding="UTF-8" standalone="no"?>
<!-- Created with Inkscape (http://www.inkscape.org/) -->

<svg
   version="1.1"
   id="svg2"
   width="680.32001"
   height="680.32001"
   viewBox="0 0 680.32001 680.32001"
   sodipodi:docname="TIL_NEDGRAVNING_rgb_sort.eps"
   xmlns:inkscape="http://www.inkscape.org/namespaces/inkscape"
   xmlns:sodipodi="http://sodipodi.sourceforge.net/DTD/sodipodi-0.dtd"
   xmlns="http://www.w3.org/2000/svg"
   xmlns:svg="http://www.w3.org/2000/svg">
  <defs
     id="defs6" />
  <sodipodi:namedview
     id="namedview4"
     pagecolor="#ffffff"
     bordercolor="#000000"
     borderopacity="0.25"
     inkscape:showpageshadow="2"
     inkscape:pageopacity="0.0"
     inkscape:pagecheckerboard="0"
     inkscape:deskcolor="#d1d1d1" />
  <g
     id="g8"
     inkscape:groupmode="layer"
     inkscape:label="ink_ext_XXXXXX"
     transform="matrix(1.3333333,0,0,-1.3333333,0,680.32)">
    <g
       id="g10"
       transform="scale(0.1)">
      <path
         d="M 5102.38,-0.0117188 H 0.0234375 V 5102.36 H 5102.38 V -0.0117188"
         style="fill:#111111;fill-opacity:1;fill-rule:nonzero;stroke:none"
         id="path12" />
      <path
         d="m 1236.55,757.129 h 177.57 V 742.93 c 0,-32.282 -3.81,-60.86 -11.41,-85.719 -7.43,-23.012 -19.96,-44.531 -37.58,-64.57 -39.9,-44.903 -90.64,-67.352 -152.24,-67.352 -60.12,0 -111.61,21.711 -154.47,65.121 -42.86,43.61 -64.287,95.93 -64.287,156.981 0,62.339 21.797,115.218 65.407,158.64 43.59,43.598 96.66,65.41 159.2,65.41 33.57,0 64.93,-6.839 94.07,-20.5 27.83,-13.671 55.19,-35.882 82.1,-66.621 l -46.2,-44.25 c -35.26,46.95 -78.21,70.418 -128.86,70.418 -45.47,0 -83.6,-15.679 -114.39,-47.039 -30.81,-30.801 -46.2,-69.39 -46.2,-115.777 0,-47.871 17.16,-87.301 51.49,-118.293 32.09,-28.758 66.88,-43.141 104.37,-43.141 31.91,0 60.57,10.742 86,32.203 25.41,21.661 39.61,47.571 42.58,77.739 h -107.15 v 60.949"
         style="fill:#ffffff;fill-opacity:1;fill-rule:nonzero;stroke:none"
         id="path14" />
      <path
         d="m 1555.11,765.762 h 20.59 c 61.41,0 92.13,23.468 92.13,70.418 0,43.968 -29.88,65.949 -89.62,65.949 h -23.1 z m 80.71,-49.262 133.04,-183.141 h -79.32 L 1566.8,709.262 h -11.69 V 533.359 h -64.85 V 963.09 h 75.98 c 56.78,0 97.78,-10.668 123.02,-32.008 27.83,-23.75 41.75,-55.113 41.75,-94.07 0,-30.434 -8.73,-56.602 -26.17,-78.492 -17.44,-21.891 -40.45,-35.899 -69.02,-42.02"
         style="fill:#ffffff;fill-opacity:1;fill-rule:nonzero;stroke:none"
         id="path16" />
      <path
         d="m 2090.04,698.691 -63.73,146.11 -66.8,-146.11 z m 26.44,-60.961 h -183.97 l -47.87,-104.371 h -69.85 l 212.63,456.723 205.12,-456.723 h -70.97 l -45.09,104.371"
         style="fill:#ffffff;fill-opacity:1;fill-rule:nonzero;stroke:none"
         id="path18" />
      <path
         d="m 2238.27,963.09 118.84,-297.801 120.52,297.801 h 70.97 L 2355.72,501.082 2167.3,963.09 h 70.97"
         style="fill:#ffffff;fill-opacity:1;fill-rule:nonzero;stroke:none"
         id="path20" />
      <path
         d="M 2603.84,533.359 V 992.32 L 2917.23,664.449 V 963.09 h 64.84 V 507.199 l -313.39,327.02 v -300.86 h -64.84"
         style="fill:#ffffff;fill-opacity:1;fill-rule:nonzero;stroke:none"
         id="path22" />
      <path
         d="M 3124.69,963.09 V 533.359 h -64.86 V 963.09 h 64.86"
         style="fill:#ffffff;fill-opacity:1;fill-rule:nonzero;stroke:none"
         id="path24" />
      <path
         d="M 3202.72,533.359 V 992.32 L 3516.11,664.449 V 963.09 h 64.86 V 507.199 l -313.39,327.02 v -300.86 h -64.86"
         style="fill:#ffffff;fill-opacity:1;fill-rule:nonzero;stroke:none"
         id="path26" />
      <path
         d="m 3894.97,757.129 h 177.57 V 742.93 c 0,-32.282 -3.81,-60.86 -11.42,-85.719 -7.42,-23.012 -19.94,-44.531 -37.57,-64.57 -39.89,-44.903 -90.64,-67.352 -152.24,-67.352 -60.12,0 -111.6,21.711 -154.46,65.121 -42.87,43.61 -64.3,95.93 -64.3,156.981 0,62.339 21.81,115.218 65.41,158.64 43.6,43.598 96.67,65.41 159.2,65.41 33.58,0 64.94,-6.839 94.07,-20.5 27.83,-13.671 55.2,-35.882 82.1,-66.621 l -46.19,-44.25 c -35.26,46.95 -78.21,70.418 -128.87,70.418 -45.46,0 -83.59,-15.679 -114.39,-47.039 -30.8,-30.801 -46.2,-69.39 -46.2,-115.777 0,-47.871 17.16,-87.301 51.49,-118.293 32.1,-28.758 66.88,-43.141 104.37,-43.141 31.91,0 60.58,10.742 86,32.203 25.42,21.661 39.61,47.571 42.59,77.739 h -107.16 v 60.949"
         style="fill:#ffffff;fill-opacity:1;fill-rule:nonzero;stroke:none"
         id="path28" />
      <path
         d="m 1712.08,1442 v -368.77 h -64.85 V 1442 h -98.81 v 60.95 H 1810.6 V 1442 h -98.52"
         style="fill:#ffffff;fill-opacity:1;fill-rule:nonzero;stroke:none"
         id="path30" />
      <path
         d="m 1953.15,1502.95 v -429.72 h -64.84 v 429.72 h 64.84"
         style="fill:#ffffff;fill-opacity:1;fill-rule:nonzero;stroke:none"
         id="path32" />
      <path
         d="m 2096.04,1502.95 v -368.78 h 126.36 v -60.94 h -191.2 v 429.72 h 64.84"
         style="fill:#ffffff;fill-opacity:1;fill-rule:nonzero;stroke:none"
         id="path34" />
      <path
         d="m 2459.81,1073.23 v 458.94 l 313.38,-327.86 v 298.64 h 64.86 v -455.89 l -313.39,327.03 v -300.86 h -64.85"
         style="fill:#ffffff;fill-opacity:1;fill-rule:nonzero;stroke:none"
         id="path36" />
      <path
         d="m 3152.94,1442 h -172.29 v -103.26 h 167.28 v -60.95 h -167.28 v -143.62 h 172.29 v -60.94 h -237.13 v 429.72 h 237.13 V 1442"
         style="fill:#ffffff;fill-opacity:1;fill-rule:nonzero;stroke:none"
         id="path38" />
      <path
         d="m 3292.15,1134.17 h 29.22 c 29.13,0 53.34,3.07 72.64,9.19 19.29,6.5 36.74,16.79 52.33,30.89 31.9,29.13 47.87,67.08 47.87,113.84 0,47.13 -15.78,85.35 -47.32,114.67 -28.38,26.16 -70.23,39.24 -125.52,39.24 h -29.22 z m -64.86,-60.94 v 429.72 h 90.18 c 43.23,0 77.37,-4.26 102.42,-12.8 26.91,-8.35 51.31,-22.55 73.21,-42.59 44.33,-40.45 66.51,-93.6 66.51,-159.47 0,-66.05 -23.1,-119.49 -69.3,-160.31 -23.2,-20.42 -47.5,-34.61 -72.92,-42.59 -23.76,-7.98 -57.43,-11.96 -101.03,-11.96 h -89.07"
         style="fill:#ffffff;fill-opacity:1;fill-rule:nonzero;stroke:none"
         id="path40" />
      <path
         d="m 3634.02,1338.66 h 124.13 v -60.72 h -124.13 v 60.72"
         style="fill:#ffffff;fill-opacity:1;fill-rule:nonzero;stroke:none"
         id="path42" />
      <path
         d="M 2681.49,3314.41 V 4592.17 H 2426.38 V 3314.41 H 2043.7 l 508.83,-714.33 511.64,714.33 h -382.68"
         style="fill:#ffffff;fill-opacity:1;fill-rule:nonzero;stroke:none"
         id="path44" />
      <path
         d="m 4007.08,3571.85 c -7.06,-16.62 -217.48,-508.35 -242.5,-553.87 -49.68,-90.39 -114.87,-123.66 -183.9,-158.89 -45.32,-23.13 -92.18,-47.05 -136.08,-87.49 -50.66,-46.63 -69.31,-71.24 -199.98,-249.83 -63.25,-86.43 -88.72,-129.66 -120.97,-184.37 -19.76,-33.56 -42.17,-71.58 -77.75,-127.11 -60.27,-94.05 -119.56,-159.91 -175.13,-219.27 -87.09,-84.58 -176.39,-134.63 -265.44,-148.75 -69.87,-11.07 -140.03,-0.93 -214.48,31.02 -131.2,56.29 -241.83,175.56 -315.04,254.48 -17.49,18.86 -35.43,37.93 -52.77,56.37 -136.75,145.4 -278.15,295.74 -353.69,502.03 -25.3,69.1 -41.73,115.05 -53.73,148.6 -29.07,81.3 -29.6,82.56 -56.67,133.97 l -0.08,0.16 c -26.17,49.71 -92.26,99.82 -156.17,148.26 -35.91,27.22 -69.82,52.93 -93.19,75.96 -53.97,53.21 -131.23,191.76 -199.72,327.7 -8.62,17.11 -17.1,34.18 -25.38,51.03 H 0.0546875 L 0,3520.82 h 1052.62 c 74.22,-148.94 159.63,-303.46 221.07,-364.03 25.73,-25.36 60.92,-52.04 98.18,-80.29 56.7,-42.98 120.96,-91.7 141.85,-131.37 l 0.08,-0.16 c 25.65,-48.71 25.65,-48.71 53.78,-127.38 12.02,-33.63 28.49,-79.68 53.86,-148.97 79.13,-216.09 224.17,-370.31 364.43,-519.45 17.28,-18.36 35.16,-37.37 52.53,-56.1 76.14,-82.08 191.19,-206.11 332.33,-266.67 61.59,-26.42 120.89,-39.51 179.7,-39.51 21,0 41.93,1.67 62.89,4.99 99.8,15.82 198.54,70.65 293.45,162.98 l 0.84,0.85 c 57.3,61.2 118.5,129.14 181.25,227.05 36.1,56.34 58.77,94.79 78.76,128.73 31.52,53.5 56.42,95.76 118.17,180.15 128.07,175.02 146.24,199.04 193.37,242.43 38.76,35.7 80.52,57.01 124.72,79.57 72.85,37.18 148.18,75.64 205.41,179.76 26.85,48.85 141.42,315.35 231.57,527.42 h 1061.5 l 0.06,51.03 H 4007.08"
         style="fill:#ffffff;fill-opacity:1;fill-rule:nonzero;stroke:none"
         id="path46" />
    </g>
  </g>
</svg>
