<?xml version="1.0" encoding="UTF-8" standalone="no"?>
<!-- Created with Inkscape (http://www.inkscape.org/) -->

<svg
   version="1.1"
   id="svg2"
   width="680.32001"
   height="680.32001"
   viewBox="0 0 680.32001 680.32001"
   sodipodi:docname="TIL_NEDGRAVNING_rgb_sort.icon.svg"
   inkscape:version="1.3.2 (091e20e, 2023-11-25, custom)"
   xmlns:inkscape="http://www.inkscape.org/namespaces/inkscape"
   xmlns:sodipodi="http://sodipodi.sourceforge.net/DTD/sodipodi-0.dtd"
   xmlns="http://www.w3.org/2000/svg"
   xmlns:svg="http://www.w3.org/2000/svg">
  <defs
     id="defs6" />
  <sodipodi:namedview
     id="namedview4"
     pagecolor="#ffffff"
     bordercolor="#000000"
     borderopacity="0.25"
     inkscape:showpageshadow="2"
     inkscape:pageopacity="0.0"
     inkscape:pagecheckerboard="0"
     inkscape:deskcolor="#d1d1d1"
     inkscape:zoom="1.6859713"
     inkscape:cx="340.16"
     inkscape:cy="340.16"
     inkscape:window-width="2560"
     inkscape:window-height="1361"
     inkscape:window-x="2551"
     inkscape:window-y="-9"
     inkscape:window-maximized="1"
     inkscape:current-layer="g8" />
  <g
     id="g8"
     inkscape:groupmode="layer"
     inkscape:label="ink_ext_XXXXXX"
     transform="matrix(1.3333333,0,0,-1.3333333,0,680.32)">
    <g
       id="g10"
       transform="scale(0.1)">
      <path
         d="M 5102.38,-0.0117188 H 0.0234375 V 5102.36 H 5102.38 V -0.0117188"
         style="fill:#111111;fill-opacity:1;fill-rule:nonzero;stroke:none"
         id="path12" />
      <path
         d="M 2681.49,3314.41 V 4592.17 H 2426.38 V 3314.41 H 2043.7 l 508.83,-714.33 511.64,714.33 h -382.68"
         style="fill:#ffffff;fill-opacity:1;fill-rule:nonzero;stroke:none"
         id="path44" />
      <path
         d="m 4007.08,3571.85 c -7.06,-16.62 -217.48,-508.35 -242.5,-553.87 -49.68,-90.39 -114.87,-123.66 -183.9,-158.89 -45.32,-23.13 -92.18,-47.05 -136.08,-87.49 -50.66,-46.63 -69.31,-71.24 -199.98,-249.83 -63.25,-86.43 -88.72,-129.66 -120.97,-184.37 -19.76,-33.56 -42.17,-71.58 -77.75,-127.11 -60.27,-94.05 -119.56,-159.91 -175.13,-219.27 -87.09,-84.58 -176.39,-134.63 -265.44,-148.75 -69.87,-11.07 -140.03,-0.93 -214.48,31.02 -131.2,56.29 -241.83,175.56 -315.04,254.48 -17.49,18.86 -35.43,37.93 -52.77,56.37 -136.75,145.4 -278.15,295.74 -353.69,502.03 -25.3,69.1 -41.73,115.05 -53.73,148.6 -29.07,81.3 -29.6,82.56 -56.67,133.97 l -0.08,0.16 c -26.17,49.71 -92.26,99.82 -156.17,148.26 -35.91,27.22 -69.82,52.93 -93.19,75.96 -53.97,53.21 -131.23,191.76 -199.72,327.7 -8.62,17.11 -17.1,34.18 -25.38,51.03 H 0.0546875 L 0,3520.82 h 1052.62 c 74.22,-148.94 159.63,-303.46 221.07,-364.03 25.73,-25.36 60.92,-52.04 98.18,-80.29 56.7,-42.98 120.96,-91.7 141.85,-131.37 l 0.08,-0.16 c 25.65,-48.71 25.65,-48.71 53.78,-127.38 12.02,-33.63 28.49,-79.68 53.86,-148.97 79.13,-216.09 224.17,-370.31 364.43,-519.45 17.28,-18.36 35.16,-37.37 52.53,-56.1 76.14,-82.08 191.19,-206.11 332.33,-266.67 61.59,-26.42 120.89,-39.51 179.7,-39.51 21,0 41.93,1.67 62.89,4.99 99.8,15.82 198.54,70.65 293.45,162.98 l 0.84,0.85 c 57.3,61.2 118.5,129.14 181.25,227.05 36.1,56.34 58.77,94.79 78.76,128.73 31.52,53.5 56.42,95.76 118.17,180.15 128.07,175.02 146.24,199.04 193.37,242.43 38.76,35.7 80.52,57.01 124.72,79.57 72.85,37.18 148.18,75.64 205.41,179.76 26.85,48.85 141.42,315.35 231.57,527.42 h 1061.5 l 0.06,51.03 H 4007.08"
         style="fill:#ffffff;fill-opacity:1;fill-rule:nonzero;stroke:none"
         id="path46" />
    </g>
  </g>
</svg>
