<?xml version="1.0" encoding="UTF-8" standalone="no"?>
<!-- Created with Inkscape (http://www.inkscape.org/) -->

<svg
   version="1.1"
   id="svg2"
   width="680.32001"
   height="680.32001"
   viewBox="0 0 680.32001 680.32001"
   sodipodi:docname="TRAESTAMMER_&amp;_ROEDDER_rgb.eps"
   xmlns:inkscape="http://www.inkscape.org/namespaces/inkscape"
   xmlns:sodipodi="http://sodipodi.sourceforge.net/DTD/sodipodi-0.dtd"
   xmlns="http://www.w3.org/2000/svg"
   xmlns:svg="http://www.w3.org/2000/svg">
  <defs
     id="defs6" />
  <sodipodi:namedview
     id="namedview4"
     pagecolor="#ffffff"
     bordercolor="#000000"
     borderopacity="0.25"
     inkscape:showpageshadow="2"
     inkscape:pageopacity="0.0"
     inkscape:pagecheckerboard="0"
     inkscape:deskcolor="#d1d1d1" />
  <g
     id="g8"
     inkscape:groupmode="layer"
     inkscape:label="ink_ext_XXXXXX"
     transform="matrix(1.3333333,0,0,-1.3333333,0,680.32)">
    <g
       id="g10"
       transform="scale(0.1)">
      <path
         d="M 5102.36,0 H 0 V 5102.36 H 5102.36 V 0"
         style="fill:#1e612f;fill-opacity:1;fill-rule:nonzero;stroke:none"
         id="path12" />
      <path
         d="M 730.738,1438.09 V 1071.26 H 666.23 v 366.83 h -98.285 v 60.63 h 260.801 v -60.63 h -98.008"
         style="fill:#ffffff;fill-opacity:1;fill-rule:nonzero;stroke:none"
         id="path14" />
      <path
         d="m 961.641,1302.43 h 20.488 c 61.091,0 91.641,23.35 91.641,70.05 0,43.74 -29.72,65.61 -89.145,65.61 h -22.984 z m 80.289,-49 132.34,-182.17 h -78.9 l -122.097,174.97 h -11.632 v -174.97 h -64.508 v 427.46 h 75.582 c 56.485,0 97.275,-10.62 122.375,-31.84 27.68,-23.63 41.53,-54.81 41.53,-93.57 0,-30.27 -8.68,-56.3 -26.03,-78.08 -17.35,-21.77 -40.24,-35.71 -68.66,-41.8"
         style="fill:#ffffff;fill-opacity:1;fill-rule:nonzero;stroke:none"
         id="path16" />
      <path
         d="m 1483.12,1234.05 -61.19,140.09 -65.89,-140.09 z m 25.74,-60.63 h -181.61 l -46.8,-102.16 h -70.59 l 205.42,427.46 h 189.1 l 26.85,-60.63 h -170.26 l 45.12,-103.54 h 165.57 l 27.12,-60.64 h -165.83 l 60.91,-142.03 h 170.82 l 26.02,-60.62 h -236.99 l -44.85,102.16"
         style="fill:#ffffff;fill-opacity:1;fill-rule:nonzero;stroke:none"
         id="path18" />
      <path
         d="m 2090.26,1435.32 -52.32,-31.01 c -9.79,16.98 -19.11,28.05 -27.97,33.23 -9.23,5.9 -21.14,8.86 -35.71,8.86 -17.91,0 -32.77,-5.08 -44.58,-15.25 -11.81,-9.97 -17.72,-22.53 -17.72,-37.67 0,-20.87 15.51,-37.68 46.52,-50.42 l 42.63,-17.46 c 34.7,-14.04 60.08,-31.17 76.14,-51.39 16.06,-20.24 24.08,-45.03 24.08,-74.4 0,-39.33 -13.1,-71.84 -39.31,-97.52 -26.39,-25.86 -59.16,-38.79 -98.28,-38.79 -37.1,0 -67.74,11.04 -91.92,33.1 -23.81,22.05 -38.67,53.01 -44.57,92.87 l 65.33,14.4 c 2.95,-25.1 8.12,-42.46 15.51,-52.05 13.29,-18.46 32.67,-27.68 58.14,-27.68 20.11,0 36.82,6.73 50.11,20.18 13.29,13.47 19.93,30.53 19.93,51.2 0,8.29 -1.15,15.89 -3.46,22.82 -2.31,6.91 -5.91,13.28 -10.8,19.09 -4.89,5.8 -11.21,11.25 -18.96,16.32 -7.75,5.07 -16.98,9.91 -27.69,14.52 l -41.25,17.16 c -58.51,24.71 -87.76,60.86 -87.76,108.45 0,32.09 12.27,58.92 36.82,80.5 24.55,21.76 55.1,32.65 91.64,32.65 49.28,0 87.76,-23.91 115.45,-71.71"
         style="fill:#ffffff;fill-opacity:1;fill-rule:nonzero;stroke:none"
         id="path20" />
      <path
         d="m 2314.1,1438.09 v -366.83 h -64.5 v 366.83 h -98.29 v 60.63 h 260.8 v -60.63 h -98.01"
         style="fill:#ffffff;fill-opacity:1;fill-rule:nonzero;stroke:none"
         id="path22" />
      <path
         d="m 2662.25,1235.71 -63.4,145.34 -66.45,-145.34 z m 26.3,-60.63 h -183.01 l -47.61,-103.82 h -69.5 l 211.52,454.31 204.04,-454.31 h -70.59 l -44.85,103.82"
         style="fill:#ffffff;fill-opacity:1;fill-rule:nonzero;stroke:none"
         id="path24" />
      <path
         d="m 2865.89,1071.26 89.98,459.58 146.74,-332.23 151.99,332.23 80.84,-459.58 h -66.17 l -41.25,258.03 -126.53,-277.69 -122.92,277.96 -45.95,-258.3 h -66.73"
         style="fill:#ffffff;fill-opacity:1;fill-rule:nonzero;stroke:none"
         id="path26" />
      <path
         d="m 3402.01,1071.26 89.98,459.58 146.74,-332.23 151.99,332.23 80.84,-459.58 h -66.17 l -41.25,258.03 -126.52,-277.69 -122.92,277.96 -45.96,-258.3 h -66.73"
         style="fill:#ffffff;fill-opacity:1;fill-rule:nonzero;stroke:none"
         id="path28" />
      <path
         d="M 4183.57,1438.09 H 4012.2 v -102.71 h 166.38 v -60.64 H 4012.2 v -142.86 h 171.37 v -60.62 h -235.88 v 427.46 h 235.88 v -60.63"
         style="fill:#ffffff;fill-opacity:1;fill-rule:nonzero;stroke:none"
         id="path30" />
      <path
         d="m 4320.19,1302.43 h 20.48 c 61.09,0 91.64,23.35 91.64,70.05 0,43.74 -29.72,65.61 -89.15,65.61 h -22.97 z m 80.28,-49 132.33,-182.17 h -78.89 l -122.1,174.97 h -11.62 v -174.97 h -64.52 v 427.46 h 75.59 c 56.47,0 97.27,-10.62 122.36,-31.84 27.69,-23.63 41.54,-54.81 41.54,-93.57 0,-30.27 -8.68,-56.3 -26.03,-78.08 -17.35,-21.77 -40.24,-35.71 -68.66,-41.8"
         style="fill:#ffffff;fill-opacity:1;fill-rule:nonzero;stroke:none"
         id="path32" />
      <path
         d="m 1278.09,818.289 5.26,3.883 c 9.04,6.816 16.52,12.769 22.43,17.848 5.9,5.082 10.14,9.359 12.73,12.871 5.54,6.828 8.31,15.23 8.31,25.187 0,11.262 -3.79,20.402 -11.36,27.422 -7.56,7.012 -17.72,10.512 -30.45,10.512 -11.63,0 -21.41,-3.59 -29.35,-10.793 -7.93,-6.828 -11.9,-15.598 -11.9,-26.309 0,-12.539 4.99,-24.91 14.95,-37.101 l 16.06,-19.368 c 0.55,-0.929 1.66,-2.312 3.32,-4.152 z m -13.84,-81.68 -3.6,-2.488 c -26.4,-18.269 -44.39,-32.941 -53.99,-44.012 -9.41,-11.078 -14.12,-22.808 -14.12,-35.168 0,-17.711 7.1,-33.961 21.32,-48.722 14.76,-14.219 31.01,-21.321 48.73,-21.321 24.92,0 53.61,16.332 86.1,49 z m 51.21,36.27 76.97,-93.02 2.49,2.77 c 8.31,9.043 16.15,17.902 23.54,26.582 7.38,8.668 14.48,17.437 21.32,26.301 l 42.08,-43.203 c -5.17,-7.379 -11.96,-15.957 -20.36,-25.739 -8.39,-9.781 -18.4,-21.039 -30.03,-33.781 l 79.18,-97.719 h -80.29 l -42.63,52.321 c -39.14,-40.422 -79.83,-60.629 -122.1,-60.629 -37.84,0 -69.95,12.09 -96.34,36.269 -25.85,24.36 -38.76,54.438 -38.76,90.25 0,42.641 20.48,78.078 61.46,106.309 l 27.96,19.109 c 0.37,0.18 1.01,0.641 1.94,1.383 0.92,0.738 2.21,1.746 3.87,3.039 -28.23,30.09 -42.36,59.707 -42.36,88.879 0,28.789 9.42,52.23 28.25,70.309 19.19,18.089 43.92,27.14 74.19,27.14 29.35,0 53.62,-8.769 72.81,-26.301 19.2,-17.539 28.8,-39.679 28.8,-66.437 0,-18.473 -5.26,-35.172 -15.78,-50.121 -10.34,-14.949 -29.07,-32.852 -56.21,-53.711"
         style="fill:#ffffff;fill-opacity:1;fill-rule:nonzero;stroke:none"
         id="path34" />
      <path
         d="m 1801.35,766.238 h 20.49 c 61.09,0 91.63,23.352 91.63,70.043 0,43.75 -29.71,65.61 -89.14,65.61 h -22.98 z m 80.29,-49.008 132.33,-182.16 h -78.9 l -122.1,174.969 h -11.62 V 535.07 h -64.51 v 427.461 h 75.58 c 56.48,0 97.27,-10.621 122.37,-31.84 27.69,-23.632 41.53,-54.82 41.53,-93.582 0,-30.269 -8.68,-56.289 -26.03,-78.07 -17.35,-21.789 -40.24,-35.711 -68.65,-41.809"
         style="fill:#ffffff;fill-opacity:1;fill-rule:nonzero;stroke:none"
         id="path36" />
      <path
         d="m 2406.83,847.078 -222.31,-226.75 c 31.18,-21.59 63.3,-32.387 96.34,-32.387 43.56,0 80.66,15.59 111.29,46.789 30.64,31.192 45.97,69.211 45.97,114.071 0,35.25 -10.43,68.008 -31.29,98.277 z m -37.1,35.992 c -26.77,17.91 -56.2,26.86 -88.32,26.86 -45.58,0 -83.61,-15.61 -114.06,-46.801 -30.27,-31.367 -45.41,-70.32 -45.41,-116.82 0,-30.457 8.95,-60.18 26.86,-89.149 z m 45.13,42.629 46.23,47.071 37.1,-36.821 -45.68,-46.789 c 33.77,-42.082 50.66,-89.238 50.66,-141.48 0,-60.532 -21.87,-112.399 -65.61,-155.578 -43.74,-43.204 -96.26,-64.793 -157.53,-64.793 -51.13,0 -98.28,16.332 -141.47,49.011 l -45.96,-45.691 -35.44,36.269 44.57,45.961 c -29.89,39.86 -44.84,84.621 -44.84,134.282 0,63.847 22.6,117.281 67.82,160.289 44.3,42.09 96.63,63.129 156.98,63.129 47.99,0 92.38,-14.957 133.17,-44.86"
         style="fill:#ffffff;fill-opacity:1;fill-rule:nonzero;stroke:none"
         id="path38" />
      <path
         d="m 2643.4,595.691 h 29.07 c 28.98,0 53.06,3.047 72.26,9.141 19.19,6.457 36.54,16.699 52.05,30.727 31.74,28.98 47.62,66.722 47.62,113.242 0,46.871 -15.7,84.89 -47.07,114.058 -28.24,26.032 -69.86,39.032 -124.86,39.032 h -29.07 z m -64.51,-60.621 v 427.461 h 89.7 c 43,0 76.97,-4.25 101.89,-12.742 26.76,-8.309 51.02,-22.418 72.81,-42.359 44.11,-40.231 66.16,-93.121 66.16,-158.629 0,-65.723 -22.97,-118.871 -68.93,-159.481 -23.08,-20.3 -47.25,-34.422 -72.54,-42.351 -23.62,-7.938 -57.12,-11.899 -100.5,-11.899 h -88.59"
         style="fill:#ffffff;fill-opacity:1;fill-rule:nonzero;stroke:none"
         id="path40" />
      <path
         d="m 3049.68,595.691 h 29.07 c 28.98,0 53.06,3.047 72.26,9.141 19.2,6.457 36.54,16.699 52.05,30.727 31.74,28.98 47.61,66.722 47.61,113.242 0,46.871 -15.68,84.89 -47.06,114.058 -28.24,26.032 -69.86,39.032 -124.86,39.032 h -29.07 z m -64.5,-60.621 v 427.461 h 89.69 c 43.01,0 76.97,-4.25 101.89,-12.742 26.76,-8.309 51.02,-22.418 72.81,-42.359 44.11,-40.231 66.16,-93.121 66.16,-158.629 0,-65.723 -22.98,-118.871 -68.93,-159.481 -23.08,-20.3 -47.25,-34.422 -72.53,-42.351 -23.63,-7.938 -57.13,-11.899 -100.5,-11.899 h -88.59"
         style="fill:#ffffff;fill-opacity:1;fill-rule:nonzero;stroke:none"
         id="path42" />
      <path
         d="m 3629.13,901.891 h -171.37 v -102.7 h 166.39 v -60.64 h -166.39 v -142.86 h 171.37 V 535.07 h -235.88 v 427.461 h 235.88 v -60.64"
         style="fill:#ffffff;fill-opacity:1;fill-rule:nonzero;stroke:none"
         id="path44" />
      <path
         d="m 3772.96,766.238 h 20.49 c 61.08,0 91.63,23.352 91.63,70.043 0,43.75 -29.72,65.61 -89.14,65.61 h -22.98 z m 80.28,-49.008 132.34,-182.16 h -78.9 l -122.1,174.969 h -11.62 V 535.07 h -64.51 v 427.461 h 75.58 c 56.48,0 97.27,-10.621 122.37,-31.84 27.68,-23.632 41.53,-54.82 41.53,-93.582 0,-30.269 -8.68,-56.289 -26.03,-78.07 -17.35,-21.789 -40.24,-35.711 -68.66,-41.809"
         style="fill:#ffffff;fill-opacity:1;fill-rule:nonzero;stroke:none"
         id="path46" />
      <path
         d="m 3894.54,2749.56 c -139.74,-3.16 -242.93,49.8 -340.47,149.68 -105.23,107.76 -164.27,127.78 -246.71,187.73 -98.33,71.51 -182.18,201.86 -182.18,689.74 v 403.55 c -1.14,-0.8 -2.29,-1.55 -3.44,-2.29 -0.25,-0.15 -0.48,-0.3 -0.72,-0.45 -1.17,-0.73 -2.32,-1.44 -3.48,-2.12 h -0.01 c -10.8,-6.29 -21.54,-10.34 -27.48,-12.58 -29.87,-11.23 -72.01,-21.22 -125.25,-29.69 -107.3,-17.07 -249.66,-26.47 -400.88,-26.47 -151.22,0 -293.59,9.4 -400.88,26.47 -53.24,8.47 -95.38,18.46 -125.26,29.69 -14.57,5.49 -26.11,11.21 -35.12,17.41 -1.07,0.73 -2.09,1.48 -3.09,2.22 1.29,-84.9 -1.84,-241.85 -1.84,-408.5 0,-404.23 -41.46,-588.77 -73.76,-644.74 -60.61,-105.07 -82.58,-137.4 -142.69,-183.57 -88.37,-67.86 -144.66,-74.79 -226.99,-68.72 -70.18,5.18 -140.06,-11.16 -228.53,-38.12 -86.11,-26.24 -119.85,-63.31 -204.48,-79.74 -62.08,-12.05 -265.604,-38.19 -265.604,-38.19 0,0 99.59,-60.6 280.344,-69.58 70.5,-3.51 207.54,40.72 303.37,25.53 165.58,-26.26 214.79,-25.55 282.37,-22.57 61.93,2.73 189.34,38.18 232.93,66.97 43.6,28.8 114.61,61.22 114.61,61.22 0,0 132.38,66.54 41.9,-67.4 -101.72,-150.58 -66.79,-273.72 -113.37,-345.48 -46.59,-71.75 -119.12,-116.46 -239.33,-131.67 -85.89,-10.88 -156.62,-111.93 -156.62,-111.93 0,0 186.73,38 270.45,36.02 339.79,-8.05 395.77,282.64 467.22,413.65 79.91,146.55 307.38,353.37 381.69,180.21 37.59,-87.59 59.03,-196.21 105.93,-295.34 60.85,-128.67 178.43,-162.63 224.78,-197.29 58.58,-43.8 164.66,-142.24 231.75,-180.57 108.6,-62.01 305.27,-41.01 305.27,-41.01 0,0 -61.58,39.97 -166.46,115.52 -101.01,72.75 -112.73,126.57 -139.06,162.74 -109.12,149.94 -197.44,162.33 -215.26,240.71 -32.63,143.57 -68.5,361.48 176.6,213.48 77.73,-46.94 175.84,-122.69 246.7,-164.52 47.41,-27.97 118.86,-46.96 252.15,-56.6 82.69,-5.97 146.6,26.25 265.86,36.39 88.98,7.57 376.18,25.46 376.18,25.46 0,0 -270.7,139.74 -491.14,134.75"
         style="fill:#ffffff;fill-opacity:1;fill-rule:nonzero;stroke:none"
         id="path48" />
      <path
         d="m 2563.92,4157.68 c 137.74,0 269.77,8.05 371.76,22.66 108.15,15.48 146.57,32.97 159.29,41.12 -12.72,8.15 -51.14,25.64 -159.29,41.13 -101.99,14.61 -234.02,22.65 -371.76,22.65 -137.75,0 -269.78,-8.04 -371.77,-22.65 -108.15,-15.49 -146.56,-32.98 -159.29,-41.13 12.73,-8.15 51.14,-25.64 159.29,-41.12 101.99,-14.61 234.02,-22.66 371.77,-22.66"
         style="fill:#ffffff;fill-opacity:1;fill-rule:nonzero;stroke:none"
         id="path50" />
    </g>
  </g>
</svg>
