<?xml version="1.0" encoding="UTF-8" standalone="no"?>
<!-- Created with Inkscape (http://www.inkscape.org/) -->

<svg
   version="1.1"
   id="svg2"
   width="680.32001"
   height="680.32001"
   viewBox="0 0 680.32001 680.32001"
   sodipodi:docname="TRAESTAMMER_&amp;_ROEDDER_rgb.icon.svg"
   inkscape:version="1.3.2 (091e20e, 2023-11-25, custom)"
   xmlns:inkscape="http://www.inkscape.org/namespaces/inkscape"
   xmlns:sodipodi="http://sodipodi.sourceforge.net/DTD/sodipodi-0.dtd"
   xmlns="http://www.w3.org/2000/svg"
   xmlns:svg="http://www.w3.org/2000/svg">
  <defs
     id="defs6" />
  <sodipodi:namedview
     id="namedview4"
     pagecolor="#ffffff"
     bordercolor="#000000"
     borderopacity="0.25"
     inkscape:showpageshadow="2"
     inkscape:pageopacity="0.0"
     inkscape:pagecheckerboard="0"
     inkscape:deskcolor="#d1d1d1"
     showgrid="false"
     inkscape:zoom="1.6859713"
     inkscape:cx="340.16"
     inkscape:cy="340.16"
     inkscape:window-width="2560"
     inkscape:window-height="1361"
     inkscape:window-x="2551"
     inkscape:window-y="-9"
     inkscape:window-maximized="1"
     inkscape:current-layer="g8" />
  <g
     id="g8"
     inkscape:groupmode="layer"
     inkscape:label="ink_ext_XXXXXX"
     transform="matrix(1.3333333,0,0,-1.3333333,0,680.32)">
    <g
       id="g10"
       transform="scale(0.1)">
      <path
         d="M 5102.36,0 H 0 V 5102.36 H 5102.36 V 0"
         style="fill:#1e612f;fill-opacity:1;fill-rule:nonzero;stroke:none"
         id="path12" />
      <path
         d="m 3894.54,2749.56 c -139.74,-3.16 -242.93,49.8 -340.47,149.68 -105.23,107.76 -164.27,127.78 -246.71,187.73 -98.33,71.51 -182.18,201.86 -182.18,689.74 v 403.55 c -1.14,-0.8 -2.29,-1.55 -3.44,-2.29 -0.25,-0.15 -0.48,-0.3 -0.72,-0.45 -1.17,-0.73 -2.32,-1.44 -3.48,-2.12 h -0.01 c -10.8,-6.29 -21.54,-10.34 -27.48,-12.58 -29.87,-11.23 -72.01,-21.22 -125.25,-29.69 -107.3,-17.07 -249.66,-26.47 -400.88,-26.47 -151.22,0 -293.59,9.4 -400.88,26.47 -53.24,8.47 -95.38,18.46 -125.26,29.69 -14.57,5.49 -26.11,11.21 -35.12,17.41 -1.07,0.73 -2.09,1.48 -3.09,2.22 1.29,-84.9 -1.84,-241.85 -1.84,-408.5 0,-404.23 -41.46,-588.77 -73.76,-644.74 -60.61,-105.07 -82.58,-137.4 -142.69,-183.57 -88.37,-67.86 -144.66,-74.79 -226.99,-68.72 -70.18,5.18 -140.06,-11.16 -228.53,-38.12 -86.11,-26.24 -119.85,-63.31 -204.48,-79.74 -62.08,-12.05 -265.604,-38.19 -265.604,-38.19 0,0 99.59,-60.6 280.344,-69.58 70.5,-3.51 207.54,40.72 303.37,25.53 165.58,-26.26 214.79,-25.55 282.37,-22.57 61.93,2.73 189.34,38.18 232.93,66.97 43.6,28.8 114.61,61.22 114.61,61.22 0,0 132.38,66.54 41.9,-67.4 -101.72,-150.58 -66.79,-273.72 -113.37,-345.48 -46.59,-71.75 -119.12,-116.46 -239.33,-131.67 -85.89,-10.88 -156.62,-111.93 -156.62,-111.93 0,0 186.73,38 270.45,36.02 339.79,-8.05 395.77,282.64 467.22,413.65 79.91,146.55 307.38,353.37 381.69,180.21 37.59,-87.59 59.03,-196.21 105.93,-295.34 60.85,-128.67 178.43,-162.63 224.78,-197.29 58.58,-43.8 164.66,-142.24 231.75,-180.57 108.6,-62.01 305.27,-41.01 305.27,-41.01 0,0 -61.58,39.97 -166.46,115.52 -101.01,72.75 -112.73,126.57 -139.06,162.74 -109.12,149.94 -197.44,162.33 -215.26,240.71 -32.63,143.57 -68.5,361.48 176.6,213.48 77.73,-46.94 175.84,-122.69 246.7,-164.52 47.41,-27.97 118.86,-46.96 252.15,-56.6 82.69,-5.97 146.6,26.25 265.86,36.39 88.98,7.57 376.18,25.46 376.18,25.46 0,0 -270.7,139.74 -491.14,134.75"
         style="fill:#ffffff;fill-opacity:1;fill-rule:nonzero;stroke:none"
         id="path48" />
      <path
         d="m 2563.92,4157.68 c 137.74,0 269.77,8.05 371.76,22.66 108.15,15.48 146.57,32.97 159.29,41.12 -12.72,8.15 -51.14,25.64 -159.29,41.13 -101.99,14.61 -234.02,22.65 -371.76,22.65 -137.75,0 -269.78,-8.04 -371.77,-22.65 -108.15,-15.49 -146.56,-32.98 -159.29,-41.13 12.73,-8.15 51.14,-25.64 159.29,-41.12 101.99,-14.61 234.02,-22.66 371.77,-22.66"
         style="fill:#ffffff;fill-opacity:1;fill-rule:nonzero;stroke:none"
         id="path50" />
    </g>
  </g>
</svg>
