<?xml version="1.0" encoding="UTF-8" standalone="no"?>
<!-- Created with Inkscape (http://www.inkscape.org/) -->

<svg
   version="1.1"
   id="svg2"
   width="680.32001"
   height="680.32001"
   viewBox="0 0 680.32001 680.32001"
   sodipodi:docname="TRAPEZPLADER_rgb.eps"
   xmlns:inkscape="http://www.inkscape.org/namespaces/inkscape"
   xmlns:sodipodi="http://sodipodi.sourceforge.net/DTD/sodipodi-0.dtd"
   xmlns="http://www.w3.org/2000/svg"
   xmlns:svg="http://www.w3.org/2000/svg">
  <defs
     id="defs6" />
  <sodipodi:namedview
     id="namedview4"
     pagecolor="#ffffff"
     bordercolor="#000000"
     borderopacity="0.25"
     inkscape:showpageshadow="2"
     inkscape:pageopacity="0.0"
     inkscape:pagecheckerboard="0"
     inkscape:deskcolor="#d1d1d1" />
  <g
     id="g8"
     inkscape:groupmode="layer"
     inkscape:label="ink_ext_XXXXXX"
     transform="matrix(1.3333333,0,0,-1.3333333,0,680.32)">
    <g
       id="g10"
       transform="scale(0.1)">
      <path
         d="M 5102.36,0 H 0 V 5102.36 H 5102.36 V 0"
         style="fill:#8d1b90;fill-opacity:1;fill-rule:nonzero;stroke:none"
         id="path12" />
      <path
         d="M 674.711,900.34 V 533.5 h -64.508 v 366.84 h -98.285 v 60.629 H 772.719 V 900.34 h -98.008"
         style="fill:#ffffff;fill-opacity:1;fill-rule:nonzero;stroke:none"
         id="path14" />
      <path
         d="m 900.211,764.68 h 20.488 c 61.09,0 91.641,23.34 91.641,70.039 0,43.742 -29.723,65.621 -89.149,65.621 h -22.98 z M 980.5,715.672 1112.84,533.5 h -78.91 L 911.84,708.469 H 900.211 V 533.5 h -64.508 v 427.469 h 75.582 c 56.477,0 97.265,-10.617 122.365,-31.84 27.69,-23.629 41.53,-54.82 41.53,-93.578 0,-30.27 -8.67,-56.301 -26.02,-78.071 -17.35,-21.781 -40.24,-35.718 -68.66,-41.808"
         style="fill:#ffffff;fill-opacity:1;fill-rule:nonzero;stroke:none"
         id="path16" />
      <path
         d="m 1439.67,697.949 -63.4,145.352 -66.44,-145.352 z m 26.3,-60.629 h -183 L 1235.35,533.5 h -69.49 l 211.52,454.32 204.04,-454.32 h -70.6 l -44.85,103.82"
         style="fill:#ffffff;fill-opacity:1;fill-rule:nonzero;stroke:none"
         id="path18" />
      <path
         d="m 1699.36,766.891 h 24.09 c 59.25,0 88.87,22.789 88.87,68.379 0,44.121 -30.55,66.171 -91.64,66.171 h -21.32 z m 0,-59.801 V 533.5 h -64.5 v 427.469 h 73.09 c 35.8,0 62.84,-2.5 81.11,-7.481 18.46,-4.976 34.7,-14.386 48.73,-28.238 24.55,-23.988 36.82,-54.262 36.82,-90.809 0,-39.132 -13.1,-70.14 -39.31,-93.019 -26.21,-22.891 -61.56,-34.332 -106.04,-34.332 h -29.9"
         style="fill:#ffffff;fill-opacity:1;fill-rule:nonzero;stroke:none"
         id="path20" />
      <path
         d="M 2176.94,900.34 H 2005.56 V 797.621 h 166.4 v -60.633 h -166.4 V 594.129 h 171.38 V 533.5 h -235.88 v 427.469 h 235.88 V 900.34"
         style="fill:#ffffff;fill-opacity:1;fill-rule:nonzero;stroke:none"
         id="path22" />
      <path
         d="m 2340.98,594.129 h 205.15 V 533.5 h -311.19 l 209.86,366.84 h -175.53 v 60.629 h 281.56 l -209.85,-366.84"
         style="fill:#ffffff;fill-opacity:1;fill-rule:nonzero;stroke:none"
         id="path24" />
      <path
         d="m 2680.54,766.891 h 24.09 c 59.24,0 88.87,22.789 88.87,68.379 0,44.121 -30.55,66.171 -91.64,66.171 h -21.32 z m 0,-59.801 V 533.5 h -64.51 v 427.469 h 73.09 c 35.81,0 62.85,-2.5 81.12,-7.481 18.45,-4.976 34.7,-14.386 48.73,-28.238 24.54,-23.988 36.82,-54.262 36.82,-90.809 0,-39.132 -13.11,-70.14 -39.31,-93.019 -26.21,-22.891 -61.56,-34.332 -106.04,-34.332 h -29.9"
         style="fill:#ffffff;fill-opacity:1;fill-rule:nonzero;stroke:none"
         id="path26" />
      <path
         d="m 2975.94,960.969 v -366.84 h 125.69 V 533.5 h -190.19 v 427.469 h 64.5"
         style="fill:#ffffff;fill-opacity:1;fill-rule:nonzero;stroke:none"
         id="path28" />
      <path
         d="m 3436.64,697.949 -63.4,145.352 -66.45,-145.352 z m 26.3,-60.629 H 3279.93 L 3232.31,533.5 h -69.48 l 211.51,454.32 204.05,-454.32 h -70.6 l -44.85,103.82"
         style="fill:#ffffff;fill-opacity:1;fill-rule:nonzero;stroke:none"
         id="path30" />
      <path
         d="m 3696.32,594.129 h 29.07 c 28.98,0 53.07,3.051 72.26,9.141 19.2,6.46 36.55,16.699 52.05,30.73 31.75,28.98 47.62,66.719 47.62,113.238 0,46.871 -15.69,84.891 -47.06,114.063 -28.24,26.019 -69.87,39.039 -124.87,39.039 h -29.07 z m -64.5,-60.629 v 427.469 h 89.7 c 43,0 76.96,-4.25 101.88,-12.739 26.76,-8.3 51.03,-22.421 72.82,-42.359 44.1,-40.242 66.16,-93.121 66.16,-158.633 0,-65.718 -22.98,-118.867 -68.93,-159.468 -23.08,-20.309 -47.26,-34.43 -72.54,-42.36 -23.63,-7.941 -57.13,-11.91 -100.5,-11.91 h -88.59"
         style="fill:#ffffff;fill-opacity:1;fill-rule:nonzero;stroke:none"
         id="path32" />
      <path
         d="M 4252.38,900.34 H 4081.01 V 797.621 H 4247.4 V 736.988 H 4081.01 V 594.129 h 171.37 V 533.5 H 4016.5 v 427.469 h 235.88 V 900.34"
         style="fill:#ffffff;fill-opacity:1;fill-rule:nonzero;stroke:none"
         id="path34" />
      <path
         d="m 4371.01,764.68 h 20.48 c 61.09,0 91.64,23.34 91.64,70.039 0,43.742 -29.71,65.621 -89.14,65.621 h -22.98 z M 4451.3,715.672 4583.63,533.5 h -78.9 l -122.09,174.969 h -11.63 V 533.5 h -64.51 v 427.469 h 75.58 c 56.48,0 97.27,-10.617 122.37,-31.84 27.69,-23.629 41.53,-54.82 41.53,-93.578 0,-30.27 -8.68,-56.301 -26.03,-78.071 -17.35,-21.781 -40.23,-35.718 -68.65,-41.808"
         style="fill:#ffffff;fill-opacity:1;fill-rule:nonzero;stroke:none"
         id="path36" />
      <path
         d="M 1954.95,3315.74 539.008,2040.82 H 903.5 l 1415.94,1274.92 h -364.49"
         style="fill:#ffffff;fill-opacity:1;fill-rule:nonzero;stroke:none"
         id="path38" />
      <path
         d="M 2660.06,3553.77 1244.12,2278.85 h 364.49 l 1415.94,1274.92 h -364.49"
         style="fill:#ffffff;fill-opacity:1;fill-rule:nonzero;stroke:none"
         id="path40" />
      <path
         d="M 3277.22,3315.74 1861.28,2040.82 h 364.49 l 1415.94,1274.92 h -364.49"
         style="fill:#ffffff;fill-opacity:1;fill-rule:nonzero;stroke:none"
         id="path42" />
      <path
         d="M 3982.33,3553.77 2566.38,2278.85 h 364.5 l 1415.94,1274.92 h -364.49"
         style="fill:#ffffff;fill-opacity:1;fill-rule:nonzero;stroke:none"
         id="path44" />
      <path
         d="m 2612.39,2855.24 h -55.43 l 96.2,226.63 h 55.43 z m -203.57,-218.42 h -55.43 l 144,339.25 h 55.43 z M 2253.46,2532 h -55.43 l 96.33,226.93 h 55.43 z m 826.3,1002.81 -1415.94,-1274.92 163.2,-181.25 1415.94,1274.92 -163.2,181.25"
         style="fill:#ffffff;fill-opacity:1;fill-rule:nonzero;stroke:none"
         id="path46" />
      <path
         d="m 3934.02,2854.74 h -55.43 l 96.2,226.63 h 55.43 z m -203.58,-218.42 h -55.43 l 144.01,339.26 h 55.43 z M 3575.09,2531.5 h -55.43 l 96.32,226.93 h 55.43 z m 826.92,1003.31 -1415.94,-1274.92 163.19,-181.25 1415.95,1274.92 -163.2,181.25"
         style="fill:#ffffff;fill-opacity:1;fill-rule:nonzero;stroke:none"
         id="path48" />
    </g>
  </g>
</svg>
