<?xml version="1.0" encoding="UTF-8" standalone="no"?>
<!-- Created with Inkscape (http://www.inkscape.org/) -->

<svg
   version="1.1"
   id="svg2"
   width="680.32001"
   height="680.32001"
   viewBox="0 0 680.32001 680.32001"
   sodipodi:docname="TRYKFLASKER_rgb.icon.svg"
   inkscape:version="1.3.2 (091e20e, 2023-11-25, custom)"
   xmlns:inkscape="http://www.inkscape.org/namespaces/inkscape"
   xmlns:sodipodi="http://sodipodi.sourceforge.net/DTD/sodipodi-0.dtd"
   xmlns="http://www.w3.org/2000/svg"
   xmlns:svg="http://www.w3.org/2000/svg">
  <defs
     id="defs6" />
  <sodipodi:namedview
     id="namedview4"
     pagecolor="#ffffff"
     bordercolor="#000000"
     borderopacity="0.25"
     inkscape:showpageshadow="2"
     inkscape:pageopacity="0.0"
     inkscape:pagecheckerboard="0"
     inkscape:deskcolor="#d1d1d1"
     inkscape:zoom="1.6859713"
     inkscape:cx="340.16"
     inkscape:cy="340.16"
     inkscape:window-width="2560"
     inkscape:window-height="1361"
     inkscape:window-x="2551"
     inkscape:window-y="-9"
     inkscape:window-maximized="1"
     inkscape:current-layer="g8" />
  <g
     id="g8"
     inkscape:groupmode="layer"
     inkscape:label="ink_ext_XXXXXX"
     transform="matrix(1.3333333,0,0,-1.3333333,0,680.32)">
    <g
       id="g10"
       transform="scale(0.1)">
      <path
         d="M 5102.36,0 H 0.00390625 V 5102.36 H 5102.36 V 0"
         style="fill:#ea1d2c;fill-opacity:1;fill-rule:nonzero;stroke:none"
         id="path12" />
      <path
         d="m 2807.69,2041.5 h -510.24 v 102.04 h 510.24 z m -836.95,1136.81 -104.52,171.53 c 20.39,6.42 40.26,13.48 58.99,20.86 37.93,14.92 76.63,33.03 112.11,53.35 l 101.26,-166.18 c -61.09,-22.06 -117.45,-48.83 -167.84,-79.56 z M 3039.1,2041.5 v 102.04 h 355.54 v 649.76 h -0.02 c -1.3,261.37 -298.27,479.29 -688.8,525.14 v 128.19 h -76.54 v 380.79 h -153.07 v -380.79 h -76.54 v -128.19 c -37.23,-4.38 -73.61,-10.31 -108.97,-17.7 l -80.68,133.99 c -9.05,13.9 -18.48,26.88 -28.2,39.09 -34.54,43.38 -73.57,74.93 -114.71,97.79 -8.2,-8.69 -20.81,-20.01 -39.58,-33.33 -36.92,-26.21 -86.51,-52.16 -139.64,-73.07 -52.97,-20.85 -106.76,-35.63 -151.46,-41.6 -23.7,-3.17 -41.03,-3.39 -52.97,-2.49 0,0 -0.04,-18.27 2.53,-31.66 5.31,-27.65 14.14,-56.21 29.58,-85.17 l 18.61,-31.1 114.39,-188.31 C 1762,3001.02 1711.41,2900.84 1710.88,2793.3 h -0.02 v -1.73 -648.03 h 355.19 V 2041.5 H 1710.86 V 1788.34 H 3394.64 V 2041.5 H 3039.1"
         style="fill:#ffffff;fill-opacity:1;fill-rule:nonzero;stroke:none"
         id="path36" />
    </g>
  </g>
</svg>
