<?xml version="1.0" encoding="UTF-8" standalone="no"?>
<!-- Created with Inkscape (http://www.inkscape.org/) -->

<svg
   version="1.1"
   id="svg2"
   width="680.32001"
   height="680.32001"
   viewBox="0 0 680.32001 680.32001"
   sodipodi:docname="TRYKFLASKER_rgb.eps"
   xmlns:inkscape="http://www.inkscape.org/namespaces/inkscape"
   xmlns:sodipodi="http://sodipodi.sourceforge.net/DTD/sodipodi-0.dtd"
   xmlns="http://www.w3.org/2000/svg"
   xmlns:svg="http://www.w3.org/2000/svg">
  <defs
     id="defs6" />
  <sodipodi:namedview
     id="namedview4"
     pagecolor="#ffffff"
     bordercolor="#000000"
     borderopacity="0.25"
     inkscape:showpageshadow="2"
     inkscape:pageopacity="0.0"
     inkscape:pagecheckerboard="0"
     inkscape:deskcolor="#d1d1d1" />
  <g
     id="g8"
     inkscape:groupmode="layer"
     inkscape:label="ink_ext_XXXXXX"
     transform="matrix(1.3333333,0,0,-1.3333333,0,680.32)">
    <g
       id="g10"
       transform="scale(0.1)">
      <path
         d="M 5102.36,0 H 0.00390625 V 5102.36 H 5102.36 V 0"
         style="fill:#ea1d2c;fill-opacity:1;fill-rule:nonzero;stroke:none"
         id="path12" />
      <path
         d="M 870.605,900.461 V 531.68 h -64.847 v 368.781 h -98.805 v 60.949 h 262.18 v -60.949 h -98.528"
         style="fill:#ffffff;fill-opacity:1;fill-rule:nonzero;stroke:none"
         id="path14" />
      <path
         d="m 1100.87,764.078 h 20.6 c 61.41,0 92.12,23.473 92.12,70.41 0,43.981 -29.88,65.973 -89.62,65.973 h -23.1 z m 80.71,-49.258 133.04,-183.14 h -79.32 l -122.74,175.902 h -11.69 V 531.68 h -64.85 V 961.41 H 1112 c 56.78,0 97.79,-10.68 123.02,-32 27.83,-23.762 41.75,-55.109 41.75,-94.082 0,-30.437 -8.73,-56.598 -26.16,-78.476 -17.44,-21.903 -40.45,-35.911 -69.03,-42.032"
         style="fill:#ffffff;fill-opacity:1;fill-rule:nonzero;stroke:none"
         id="path16" />
      <path
         d="M 1447.1,717.332 1306.83,961.41 h 74.59 l 98.25,-171.719 98.52,171.719 h 74.59 L 1511.95,717.332 V 531.68 h -64.85 v 185.652"
         style="fill:#ffffff;fill-opacity:1;fill-rule:nonzero;stroke:none"
         id="path18" />
      <path
         d="m 1777.97,789.961 167.27,171.449 h 86.56 L 1837.53,766.871 2032.91,531.68 h -86.83 l -154.75,191.211 -13.36,-13.36 V 531.68 h -64.85 v 429.73 h 64.85 V 789.961"
         style="fill:#ffffff;fill-opacity:1;fill-rule:nonzero;stroke:none"
         id="path20" />
      <path
         d="M 2310.79,900.461 H 2161.05 V 797.199 H 2305.5 V 736.25 H 2161.05 V 531.68 h -64.85 v 429.73 h 214.59 v -60.949"
         style="fill:#ffffff;fill-opacity:1;fill-rule:nonzero;stroke:none"
         id="path22" />
      <path
         d="M 2443.58,961.41 V 592.641 h 126.36 V 531.68 h -191.2 v 429.73 h 64.84"
         style="fill:#ffffff;fill-opacity:1;fill-rule:nonzero;stroke:none"
         id="path24" />
      <path
         d="M 2899.38,697 2835.65,843.129 2768.85,697 Z m 26.45,-60.941 H 2741.85 L 2693.98,531.68 h -69.85 l 212.63,456.73 205.12,-456.73 h -70.97 l -45.08,104.379"
         style="fill:#ffffff;fill-opacity:1;fill-rule:nonzero;stroke:none"
         id="path26" />
      <path
         d="m 3338.57,897.68 -52.6,-31.168 c -9.83,17.07 -19.21,28.187 -28.11,33.386 -9.28,5.942 -21.25,8.911 -35.9,8.911 -18,0 -32.94,-5.118 -44.81,-15.321 -11.88,-10.027 -17.82,-22.66 -17.82,-37.879 0,-20.98 15.59,-37.879 46.76,-50.687 l 42.86,-17.543 c 34.88,-14.129 60.4,-31.34 76.54,-51.668 16.15,-20.34 24.21,-45.27 24.21,-74.789 0,-39.551 -13.17,-72.231 -39.52,-98.043 -26.53,-25.988 -59.46,-38.988 -98.8,-38.988 -37.29,0 -68.09,11.089 -92.4,33.269 -23.93,22.168 -38.88,53.289 -44.81,93.371 L 3139.85,665 c 2.97,-25.23 8.16,-42.68 15.59,-52.32 13.36,-18.571 32.84,-27.828 58.44,-27.828 20.23,0 37.03,6.757 50.38,20.289 13.36,13.531 20.04,30.687 20.04,51.449 0,8.34 -1.16,16 -3.48,22.949 -2.32,6.961 -5.94,13.352 -10.85,19.191 -4.92,5.84 -11.27,11.309 -19.06,16.411 -7.8,5.097 -17.08,9.968 -27.84,14.597 l -41.47,17.242 c -58.82,24.848 -88.22,61.2 -88.22,109.032 0,32.25 12.33,59.238 37.01,80.929 24.68,21.879 55.39,32.821 92.13,32.821 49.54,0 88.22,-24.043 116.05,-72.082"
         style="fill:#ffffff;fill-opacity:1;fill-rule:nonzero;stroke:none"
         id="path28" />
      <path
         d="m 3481.96,789.961 167.28,171.449 h 86.55 L 3541.52,766.871 3736.9,531.68 h -86.83 l -154.75,191.211 -13.36,-13.36 V 531.68 h -64.84 v 429.73 h 64.84 V 789.961"
         style="fill:#ffffff;fill-opacity:1;fill-rule:nonzero;stroke:none"
         id="path30" />
      <path
         d="M 4040.92,900.461 H 3868.64 V 797.199 h 167.27 V 736.25 H 3868.64 V 592.641 h 172.28 V 531.68 H 3803.8 v 429.73 h 237.12 v -60.949"
         style="fill:#ffffff;fill-opacity:1;fill-rule:nonzero;stroke:none"
         id="path32" />
      <path
         d="m 4180.13,764.078 h 20.6 c 61.42,0 92.13,23.473 92.13,70.41 0,43.981 -29.88,65.973 -89.62,65.973 h -23.11 z m 80.72,-49.258 133.03,-183.14 h -79.31 l -122.75,175.902 h -11.69 V 531.68 h -64.84 v 429.73 h 75.98 c 56.77,0 97.78,-10.68 123.01,-32 27.84,-23.762 41.75,-55.109 41.75,-94.082 0,-30.437 -8.72,-56.598 -26.16,-78.476 -17.44,-21.903 -40.45,-35.911 -69.02,-42.032"
         style="fill:#ffffff;fill-opacity:1;fill-rule:nonzero;stroke:none"
         id="path34" />
      <path
         d="m 2807.69,2041.5 h -510.24 v 102.04 h 510.24 z m -836.95,1136.81 -104.52,171.53 c 20.39,6.42 40.26,13.48 58.99,20.86 37.93,14.92 76.63,33.03 112.11,53.35 l 101.26,-166.18 c -61.09,-22.06 -117.45,-48.83 -167.84,-79.56 z M 3039.1,2041.5 v 102.04 h 355.54 v 649.76 h -0.02 c -1.3,261.37 -298.27,479.29 -688.8,525.14 v 128.19 h -76.54 v 380.79 h -153.07 v -380.79 h -76.54 v -128.19 c -37.23,-4.38 -73.61,-10.31 -108.97,-17.7 l -80.68,133.99 c -9.05,13.9 -18.48,26.88 -28.2,39.09 -34.54,43.38 -73.57,74.93 -114.71,97.79 -8.2,-8.69 -20.81,-20.01 -39.58,-33.33 -36.92,-26.21 -86.51,-52.16 -139.64,-73.07 -52.97,-20.85 -106.76,-35.63 -151.46,-41.6 -23.7,-3.17 -41.03,-3.39 -52.97,-2.49 0,0 -0.04,-18.27 2.53,-31.66 5.31,-27.65 14.14,-56.21 29.58,-85.17 l 18.61,-31.1 114.39,-188.31 C 1762,3001.02 1711.41,2900.84 1710.88,2793.3 h -0.02 v -1.73 -648.03 h 355.19 V 2041.5 H 1710.86 V 1788.34 H 3394.64 V 2041.5 H 3039.1"
         style="fill:#ffffff;fill-opacity:1;fill-rule:nonzero;stroke:none"
         id="path36" />
    </g>
  </g>
</svg>
