<?xml version="1.0" encoding="UTF-8" standalone="no"?>
<!-- Created with Inkscape (http://www.inkscape.org/) -->

<svg
   version="1.1"
   id="svg2"
   width="680.32001"
   height="680.32001"
   viewBox="0 0 680.32001 680.32001"
   sodipodi:docname="TV_&amp;_SKAERME_rgb.icon.svg"
   inkscape:version="1.3.2 (091e20e, 2023-11-25, custom)"
   xmlns:inkscape="http://www.inkscape.org/namespaces/inkscape"
   xmlns:sodipodi="http://sodipodi.sourceforge.net/DTD/sodipodi-0.dtd"
   xmlns="http://www.w3.org/2000/svg"
   xmlns:svg="http://www.w3.org/2000/svg">
  <defs
     id="defs6" />
  <sodipodi:namedview
     id="namedview4"
     pagecolor="#ffffff"
     bordercolor="#000000"
     borderopacity="0.25"
     inkscape:showpageshadow="2"
     inkscape:pageopacity="0.0"
     inkscape:pagecheckerboard="0"
     inkscape:deskcolor="#d1d1d1"
     inkscape:zoom="1.6859713"
     inkscape:cx="340.16"
     inkscape:cy="340.16"
     inkscape:window-width="2560"
     inkscape:window-height="1361"
     inkscape:window-x="2551"
     inkscape:window-y="-9"
     inkscape:window-maximized="1"
     inkscape:current-layer="g8" />
  <g
     id="g8"
     inkscape:groupmode="layer"
     inkscape:label="ink_ext_XXXXXX"
     transform="matrix(1.3333333,0,0,-1.3333333,0,680.32)">
    <g
       id="g10"
       transform="scale(0.1)">
      <path
         d="M 5102.36,0 0.00390625,0.0117188 V 5102.36 L 5102.36,5102.35 V 0"
         style="fill:#ef8514;fill-opacity:1;fill-rule:nonzero;stroke:none"
         id="path12" />
      <path
         d="m 1303.33,3931.56 0.01,-1479.69 2500.17,0.01 -0.02,1479.7 -2500.16,-0.02"
         style="fill:#ffffff;fill-opacity:1;fill-rule:nonzero;stroke:none"
         id="path32" />
      <path
         d="m 3854.52,2451.87 c 0,-28.13 -22.88,-51.01 -51.02,-51.01 H 1303.33 c -28.13,0 -51.01,22.88 -51.01,51.01 v 1479.71 c 0,28.13 22.88,51.01 51.01,51.01 H 3803.5 c 28.14,0 51.02,-22.88 51.02,-51.01 z m 0.8,1632.76 H 1251.51 c -55.68,0 -101.24,-45.55 -101.24,-101.24 V 2400.06 c 0,-55.69 45.56,-101.25 101.24,-101.25 h 1199.86 v -459.77 h -535.75 v -51.02 h 1275.59 v 51.02 h -535.74 v 459.77 h 1199.85 c 55.68,0 101.25,45.56 101.25,101.25 v 1583.33 c 0,55.69 -45.57,101.24 -101.25,101.24"
         style="fill:#ffffff;fill-opacity:1;fill-rule:nonzero;stroke:none"
         id="path34" />
    </g>
  </g>
</svg>
