<?xml version="1.0" encoding="UTF-8" standalone="no"?>
<!-- Created with Inkscape (http://www.inkscape.org/) -->

<svg
   version="1.1"
   id="svg2"
   width="680.32001"
   height="680.32001"
   viewBox="0 0 680.32001 680.32001"
   sodipodi:docname="TV_&amp;_SKAERME_rgb.eps"
   xmlns:inkscape="http://www.inkscape.org/namespaces/inkscape"
   xmlns:sodipodi="http://sodipodi.sourceforge.net/DTD/sodipodi-0.dtd"
   xmlns="http://www.w3.org/2000/svg"
   xmlns:svg="http://www.w3.org/2000/svg">
  <defs
     id="defs6" />
  <sodipodi:namedview
     id="namedview4"
     pagecolor="#ffffff"
     bordercolor="#000000"
     borderopacity="0.25"
     inkscape:showpageshadow="2"
     inkscape:pageopacity="0.0"
     inkscape:pagecheckerboard="0"
     inkscape:deskcolor="#d1d1d1" />
  <g
     id="g8"
     inkscape:groupmode="layer"
     inkscape:label="ink_ext_XXXXXX"
     transform="matrix(1.3333333,0,0,-1.3333333,0,680.32)">
    <g
       id="g10"
       transform="scale(0.1)">
      <path
         d="M 5102.36,0 0.00390625,0.0117188 V 5102.36 L 5102.36,5102.35 V 0"
         style="fill:#ef8514;fill-opacity:1;fill-rule:nonzero;stroke:none"
         id="path12" />
      <path
         d="M 754.527,905.941 V 539.102 H 690.02 v 366.839 h -98.286 v 60.618 h 260.801 v -60.618 h -98.008"
         style="fill:#ffffff;fill-opacity:1;fill-rule:nonzero;stroke:none"
         id="path14" />
      <path
         d="m 985.988,966.559 118.222,-296.231 119.87,296.231 h 70.6 L 1102.82,506.98 915.387,966.559 h 70.601"
         style="fill:#ffffff;fill-opacity:1;fill-rule:nonzero;stroke:none"
         id="path16" />
      <path
         d="m 1606.68,822.32 5.27,3.879 c 9.03,6.832 16.51,12.77 22.42,17.86 5.91,5.07 10.15,9.371 12.73,12.871 5.54,6.832 8.31,15.23 8.31,25.199 0,11.25 -3.79,20.391 -11.35,27.402 -7.57,7.008 -17.72,10.528 -30.45,10.528 -11.64,0 -21.42,-3.61 -29.35,-10.797 -7.94,-6.832 -11.9,-15.602 -11.9,-26.301 0,-12.563 4.98,-24.922 14.94,-37.102 l 16.06,-19.39 c 0.55,-0.91 1.66,-2.297 3.32,-4.149 z m -13.84,-81.672 -3.6,-2.488 c -26.4,-18.269 -44.39,-32.949 -53.99,-44.019 -9.41,-11.071 -14.12,-22.789 -14.12,-35.161 0,-17.718 7.11,-33.96 21.32,-48.73 14.77,-14.219 31.01,-21.309 48.73,-21.309 24.92,0 53.61,16.329 86.1,49 z m 51.22,36.274 76.96,-93.024 2.49,2.774 c 8.31,9.027 16.16,17.898 23.54,26.566 7.38,8.672 14.49,17.442 21.32,26.301 l 42.08,-43.18 c -5.17,-7.39 -11.95,-15.968 -20.35,-25.757 -8.4,-9.782 -18.41,-21.032 -30.04,-33.762 l 79.18,-97.738 h -80.29 l -42.63,52.328 c -39.14,-40.418 -79.83,-60.629 -122.09,-60.629 -37.85,0 -69.96,12.078 -96.35,36.258 -25.85,24.371 -38.76,54.453 -38.76,90.25 0,42.64 20.49,78.082 61.46,106.32 l 27.96,19.101 c 0.37,0.192 1.01,0.649 1.94,1.391 0.92,0.731 2.22,1.75 3.88,3.051 -28.24,30.078 -42.36,59.699 -42.36,88.859 0,28.789 9.41,52.231 28.24,70.328 19.19,18.082 43.92,27.129 74.2,27.129 29.34,0 53.61,-8.769 72.81,-26.297 19.19,-17.543 28.79,-39.691 28.79,-66.453 0,-18.457 -5.26,-35.16 -15.78,-50.109 -10.34,-14.949 -29.07,-32.859 -56.2,-53.707"
         style="fill:#ffffff;fill-opacity:1;fill-rule:nonzero;stroke:none"
         id="path18" />
      <path
         d="m 2307.13,903.16 -52.33,-31 c -9.78,16.981 -19.1,28.051 -27.96,33.219 -9.23,5.91 -21.14,8.859 -35.72,8.859 -17.9,0 -32.76,-5.078 -44.57,-15.238 -11.81,-9.98 -17.72,-22.539 -17.72,-37.68 0,-20.871 15.51,-37.679 46.51,-50.422 l 42.64,-17.449 c 34.7,-14.051 60.08,-31.179 76.13,-51.398 16.06,-20.223 24.09,-45.02 24.09,-74.379 0,-39.352 -13.11,-71.863 -39.31,-97.531 -26.4,-25.86 -59.16,-38.789 -98.28,-38.789 -37.1,0 -67.74,11.027 -91.92,33.089 -23.81,22.047 -38.67,53.008 -44.58,92.868 l 65.34,14.41 c 2.95,-25.11 8.12,-42.457 15.51,-52.047 13.28,-18.461 32.66,-27.692 58.14,-27.692 20.11,0 36.82,6.731 50.1,20.2 13.3,13.449 19.94,30.511 19.94,51.179 0,8.289 -1.16,15.911 -3.46,22.821 -2.31,6.922 -5.91,13.281 -10.8,19.09 -4.89,5.812 -11.21,11.25 -18.96,16.32 -7.76,5.07 -16.98,9.91 -27.69,14.531 l -41.25,17.149 c -58.51,24.718 -87.76,60.871 -87.76,108.449 0,32.09 12.27,58.922 36.82,80.511 24.55,21.75 55.09,32.641 91.64,32.641 49.28,0 87.76,-23.902 115.45,-71.711"
         style="fill:#ffffff;fill-opacity:1;fill-rule:nonzero;stroke:none"
         id="path20" />
      <path
         d="m 2460.5,796.02 166.39,170.539 h 86.1 L 2519.75,773.051 2714.11,539.102 h -86.38 L 2473.8,729.301 2460.5,716.02 V 539.102 H 2396 v 427.457 h 64.5 V 796.02"
         style="fill:#ffffff;fill-opacity:1;fill-rule:nonzero;stroke:none"
         id="path22" />
      <path
         d="m 3023.5,701.891 -61.19,140.089 -65.89,-140.089 z m 25.74,-60.629 h -181.62 l -46.78,-102.16 h -70.6 l 205.43,427.457 h 189.09 l 26.86,-60.618 h -170.27 l 45.13,-103.55 h 165.56 l 27.13,-60.629 h -165.83 l 60.9,-142.024 h 170.82 l 26.03,-60.636 H 3094.1 l -44.86,102.16"
         style="fill:#ffffff;fill-opacity:1;fill-rule:nonzero;stroke:none"
         id="path24" />
      <path
         d="m 3464.25,770.27 h 20.49 c 61.1,0 91.64,23.351 91.64,70.05 0,43.739 -29.71,65.621 -89.15,65.621 h -22.98 z m 80.3,-49 132.33,-182.168 h -78.9 L 3475.89,714.07 h -11.64 V 539.102 h -64.5 v 427.457 h 75.58 c 56.48,0 97.26,-10.61 122.37,-31.829 27.69,-23.628 41.53,-54.82 41.53,-93.582 0,-30.269 -8.68,-56.296 -26.02,-78.07 -17.35,-21.777 -40.24,-35.719 -68.66,-41.808"
         style="fill:#ffffff;fill-opacity:1;fill-rule:nonzero;stroke:none"
         id="path26" />
      <path
         d="m 3740.56,539.102 89.98,459.578 146.73,-332.231 151.99,332.231 80.85,-459.578 h -66.17 L 4102.69,797.129 3976.17,519.441 3853.25,797.41 3807.28,539.102 h -66.72"
         style="fill:#ffffff;fill-opacity:1;fill-rule:nonzero;stroke:none"
         id="path28" />
      <path
         d="M 4516.73,905.941 H 4345.35 V 803.219 h 166.39 V 742.59 H 4345.35 V 599.738 h 171.38 v -60.636 h -235.88 v 427.457 h 235.88 v -60.618"
         style="fill:#ffffff;fill-opacity:1;fill-rule:nonzero;stroke:none"
         id="path30" />
      <path
         d="m 1303.33,3931.56 0.01,-1479.69 2500.17,0.01 -0.02,1479.7 -2500.16,-0.02"
         style="fill:#ffffff;fill-opacity:1;fill-rule:nonzero;stroke:none"
         id="path32" />
      <path
         d="m 3854.52,2451.87 c 0,-28.13 -22.88,-51.01 -51.02,-51.01 H 1303.33 c -28.13,0 -51.01,22.88 -51.01,51.01 v 1479.71 c 0,28.13 22.88,51.01 51.01,51.01 H 3803.5 c 28.14,0 51.02,-22.88 51.02,-51.01 z m 0.8,1632.76 H 1251.51 c -55.68,0 -101.24,-45.55 -101.24,-101.24 V 2400.06 c 0,-55.69 45.56,-101.25 101.24,-101.25 h 1199.86 v -459.77 h -535.75 v -51.02 h 1275.59 v 51.02 h -535.74 v 459.77 h 1199.85 c 55.68,0 101.25,45.56 101.25,101.25 v 1583.33 c 0,55.69 -45.57,101.24 -101.25,101.24"
         style="fill:#ffffff;fill-opacity:1;fill-rule:nonzero;stroke:none"
         id="path34" />
    </g>
  </g>
</svg>
