<?xml version="1.0" encoding="UTF-8" standalone="no"?>
<!-- Created with Inkscape (http://www.inkscape.org/) -->

<svg
   version="1.1"
   id="svg2"
   width="680.32001"
   height="680.32001"
   viewBox="0 0 680.32001 680.32001"
   sodipodi:docname="UDENDOERS_TRAE_rgb.eps"
   xmlns:inkscape="http://www.inkscape.org/namespaces/inkscape"
   xmlns:sodipodi="http://sodipodi.sourceforge.net/DTD/sodipodi-0.dtd"
   xmlns="http://www.w3.org/2000/svg"
   xmlns:svg="http://www.w3.org/2000/svg">
  <defs
     id="defs6" />
  <sodipodi:namedview
     id="namedview4"
     pagecolor="#ffffff"
     bordercolor="#000000"
     borderopacity="0.25"
     inkscape:showpageshadow="2"
     inkscape:pageopacity="0.0"
     inkscape:pagecheckerboard="0"
     inkscape:deskcolor="#d1d1d1" />
  <g
     id="g8"
     inkscape:groupmode="layer"
     inkscape:label="ink_ext_XXXXXX"
     transform="matrix(1.3333333,0,0,-1.3333333,0,680.32)">
    <g
       id="g10"
       transform="scale(0.1)">
      <path
         d="M 5102.36,0 H 0 V 5102.36 H 5102.36 V 0"
         style="fill:#715724;fill-opacity:1;fill-rule:nonzero;stroke:none"
         id="path12" />
      <path
         d="m 1078.01,1501.22 v -257.28 c 0,-36.71 6,-63.54 17.99,-80.51 17.91,-24.53 43.1,-36.79 75.59,-36.79 32.67,0 57.95,12.26 75.85,36.79 12,16.41 18,43.25 18,80.51 v 257.28 h 64.51 v -275.19 c 0,-45.04 -14.03,-82.14 -42.08,-111.3 -31.57,-32.49 -70.33,-48.72 -116.28,-48.72 -45.96,0 -84.63,16.23 -116,48.72 -28.06,29.16 -42.09,66.26 -42.09,111.3 v 275.19 h 64.51"
         style="fill:#ffffff;fill-opacity:1;fill-rule:nonzero;stroke:none"
         id="path14" />
      <path
         d="m 1473.49,1134.39 h 29.07 c 28.98,0 53.06,3.04 72.26,9.13 19.19,6.46 36.54,16.71 52.05,30.73 31.74,28.98 47.62,66.73 47.62,113.24 0,46.88 -15.69,84.9 -47.07,114.06 -28.24,26.03 -69.86,39.04 -124.86,39.04 h -29.07 z m -64.51,-60.63 v 427.46 h 89.7 c 43.01,0 76.97,-4.25 101.89,-12.73 26.76,-8.31 51.03,-22.43 72.81,-42.36 44.11,-40.24 66.17,-93.12 66.17,-158.64 0,-65.71 -22.98,-118.87 -68.94,-159.47 -23.07,-20.31 -47.25,-34.42 -72.53,-42.36 -23.63,-7.94 -57.13,-11.9 -100.5,-11.9 h -88.6"
         style="fill:#ffffff;fill-opacity:1;fill-rule:nonzero;stroke:none"
         id="path16" />
      <path
         d="m 2056.55,1440.59 h -171.38 v -102.71 h 166.39 v -60.64 h -166.39 v -142.85 h 171.38 v -60.63 h -235.88 v 427.46 h 235.88 v -60.63"
         style="fill:#ffffff;fill-opacity:1;fill-rule:nonzero;stroke:none"
         id="path18" />
      <path
         d="m 2135.87,1073.76 v 456.53 l 311.73,-326.13 v 297.06 h 64.51 v -453.49 l -311.74,325.31 v -299.28 h -64.5"
         style="fill:#ffffff;fill-opacity:1;fill-rule:nonzero;stroke:none"
         id="path20" />
      <path
         d="m 2657.45,1134.39 h 29.07 c 28.98,0 53.06,3.04 72.26,9.13 19.19,6.46 36.55,16.71 52.05,30.73 31.74,28.98 47.62,66.73 47.62,113.24 0,46.88 -15.69,84.9 -47.07,114.06 -28.24,26.03 -69.86,39.04 -124.86,39.04 h -29.07 z m -64.5,-60.63 v 427.46 h 89.7 c 43,0 76.96,-4.25 101.88,-12.73 26.76,-8.31 51.03,-22.43 72.81,-42.36 44.11,-40.24 66.17,-93.12 66.17,-158.64 0,-65.71 -22.98,-118.87 -68.94,-159.47 -23.07,-20.31 -47.25,-34.42 -72.53,-42.36 -23.63,-7.94 -57.13,-11.9 -100.5,-11.9 h -88.59"
         style="fill:#ffffff;fill-opacity:1;fill-rule:nonzero;stroke:none"
         id="path22" />
      <path
         d="m 3335.05,1385.77 -222.31,-226.74 c 31.19,-21.6 63.31,-32.39 96.35,-32.39 43.55,0 80.65,15.59 111.29,46.79 30.64,31.18 45.96,69.21 45.96,114.06 0,35.25 -10.43,68.01 -31.29,98.28 z m -37.09,35.99 c -26.77,17.9 -56.21,26.86 -88.32,26.86 -45.59,0 -83.61,-15.6 -114.07,-46.79 -30.27,-31.38 -45.4,-70.32 -45.4,-116.83 0,-30.46 8.95,-60.17 26.86,-89.15 z m 45.12,42.64 46.24,47.07 37.1,-36.83 -45.68,-46.79 c 33.77,-42.08 50.66,-89.24 50.66,-141.47 0,-60.54 -21.87,-112.4 -65.61,-155.59 -43.75,-43.19 -96.26,-64.78 -157.53,-64.78 -51.13,0 -98.29,16.33 -141.48,49 l -45.96,-45.68 -35.43,36.26 44.57,45.96 c -29.9,39.87 -44.85,84.63 -44.85,134.28 0,63.86 22.61,117.29 67.83,160.3 44.3,42.08 96.62,63.12 156.98,63.12 47.98,0 92.37,-14.95 133.16,-44.85"
         style="fill:#ffffff;fill-opacity:1;fill-rule:nonzero;stroke:none"
         id="path24" />
      <path
         d="m 3571.63,1304.93 h 20.48 c 61.09,0 91.64,23.35 91.64,70.05 0,43.74 -29.72,65.61 -89.14,65.61 h -22.98 z m 80.28,-49 132.34,-182.17 h -78.9 l -122.1,174.97 h -11.62 v -174.97 h -64.51 v 427.46 h 75.58 c 56.48,0 97.27,-10.61 122.37,-31.84 27.69,-23.62 41.53,-54.81 41.53,-93.57 0,-30.28 -8.68,-56.3 -26.03,-78.08 -17.35,-21.78 -40.24,-35.71 -68.66,-41.8"
         style="fill:#ffffff;fill-opacity:1;fill-rule:nonzero;stroke:none"
         id="path26" />
      <path
         d="m 4079.38,1437.82 -52.33,-31.01 c -9.78,16.98 -19.1,28.06 -27.96,33.23 -9.23,5.9 -21.14,8.86 -35.72,8.86 -17.9,0 -32.76,-5.09 -44.57,-15.24 -11.81,-9.98 -17.72,-22.54 -17.72,-37.68 0,-20.87 15.51,-37.68 46.51,-50.42 l 42.64,-17.46 c 34.7,-14.04 60.08,-31.17 76.13,-51.39 16.06,-20.23 24.09,-45.03 24.09,-74.39 0,-39.35 -13.11,-71.86 -39.31,-97.53 -26.4,-25.86 -59.16,-38.78 -98.29,-38.78 -37.1,0 -67.73,11.03 -91.91,33.09 -23.81,22.05 -38.67,53.01 -44.58,92.87 l 65.34,14.4 c 2.95,-25.1 8.12,-42.45 15.51,-52.05 13.28,-18.46 32.66,-27.68 58.13,-27.68 20.12,0 36.83,6.73 50.12,20.19 13.28,13.46 19.93,30.52 19.93,51.18 0,8.3 -1.16,15.91 -3.46,22.83 -2.31,6.91 -5.91,13.28 -10.8,19.09 -4.89,5.81 -11.21,11.25 -18.96,16.32 -7.76,5.07 -16.99,9.91 -27.69,14.52 l -41.25,17.16 c -58.51,24.71 -87.76,60.86 -87.76,108.45 0,32.09 12.27,58.92 36.82,80.5 24.54,21.76 55.09,32.65 91.64,32.65 49.28,0 87.76,-23.91 115.45,-71.71"
         style="fill:#ffffff;fill-opacity:1;fill-rule:nonzero;stroke:none"
         id="path28" />
      <path
         d="M 2118.21,901.738 V 534.91 h -64.5 v 366.828 h -98.29 v 60.633 h 260.8 v -60.633 h -98.01"
         style="fill:#ffffff;fill-opacity:1;fill-rule:nonzero;stroke:none"
         id="path30" />
      <path
         d="m 2350.92,766.082 h 20.48 c 61.09,0 91.64,23.348 91.64,70.039 0,43.75 -29.72,65.617 -89.14,65.617 h -22.98 z m 80.28,-49.004 132.34,-182.168 h -78.9 l -122.1,174.969 h -11.62 V 534.91 h -64.51 v 427.461 h 75.58 c 56.48,0 97.27,-10.621 122.37,-31.84 27.69,-23.633 41.53,-54.82 41.53,-93.582 0,-30.269 -8.68,-56.289 -26.03,-78.07 -17.35,-21.777 -40.24,-35.707 -68.66,-41.801"
         style="fill:#ffffff;fill-opacity:1;fill-rule:nonzero;stroke:none"
         id="path32" />
      <path
         d="m 2866.98,697.699 -61.19,140.09 -65.89,-140.09 z m 25.75,-60.629 h -181.62 l -46.79,-102.16 h -70.6 l 205.43,427.461 h 189.09 l 26.86,-60.633 h -170.27 l 45.13,-103.547 h 165.56 l 27.13,-60.632 h -165.84 l 60.91,-142.02 h 170.82 l 26.03,-60.629 h -236.99 l -44.85,102.16"
         style="fill:#ffffff;fill-opacity:1;fill-rule:nonzero;stroke:none"
         id="path34" />
      <path
         d="m 2284.6,3166.12 v 229.61 h -237.99 v -229.61 h 237.99"
         style="fill:#ffffff;fill-opacity:1;fill-rule:nonzero;stroke:none"
         id="path36" />
      <path
         d="m 3058.15,3166.12 v 229.61 h -237.99 v -229.61 h 237.99"
         style="fill:#ffffff;fill-opacity:1;fill-rule:nonzero;stroke:none"
         id="path38" />
      <path
         d="m 1276.79,3395.73 v -229.61 h 234.25 v 229.61 h -234.25"
         style="fill:#ffffff;fill-opacity:1;fill-rule:nonzero;stroke:none"
         id="path40" />
      <path
         d="m 3827.97,3166.12 v 229.61 h -234.25 v -229.61 h 234.25"
         style="fill:#ffffff;fill-opacity:1;fill-rule:nonzero;stroke:none"
         id="path42" />
      <path
         d="m 1276.79,2401.85 v -234.6 h 234.25 v 234.6 h -234.25"
         style="fill:#ffffff;fill-opacity:1;fill-rule:nonzero;stroke:none"
         id="path44" />
      <path
         d="m 2046.61,2401.85 v -234.6 h 237.99 v 234.6 h -237.99"
         style="fill:#ffffff;fill-opacity:1;fill-rule:nonzero;stroke:none"
         id="path46" />
      <path
         d="m 2820.16,2401.85 v -234.6 h 237.99 v 234.6 h -237.99"
         style="fill:#ffffff;fill-opacity:1;fill-rule:nonzero;stroke:none"
         id="path48" />
      <path
         d="m 3827.97,2167.25 v 234.6 h -234.25 v -234.6 h 234.25"
         style="fill:#ffffff;fill-opacity:1;fill-rule:nonzero;stroke:none"
         id="path50" />
      <path
         d="M 2769.14,3520.61 2550.55,3826.62 2335.62,3522 V 2041.68 h 433.52 v 1478.93"
         style="fill:#ffffff;fill-opacity:1;fill-rule:nonzero;stroke:none"
         id="path52" />
      <path
         d="M 3542.69,3520.61 3324.11,3826.62 3109.18,3522 V 2041.68 h 433.51 v 1478.93"
         style="fill:#ffffff;fill-opacity:1;fill-rule:nonzero;stroke:none"
         id="path54" />
      <path
         d="M 1995.58,3520.61 1777,3826.62 1562.07,3522 V 2041.68 h 433.51 v 1478.93"
         style="fill:#ffffff;fill-opacity:1;fill-rule:nonzero;stroke:none"
         id="path56" />
    </g>
  </g>
</svg>
