<?xml version="1.0" encoding="UTF-8" standalone="no"?>
<!-- Created with Inkscape (http://www.inkscape.org/) -->

<svg
   version="1.1"
   id="svg2"
   width="680.32001"
   height="680.32001"
   viewBox="0 0 680.32001 680.32001"
   sodipodi:docname="VAEGFLISER_rgb.eps"
   xmlns:inkscape="http://www.inkscape.org/namespaces/inkscape"
   xmlns:sodipodi="http://sodipodi.sourceforge.net/DTD/sodipodi-0.dtd"
   xmlns="http://www.w3.org/2000/svg"
   xmlns:svg="http://www.w3.org/2000/svg">
  <defs
     id="defs6" />
  <sodipodi:namedview
     id="namedview4"
     pagecolor="#ffffff"
     bordercolor="#000000"
     borderopacity="0.25"
     inkscape:showpageshadow="2"
     inkscape:pageopacity="0.0"
     inkscape:pagecheckerboard="0"
     inkscape:deskcolor="#d1d1d1" />
  <g
     id="g8"
     inkscape:groupmode="layer"
     inkscape:label="ink_ext_XXXXXX"
     transform="matrix(1.3333333,0,0,-1.3333333,0,680.32)">
    <g
       id="g10"
       transform="scale(0.1)">
      <path
         d="M 5102.36,0 H 0 V 5102.36 H 5102.36 V 0"
         style="fill:#21508c;fill-opacity:1;fill-rule:nonzero;stroke:none"
         id="path12" />
      <path
         d="m 1129.68,960.07 118.21,-296.238 119.88,296.238 h 70.6 L 1246.51,500.488 1059.08,960.07 h 70.6"
         style="fill:#ffffff;fill-opacity:1;fill-rule:nonzero;stroke:none"
         id="path14" />
      <path
         d="m 1646.12,695.398 -61.18,140.09 -65.89,-140.09 z m 25.75,-60.628 h -181.62 l -46.78,-102.161 h -70.6 l 205.42,427.461 h 189.1 l 26.85,-60.629 h -170.27 l 45.13,-103.55 h 165.56 l 27.13,-60.629 h -165.83 l 60.91,-142.024 h 170.81 l 26.03,-60.629 h -236.99 l -44.85,102.161"
         style="fill:#ffffff;fill-opacity:1;fill-rule:nonzero;stroke:none"
         id="path16" />
      <path
         d="m 2207.98,755.199 h 176.64 v -14.117 c 0,-32.121 -3.79,-60.543 -11.36,-85.273 -7.38,-22.887 -19.84,-44.297 -37.37,-64.231 -39.69,-44.668 -90.17,-67 -151.44,-67 -59.8,0 -111.02,21.594 -153.66,64.781 -42.63,43.371 -63.95,95.422 -63.95,156.153 0,62.008 21.69,114.617 65.06,157.797 43.37,43.382 96.16,65.07 158.36,65.07 33.41,0 64.6,-6.828 93.58,-20.488 27.69,-13.661 54.91,-35.813 81.67,-66.45 l -45.96,-44.019 c -35.07,46.699 -77.79,70.047 -128.18,70.047 -45.22,0 -83.15,-15.598 -113.79,-46.789 -30.64,-30.641 -45.96,-69.032 -45.96,-115.168 0,-47.621 17.07,-86.84 51.22,-117.672 31.93,-28.61 66.54,-42.91 103.82,-42.91 31.75,0 60.26,10.699 85.55,32.121 25.29,21.59 39.41,47.429 42.36,77.519 h -106.59 v 60.629"
         style="fill:#ffffff;fill-opacity:1;fill-rule:nonzero;stroke:none"
         id="path18" />
      <path
         d="M 2679.19,899.441 H 2530.24 V 796.73 h 143.69 V 736.09 H 2530.24 V 532.609 h -64.5 V 960.07 h 213.45 v -60.629"
         style="fill:#ffffff;fill-opacity:1;fill-rule:nonzero;stroke:none"
         id="path20" />
      <path
         d="M 2816.65,960.07 V 593.238 h 125.69 v -60.629 h -190.2 V 960.07 h 64.51"
         style="fill:#ffffff;fill-opacity:1;fill-rule:nonzero;stroke:none"
         id="path22" />
      <path
         d="M 3084.24,960.07 V 532.609 h -64.5 V 960.07 h 64.5"
         style="fill:#ffffff;fill-opacity:1;fill-rule:nonzero;stroke:none"
         id="path24" />
      <path
         d="m 3414.24,896.391 -52.32,-31 c -9.79,16.968 -19.11,28.05 -27.97,33.218 -9.23,5.903 -21.13,8.86 -35.71,8.86 -17.9,0 -32.77,-5.078 -44.57,-15.231 -11.82,-9.968 -17.72,-22.519 -17.72,-37.648 0,-20.86 15.5,-37.649 46.51,-50.391 l 42.63,-17.437 c 34.7,-14.032 60.08,-31.153 76.14,-51.364 16.06,-20.207 24.09,-44.988 24.09,-74.328 0,-39.32 -13.11,-71.8 -39.32,-97.461 -26.39,-25.839 -59.15,-38.757 -98.28,-38.757 -37.1,0 -67.74,10.976 -91.92,32.949 -23.81,21.961 -38.67,52.879 -44.57,92.75 l 65.34,14.39 c 2.95,-25.101 8.12,-42.453 15.5,-52.05 13.29,-18.461 32.67,-27.68 58.14,-27.68 20.11,0 36.82,6.73 50.11,20.211 13.29,13.469 19.93,30.539 19.93,51.219 0,8.3 -1.15,15.918 -3.45,22.839 -2.31,6.918 -5.91,13.29 -10.8,19.102 -4.9,5.809 -11.22,11.258 -18.97,16.34 -7.75,5.066 -16.98,9.91 -27.68,14.527 l -41.25,17.16 c -58.52,24.743 -87.77,60.911 -87.77,108.532 0,32.121 12.27,58.968 36.82,80.57 24.55,21.769 55.1,32.668 91.64,32.668 49.28,0 87.77,-24 115.45,-71.988"
         style="fill:#ffffff;fill-opacity:1;fill-rule:nonzero;stroke:none"
         id="path26" />
      <path
         d="M 3738.99,899.441 H 3567.62 V 796.73 h 166.39 V 736.09 H 3567.62 V 593.238 h 171.37 V 532.609 H 3503.11 V 960.07 h 235.88 v -60.629"
         style="fill:#ffffff;fill-opacity:1;fill-rule:nonzero;stroke:none"
         id="path28" />
      <path
         d="m 3879.21,763.781 h 20.49 c 61.09,0 91.64,23.348 91.64,70.039 0,43.75 -29.72,65.621 -89.15,65.621 h -22.98 z m 80.29,-49 132.34,-182.172 h -78.91 l -122.09,174.973 h -11.63 V 532.609 h -64.5 V 960.07 h 75.58 c 56.47,0 97.26,-10.621 122.37,-31.84 27.68,-23.628 41.53,-54.82 41.53,-93.582 0,-30.269 -8.68,-56.289 -26.03,-78.07 -17.35,-21.777 -40.24,-35.707 -68.66,-41.797"
         style="fill:#ffffff;fill-opacity:1;fill-rule:nonzero;stroke:none"
         id="path30" />
      <path
         d="m 2168.47,3877.84 h -663.31 v -663.31 h 663.31 v 663.31"
         style="fill:#ffffff;fill-opacity:1;fill-rule:nonzero;stroke:none"
         id="path32" />
      <path
         d="m 2882.8,3877.84 h -663.31 v -663.31 h 663.31 v 663.31"
         style="fill:#ffffff;fill-opacity:1;fill-rule:nonzero;stroke:none"
         id="path34" />
      <path
         d="m 3597.13,3877.84 h -663.31 v -663.31 h 663.31 v 663.31"
         style="fill:#ffffff;fill-opacity:1;fill-rule:nonzero;stroke:none"
         id="path36" />
      <path
         d="M 2168.47,3163.51 H 1505.16 V 2500.2 h 663.31 v 663.31"
         style="fill:#ffffff;fill-opacity:1;fill-rule:nonzero;stroke:none"
         id="path38" />
      <path
         d="M 2882.8,3163.51 H 2219.49 V 2500.2 h 663.31 v 663.31"
         style="fill:#ffffff;fill-opacity:1;fill-rule:nonzero;stroke:none"
         id="path40" />
      <path
         d="m 2168.47,2449.18 h -663.31 v -663.31 h 663.31 v 663.31"
         style="fill:#ffffff;fill-opacity:1;fill-rule:nonzero;stroke:none"
         id="path42" />
    </g>
  </g>
</svg>
