<?xml version="1.0" encoding="UTF-8" standalone="no"?>
<!-- Created with Inkscape (http://www.inkscape.org/) -->

<svg
   version="1.1"
   id="svg2"
   width="680.32001"
   height="680.32001"
   viewBox="0 0 680.32001 680.32001"
   sodipodi:docname="VALGPLAKATER_rgb.icon.svg"
   inkscape:version="1.3.2 (091e20e, 2023-11-25, custom)"
   xmlns:inkscape="http://www.inkscape.org/namespaces/inkscape"
   xmlns:sodipodi="http://sodipodi.sourceforge.net/DTD/sodipodi-0.dtd"
   xmlns="http://www.w3.org/2000/svg"
   xmlns:svg="http://www.w3.org/2000/svg">
  <defs
     id="defs6" />
  <sodipodi:namedview
     id="namedview4"
     pagecolor="#ffffff"
     bordercolor="#000000"
     borderopacity="0.25"
     inkscape:showpageshadow="2"
     inkscape:pageopacity="0.0"
     inkscape:pagecheckerboard="0"
     inkscape:deskcolor="#d1d1d1"
     showgrid="false"
     inkscape:zoom="1.6859713"
     inkscape:cx="340.16"
     inkscape:cy="340.16"
     inkscape:window-width="2560"
     inkscape:window-height="1361"
     inkscape:window-x="2551"
     inkscape:window-y="-9"
     inkscape:window-maximized="1"
     inkscape:current-layer="g8" />
  <g
     id="g8"
     inkscape:groupmode="layer"
     inkscape:label="ink_ext_XXXXXX"
     transform="matrix(1.3333333,0,0,-1.3333333,0,680.32)">
    <g
       id="g10"
       transform="scale(0.1)">
      <path
         d="M 5102.36,0 H 0 V 5102.36 H 5102.36 V 0"
         style="fill:#8d1b90;fill-opacity:1;fill-rule:nonzero;stroke:none"
         id="path12" />
      <path
         d="m 1909.39,1704.44 v 495.51 h 0.01 c 0.01,2.31 0.06,4.62 0.14,6.92 0.01,0.42 0.02,0.85 0.04,1.28 0.08,2.23 0.18,4.45 0.32,6.67 0.02,0.39 0.05,0.79 0.08,1.18 0.14,2.2 0.31,4.4 0.51,6.59 0.01,0.12 0.02,0.24 0.03,0.35 0.21,2.27 0.46,4.53 0.73,6.78 0.05,0.43 0.1,0.86 0.15,1.28 0.27,2.22 0.57,4.43 0.9,6.63 0.05,0.32 0.1,0.64 0.15,0.97 0.33,2.14 0.69,4.28 1.07,6.42 0.03,0.2 0.06,0.39 0.1,0.58 0.4,2.23 0.84,4.46 1.3,6.68 0.08,0.4 0.16,0.8 0.25,1.19 0.47,2.22 0.96,4.43 1.48,6.63 0.06,0.22 0.11,0.44 0.16,0.66 0.52,2.15 1.06,4.29 1.63,6.42 0.07,0.23 0.12,0.47 0.19,0.7 0.59,2.2 1.22,4.4 1.87,6.6 0.1,0.35 0.21,0.7 0.31,1.06 0.67,2.22 1.36,4.45 2.09,6.66 0.02,0.07 0.05,0.14 0.07,0.22 0.73,2.21 1.49,4.41 2.27,6.61 0.09,0.23 0.17,0.46 0.25,0.69 0.79,2.2 1.61,4.39 2.45,6.57 0.11,0.28 0.22,0.57 0.33,0.85 1.75,4.48 3.61,8.92 5.59,13.34 0.1,0.21 0.19,0.43 0.29,0.64 0.98,2.19 2,4.37 3.04,6.54 0.1,0.2 0.19,0.41 0.29,0.61 2.14,4.44 4.4,8.84 6.77,13.21 0.1,0.19 0.19,0.37 0.29,0.55 1.19,2.18 2.41,4.36 3.65,6.52 0.06,0.11 0.12,0.21 0.18,0.31 2.54,4.42 5.2,8.79 7.97,13.13 0.1,0.15 0.19,0.29 0.28,0.44 4.23,6.6 8.73,13.12 13.48,19.54 0.07,0.1 0.15,0.2 0.22,0.3 4.79,6.46 9.83,12.83 15.13,19.1 0.04,0.06 0.09,0.12 0.14,0.18 5.33,6.3 10.92,12.51 16.75,18.61 0.01,0.02 0.02,0.03 0.04,0.05 69.04,72.28 172.34,129.91 295.44,163.72 -15.03,23.16 -30.9,45.6 -46.53,68.44 h 0.02 c -50.24,64.92 -80.19,146.55 -80.19,235.24 0,211.53 170.27,383 380.3,383 210.03,0 380.3,-171.47 380.3,-383 0,-88.69 -29.95,-170.32 -80.19,-235.24 h 0.05 c -15.64,-22.85 -31.51,-45.29 -46.54,-68.45 123.09,-33.81 226.38,-91.43 295.42,-163.71 0.02,-0.02 0.03,-0.03 0.04,-0.05 5.83,-6.1 11.42,-12.31 16.75,-18.61 0.05,-0.06 0.09,-0.12 0.14,-0.18 5.3,-6.27 10.34,-12.64 15.13,-19.1 0.07,-0.1 0.15,-0.2 0.22,-0.3 4.75,-6.42 9.25,-12.94 13.48,-19.54 0.09,-0.15 0.18,-0.29 0.27,-0.44 2.78,-4.34 5.44,-8.71 7.98,-13.13 0.06,-0.1 0.12,-0.2 0.18,-0.31 1.24,-2.16 2.46,-4.34 3.64,-6.52 0.1,-0.18 0.2,-0.36 0.3,-0.55 2.37,-4.37 4.63,-8.77 6.77,-13.21 0.09,-0.2 0.19,-0.41 0.29,-0.61 1.04,-2.17 2.06,-4.35 3.04,-6.54 0.1,-0.21 0.19,-0.43 0.29,-0.64 1.98,-4.42 3.84,-8.86 5.59,-13.34 0.11,-0.28 0.22,-0.57 0.33,-0.85 0.84,-2.18 1.66,-4.37 2.45,-6.57 0.08,-0.23 0.16,-0.46 0.25,-0.69 0.78,-2.2 1.54,-4.4 2.27,-6.61 0.02,-0.08 0.04,-0.15 0.07,-0.22 0.72,-2.21 1.42,-4.44 2.08,-6.66 0.11,-0.36 0.22,-0.71 0.32,-1.06 0.65,-2.2 1.28,-4.4 1.87,-6.6 0.06,-0.23 0.12,-0.47 0.18,-0.7 0.57,-2.13 1.12,-4.27 1.63,-6.42 0.06,-0.22 0.11,-0.44 0.17,-0.66 0.52,-2.2 1.01,-4.41 1.48,-6.63 0.09,-0.39 0.17,-0.79 0.25,-1.19 0.46,-2.22 0.9,-4.45 1.3,-6.68 0.04,-0.19 0.07,-0.38 0.1,-0.58 0.38,-2.14 0.74,-4.28 1.07,-6.42 0.04,-0.33 0.1,-0.65 0.15,-0.97 0.33,-2.2 0.62,-4.41 0.9,-6.63 0.05,-0.42 0.1,-0.85 0.15,-1.28 0.27,-2.25 0.52,-4.51 0.73,-6.78 0.01,-0.11 0.02,-0.23 0.03,-0.35 0.2,-2.19 0.36,-4.39 0.51,-6.59 0.03,-0.39 0.05,-0.79 0.08,-1.18 0.13,-2.22 0.24,-4.44 0.32,-6.67 0.02,-0.43 0.03,-0.86 0.04,-1.28 0.07,-2.3 0.13,-4.61 0.14,-6.92 h 0.01 v -1.31 -314.18 -180.02 -77.82 -41.32 H 1909.39 v 41.32 z M 2869,3932.34 h 137.21 l 57.83,-110.56 71.45,110.56 h 137.21 l -141.18,-199.58 159.32,-227.94 h -135.51 l -85.62,139.49 -100.36,-139.49 h -134.38 l 167.27,227.94 z M 1658.47,4085.46 V 1534.27 H 3444.3 v 0 2551.19 H 1658.47"
         style="fill:#ffffff;fill-opacity:1;fill-rule:nonzero;stroke:none"
         id="path38" />
    </g>
  </g>
</svg>
