<?xml version="1.0" encoding="UTF-8" standalone="no"?>
<!-- Created with Inkscape (http://www.inkscape.org/) -->

<svg
   version="1.1"
   id="svg2"
   width="680.32001"
   height="680.32001"
   viewBox="0 0 680.32001 680.32001"
   sodipodi:docname="VALGPLAKATER_rgb.eps"
   xmlns:inkscape="http://www.inkscape.org/namespaces/inkscape"
   xmlns:sodipodi="http://sodipodi.sourceforge.net/DTD/sodipodi-0.dtd"
   xmlns="http://www.w3.org/2000/svg"
   xmlns:svg="http://www.w3.org/2000/svg">
  <defs
     id="defs6" />
  <sodipodi:namedview
     id="namedview4"
     pagecolor="#ffffff"
     bordercolor="#000000"
     borderopacity="0.25"
     inkscape:showpageshadow="2"
     inkscape:pageopacity="0.0"
     inkscape:pagecheckerboard="0"
     inkscape:deskcolor="#d1d1d1" />
  <g
     id="g8"
     inkscape:groupmode="layer"
     inkscape:label="ink_ext_XXXXXX"
     transform="matrix(1.3333333,0,0,-1.3333333,0,680.32)">
    <g
       id="g10"
       transform="scale(0.1)">
      <path
         d="M 5102.36,0 H 0 V 5102.36 H 5102.36 V 0"
         style="fill:#8d1b90;fill-opacity:1;fill-rule:nonzero;stroke:none"
         id="path12" />
      <path
         d="M 538.504,963 656.723,666.762 776.602,963 h 70.597 L 655.34,503.422 467.906,963 h 70.598"
         style="fill:#ffffff;fill-opacity:1;fill-rule:nonzero;stroke:none"
         id="path14" />
      <path
         d="m 1069.65,699.98 -63.4,145.348 -66.449,-145.348 z m 26.3,-60.628 H 912.945 L 865.328,535.531 H 795.836 L 1007.35,989.852 1211.4,535.531 h -70.6 l -44.85,103.821"
         style="fill:#ffffff;fill-opacity:1;fill-rule:nonzero;stroke:none"
         id="path16" />
      <path
         d="M 1329.34,963 V 596.16 h 125.69 v -60.629 h -190.2 V 963 h 64.51"
         style="fill:#ffffff;fill-opacity:1;fill-rule:nonzero;stroke:none"
         id="path18" />
      <path
         d="m 1717.21,758.121 h 176.64 V 744 c 0,-32.109 -3.79,-60.539 -11.35,-85.27 -7.39,-22.89 -19.85,-44.289 -37.38,-64.23 -39.69,-44.668 -90.16,-67 -151.44,-67 -59.8,0 -111.02,21.602 -153.66,64.789 -42.63,43.371 -63.95,95.422 -63.95,156.141 0,62.019 21.69,114.621 65.06,157.808 43.37,43.371 96.16,65.063 158.36,65.063 33.41,0 64.6,-6.832 93.58,-20.481 27.69,-13.672 54.91,-35.808 81.67,-66.449 l -45.95,-44.019 c -35.07,46.687 -77.8,70.039 -128.19,70.039 -45.22,0 -83.15,-15.602 -113.79,-46.782 -30.64,-30.64 -45.95,-69.039 -45.95,-115.179 0,-47.61 17.07,-86.84 51.21,-117.66 31.93,-28.61 66.54,-42.911 103.82,-42.911 31.75,0 60.26,10.7 85.55,32.11 25.29,21.601 39.41,47.441 42.36,77.519 h -106.59 v 60.633"
         style="fill:#ffffff;fill-opacity:1;fill-rule:nonzero;stroke:none"
         id="path20" />
      <path
         d="m 2025.07,768.922 h 24.09 c 59.25,0 88.87,22.797 88.87,68.379 0,44.121 -30.55,66.168 -91.64,66.168 h -21.32 z m 0,-59.801 v -173.59 h -64.51 V 963 h 73.09 c 35.81,0 62.85,-2.5 81.12,-7.48 18.46,-4.981 34.7,-14.399 48.73,-28.239 24.55,-23.992 36.82,-54.261 36.82,-90.812 0,-39.129 -13.11,-70.137 -39.31,-93.02 -26.21,-22.89 -61.56,-34.328 -106.04,-34.328 h -29.9"
         style="fill:#ffffff;fill-opacity:1;fill-rule:nonzero;stroke:none"
         id="path22" />
      <path
         d="M 2325.87,963 V 596.16 h 125.7 v -60.629 h -190.2 V 963 h 64.5"
         style="fill:#ffffff;fill-opacity:1;fill-rule:nonzero;stroke:none"
         id="path24" />
      <path
         d="m 2781.17,699.98 -63.4,145.348 -66.45,-145.348 z m 26.3,-60.628 h -183 l -47.62,-103.821 h -69.49 l 211.52,454.321 204.04,-454.321 h -70.6 l -44.85,103.821"
         style="fill:#ffffff;fill-opacity:1;fill-rule:nonzero;stroke:none"
         id="path26" />
      <path
         d="M 3040.86,792.449 3207.25,963 h 86.1 L 3100.11,769.48 3294.46,535.531 h -86.38 l -153.93,190.199 -13.29,-13.289 v -176.91 h -64.5 V 963 h 64.5 V 792.449"
         style="fill:#ffffff;fill-opacity:1;fill-rule:nonzero;stroke:none"
         id="path28" />
      <path
         d="m 3620.06,699.98 -63.41,145.348 -66.44,-145.348 z m 26.3,-60.628 h -183.01 l -47.62,-103.821 h -69.49 l 211.52,454.321 204.04,-454.321 h -70.59 l -44.85,103.821"
         style="fill:#ffffff;fill-opacity:1;fill-rule:nonzero;stroke:none"
         id="path30" />
      <path
         d="m 3887.77,902.371 v -366.84 h -64.51 v 366.84 h -98.28 V 963 h 260.79 v -60.629 h -98"
         style="fill:#ffffff;fill-opacity:1;fill-rule:nonzero;stroke:none"
         id="path32" />
      <path
         d="M 4279.24,902.371 H 4107.87 V 799.648 h 166.39 V 739.02 H 4107.87 V 596.16 h 171.37 V 535.531 H 4043.36 V 963 h 235.88 v -60.629"
         style="fill:#ffffff;fill-opacity:1;fill-rule:nonzero;stroke:none"
         id="path34" />
      <path
         d="m 4417.67,766.711 h 20.49 c 61.08,0 91.63,23.34 91.63,70.039 0,43.738 -29.71,65.621 -89.14,65.621 h -22.98 z m 80.29,-49.012 132.33,-182.168 h -78.9 L 4429.3,710.5 h -11.63 V 535.531 h -64.51 V 963 h 75.58 c 56.48,0 97.27,-10.621 122.37,-31.84 27.69,-23.629 41.53,-54.82 41.53,-93.578 0,-30.273 -8.68,-56.293 -26.02,-78.07 -17.36,-21.782 -40.24,-35.723 -68.66,-41.813"
         style="fill:#ffffff;fill-opacity:1;fill-rule:nonzero;stroke:none"
         id="path36" />
      <path
         d="m 1909.39,1704.44 v 495.51 h 0.01 c 0.01,2.31 0.06,4.62 0.14,6.92 0.01,0.42 0.02,0.85 0.04,1.28 0.08,2.23 0.18,4.45 0.32,6.67 0.02,0.39 0.05,0.79 0.08,1.18 0.14,2.2 0.31,4.4 0.51,6.59 0.01,0.12 0.02,0.24 0.03,0.35 0.21,2.27 0.46,4.53 0.73,6.78 0.05,0.43 0.1,0.86 0.15,1.28 0.27,2.22 0.57,4.43 0.9,6.63 0.05,0.32 0.1,0.64 0.15,0.97 0.33,2.14 0.69,4.28 1.07,6.42 0.03,0.2 0.06,0.39 0.1,0.58 0.4,2.23 0.84,4.46 1.3,6.68 0.08,0.4 0.16,0.8 0.25,1.19 0.47,2.22 0.96,4.43 1.48,6.63 0.06,0.22 0.11,0.44 0.16,0.66 0.52,2.15 1.06,4.29 1.63,6.42 0.07,0.23 0.12,0.47 0.19,0.7 0.59,2.2 1.22,4.4 1.87,6.6 0.1,0.35 0.21,0.7 0.31,1.06 0.67,2.22 1.36,4.45 2.09,6.66 0.02,0.07 0.05,0.14 0.07,0.22 0.73,2.21 1.49,4.41 2.27,6.61 0.09,0.23 0.17,0.46 0.25,0.69 0.79,2.2 1.61,4.39 2.45,6.57 0.11,0.28 0.22,0.57 0.33,0.85 1.75,4.48 3.61,8.92 5.59,13.34 0.1,0.21 0.19,0.43 0.29,0.64 0.98,2.19 2,4.37 3.04,6.54 0.1,0.2 0.19,0.41 0.29,0.61 2.14,4.44 4.4,8.84 6.77,13.21 0.1,0.19 0.19,0.37 0.29,0.55 1.19,2.18 2.41,4.36 3.65,6.52 0.06,0.11 0.12,0.21 0.18,0.31 2.54,4.42 5.2,8.79 7.97,13.13 0.1,0.15 0.19,0.29 0.28,0.44 4.23,6.6 8.73,13.12 13.48,19.54 0.07,0.1 0.15,0.2 0.22,0.3 4.79,6.46 9.83,12.83 15.13,19.1 0.04,0.06 0.09,0.12 0.14,0.18 5.33,6.3 10.92,12.51 16.75,18.61 0.01,0.02 0.02,0.03 0.04,0.05 69.04,72.28 172.34,129.91 295.44,163.72 -15.03,23.16 -30.9,45.6 -46.53,68.44 h 0.02 c -50.24,64.92 -80.19,146.55 -80.19,235.24 0,211.53 170.27,383 380.3,383 210.03,0 380.3,-171.47 380.3,-383 0,-88.69 -29.95,-170.32 -80.19,-235.24 h 0.05 c -15.64,-22.85 -31.51,-45.29 -46.54,-68.45 123.09,-33.81 226.38,-91.43 295.42,-163.71 0.02,-0.02 0.03,-0.03 0.04,-0.05 5.83,-6.1 11.42,-12.31 16.75,-18.61 0.05,-0.06 0.09,-0.12 0.14,-0.18 5.3,-6.27 10.34,-12.64 15.13,-19.1 0.07,-0.1 0.15,-0.2 0.22,-0.3 4.75,-6.42 9.25,-12.94 13.48,-19.54 0.09,-0.15 0.18,-0.29 0.27,-0.44 2.78,-4.34 5.44,-8.71 7.98,-13.13 0.06,-0.1 0.12,-0.2 0.18,-0.31 1.24,-2.16 2.46,-4.34 3.64,-6.52 0.1,-0.18 0.2,-0.36 0.3,-0.55 2.37,-4.37 4.63,-8.77 6.77,-13.21 0.09,-0.2 0.19,-0.41 0.29,-0.61 1.04,-2.17 2.06,-4.35 3.04,-6.54 0.1,-0.21 0.19,-0.43 0.29,-0.64 1.98,-4.42 3.84,-8.86 5.59,-13.34 0.11,-0.28 0.22,-0.57 0.33,-0.85 0.84,-2.18 1.66,-4.37 2.45,-6.57 0.08,-0.23 0.16,-0.46 0.25,-0.69 0.78,-2.2 1.54,-4.4 2.27,-6.61 0.02,-0.08 0.04,-0.15 0.07,-0.22 0.72,-2.21 1.42,-4.44 2.08,-6.66 0.11,-0.36 0.22,-0.71 0.32,-1.06 0.65,-2.2 1.28,-4.4 1.87,-6.6 0.06,-0.23 0.12,-0.47 0.18,-0.7 0.57,-2.13 1.12,-4.27 1.63,-6.42 0.06,-0.22 0.11,-0.44 0.17,-0.66 0.52,-2.2 1.01,-4.41 1.48,-6.63 0.09,-0.39 0.17,-0.79 0.25,-1.19 0.46,-2.22 0.9,-4.45 1.3,-6.68 0.04,-0.19 0.07,-0.38 0.1,-0.58 0.38,-2.14 0.74,-4.28 1.07,-6.42 0.04,-0.33 0.1,-0.65 0.15,-0.97 0.33,-2.2 0.62,-4.41 0.9,-6.63 0.05,-0.42 0.1,-0.85 0.15,-1.28 0.27,-2.25 0.52,-4.51 0.73,-6.78 0.01,-0.11 0.02,-0.23 0.03,-0.35 0.2,-2.19 0.36,-4.39 0.51,-6.59 0.03,-0.39 0.05,-0.79 0.08,-1.18 0.13,-2.22 0.24,-4.44 0.32,-6.67 0.02,-0.43 0.03,-0.86 0.04,-1.28 0.07,-2.3 0.13,-4.61 0.14,-6.92 h 0.01 v -1.31 -314.18 -180.02 -77.82 -41.32 H 1909.39 v 41.32 z M 2869,3932.34 h 137.21 l 57.83,-110.56 71.45,110.56 h 137.21 l -141.18,-199.58 159.32,-227.94 h -135.51 l -85.62,139.49 -100.36,-139.49 h -134.38 l 167.27,227.94 z M 1658.47,4085.46 V 1534.27 H 3444.3 v 0 2551.19 H 1658.47"
         style="fill:#ffffff;fill-opacity:1;fill-rule:nonzero;stroke:none"
         id="path38" />
    </g>
  </g>
</svg>
