<?xml version="1.0" encoding="UTF-8" standalone="no"?>
<!-- Created with Inkscape (http://www.inkscape.org/) -->

<svg
   version="1.1"
   id="svg2"
   width="680.32001"
   height="680.32001"
   viewBox="0 0 680.32001 680.32001"
   sodipodi:docname="VHS-_&amp;_KASSETTEBAAND_rgb.eps"
   xmlns:inkscape="http://www.inkscape.org/namespaces/inkscape"
   xmlns:sodipodi="http://sodipodi.sourceforge.net/DTD/sodipodi-0.dtd"
   xmlns="http://www.w3.org/2000/svg"
   xmlns:svg="http://www.w3.org/2000/svg">
  <defs
     id="defs6" />
  <sodipodi:namedview
     id="namedview4"
     pagecolor="#ffffff"
     bordercolor="#000000"
     borderopacity="0.25"
     inkscape:showpageshadow="2"
     inkscape:pageopacity="0.0"
     inkscape:pagecheckerboard="0"
     inkscape:deskcolor="#d1d1d1" />
  <g
     id="g8"
     inkscape:groupmode="layer"
     inkscape:label="ink_ext_XXXXXX"
     transform="matrix(1.3333333,0,0,-1.3333333,0,680.32)">
    <g
       id="g10"
       transform="scale(0.1)">
      <path
         d="M 5102.36,0 H 0 V 5102.36 H 5102.36 V 0"
         style="fill:#8d1c90;fill-opacity:1;fill-rule:nonzero;stroke:none"
         id="path12" />
      <path
         d="m 1701.45,1499.35 118.22,-296.23 119.87,296.23 h 70.61 l -191.87,-459.58 -187.43,459.58 h 70.6"
         style="fill:#ffffff;fill-opacity:1;fill-rule:nonzero;stroke:none"
         id="path14" />
      <path
         d="M 2138.62,1332.14 H 2323 v 167.21 h 64.51 V 1071.89 H 2323 v 199.61 h -184.38 v -199.61 h -64.51 v 427.46 h 64.51 v -167.21"
         style="fill:#ffffff;fill-opacity:1;fill-rule:nonzero;stroke:none"
         id="path16" />
      <path
         d="m 2720.83,1435.68 -52.33,-31 c -9.78,16.97 -19.1,28.04 -27.95,33.22 -9.24,5.9 -21.15,8.86 -35.72,8.86 -17.91,0 -32.76,-5.08 -44.58,-15.23 -11.81,-9.97 -17.71,-22.52 -17.71,-37.66 0,-20.85 15.5,-37.65 46.51,-50.39 l 42.64,-17.44 c 34.7,-14.02 60.08,-31.14 76.13,-51.35 16.06,-20.21 24.08,-45 24.08,-74.34 0,-39.31 -13.1,-71.8 -39.3,-97.45 -26.4,-25.84 -59.16,-38.76 -98.29,-38.76 -37.1,0 -67.74,10.97 -91.91,32.95 -23.82,21.96 -38.68,52.88 -44.58,92.74 l 65.34,14.4 c 2.95,-25.1 8.12,-42.46 15.5,-52.05 13.29,-18.46 32.67,-27.69 58.15,-27.69 20.1,0 36.81,6.74 50.1,20.21 13.29,13.47 19.93,30.55 19.93,51.23 0,8.3 -1.15,15.91 -3.45,22.84 -2.32,6.91 -5.91,13.28 -10.8,19.1 -4.9,5.81 -11.21,11.25 -18.97,16.33 -7.75,5.07 -16.98,9.92 -27.68,14.54 l -41.25,17.16 c -58.51,24.73 -87.77,60.9 -87.77,108.53 0,32.11 12.28,58.97 36.82,80.57 24.55,21.77 55.1,32.66 91.64,32.66 49.29,0 87.76,-23.99 115.45,-71.98"
         style="fill:#ffffff;fill-opacity:1;fill-rule:nonzero;stroke:none"
         id="path18" />
      <path
         d="m 2778.3,1304.51 h 123.48 v -54.27 H 2778.3 v 54.27"
         style="fill:#ffffff;fill-opacity:1;fill-rule:nonzero;stroke:none"
         id="path20" />
      <path
         d="m 3238.83,1355.11 5.26,3.88 c 9.04,6.83 16.51,12.78 22.42,17.85 5.91,5.08 10.16,9.37 12.74,12.88 5.53,6.83 8.31,15.23 8.31,25.2 0,11.25 -3.79,20.39 -11.35,27.4 -7.58,7.01 -17.72,10.53 -30.46,10.53 -11.63,0 -21.42,-3.6 -29.34,-10.8 -7.94,-6.84 -11.91,-15.6 -11.91,-26.3 0,-12.56 4.98,-24.92 14.95,-37.1 l 16.06,-19.38 c 0.55,-0.93 1.66,-2.31 3.32,-4.16 z m -13.84,-81.67 -3.6,-2.49 c -26.4,-18.28 -44.39,-32.94 -53.99,-44.02 -9.41,-11.07 -14.12,-22.79 -14.12,-35.16 0,-17.72 7.11,-33.96 21.32,-48.73 14.76,-14.21 31,-21.31 48.73,-21.31 24.91,0 53.61,16.33 86.1,49 z m 51.22,36.27 76.96,-93.02 2.49,2.76 c 8.31,9.04 16.16,17.91 23.54,26.58 7.37,8.67 14.48,17.44 21.32,26.3 l 42.08,-43.18 c -5.17,-7.38 -11.96,-15.97 -20.36,-25.75 -8.39,-9.79 -18.4,-21.04 -30.03,-33.78 l 79.18,-97.73 h -80.29 l -42.63,52.33 c -39.14,-40.42 -79.84,-60.64 -122.09,-60.64 -37.85,0 -69.97,12.09 -96.35,36.27 -25.85,24.37 -38.76,54.45 -38.76,90.26 0,42.63 20.49,78.07 61.45,106.31 l 27.97,19.1 c 0.37,0.19 1.01,0.65 1.94,1.39 0.92,0.73 2.21,1.75 3.87,3.05 -28.24,30.08 -42.35,59.7 -42.35,88.87 0,28.78 9.41,52.22 28.23,70.32 19.2,18.08 43.93,27.13 74.2,27.13 29.35,0 53.61,-8.77 72.81,-26.3 19.2,-17.54 28.8,-39.69 28.8,-66.45 0,-18.45 -5.26,-35.16 -15.78,-50.11 -10.34,-14.95 -29.07,-32.86 -56.2,-53.71"
         style="fill:#ffffff;fill-opacity:1;fill-rule:nonzero;stroke:none"
         id="path22" />
      <path
         d="m 519.422,790.5 166.391,170.531 h 86.101 L 578.672,767.512 773.02,533.57 H 686.645 L 532.711,723.77 519.422,710.48 V 533.57 h -64.504 v 427.461 h 64.504 V 790.5"
         style="fill:#ffffff;fill-opacity:1;fill-rule:nonzero;stroke:none"
         id="path24" />
      <path
         d="m 1080.63,698.02 -63.4,145.351 -66.445,-145.351 z m 26.3,-60.629 h -183 L 876.313,533.57 H 806.82 l 211.52,454.321 204.04,-454.321 h -70.6 l -44.85,103.821"
         style="fill:#ffffff;fill-opacity:1;fill-rule:nonzero;stroke:none"
         id="path26" />
      <path
         d="m 1510.3,897.359 -52.32,-31.007 c -9.79,16.976 -19.1,28.046 -27.97,33.218 -9.23,5.91 -21.13,8.871 -35.71,8.871 -17.9,0 -32.76,-5.082 -44.57,-15.242 -11.82,-9.961 -17.72,-22.519 -17.72,-37.648 0,-20.86 15.5,-37.653 46.51,-50.391 l 42.64,-17.441 c 34.69,-14.028 60.07,-31.141 76.13,-51.36 16.06,-20.211 24.09,-44.988 24.09,-74.328 0,-39.32 -13.11,-71.801 -39.32,-97.453 -26.39,-25.84 -59.15,-38.758 -98.28,-38.758 -37.1,0 -67.74,10.969 -91.92,32.95 -23.8,21.949 -38.66,52.871 -44.57,92.742 l 65.34,14.398 c 2.95,-25.109 8.12,-42.461 15.5,-52.051 13.29,-18.461 32.67,-27.687 58.14,-27.687 20.12,0 36.82,6.738 50.11,20.207 13.29,13.473 19.94,30.551 19.94,51.23 0,8.301 -1.16,15.911 -3.46,22.832 -2.31,6.918 -5.91,13.289 -10.8,19.098 -4.89,5.82 -11.22,11.262 -18.97,16.34 -7.75,5.07 -16.98,9.922 -27.68,14.543 l -41.25,17.16 c -58.52,24.727 -87.76,60.898 -87.76,108.52 0,32.117 12.27,58.98 36.82,80.57 24.54,21.769 55.09,32.668 91.63,32.668 49.28,0 87.77,-24 115.45,-71.981"
         style="fill:#ffffff;fill-opacity:1;fill-rule:nonzero;stroke:none"
         id="path28" />
      <path
         d="m 1840.87,897.359 -52.33,-31.007 c -9.78,16.976 -19.1,28.046 -27.96,33.218 -9.23,5.91 -21.14,8.871 -35.71,8.871 -17.91,0 -32.77,-5.082 -44.58,-15.242 -11.81,-9.961 -17.72,-22.519 -17.72,-37.648 0,-20.86 15.51,-37.653 46.52,-50.391 l 42.63,-17.441 c 34.7,-14.028 60.08,-31.141 76.14,-51.36 16.05,-20.211 24.08,-44.988 24.08,-74.328 0,-39.32 -13.1,-71.801 -39.31,-97.453 -26.4,-25.84 -59.16,-38.758 -98.29,-38.758 -37.1,0 -67.73,10.969 -91.91,32.95 -23.81,21.949 -38.67,52.871 -44.57,92.742 l 65.33,14.398 c 2.96,-25.109 8.12,-42.461 15.51,-52.051 13.29,-18.461 32.67,-27.687 58.14,-27.687 20.11,0 36.82,6.738 50.11,20.207 13.29,13.473 19.93,30.551 19.93,51.23 0,8.301 -1.15,15.911 -3.46,22.832 -2.31,6.918 -5.91,13.289 -10.8,19.098 -4.89,5.82 -11.21,11.262 -18.96,16.34 -7.75,5.07 -16.99,9.922 -27.68,14.543 l -41.26,17.16 c -58.51,24.727 -87.76,60.898 -87.76,108.52 0,32.117 12.27,58.98 36.82,80.57 24.54,21.769 55.1,32.668 91.64,32.668 49.28,0 87.76,-24 115.45,-71.981"
         style="fill:#ffffff;fill-opacity:1;fill-rule:nonzero;stroke:none"
         id="path30" />
      <path
         d="M 2149.41,900.398 H 1978.04 V 797.691 h 166.39 v -60.632 h -166.39 v -142.86 h 171.37 V 533.57 h -235.88 v 427.461 h 235.88 v -60.633"
         style="fill:#ffffff;fill-opacity:1;fill-rule:nonzero;stroke:none"
         id="path32" />
      <path
         d="M 2375.48,900.398 V 533.57 h -64.5 v 366.828 h -98.29 v 60.633 h 260.8 v -60.633 h -98.01"
         style="fill:#ffffff;fill-opacity:1;fill-rule:nonzero;stroke:none"
         id="path34" />
      <path
         d="M 2668.83,900.398 V 533.57 h -64.51 v 366.828 h -98.28 v 60.633 h 260.79 v -60.633 h -98"
         style="fill:#ffffff;fill-opacity:1;fill-rule:nonzero;stroke:none"
         id="path36" />
      <path
         d="M 3065.7,900.398 H 2894.33 V 797.691 h 166.39 V 737.059 H 2894.33 V 594.199 H 3065.7 V 533.57 h -235.88 v 427.461 h 235.88 v -60.633"
         style="fill:#ffffff;fill-opacity:1;fill-rule:nonzero;stroke:none"
         id="path38" />
      <path
         d="m 3196.92,594.199 h 39.87 c 29.16,0 50.56,5.723 64.22,17.16 14.4,12.371 21.61,28.063 21.61,47.082 0,18.438 -6.93,33.95 -20.78,46.5 -13.46,12.36 -37.55,18.547 -72.25,18.547 h -32.67 z m 0,183.281 h 20.21 c 23.99,0 41.57,5.301 52.74,15.918 11.16,10.614 16.75,26.262 16.75,46.93 0,20.113 -5.72,35.383 -17.17,45.813 -11.44,10.429 -28.05,15.64 -49.83,15.64 h -22.7 z m -64.51,-243.91 v 427.461 h 64.23 c 28.61,0 51.41,-2.211 68.39,-6.64 17.16,-4.43 31.65,-11.903 43.46,-22.43 12,-10.891 21.5,-24.449 28.52,-40.691 7.2,-16.43 10.79,-33.04 10.79,-49.84 0,-30.641 -11.72,-56.571 -35.15,-77.789 22.7,-7.75 40.6,-21.321 53.71,-40.7 13.29,-19.203 19.93,-41.531 19.93,-67 0,-33.41 -11.82,-61.652 -35.44,-84.722 -14.21,-14.207 -30.18,-24.078 -47.89,-29.617 -19.39,-5.364 -43.65,-8.032 -72.81,-8.032 h -97.74"
         style="fill:#ffffff;fill-opacity:1;fill-rule:nonzero;stroke:none"
         id="path40" />
      <path
         d="m 3595.17,1060.7 c 0,-7.94 2.63,-14.53 7.9,-19.79 5.26,-5.27 11.76,-7.89 19.52,-7.89 7.74,0 14.25,2.62 19.51,7.89 5.26,5.26 7.89,11.76 7.89,19.52 0,7.75 -2.63,14.26 -7.89,19.51 -5.26,5.26 -11.77,7.89 -19.51,7.89 -3.88,0 -7.48,-0.73 -10.8,-2.21 -3.32,-1.48 -6.23,-3.46 -8.72,-5.95 -2.5,-2.49 -4.44,-5.4 -5.82,-8.73 -1.38,-3.32 -2.08,-6.73 -2.08,-10.24 z m -32.94,0.56 c 0,16.24 5.9,30.17 17.72,41.8 11.81,11.81 25.93,17.72 42.35,17.72 16.8,0 31.02,-5.91 42.64,-17.72 11.82,-11.81 17.72,-26.02 17.72,-42.63 0,-16.61 -5.9,-30.83 -17.72,-42.64 -11.62,-11.82 -25.74,-17.72 -42.35,-17.72 -16.8,0 -31.11,5.9 -42.92,17.72 -11.62,11.81 -17.44,26.3 -17.44,43.47 z m 122.09,-363.24 -63.39,145.351 -66.45,-145.351 z m 26.3,-60.629 h -183 L 3480,533.57 h -69.48 l 211.51,454.321 204.04,-454.321 h -70.59 l -44.86,103.821"
         style="fill:#ffffff;fill-opacity:1;fill-rule:nonzero;stroke:none"
         id="path42" />
      <path
         d="m 3870.5,533.57 v 456.539 l 311.74,-326.14 v 297.062 h 64.51 V 507.551 L 3935.01,832.852 V 533.57 h -64.51"
         style="fill:#ffffff;fill-opacity:1;fill-rule:nonzero;stroke:none"
         id="path44" />
      <path
         d="m 4381.27,594.199 h 29.07 c 28.98,0 53.06,3.039 72.26,9.141 19.2,6.449 36.55,16.699 52.05,30.73 31.75,28.969 47.61,66.719 47.61,113.231 0,46.879 -15.68,84.898 -47.06,114.058 -28.24,26.032 -69.86,39.039 -124.86,39.039 h -29.07 z m -64.5,-60.629 v 427.461 h 89.69 c 43.01,0 76.97,-4.25 101.89,-12.73 26.76,-8.301 51.03,-22.422 72.81,-42.36 44.11,-40.242 66.17,-93.121 66.17,-158.64 0,-65.711 -22.98,-118.86 -68.94,-159.473 -23.07,-20.297 -47.25,-34.418 -72.53,-42.348 -23.63,-7.941 -57.13,-11.91 -100.5,-11.91 h -88.59"
         style="fill:#ffffff;fill-opacity:1;fill-rule:nonzero;stroke:none"
         id="path46" />
      <path
         d="M 3571.59,3546.14 H 1530.65 c -28.18,0 -51.03,-22.84 -51.03,-51.03 v -51.02 h 2143 v 51.02 c 0,28.19 -22.85,51.03 -51.03,51.03"
         style="fill:#ffffff;fill-opacity:1;fill-rule:nonzero;stroke:none"
         id="path48" />
      <path
         d="m 1614.73,3137.95 h 129.75 c -69.28,-73.15 -111.79,-171.92 -111.79,-280.63 0,-108.7 42.51,-207.48 111.79,-280.63 h -129.75 c -53.12,80.51 -84.08,176.95 -84.08,280.63 0,103.68 30.96,200.12 84.08,280.63 z m 1956.86,-280.63 c 0,-103.68 -30.95,-200.12 -84.08,-280.63 H 2337.29 c 69.28,73.15 111.79,171.93 111.79,280.63 0,108.71 -42.51,207.48 -111.79,280.63 h 1150.22 c 53.13,-80.51 84.08,-176.95 84.08,-280.63 z m -1530.71,127.56 c 70.45,0 127.57,-57.11 127.57,-127.56 0,-70.45 -57.12,-127.56 -127.57,-127.56 -70.44,0 -127.56,57.11 -127.56,127.56 0,70.45 57.12,127.56 127.56,127.56 z m -561.26,-663.31 c 0,-28.17 22.85,-51.02 51.03,-51.02 h 2040.94 c 28.18,0 51.03,22.85 51.03,51.02 v 1071.5 h -2143 v -1071.5"
         style="fill:#ffffff;fill-opacity:1;fill-rule:nonzero;stroke:none"
         id="path50" />
      <path
         d="m 3061.36,2729.76 c -70.45,0 -127.56,57.11 -127.56,127.56 0,70.45 57.11,127.56 127.56,127.56 70.45,0 127.55,-57.11 127.55,-127.56 0,-70.45 -57.1,-127.56 -127.55,-127.56 z m 0,357.17 c -126.81,0 -229.61,-102.8 -229.61,-229.61 0,-126.8 102.8,-229.6 229.61,-229.6 126.8,0 229.61,102.8 229.61,229.6 0,126.81 -102.81,229.61 -229.61,229.61"
         style="fill:#ffffff;fill-opacity:1;fill-rule:nonzero;stroke:none"
         id="path52" />
    </g>
  </g>
</svg>
