<?xml version="1.0" encoding="UTF-8" standalone="no"?>
<!-- Created with Inkscape (http://www.inkscape.org/) -->

<svg
   version="1.1"
   id="svg2"
   width="680.32001"
   height="680.32001"
   viewBox="0 0 680.32001 680.32001"
   sodipodi:docname="VHS-_&amp;_KASSETTEBAAND_rgb.icon.svg"
   inkscape:version="1.3.2 (091e20e, 2023-11-25, custom)"
   xmlns:inkscape="http://www.inkscape.org/namespaces/inkscape"
   xmlns:sodipodi="http://sodipodi.sourceforge.net/DTD/sodipodi-0.dtd"
   xmlns="http://www.w3.org/2000/svg"
   xmlns:svg="http://www.w3.org/2000/svg">
  <defs
     id="defs6" />
  <sodipodi:namedview
     id="namedview4"
     pagecolor="#ffffff"
     bordercolor="#000000"
     borderopacity="0.25"
     inkscape:showpageshadow="2"
     inkscape:pageopacity="0.0"
     inkscape:pagecheckerboard="0"
     inkscape:deskcolor="#d1d1d1"
     inkscape:zoom="1.6859713"
     inkscape:cx="340.16"
     inkscape:cy="340.16"
     inkscape:window-width="2560"
     inkscape:window-height="1361"
     inkscape:window-x="2551"
     inkscape:window-y="-9"
     inkscape:window-maximized="1"
     inkscape:current-layer="g8" />
  <g
     id="g8"
     inkscape:groupmode="layer"
     inkscape:label="ink_ext_XXXXXX"
     transform="matrix(1.3333333,0,0,-1.3333333,0,680.32)">
    <g
       id="g10"
       transform="scale(0.1)">
      <path
         d="M 5102.36,0 H 0 V 5102.36 H 5102.36 V 0"
         style="fill:#8d1c90;fill-opacity:1;fill-rule:nonzero;stroke:none"
         id="path12" />
      <path
         d="M 3571.59,3546.14 H 1530.65 c -28.18,0 -51.03,-22.84 -51.03,-51.03 v -51.02 h 2143 v 51.02 c 0,28.19 -22.85,51.03 -51.03,51.03"
         style="fill:#ffffff;fill-opacity:1;fill-rule:nonzero;stroke:none"
         id="path48" />
      <path
         d="m 1614.73,3137.95 h 129.75 c -69.28,-73.15 -111.79,-171.92 -111.79,-280.63 0,-108.7 42.51,-207.48 111.79,-280.63 h -129.75 c -53.12,80.51 -84.08,176.95 -84.08,280.63 0,103.68 30.96,200.12 84.08,280.63 z m 1956.86,-280.63 c 0,-103.68 -30.95,-200.12 -84.08,-280.63 H 2337.29 c 69.28,73.15 111.79,171.93 111.79,280.63 0,108.71 -42.51,207.48 -111.79,280.63 h 1150.22 c 53.13,-80.51 84.08,-176.95 84.08,-280.63 z m -1530.71,127.56 c 70.45,0 127.57,-57.11 127.57,-127.56 0,-70.45 -57.12,-127.56 -127.57,-127.56 -70.44,0 -127.56,57.11 -127.56,127.56 0,70.45 57.12,127.56 127.56,127.56 z m -561.26,-663.31 c 0,-28.17 22.85,-51.02 51.03,-51.02 h 2040.94 c 28.18,0 51.03,22.85 51.03,51.02 v 1071.5 h -2143 v -1071.5"
         style="fill:#ffffff;fill-opacity:1;fill-rule:nonzero;stroke:none"
         id="path50" />
      <path
         d="m 3061.36,2729.76 c -70.45,0 -127.56,57.11 -127.56,127.56 0,70.45 57.11,127.56 127.56,127.56 70.45,0 127.55,-57.11 127.55,-127.56 0,-70.45 -57.1,-127.56 -127.55,-127.56 z m 0,357.17 c -126.81,0 -229.61,-102.8 -229.61,-229.61 0,-126.8 102.8,-229.6 229.61,-229.6 126.8,0 229.61,102.8 229.61,229.6 0,126.81 -102.81,229.61 -229.61,229.61"
         style="fill:#ffffff;fill-opacity:1;fill-rule:nonzero;stroke:none"
         id="path52" />
    </g>
  </g>
</svg>
