<?xml version="1.0" encoding="utf-8"?>
<!-- Generator: Adobe Illustrator 26.0.3, SVG Export Plug-In . SVG Version: 6.00 Build 0)  -->
<svg version="1.1" xmlns="http://www.w3.org/2000/svg" xmlns:xlink="http://www.w3.org/1999/xlink" x="0px" y="0px" width="510.2px"
	 height="510.2px" viewBox="0 0 510.2 510.2" style="enable-background:new 0 0 510.2 510.2;" xml:space="preserve">
<style type="text/css">
	.st0{fill:#0082BE;}
	.st1{display:none;}
	.st2{display:inline;}
	.st3{fill:#FFFFFF;}
</style>
<g id="baggrund">
	<rect x="0" y="0" class="st0" width="510.2" height="510.2"/>
</g>
<g id="fraktion" class="st1">
	<g class="st2">
		<path class="st3" d="M189.8,439.7v17.4h-6.5v-42.7h7.3c3.6,0,6.3,0.2,8.1,0.7c1.8,0.5,3.5,1.4,4.9,2.8c2.5,2.4,3.7,5.4,3.7,9.1
			c0,3.9-1.3,7-3.9,9.3c-2.6,2.3-6.2,3.4-10.6,3.4H189.8z M189.8,433.8h2.4c5.9,0,8.9-2.3,8.9-6.8c0-4.4-3.1-6.6-9.2-6.6h-2.1V433.8
			z"/>
		<path class="st3" d="M234.1,446.7h-18.3l-4.8,10.4h-6.9l21.2-45.4l20.4,45.4h-7.1L234.1,446.7z M231.5,440.7l-6.3-14.5l-6.6,14.5
			H231.5z"/>
		<path class="st3" d="M258.3,439.7v17.4h-6.5v-42.7h7.3c3.6,0,6.3,0.2,8.1,0.7c1.8,0.5,3.5,1.4,4.9,2.8c2.5,2.4,3.7,5.4,3.7,9.1
			c0,3.9-1.3,7-3.9,9.3c-2.6,2.3-6.2,3.4-10.6,3.4H258.3z M258.3,433.8h2.4c5.9,0,8.9-2.3,8.9-6.8c0-4.4-3.1-6.6-9.2-6.6h-2.1V433.8
			z"/>
		<path class="st3" d="M289.9,414.4v42.7h-6.5v-42.7H289.9z"/>
		<path class="st3" d="M313.7,438.9l13.2,18.2h-7.9l-12.2-17.5h-1.2v17.5h-6.5v-42.7h7.6c5.6,0,9.7,1.1,12.2,3.2
			c2.8,2.4,4.2,5.5,4.2,9.4c0,3-0.9,5.6-2.6,7.8C318.8,436.9,316.6,438.3,313.7,438.9z M305.7,434h2c6.1,0,9.2-2.3,9.2-7
			c0-4.4-3-6.6-8.9-6.6h-2.3V434z"/>
	</g>
</g>
<g id="ikon">
	<g>
		<g>
			<polygon class="st3" points="252.6,214.3 252.6,131.9 170.3,214.3 			"/>
			<polygon class="st3" points="257.7,127.6 257.7,219.4 165.8,219.4 165.8,382.7 344.4,382.7 344.4,127.6 			"/>
		</g>
	</g>
	<g>
	</g>
	<g>
	</g>
	<g>
	</g>
	<g>
	</g>
	<g>
	</g>
	<g>
	</g>
</g>
</svg>
