<?xml version="1.0" encoding="UTF-8" standalone="no"?>
<!-- Created with Inkscape (http://www.inkscape.org/) -->

<svg
   version="1.1"
   id="svg2"
   width="680.32001"
   height="680.32001"
   viewBox="0 0 680.32001 680.32001"
   sodipodi:docname="RESTAFFALD_rgb.icon.svg"
   inkscape:version="1.3.2 (091e20e, 2023-11-25, custom)"
   xmlns:inkscape="http://www.inkscape.org/namespaces/inkscape"
   xmlns:sodipodi="http://sodipodi.sourceforge.net/DTD/sodipodi-0.dtd"
   xmlns="http://www.w3.org/2000/svg"
   xmlns:svg="http://www.w3.org/2000/svg">
  <defs
     id="defs6" />
  <sodipodi:namedview
     id="namedview4"
     pagecolor="#ffffff"
     bordercolor="#000000"
     borderopacity="0.25"
     inkscape:showpageshadow="2"
     inkscape:pageopacity="0.0"
     inkscape:pagecheckerboard="0"
     inkscape:deskcolor="#d1d1d1"
     inkscape:zoom="1.6859713"
     inkscape:cx="340.16"
     inkscape:cy="340.16"
     inkscape:window-width="2560"
     inkscape:window-height="1361"
     inkscape:window-x="2551"
     inkscape:window-y="-9"
     inkscape:window-maximized="1"
     inkscape:current-layer="g8" />
  <g
     id="g8"
     inkscape:groupmode="layer"
     inkscape:label="ink_ext_XXXXXX"
     transform="matrix(1.3333333,0,0,-1.3333333,0,680.32)">
    <g
       id="g10"
       transform="scale(0.1)">
      <path
         d="M 5102.36,0 H 0 V 5102.36 H 5102.36 V 0"
         style="fill:#111111;fill-opacity:1;fill-rule:nonzero;stroke:none"
         id="path12" />
      <path
         d="m 2780.12,3503.58 402.66,330.48 c 0,0 -143.95,-58.39 -217.44,50.5 -39.11,57.95 -68.13,109.52 -89.69,142.41 -69.75,106.39 -141.61,-2.15 -141.61,-2.15 l -156.21,-402.52 -51.86,570.07 c -101.93,-301.43 -530.83,-59.65 -443.79,-245.54 l 241.02,-443.25 h 100.6 356.32"
         style="fill:#ffffff;fill-opacity:1;fill-rule:nonzero;stroke:none"
         id="path34" />
      <path
         d="m 3470.42,1598.45 c -3.89,4.4 -28.69,33.51 -53.67,85.23 -26.82,55.53 -52.55,138.4 -54.29,246.91 -0.19,5.04 -1.16,27.69 -0.91,34.53 0.81,23.03 1.51,45.73 2.09,68.11 10.3,279.55 5.69,780.62 -139.64,1052.14 -107.61,201.08 -321.14,328.82 -443.75,367.18 h -24.13 -112.94 -317.67 -2.46 c -122.89,-38.96 -338.2,-166.96 -445.37,-367.18 -145.33,-271.52 -149.94,-772.59 -139.63,-1052.14 l 1.78,-49.61 c 0.45,-13.15 0.36,-25.89 0.14,-38.51 -0.09,-4.69 -0.2,-9.33 -0.37,-13.94 -5.61,-209.33 -101.57,-341.49 -110.02,-352.71 -0.33,-0.45 -2.34,-3.73 -2.34,-3.73 -4.57,-6.27 -7.26,-13.85 -7.26,-22.02 0,-21.58 18.71,-39.08 41.78,-39.08 6.68,0 13.39,1.64 20.23,3.97 34.23,10.24 204.62,58.89 388.24,58.89 105.34,0 164.39,-11.38 221.48,-22.4 15.1,-2.92 116.81,-22.57 213.13,-22.57 118.87,0 238.3,7.75 391.28,100.21 59.07,-24.13 120.91,-42.37 180.9,-56.27 108.47,-25.14 210.76,-35.9 279.47,-40.41 49.25,-3.24 81.33,-3.32 85.83,-3.24 0,0 0.15,0.01 0.22,0.02 l 0.31,-0.02 c 21.81,0 39.49,17.4 39.49,38.85 0,10.9 -4.89,19.4 -11.92,27.79"
         style="fill:#ffffff;fill-opacity:1;fill-rule:nonzero;stroke:none"
         id="path36" />
    </g>
  </g>
</svg>
