<svg xmlns="http://www.w3.org/2000/svg" width="680.32" height="680.32" xmlns:v="https://vecta.io/nano"><path d="M680.313 680.32L.001 680.318V.007l680.312.001V680.32" fill="#ef8514"/><path d="M384.62 110.984c0-4.775-3.044-8.644-6.803-8.644s-6.804 3.869-6.804 8.644v52.585h13.607v-52.585m-74.978 0c0-4.775-3.044-8.644-6.804-8.644s-6.803 3.869-6.803 8.644v52.585h13.607v-52.585m20.481 399.662h20.409V326.961h-20.409v183.685m81.721-340.139H268.811l-.004 34.055c.069 4.945 1.285 9.853 4.14 14.392l47.015 70.829v30.393h40.732v-30.393l47.015-70.829c2.856-4.539 4.071-9.447 4.14-14.392l-.004-34.055" fill="#fff"/></svg>