<?xml version="1.0" encoding="UTF-8" standalone="no"?>
<!-- Created with Inkscape (http://www.inkscape.org/) -->

<svg
   version="1.1"
   id="svg2"
   width="680.32001"
   height="680.32001"
   viewBox="0 0 680.32001 680.32001"
   sodipodi:docname="FARLIGT_AFFALD_rgb.icon.svg"
   inkscape:version="1.3.2 (091e20e, 2023-11-25, custom)"
   xmlns:inkscape="http://www.inkscape.org/namespaces/inkscape"
   xmlns:sodipodi="http://sodipodi.sourceforge.net/DTD/sodipodi-0.dtd"
   xmlns="http://www.w3.org/2000/svg"
   xmlns:svg="http://www.w3.org/2000/svg">
  <defs
     id="defs6" />
  <sodipodi:namedview
     id="namedview4"
     pagecolor="#ffffff"
     bordercolor="#000000"
     borderopacity="0.25"
     inkscape:showpageshadow="2"
     inkscape:pageopacity="0.0"
     inkscape:pagecheckerboard="0"
     inkscape:deskcolor="#d1d1d1"
     showgrid="false"
     inkscape:zoom="1.6859713"
     inkscape:cx="340.16"
     inkscape:cy="340.16"
     inkscape:window-width="2560"
     inkscape:window-height="1361"
     inkscape:window-x="2551"
     inkscape:window-y="-9"
     inkscape:window-maximized="1"
     inkscape:current-layer="g8" />
  <g
     id="g8"
     inkscape:groupmode="layer"
     inkscape:label="ink_ext_XXXXXX"
     transform="matrix(1.3333333,0,0,-1.3333333,0,680.32)">
    <g
       id="g10"
       transform="scale(0.1)">
      <path
         d="M 5102.36,0 H 0 V 5102.36 H 5102.36 V 0"
         style="fill:#e91d2c;fill-opacity:1;fill-rule:nonzero;stroke:none"
         id="path12" />
      <path
         d="m 2602.23,2345.16 -101.87,0.14 -51.2,816.24 h 204.1 z m -51.02,-304.44 c -56.36,0 -102.05,45.69 -102.05,102.05 0,56.36 45.69,102.05 102.05,102.05 56.36,0 102.05,-45.69 102.05,-102.05 0,-56.36 -45.69,-102.05 -102.05,-102.05 z m 1200.68,-147.24 0.01,0.02 -1140.49,1898.99 c -12.31,20.34 -34.66,33.93 -60.2,33.93 -27.03,0 -50.48,-15.23 -62.24,-37.56 L 1350.21,1893 l 0.01,-0.01 c -7.89,-12.47 -11.96,-27.57 -10.54,-43.7 3.23,-36.74 36.18,-63.81 73.07,-63.81 h 2276.83 c 37.05,0 70.14,27.28 73.19,64.2 1.35,16.2 -2.86,31.34 -10.88,43.8"
         style="fill:#ffffff;fill-opacity:1;fill-rule:nonzero;stroke:none"
         id="path40" />
    </g>
  </g>
</svg>
