<svg xmlns="http://www.w3.org/2000/svg" width="680.32" height="680.32"><path d="M0 0h5102.36v5102.36H0Z" style="fill:#31ae52;fill-opacity:1;fill-rule:nonzero;stroke:none" transform="matrix(.13333 0 0 -.13333 0 680.32)"/><path d="m2575.4 3507.13 25.45 420.21-102.05.19 25.36-420.43c8.36-.47 16.8-.73 25.32-.73 8.71 0 17.35.26 25.92.76" style="fill:#fff;fill-opacity:1;fill-rule:nonzero;stroke:none" transform="matrix(.13333 0 0 -.13333 0 680.32)"/><path d="m1760.1 3403.61.09.02h.01l-.1-.02" style="fill:#79cf99;fill-opacity:1;fill-rule:nonzero;stroke:none" transform="matrix(.13333 0 0 -.13333 0 680.32)"/><path d="m3279.28 1990.88-5.87.14c-4.88.13-23.1 1.1-27.94 1.44-154.63 10.75-290.27 125.79-375.02 298.47-57.72 117.61-92.1 261.37-92.1 417.29 0 160.19 36.3 307.52 96.94 426.81 60.16 118.37 144.36 208.86 242.41 255.29 43.68 20.67 89.96 32.92 138.03 34.79 2.54.1 21.06.56 21.06.56h46.31c-12.46 13.11-24.9 26.25-38.08 38.65-71.01 66.31-166.35 106.89-271.17 106.89h-.03c-66.82 0-144.19-16.49-199.45-45.62l-.01.03-.02-.02v.02c-82.77-44.38-162.84-69.79-263.16-70.41-100.32.62-180.39 26.03-263.16 70.41v-.02l-.02.02-.01-.03c-55.26 29.13-132.63 45.62-199.45 45.62h-.02c-104.83 0-200.17-40.58-271.18-106.89-13.18-12.4-25.62-25.54-38.08-38.65h46.31s18.53-.46 21.06-.56c48.08-1.87 94.35-14.12 138.03-34.79 98.05-46.43 182.25-136.92 242.41-255.29 60.64-119.29 96.94-266.62 96.94-426.81 0-155.92-34.38-299.68-92.1-417.29-84.75-172.68-220.39-287.72-375.02-298.47-4.84-.34-23.06-1.31-27.94-1.44l-5.87-.14h-94.23c21.93-26.33 44.02-52.58 68.3-76.71l1.5-1.6v-.01c72.49-77.13 175.5-127.16 289.71-127.16h.02l.04.01c18.16 0 84.44 1.9 101.95 4.26 5.9.85 11.88 1.49 17.69 2.6 13.04 2.36 25.69 5.73 38.25 9.32 10.61 3.05 20.95 6.52 31.18 10.4 9.51 3.61 18.59 7.62 27.47 11.94 70.81 38.51 144.15 61.91 246.22 61.91 101.97 0 177.03-23.35 247.81-61.8 8.95-4.35 18.09-8.41 27.68-12.05 10.23-3.88 20.57-7.35 31.18-10.4 12.56-3.59 25.21-6.96 38.25-9.32 5.81-1.11 11.79-1.75 17.69-2.6 17.51-2.36 81.99-4.26 100.15-4.26l.04-.01h.02c114.21 0 217.22 50.03 289.71 127.16v.01l1.5 1.6c24.28 24.13 46.37 50.38 68.3 76.71h-94.23" style="fill:#fff;fill-opacity:1;fill-rule:nonzero;stroke:none" transform="matrix(.13333 0 0 -.13333 0 680.32)"/></svg>