<svg xmlns="http://www.w3.org/2000/svg" width="255" height="255" xmlns:v="https://vecta.io/nano"><path d="M0 0h255v255H0V0z" fill="#1eaf8c"/><path d="M128 128h127v127H128V128z" fill="#5a6e78"/><path d="M128 0h127v127H128V0z" fill="#0082be"/><path d="M0 0h127v127H0V0z" fill="#bea064"/><path d="M67.215 41.414l2.593.026 8.13.185 5.541.082L97 42v2h2l2.563 4.25 1.441 2.391C104 53 104 53 103.902 55.109 103 57 103 57 100.941 58.18c-2.113 1.595-2.113 1.595-2.184 3.688l.18 7.257c-.042 8.703-.042 8.703-3.262 12.918C92.873 84.217 89.995 86.105 87 88c-1.723 1.743-1.723 1.743-3 3.5-2 2.5-2 2.5-5 3.5a59.89 59.89 0 0 1-4.012.114h-2.426l-2.604-.016-2.678-.004-8.467-.031-5.74-.014L39 95V73h-5c.565-7.152 3.364-13.466 8.531-18.434 1.826-1.487 3.676-2.945 5.555-4.363 2.768-1.984 2.768-1.984 4.406-3.71 4.735-4.675 8.209-5.326 14.723-5.079z" fill="#dccbab"/><path d="M186 43h19v55h-38l-.437-17-.193-5.316c-.272-12.746-.272-12.746 3.861-17.508A79.1 79.1 0 0 1 174 55l2.547-2.645 2.203-2.168 2.234-2.207L183 46l3-3z" fill="#fefefe"/><path d="M61 159h5l.008 2.316c.235 6.507 1.075 11.191 4.055 16.996C75.854 190.221 73.42 206.108 73 219H54c-1.071-31.579-1.071-31.579 4.598-43.664C60.827 170.032 60.98 164.698 61 159z" fill="#fbfdfd"/><path d="M77 67h1v27H40V74l34-1 3-6z" fill="#fefdfc"/><path d="M174 193h25c.719 3.593 1.128 6.271 1.133 9.828l.004 2.672-.012 2.75.012 2.797-.004 2.656-.003 2.427C200 218 200 218 199 219l-5.531.133-3.395.004-3.574-.012-3.574.012-3.395-.004-3.139-.003C174 219 174 219 173 218l-.133-4.297-.004-2.656.012-2.797-.012-2.75.004-2.672.003-2.44C173 198 173 198 174 193z" fill="#a7b1b6"/><path d="M127 0h1v127h127v1H128v127h-1V128H0v-1h127V0z" fill="#46918b"/><path d="M38 60h40c-2 6-2 6-5 12H35c1-8 1-8 3-12z" fill="#fcfbfa"/><path d="M58 43h38c-6.743 7.867-6.743 7.867-10.312 10.875l-2.051 1.742L82 57l-1 1c-1.708.087-3.419.107-5.129.098l-3.135-.01-3.299-.025-3.311-.014L58 58V43z" fill="#fdfcfa"/><path d="M186 43h19v55h-38V63h1v34h36V44h-16v19l-20-1c3.537-4.126 6.855-7.978 10.688-11.75l2.262-2.234L183 46l3-3z" fill="#deeff6"/><path d="M97 45c3.3 1.1 3.611 1.456 5.25 4.313l1.078 1.801c.895 2.513.789 3.453-.328 5.887-2.363 2.219-2.363 2.219-5.312 4.5-2.788 2.173-5.446 4.253-7.918 6.781C88 70 88 70 86 70l-2.625-4.25-1.477-2.391C81 61 81 61 81.512 59.023c2.024-2.752 4.375-4.879 6.926-7.148l2.934-2.633C94 47 94 47 97 45z" fill="#fcfaf8"/><path d="M96 64h1c2.078 11.924 2.078 11.924-1.342 16.986C91.888 85.197 87.598 88.731 83 92h-2V65c3 3 3 3 5 6 4.448-1.398 6.824-3.647 10-7z" fill="#fdfcfb"/><path d="M174 180h25v11h-25v-11z" fill="#f7f8f9"/><path d="M175 208h23v10h-23v-10z" fill="#fdfdfe"/><path d="M198 164l1 4c-11.892 10.193-11.892 10.193-20.75 10.063l-2.422-.027L174 178c0-2.125 0-2.125 1-5 6.444-6.428 13.986-9.563 23-9z" fill="#f0f1f2"/><path d="M174 193h25v8h-25v-8z" fill="#cdd3d6"/><path d="M57 45v13H42c1.994-3.989 3.672-5.815 6.938-8.75l2.652-2.422C54 45 54 45 57 45z" fill="#fff"/><path d="M54 188h1l1 28 4-3c3.785-.406 6.093-.512 9.438 1.375C71 216 71 216 71 218l2 1H54v-31z" fill="#91d8c7"/><path d="M185 47v14h-14c11.714-14 11.714-14 14-14z" fill="#fefefe"/><path d="M81 61c2.572 2.987 4.216 5.139 5 9l2.371-1.969 3.066-2.531 3.059-2.531C97 61 97 61 98 61v18h-1l-1-14-8 7c-4-2-4-2-6-6v27h-2l-.055-12.708-.021-4.324-.022-6.21-.016-3.777C80 63 80 63 81 61z" fill="#decfb1"/><path d="M187 43v20l-19-1c3.537-4.126 6.855-7.978 10.688-11.75l2.262-2.234L183 46l1.707-1.766C186 43 186 43 187 43zm-5.941 6.809l-1.768 1.764-1.854 1.865-1.865 1.854-1.764 1.768-1.631 1.635c-1.289 1.138-1.289 1.138-1.177 2.307h14V47c-1.774 0-2.74 1.61-3.941 2.809z" fill="#cbe6f2"/><path d="M174 193h25v3h-25v-3z" fill="#ebeeef"/><path d="M174 202h24l1 3h-25v-3z" fill="#e9eced"/><path d="M84 54l2 1-1.937 1.75c-3.604 3.932-3.225 8.008-3.379 13.203l-.063 2.001-.183 6.296-.131 4.281L80 93l2 1h-3l-.757-14.679-.269-4.99-.342-7.186-.16-2.242c-.086-2.947-.06-5.206 1.89-7.519C81.023 55.991 81.023 55.991 84 54z" fill="#d0bb90"/><path d="M57 45v13h-1l-1-11-2.336 2.406-3.039 3.094-1.539 1.59L44 58h-2c1.547-3.81 3.904-6.024 6.938-8.75l2.652-2.422C54 45 54 45 57 45z" fill="#e8dec9"/><path d="M188 177v1l11 1v1h-25v-2c9.41-1.148 9.41-1.148 14-1z" fill="#83929a"/><path d="M187 43v20l-2-1-1-18c2-1 2-1 3-1z" fill="#7bbedd"/><path d="M67 214l2 4H58l1-3c2.709-1.354 5.009-1.065 8-1z" fill="#f9fdfc"/><path d="M95 44l2 2-10 9-2-2 10-9z" fill="#dbcaa9"/><path d="M77 62l2 3-4 8-2-2 4-9z" fill="#ddcdae"/><path d="M49 50l2 1-3.375 3.5-1.898 1.969C44 58 44 58 42 58c1.491-3.795 3.757-5.61 7-8z" fill="#f3ede3"/></svg>