<svg xmlns="http://www.w3.org/2000/svg" width="680" height="680"><path fill="#3db586" d="M340 0v340h340V0Z"/><path fill="#fff" d="M543.217 307.617c-5.322-10.921-16.546-18.465-29.5-18.465-12.955 0-24.177 7.544-29.5 18.465h-5.74c5.663-13.888 19.326-23.704 35.24-23.704 15.915 0 29.576 9.816 35.24 23.704Zm15.045-114.258c0-69.71-30.6-64.077-31.42-129.422l-.009-39.306h-26.232l-.008 39.306c-.822 65.345-31.421 59.711-31.421 129.422l-.047 119.497h89.186l-.049-119.497"/><path fill="#8d1b8f" d="M0 0v340h340V0Z"/><path fill="#fff" d="M166.222 87.734c0 4.91-4.017 8.925-8.925 8.925h-58.65c-4.91 0-8.925-4.016-8.925-8.925 0-4.908 4.016-8.925 8.925-8.925h58.65c4.908 0 8.925 4.017 8.925 8.925Zm3.852 57.893c0-.206.003-.4.006-.59.002-.165.005-.329.005-.503l-.002-.62c-.01-6.492-.03-19.997 9.21-32.119l28.122-38.6v-16.81c-23.397-2.955-66.835-2.248-85.173-2.248-81.352 0-83.405-4.125-83.45-4.407L42.5 123.9c2.164 20.24 5.513 41.06 16.274 58.148 1.014 1.611 2.134 3.327 2.076 5.246-.045 1.506-.815 2.87-1.512 4.195-6.542 12.44-8.169 26.36-9.677 40.42l-3.245 30.245c-.887 8.272-.863 13.798-1.75 22.071-.074 3.074-3.01 5.732-4.868 8.14-1.86 2.408-2.434 7.827-2.593 12.235 3.836 1.462 28.644.858 49.636.118 13.379-.472 25.418-2.074 28.745-2.48 18.282-2.235 37.224-2.617 56.132-2.258a15.408 15.408 0 0 1-1.645-6.899V145.627"/><path fill="#fff" d="M284.627 204.186c0 4.888-4 8.887-8.888 8.887h-.073c-4.889 0-8.89-3.999-8.89-8.887v-58.724c0-4.889 4.001-8.888 8.89-8.888h.073c4.888 0 8.888 3.999 8.888 8.888Zm6.279-92.704-40.32-36.595V23.956l-38.21-.112V74.81l-.04.052v.016l-1.017 1.382-28.065 38.523a37.768 37.768 0 0 0-5.676 10.585c-2.566 7.73-2.426 14.84-2.426 18.983 0 .37-.01.698-.01 1.077v147.72c0 2.635.968 5.057 2.584 6.97 2.175 2.574 5.527 4.226 9.288 4.226H290.76c6.557 0 11.872-5.012 11.872-11.197v-148.08c0-.462.007-.896.007-1.366 0-7.665-.787-22-11.734-32.219"/><path fill="#4f6570" d="M340 340v340h340V340H340.02Z"/><path fill="#fff" d="M575.46 374.709c5.776 12.274-18.85 36.626-55 54.39-36.153 17.764-70.144 22.214-75.92 9.94-5.776-12.273 18.85-36.624 55.002-54.39 36.151-17.763 70.142-22.214 75.918-9.94M443.7 588.923h132.6v-18.178H443.7v18.178M443.7 656.856h132.6v-61.133H443.7v61.133M443.7 563.944h132.6v-18.177H443.7v18.177M576.3 452.855H443.7v61.133h132.6v-61.133M443.7 520.79v18.176h132.6V520.79H443.7"/><path fill="#bea064" d="M0 339.867h340.133V680H0Z"/><g fill="#fff"><path d="M111.6 466.568h78.471v152.026H111.6ZM128.334 401.333h78.66v19.287h-78.66ZM190.071 461.463h.19l15.032-36.021h-77.148l-16.261 36.305h78.187ZM196.784 458.438l28.08-25.054-15.033-6.146ZM195.933 616.325l32.334-29.025V436.787l-32.334 28.836Z"/></g></svg>