<svg xmlns="http://www.w3.org/2000/svg" width="680" height="680" xmlns:v="https://vecta.io/nano"><path fill="#bea064" d="M0 0h680v680H0V0Z"/><path fill="#141414" d="M0 0h340v680H0V0Z"/><path fill="#8d1b8f" d="M340 0h340v340H340V0Z"/><path fill="#fdfdfd" d="M153.563 262.805l4.203.008 10.988.05 11.242.04L202 263v2l5 1v2l2.207.34c8.682 2.052 16.14 9.024 22.793 14.66l2.535 2.09c7.002 5.985 16.326 14.309 17.465 23.91h2l1.813 4.5 1.019 2.531L258 319l1.508 3.66c1.853 4.97 2.687 10.061 3.555 15.277 1.027 6.006 2.108 11.966 3.462 17.907 2.194 9.95 3.609 20.076 4.077 30.254l.124 2.664c.331 8.292.298 16.578.231 24.875l-.015 2.086-.189 19.302c-1.444 28.082-1.444 28.082 8.88 53.248C281 490 281 490 282.055 492.164c.808 2.013.808 2.013 2.945 2.836.042 2.333.04 4.667 0 7-1.88 1.88-5.062 1.168-7.593 1.19l-2.782-.002-2.827.001c-9.348-.069-18.534-1.003-27.798-2.189v-2l-2.09-.113c-5.59-.391-10.441-1.183-15.695-3.121-3.657-1.265-7.427-2.005-11.215-2.766v-2c-4.454 1.089-8.357 2.585-12.5 4.563-4.281 2.007-7.796 3.123-12.5 3.437v2c-8.132 2.18-16.172 2.309-24.524 2.26-2.236-.01-4.47 0-6.706.013a8660338866.044 8660338866.044 0 0 1-8.218-.015c-3.553-.258-6.213-1.072-9.552-2.258-10.393-1.968-20.705-2.332-31.25-2.25l-2.174.01c-15.096.076-29.477.49-43.892 5.412-3.488 1.076-6.077 1.309-9.684.828l-2-2c0-7.094 3.717-12.886 7-19h2l.332-1.695.48-2.43.527-2.687a177.92 177.92 0 0 1 1.425-6.297c2.1-8.76 2.61-16.905 2.459-25.887l-.028-4.214-.106-11.006c-.297-24.52-.016-48.561 3.911-72.846l.5-3.292c.799-5.083 1.752-9.792 3.5-14.646a287.94 287.94 0 0 0 1.438-6.813c4.393-20.714 15.26-40.92 33.269-53.003C111 278 111 278 113 278l1-3a155.915 155.915 0 0 1 5-2l1.402-1.402c1.796-1.796 3.576-2.913 5.785-4.16l2.168-1.254c8.238-3.687 16.338-3.45 25.208-3.38z"/><path fill="#fefefe" d="M379 50l3.312.436 3.813.502 2.145.288c14.582 1.868 29.142 1.954 43.82 2.034l11.66.077 24.75.163 28.707.192 11.423.068c28.908.188 28.908.188 38.37 2.24 1.472 11.651.535 19.127-6.734 28.516a383.789 383.789 0 0 1-3.452 4.25c-3.207 3.949-6.179 8.072-9.189 12.171l-1.727 2.293c-10.968 14.665-15.528 27.281-15.352 45.554a2046.256 2046.256 0 0 0 .049 18.357l.032 14.03.085 26.518.087 30.21L511 300l-3.216.06-12.075.254-5.177.103c-11.7.215-23.128 1.04-34.72 2.646-26.072 3.332-52.58 2.292-78.812 1.937-.11-7.695-.11-7.695 1.813-11.188l1.019-1.917C381 290 381 290 382.509 288.458c2.254-3.715 2.227-7.398 2.518-11.673l.223-2.773.457-5.891 1.258-15.375.26-3.074c3.754-43.625 3.754-43.625 11.087-57.234 1.995-4.062 1.799-5.144.688-9.438a151.561 151.561 0 0 0-3.75-7.375c-14.28-27.636-13.707-59.802-15.375-90.188l-.135-2.4A502.814 502.814 0 0 1 379 50z"/><path fill="#fefdfe" d="M552 24h39l-.133 11.059.01 10.663-.059 7.382c-.991 13.798-.991 13.798 3.268 26.367 2.525 2.269 4.952 3.89 7.914 5.529a64.814 64.814 0 0 1 3.32 3.04l12.617 11.397 1.864 1.641a266.438 266.438 0 0 0 3.704 3.19c10.128 8.554 17.29 17.154 19.495 30.732.299 5.166.284 10.328.275 15.5l.015 4.704.012 12.718.008 10.632.006 25.08.027 25.854.02 22.228.015 13.263-.002 12.464.009 4.57-.01 6.245v3.527c-.53 4.548-2 7.949-5.384 11.065-4.582 1.762-8.984 1.575-13.852 1.554l-3.318.02-10.852.01-7.543.015a4164.32 4164.32 0 0 1-15.807-.003 2923.86 2923.86 0 0 0-18.257.03l-17.586.02-7.473.019c-3.48.014-6.96.004-10.442-.013l-3.123.029c-4.29-.044-7.005-.118-10.792-2.25-3.726-4.368-4.197-8.33-4.207-13.965l-.011-1.996-.003-6.6-.015-4.742-.012-12.868-.008-10.757-.006-25.395-.027-26.152-.02-22.485-.015-13.415.002-12.63-.009-4.616c-.051-10.329.495-19.773 6.162-28.722l1.586-2.504c2.622-3.898 5.372-7.683 8.2-11.434a421.993 421.993 0 0 0 5.154-7c1.793-2.356 3.618-4.495 5.6-6.683 11.242-13.019 11.444-24.758 10.995-41.442a1471.67 1471.67 0 0 1-.033-7.27L552 24z"/><path fill="#fff" d="M452 467h78v151h-78V467Z"/><path fill="#fbfbfb" d="M164 171h2l.136 2.313c.832 13.826 1.785 27.526 3.824 41.233.973 6.616 1.523 13.17 1.83 19.849-.079 2.532-.079 2.532 1.21 3.605l4-12h2l.332-1.906c1.048-5.66 2.496-10.763 4.668-16.094h2l2-11h2l.188-2.688c.998-4.07 2.703-5.591 5.812-8.312l1-1c3.772-.429 5.498-.339 8.688 1.813L208 189l1.563 1.313c2.827 3.318 4.718 7.382 6.816 11.19 3.589 6.289 6.61 10.674 13.371 13.747 4.387 1.012 8.766 1.413 13.25 1.75-1.455 3.521-3.245 5.259-6.25 7.563l-2.715 2.109L231 229a1881.226 1881.226 0 0 0-6.813 5.313l-1.784 1.395c-5.262 4.137-10.38 8.433-15.465 12.784L204 251l-2.34 2.626c-4.854 4.003-11.201 2.984-17.152 2.862l-3.943-.021a974.763 974.763 0 0 1-10.327-.124l-10.558-.099L139 256a875.282 875.282 0 0 1-2-4.375l-1.125-2.46C135 247 135 247 135 245h-2l-3-9h-2l-1.398-2.902c-4.748-9.733-9.968-19.08-15.584-28.337-2.161-3.738-3.585-6.34-3.018-10.761 1.174-1.625 1.174-1.625 3-3 2.521-.4 2.521-.4 5.523-.441l3.328-.076 3.524-.046c16.922.344 16.922.344 31.625-6.437h2l.813-1.75C159 180 159 180 160.5 178.062c1.64-2.254 2.556-4.449 3.5-7.062z"/><path fill="#fefefe" d="M568 438l.725 58 .331 26.932.261 23.49.163 12.424c.648 27.204.648 27.204-4.538 34.015-3.284 3.412-6.873 5.749-10.942 8.139a102.188 102.188 0 0 0-4.313 3.813l-1.804 1.554c-3.073 2.665-6.08 5.402-9.098 8.13C537 616 537 616 536 616l-.622-58.494-.283-27.162-.224-23.685a726.189 726.189 0 0 0-.14-12.531l-.088-11.817a144.203 144.203 0 0 0-.073-4.316c-.189-6.155-.223-11.512 4.048-16.246 2.934-2.855 6.106-5.299 9.382-7.749l4.125-3.625 1.86-1.605a278.027 278.027 0 0 0 4.656-4.196l2.734-2.512 2.523-2.34C566 438 566 438 568 438z"/><path fill="#fdfcfb" d="M468 425h77c-1.792 5.376-3.54 10.533-5.664 15.75l-1.461 3.59-1.5 3.66-1.523 3.754c-3.724 9.118-3.724 9.118-4.852 10.246-2.434.095-4.84.126-7.274.114h-2.306c-2.526 0-5.053-.009-7.58-.016l-5.242-.005a8820.63 8820.63 0 0 1-13.825-.024l-14.095-.02L452 462a126.709 126.709 0 0 1 5.004-12.86l.859-1.91 2.7-5.98 1.826-4.059L468 425z"/><path fill="#fcfbf8" d="M468 401h79v20h-79v-20Z"/><path fill="#8f1f91" d="M441.547 78.353l3.954-.048 4.249.03 4.382-.014 9.169.027 11.731-.018h9.044l4.325-.011 6.052.034 3.474.012c4.035.834 5.542 2.447 8.073 5.635.686 4.267.5 6.207-1.813 9.875-3.508 3.408-6.54 3.26-11.231 3.302l-3.773.039-4.081.022-2.08.013-10.89.044-11.234.085-8.653.038-4.14.035-5.802.017-3.33.018c-3.67-.602-5.326-1.93-7.973-4.488-1.57-3.139-1.352-5.539-1-9 3.553-4.521 5.85-5.627 11.547-5.647z"/><path fill="#8f2091" d="M616 136.313l1.938-.075c3.533 1.305 5.431 3.476 7.062 6.762.747 4.707.68 9.403.629 14.156l.007 4.169-.04 8.715a782.831 782.831 0 0 0-.008 11.136l-.014 8.6a491.31 491.31 0 0 0 .002 4.106c.038 13.338.038 13.338-4.576 18.118-2.184.98-2.184.98-4.438 1.188l-2.246.292c-3.59-.744-5.008-2.706-7.316-5.48-.635-3.073-.635-3.073-.647-6.547l-.048-3.954.03-4.249-.014-4.382.027-9.169-.018-11.731v-9.044l-.011-4.325.034-6.052.012-3.474c1.008-4.877 4.406-8.792 9.635-8.76z"/><path fill="#fcfaf8" d="M549 428c3.958.545 7.26 1.365 10.875 3.063l2.367 1.097L564 433c-1.097 3.29-1.848 3.968-4.438 6.125a320.01 320.01 0 0 0-9.562 8.438c-4.155 3.756-8.458 7.167-13 10.437 2.18-6.88 4.803-13.45 7.688-20.063l1.26-2.912L549 428z"/><path fill="#cbcbcb" d="m106 281 2 1c-4.16 4.85-8.318 9.644-13 14h-2v2l-2-1c4.76-5.593 9.746-10.869 15-16Z"/><path fill="#bbb" d="M170 222h1l.148 3.246.227 4.191.094 2.143L172 237l2 1-1 3h-3v-19z"/><path fill="#b7b7b7" d="M164 171h2l1 16-2-1v-11h-2l1-4Z"/><path fill="#838383" d="M247 216l-4 3v-2h-10v-1l5.313-.563 2.988-.316C244 215 244 215 247 216z"/></svg>