<?xml version="1.0" encoding="utf-8"?>
<svg xmlns="http://www.w3.org/2000/svg" viewBox="0 0.007 680.313 680.613" width="680.313px" height="680.613px"><g id="object-0"><path d="M 680.313 680.32 L 0 680.32 L 0 0.007 L 680.313 0.007 L 680.313 680.32" style="fill: rgb(17, 17, 17); fill-opacity: 1; fill-rule: nonzero; stroke: none; stroke-width: 0.133;" id="path12"/><path d="M 168.342 391.808 L 168.343 392.147 L 168.342 391.808 Z" style="fill: rgb(23, 23, 23); fill-opacity: 1; fill-rule: nonzero; stroke: none; stroke-width: 0.133;" id="path34"/><path d="M 168.342 391.808 L 168.343 392.147 L 168.342 391.808 Z" style="fill: rgb(23, 23, 23); fill-opacity: 1; fill-rule: nonzero; stroke: none; stroke-width: 0.133;" id="path36"/><path d="M 78.849 397.309 L 66.324 397.309 L 66.324 382.995 L 78.849 382.995 L 78.849 397.309" style="fill: rgb(255, 255, 255); fill-opacity: 1; fill-rule: nonzero; stroke: none; stroke-width: 0.133;" id="path38"/><path d="M 273.892 397.309 L 261.367 397.309 L 261.367 382.995 L 273.892 382.995 L 273.892 397.309" style="fill: rgb(255, 255, 255); fill-opacity: 1; fill-rule: nonzero; stroke: none; stroke-width: 0.133;" id="path40"/><path d="M 161.704 278.366 L 69.436 278.366 C 66.753 278.366 64.569 280.549 64.569 283.233 L 64.569 352.241 C 64.569 354.925 66.753 357.108 69.436 357.108 L 161.704 357.108 C 164.388 357.108 166.571 354.925 166.571 352.241 L 166.571 283.233 C 166.571 280.549 164.388 278.366 161.704 278.366" style="fill: rgb(255, 255, 255); fill-opacity: 1; fill-rule: nonzero; stroke: none; stroke-width: 0.133;" id="path42"/><path d="M 267.249 278.366 L 174.982 278.366 C 172.298 278.366 170.114 280.549 170.114 283.233 L 170.114 352.241 C 170.114 354.925 172.298 357.108 174.982 357.108 L 267.249 357.108 C 269.933 357.108 272.116 354.925 272.116 352.241 L 272.116 283.233 C 272.116 280.549 269.933 278.366 267.249 278.366" style="fill: rgb(255, 255, 255); fill-opacity: 1; fill-rule: nonzero; stroke: none; stroke-width: 0.133;" id="path44"/><path d="M 287.969 318.427 L 281.435 318.427 C 278.311 318.427 275.756 320.983 275.756 324.106 L 275.756 361.01 L 60.93 361.01 L 60.93 324.106 C 60.93 320.983 58.375 318.427 55.251 318.427 L 48.717 318.427 C 45.593 318.427 43.038 320.983 43.038 324.106 L 43.038 373.581 C 43.038 376.705 45.593 379.26 48.717 379.26 L 287.969 379.26 C 291.093 379.26 293.648 376.705 293.648 373.581 L 293.648 324.106 C 293.648 320.983 291.093 318.427 287.969 318.427" style="fill: rgb(255, 255, 255); fill-opacity: 1; fill-rule: nonzero; stroke: none; stroke-width: 0.133;" id="path46"/><path d="M 680.189 680.62 L 340.058 680.62 L 340.058 0.632 L 680.189 0.632 L 680.189 680.62" style="fill: rgb(233, 29, 44); fill-opacity: 1; fill-rule: nonzero; stroke: none; stroke-width: 0.133;" id="path-1"/><path d="M 516.609 356.795 L 510.073 356.787 L 506.786 304.407 L 519.882 304.407 L 516.609 356.795 Z M 513.336 376.332 C 509.717 376.332 506.786 373.4 506.786 369.784 C 506.786 366.167 509.717 363.235 513.336 363.235 C 516.951 363.235 519.882 366.167 519.882 369.784 C 519.882 373.4 516.951 376.332 513.336 376.332 Z M 590.388 385.781 L 590.388 385.78 L 517.196 263.917 C 516.407 262.612 514.973 261.74 513.336 261.74 C 511.599 261.74 510.092 262.717 509.341 264.15 L 436.263 385.812 L 436.264 385.813 C 435.758 386.613 435.496 387.582 435.588 388.617 C 435.795 390.974 437.909 392.711 440.276 392.711 L 586.388 392.711 C 588.768 392.711 590.888 390.961 591.088 388.592 C 591.168 387.552 590.898 386.581 590.388 385.781" style="fill: rgb(255, 255, 255); fill-opacity: 1; fill-rule: nonzero; stroke: none; stroke-width: 0.133;" id="path-2"/><g id="svg-2" transform="matrix(1, 0, 0, 1, 308.363739, -2.399718)"/></g></svg>